<?xml version="1.0" encoding="utf-8"?>
<!-- Generator: Adobe Illustrator 15.1.0, SVG Export Plug-In . SVG Version: 6.00 Build 0)  -->
<!DOCTYPE svg PUBLIC "-//W3C//DTD SVG 1.1//EN" "http://www.w3.org/Graphics/SVG/1.1/DTD/svg11.dtd">
<svg version="1.1" id="chevrons.fw-chev-l-md" xmlns="http://www.w3.org/2000/svg" xmlns:xlink="http://www.w3.org/1999/xlink"
	 x="0px" y="0px" width="31.329px" height="355.25px" viewBox="17.642 -127.5 31.329 355.25"
	 enable-background="new 17.642 -127.5 31.329 355.25" xml:space="preserve">
<path fill="none" d="z"/>
<path fill="none" d="z"/>
<path fill="none" d="z"/>
<path fill="none" d="z"/>
<path fill="none" d="z"/>
<path fill="none" d="z"/>
<path fill="none" d="z"/>
<g id="Layer_x25_2015">
	<path d="M20.605-70.88c-0.758,0-1.517-0.289-2.096-0.867c-1.157-1.154-1.157-3.027,0-4.183L41.816-99.19L18.51-122.451
		c-1.157-1.155-1.157-3.027,0-4.183c1.158-1.154,3.035-1.154,4.191,0l25.402,25.352c1.157,1.155,1.157,3.028,0,4.183L22.701-71.747
		C22.123-71.169,21.364-70.88,20.605-70.88z"/>
</g>
<path fill="none" d="z"/>
<path fill="none" d="z"/>
<g id="Layer_x25_201">
	<path d="M20.77,46.619c-0.325,0-0.65-0.123-0.898-0.371c-0.496-0.494-0.496-1.297,0-1.792L44.376,20L19.872-4.456
		c-0.496-0.495-0.496-1.297,0-1.792c0.496-0.495,1.3-0.495,1.796,0L47.07,19.104c0.496,0.495,0.496,1.297,0,1.792L21.668,46.248
		C21.42,46.496,21.095,46.619,20.77,46.619z"/>
</g>
<path fill="none" d="z"/>
<path fill="none" d="z"/>
<g id="Layer_x25_2013">
	<path d="M20.688-12.535c-0.542,0-1.084-0.207-1.497-0.619c-0.827-0.824-0.827-2.162,0-2.987L43.096-40L19.191-63.858
		c-0.827-0.825-0.827-2.163,0-2.987c0.826-0.825,2.167-0.825,2.994,0l25.401,25.352c0.827,0.825,0.827,2.163,0,2.988L22.185-13.154
		C21.771-12.742,21.229-12.535,20.688-12.535z"/>
</g>
<path fill="none" d="z"/>
<path fill="none" d="z"/>
<g id="Layer_x25_2016">
	<path d="M46.008,111.311c0.758,0,1.517-0.289,2.096-0.867c1.157-1.154,1.157-3.027,0-4.183L24.797,83l23.307-23.261
		c1.157-1.155,1.157-3.027,0-4.183c-1.158-1.154-3.035-1.154-4.191,0L18.51,80.908c-1.157,1.156-1.157,3.028,0,4.184l25.402,25.352
		C44.49,111.021,45.249,111.311,46.008,111.311z"/>
</g>
<path fill="none" d="z"/>
<path fill="none" d="z"/>
<g id="Layer_x25_2012">
	<path d="M46.172,227.75c0.325,0,0.65-0.123,0.898-0.371c0.496-0.494,0.496-1.297,0-1.792l-24.504-24.456l24.504-24.456
		c0.496-0.495,0.496-1.298,0-1.792c-0.496-0.495-1.301-0.495-1.797,0l-25.401,25.352c-0.496,0.495-0.496,1.298,0,1.793
		l25.401,25.352C45.521,227.627,45.848,227.75,46.172,227.75z"/>
</g>
<path fill="none" d="z"/>
<path fill="none" d="z"/>
<g id="Layer_x25_2014">
	<path d="M46.09,169.465c0.541,0,1.084-0.207,1.496-0.619c0.827-0.824,0.827-2.162,0-2.987L23.682,142l23.904-23.858
		c0.827-0.825,0.827-2.163,0-2.987c-0.826-0.825-2.167-0.825-2.992,0l-25.402,25.352c-0.827,0.825-0.827,2.163,0,2.988
		l25.402,25.352C45.006,169.258,45.548,169.465,46.09,169.465z"/>
</g>
<path fill="none" d="z"/>
</svg>
