<?xml version="1.0" encoding="utf-8"?>
<!-- Generator: Adobe Illustrator 15.1.0, SVG Export Plug-In . SVG Version: 6.00 Build 0)  -->
<!DOCTYPE svg PUBLIC "-//W3C//DTD SVG 1.1//EN" "http://www.w3.org/Graphics/SVG/1.1/DTD/svg11.dtd">
<svg version="1.1" id="chevrons.fw-chev-l-md" xmlns="http://www.w3.org/2000/svg" xmlns:xlink="http://www.w3.org/1999/xlink"
	 x="0px" y="0px" width="31.329px" height="187.5px" viewBox="17.642 -127.5 31.329 187.5"
	 enable-background="new 17.642 -127.5 31.329 187.5" xml:space="preserve">
<path fill="none" d="z"/>
<path fill="none" d="z"/>
<path fill="none" d="z"/>
<path fill="none" d="z"/>
<path fill="none" d="z"/>
<path fill="none" d="z"/>
<path fill="none" d="z"/>
<g id="Layer_x25_2015">
	<path d="M20.605-69.88c-0.758,0-1.517-0.289-2.096-0.867c-1.157-1.154-1.157-3.027,0-4.183L41.816-98.19L18.51-121.451
		c-1.157-1.155-1.157-3.027,0-4.183c1.158-1.154,3.035-1.154,4.191,0l25.402,25.352c1.157,1.155,1.157,3.028,0,4.183L22.701-70.747
		C22.123-70.169,21.364-69.88,20.605-69.88z"/>
</g>
<path fill="none" d="z"/>
<path fill="none" d="z"/>
<g id="Layer_x25_201">
	<path d="M20.77,47.619c-0.325,0-0.65-0.123-0.898-0.371c-0.496-0.494-0.496-1.297,0-1.792L44.376,21L19.872-3.456
		c-0.496-0.495-0.496-1.297,0-1.792c0.496-0.495,1.3-0.495,1.796,0L47.07,20.104c0.496,0.495,0.496,1.297,0,1.792L21.668,47.248
		C21.42,47.496,21.095,47.619,20.77,47.619z"/>
</g>
<path fill="none" d="z"/>
<path fill="none" d="z"/>
<g id="Layer_x25_2013">
	<path d="M20.688-11.535c-0.542,0-1.084-0.207-1.497-0.619c-0.827-0.824-0.827-2.162,0-2.987L43.096-39L19.191-62.858
		c-0.827-0.825-0.827-2.163,0-2.987c0.826-0.825,2.167-0.825,2.994,0l25.401,25.352c0.827,0.825,0.827,2.163,0,2.988L22.185-12.154
		C21.771-11.742,21.229-11.535,20.688-11.535z"/>
</g>
<path fill="none" d="z"/>
</svg>
