<?xml version="1.0" standalone="no"?>
<!DOCTYPE svg PUBLIC "-//W3C//DTD SVG 1.1//EN" "http://www.w3.org/Graphics/SVG/1.1/DTD/svg11.dtd" >
<svg xmlns="http://www.w3.org/2000/svg">
<metadata></metadata>
<defs>
<font id="lubalin_for_ibmdemi" horiz-adv-x="1392" >
<font-face units-per-em="2048" ascent="1473" descent="-575" />
<missing-glyph horiz-adv-x="589" />
<glyph horiz-adv-x="2048" />
<glyph horiz-adv-x="2048" />
<glyph unicode="&#xd;" horiz-adv-x="2048" />
<glyph unicode=" "  horiz-adv-x="589" />
<glyph unicode="&#x09;" horiz-adv-x="589" />
<glyph unicode="&#xa0;" horiz-adv-x="589" />
<glyph unicode="!" horiz-adv-x="708" d="M225 0v289h258v-289h-258zM225 438v1024h258v-1024h-258z" />
<glyph unicode="&#x22;" horiz-adv-x="860" d="M94 1462h258l-55 -588h-150zM492 1462h258l-56 -588h-149z" />
<glyph unicode="#" horiz-adv-x="1228" d="M76 489v154h272l31 209h-244v154h266l66 456h154l-64 -456h211l66 456h155l-65 -456h231v-154h-254l-29 -209h224v-154h-248l-72 -489h-155l69 489h-211l-69 -489h-156l70 489h-248zM504 643h209l30 209h-211z" />
<glyph unicode="$" horiz-adv-x="1081" d="M72 1065q0 155 104 272.5t258 137.5v215h213v-238q73 -11 121 -78v88h193v-401h-228q-5 82 -59 134t-137 52q-80 0 -136.5 -48.5t-56.5 -127.5q0 -45 16 -78.5t46.5 -55.5t63 -35t77.5 -25q223 -58 317 -125q85 -60 130.5 -147t45.5 -191q0 -173 -110 -297t-283 -152 v-211h-213v246l-16 2q-47 16 -70 31t-51 51v-84h-207v434h244q-5 -97 59.5 -165t161.5 -68q88 0 147.5 54.5t59.5 141.5q0 49 -18.5 86.5t-54 62t-69.5 39t-83 29.5q-76 23 -108.5 33t-93 36t-99.5 54q-77 55 -120.5 142.5t-43.5 185.5z" />
<glyph unicode="%" horiz-adv-x="1802" d="M86 1135q0 147 106.5 252.5t253.5 105.5q151 0 259 -106.5t108 -256.5q0 -151 -105 -257.5t-257 -106.5q-153 0 -259 108t-106 261zM299 1133q0 -65 44 -109.5t108 -44.5q61 0 105 43.5t44 105.5q0 63 -44 107.5t-107 44.5q-62 0 -106 -43t-44 -104zM469 0l659 1462h201 l-657 -1462h-203zM989 346q0 149 106.5 254t254.5 105q151 0 258.5 -105.5t107.5 -255.5q0 -151 -106 -259t-256 -108q-153 0 -259 108t-106 261zM1202 344q0 -63 45 -108.5t109 -45.5q61 0 104 45t43 107t-44 107t-105 45q-62 0 -107 -44t-45 -106z" />
<glyph unicode="&#x26;" horiz-adv-x="1515" d="M94 395q0 72 23 134.5t68.5 113.5t93 89t114.5 79l-14 14q-74 78 -110 148.5t-36 165.5q0 156 110 259t267 103q151 0 259 -98t108 -246q0 -110 -65 -199.5t-169 -150.5l236 -232l143 312h303v-228h-145l-127 -258l250 -251l-172 -170l-232 229q-174 -238 -440 -238 q-120 0 -226 53t-172.5 151.5t-66.5 219.5zM362 414q0 -86 63.5 -145.5t149.5 -59.5q87 0 144.5 45t103.5 129l-272 268q-87 -44 -138 -99.5t-51 -137.5zM477 1143q0 -54 26.5 -94.5t76.5 -85.5l18 -17q150 95 150 195q0 60 -38.5 102.5t-97.5 42.5q-60 0 -97.5 -41 t-37.5 -102z" />
<glyph unicode="'" horiz-adv-x="450" d="M94 1462h258l-55 -588h-150z" />
<glyph unicode="(" horiz-adv-x="778" d="M94 596q0 190 74.5 365.5t213.5 308.5t318 192v-305q-150 -86 -236.5 -236t-86.5 -323q0 -171 87 -324.5t236 -234.5v-311q-273 98 -439.5 337.5t-166.5 530.5z" />
<glyph unicode=")" horiz-adv-x="778" d="M94 39q149 81 236.5 234.5t87.5 324.5q0 172 -87 321.5t-237 237.5v305q179 -59 318 -192t213.5 -308.5t74.5 -365.5q0 -192 -75 -367t-213 -306t-318 -195v311z" />
<glyph unicode="*" horiz-adv-x="778" d="M90 1104v131l193 -6l-113 160l113 73l106 -176l96 176l117 -69l-102 -158l188 10v-129l-186 4l104 -153l-110 -74l-101 174l-90 -174l-112 63l98 160z" />
<glyph unicode="+" d="M176 639v188h426v426h189v-426h426v-188h-426v-426h-189v426h-426z" />
<glyph unicode="," horiz-adv-x="579" d="M123 0v289h258v-328q0 -68 -8.5 -110.5t-40.5 -81.5q-34 -41 -71.5 -52.5t-98.5 -11.5h-39v139h27q24 0 40 8t24.5 18.5t13 30.5t5 33.5t0.5 38.5v27h-110z" />
<glyph unicode="-" horiz-adv-x="630" d="M53 414v248h525v-248h-525z" />
<glyph unicode="." horiz-adv-x="579" d="M123 0v289h258v-289h-258z" />
<glyph unicode="/" horiz-adv-x="1228" d="M94 -399l916 1861h182l-918 -1861h-180z" />
<glyph unicode="0" horiz-adv-x="1243" d="M92 532v410q0 129 27.5 217.5t107.5 171.5q77 80 179.5 125t211.5 45q104 0 200.5 -39t172.5 -110q91 -85 124.5 -179.5t33.5 -230.5v-410q0 -128 -28.5 -217t-108.5 -172q-80 -81 -182 -126.5t-212 -45.5q-101 0 -197.5 40t-172.5 112q-90 85 -123 178.5t-33 230.5z M367 528q0 -71 8.5 -117.5t38.5 -91.5q68 -98 207 -98q67 0 124.5 29t90.5 84q17 29 26 64t10.5 60.5t1.5 69.5v414q0 71 -8.5 117.5t-40.5 91.5q-33 49 -87 74.5t-117 25.5q-67 0 -124.5 -29.5t-90.5 -84.5q-18 -29 -27 -64.5t-10.5 -60t-1.5 -70.5v-414z" />
<glyph unicode="1" horiz-adv-x="718" d="M39 1229v233h485v-1229h172v-233h-614v233h172v996h-215z" />
<glyph unicode="2" horiz-adv-x="1099" d="M51 985q-1 145 63 263t179.5 185.5t259.5 67.5q130 0 239.5 -64t172.5 -174t63 -241q0 -62 -16.5 -120t-37.5 -98.5t-64.5 -91.5t-72.5 -79.5t-87 -81.5l-347 -318h375v156h240v-389h-961v233l527 510q4 4 26 25.5t28 27.5t25.5 26t26.5 30t21.5 29t20.5 32.5t14 32.5 t11 37t3 37q0 91 -65 151t-156 60q-101 0 -165 -72t-59 -174h-264z" />
<glyph unicode="3" horiz-adv-x="1130" d="M49 422h277q14 -89 78 -148t153 -59q97 0 166.5 68.5t69.5 165.5q0 111 -73.5 177t-184.5 66h-56l-12 -2v213h57q99 0 163.5 46t64.5 143q0 81 -52.5 131.5t-132.5 50.5q-74 0 -124.5 -47.5t-53.5 -122.5h-252q1 116 63 208t161 140.5t212 48.5q112 0 208 -45.5 t157 -134.5t61 -203q0 -93 -45.5 -177t-124.5 -124q113 -41 181.5 -146.5t68.5 -230.5q0 -93 -40 -179t-111 -152q-144 -138 -355 -138q-100 0 -192 31t-164.5 87t-117.5 142.5t-50 190.5z" />
<glyph unicode="4" horiz-adv-x="1286" d="M66 389v213l630 860h314v-860h219v-213h-219v-156h170v-233h-611v233h170v156h-673zM362 602h377v531z" />
<glyph unicode="5" horiz-adv-x="1183" d="M33 391h286q31 -79 95.5 -123.5t150.5 -44.5q116 0 195.5 79t79.5 194t-81.5 191.5t-195.5 76.5q-77 0 -139 -38t-96 -105l-230 59l131 782h779v-233h-564l-57 -309q110 77 256 77q135 0 245.5 -69t172 -183.5t61.5 -248.5q0 -151 -77 -272.5t-204.5 -187t-277.5 -65.5 q-199 0 -344 114t-186 306z" />
<glyph unicode="6" horiz-adv-x="1187" d="M53 524q0 97 33 182t96 179l393 577h306l-340 -485q57 33 129 33q130 0 237.5 -71t166.5 -185t59 -242q0 -148 -71 -272.5t-195.5 -196.5t-274.5 -72q-100 0 -203 43t-176 113q-77 77 -118.5 182.5t-41.5 214.5zM322 510q0 -113 78.5 -193.5t193.5 -80.5q111 0 192.5 78 t81.5 188q0 115 -78.5 195.5t-193.5 80.5q-113 0 -193.5 -77.5t-80.5 -190.5z" />
<glyph unicode="7" horiz-adv-x="1019" d="M49 993v469h971v-235l-545 -1227h-301l565 1229h-426v-236h-264z" />
<glyph unicode="8" horiz-adv-x="1140" d="M59 426q0 122 70.5 226.5t183.5 148.5q-85 38 -133.5 118t-48.5 175q0 91 36.5 168.5t98 129t142 80.5t167.5 29q107 0 201.5 -48.5t153.5 -138t59 -198.5q0 -197 -166 -301q115 -38 185.5 -143.5t70.5 -229.5q0 -137 -73.5 -246.5t-190 -167t-250.5 -57.5 q-99 0 -190.5 31.5t-161.5 88.5t-112 144t-42 191zM328 442q0 -99 70 -166t169 -67q94 0 161 70t67 163q0 97 -69.5 165.5t-166.5 68.5q-96 0 -163.5 -68.5t-67.5 -165.5zM375 1085q0 -79 53.5 -133.5t132.5 -54.5q76 0 130 54.5t54 129.5q0 76 -54 132.5t-128 56.5 q-77 0 -132.5 -54.5t-55.5 -130.5z" />
<glyph unicode="9" horiz-adv-x="1200" d="M53 965q0 107 45 206t119 171.5t175 115.5t208 43q102 0 201.5 -39.5t175.5 -109.5q168 -158 168 -402q0 -105 -28.5 -184t-92.5 -176l-391 -590h-338l364 485q-70 -34 -129 -34q-102 0 -192.5 43t-152 114t-97 164.5t-35.5 192.5zM324 965q0 -116 80 -197.5t196 -81.5 t195 81.5t79 197.5q0 110 -81.5 189t-192.5 79q-113 0 -194.5 -79t-81.5 -189z" />
<glyph unicode=":" horiz-adv-x="655" d="M199 0v289h258v-289h-258zM199 764v289h258v-289h-258z" />
<glyph unicode=";" horiz-adv-x="655" d="M199 0v289h258v-328q0 -68 -8.5 -110.5t-40.5 -81.5q-34 -41 -71.5 -52.5t-98.5 -11.5h-39v139h26q24 0 40.5 8t25 18.5t12.5 30.5t5 34t1 38v27h-110zM199 764v289h258v-289h-258z" />
<glyph unicode="&#x3c;" d="M133 643v180l1106 510v-188l-922 -414l922 -407v-187z" />
<glyph unicode="=" d="M176 477v191h1041v-191h-1041zM176 797v190h1041v-190h-1041z" />
<glyph unicode="&#x3e;" d="M133 137v187l922 407l-922 414v188l1106 -510v-180z" />
<glyph unicode="?" horiz-adv-x="1146" d="M94 999q-2 136 62 251.5t178 183t252 67.5q127 0 237.5 -65t176 -175.5t65.5 -238.5q0 -69 -17 -125.5t-45.5 -95t-62.5 -72t-70.5 -65.5t-68 -66t-55.5 -82t-33 -106h-258q0 120 50 204t154 181q40 36 53.5 49t39.5 44.5t35.5 61.5t9.5 66q0 88 -63 153.5t-150 65.5 q-99 0 -161.5 -68t-64.5 -168h-264zM455 0v289h258v-289h-258z" />
<glyph unicode="@" horiz-adv-x="1710" d="M98 721q0 157 64.5 302t172 249.5t253.5 166.5t303 62q135 0 257.5 -45t215.5 -124.5t148 -197.5t55 -255q0 -213 -107 -359q-60 -83 -151 -137.5t-185 -54.5q-66 0 -101 31.5t-44 97.5q-94 -121 -236 -121q-131 0 -207.5 96t-76.5 232q0 114 59.5 226.5t163.5 186.5 t221 74q65 0 121 -34.5t80 -92.5l22 63h148l-152 -491q-18 -61 -18 -90q0 -62 61 -62q47 0 101 36t88 79q98 120 98 301q0 159 -76.5 279t-203.5 180.5t-285 60.5q-272 0 -461 -186q-197 -194 -197 -463q0 -187 89.5 -334.5t242 -227t338.5 -79.5q162 0 293 52t244 165 l43 -92q-221 -244 -574 -244q-152 0 -301.5 51.5t-259.5 147.5q-114 99 -180 248t-66 303zM621 657q0 -76 39 -128t110 -52q150 0 225 203q41 113 41 192q0 63 -35 102.5t-98 39.5q-80 0 -147 -58.5t-101 -139.5t-34 -159z" />
<glyph unicode="A" horiz-adv-x="1642" d="M33 0v233h155l426 996h-161v233h489l512 -1229h156v-233h-617v205h162l-86 219h-514l-84 -219h158v-205h-596zM627 639h372l-184 502h-2z" />
<glyph unicode="B" horiz-adv-x="1265" d="M63 0v233h158v996h-158v233h650q96 0 169.5 -15.5t133.5 -60.5q137 -105 137 -290q0 -102 -50 -186t-140 -126q122 -50 188 -148t66 -228q0 -89 -36.5 -171.5t-101.5 -138.5q-67 -59 -146.5 -78.5t-189.5 -19.5h-680zM500 244h153q50 0 73 1t63.5 9.5t66.5 26.5 q39 26 60.5 69t21.5 90q0 106 -80 166q-28 20 -65.5 30t-63.5 11.5t-74 1.5h-155v-405zM502 879h141h24.5h26t23.5 0.5t25 2t22 4t23.5 6.5t21.5 9.5t22 13.5q66 48 66 140q0 96 -76 145q-11 7 -22 12t-26 8t-23 5t-28 3t-24.5 1h-28h-24.5h-143v-350z" />
<glyph unicode="C" horiz-adv-x="1464" d="M-23 743q0 202 99.5 376.5t272 278t376.5 103.5q131 0 248.5 -45t204.5 -135v147h229v-467h-266q-61 103 -172.5 163.5t-231.5 60.5q-206 0 -342.5 -139t-136.5 -345q0 -197 139 -339t336 -142q127 0 236 58t176 163h301q-72 -223 -273.5 -366.5t-437.5 -143.5 q-147 0 -289 60.5t-247 165.5q-107 109 -164.5 250.5t-57.5 295.5z" />
<glyph unicode="D" horiz-adv-x="1452" d="M63 0v233h160v996h-160v233h695q163 0 284 -42.5t226 -149.5q103 -105 155 -245.5t52 -297.5q0 -142 -48.5 -274.5t-140.5 -235.5q-104 -118 -233 -167.5t-299 -49.5h-691zM502 252h219q120 0 205 26t151 103q58 67 88.5 160t30.5 186q0 105 -31.5 204t-95.5 167 q-69 70 -148.5 93t-195.5 23h-223v-962z" />
<glyph unicode="E" horiz-adv-x="1224" d="M63 0v233h160v996h-160v233h1084v-440h-279v190h-366v-364h426v-217h-426v-387h366v198h279v-442h-1084z" />
<glyph unicode="F" horiz-adv-x="1224" d="M63 0v233h160v996h-160v233h1092v-440h-278v190h-375v-374h424v-215h-424v-390h160v-233h-599z" />
<glyph unicode="G" horiz-adv-x="1560" d="M-23 735q0 310 207 529q106 111 251.5 174t297.5 63q260 0 461 -174v135h229v-430h-303q-71 95 -166 142q-94 49 -215 49q-203 0 -342 -140.5t-139 -343.5q0 -202 139 -345.5t340 -143.5q147 0 261.5 76t168.5 211h-540v235h850v-772h-232v225q-83 -123 -218 -188.5 t-290 -65.5t-296 60.5t-242.5 163t-161.5 243.5t-60 297z" />
<glyph unicode="H" horiz-adv-x="1536" d="M49 0v233h160v996h-160v233h596v-233h-158v-352h564v352h-158v233h594v-233h-158v-996h158v-233h-594v233h158v365h-564v-365h158v-233h-596z" />
<glyph unicode="I" horiz-adv-x="733" d="M63 0v233h160v996h-160v233h596v-233h-157v-996h157v-233h-596z" />
<glyph unicode="J" horiz-adv-x="1105" d="M20 412h291q2 -73 45 -128t115 -55q88 0 137 80q29 51 29 185v735h-160v233h596v-233h-158v-770q0 -116 -18.5 -191.5t-81.5 -148.5q-61 -69 -153 -108.5t-189 -39.5q-200 0 -330 123q-123 116 -123 298v20z" />
<glyph unicode="K" horiz-adv-x="1495" d="M63 0v233h160v996h-160v233h596v-233h-157v-428l452 428h-131v233h602v-233h-125l-520 -479l547 -517h129v-233h-622v233h143l-475 453v-453h157v-233h-596z" />
<glyph unicode="L" horiz-adv-x="1183" d="M63 0v233h160v996h-160v233h596v-233h-157v-979h350v192h278v-442h-1067z" />
<glyph unicode="M" horiz-adv-x="2002" d="M55 0v233h160v996h-160v233h549l397 -1032l398 1032h549v-233h-160v-996h160v-233h-596v233h157v850l-403 -1083h-197l-415 1083v-850h170v-233h-609z" />
<glyph unicode="N" horiz-adv-x="1630" d="M49 0v233h158v996h-158v233h410l696 -979v746h-160v233h596v-233h-157v-1229h-260l-689 963v-730h160v-233h-596z" />
<glyph unicode="O" horiz-adv-x="1488" d="M-23 731q0 211 104 388t281.5 278.5t387.5 101.5q205 0 380 -101.5t278 -276t103 -378.5q0 -158 -60.5 -301t-162.5 -247t-244.5 -165t-300.5 -61q-156 0 -297.5 60t-244 162t-163.5 243.5t-61 296.5zM264 739q0 -204 139 -347.5t340 -143.5q133 0 244.5 66.5t174.5 180 t63 246.5q0 129 -64 239.5t-174 175.5t-239 65q-200 0 -342 -141t-142 -341z" />
<glyph unicode="P" horiz-adv-x="1265" d="M66 0v233h157v996h-157v233h581q258 0 389 -96q90 -66 135.5 -165t45.5 -216q0 -97 -36.5 -187t-105.5 -157q-75 -77 -164 -106t-209 -29h-200v-273h160v-233h-596zM502 758h166q44 0 69.5 2t59 13.5t59.5 33.5q80 68 80 178q0 54 -24.5 101.5t-67.5 76.5 q-40 29 -82.5 37t-106.5 8h-153v-450z" />
<glyph unicode="Q" horiz-adv-x="1753" d="M-23 743q0 153 60.5 293.5t162 242t242 162t293.5 60.5q156 0 298.5 -60t246 -161.5t164.5 -243t61 -297.5q0 -132 -44.5 -257t-129.5 -220q83 -59 168 -65v135h205v-371l-86 -6q-262 0 -451 147q-200 -131 -428 -131q-158 0 -300 61t-243 164.5t-160 246t-59 300.5z M264 782l6 -75q119 49 256 49q171 0 314 -80.5t276 -224.5q103 121 103 278q0 205 -140 349.5t-344 144.5q-98 0 -188 -38.5t-156 -109.5q-57 -61 -92 -138.5t-35 -154.5zM326 485q63 -112 175.5 -173.5t243.5 -61.5q117 0 203 55q-103 107 -207.5 166t-230.5 59 q-104 0 -184 -45z" />
<glyph unicode="R" horiz-adv-x="1347" d="M63 0v233h158v996h-158v233h654q124 0 214 -22t169 -90q85 -73 129.5 -172t44.5 -213q0 -107 -43.5 -203.5t-128 -162.5t-191.5 -75l228 -291h166v-233h-342l-463 657v-424h125v-233h-562zM500 684h151q80 0 137 11t107 48q100 77 100 211q0 60 -25 115.5t-71 91.5 q-29 24 -66 36t-63.5 13.5t-77.5 1.5h-192v-528z" />
<glyph unicode="S" horiz-adv-x="1083" d="M70 1071q0 118 61 215.5t162.5 152t218.5 54.5q174 0 260 -113v82h213v-393h-250q-2 82 -55.5 136.5t-134.5 54.5q-85 0 -142 -49.5t-57 -133.5q0 -49 17 -84t58 -58.5t67.5 -33.5t84.5 -27q9 -3 13 -4q73 -20 114 -33t98 -39.5t101 -60.5q145 -117 145 -307 q0 -198 -131.5 -328.5t-330.5 -130.5q-179 0 -281 125v-96h-221v434h254q0 -94 59.5 -158.5t157.5 -64.5q93 0 154 54.5t61 146.5q0 30 -9 56t-20 44t-35 35.5t-39.5 26.5t-48.5 21.5t-47.5 16.5t-50.5 15q-71 21 -105.5 32t-87 36t-94.5 57q-159 119 -159 319z" />
<glyph unicode="T" horiz-adv-x="1277" d="M63 1001v461h1151v-461h-221v213h-215v-981h160v-233h-598v233h160v981h-215v-213h-222z" />
<glyph unicode="U" horiz-adv-x="1435" d="M39 1229v233h569v-233h-133v-688q0 -44 2 -72.5t12 -66t29 -66.5q33 -50 86.5 -76.5t114.5 -26.5q117 0 188 89q54 69 54 219v688h-134v233h570v-233h-158v-725q0 -125 -28 -215t-105 -170q-141 -148 -387 -148q-239 0 -377 135q-84 82 -114.5 178t-30.5 228v717h-158z " />
<glyph unicode="V" horiz-adv-x="1550" d="M33 1229v233h592v-233h-140l289 -844l309 844h-141v233h576v-233h-156l-447 -1229h-305l-420 1229h-157z" />
<glyph unicode="W" horiz-adv-x="2138" d="M45 1229v233h594v-233h-160l207 -768l264 1001h236l280 -993l197 760h-164v233h594v-233h-162l-325 -1229h-265l-270 965l-270 -965h-260l-351 1229h-145z" />
<glyph unicode="X" horiz-adv-x="1552" d="M57 0v233h144l407 508l-385 488h-149v233h602v-215h-135l235 -311l236 311h-135v215h604v-233h-148l-393 -488l406 -508h149v-233h-600v215h143l-262 334l-264 -334h145v-215h-600z" />
<glyph unicode="Y" horiz-adv-x="1409" d="M33 1229v233h565v-233h-135l246 -484l243 484h-139v233h563v-233h-145l-385 -719v-277h160v-233h-596v233h157v277l-387 719h-147z" />
<glyph unicode="Z" horiz-adv-x="1193" d="M70 0v219l696 1000h-414v-201h-248v444h998v-211l-701 -1007h476v200h256v-444h-1063z" />
<glyph unicode="[" horiz-adv-x="819" d="M104 -264v1726h611v-235h-330v-1256h330v-235h-611z" />
<glyph unicode="\" horiz-adv-x="1310" d="M242 1462h207l622 -1462h-205z" />
<glyph unicode="]" horiz-adv-x="819" d="M104 -29h330v1256h-330v235h611v-1726h-611v235z" />
<glyph unicode="^" d="M98 356l506 1106h180l510 -1106h-186l-416 908l-407 -908h-187z" />
<glyph unicode="_" horiz-adv-x="1064" d="M20 -154h1024v-102h-1024v102z" />
<glyph unicode="`" horiz-adv-x="983" d="M166 1485l100 221l549 -295l-84 -182z" />
<glyph unicode="a" horiz-adv-x="1372" d="M6 541q0 156 76.5 290t208.5 212.5t289 78.5q106 0 194.5 -47.5t145.5 -136.5v156h391v-234h-137v-627h137v-233h-391v147q-58 -88 -150 -132t-203 -44q-153 0 -282.5 77.5t-204 208.5t-74.5 284zM264 541q0 -133 97 -229.5t229 -96.5q140 0 237 99t97 239 q0 135 -97.5 230.5t-232.5 95.5q-138 0 -234 -99.5t-96 -238.5z" />
<glyph unicode="b" horiz-adv-x="1363" d="M55 0v233h142v996h-142v233h391v-526q58 85 145.5 129.5t192.5 44.5q114 0 218 -45t180 -120.5t121 -179.5t45 -218q0 -107 -38.5 -207.5t-109.5 -177.5q-73 -81 -177 -129.5t-210 -48.5q-111 0 -208 46.5t-159 133.5v-164h-391zM436 553q0 -142 98.5 -240t239.5 -98 q136 0 231 100t95 236q0 137 -98 234.5t-234 97.5q-137 0 -234.5 -97t-97.5 -233z" />
<glyph unicode="c" horiz-adv-x="1189" d="M6 547q0 150 72 283t200 214.5t279 81.5q185 0 313 -137v105h215v-365h-233q-46 66 -117 109q-71 41 -155 41q-138 0 -231 -97t-93 -235q0 -139 96.5 -234.5t233.5 -95.5q82 0 155 41t107 111h278q-51 -172 -206 -285t-336 -113q-156 0 -289 77t-211 209.5t-78 289.5z " />
<glyph unicode="d" horiz-adv-x="1353" d="M6 547q0 113 43.5 217t117.5 180.5t177.5 122t216.5 45.5q105 0 201 -47t160 -131v295h-144v233h393v-1229h142v-233h-391v164q-60 -90 -153.5 -135t-205.5 -45q-150 0 -278.5 77t-203.5 207t-75 279zM266 543q0 -135 97 -232.5t233 -97.5q139 0 235.5 99.5t96.5 238.5 q0 135 -97 231.5t-231 96.5q-139 0 -236.5 -98t-97.5 -238z" />
<glyph unicode="e" horiz-adv-x="1155" d="M6 543q0 160 73.5 293.5t204.5 211.5t291 78q113 0 221.5 -47t188.5 -129q154 -162 154 -409l-9 -88h-884q25 -114 117.5 -188.5t209.5 -74.5q176 0 265 132h260q-65 -158 -206 -254.5t-310 -96.5q-157 0 -289.5 75t-209.5 207t-77 290zM244 645h663q-32 118 -126.5 188 t-217.5 70q-110 0 -203 -75.5t-116 -182.5z" />
<glyph unicode="f" horiz-adv-x="661" d="M61 0v233h142v627h-142v234h142q-1 203 107.5 305t316.5 102v-223h-4q-90 0 -132 -46q-39 -43 -39 -120q0 -9 1 -18h143v-234h-143v-627h143v-233h-535z" />
<glyph unicode="g" horiz-adv-x="1337" d="M6 549q0 148 75 278t203.5 207.5t276.5 77.5q250 0 365 -178v160h370v-234h-141v-715q0 -148 -25.5 -243t-111.5 -181q-168 -165 -428 -165q-87 0 -169.5 21.5t-154.5 63.5t-124.5 110.5t-73.5 154.5h288q31 -65 100 -100t146 -35q65 0 128 26.5t104 73.5 q48 56 61.5 110.5t13.5 143.5v41q-112 -182 -350 -182q-152 0 -280 77.5t-200.5 207t-72.5 280.5zM262 551q0 -140 97.5 -238t236.5 -98q140 0 236 99.5t96 238.5q0 136 -98.5 233t-235.5 97q-136 0 -234 -97.5t-98 -234.5z" />
<glyph unicode="h" horiz-adv-x="1355" d="M61 0v233h142v996h-142v233h392v-532q52 92 136.5 140t190.5 48q94 0 174 -42t136 -118t73 -154.5t17 -193.5v-377h141v-233h-533v233h142v310v33v36t-1 31.5t-3.5 35t-6.5 30.5t-10.5 33t-15.5 30q-64 100 -199 100q-119 0 -188 -88q-26 -32 -38 -72t-13.5 -65.5 t-1.5 -81.5v-332h141v-233h-533z" />
<glyph unicode="i" horiz-adv-x="634" d="M59 0v233h144v627h-142v234h392v-861h141v-233h-535zM203 1198v264h250v-264h-250z" />
<glyph unicode="j" horiz-adv-x="497" d="M-10 -180q26 1 48 6.5t38.5 13.5t30 19t22.5 24.5t16 29t10.5 32.5t6 35.5t3 38t1.5 39.5t0 40v21v741h-141v234h391v-1078q0 -213 -105 -314.5t-321 -113.5v232zM166 1198v264h250v-264h-250z" />
<glyph unicode="k" horiz-adv-x="1253" d="M55 0v233h144v996h-144v233h394v-858l280 281h-113v209h539v-234h-133l-301 -291l319 -336h172v-233h-596v233h93l-260 287v-287h98v-233h-492z" />
<glyph unicode="l" horiz-adv-x="641" d="M57 0v233h152v996h-141v233h391v-1229h141v-233h-543z" />
<glyph unicode="m" horiz-adv-x="2027" d="M61 0v233h142v627h-142v234h369v-164q116 190 315 190q112 0 202.5 -62.5t137.5 -166.5q44 103 144 166t215 63q90 0 173 -36t142 -103q31 -36 49.5 -74t26 -86t9 -80.5t1.5 -93.5v-414h142v-233h-533v233h141v353q0 49 -1 72t-8.5 60t-22.5 66q-30 43 -77.5 66.5 t-101.5 23.5q-53 0 -103 -21t-81 -60q-24 -31 -35.5 -67.5t-13.5 -62.5t-2 -77v-353h141v-233h-532v233h141v336q0 148 -33 205q-26 48 -74.5 74t-105.5 26q-109 0 -174 -79q-37 -46 -48 -97t-11 -127v-338h141v-233h-533z" />
<glyph unicode="n" horiz-adv-x="1359" d="M61 0v233h142v627h-142v234h392v-156q48 88 133.5 134t189.5 46q90 0 173 -35.5t143 -99.5q43 -47 64 -103t24.5 -98t3.5 -120v-429h141v-233h-532v233h141v355q0 45 -1.5 70t-11.5 61.5t-30 64.5q-33 43 -84.5 65.5t-108.5 22.5q-59 0 -112 -24t-86 -68 q-22 -28 -33 -72.5t-12.5 -74.5t-1.5 -82v-318h141v-233h-533z" />
<glyph unicode="o" horiz-adv-x="1169" d="M6 551q0 157 78 289.5t211 209t289 76.5q154 0 285.5 -78t207.5 -210t76 -285q0 -157 -76 -291t-208.5 -212.5t-290.5 -78.5q-156 0 -288 79t-208 212.5t-76 288.5zM252 553q0 -137 94 -236.5t232 -99.5q136 0 232.5 96.5t96.5 233.5q0 135 -94 234.5t-229 99.5 q-136 0 -234 -96t-98 -232z" />
<glyph unicode="p" horiz-adv-x="1378" d="M55 -166h140v1026h-140v234h391v-172q59 91 152.5 137.5t206.5 46.5q152 0 280.5 -76t202.5 -205.5t74 -281.5q0 -148 -72.5 -276.5t-198.5 -205.5t-274 -77q-111 0 -209 43t-162 127v-320h142v-233h-533v233zM444 545q0 -137 97 -233.5t233 -96.5q135 0 232.5 96.5 t97.5 231.5t-94.5 234.5t-229.5 99.5q-139 0 -237.5 -96t-98.5 -236z" />
<glyph unicode="q" horiz-adv-x="1353" d="M6 543q0 152 74.5 281.5t203.5 205.5t281 76q113 0 205.5 -46t151.5 -138v172h391v-234h-139v-1026h139v-233h-533v233h142v320q-64 -84 -162 -127t-209 -43q-148 0 -274 77t-198.5 205.5t-72.5 276.5zM266 543q0 -135 97 -231.5t231 -96.5q138 0 234 96.5t96 233.5 q0 140 -98 236t-238 96q-135 0 -228.5 -99.5t-93.5 -234.5z" />
<glyph unicode="r" horiz-adv-x="735" d="M55 0v233h142v627h-142v234h373v-187q46 94 132 144t196 55v-256q-134 -7 -215 -80q-57 -48 -76 -110t-19 -150v-277h142v-233h-533z" />
<glyph unicode="s" horiz-adv-x="978" d="M76 786q0 151 108.5 240.5t261.5 89.5q171 0 248 -98v76h185v-297h-242q-3 58 -42.5 93.5t-98.5 35.5q-56 0 -98 -30.5t-42 -84.5q0 -29 12 -52.5t27.5 -37t44 -25t46.5 -16.5t51 -12q50 -11 85 -20.5t81 -26t77.5 -34t64.5 -44.5t53 -58.5t33 -75t13 -94.5 q0 -106 -55.5 -186t-143 -119t-192.5 -39q-181 0 -283 119v-90h-190v317h256q6 -74 53 -118.5t123 -44.5q60 0 105 38t45 97q0 18 -3 33t-11.5 27.5t-15 21.5t-21.5 17.5t-23 13.5t-28 11.5t-27 9t-30 8.5t-28 7q-51 13 -82.5 22t-79 26t-76.5 34t-63 43.5t-53 57t-32 73 t-13 92.5z" />
<glyph unicode="t" horiz-adv-x="681" d="M0 860v234h172v368h250v-368h186v-234h-186v-627h199v-233h-449v860h-172z" />
<glyph unicode="u" horiz-adv-x="1316" d="M35 860v234h391v-592q0 -44 2 -72.5t12 -66.5t29 -66q61 -94 184 -94q53 0 103 24.5t82 65.5q22 31 33 71t12.5 67t1.5 77v352h-142v234h392v-861h141v-233h-371v135q-53 -78 -142.5 -121t-187.5 -43q-88 0 -167 36.5t-136 103.5q-56 66 -76 141.5t-20 175.5v432h-141z " />
<glyph unicode="v" horiz-adv-x="1265" d="M31 860v234h510v-234h-111l201 -553h2l215 553h-117v234h504v-234h-129l-344 -860h-262l-336 860h-133z" />
<glyph unicode="w" horiz-adv-x="1814" d="M31 860v234h506v-234h-121l157 -514h2l230 707h205l213 -707h2l168 514h-125v234h516v-234h-146l-299 -860h-241l-199 643l-235 -643h-234l-262 860h-137z" />
<glyph unicode="x" horiz-adv-x="1316" d="M68 0v233h129l288 320l-282 307h-123v234h504v-193h-92l167 -190l166 190h-92v193h498v-234h-123l-279 -307l293 -320h127v-233h-516v205h86l-160 194l-161 -194h86v-205h-516z" />
<glyph unicode="y" horiz-adv-x="1275" d="M31 860v234h516v-234h-107l195 -534l207 534h-107v234h510v-234h-137l-424 -1026h143v-233h-532v233h137l74 180l-332 846h-143z" />
<glyph unicode="z" horiz-adv-x="1015" d="M61 0v201l555 659h-311v-129h-219v363h840v-226l-527 -635h336v121h219v-354h-893z" />
<glyph unicode="{" horiz-adv-x="696" d="M94 604q57 9 105 45q28 22 41 53.5t14.5 52.5t1.5 68v336q0 52 2.5 85t17 77.5t41.5 71.5q13 12 27 22t32.5 17t31 12.5t36.5 8.5t34 5t38 3t34.5 1h37.5h33q-88 -27 -124 -81.5t-36 -149.5v-354q0 -47 -3.5 -80t-14.5 -67t-30 -57t-51.5 -41t-78.5 -28q104 -25 141 -85 t37 -173v-379q0 -99 34 -151t126 -80q-8 0 -42.5 -0.5t-44.5 0t-38 2t-41.5 5t-36 9t-41 14.5t-37.5 21q-37 24 -56.5 62t-23.5 71t-4 84v379q0 38 -1.5 57t-11.5 45t-30 50q-44 50 -119 69z" />
<glyph unicode="|" d="M602 -512v2048h189v-2048h-189z" />
<glyph unicode="}" horiz-adv-x="696" d="M96 -264q91 28 124.5 80t33.5 151v379q0 113 37 173t141 85q-107 23 -142.5 88.5t-35.5 184.5v354q0 96 -35 150t-123 79q53 0 104 0.5t106 -16t91 -51.5q27 -27 42 -71.5t17.5 -78t2.5 -84.5v-336q0 -47 1.5 -68t14.5 -52.5t41 -53.5q48 -36 105 -45q-75 -19 -119 -69 q-20 -24 -30 -50t-11.5 -45t-1.5 -57v-379q0 -51 -4 -84t-23.5 -71t-56.5 -62q-19 -12 -37.5 -21t-40.5 -14.5l-36 -9t-42 -5t-37.5 -2t-43.5 0t-42 0.5z" />
<glyph unicode="~" d="M102 643q35 56 65.5 95t73.5 79t95.5 61t112.5 21q74 0 171 -34.5t183.5 -68.5t134.5 -34q22 0 43 8t35 17t33 30.5t26.5 31t26 37t22.5 32.5l148 -95q-24 -33 -29.5 -41t-27.5 -37.5t-31 -39t-31.5 -33t-36 -32t-36.5 -23.5t-43 -21t-46 -11t-53 -5q-37 0 -76.5 8 t-64 16.5t-72.5 26.5l-98 39q-12 4 -40.5 15t-46.5 17t-43 11.5t-44 5.5q-22 0 -41 -4.5t-37 -17t-29 -20.5t-28 -31t-22.5 -30t-24.5 -36t-21 -33z" />
<glyph unicode="&#xa1;" horiz-adv-x="708" d="M225 -371v1024h258v-1024h-258zM225 805v289h258v-289h-258z" />
<glyph unicode="&#xa2;" horiz-adv-x="1228" d="M141 727q0 169 109 306t274 171v203h205v-199q103 -25 172 -100v80h158v-332h-238q-25 51 -78 79t-112 28q-97 0 -164.5 -67t-67.5 -165q0 -99 69 -164t169 -65q102 0 176 90h274q-37 -128 -131 -213t-227 -121v-199h-205v207q-164 29 -273.5 162t-109.5 299z" />
<glyph unicode="&#xa3;" horiz-adv-x="1228" d="M47 614v205h137q-61 96 -61 215q0 96 39.5 182.5t103.5 146.5t147 95t169 35q74 0 130 -28t111 -87v84h230v-405h-230q-4 91 -65.5 147t-147.5 56q-96 0 -161.5 -70t-65.5 -174q0 -109 76 -197h375v-205h-252q46 -57 70 -104.5t24 -106.5q0 -120 -92 -188h127q39 0 64 2 t58 12t56 29q34 27 53 72t19 94q0 32 -13 76h215q21 -56 21 -109q0 -182 -140 -297q-111 -94 -319 -94h-590v215h152q60 9 95.5 52.5t35.5 109.5q0 45 -16.5 86.5t-36 69t-52.5 67.5q-8 9 -12 14h-254z" />
<glyph unicode="&#xa4;" horiz-adv-x="1228" d="M96 319l113 111q-40 54 -62 127.5t-22 144.5q0 70 22 144.5t62 128.5l-111 108l142 142l106 -109q121 84 277 84q143 0 276 -82l107 107l141 -142l-109 -106q82 -118 82 -277q0 -78 -19 -138.5t-63 -133.5l109 -109l-141 -137l-107 107q-133 -86 -272 -86q-152 0 -279 86 l-108 -107zM350 702q0 -113 79 -193.5t192 -80.5t193.5 78.5t80.5 191.5q0 116 -79 196.5t-193 80.5t-193.5 -80t-79.5 -193z" />
<glyph unicode="&#xa5;" horiz-adv-x="1228" d="M20 1231v231h498v-231h-117l217 -488l216 488h-117v231h491v-231h-129l-170 -371h238v-117h-295l-43 -88h338v-116h-395l-13 -31v-275h142v-233h-525v233h140v275l-17 31h-399v116h342l-39 88h-303v117h246l-174 371h-132z" />
<glyph unicode="&#xa6;" d="M602 358h189v-716h-189v716zM602 666v716h189v-716h-189z" />
<glyph unicode="&#xa7;" horiz-adv-x="983" d="M96 84v31h219q-7 -84 43 -131t136 -47q75 0 128.5 41t53.5 114q0 26 -7.5 47.5t-16.5 36t-29 28t-32.5 20.5t-41 16t-40 12t-42.5 10q-348 80 -348 354q0 101 57.5 179t153.5 110q-201 76 -201 246q0 137 106 224t246 87q152 0 262 -86t109 -235h-209q7 57 -38.5 93 t-104.5 36q-64 0 -109 -38.5t-45 -101.5q0 -21 6.5 -40t14.5 -32t25.5 -26t28.5 -20t35.5 -16.5t35 -13t37.5 -11.5t34 -10q134 -36 197 -95q53 -45 81.5 -109.5t28.5 -135.5q0 -93 -49 -167t-133 -118q199 -70 199 -266q0 -100 -56 -179t-142.5 -119t-184.5 -40 q-172 0 -283 94q-58 48 -91.5 116.5t-33.5 141.5zM326 612q0 -67 50.5 -109t117.5 -42q64 0 112.5 44t48.5 107q0 66 -48.5 110t-114.5 44q-68 0 -117 -44t-49 -110z" />
<glyph unicode="&#xa8;" horiz-adv-x="983" d="M176 1198v264h250v-264h-250zM557 1198v264h250v-264h-250z" />
<glyph unicode="&#xa9;" horiz-adv-x="1720" d="M98 737q0 208 102 383.5t278 278t384 102.5q123 0 239 -38.5t210 -108.5t165 -163t109.5 -209t38.5 -239q0 -159 -60 -302.5t-162.5 -246t-245.5 -163t-302 -60.5q-154 0 -294 61.5t-241 164.5t-161 244.5t-60 295.5zM201 739q0 -135 52.5 -257.5t141 -211t210.5 -140.5 t257 -52q177 0 328.5 87.5t240.5 238t89 327.5q0 183 -88 336t-240 240.5t-334 87.5q-133 0 -254.5 -52.5t-209.5 -140.5t-140.5 -209t-52.5 -254zM428 729q0 204 129.5 336.5t331.5 132.5q84 0 163 -26t142.5 -84.5t81.5 -139.5l-139 -33q-17 95 -84.5 146t-169.5 51 q-77 0 -138.5 -31t-100 -84t-59 -119.5t-20.5 -140.5q0 -155 81.5 -258.5t232.5 -103.5q101 0 171 54t103 153l123 -39q-41 -125 -157.5 -191.5t-256.5 -66.5q-196 0 -315 124t-119 320z" />
<glyph unicode="&#xaa;" horiz-adv-x="901" d="M47 1151q0 140 98.5 245t237.5 105q132 0 203 -92v74h245v-152h-83v-354h83v-152h-245v72q-72 -90 -201 -90q-140 0 -239 102t-99 242zM213 1151q0 -75 54.5 -129.5t129.5 -54.5q79 0 134 55t55 135q0 76 -55 130t-130 54q-79 0 -133.5 -55.5t-54.5 -134.5z" />
<glyph unicode="&#xab;" horiz-adv-x="778" d="M94 451v194l252 291l12 -236l-131 -161l131 -160l-12 -221zM424 451v186l250 295l12 -244l-127 -151l127 -152l-12 -217z" />
<glyph unicode="&#xac;" d="M100 797v190h1192v-631h-190v441h-1002z" />
<glyph unicode="&#xad;" horiz-adv-x="696" d="M86 414v248h524v-248h-524z" />
<glyph unicode="&#xae;" horiz-adv-x="1720" d="M96 739q0 156 61 297.5t164 243t244.5 161.5t296.5 60t296.5 -61t243.5 -163.5t162 -244t60 -297.5t-61 -297.5t-164 -244t-245 -162.5t-298 -60q-155 0 -296 61.5t-242.5 164.5t-161.5 245t-60 297zM203 739q0 -137 52 -259.5t140 -210.5t211 -139.5t260 -51.5 q133 0 254.5 53.5t209 142.5t139 211t51.5 254q0 180 -89.5 332t-242 239t-332.5 87q-177 0 -327.5 -89t-238 -240.5t-87.5 -328.5zM547 291v909h416q146 0 217 -41q106 -60 106 -207q0 -124 -74 -185.5t-202 -64.5l260 -411h-150l-246 411h-198v-411h-129zM676 801h237 q40 0 70 2.5t65 12t57 26t37 47t15 72.5q0 47 -20 78.5t-56.5 45.5t-70.5 18.5t-80 4.5h-254v-307z" />
<glyph unicode="&#xaf;" horiz-adv-x="1105" d="M166 1305v200h786v-200h-786z" />
<glyph unicode="&#xb0;" horiz-adv-x="860" d="M123 1194q0 126 90 216.5t217 90.5q126 0 216.5 -90.5t90.5 -216.5q0 -127 -90.5 -217t-216.5 -90q-128 0 -217.5 89.5t-89.5 217.5zM266 1194q0 -68 47 -114.5t117 -49.5q69 0 116.5 47.5t47.5 116.5t-47.5 116.5t-116.5 47.5t-116.5 -47.5t-47.5 -116.5z" />
<glyph unicode="&#xb1;" d="M176 209v188h1041v-188h-1041zM176 827v189h426v237h189v-237h426v-189h-426v-241h-189v241h-426z" />
<glyph unicode="&#xb2;" horiz-adv-x="753" d="M59 1192q-2 132 91 220.5t235 88.5q129 0 219 -83.5t90 -203.5q0 -37 -10.5 -71.5t-24.5 -59.5t-42.5 -55t-48 -47.5t-56.5 -48.5l-223 -191h243v93h156v-234h-625v141l343 306q3 3 21 19t23.5 22t20 20.5t20.5 24t14.5 23.5t11.5 27.5t3 28.5q0 55 -42.5 91t-102.5 36 q-65 0 -106 -43t-38 -104h-172z" />
<glyph unicode="&#xb3;" horiz-adv-x="753" d="M37 854h178q9 -54 51 -89.5t101 -35.5q63 0 108 41.5t45 99.5q0 66 -48.5 106t-119.5 40h-45v127h37q66 0 108 27t42 85q0 49 -34 79t-87 30q-48 0 -81 -28t-34 -72h-164q0 104 85 170.5t198 66.5q112 0 194 -63.5t82 -165.5q0 -56 -29 -106t-81 -74q74 -26 119 -89.5 t45 -138.5q0 -118 -100 -199t-230 -81q-136 0 -235 73t-105 197z" />
<glyph unicode="&#xb4;" horiz-adv-x="983" d="M166 1407l543 307l108 -219l-565 -266z" />
<glyph unicode="&#xb5;" horiz-adv-x="1351" d="M55 860v234h391v-592q0 -299 228 -299q15 0 35 3t57 19.5t66 44.5t51 84.5t22 132.5v373h-141v234h391v-861h141v-233h-370v135q-53 -78 -142.5 -121t-187.5 -43q-82 0 -150 29v-399h-249v1259h-142z" />
<glyph unicode="&#xb6;" horiz-adv-x="1146" d="M53 1096q0 80 32.5 152t92.5 124q61 54 129 72t166 18h655v-233h-141v-1493h-184v1493h-201v-1493h-184v995q-154 5 -259.5 108t-105.5 257z" />
<glyph unicode="&#xb7;" horiz-adv-x="655" d="M199 590v289h258v-289h-258z" />
<glyph unicode="&#xb8;" horiz-adv-x="778" d="M162 -362h151q18 -62 74 -62q34 0 55 21t21 55q0 33 -21.5 56.5t-54.5 23.5q-40 0 -70 -33l-122 51l98 250h160l-58 -141l27 2q83 0 138.5 -60.5t55.5 -144.5q0 -100 -65.5 -164.5t-165.5 -64.5q-91 0 -154 60.5t-69 150.5z" />
<glyph unicode="&#xb9;" horiz-adv-x="753" d="M158 1323v139h315v-737h113v-139h-400v139h111v598h-139z" />
<glyph unicode="&#xba;" horiz-adv-x="778" d="M53 1161q0 142 100.5 241t243.5 99q140 0 240 -99t100 -237q0 -143 -100 -245.5t-244 -102.5q-141 0 -240.5 101.5t-99.5 242.5zM215 1161q0 -76 52 -130t126 -54q75 0 128.5 53.5t53.5 128.5q0 74 -52.5 128t-125.5 54q-75 0 -128.5 -53t-53.5 -127z" />
<glyph unicode="&#xbb;" horiz-adv-x="778" d="M94 385l125 152l-125 151l12 244l248 -295v-186l-248 -283zM422 379l129 160l-129 161l10 236l254 -291v-194l-254 -293z" />
<glyph unicode="&#xbc;" horiz-adv-x="1822" d="M135 1323v139h316v-737h112v-139h-399v139h110v598h-139zM412 0l659 1462h201l-656 -1462h-204zM965 233v127l409 517h203v-517h143v-127h-143v-94h111v-139h-396v139h111v94h-438zM1157 360h246v318z" />
<glyph unicode="&#xbd;" horiz-adv-x="1822" d="M158 1323v139h315v-737h113v-139h-400v139h111v598h-139zM432 0l660 1462h200l-655 -1462h-205zM1087 592q-2 132 91 220.5t235 88.5q129 0 219 -83.5t90 -203.5q0 -37 -10.5 -71.5t-24.5 -59.5t-42.5 -55t-48 -47.5t-56.5 -48.5l-223 -191h244v92h155v-233h-624v141 l342 305q1 1 21 19t24 22t19.5 20t20.5 25t14 23.5t12 28t3 28.5q0 55 -42.5 91t-102.5 36q-65 0 -105.5 -43t-37.5 -104h-173z" />
<glyph unicode="&#xbe;" horiz-adv-x="1822" d="M41 854h178q9 -54 51 -89.5t101 -35.5q63 0 108 41.5t45 99.5q0 66 -48.5 106t-119.5 40h-45v127h37q66 0 108 27t42 85q0 49 -34 79t-87 30q-48 0 -81 -28t-34 -72h-164q0 104 85 170.5t198 66.5q112 0 194 -63.5t82 -165.5q0 -56 -29 -106t-81 -74q74 -26 119 -89.5 t45 -138.5q0 -118 -100 -199t-230 -81q-136 0 -235 73t-105 197zM483 0l660 1462h200l-655 -1462h-205zM1006 233v127l409 517h203v-517h143v-127h-143v-94h111v-139h-396v139h111v94h-438zM1198 360h246v318z" />
<glyph unicode="&#xbf;" horiz-adv-x="1146" d="M94 72q0 69 17 125.5t45.5 95t63 72t71 65.5t68.5 65.5t56.5 81.5t33.5 105h258q0 -82 -28.5 -152.5t-68.5 -118.5t-108 -112q-38 -35 -53 -49t-40 -45t-34.5 -61.5t-9.5 -67.5q0 -87 62.5 -151t150.5 -64q99 0 161 66.5t64 166.5h262q2 -137 -62 -252t-177.5 -181.5 t-250.5 -66.5q-96 0 -184.5 38.5t-153.5 102.5t-104 152.5t-39 184.5zM449 805v289h258v-289h-258z" />
<glyph unicode="&#xc0;" horiz-adv-x="1642" d="M33 0v233h155l426 996h-161v233h489l512 -1229h156v-233h-617v205h162l-86 219h-514l-84 -219h158v-205h-596zM451 1853l100 222l549 -295l-84 -183zM627 639h372l-184 502h-2z" />
<glyph unicode="&#xc1;" horiz-adv-x="1642" d="M33 0v233h155l426 996h-161v233h489l512 -1229h156v-233h-617v205h162l-86 219h-514l-84 -219h158v-205h-596zM451 1776l542 307l109 -219l-565 -267zM627 639h372l-184 502h-2z" />
<glyph unicode="&#xc2;" horiz-adv-x="1642" d="M33 0v233h155l426 996h-161v233h489l512 -1229h156v-233h-617v205h162l-86 219h-514l-84 -219h158v-205h-596zM348 1661l354 344h172l355 -344h-283l-158 154l-157 -154h-283zM627 639h372l-184 502h-2z" />
<glyph unicode="&#xc3;" horiz-adv-x="1642" d="M33 0v233h155l426 996h-161v233h489l512 -1229h156v-233h-617v205h162l-86 219h-514l-84 -219h158v-205h-596zM391 1851q41 33 98.5 54.5t108.5 21.5q55 0 152 -29q88 -30 147 -30q98 0 158 55l121 -166q-107 -92 -230 -92q-60 0 -153.5 30.5t-133.5 30.5q-72 0 -137 -59 zM627 639h372l-184 502h-2z" />
<glyph unicode="&#xc4;" horiz-adv-x="1642" d="M33 0v233h155l426 996h-161v233h489l512 -1229h156v-233h-617v205h162l-86 219h-514l-84 -219h158v-205h-596zM461 1567v264h250v-264h-250zM627 639h372l-184 502h-2zM842 1567v264h250v-264h-250z" />
<glyph unicode="&#xc5;" horiz-adv-x="1642" d="M33 0v233h155l426 996h-161v233h489l512 -1229h156v-233h-617v205h162l-86 219h-514l-84 -219h158v-205h-596zM555 1837q0 99 71.5 168.5t170.5 69.5t168 -71.5t69 -170.5t-69.5 -169.5t-167.5 -70.5q-101 0 -171.5 71.5t-70.5 172.5zM627 639h372l-184 502h-2zM698 1831 q0 -39 29 -66.5t68 -27.5q41 0 68.5 29t27.5 71q0 38 -29 66t-67 28q-41 0 -69 -29t-28 -71z" />
<glyph unicode="&#xc6;" horiz-adv-x="2056" d="M33 0v233h162l679 996h-153v233h1257v-440h-278v192h-371v-368h428v-211h-428v-389h371v196h278v-442h-1085v197h158v233h-433l-153 -233h160v-197h-592zM743 635h308v475h-2z" />
<glyph unicode="&#xc7;" horiz-adv-x="1505" d="M-23 743q0 202 99.5 376.5t272 278t376.5 103.5q131 0 248.5 -45t204.5 -135v147h229v-467h-266q-61 103 -172.5 163.5t-231.5 60.5q-206 0 -342.5 -139t-136.5 -345q0 -197 139 -339t336 -142q127 0 236 58t176 163h301q-67 -211 -251 -351t-407 -155l-47 -116l27 2 q83 0 139 -61t56 -144q0 -99 -66 -164t-166 -65q-91 0 -154 60.5t-69 150.5h151q18 -62 74 -62q34 0 55 21t21 55q0 33 -21.5 56.5t-54.5 23.5q-39 0 -69 -33l-123 51l90 230q-122 19 -234 75t-198 142q-107 109 -164.5 250.5t-57.5 295.5z" />
<glyph unicode="&#xc8;" horiz-adv-x="1224" d="M63 0v233h160v996h-160v233h1084v-440h-279v190h-366v-364h426v-217h-426v-387h366v198h279v-442h-1084zM287 1853l100 222l549 -295l-84 -183z" />
<glyph unicode="&#xc9;" horiz-adv-x="1224" d="M63 0v233h160v996h-160v233h1084v-440h-279v190h-366v-364h426v-217h-426v-387h366v198h279v-442h-1084zM287 1776l542 307l109 -219l-565 -267z" />
<glyph unicode="&#xca;" horiz-adv-x="1224" d="M63 0v233h160v996h-160v233h1084v-440h-279v190h-366v-364h426v-217h-426v-387h366v198h279v-442h-1084zM164 1661l354 344h172l354 -344h-282l-158 154l-158 -154h-282z" />
<glyph unicode="&#xcb;" horiz-adv-x="1224" d="M63 0v233h160v996h-160v233h1084v-440h-279v190h-366v-364h426v-217h-426v-387h366v198h279v-442h-1084zM297 1567v264h250v-264h-250zM678 1567v264h250v-264h-250z" />
<glyph unicode="&#xcc;" horiz-adv-x="733" d="M41 1853l100 222l549 -295l-84 -183zM63 0v233h160v996h-160v233h596v-233h-157v-996h157v-233h-596z" />
<glyph unicode="&#xcd;" horiz-adv-x="733" d="M41 1776l543 307l108 -219l-565 -267zM63 0v233h160v996h-160v233h596v-233h-157v-996h157v-233h-596z" />
<glyph unicode="&#xce;" horiz-adv-x="733" d="M-61 1661l354 344h172l354 -344h-282l-158 154l-158 -154h-282zM63 0v233h160v996h-160v233h596v-233h-157v-996h157v-233h-596z" />
<glyph unicode="&#xcf;" horiz-adv-x="733" d="M51 1567v264h250v-264h-250zM63 0v233h160v996h-160v233h596v-233h-157v-996h157v-233h-596zM432 1567v264h250v-264h-250z" />
<glyph unicode="&#xd0;" horiz-adv-x="1452" d="M63 0v233h160v398h-160v217h160v381h-160v233h695q163 0 284 -42.5t226 -149.5q103 -105 155 -245.5t52 -297.5q0 -142 -48.5 -274.5t-140.5 -235.5q-104 -118 -233 -167.5t-299 -49.5h-691zM502 252h219q120 0 205 26t151 103q58 67 88.5 160t30.5 186q0 105 -31.5 204 t-95.5 167q-69 70 -148.5 93t-195.5 23h-223v-366h278v-217h-278v-379z" />
<glyph unicode="&#xd1;" horiz-adv-x="1630" d="M49 0v233h158v996h-158v233h410l696 -979v746h-160v233h596v-233h-157v-1229h-260l-689 963v-730h160v-233h-596zM438 1851q41 33 98.5 54.5t108.5 21.5q55 0 152 -29q88 -30 147 -30q98 0 158 55l121 -166q-107 -92 -230 -92q-60 0 -153 30.5t-133 30.5q-73 0 -138 -59z " />
<glyph unicode="&#xd2;" horiz-adv-x="1488" d="M-23 731q0 211 104 388t281.5 278.5t387.5 101.5q205 0 380 -101.5t278 -276t103 -378.5q0 -158 -60.5 -301t-162.5 -247t-244.5 -165t-300.5 -61q-156 0 -297.5 60t-244 162t-163.5 243.5t-61 296.5zM264 739q0 -204 139 -347.5t340 -143.5q133 0 244.5 66.5t174.5 180 t63 246.5q0 129 -64 239.5t-174 175.5t-239 65q-200 0 -342 -141t-142 -341zM410 1853l100 222l549 -295l-84 -183z" />
<glyph unicode="&#xd3;" horiz-adv-x="1488" d="M-23 731q0 211 104 388t281.5 278.5t387.5 101.5q205 0 380 -101.5t278 -276t103 -378.5q0 -158 -60.5 -301t-162.5 -247t-244.5 -165t-300.5 -61q-156 0 -297.5 60t-244 162t-163.5 243.5t-61 296.5zM264 739q0 -204 139 -347.5t340 -143.5q133 0 244.5 66.5t174.5 180 t63 246.5q0 129 -64 239.5t-174 175.5t-239 65q-200 0 -342 -141t-142 -341zM410 1776l542 307l109 -219l-565 -267z" />
<glyph unicode="&#xd4;" horiz-adv-x="1488" d="M-23 731q0 211 104 388t281.5 278.5t387.5 101.5q205 0 380 -101.5t278 -276t103 -378.5q0 -158 -60.5 -301t-162.5 -247t-244.5 -165t-300.5 -61q-156 0 -297.5 60t-244 162t-163.5 243.5t-61 296.5zM264 739q0 -204 139 -347.5t340 -143.5q133 0 244.5 66.5t174.5 180 t63 246.5q0 129 -64 239.5t-174 175.5t-239 65q-200 0 -342 -141t-142 -341zM287 1661l354 344h172l354 -344h-282l-158 154l-158 -154h-282z" />
<glyph unicode="&#xd5;" horiz-adv-x="1488" d="M-23 731q0 211 104 388t281.5 278.5t387.5 101.5q205 0 380 -101.5t278 -276t103 -378.5q0 -158 -60.5 -301t-162.5 -247t-244.5 -165t-300.5 -61q-156 0 -297.5 60t-244 162t-163.5 243.5t-61 296.5zM264 739q0 -204 139 -347.5t340 -143.5q133 0 244.5 66.5t174.5 180 t63 246.5q0 129 -64 239.5t-174 175.5t-239 65q-200 0 -342 -141t-142 -341zM350 1851q41 33 98.5 54.5t108.5 21.5q55 0 152 -29q88 -30 147 -30q98 0 158 55l121 -166q-107 -92 -230 -92q-60 0 -153.5 30.5t-133.5 30.5q-72 0 -137 -59z" />
<glyph unicode="&#xd6;" horiz-adv-x="1488" d="M-23 731q0 211 104 388t281.5 278.5t387.5 101.5q205 0 380 -101.5t278 -276t103 -378.5q0 -158 -60.5 -301t-162.5 -247t-244.5 -165t-300.5 -61q-156 0 -297.5 60t-244 162t-163.5 243.5t-61 296.5zM264 739q0 -204 139 -347.5t340 -143.5q133 0 244.5 66.5t174.5 180 t63 246.5q0 129 -64 239.5t-174 175.5t-239 65q-200 0 -342 -141t-142 -341zM420 1567v264h250v-264h-250zM801 1567v264h250v-264h-250z" />
<glyph unicode="&#xd7;" d="M207 377l356 356l-356 357l133 133l356 -357l357 357l133 -133l-357 -357l357 -356l-133 -133l-357 356l-356 -356z" />
<glyph unicode="&#xd8;" horiz-adv-x="1519" d="M-2 733q0 158 60.5 300.5t163.5 244.5t245 162.5t299 60.5q105 0 185 -22.5t179 -75.5l29 -17l146 179l155 -123l-145 -178q207 -226 207 -537q0 -157 -62 -298t-166.5 -241t-247 -158.5t-298.5 -58.5q-181 0 -322 72l-72 37l-147 -184l-154 122l152 187 q-207 223 -207 528zM281 731q0 -87 26.5 -152.5t83.5 -142.5l590 725q-52 25 -77 35.5t-65.5 19.5t-86.5 9q-129 0 -238 -68.5t-171 -182t-62 -243.5zM539 307q50 -22 74.5 -32t64 -18.5t82.5 -8.5q133 0 243.5 65t173 176.5t62.5 243.5q0 93 -24.5 158t-81.5 145z" />
<glyph unicode="&#xd9;" horiz-adv-x="1435" d="M39 1229v233h569v-233h-133v-688q0 -44 2 -72.5t12 -66t29 -66.5q33 -50 86.5 -76.5t114.5 -26.5q117 0 188 89q54 69 54 219v688h-134v233h570v-233h-158v-725q0 -125 -28 -215t-105 -170q-141 -148 -387 -148q-239 0 -377 135q-84 82 -114.5 178t-30.5 228v717h-158z M383 1853l100 222l549 -295l-84 -183z" />
<glyph unicode="&#xda;" horiz-adv-x="1435" d="M39 1229v233h569v-233h-133v-688q0 -44 2 -72.5t12 -66t29 -66.5q33 -50 86.5 -76.5t114.5 -26.5q117 0 188 89q54 69 54 219v688h-134v233h570v-233h-158v-725q0 -125 -28 -215t-105 -170q-141 -148 -387 -148q-239 0 -377 135q-84 82 -114.5 178t-30.5 228v717h-158z M383 1776l543 307l108 -219l-565 -267z" />
<glyph unicode="&#xdb;" horiz-adv-x="1435" d="M39 1229v233h569v-233h-133v-688q0 -44 2 -72.5t12 -66t29 -66.5q33 -50 86.5 -76.5t114.5 -26.5q117 0 188 89q54 69 54 219v688h-134v233h570v-233h-158v-725q0 -125 -28 -215t-105 -170q-141 -148 -387 -148q-239 0 -377 135q-84 82 -114.5 178t-30.5 228v717h-158z M281 1661l354 344h172l354 -344h-282l-158 154l-158 -154h-282z" />
<glyph unicode="&#xdc;" horiz-adv-x="1435" d="M39 1229v233h569v-233h-133v-688q0 -44 2 -72.5t12 -66t29 -66.5q33 -50 86.5 -76.5t114.5 -26.5q117 0 188 89q54 69 54 219v688h-134v233h570v-233h-158v-725q0 -125 -28 -215t-105 -170q-141 -148 -387 -148q-239 0 -377 135q-84 82 -114.5 178t-30.5 228v717h-158z M414 1567v264h250v-264h-250zM795 1567v264h249v-264h-249z" />
<glyph unicode="&#xdd;" horiz-adv-x="1409" d="M33 1229v233h565v-233h-135l246 -484l243 484h-139v233h563v-233h-145l-385 -719v-277h160v-233h-596v233h157v277l-387 719h-147zM389 1776l543 307l108 -219l-565 -267z" />
<glyph unicode="&#xde;" horiz-adv-x="1183" d="M66 0v233h157v996h-157v233h596v-233h-160v-80h145q104 0 183.5 -9.5t155 -36.5t124 -72t78 -120.5t29.5 -177.5q0 -88 -25.5 -158t-71 -116.5t-111 -77t-141.5 -44t-166 -13.5h-200v-91h160v-233h-596zM502 547h166q66 0 110.5 7t82.5 26.5t56.5 57t18.5 95.5 q0 59 -21.5 98.5t-62.5 59.5t-87.5 27.5t-109.5 7.5h-153v-379z" />
<glyph unicode="&#xdf;" horiz-adv-x="1226" d="M45 0v233h143v732q0 116 23.5 201t89.5 163q68 80 161.5 126t176.5 46q182 0 309 -120t127 -302q0 -95 -45 -172.5t-129 -111.5q145 -23 227 -131.5t82 -260.5q0 -193 -122 -314.5t-302 -121.5q-105 0 -208 39v234q76 -43 159 -43q93 0 158.5 62t65.5 155q0 63 -28 110.5 t-74.5 73.5t-99.5 38.5t-112 12.5h-55v221h33q85 0 140.5 53.5t55.5 139.5q0 82 -51.5 135t-126.5 53q-47 0 -89.5 -25.5t-72.5 -66.5q-21 -29 -31 -68t-11 -62t-1 -75v-954h-393z" />
<glyph unicode="&#xe0;" horiz-adv-x="1372" d="M6 541q0 156 76.5 290t208.5 212.5t289 78.5q106 0 194.5 -47.5t145.5 -136.5v156h391v-234h-137v-627h137v-233h-391v147q-58 -88 -150 -132t-203 -44q-153 0 -282.5 77.5t-204 208.5t-74.5 284zM264 541q0 -133 97 -229.5t229 -96.5q140 0 237 99t97 239 q0 135 -97.5 230.5t-232.5 95.5q-138 0 -234 -99.5t-96 -238.5zM332 1485l100 221l549 -295l-84 -182z" />
<glyph unicode="&#xe1;" horiz-adv-x="1372" d="M6 541q0 156 76.5 290t208.5 212.5t289 78.5q106 0 194.5 -47.5t145.5 -136.5v156h391v-234h-137v-627h137v-233h-391v147q-58 -88 -150 -132t-203 -44q-153 0 -282.5 77.5t-204 208.5t-74.5 284zM264 541q0 -133 97 -229.5t229 -96.5q140 0 237 99t97 239 q0 135 -97.5 230.5t-232.5 95.5q-138 0 -234 -99.5t-96 -238.5zM332 1407l542 307l109 -219l-565 -266z" />
<glyph unicode="&#xe2;" horiz-adv-x="1372" d="M6 541q0 156 76.5 290t208.5 212.5t289 78.5q106 0 194.5 -47.5t145.5 -136.5v156h391v-234h-137v-627h137v-233h-391v147q-58 -88 -150 -132t-203 -44q-153 0 -282.5 77.5t-204 208.5t-74.5 284zM209 1272l354 344h172l355 -344h-283l-158 153l-157 -153h-283zM264 541 q0 -133 97 -229.5t229 -96.5q140 0 237 99t97 239q0 135 -97.5 230.5t-232.5 95.5q-138 0 -234 -99.5t-96 -238.5z" />
<glyph unicode="&#xe3;" horiz-adv-x="1372" d="M6 541q0 156 76.5 290t208.5 212.5t289 78.5q106 0 194.5 -47.5t145.5 -136.5v156h391v-234h-137v-627h137v-233h-391v147q-58 -88 -150 -132t-203 -44q-153 0 -282.5 77.5t-204 208.5t-74.5 284zM252 1483q41 33 98.5 54.5t108.5 21.5q54 0 151 -29q91 -31 148 -31 q97 0 157 55l121 -165q-108 -93 -229 -93q-60 0 -153.5 31t-133.5 31q-71 0 -137 -60zM264 541q0 -133 97 -229.5t229 -96.5q140 0 237 99t97 239q0 135 -97.5 230.5t-232.5 95.5q-138 0 -234 -99.5t-96 -238.5z" />
<glyph unicode="&#xe4;" horiz-adv-x="1372" d="M6 541q0 156 76.5 290t208.5 212.5t289 78.5q106 0 194.5 -47.5t145.5 -136.5v156h391v-234h-137v-627h137v-233h-391v147q-58 -88 -150 -132t-203 -44q-153 0 -282.5 77.5t-204 208.5t-74.5 284zM264 541q0 -133 97 -229.5t229 -96.5q140 0 237 99t97 239 q0 135 -97.5 230.5t-232.5 95.5q-138 0 -234 -99.5t-96 -238.5zM322 1198v264h249v-264h-249zM702 1198v264h250v-264h-250z" />
<glyph unicode="&#xe5;" horiz-adv-x="1372" d="M6 541q0 156 76.5 290t208.5 212.5t289 78.5q106 0 194.5 -47.5t145.5 -136.5v156h391v-234h-137v-627h137v-233h-391v147q-58 -88 -150 -132t-203 -44q-153 0 -282.5 77.5t-204 208.5t-74.5 284zM264 541q0 -133 97 -229.5t229 -96.5q140 0 237 99t97 239 q0 135 -97.5 230.5t-232.5 95.5q-138 0 -234 -99.5t-96 -238.5zM375 1468q0 99 71 168.5t170 69.5t168.5 -71.5t69.5 -170.5q0 -98 -70 -168.5t-168 -70.5q-101 0 -171 71t-70 172zM518 1462q0 -39 28.5 -66.5t67.5 -27.5q41 0 69 29t28 71q0 38 -29.5 66.5t-67.5 28.5 q-41 0 -68.5 -29.5t-27.5 -71.5z" />
<glyph unicode="&#xe6;" horiz-adv-x="2095" d="M6 559q0 148 76.5 279t206.5 209.5t278 78.5q104 0 194.5 -45t153.5 -127v140h250v-154q127 186 353 186q113 0 217.5 -46.5t179.5 -123.5t119.5 -182t44.5 -217q0 -94 -6 -94h-889q21 -108 113.5 -178t203.5 -70q77 0 134.5 27t113.5 86h289q-68 -162 -213.5 -259.5 t-319.5 -97.5q-103 0 -194.5 52t-145.5 141v-164h-250v168q-52 -92 -138 -144.5t-189 -52.5q-159 0 -293 78.5t-211.5 214t-77.5 295.5zM256 561q0 -142 97.5 -244t238.5 -102q147 0 247.5 98t100.5 246q0 136 -105 235t-239 99q-132 0 -236 -99.5t-104 -232.5zM1182 653 h641q-33 104 -121.5 172t-196.5 68q-116 0 -200 -64.5t-123 -175.5z" />
<glyph unicode="&#xe7;" horiz-adv-x="1189" d="M6 547q0 150 72 283t200 214.5t279 81.5q185 0 313 -137v105h215v-365h-233q-46 66 -117 109q-71 41 -155 41q-138 0 -231 -97t-93 -235q0 -139 96.5 -234.5t233.5 -95.5q82 0 155 41t107 111h278q-45 -156 -179 -264.5t-296 -127.5l-49 -118l27 2q83 0 138.5 -60.5 t55.5 -144.5q0 -100 -65.5 -164.5t-165.5 -64.5q-91 0 -154 60.5t-69 150.5h151q18 -62 74 -62q34 0 55 21t21 55q0 33 -21.5 56.5t-54.5 23.5q-40 0 -70 -33l-123 51l91 232q-209 33 -347.5 192t-138.5 373z" />
<glyph unicode="&#xe8;" horiz-adv-x="1155" d="M6 543q0 160 73.5 293.5t204.5 211.5t291 78q113 0 221.5 -47t188.5 -129q154 -162 154 -409l-9 -88h-884q25 -114 117.5 -188.5t209.5 -74.5q176 0 265 132h260q-65 -158 -206 -254.5t-310 -96.5q-157 0 -289.5 75t-209.5 207t-77 290zM227 1485l101 221l549 -295 l-84 -182zM244 645h663q-32 118 -126.5 188t-217.5 70q-110 0 -203 -75.5t-116 -182.5z" />
<glyph unicode="&#xe9;" horiz-adv-x="1155" d="M6 543q0 160 73.5 293.5t204.5 211.5t291 78q113 0 221.5 -47t188.5 -129q154 -162 154 -409l-9 -88h-884q25 -114 117.5 -188.5t209.5 -74.5q176 0 265 132h260q-65 -158 -206 -254.5t-310 -96.5q-157 0 -289.5 75t-209.5 207t-77 290zM244 645h663q-32 118 -126.5 188 t-217.5 70q-110 0 -203 -75.5t-116 -182.5zM248 1407l543 307l108 -219l-565 -266z" />
<glyph unicode="&#xea;" horiz-adv-x="1155" d="M6 543q0 160 73.5 293.5t204.5 211.5t291 78q113 0 221.5 -47t188.5 -129q154 -162 154 -409l-9 -88h-884q25 -114 117.5 -188.5t209.5 -74.5q176 0 265 132h260q-65 -158 -206 -254.5t-310 -96.5q-157 0 -289.5 75t-209.5 207t-77 290zM125 1272l354 344h172l355 -344 h-283l-158 153l-157 -153h-283zM244 645h663q-32 118 -126.5 188t-217.5 70q-110 0 -203 -75.5t-116 -182.5z" />
<glyph unicode="&#xeb;" horiz-adv-x="1155" d="M6 543q0 160 73.5 293.5t204.5 211.5t291 78q113 0 221.5 -47t188.5 -129q154 -162 154 -409l-9 -88h-884q25 -114 117.5 -188.5t209.5 -74.5q176 0 265 132h260q-65 -158 -206 -254.5t-310 -96.5q-157 0 -289.5 75t-209.5 207t-77 290zM238 1198v264h249v-264h-249z M244 645h663q-32 118 -126.5 188t-217.5 70q-110 0 -203 -75.5t-116 -182.5zM618 1198v264h250v-264h-250z" />
<glyph unicode="&#xec;" horiz-adv-x="655" d="M2 1485l100 221l549 -295l-84 -182zM59 0v233h144v627h-142v234h392v-861h141v-233h-535z" />
<glyph unicode="&#xed;" horiz-adv-x="655" d="M2 1407l543 307l108 -219l-565 -266zM59 0v233h144v627h-142v234h392v-861h141v-233h-535z" />
<glyph unicode="&#xee;" horiz-adv-x="655" d="M-121 1272l354 344h173l354 -344h-283l-158 153l-157 -153h-283zM59 0v233h144v627h-142v234h392v-861h141v-233h-535z" />
<glyph unicode="&#xef;" horiz-adv-x="655" d="M12 1198v264h250v-264h-250zM59 0v233h144v627h-142v234h392v-861h141v-233h-535zM393 1198v264h250v-264h-250z" />
<glyph unicode="&#xf0;" horiz-adv-x="1189" d="M6 551q0 157 78 289.5t211 209t289 76.5q49 0 88 -8q-51 48 -113 90l-295 -88l-168 109l281 86q-92 45 -207 80l293 80q78 -22 178 -78l254 78l168 -117l-258 -76q348 -291 348 -729q0 -157 -76 -291t-208.5 -212.5t-290.5 -78.5q-156 0 -288 79t-208 212.5t-76 288.5z M252 553q0 -137 94 -236.5t232 -99.5q136 0 232.5 96.5t96.5 233.5q0 135 -94 234.5t-229 99.5q-136 0 -234 -96t-98 -232z" />
<glyph unicode="&#xf1;" horiz-adv-x="1359" d="M61 0v233h142v627h-142v234h392v-156q48 88 133.5 134t189.5 46q90 0 173 -35.5t143 -99.5q43 -47 64 -103t24.5 -98t3.5 -120v-429h141v-233h-532v233h141v355q0 45 -1.5 70t-11.5 61.5t-30 64.5q-33 43 -84.5 65.5t-108.5 22.5q-59 0 -112 -24t-86 -68 q-22 -28 -33 -72.5t-12.5 -74.5t-1.5 -82v-318h141v-233h-533zM297 1483q41 33 98.5 54.5t108.5 21.5q54 0 151 -29q91 -31 148 -31q98 0 158 55l120 -165q-108 -93 -229 -93q-60 0 -153.5 31t-133.5 31q-71 0 -137 -60z" />
<glyph unicode="&#xf2;" horiz-adv-x="1169" d="M6 551q0 157 78 289.5t211 209t289 76.5q154 0 285.5 -78t207.5 -210t76 -285q0 -157 -76 -291t-208.5 -212.5t-290.5 -78.5q-156 0 -288 79t-208 212.5t-76 288.5zM250 1485l100 221l549 -295l-84 -182zM252 553q0 -137 94 -236.5t232 -99.5q136 0 232.5 96.5 t96.5 233.5q0 135 -94 234.5t-229 99.5q-136 0 -234 -96t-98 -232z" />
<glyph unicode="&#xf3;" horiz-adv-x="1169" d="M6 551q0 157 78 289.5t211 209t289 76.5q154 0 285.5 -78t207.5 -210t76 -285q0 -157 -76 -291t-208.5 -212.5t-290.5 -78.5q-156 0 -288 79t-208 212.5t-76 288.5zM250 1407l543 307l108 -219l-565 -266zM252 553q0 -137 94 -236.5t232 -99.5q136 0 232.5 96.5 t96.5 233.5q0 135 -94 234.5t-229 99.5q-136 0 -234 -96t-98 -232z" />
<glyph unicode="&#xf4;" horiz-adv-x="1169" d="M6 551q0 157 78 289.5t211 209t289 76.5q154 0 285.5 -78t207.5 -210t76 -285q0 -157 -76 -291t-208.5 -212.5t-290.5 -78.5q-156 0 -288 79t-208 212.5t-76 288.5zM147 1272l355 344h172l354 -344h-283l-157 153l-158 -153h-283zM252 553q0 -137 94 -236.5t232 -99.5 q136 0 232.5 96.5t96.5 233.5q0 135 -94 234.5t-229 99.5q-136 0 -234 -96t-98 -232z" />
<glyph unicode="&#xf5;" horiz-adv-x="1169" d="M6 551q0 157 78 289.5t211 209t289 76.5q154 0 285.5 -78t207.5 -210t76 -285q0 -157 -76 -291t-208.5 -212.5t-290.5 -78.5q-156 0 -288 79t-208 212.5t-76 288.5zM190 1483q41 33 98.5 54.5t108.5 21.5q55 0 152 -29q91 -31 147 -31q98 0 158 55l121 -165 q-108 -93 -230 -93q-60 0 -153 31t-133 31q-71 0 -137 -60zM252 553q0 -137 94 -236.5t232 -99.5q136 0 232.5 96.5t96.5 233.5q0 135 -94 234.5t-229 99.5q-136 0 -234 -96t-98 -232z" />
<glyph unicode="&#xf6;" horiz-adv-x="1169" d="M6 551q0 157 78 289.5t211 209t289 76.5q154 0 285.5 -78t207.5 -210t76 -285q0 -157 -76 -291t-208.5 -212.5t-290.5 -78.5q-156 0 -288 79t-208 212.5t-76 288.5zM240 1198v264h249v-264h-249zM252 553q0 -137 94 -236.5t232 -99.5q136 0 232.5 96.5t96.5 233.5 q0 135 -94 234.5t-229 99.5q-136 0 -234 -96t-98 -232zM621 1198v264h249v-264h-249z" />
<glyph unicode="&#xf7;" d="M176 639v188h1041v-188h-1041zM602 287v223h189v-223h-189zM602 956v224h189v-224h-189z" />
<glyph unicode="&#xf8;" horiz-adv-x="1187" d="M6 545q0 159 79 293t214 211t295 77q153 0 268 -63l103 139l145 -110l-102 -136q163 -173 163 -389q0 -163 -74.5 -299t-207.5 -216.5t-297 -80.5q-124 0 -273 62l-108 -146l-141 109l106 145l-14 15q-3 4 -13 16t-13.5 16t-12 14.5t-12.5 15.5t-11 15t-11.5 17t-10 16 t-10.5 18t-9 19q-53 119 -53 242zM254 551q0 -113 78 -207l379 512q-78 29 -125 29q-140 0 -236 -97t-96 -237zM477 238q77 -25 111 -25q143 0 240.5 95t97.5 239q0 101 -74 196z" />
<glyph unicode="&#xf9;" horiz-adv-x="1316" d="M35 860v234h391v-592q0 -44 2 -72.5t12 -66.5t29 -66q61 -94 184 -94q53 0 103 24.5t82 65.5q22 31 33 71t12.5 67t1.5 77v352h-142v234h392v-861h141v-233h-371v135q-53 -78 -142.5 -121t-187.5 -43q-88 0 -167 36.5t-136 103.5q-56 66 -76 141.5t-20 175.5v432h-141z M317 1485l101 221l549 -295l-84 -182z" />
<glyph unicode="&#xfa;" horiz-adv-x="1316" d="M35 860v234h391v-592q0 -44 2 -72.5t12 -66.5t29 -66q61 -94 184 -94q53 0 103 24.5t82 65.5q22 31 33 71t12.5 67t1.5 77v352h-142v234h392v-861h141v-233h-371v135q-53 -78 -142.5 -121t-187.5 -43q-88 0 -167 36.5t-136 103.5q-56 66 -76 141.5t-20 175.5v432h-141z M317 1407l543 307l109 -219l-566 -266z" />
<glyph unicode="&#xfb;" horiz-adv-x="1316" d="M35 860v234h391v-592q0 -44 2 -72.5t12 -66.5t29 -66q61 -94 184 -94q53 0 103 24.5t82 65.5q22 31 33 71t12.5 67t1.5 77v352h-142v234h392v-861h141v-233h-371v135q-53 -78 -142.5 -121t-187.5 -43q-88 0 -167 36.5t-136 103.5q-56 66 -76 141.5t-20 175.5v432h-141z M195 1272l354 344h172l354 -344h-282l-158 153l-158 -153h-282z" />
<glyph unicode="&#xfc;" horiz-adv-x="1316" d="M35 860v234h391v-592q0 -44 2 -72.5t12 -66.5t29 -66q61 -94 184 -94q53 0 103 24.5t82 65.5q22 31 33 71t12.5 67t1.5 77v352h-142v234h392v-861h141v-233h-371v135q-53 -78 -142.5 -121t-187.5 -43q-88 0 -167 36.5t-136 103.5q-56 66 -76 141.5t-20 175.5v432h-141z M328 1198v264h250v-264h-250zM709 1198v264h249v-264h-249z" />
<glyph unicode="&#xfd;" horiz-adv-x="1275" d="M31 860v234h516v-234h-107l195 -534l207 534h-107v234h510v-234h-137l-424 -1026h143v-233h-532v233h137l74 180l-332 846h-143zM305 1407l543 307l108 -219l-565 -266z" />
<glyph unicode="&#xfe;" horiz-adv-x="1378" d="M55 -166h140v1395h-140v233h391v-540q59 91 152.5 137.5t206.5 46.5q152 0 280.5 -76t202.5 -205.5t74 -281.5q0 -148 -72.5 -276.5t-198.5 -205.5t-274 -77q-111 0 -209 43t-162 127v-320h142v-233h-533v233zM444 545q0 -137 97 -233.5t233 -96.5q135 0 232.5 96.5 t97.5 231.5t-94.5 234.5t-229.5 99.5q-139 0 -237.5 -96t-98.5 -236z" />
<glyph unicode="&#xff;" horiz-adv-x="1275" d="M31 860v234h516v-234h-107l195 -534l207 534h-107v234h510v-234h-137l-424 -1026h143v-233h-532v233h137l74 180l-332 846h-143zM315 1198v264h250v-264h-250zM696 1198v264h250v-264h-250z" />
<glyph unicode="&#x152;" horiz-adv-x="2240" d="M-2 737q0 204 101 380t274.5 280t376.5 104q306 0 489 -250v211h924v-432h-279v189h-368v-369h415v-219h-415v-385h368v194h279v-440h-924v217q-171 -246 -483 -246q-158 0 -299 60t-241.5 162t-159 244t-58.5 300zM276 729q0 -129 64 -239.5t173.5 -175t238.5 -64.5 q195 0 334 142.5t139 338.5q0 129 -60.5 242.5t-169.5 182.5t-239 69q-133 0 -244 -67.5t-173.5 -181t-62.5 -247.5z" />
<glyph unicode="&#x153;" horiz-adv-x="2107" d="M6 551q0 158 79.5 290.5t214.5 208.5t294 76q156 0 295 -82q55 -31 84.5 -59.5t66.5 -81.5l11 -16q71 115 194 175t266 60q115 0 221.5 -44.5t185.5 -120t126 -180.5t47 -220l-8 -94h-899q24 -111 113 -178.5t206 -67.5q159 0 264 117h285q-68 -166 -216 -264.5 t-329 -98.5q-141 0 -261 59.5t-195 174.5q-68 -112 -192 -173t-263 -61q-162 0 -297.5 77t-214 210.5t-78.5 292.5zM246 549q0 -138 101 -236t241 -98q141 0 241.5 99t100.5 237q0 139 -102 236.5t-242 97.5t-240 -99t-100 -237zM1190 649h631q-40 110 -124.5 172t-201.5 62 q-104 0 -190.5 -67t-114.5 -167z" />
<glyph unicode="&#x178;" horiz-adv-x="1409" d="M33 1229v233h565v-233h-135l246 -484l243 484h-139v233h563v-233h-145l-385 -719v-277h160v-233h-596v233h157v277l-387 719h-147zM379 1567v264h250v-264h-250zM760 1567v264h250v-264h-250z" />
<glyph unicode="&#x2c6;" horiz-adv-x="1228" d="M166 1292l354 344h172l355 -344h-283l-158 154l-157 -154h-283z" />
<glyph unicode="&#x2dc;" horiz-adv-x="1105" d="M168 1483q41 33 98.5 54.5t108.5 21.5q54 0 151 -29q91 -31 148 -31q97 0 157 55l121 -165q-108 -93 -229 -93q-60 0 -153.5 31t-133.5 31q-71 0 -137 -60z" />
<glyph unicode="&#x2000;" horiz-adv-x="1041" />
<glyph unicode="&#x2001;" horiz-adv-x="2083" />
<glyph unicode="&#x2002;" horiz-adv-x="1041" />
<glyph unicode="&#x2003;" horiz-adv-x="2083" />
<glyph unicode="&#x2004;" horiz-adv-x="694" />
<glyph unicode="&#x2005;" horiz-adv-x="520" />
<glyph unicode="&#x2006;" horiz-adv-x="347" />
<glyph unicode="&#x2007;" horiz-adv-x="347" />
<glyph unicode="&#x2008;" horiz-adv-x="260" />
<glyph unicode="&#x2009;" horiz-adv-x="416" />
<glyph unicode="&#x200a;" horiz-adv-x="115" />
<glyph unicode="&#x2010;" horiz-adv-x="630" d="M53 414v248h525v-248h-525z" />
<glyph unicode="&#x2011;" horiz-adv-x="630" d="M53 414v248h525v-248h-525z" />
<glyph unicode="&#x2012;" horiz-adv-x="630" d="M53 414v248h525v-248h-525z" />
<glyph unicode="&#x2013;" horiz-adv-x="1064" d="M8 414v248h1049v-248h-1049z" />
<glyph unicode="&#x2014;" horiz-adv-x="2088" d="M8 414v248h2073v-248h-2073z" />
<glyph unicode="&#x2018;" horiz-adv-x="442" d="M92 879v329q0 67 8.5 110t40.5 83q33 40 70 50.5t100 10.5h39v-139l-24 2q-30 0 -48.5 -10.5t-26 -32.5t-9.5 -39t-2 -47v-29h110v-288h-258z" />
<glyph unicode="&#x2019;" horiz-adv-x="444" d="M92 1174v288h260v-329q0 -65 -9.5 -108.5t-41.5 -82.5q-32 -40 -69 -51.5t-99 -11.5h-39v139l25 -2q30 0 48.5 10.5t26 32.5t9.5 39.5t2 48.5v27h-113z" />
<glyph unicode="&#x201a;" horiz-adv-x="483" d="M113 0v289h258v-328q0 -68 -8.5 -110.5t-40.5 -81.5q-34 -41 -71.5 -52.5t-98.5 -11.5h-39v139h26q24 0 40.5 8t25 18.5t12.5 30.5t5 34t1 38v27h-110z" />
<glyph unicode="&#x201c;" horiz-adv-x="823" d="M92 879v329q0 47 1.5 71.5t13.5 59t36 62.5q34 39 71 50t99 11h39v-139l-26 2q-20 0 -34.5 -5t-23.5 -15.5t-14.5 -21t-8 -28t-3 -29.5t-0.5 -32v-27h110v-288h-260zM471 879v329q0 65 9.5 109t41.5 84q33 40 69 50.5t101 10.5h39v-139l-26 2q-24 0 -40.5 -8t-24.5 -19 t-12.5 -31t-5.5 -34t-1 -37v-29h110v-288h-260z" />
<glyph unicode="&#x201d;" horiz-adv-x="823" d="M92 1174v288h260v-329q0 -65 -9.5 -108.5t-41.5 -82.5q-32 -40 -69 -51.5t-99 -11.5h-39v139l25 -2q30 0 48.5 10.5t26 32.5t9.5 39.5t2 48.5v27h-113zM471 1174v288h260v-329q0 -65 -9.5 -108.5t-41.5 -82.5q-32 -40 -69 -51.5t-99 -11.5h-39v139l25 -2q30 0 48.5 10.5 t26 32.5t9.5 39.5t2 48.5v27h-113z" />
<glyph unicode="&#x201e;" horiz-adv-x="862" d="M113 0v289h258v-330q0 -47 -1.5 -71t-13 -58.5t-34.5 -62.5q-32 -39 -69.5 -50.5t-98.5 -11.5h-39v139l24 -2q30 0 48.5 10.5t26 32.5t9.5 39.5t2 48.5v27h-112zM492 0v289h258v-328q0 -47 -2 -72t-13.5 -59t-34.5 -61q-32 -41 -69.5 -52.5t-98.5 -11.5h-38v139h24 q24 0 41 8t25.5 18.5t13 30.5t5.5 34t1 38v27h-112z" />
<glyph unicode="&#x2022;" horiz-adv-x="1269" d="M309 367v731h652v-731h-652z" />
<glyph unicode="&#x2026;" horiz-adv-x="2088" d="M233 0v289h259v-289h-259zM915 0v289h259v-289h-259zM1597 0v289h258v-289h-258z" />
<glyph unicode="&#x202f;" horiz-adv-x="416" />
<glyph unicode="&#x2039;" horiz-adv-x="450" d="M94 451v194l252 291l12 -236l-131 -161l131 -160l-12 -221z" />
<glyph unicode="&#x203a;" horiz-adv-x="450" d="M94 379l129 160l-129 161l10 236l254 -291v-194l-254 -293z" />
<glyph unicode="&#x205f;" horiz-adv-x="520" />
<glyph unicode="&#x20ac;" horiz-adv-x="1228" d="M20 578v116h134v49q0 40 2 60h-136v117h144q22 169 84 297t172 206t256 78q95 0 167.5 -45t108.5 -135v147h189v-475h-236q-37 258 -225 258q-204 0 -248 -331h373v-117h-381q-2 -20 -2 -62v-47h383v-116h-375q33 -357 258 -357q109 0 169.5 68.5t76.5 191.5h235 q-63 -510 -483 -510q-109 0 -213.5 52t-179.5 161q-104 150 -131 394h-142z" />
<glyph unicode="&#x2122;" horiz-adv-x="1896" d="M61 1346v116h676v-116h-264v-717h-145v717h-267zM885 629v833h213l237 -588l250 588h209v-833h-129v717l-289 -717h-78l-282 717v-717h-131z" />
<glyph unicode="&#x25fc;" horiz-adv-x="1095" d="M0 0v1096h1096v-1096h-1096z" />
<glyph unicode="&#xfb01;" horiz-adv-x="1146" d="M55 0v233h142v627h-142v234h142q-3 207 105 308t319 99v-219q-95 3 -138 -46t-37 -142h533v-861h141v-233h-1065zM446 233h283v627h-283v-627zM729 1198v264h250v-264h-250z" />
<glyph unicode="&#xfb02;" horiz-adv-x="1146" d="M55 0v233h142v627h-142v234h142q1 223 111 315t337 92h332v-1268h141v-233h-1063zM446 233h281v1049h-53q-50 0 -81 -3t-63 -13.5t-49 -30.5t-27 -55t-8 -86h144v-234h-144v-627z" />
</font>
</defs>
</svg>
