<?xml version="1.0" encoding="utf-8"?>
<!-- Generator: Adobe Illustrator 16.0.0, SVG Export Plug-In . SVG Version: 6.00 Build 0)  -->
<!DOCTYPE svg PUBLIC "-//W3C//DTD SVG 1.1//EN" "http://www.w3.org/Graphics/SVG/1.1/DTD/svg11.dtd">
<svg version="1.1" id="Layer_1" xmlns="http://www.w3.org/2000/svg" xmlns:xlink="http://www.w3.org/1999/xlink" x="0px" y="0px"
	 width="100px" height="100px" viewBox="0 0 100 100" enable-background="new 0 0 100 100" xml:space="preserve">
<g id="Layer_2">
</g>
<g id="Layer_2_1_">
</g>
<path d="M39.813,15c19.851,0,36,16.15,36,36c0,19.851-16.149,36-36,36c-19.851,0-36-16.149-36-36C3.813,31.15,19.962,15,39.813,15
	 M39.813,11c-22.09,0-40,17.91-40,40c0,22.092,17.91,40,40,40s40-17.908,40-40C79.813,28.91,61.903,11,39.813,11L39.813,11z"/>
<rect x="17.8" y="54.908" transform="matrix(0.7071 0.7071 -0.7071 0.7071 50.1504 -3.252)" width="22.4" height="8"/>
<rect x="43.103" y="30.989" transform="matrix(-0.7071 -0.7071 0.7071 -0.7071 44.3541 120.3496)" width="7.999" height="40"/>
</svg>
