<?xml version="1.0" encoding="utf-8"?>
<!-- Generator: Adobe Illustrator 16.0.0, SVG Export Plug-In . SVG Version: 6.00 Build 0)  -->
<!DOCTYPE svg PUBLIC "-//W3C//DTD SVG 1.1//EN" "http://www.w3.org/Graphics/SVG/1.1/DTD/svg11.dtd">
<svg version="1.1" id="Layer_1" xmlns="http://www.w3.org/2000/svg" xmlns:xlink="http://www.w3.org/1999/xlink" x="0px" y="0px"
	 width="100px" height="100px" viewBox="0 0 100 100" enable-background="new 0 0 100 100" xml:space="preserve">
<g id="Layer_2">
</g>
<g id="Layer_2_1_">
</g>
<path d="M78.414,28.008c-1.17-1.172-2.534-1.258-4.069-1.258h-68c-1.535,0-3.243,0.086-4.415,1.258C0.758,29.179,0,30.215,0,31.75
	v48c0,1.535,0.758,3.571,1.93,4.742c1.172,1.172,2.88,2.258,4.415,2.258h68c1.535,0,2.899-1.086,4.069-2.258
	C79.586,83.321,80,81.285,80,79.75v-48C80,30.215,79.586,29.179,78.414,28.008z M73.655,76.308l-27.376-17.72l-3.569,3.287
	c-0.713,0.656-1.665,1.058-2.71,1.058s-1.996-0.401-2.709-1.058l-3.569-3.287L6.345,76.308l23.308-21.467L6.345,33.375l32.569,21.08
	c0.312,0.203,0.686,0.32,1.086,0.32s0.773-0.118,1.087-0.32l32.568-21.08L50.347,54.842L73.655,76.308z"/>
</svg>
