<?xml version="1.0" standalone="no"?><!-- Generator: Adobe Fireworks CS6, Export SVG Extension by Aaron Beall (http://fireworks.abeall.com) . Version: 0.6.1  --><!DOCTYPE svg PUBLIC "-//W3C//DTD SVG 1.1//EN" "http://www.w3.org/Graphics/SVG/1.1/DTD/svg11.dtd"><svg id="Untitled-Page%201" viewBox="0 0 100 100" style="background-color:#ffffff00" version="1.1"	xmlns="http://www.w3.org/2000/svg" xmlns:xlink="http://www.w3.org/1999/xlink" xml:space="preserve"	x="0px" y="0px" width="100px" height="100px">	<path d="M 50 5 C 74.8135 5 95 25.187 95 50 C 95 74.813 74.8135 95 50 95 C 25.1865 95 5 74.813 5 50 C 5 25.187 25.1865 5 50 5 L 50 5 ZM 50 0 C 22.3877 0 0 22.3877 0 50 C 0 77.6123 22.3877 100 50 100 C 77.6152 100 100 77.6123 100 50 C 100 22.3877 77.6152 0 50 0 L 50 0 Z" fill="#000000"/>	<path d="M 53.7549 75.9375 C 53.1152 75.9375 52.4756 75.6934 51.9873 75.2051 C 51.0107 74.2285 51.0107 72.6455 51.9873 71.6694 L 73.6592 50.0029 L 51.9873 28.3301 C 51.0107 27.354 51.0107 25.771 51.9873 24.7949 C 52.9639 23.8184 54.5459 23.8184 55.5225 24.7949 L 78.9629 48.2354 C 79.4316 48.7041 79.6953 49.3398 79.6953 50.0029 C 79.6953 50.666 79.4316 51.3022 78.9629 51.771 L 55.5225 75.2056 C 55.0342 75.6934 54.3945 75.9375 53.7549 75.9375 Z" fill="#000000"/>	<path d="M 76.6953 52.5 L 26.6953 52.5 C 25.3145 52.5 24.1953 51.3809 24.1953 50 C 24.1953 48.6191 25.3145 47.5 26.6953 47.5 L 76.6953 47.5 C 78.0762 47.5 79.1953 48.6191 79.1953 50 C 79.1953 51.3809 78.0762 52.5 76.6953 52.5 Z" fill="#000000"/></svg>