<?xml version="1.0" encoding="utf-8"?>
<!-- Generator: Adobe Illustrator 16.0.0, SVG Export Plug-In . SVG Version: 6.00 Build 0)  -->
<!DOCTYPE svg PUBLIC "-//W3C//DTD SVG 1.1//EN" "http://www.w3.org/Graphics/SVG/1.1/DTD/svg11.dtd">
<svg version="1.1" id="Layer_1" xmlns="http://www.w3.org/2000/svg" xmlns:xlink="http://www.w3.org/1999/xlink" x="0px" y="0px"
	 width="100px" height="100px" viewBox="0 0 100 100" enable-background="new 0 0 100 100" xml:space="preserve">
<g id="Layer_2">
</g>
<g id="Layer_2_1_">
</g>
<g>
	<path d="M27.522,62.604c2.543-0.861,5.228-1.604,7.938-2.198c-1.597-1.489-3.043-3.363-4.315-5.594
		c-0.813,2.121-1.818,4.329-3.044,6.69C27.905,61.878,27.713,62.244,27.522,62.604z"/>
	<path d="M46.169,17.5H-0.5v70h70V40.831L46.169,17.5z M57.596,65.213l-0.107,0.229c-0.265,1.004-1.197,2.471-4.381,2.471
		c-3.076,0-7.584-1.311-11.559-3.353c-6.018,0.646-12.354,1.981-17.097,3.603C19.466,76.691,15.756,80.5,12.444,80.5
		c-0.16,0-0.319-0.011-0.482-0.033l-0.098,0.187l-0.896-0.434c0,0-0.184-0.093-0.187-0.093c-0.022,0-0.102-0.031-0.179-0.072
		l-2.331-1.192L8.5,78.4c-0.224-0.493-0.349-1.174-0.163-2.094c0.502-2.492,3.21-6.311,9.306-9.552l1.118-0.592l0.264,0.415
		c1.301-2.258,2.703-4.897,4.181-7.872c1.986-4.002,3.557-7.942,4.668-11.717c-1.507-5.149-1.905-10.321-1.037-13.557
		c0.449-1.677,1.644-2.719,3.116-2.719l1.029,0.007c1.04,0,1.912,0.386,2.516,1.116c0.783,0.943,0.994,2.299,0.644,4.142
		l-0.079,0.403l-0.027,1.527c-0.048,2.738-0.097,5.568-0.631,8.776c1.573,4.509,3.81,8.113,6.312,10.168
		c0.985,0.786,2.124,1.562,3.38,2.305c1.878-0.2,3.611-0.302,5.154-0.302c4.995,0,8.007,0.919,9.207,2.811
		C58.128,62.72,58.178,63.979,57.596,65.213z"/>
</g>
</svg>
