<?xml version="1.0" encoding="utf-8"?>
<!-- Generator: Adobe Illustrator 16.0.0, SVG Export Plug-In . SVG Version: 6.00 Build 0)  -->
<!DOCTYPE svg PUBLIC "-//W3C//DTD SVG 1.1//EN" "http://www.w3.org/Graphics/SVG/1.1/DTD/svg11.dtd">
<svg version="1.1" id="Layer_1" xmlns="http://www.w3.org/2000/svg" xmlns:xlink="http://www.w3.org/1999/xlink" x="0px" y="0px"
	 width="100px" height="100px" viewBox="0 0 100 100" enable-background="new 0 0 100 100" xml:space="preserve">
<g id="Layer_2">
</g>
<g id="Layer_2_1_">
</g>
<path d="M34.491,74.712c-13.073,0-23.709-10.637-23.709-23.712c0-13.074,10.636-23.711,23.709-23.711
	c5.606,0,10.753,1.971,14.81,5.242l-6.813,5.785l20.552,0.172l1.532-19.25l-6.999,6.139C51.462,19.863,43.37,16.5,34.491,16.5
	C15.438,16.5-0.007,31.947-0.007,51c0,19.052,15.444,34.5,34.498,34.5c14.944,0,27.665-9.504,32.46-22.795l-11.026-1.63
	C52.126,69.119,43.958,74.712,34.491,74.712z"/>
</svg>
