<?xml version="1.0" standalone="no"?>
<!DOCTYPE svg PUBLIC "-//W3C//DTD SVG 1.1//EN" "http://www.w3.org/Graphics/SVG/1.1/DTD/svg11.dtd" >
<svg xmlns="http://www.w3.org/2000/svg">
<metadata></metadata>
<defs>
<font id="helvneue_for_ibmitalic" horiz-adv-x="1323" >
<font-face units-per-em="2048" ascent="1462" descent="-586" />
<missing-glyph horiz-adv-x="487" />
<glyph unicode="&#xfb01;" horiz-adv-x="1017" d="M33 0l196 905h-180l31 154h180q7 25 19 78t19 78.5t21.5 69t28.5 65.5t38.5 51t53.5 43t70 24.5t92 10.5q89 0 146 -17l-29 -147q-52 10 -82 10q-41 0 -72 -12t-48.5 -27.5t-32 -46.5t-20.5 -53t-16 -63.5t-16 -63.5h203l-29 -154h-205l-194 -905h-174zM584 0l221 1059 h174l-221 -1059h-174zM844 1249l45 213h176l-45 -213h-176z" />
<glyph unicode="&#xfb02;" horiz-adv-x="1017" d="M33 0l196 905h-180l31 154h180q7 25 19 78t19 78.5t21.5 69t28.5 65.5t38.5 51t53.5 43t70 24.5t92 10.5q89 0 146 -17l-29 -147q-52 10 -82 10q-41 0 -72 -12t-48.5 -27.5t-32 -46.5t-20.5 -53t-16 -63.5t-16 -63.5h203l-29 -154h-205l-194 -905h-174zM584 0l307 1462 h174l-307 -1462h-174z" />
<glyph horiz-adv-x="1024" />
<glyph horiz-adv-x="1024" />
<glyph horiz-adv-x="682" />
<glyph unicode="&#xd;" horiz-adv-x="0" />
<glyph unicode=" "  horiz-adv-x="487" />
<glyph unicode="&#x09;" horiz-adv-x="487" />
<glyph unicode="&#xa0;" horiz-adv-x="487" />
<glyph unicode="!" horiz-adv-x="573" d="M27 0l49 227h227l-49 -227h-227zM168 375l88 631l96 456h191l-97 -456l-184 -631h-94z" />
<glyph unicode="&#x22;" horiz-adv-x="802" d="M270 934v528h140v-528h-140zM557 934v528h139v-528h-139z" />
<glyph unicode="#" horiz-adv-x="1122" d="M61 422l19 139h199l43 307h-207l18 140h209l59 419h142l-60 -419h250l60 419h141l-60 -419h187l-19 -140h-186l-43 -307h191l-19 -139h-190l-60 -422h-141l59 422h-252l-59 -422h-141l59 422h-199zM422 561h250l43 307h-250z" />
<glyph unicode="$" horiz-adv-x="1056" d="M-31 479h185q-15 -297 221 -346l110 551q-84 25 -141.5 51.5t-111.5 69.5t-81.5 107.5t-27.5 150.5q0 102 44.5 189t117 143.5t168.5 84t196 17.5l27 129h108l-28 -141q156 -43 249 -159.5t82 -295.5h-184q8 241 -178 303l-100 -504l110 -38q312 -87 312 -369 q0 -95 -36 -176.5t-97 -137.5t-138 -93t-161.5 -49.5t-165.5 -0.5l-35 -164h-109l37 174q-194 32 -289 162t-84 342zM307 1083q0 -79 52.5 -133.5t134.5 -81.5l26 -12l98 487q-40 0 -80 -7.5t-82.5 -26t-74.5 -47t-53 -75t-21 -104.5zM479 119q26 -10 65 -5t81.5 14.5t85 35 t76 57t54.5 79.5t21 103q0 36 -6.5 65t-15.5 50t-27.5 39t-33 28.5t-42 22.5t-45 18t-51 16.5t-51.5 16.5z" />
<glyph unicode="%" horiz-adv-x="1841" d="M137 930q0 87 23 175.5t67.5 167.5t119.5 129t169 50q299 0 299 -297q0 -92 -22.5 -180.5t-66.5 -167t-120.5 -126.5t-173.5 -48q-137 0 -216 79t-79 218zM276 938q0 -98 37 -145.5t125 -47.5q63 0 111.5 40.5t75 106t39 134.5t12.5 139q0 174 -150 174 q-63 0 -113.5 -42.5t-79 -106.5t-43 -130t-14.5 -122zM403 -57l891 1542h131l-890 -1542h-132zM1026 272q0 87 23 175.5t67.5 168t119.5 129.5t169 50q299 0 299 -297q0 -72 -13.5 -144t-43.5 -141t-73.5 -121.5t-108.5 -84.5t-144 -32q-137 0 -216 79t-79 218zM1165 281 q0 -98 37 -145.5t125 -47.5q63 0 111.5 40.5t75 106t39 134.5t12.5 139q0 174 -150 174q-63 0 -113.5 -42.5t-79 -106.5t-43 -130t-14.5 -122z" />
<glyph unicode="&#x26;" horiz-adv-x="1294" d="M31 354q0 51 13.5 98t33 83.5t54.5 73t65 61t78 54.5t79.5 47t83.5 44q-28 44 -44 72t-36.5 72.5t-30.5 88.5t-10 91q0 145 102.5 234t262.5 89q65 0 124 -17.5t106.5 -51t75.5 -88t28 -121.5q0 -59 -23 -114t-56.5 -95.5t-85.5 -81t-95 -66.5t-101 -57l230 -377 q46 65 82.5 145.5t46.5 151.5h168q-30 -138 -80.5 -234t-130.5 -190l174 -266h-199l-90 152q-189 -177 -418 -177q-175 0 -291 102.5t-116 276.5zM205 346q0 -95 75 -156t177 -61q92 0 162 32.5t155 104.5l-260 426q-43 -22 -72 -39t-69 -43t-66.5 -52t-51.5 -58.5 t-37.5 -71.5t-12.5 -82zM492 1128q0 -43 15.5 -89t30 -72t46.5 -78q123 70 170 110q88 76 88 158q0 68 -46.5 110t-115.5 42q-82 0 -135 -49t-53 -132z" />
<glyph unicode="'" horiz-adv-x="552" d="M283 934v528h139v-528h-139z" />
<glyph unicode="(" horiz-adv-x="571" d="M80 348q0 136 27 266t71.5 240.5t114.5 225.5t143.5 211t171.5 206h144q-239 -286 -368.5 -586t-129.5 -637q0 -372 106 -680h-114q-74 161 -120 369t-46 385z" />
<glyph unicode=")" horiz-adv-x="575" d="M-217 -406q498 580 498 1221q0 371 -107 682h115q74 -170 120 -375t46 -381q0 -169 -38.5 -325t-115 -299t-164 -263t-211.5 -260h-143z" />
<glyph unicode="*" horiz-adv-x="712" d="M143 1253l52 95l196 -101l45 215h111l-51 -231l225 22l10 -98l-219 -29l100 -204l-100 -48l-96 211l-160 -178l-76 76l158 172z" />
<glyph unicode="+" horiz-adv-x="1224" d="M96 449v139h447v448h139v-448h446v-139h-446v-449h-139v449h-447z" />
<glyph unicode="," horiz-adv-x="485" d="M-125 -301l21 98q16 2 30.5 7.5t25.5 10.5t22 16.5t17.5 17t14.5 22t11.5 22.5t10.5 26.5t8.5 25t8.5 28.5t8 27h-114l49 227h227q-8 -35 -20 -98.5t-21 -103t-24.5 -93.5t-37 -88.5t-53.5 -68.5t-78 -52.5t-106 -23.5z" />
<glyph unicode="-" horiz-adv-x="823" d="M68 487l32 164h594l-32 -164h-594z" />
<glyph unicode="." horiz-adv-x="485" d="M-61 0l49 227h227l-49 -227h-227z" />
<glyph unicode="/" horiz-adv-x="550" d="M-117 -35l606 1532h150l-606 -1532h-150z" />
<glyph unicode="0" horiz-adv-x="1167" d="M72 539q0 73 11 154t35.5 170t60 173t88 160t115.5 132.5t147 90t178 33.5q195 0 293 -132t98 -417q0 -61 -9 -135.5t-31 -164.5t-54.5 -177t-83.5 -169.5t-113.5 -144.5t-148.5 -99.5t-185 -37.5q-89 0 -158.5 29t-114.5 79t-74.5 122.5t-41.5 154t-12 179.5zM256 510 q0 -381 236 -381q67 0 125.5 33.5t100 88t76 124t56 140.5t36.5 140t21 119t6 80q0 15 0.5 51t0.5 57.5t-1.5 58t-5 60t-10.5 55.5t-18 53t-28 43.5t-39 35.5t-52.5 21.5t-67.5 8.5q-89 0 -165.5 -62.5t-124.5 -155.5t-82.5 -204t-49 -205t-14.5 -161z" />
<glyph unicode="1" horiz-adv-x="780" d="M150 1063l28 139q142 0 274 65.5t195 184.5h135l-309 -1452h-184l235 1104q-173 -41 -374 -41z" />
<glyph unicode="2" horiz-adv-x="1062" d="M-23 0q8 105 45.5 193t88.5 147.5t127 118t143.5 97.5t156.5 93.5t148 98.5q94 74 141 141t47 166q0 115 -65 179t-178 64q-141 0 -225.5 -98t-92.5 -242h-184q25 231 158.5 362.5t363.5 131.5q180 0 294 -105t114 -282q0 -64 -18 -123.5t-46.5 -106.5t-73.5 -93.5 t-89 -81t-103 -72.5t-106 -64.5t-107 -61.5t-98 -59q-190 -122 -238 -249h756l-33 -154h-926z" />
<glyph unicode="3" horiz-adv-x="1140" d="M43 449h184q-2 -64 9 -117.5t40 -101t87 -74.5t141 -27q148 0 242 87t94 233q0 54 -14 94.5t-41.5 66t-59 42t-76.5 24t-82 10t-88 2.5l31 139q401 -22 401 271q0 62 -20.5 103.5t-58 61.5t-76.5 27.5t-90 7.5q-259 0 -295 -294h-185q13 93 48 171t93 141.5t147.5 99.5 t201.5 36q198 0 309 -91t111 -271q0 -121 -77 -210.5t-183 -121.5q188 -84 188 -301q0 -62 -19.5 -127.5t-62.5 -129t-102.5 -113.5t-148 -81t-191.5 -31q-222 0 -341.5 118t-115.5 356z" />
<glyph unicode="4" horiz-adv-x="1120" d="M8 340l35 172l860 940h148l-201 -958h192l-30 -154h-193l-74 -340h-174l74 340h-637zM209 494h467l137 657h-4z" />
<glyph unicode="5" horiz-adv-x="1095" d="M12 389h185q0 -260 262 -260q164 0 258 108.5t94 272.5q0 141 -74 217t-215 76q-79 0 -150.5 -38t-107.5 -103h-155l225 765h735l-31 -153h-596l-114 -393l4 -4q103 79 256 79q191 0 299 -123t108 -315q0 -254 -164 -405q-159 -138 -382 -138q-201 0 -319 109t-118 305z " />
<glyph unicode="6" horiz-adv-x="1157" d="M72 465q0 146 33 308.5t90 287.5q82 192 214 291.5t339 99.5q179 0 277 -99t103 -278h-184q-2 112 -56.5 167.5t-168.5 55.5q-57 0 -107 -18t-86 -44.5t-69.5 -71.5t-55 -83.5t-44 -98t-34 -97.5t-28.5 -97h4q49 72 135 109t182 37q179 0 294.5 -122.5t115.5 -303.5 q0 -151 -62 -271.5t-181 -191t-275 -70.5q-111 0 -195.5 37t-136.5 103.5t-78 154.5t-26 195zM256 422q0 -134 68 -213.5t200 -79.5q151 0 234.5 109t83.5 262q0 127 -70 203.5t-197 76.5q-150 0 -234.5 -102.5t-84.5 -255.5z" />
<glyph unicode="7" horiz-adv-x="931" d="M78 0q221 699 766 1274h-756l35 153h936l-25 -145q-161 -150 -313.5 -373.5t-264 -455.5t-180.5 -453h-198z" />
<glyph unicode="8" horiz-adv-x="1128" d="M41 387q0 162 93 268t255 136v4q-79 36 -129.5 109.5t-50.5 158.5q0 122 61.5 212t160.5 133.5t220 43.5q108 0 200 -41.5t150 -125.5t58 -193q0 -121 -71.5 -210.5t-188.5 -115.5v-4q102 -43 153.5 -134t51.5 -208q0 -130 -69 -233t-179 -157.5t-238 -54.5 q-97 0 -182 25.5t-151.5 74.5t-105 129.5t-38.5 182.5zM225 389q0 -127 76.5 -193.5t204.5 -66.5q139 0 226 80t87 217q0 119 -70.5 190.5t-197.5 71.5q-147 0 -236.5 -77.5t-89.5 -221.5zM393 1057q0 -110 67.5 -162.5t178.5 -52.5q104 0 169.5 65.5t65.5 169.5 q0 109 -60.5 165t-170.5 56q-111 0 -180.5 -66t-69.5 -175z" />
<glyph unicode="9" horiz-adv-x="1185" d="M61 346h185q0 -217 211 -217q57 0 107.5 17.5t88 43.5t72 70t57 82t46 95.5t36.5 95.5t31 96l-4 4q-48 -71 -135.5 -107.5t-184.5 -36.5q-179 0 -293 123t-114 303q0 148 61.5 269.5t178 194.5t266.5 73q222 0 334 -130.5t112 -356.5q0 -143 -32 -300.5t-89 -287.5 q-44 -99 -90.5 -168.5t-109.5 -124.5t-146 -82t-190 -27q-188 0 -295 94t-103 277zM348 924q0 -128 69 -204.5t197 -76.5q149 0 233.5 103t84.5 255q0 139 -71.5 218t-209.5 79q-72 0 -131.5 -33.5t-96 -88.5t-56 -120t-19.5 -132z" />
<glyph unicode=":" horiz-adv-x="565" d="M20 0l46 227h231l-47 -227h-230zM193 831l47 228h229l-47 -228h-229z" />
<glyph unicode=";" horiz-adv-x="559" d="M-49 -301l20 98q30 4 53.5 17t38 29.5t26.5 41t19 46t16 51.5q3 12 5 18h-115l49 227h228q-8 -35 -20 -98.5t-21 -103t-24.5 -93.5t-37 -88.5t-53.5 -68.5t-78 -52.5t-106 -23.5zM186 831l50 228h227l-49 -228h-228z" />
<glyph unicode="&#x3c;" horiz-adv-x="1222" d="M90 455v127l1040 471v-140l-870 -395l870 -395v-139z" />
<glyph unicode="=" horiz-adv-x="1222" d="M96 242v139h1032v-139h-1032zM96 655v140h1032v-140h-1032z" />
<glyph unicode="&#x3e;" horiz-adv-x="1222" d="M90 -16v139l871 395l-871 395v140l1040 -471v-127z" />
<glyph unicode="?" horiz-adv-x="1110" d="M166 999q12 208 150.5 344t345.5 136q79 0 153 -21t135 -61t98 -106.5t37 -149.5q0 -86 -25 -156t-66 -118.5t-91 -89.5t-103 -78t-99.5 -75t-82.5 -90t-49 -114l-8 -45h-170q28 169 103 264q57 77 213 184q194 131 194 287q0 107 -63.5 161t-171.5 54q-141 0 -227 -92.5 t-99 -233.5h-174zM287 0l49 227h227l-49 -227h-227z" />
<glyph unicode="@" horiz-adv-x="1630" d="M86 737q0 155 60.5 295.5t163 242.5t243 162t293.5 60q189 0 347.5 -80t253.5 -225.5t95 -325.5q0 -102 -31.5 -197t-82.5 -165.5t-114 -124t-128.5 -80.5t-122.5 -27q-56 0 -91.5 34t-39.5 100h-6q-121 -138 -254 -138q-129 0 -211 93.5t-82 230.5q0 107 35 211 t96.5 186.5t153 133.5t196.5 51q166 0 230 -168l47 129h129l-172 -582q-23 -81 -23 -104q0 -64 49 -64q61 0 127.5 71t111 182.5t44.5 217.5q0 118 -46.5 218.5t-123.5 167.5t-177 104.5t-208 37.5q-129 0 -245 -52.5t-198.5 -141.5t-131 -210t-48.5 -253q0 -135 51 -256 t136.5 -206.5t202 -136t243.5 -50.5q145 0 282.5 67.5t225.5 180.5h129q-100 -168 -271.5 -264.5t-369.5 -96.5q-159 0 -301.5 60t-245 163t-162 246t-59.5 303zM532 606q0 -86 49.5 -142t127.5 -56q84 0 159.5 74t116.5 174.5t41 187.5q0 74 -51 132t-115 58 q-68 0 -131 -42t-105 -105.5t-67 -138.5t-25 -142z" />
<glyph unicode="A" d="M-176 0l881 1462h213l264 -1462h-201l-68 440h-616l-256 -440h-217zM385 604h504l-109 686h-4z" />
<glyph unicode="B" horiz-adv-x="1359" d="M-6 0l305 1462h588q407 0 407 -350q0 -126 -76.5 -228.5t-201.5 -123.5v-4q102 -30 160.5 -109t58.5 -194q0 -136 -69.5 -240t-186.5 -158.5t-262 -54.5h-723zM215 164h471q25 0 50 2t62 9t68 18.5t64.5 33.5t56.5 51.5t38 74.5t15 100q0 54 -16.5 94t-43.5 63t-67.5 37 t-81 18.5t-92.5 4.5h-417zM354 834h434q154 0 233 70.5t79 207.5q0 49 -19 85t-46.5 55t-69 30t-75 13.5t-77.5 2.5h-360z" />
<glyph unicode="C" horiz-adv-x="1443" d="M55 606q0 142 35 274t104 244t164.5 195.5t224.5 130.5t275 47q119 0 220 -32t176.5 -93.5t118 -159t42.5 -221.5h-194q0 167 -99 254.5t-264 87.5q-119 0 -219.5 -42t-171 -112.5t-120.5 -164.5t-73.5 -197.5t-23.5 -210.5q0 -221 109 -349t323 -128q177 0 291 95 t162 270h194q-57 -252 -220 -390.5t-427 -138.5q-298 0 -462.5 169t-164.5 472z" />
<glyph unicode="D" horiz-adv-x="1411" d="M-6 0l309 1462h512q268 0 410.5 -148t142.5 -411q0 -272 -102.5 -477.5t-286.5 -315.5t-424 -110h-561zM219 164h338q121 0 223.5 41t174 110.5t121.5 161.5t74 195t24 211q0 415 -404 415h-311z" />
<glyph unicode="E" horiz-adv-x="1249" d="M-6 0l309 1462h1008l-33 -164h-813l-98 -464h757l-32 -164h-760l-107 -506h824l-37 -164h-1018z" />
<glyph unicode="F" horiz-adv-x="1142" d="M-6 0l305 1462h963l-35 -164h-768l-97 -464h676l-34 -164h-676l-140 -670h-194z" />
<glyph unicode="G" horiz-adv-x="1505" d="M53 606q0 142 35 274t104 244t164.5 195.5t224.5 130.5t275 47q124 0 229 -29.5t186 -87.5t127 -153.5t46 -218.5h-195q0 81 -31 144.5t-85.5 102t-124.5 58.5t-152 20q-119 0 -219.5 -42t-171 -112.5t-120.5 -164.5t-73.5 -197.5t-23.5 -210.5q0 -221 109 -349t323 -128 q114 0 203 33.5t151.5 98.5t104 149.5t69.5 195.5h-467l33 164h637l-160 -770h-123l-12 145q-82 -89 -197 -134.5t-239 -45.5q-298 0 -462.5 169t-164.5 472z" />
<glyph unicode="H" horiz-adv-x="1435" d="M-6 0l307 1462h197l-133 -628h765l132 628h194l-307 -1462h-195l142 670h-766l-142 -670h-194z" />
<glyph unicode="I" horiz-adv-x="475" d="M-6 0l307 1462h195l-308 -1462h-194z" />
<glyph unicode="J" horiz-adv-x="1042" d="M-41 276q0 100 18 203h197q-17 -85 -20 -151q0 -199 215 -199q57 0 101.5 20.5t72 49.5t49.5 78t32.5 87.5t22.5 96.5l213 1001h193l-232 -1102q-22 -99 -54 -168.5t-84.5 -122.5t-131 -78.5t-186.5 -25.5q-182 0 -294 81.5t-112 229.5z" />
<glyph unicode="K" horiz-adv-x="1316" d="M-6 0l309 1462h195l-154 -721l4 -4l828 725h260l-705 -602l469 -860h-215l-399 741l-293 -247l-105 -494h-194z" />
<glyph unicode="L" horiz-adv-x="1150" d="M-6 0l307 1462h195l-271 -1298h772l-34 -164h-969z" />
<glyph unicode="M" horiz-adv-x="1742" d="M-6 0l307 1462h270l195 -1257h4l723 1257h270l-309 -1462h-186l299 1280h-4l-746 -1280h-186l-191 1280h-4l-256 -1280h-186z" />
<glyph unicode="N" horiz-adv-x="1449" d="M-6 0l309 1462h209l522 -1210h4l244 1210h188l-309 -1462h-209l-518 1202h-4l-248 -1202h-188z" />
<glyph unicode="O" horiz-adv-x="1519" d="M55 606q0 142 35 274t104 244t164.5 195.5t224.5 130.5t275 47q185 0 325 -86.5t212.5 -232.5t72.5 -328q0 -138 -34.5 -268.5t-102.5 -241.5t-161.5 -195t-219.5 -132t-268 -48q-298 0 -462.5 169t-164.5 472zM250 606q0 -221 109 -349t323 -128q112 0 209.5 41.5 t166.5 111.5t118.5 163t73.5 196t24 209q0 137 -47 245t-142.5 173t-226.5 65q-119 0 -219.5 -42t-171 -112.5t-120.5 -164.5t-73.5 -197.5t-23.5 -210.5z" />
<glyph unicode="P" horiz-adv-x="1284" d="M-6 0l305 1462h575q212 0 323.5 -101.5t111.5 -301.5q0 -59 -16 -118.5t-57 -122t-102 -110.5t-160.5 -79t-223.5 -31h-435l-127 -598h-194zM350 762h441q154 0 238.5 81.5t84.5 215.5q0 126 -66.5 182.5t-173.5 56.5h-411z" />
<glyph unicode="Q" horiz-adv-x="1529" d="M53 606q0 142 35 274t104 244t164.5 195.5t224.5 130.5t275 47q185 0 325 -86.5t212.5 -232.5t72.5 -328q0 -213 -81.5 -402.5t-229.5 -312.5l178 -172l-110 -115l-203 197q-154 -80 -340 -80q-298 0 -462.5 169t-164.5 472zM248 606q0 -221 109 -349t323 -128 q119 0 209 43l-133 127l110 117l162 -158q118 97 181 258t63 334q0 137 -47 245t-142.5 173t-226.5 65q-119 0 -219.5 -42t-171 -112.5t-120.5 -164.5t-73.5 -197.5t-23.5 -210.5z" />
<glyph unicode="R" horiz-adv-x="1345" d="M-6 0l309 1462h563q78 0 145.5 -10.5t131 -37.5t108 -68t71 -106.5t26.5 -149.5q0 -148 -93 -261t-237 -133v-4q90 -28 126 -114q27 -63 26 -144q0 -29 -3 -59q-3 -34 -12 -95.5t-13 -99.5q-2 -17 -3 -38q-1 -24 3 -52q6 -50 27 -90h-202q-18 54 -18 127q0 81 22 186 q12 59 12 105q0 14 -1 28q-5 54 -16 88t-36 54t-48 27.5t-53 9.5h-77h-433l-131 -625h-194zM354 788h439q87 0 154 20.5t105 51t62 71.5t31.5 75.5t7.5 70.5q0 221 -287 221h-403z" />
<glyph unicode="S" horiz-adv-x="1239" d="M-4 479h194q-1 -13 0 -25q0 -81 22 -141q26 -69 80 -108.5t124.5 -57.5t163.5 -18q71 0 134.5 16.5t116.5 49.5t84 88.5t31 126.5q0 54 -19.5 94.5t-59 68t-80.5 44.5t-101 34l-199 54q-327 92 -327 368q0 82 30.5 152.5t82 119.5t120 84t144.5 51.5t155 16.5 q111 0 206 -28t170 -83q76 -54 118 -146q38 -83 37 -189v-21h-195v14q0 154 -84 220q-88 70 -252 69q-56 0 -113 -13.5t-108.5 -41t-84 -75.5t-32.5 -109q0 -97 61.5 -149.5t176.5 -86.5l196 -53q60 -16 106.5 -34.5t95 -50.5t80 -72t51.5 -101t20 -137q0 -88 -34 -162.5 t-91 -125.5t-131.5 -87t-154 -53t-159.5 -17q-278 1 -436 129q-141 115 -141 331q0 26 2 54z" />
<glyph unicode="T" horiz-adv-x="1247" d="M156 1298l34 164h1180l-37 -164h-491l-275 -1298h-194l274 1298h-491z" />
<glyph unicode="U" horiz-adv-x="1386" d="M82 602l182 860h195l-193 -909q-17 -75 -17 -136q-1 -111 57 -181q90 -106 306 -107q68 0 123 11.5t95.5 30.5t73.5 52.5t55 67t41.5 85.5t31.5 97.5t27 112.5l184 876h195l-183 -876q-49 -227 -73 -281q-47 -116 -136 -194t-197.5 -112t-236.5 -34q-323 0 -458 164 q-92 112 -92 291q0 84 20 182z" />
<glyph unicode="V" horiz-adv-x="1206" d="M123 1462h199l149 -1272h4l694 1272h207l-825 -1462h-219z" />
<glyph unicode="W" horiz-adv-x="1845" d="M139 1462h193l51 -1231h4l561 1231h221l82 -1235h4l533 1235h201l-672 -1462h-203l-92 1262h-4l-578 -1262h-209z" />
<glyph unicode="X" horiz-adv-x="1120" d="M-180 0l635 764l-353 698h209l271 -577l469 577h219l-602 -725l370 -737h-200l-295 618l-500 -618h-223z" />
<glyph unicode="Y" horiz-adv-x="1243" d="M129 1462h207l299 -708l555 708h225l-708 -874l-127 -588h-191l125 588z" />
<glyph unicode="Z" horiz-adv-x="1208" d="M-119 0l35 162l1098 1136h-838l41 164h1067l-35 -166l-1106 -1132h934l-35 -164h-1161z" />
<glyph unicode="[" horiz-adv-x="534" d="M-66 -406l394 1903h387l-29 -133h-221l-336 -1636h221l-28 -134h-388z" />
<glyph unicode="\" horiz-adv-x="550" d="M-86 1497h149l607 -1532h-150z" />
<glyph unicode="]" horiz-adv-x="534" d="M-178 -406l28 134h222l336 1636h-222l29 133h387l-393 -1903h-387z" />
<glyph unicode="^" horiz-adv-x="1218" d="M96 541l447 886h131l446 -886h-143l-371 737l-364 -737h-146z" />
<glyph unicode="_" horiz-adv-x="1019" d="M-2 -154h1024v-102h-1024v102z" />
<glyph unicode="`" horiz-adv-x="391" d="M106 1499h207l138 -293h-138z" />
<glyph unicode="a" horiz-adv-x="1040" d="M-43 274q0 48 10.5 89.5t27.5 72t44 55.5t55.5 42.5t66.5 31.5t72.5 22.5t78.5 15t79 10.5t79 8q15 1 22 2q42 4 65.5 6.5t54 7t47 9.5t36 14t29 20.5t18.5 27t12.5 36.5t3.5 47q0 40 -19.5 69t-53 43.5t-68 20.5t-72.5 6q-70 0 -128 -18.5t-102 -63t-55 -109.5h-174 q16 114 84.5 193.5t164 115t210.5 35.5q387 0 387 -270q0 -58 -33 -192l-68 -289q-2 -13 -10 -44.5t-13 -58.5t-5 -49q0 -65 51 -65q18 0 55 14l-26 -129q-48 -25 -107 -25q-72 1 -108 41q-30 33 -30 85q0 11 1 24l-4 4q-58 -77 -141 -115.5t-213 -38.5q-144 0 -234 73 t-90 226zM131 276q0 -70 56 -108.5t135 -38.5q207 0 296 139q20 28 35.5 65t22.5 62t18.5 76t16.5 70h-4q-38 -27 -114 -41t-151 -21t-147 -23t-117.5 -60.5t-46.5 -119.5z" />
<glyph unicode="b" horiz-adv-x="1181" d="M-27 0l310 1462h174l-113 -534l4 -4q127 159 324 159q206 0 310.5 -123t104.5 -333q0 -100 -23.5 -194.5t-70.5 -177.5t-113 -145.5t-157 -98.5t-195 -36q-138 0 -237.5 68t-118.5 154h-4l-39 -197h-156zM240 393q0 -123 78.5 -193.5t209.5 -70.5q90 0 165.5 48.5 t122 124t72 161t25.5 164.5q0 134 -62 218.5t-179 84.5q-88 0 -161.5 -34.5t-122.5 -90t-83.5 -127t-49.5 -144t-15 -141.5z" />
<glyph unicode="c" horiz-adv-x="1067" d="M27 432q0 128 39 244t111 207.5t184.5 145.5t250.5 54q185 0 288.5 -89t109.5 -271h-174q0 97 -60 152t-164 55q-78 0 -145.5 -29.5t-115.5 -79t-82.5 -114t-51 -135t-16.5 -140.5q0 -64 13.5 -117t43 -95.5t82 -66.5t123.5 -24q110 0 190.5 58.5t118.5 158.5h174 q-47 -178 -172.5 -274.5t-310.5 -96.5q-214 0 -325 119.5t-111 337.5z" />
<glyph unicode="d" horiz-adv-x="1198" d="M27 410q0 96 25 192t75.5 182.5t119.5 153t164 106t203 39.5q72 0 135 -16t119 -59.5t76 -110.5h4l113 565h172l-309 -1462h-164l37 152h-4q-75 -99 -157.5 -138t-193.5 -39q-198 0 -306.5 119t-108.5 316zM201 410q0 -134 67 -207.5t205 -73.5q94 0 175 51t131.5 129.5 t79 169.5t28.5 176q0 122 -70 198.5t-196 76.5q-80 0 -149.5 -31.5t-118 -83.5t-83.5 -120t-52 -140.5t-17 -144.5z" />
<glyph unicode="e" horiz-adv-x="1124" d="M27 401q0 148 44 277t118.5 217t173.5 138t208 50q449 0 449 -469q0 -54 -16 -137h-797q-6 -46 -6 -92q0 -118 81 -187t193 -69q229 0 305 203h174q-40 -172 -170.5 -264.5t-308.5 -92.5q-101 0 -181 27t-129 69.5t-81 100.5t-44.5 114t-12.5 115zM231 631h615q1 15 1 29 q0 44 -9 82q-12 52 -39.5 95t-79 68t-121.5 25q-145 0 -236 -82.5t-131 -216.5z" />
<glyph unicode="f" horiz-adv-x="540" d="M14 0l197 905h-180l30 154h181q7 25 19 78t19 78.5t21.5 69t28.5 65.5t38.5 51t53.5 43t70 24.5t92 10.5q88 0 145 -17l-29 -147q-52 10 -82 10q-31 0 -56 -6.5t-42.5 -16.5t-31 -27.5t-22 -34t-16.5 -41t-12.5 -44t-11 -48.5t-12.5 -48h202l-28 -154h-205l-195 -905 h-174z" />
<glyph unicode="g" horiz-adv-x="1155" d="M-66 -102h175q12 -174 266 -174q44 0 82 8t67.5 20.5t56 35.5t45.5 43.5t36.5 54.5t29 59.5t24.5 66.5t20 67.5t18 70.5l-4 4q-107 -162 -330 -162q-191 0 -294 120.5t-103 317.5q0 118 38.5 233.5t107 209.5t174.5 152t230 58q120 0 216 -59.5t120 -155.5v-4h4l33 195 h164l-190 -905q-47 -206 -82 -289q-66 -155 -186 -225t-296 -70q-84 0 -156.5 18.5t-132.5 56.5t-95.5 103t-37.5 150zM197 430q0 -121 68 -203t192 -82q94 0 170 49t121.5 126t69.5 163.5t24 169.5q0 128 -69 202.5t-202 74.5q-70 0 -132 -33t-105.5 -86.5t-75 -120 t-46.5 -133.5t-15 -127z" />
<glyph unicode="h" horiz-adv-x="1120" d="M-27 0l310 1462h174l-125 -559l4 -4q65 89 164.5 136.5t212.5 47.5q150 0 222.5 -66t72.5 -206q0 -66 -31 -207l-129 -604h-174l135 618q2 13 9 49.5t11.5 67.5t4.5 47q0 72 -51.5 110t-133.5 38q-70 0 -140.5 -34t-121.5 -89q-74 -65 -117 -221l-123 -586h-174z" />
<glyph unicode="i" horiz-adv-x="413" d="M-27 0l222 1059h174l-222 -1059h-174zM233 1249l46 213h176l-45 -213h-177z" />
<glyph unicode="j" horiz-adv-x="407" d="M-270 -393l30 153q46 -12 68 -12q54 0 77.5 39.5t49.5 159.5l231 1112h174l-266 -1258q-49 -207 -250 -207q-63 0 -114 13zM225 1249l45 213h176l-45 -213h-176z" />
<glyph unicode="k" horiz-adv-x="960" d="M-27 0l310 1462h172l-183 -860l4 -4l533 461h227l-461 -391l263 -668h-195l-207 563l-209 -186l-80 -377h-174z" />
<glyph unicode="l" horiz-adv-x="413" d="M-27 0l308 1462h174l-308 -1462h-174z" />
<glyph unicode="m" horiz-adv-x="1738" d="M-27 0l226 1059h161l-38 -158l4 -4q69 87 164.5 136.5t203.5 49.5q225 0 267 -190q62 87 159.5 138.5t202.5 51.5q125 0 210 -58.5t85 -178.5q0 -80 -31 -211l-133 -635h-174l147 672q17 70 17 114q0 61 -46.5 102.5t-115.5 41.5q-70 0 -144.5 -43t-121.5 -103 q-65 -72 -98 -237l-117 -547h-174l127 604q32 146 32 187q0 67 -38 103t-109 36q-68 0 -140 -39t-120 -96q-51 -49 -72 -98.5t-41 -141.5l-119 -555h-174z" />
<glyph unicode="n" horiz-adv-x="1120" d="M-27 0l224 1059h168l-33 -160h4q65 89 164.5 136.5t212.5 47.5q150 0 222.5 -66t72.5 -206q0 -66 -31 -207l-129 -604h-174l135 618q2 13 9 49.5t11.5 67.5t4.5 47q0 72 -51.5 110t-133.5 38q-70 0 -140.5 -34t-121.5 -89q-74 -65 -117 -221l-123 -586h-174z" />
<glyph unicode="o" horiz-adv-x="1163" d="M29 418q0 104 25.5 202t76.5 181.5t121 146.5t165.5 99t203.5 36q214 0 327 -112t113 -326q0 -104 -25 -202t-75 -182.5t-119 -148.5t-164 -100.5t-203 -36.5q-206 0 -326 123.5t-120 319.5zM203 420q0 -133 75.5 -212t215.5 -79q91 0 168 49t124.5 125t74 162t26.5 166 q0 132 -71.5 215.5t-207.5 83.5q-96 0 -175.5 -48.5t-128 -125t-75 -164t-26.5 -172.5z" />
<glyph unicode="p" horiz-adv-x="1198" d="M-113 -406l310 1465h163l-36 -152h4q75 99 157 137.5t193 38.5q198 0 307 -118.5t109 -315.5q0 -96 -25 -192.5t-75.5 -183t-119.5 -153t-164.5 -106t-203.5 -39.5q-51 0 -100.5 10t-97 30.5t-83 58.5t-49.5 88h-4l-113 -568h-172zM233 403q0 -122 70.5 -198t196.5 -76 q80 0 149.5 31.5t118 83.5t83.5 120t52 140.5t17 144.5q0 134 -67.5 207.5t-205.5 73.5q-94 0 -175 -51t-131.5 -130t-79 -170t-28.5 -176z" />
<glyph unicode="q" horiz-adv-x="1189" d="M31 434q0 99 24 193.5t71.5 177t113.5 144.5t156 98t192 36q267 0 342 -192h4l35 168h176l-309 -1465h-177l115 541h-4q-62 -76 -149.5 -118t-184.5 -42q-199 0 -302 126.5t-103 332.5zM205 434q0 -134 67.5 -219.5t202.5 -85.5q99 0 179.5 52.5t127.5 135t72 174 t25 179.5q0 122 -72 191t-201 69q-92 0 -170 -46.5t-127 -120t-76.5 -159.5t-27.5 -170z" />
<glyph unicode="r" horiz-adv-x="671" d="M-27 0l222 1059h163l-51 -228h4q143 252 385 252q2 1 31 3q10 1 16 0q13 0 15 -3l-41 -186q-8 2 -27 2h-24q-64 0 -105 -10q-135 -35 -225 -172q-54 -78 -88 -248l-101 -469h-174z" />
<glyph unicode="s" horiz-adv-x="929" d="M-66 334h175q-1 -9 -1 -18q0 -46 18 -80q21 -42 60.5 -64t87 -32.5t105.5 -10.5q46 0 87 8.5t77 26.5t57 51t21 76q0 25 -12 47t-28.5 37.5t-48.5 32.5t-56 27.5t-67 28t-67 28.5q-49 19 -84 35.5t-75 42.5t-64.5 54t-41 68t-16.5 86q0 94 58 165.5t146.5 105.5t189.5 34 q78 0 146 -18t126.5 -56t92.5 -105t34 -156h-174v10q0 80 -58 124q-62 48 -161 48q-59 0 -106.5 -11t-83 -42.5t-35.5 -81.5q0 -32 19.5 -59t59.5 -49.5t76.5 -38.5t95.5 -38q18 -7 27 -10q51 -22 83.5 -38.5t74 -44.5t65.5 -56t41 -69t17 -89q0 -68 -25.5 -124.5t-68 -93.5 t-99 -62.5t-116.5 -36.5t-124 -11q-428 0 -428 359z" />
<glyph unicode="t" horiz-adv-x="634" d="M37 905l33 154h178l65 313h174l-65 -313h211l-33 -154h-211l-131 -622q0 -4 -3 -29.5t-3 -40.5q0 -72 104 -72q38 0 101 19l-31 -160q-62 -12 -123 -12q-237 0 -237 172q0 33 10 88l139 657h-178z" />
<glyph unicode="u" horiz-adv-x="1101" d="M20 248q0 66 31 207l129 604h174l-135 -619q-24 -94 -24 -164q0 -72 51 -109.5t133 -37.5q140 0 244 102t135 242l123 586h174l-224 -1059h-167l32 160h-4q-65 -89 -165 -137t-212 -48q-150 0 -222.5 66.5t-72.5 206.5z" />
<glyph unicode="v" horiz-adv-x="921" d="M63 1059h185l90 -881h4l459 881h188l-588 -1059h-186z" />
<glyph unicode="w" horiz-adv-x="1482" d="M63 1059h185l65 -842h4l381 842h197l51 -842h4l402 842h188l-547 -1059h-184l-53 823h-4l-379 -823h-185z" />
<glyph unicode="x" horiz-adv-x="948" d="M-162 0l496 561l-236 498h201l160 -385l315 385h211l-455 -512l271 -547h-199l-192 434l-361 -434h-211z" />
<glyph unicode="y" horiz-adv-x="935" d="M-156 -403l31 141q49 -29 100 -29q56 0 92.5 29t71.5 86l107 176l-187 1059h187l123 -842h4l444 842h191l-701 -1239q-28 -44 -44 -67t-43 -57.5t-50 -52.5t-55 -37.5t-69 -27.5t-81 -8q-65 0 -121 27z" />
<glyph unicode="z" horiz-adv-x="923" d="M-109 0l25 131l737 774h-569l31 154h805l-27 -125l-743 -780h632l-28 -154h-863z" />
<glyph unicode="{" horiz-adv-x="702" d="M57 475l31 139q68 0 131.5 67.5t87.5 174.5l78 373q23 122 107.5 195t169.5 73h143l-27 -123h-102q-54 0 -87.5 -51.5t-47.5 -128.5l-76 -371q-15 -67 -47 -120.5t-69 -84t-67 -47.5t-53 -22l-2 -6q18 -3 38 -13.5t42.5 -32t37.5 -61t15 -90.5q0 -16 -12 -78l-76 -370 q-6 -35 -6 -70q0 -54 14 -82.5t54 -28.5h102l-26 -123h-144q-69 0 -121.5 49.5t-52.5 135.5q0 43 8 84l78 373q8 41 8 83q0 70 -37 113t-92 43z" />
<glyph unicode="|" horiz-adv-x="446" d="M154 -438v2048h139v-2048h-139z" />
<glyph unicode="}" horiz-adv-x="704" d="M-158 -406l27 123h102q54 0 87.5 52t47.5 129l76 370q14 66 46 120.5t70 85.5t68 47.5t52 21.5l2 6q-18 3 -38 13.5t-42.5 31.5t-37.5 60.5t-15 90.5q0 16 12 78l76 371q6 34 6 70q0 54 -14 82t-54 28h-102l27 123h143q69 0 121.5 -49.5t52.5 -134.5q0 -43 -8 -84 l-78 -373q-8 -41 -8 -84q0 -72 37 -115t92 -43l-31 -139q-67 0 -131 -67.5t-88 -171.5l-78 -373q-23 -122 -107 -195.5t-169 -73.5h-144z" />
<glyph unicode="~" horiz-adv-x="1220" d="M137 469q86 176 256 176q79 0 228 -65q21 -9 70.5 -34t81 -36.5t56.5 -11.5q14 0 26.5 2.5t25 9.5t21.5 12t21 17.5t18.5 18.5t19 23t16.5 23l17 25.5t16 23.5l73 -102q-26 -39 -48 -65.5t-53.5 -54.5t-70.5 -42t-84 -14q-92 0 -209 67q-42 25 -70.5 39t-74 27.5 t-90.5 13.5q-60 0 -100 -43t-72 -112z" />
<glyph unicode="&#xa1;" horiz-adv-x="575" d="M-29 -406l97 457l184 631h94l-88 -631l-96 -457h-191zM211 831l49 228h227l-49 -228h-227z" />
<glyph unicode="&#xa2;" horiz-adv-x="1114" d="M53 432q0 100 26.5 196.5t78 178t121.5 143.5t163 97.5t197 35.5l39 187h80l-41 -191q152 -19 235.5 -107.5t83.5 -248.5h-174q0 91 -46.5 146t-129.5 67l-172 -817q102 7 175.5 67t109.5 160h174q-47 -179 -174 -275t-316 -96l-45 -213h-80l48 220q-175 23 -264 139 t-89 311zM227 432q0 -276 209 -307l172 815q-89 -6 -163.5 -53.5t-120.5 -120t-71.5 -159.5t-25.5 -175z" />
<glyph unicode="&#xa3;" horiz-adv-x="1103" d="M-14 129q133 104 194.5 186t61.5 191q0 81 -21 164h-176l21 92h127q-48 175 -48 260q0 132 70 242.5t184 171.5t242 61q148 0 254 -68t154.5 -181t40.5 -255h-185q8 88 -16.5 166.5t-85.5 131t-148 52.5q-141 0 -233 -97t-92 -245q0 -124 47 -239h315l-20 -92h-266 q20 -56 20 -140q0 -96 -83 -208.5t-191 -176.5v-4q45 24 110.5 40t118.5 16q59 0 172 -33q13 -4 40 -14t43.5 -15.5t42 -10.5t48.5 -5q17 0 36.5 5t32.5 10t35 18t29.5 18.5t32 23t27.5 19.5l65 -147q-60 -41 -138 -71t-140 -30q-80 0 -213 49q-115 40 -164 46q-22 3 -43 3 q-42 0 -89.5 -15.5t-73 -28.5t-79.5 -44z" />
<glyph unicode="&#xa4;" horiz-adv-x="1140" d="M51 297l113 119q-107 129 -107 299q0 192 111 303l-117 119l101 100l114 -115q60 50 141.5 77.5t167.5 27.5q81 0 159 -27.5t134 -75.5l117 115l102 -104l-112 -113q106 -112 106 -303q0 -183 -106 -307l112 -115l-96 -96l-114 118q-121 -112 -304 -112q-189 0 -311 110 l-112 -118zM231 715q0 -149 99.5 -252t242.5 -103q141 0 237.5 105t96.5 254q0 144 -96.5 249t-235.5 105q-146 0 -245 -103t-99 -255z" />
<glyph unicode="&#xa5;" horiz-adv-x="1132" d="M121 356l29 123h294l17 107l-17 47h-266l29 123h199l-226 706h201l207 -704l489 704h221l-510 -706h197l-27 -123h-264l-49 -68l-18 -86h301l-29 -123h-299l-74 -356h-182l74 356h-297z" />
<glyph unicode="&#xa6;" horiz-adv-x="446" d="M154 -182v512h139v-512h-139zM154 842v512h139v-512h-139z" />
<glyph unicode="&#xa7;" horiz-adv-x="1153" d="M14 -18h164q0 -109 57.5 -171.5t167.5 -62.5q83 0 139 44.5t56 119.5q0 49 -30 105t-70 102l-275 297q-54 60 -91.5 134.5t-37.5 143.5q0 257 285 322q-45 64 -45 162q0 101 54 175.5t137 109t182 34.5q166 0 268 -97.5t90 -262.5h-164q2 96 -48 151t-151 55 q-80 0 -137 -44.5t-57 -112.5q0 -54 24.5 -97.5t71.5 -93.5q19 -20 83 -83.5t93 -93.5t74.5 -82.5t79.5 -98.5q37 -50 54.5 -95t17.5 -102q0 -135 -79.5 -224.5t-213.5 -106.5q27 -29 43 -83t16 -100q0 -84 -32.5 -148t-89 -102.5t-125.5 -59t-150 -22.5q-170 4 -265.5 111 t-95.5 277zM258 719q0 -94 121 -219l143 -154q55 -55 121 -133q199 43 199 205q0 43 -32.5 97t-83.5 107.5t-103.5 103.5t-103.5 101t-73 84q-19 0 -65.5 -24t-61.5 -39q-61 -52 -61 -129z" />
<glyph unicode="&#xa8;" horiz-adv-x="413" d="M59 1233l43 213h183l-43 -213h-183zM393 1233l43 213h182l-43 -213h-182z" />
<glyph unicode="&#xa9;" horiz-adv-x="1634" d="M45 735q0 211 105 387t282 275.5t385 99.5q207 0 383 -99.5t280.5 -275.5t104.5 -387q0 -162 -61.5 -305.5t-165.5 -245t-245 -160.5t-296 -59q-156 0 -297.5 59t-246 160.5t-166.5 245t-62 305.5zM184 735q0 -138 48.5 -260.5t132.5 -209t201.5 -137t250.5 -50.5 q175 0 319 85.5t227 236.5t83 335q0 180 -83 329t-227.5 234.5t-318.5 85.5q-177 0 -322.5 -85.5t-228 -234.5t-82.5 -329zM387 731q0 208 121 337.5t328 129.5q152 0 256.5 -81t128.5 -230h-129q-18 88 -85.5 143t-168.5 55q-147 0 -229.5 -98.5t-82.5 -251.5 q0 -96 37 -177.5t110.5 -132t168.5 -50.5q101 0 168.5 57.5t81.5 151.5h131q-32 -148 -135.5 -235t-245.5 -87q-206 0 -330.5 132t-124.5 337z" />
<glyph unicode="&#xaa;" horiz-adv-x="630" d="M47 969q0 51 24.5 89t66.5 58.5t84 31.5t91 15t79 7t68 11t59.5 19.5t36.5 31t15 46.5q0 72 -137 72q-156 0 -178 -109h-123q13 101 97.5 156t203.5 55q55 0 111.5 -13.5t102.5 -49t46 -86.5q0 -14 -3.5 -33t-9 -42t-7.5 -34l-41 -170q-3 -11 -10.5 -37.5t-12 -47 t-4.5 -34.5q0 -24 35 -24q16 0 31 6l-17 -94q-34 -15 -69 -15q-46 0 -70.5 26t-19.5 68h-7q-33 -43 -86 -68.5t-112 -25.5q-117 0 -180.5 44t-63.5 147zM170 956q0 -37 34 -56t87 -19q109 6 157 38.5t68 102.5l25 92h-4q-22 -19 -70 -27.5t-97 -12t-96 -12t-76 -34.5 t-28 -72z" />
<glyph unicode="&#xab;" horiz-adv-x="964" d="M82 512l45 188l356 205l-43 -174l-245 -139l178 -184l-39 -175zM483 512l45 188l357 205l-43 -174l-246 -139l178 -184l-39 -175z" />
<glyph unicode="&#xac;" horiz-adv-x="1224" d="M96 655v140h1032v-572h-139v432h-893z" />
<glyph unicode="&#xad;" horiz-adv-x="823" d="M68 487l32 164h594l-32 -164h-594z" />
<glyph unicode="&#xae;" horiz-adv-x="1634" d="M45 735q0 211 105 387t282 275.5t385 99.5q207 0 383 -99.5t280.5 -275.5t104.5 -387q0 -162 -61.5 -305.5t-165.5 -245t-245 -160.5t-296 -59q-156 0 -297.5 59t-246 160.5t-166.5 245t-62 305.5zM184 735q0 -138 48.5 -260.5t132.5 -209t201.5 -137t250.5 -50.5 q175 0 319 85.5t227 236.5t83 335q0 181 -83 330t-227.5 234t-318.5 85q-133 0 -250.5 -50t-201.5 -136.5t-132.5 -206.5t-48.5 -256zM518 285v895h346q159 0 236.5 -63.5t77.5 -192.5q0 -115 -64 -174t-172 -70l256 -395h-149l-244 385h-148v-385h-139zM657 782h146 q45 0 73 1.5t62 10t53.5 23.5t33 43.5t13.5 69.5q0 43 -16.5 71.5t-47 42t-61.5 18.5t-71 5h-185v-285z" />
<glyph unicode="&#xaf;" horiz-adv-x="419" d="M57 1284l25 113h551l-23 -113h-553z" />
<glyph unicode="&#xb0;" horiz-adv-x="825" d="M215 1149q0 127 87.5 215t215.5 88t215.5 -88t87.5 -215t-87.5 -215t-215.5 -88t-215.5 88t-87.5 215zM317 1149q0 -86 57.5 -143.5t143.5 -57.5t143.5 57.5t57.5 143.5t-57.5 143.5t-143.5 57.5t-143.5 -57.5t-57.5 -143.5z" />
<glyph unicode="&#xb1;" horiz-adv-x="1224" d="M96 0v139h1032v-139h-1032zM96 555v139h447v340h139v-340h446v-139h-446v-342h-139v342h-447z" />
<glyph unicode="&#xb2;" horiz-adv-x="675" d="M23 573q0 116 56.5 188.5t196.5 160.5l132 82q1 1 26.5 16.5t30 18.5t27 17.5t28.5 21t23 21t23 25t15 25.5t12 30t3 31q0 61 -39 95t-108 34q-91 -4 -142.5 -54t-56.5 -136h-139q14 140 104 221.5t246 81.5q118 0 196 -64t78 -171q0 -172 -219 -291l-129 -74 q-48 -26 -71.5 -40t-61 -39t-56 -46.5t-22.5 -40.5h473l-20 -113h-606z" />
<glyph unicode="&#xb3;" horiz-adv-x="700" d="M47 846h139q-5 -84 30 -129t140 -45q95 0 152 45t57 129q0 48 -19.5 77.5t-51.5 40t-72 14.5t-82 -1l18 102q47 -4 89 0.5t80.5 19.5t61.5 48.5t23 81.5q0 61 -40 85.5t-111 24.5q-79 0 -128 -43.5t-54 -115.5h-140q6 120 95 196t233 76q124 0 204.5 -56.5t80.5 -164.5 q0 -71 -51 -126.5t-130 -74.5v-4q66 -23 100 -70.5t34 -111.5q0 -111 -96 -198t-257 -87q-158 0 -234.5 74.5t-70.5 212.5z" />
<glyph unicode="&#xb4;" horiz-adv-x="409" d="M199 1206l190 293h232l-279 -293h-143z" />
<glyph unicode="&#xb5;" horiz-adv-x="1120" d="M-106 -406l305 1465h174l-135 -619q-25 -98 -25 -164q0 -72 51 -109.5t133 -37.5q140 0 244 102t135 242l123 586h174l-223 -1059h-168l33 160h-4q-64 -88 -161 -136.5t-192 -48.5q-66 0 -118 24.5t-72 53.5h-4l-96 -459h-174z" />
<glyph unicode="&#xb6;" horiz-adv-x="1226" d="M150 1069q40 194 183 293.5t363 99.5h488l-371 -1779h-131l346 1667h-258l-346 -1667h-133l209 1005q-187 0 -285 109.5t-65 271.5z" />
<glyph unicode="&#xb7;" horiz-adv-x="561" d="M125 518q0 56 39.5 93.5t91.5 37.5q56 0 93.5 -37.5t37.5 -93.5q0 -57 -37.5 -94t-93.5 -37q-54 0 -92.5 38.5t-38.5 92.5z" />
<glyph unicode="&#xb8;" horiz-adv-x="421" d="M-119 -385l37 88q6 -2 24.5 -8.5t27.5 -9t24 -6.5t28.5 -5.5t26.5 -1.5q58 0 90.5 12.5t32.5 49.5q0 33 -27 48t-67 15q-55 0 -86 -16l-39 61l139 158h98l-104 -111h4q21 9 53 9q74 0 128.5 -36.5t54.5 -113.5q0 -86 -75 -132t-169 -46q-102 0 -201 45z" />
<glyph unicode="&#xb9;" horiz-adv-x="708" d="M211 1204l18 103q106 0 189.5 41t120.5 104h96l-184 -879h-136l136 666q-104 -35 -240 -35z" />
<glyph unicode="&#xba;" horiz-adv-x="677" d="M74 1049q0 78 27 150.5t76 128.5t123.5 90t162.5 34q140 0 214.5 -68.5t74.5 -197.5q0 -105 -45 -197t-133.5 -151.5t-202.5 -59.5q-139 0 -218.5 69t-78.5 202zM197 1051q0 -75 45 -122.5t129 -47.5q112 0 185 90.5t73 206.5q0 77 -43 124.5t-131 47.5q-61 0 -111.5 -28 t-81.5 -72t-48 -96t-17 -103z" />
<glyph unicode="&#xbb;" horiz-adv-x="964" d="M23 233l43 175l245 139l-178 184l39 174l252 -278l-45 -189zM424 233l43 175l246 139l-178 184l38 174l252 -278l-45 -189z" />
<glyph unicode="&#xbc;" horiz-adv-x="1718" d="M223 1204l19 103q106 0 189 41t120 104h96l-184 -879h-135l135 666q-104 -35 -240 -35zM315 -57l891 1542h131l-891 -1542h-131zM905 197l23 118l551 564h118l-131 -570h125l-26 -112h-123l-45 -197h-129l45 197h-408zM1049 309h284l84 371h-4z" />
<glyph unicode="&#xbd;" horiz-adv-x="1656" d="M186 1204l19 103q106 0 189 41t120 104h96l-184 -879h-135l135 666q-104 -35 -240 -35zM279 -57l890 1542h131l-890 -1542h-131zM907 0q0 61 14.5 107.5t49 88t77 74.5t113.5 78l131 82q3 2 24 14.5t27 16.5t25 16.5t26 18t22.5 18.5t21.5 21.5t16.5 22t15 25t8 25.5 t3.5 29q0 61 -39.5 95t-108.5 34q-90 0 -141.5 -52t-56.5 -139h-140q14 140 104.5 222t246.5 82q118 0 196 -64.5t78 -171.5q0 -172 -219 -291l-129 -73q-48 -26 -71.5 -40t-61 -39t-56 -46.5t-22.5 -40.5h473l-21 -113h-606z" />
<glyph unicode="&#xbe;" horiz-adv-x="1732" d="M33 846h139q-5 -84 30 -129t140 -45q95 0 152 45t57 129q0 48 -19.5 77.5t-51.5 40t-72 14.5t-82 -1l18 102q47 -4 89 0.5t80.5 19.5t61.5 48.5t23 81.5q0 110 -152 110q-79 0 -128 -43.5t-54 -115.5h-139q6 120 95 196t233 76q124 0 204 -56.5t80 -164.5 q0 -71 -50.5 -126.5t-129.5 -74.5v-4q133 -46 133 -182q0 -111 -95.5 -198t-256.5 -87q-158 0 -234.5 74.5t-70.5 212.5zM406 -57l890 1542h131l-890 -1542h-131zM920 197l22 118l551 564h119l-131 -570h125l-27 -112h-123l-45 -197h-129l45 197h-407zM1063 309h285l84 371 h-5z" />
<glyph unicode="&#xbf;" horiz-adv-x="1114" d="M-49 -66q0 116 59 205.5t166 169.5q11 8 45.5 32.5t47 33.5t42 32t42 36.5t35 37t33 43t24 45t19.5 53t9 58.5h170q-12 -72 -32.5 -129.5t-45 -99.5t-66.5 -84t-81.5 -72.5t-104.5 -75.5q-82 -60 -130 -124t-48 -146q0 -98 64 -161.5t161 -63.5q146 0 229 87.5t109 239.5 h174q-25 -223 -161 -352t-357 -129q-109 0 -199.5 42t-147 126t-56.5 196zM477 831l45 228h232l-52 -228h-225z" />
<glyph unicode="&#xc0;" d="M-176 0l881 1462h213l264 -1462h-201l-68 440h-616l-256 -440h-217zM385 604h504l-109 686h-4zM571 1888h207l137 -293h-137z" />
<glyph unicode="&#xc1;" d="M-176 0l881 1462h213l264 -1462h-201l-68 440h-616l-256 -440h-217zM385 604h504l-109 686h-4zM711 1595l190 293h232l-279 -293h-143z" />
<glyph unicode="&#xc2;" d="M-176 0l881 1462h213l264 -1462h-201l-68 440h-616l-256 -440h-217zM385 604h504l-109 686h-4zM514 1595l272 293h177l153 -293h-151l-105 191l-178 -191h-168z" />
<glyph unicode="&#xc3;" d="M-176 0l881 1462h213l264 -1462h-201l-68 440h-616l-256 -440h-217zM385 604h504l-109 686h-4zM463 1634q16 46 30 77.5t38.5 69t58.5 57.5t76 20q20 0 38.5 -3.5t44 -14t34 -14.5t40.5 -20q9 -4 30 -14t28 -13t26.5 -10t24.5 -6t22 0q30 0 51 13.5t29 26t25 44.5h104 q-15 -46 -30 -80t-39.5 -69.5t-59.5 -54.5t-80 -19q-46 0 -152.5 49.5t-135.5 44.5q-68 0 -97 -84h-106z" />
<glyph unicode="&#xc4;" d="M-176 0l881 1462h213l264 -1462h-201l-68 440h-616l-256 -440h-217zM385 604h504l-109 686h-4zM588 1622l43 213h182l-43 -213h-182zM922 1622l43 213h182l-43 -213h-182z" />
<glyph unicode="&#xc5;" d="M-176 0l881 1462h213l264 -1462h-201l-68 440h-616l-256 -440h-217zM385 604h504l-109 686h-4zM604 1761q0 94 69 163t163 69t162.5 -69t68.5 -163t-68.5 -162.5t-162.5 -68.5t-163 68.5t-69 162.5zM696 1761q0 -60 40 -99.5t100 -39.5t99.5 39.5t39.5 99.5t-39.5 100 t-99.5 40t-100 -40t-40 -100z" />
<glyph unicode="&#xc6;" horiz-adv-x="2058" d="M-113 0l1065 1462h1073l-34 -164h-719l-96 -464h675l-36 -164h-674l-109 -506h731l-32 -164h-932l88 426h-471l-305 -426h-224zM530 590h394l153 708h-45z" />
<glyph unicode="&#xc7;" horiz-adv-x="1443" d="M55 606q0 142 35 274t104 244t164.5 195.5t224.5 130.5t275 47q119 0 220 -32t176.5 -93.5t118 -159t42.5 -221.5h-194q0 167 -99 254.5t-264 87.5q-119 0 -219.5 -42t-171 -112.5t-120.5 -164.5t-73.5 -197.5t-23.5 -210.5q0 -221 109 -349t323 -128q177 0 291 95 t162 270h194q-57 -252 -220 -390.5t-427 -138.5q-35 0 -53 2l-72 -78h4q21 9 53 9q74 0 128.5 -36.5t54.5 -113.5q0 -86 -75 -132t-169 -46q-102 0 -201 45l37 88q6 -2 24.5 -8.5t27.5 -9t24 -6.5t28.5 -5.5t26.5 -1.5q58 0 90.5 12.5t32.5 49.5q0 33 -27 48t-67 15 q-55 0 -86 -16l-39 61l117 133q-69 13 -125 33q-174 65 -267.5 218.5t-93.5 379.5z" />
<glyph unicode="&#xc8;" horiz-adv-x="1249" d="M-6 0l309 1462h1008l-33 -164h-813l-98 -464h757l-32 -164h-760l-107 -506h824l-37 -164h-1018zM614 1888h207l137 -293h-137z" />
<glyph unicode="&#xc9;" horiz-adv-x="1249" d="M-6 0l309 1462h1008l-33 -164h-813l-98 -464h757l-32 -164h-760l-107 -506h824l-37 -164h-1018zM741 1595l191 293h231l-278 -293h-144z" />
<glyph unicode="&#xca;" horiz-adv-x="1249" d="M-6 0l309 1462h1008l-33 -164h-813l-98 -464h757l-32 -164h-760l-107 -506h824l-37 -164h-1018zM512 1595l272 293h177l153 -293h-151l-105 191l-178 -191h-168z" />
<glyph unicode="&#xcb;" horiz-adv-x="1249" d="M-6 0l309 1462h1008l-33 -164h-813l-98 -464h757l-32 -164h-760l-107 -506h824l-37 -164h-1018zM561 1622l43 213h182l-43 -213h-182zM895 1622l43 213h182l-43 -213h-182z" />
<glyph unicode="&#xcc;" horiz-adv-x="483" d="M-6 0l307 1462h195l-308 -1462h-194zM160 1888h207l137 -293h-137z" />
<glyph unicode="&#xcd;" horiz-adv-x="462" d="M-6 0l307 1462h195l-308 -1462h-194zM299 1595l190 293h232l-279 -293h-143z" />
<glyph unicode="&#xce;" horiz-adv-x="471" d="M-6 0l307 1462h195l-308 -1462h-194zM119 1595l272 293h176l154 -293h-152l-104 191l-178 -191h-168z" />
<glyph unicode="&#xcf;" horiz-adv-x="477" d="M-6 0l307 1462h195l-308 -1462h-194zM170 1622l43 213h182l-43 -213h-182zM504 1622l43 213h182l-43 -213h-182z" />
<glyph unicode="&#xd0;" horiz-adv-x="1411" d="M-6 0l147 694h-135l29 140h135l133 628h512q268 0 410.5 -148t142.5 -411q0 -272 -102.5 -477.5t-286.5 -315.5t-424 -110h-561zM219 164h338q121 0 223.5 41t174 110.5t121.5 161.5t74 195t24 211q0 415 -404 415h-311l-99 -464h410l-29 -140h-409z" />
<glyph unicode="&#xd1;" horiz-adv-x="1449" d="M-6 0l309 1462h209l522 -1210h4l244 1210h188l-309 -1462h-209l-518 1202h-4l-248 -1202h-188zM573 1634q16 46 30 77.5t38.5 69t58.5 57.5t76 20q26 0 57 -9.5t47 -16.5t54 -26q9 -4 30 -14t28 -13t26.5 -10t24.5 -6t22 0q23 0 38.5 5t28.5 21t18 23.5t19 34.5h105 q-15 -46 -30 -80t-39.5 -69.5t-59.5 -54.5t-80 -19q-46 0 -153 49.5t-136 44.5q-67 0 -96 -84h-107z" />
<glyph unicode="&#xd2;" horiz-adv-x="1519" d="M53 606q0 142 35 274t104 244t164.5 195.5t224.5 130.5t275 47q185 0 325 -86.5t212.5 -232.5t72.5 -328q0 -138 -34.5 -268.5t-102.5 -241.5t-161.5 -195t-219.5 -132t-268 -48q-298 0 -462.5 169t-164.5 472zM248 606q0 -221 109 -349t323 -128q112 0 209.5 41.5 t166.5 111.5t118.5 163t73.5 196t24 209q0 137 -47 245t-142.5 173t-226.5 65q-119 0 -219.5 -42t-171 -112.5t-120.5 -164.5t-73.5 -197.5t-23.5 -210.5zM643 1888h207l137 -293h-137z" />
<glyph unicode="&#xd3;" horiz-adv-x="1519" d="M53 606q0 142 35 274t104 244t164.5 195.5t224.5 130.5t275 47q185 0 325 -86.5t212.5 -232.5t72.5 -328q0 -138 -34.5 -268.5t-102.5 -241.5t-161.5 -195t-219.5 -132t-268 -48q-298 0 -462.5 169t-164.5 472zM248 606q0 -221 109 -349t323 -128q112 0 209.5 41.5 t166.5 111.5t118.5 163t73.5 196t24 209q0 137 -47 245t-142.5 173t-226.5 65q-119 0 -219.5 -42t-171 -112.5t-120.5 -164.5t-73.5 -197.5t-23.5 -210.5zM780 1595l191 293h231l-278 -293h-144z" />
<glyph unicode="&#xd4;" horiz-adv-x="1519" d="M53 606q0 142 35 274t104 244t164.5 195.5t224.5 130.5t275 47q185 0 325 -86.5t212.5 -232.5t72.5 -328q0 -138 -34.5 -268.5t-102.5 -241.5t-161.5 -195t-219.5 -132t-268 -48q-298 0 -462.5 169t-164.5 472zM248 606q0 -221 109 -349t323 -128q112 0 209.5 41.5 t166.5 111.5t118.5 163t73.5 196t24 209q0 137 -47 245t-142.5 173t-226.5 65q-119 0 -219.5 -42t-171 -112.5t-120.5 -164.5t-73.5 -197.5t-23.5 -210.5zM614 1595l273 293h176l154 -293h-152l-104 191l-179 -191h-168z" />
<glyph unicode="&#xd5;" horiz-adv-x="1519" d="M53 606q0 142 35 274t104 244t164.5 195.5t224.5 130.5t275 47q185 0 325 -86.5t212.5 -232.5t72.5 -328q0 -138 -34.5 -268.5t-102.5 -241.5t-161.5 -195t-219.5 -132t-268 -48q-298 0 -462.5 169t-164.5 472zM248 606q0 -221 109 -349t323 -128q112 0 209.5 41.5 t166.5 111.5t118.5 163t73.5 196t24 209q0 137 -47 245t-142.5 173t-226.5 65q-119 0 -219.5 -42t-171 -112.5t-120.5 -164.5t-73.5 -197.5t-23.5 -210.5zM582 1634q16 46 30 77t38 69t58 58t76 20q26 0 57 -9.5t47 -16.5t54 -26q9 -4 30 -14t28 -13t26.5 -10t24.5 -6t22 0 q30 0 51 13.5t29 26t25 44.5h104q-15 -46 -30 -80t-39.5 -69.5t-59.5 -54.5t-80 -19q-46 0 -153 49.5t-136 44.5q-67 0 -96 -84h-106z" />
<glyph unicode="&#xd6;" horiz-adv-x="1519" d="M55 606q0 142 35 274t104 244t164.5 195.5t224.5 130.5t275 47q185 0 325 -86.5t212.5 -232.5t72.5 -328q0 -138 -34.5 -268.5t-102.5 -241.5t-161.5 -195t-219.5 -132t-268 -48q-298 0 -462.5 169t-164.5 472zM250 606q0 -221 109 -349t323 -128q112 0 209.5 41.5 t166.5 111.5t118.5 163t73.5 196t24 209q0 137 -47 245t-142.5 173t-226.5 65q-119 0 -219.5 -42t-171 -112.5t-120.5 -164.5t-73.5 -197.5t-23.5 -210.5zM647 1622l43 213h182l-43 -213h-182zM981 1622l43 213h182l-43 -213h-182z" />
<glyph unicode="&#xd7;" horiz-adv-x="1224" d="M141 147l373 373l-371 369l99 98l370 -369l369 369l98 -98l-368 -369l370 -373l-98 -98l-371 373l-372 -373z" />
<glyph unicode="&#xd8;" horiz-adv-x="1521" d="M-45 20l205 197q-103 156 -103 389q0 142 35 274t104 244t164.5 195.5t224.5 130.5t275 47q277 0 445 -186l200 190l60 -65l-205 -195q110 -167 110 -391q0 -138 -34.5 -268.5t-102.5 -241.5t-161.5 -195t-219.5 -132t-268 -48q-303 0 -469 180h-6l-195 -190zM252 606 q0 -147 51 -252l871 832q-115 147 -314 147q-119 0 -219.5 -42t-171 -112.5t-120.5 -164.5t-73.5 -197.5t-23.5 -210.5zM350 276q115 -147 334 -147q112 0 209.5 41.5t166.5 111.5t118.5 163t73.5 196t24 209q0 148 -55 258z" />
<glyph unicode="&#xd9;" horiz-adv-x="1386" d="M82 602l182 860h195l-193 -909q-49 -211 40.5 -317.5t305.5 -106.5q68 0 123 11.5t95.5 30.5t73.5 52.5t55 67t41.5 85.5t31.5 97.5t27 112.5l184 876h195l-183 -876q-49 -227 -73 -281q-47 -116 -136 -194t-197.5 -112t-236.5 -34q-323 0 -458 164t-72 473zM575 1888 h207l138 -293h-138z" />
<glyph unicode="&#xda;" horiz-adv-x="1386" d="M82 602l182 860h195l-193 -909q-49 -211 40.5 -317.5t305.5 -106.5q68 0 123 11.5t95.5 30.5t73.5 52.5t55 67t41.5 85.5t31.5 97.5t27 112.5l184 876h195l-183 -876q-49 -227 -73 -281q-47 -116 -136 -194t-197.5 -112t-236.5 -34q-323 0 -458 164t-72 473zM776 1595 l191 293h231l-278 -293h-144z" />
<glyph unicode="&#xdb;" horiz-adv-x="1386" d="M82 602l182 860h195l-193 -909q-49 -211 40.5 -317.5t305.5 -106.5q68 0 123 11.5t95.5 30.5t73.5 52.5t55 67t41.5 85.5t31.5 97.5t27 112.5l184 876h195l-183 -876q-49 -227 -73 -281q-47 -116 -136 -194t-197.5 -112t-236.5 -34q-323 0 -458 164t-72 473zM567 1595 l273 293h176l153 -293h-151l-105 191l-178 -191h-168z" />
<glyph unicode="&#xdc;" horiz-adv-x="1386" d="M82 602l182 860h195l-193 -909q-49 -211 40.5 -317.5t305.5 -106.5q68 0 123 11.5t95.5 30.5t73.5 52.5t55 67t41.5 85.5t31.5 97.5t27 112.5l184 876h195l-183 -876q-49 -227 -73 -281q-47 -116 -136 -194t-197.5 -112t-236.5 -34q-323 0 -458 164t-72 473zM600 1622 l43 213h182l-43 -213h-182zM934 1622l43 213h182l-43 -213h-182z" />
<glyph unicode="&#xdd;" horiz-adv-x="1243" d="M129 1462h207l299 -708l555 708h225l-708 -874l-127 -588h-191l125 588zM729 1595l191 293h231l-279 -293h-143z" />
<glyph unicode="&#xde;" horiz-adv-x="1292" d="M-6 0l305 1462h195l-48 -233h377q212 0 323 -102t111 -302q0 -59 -16 -118t-57 -122t-102 -111t-160.5 -78.5t-223.5 -30.5h-434l-76 -365h-194zM299 528h440q155 0 239.5 81.5t84.5 215.5q0 126 -66.5 183t-173.5 57h-411z" />
<glyph unicode="&#xdf;" horiz-adv-x="1087" d="M-27 0l220 1032q21 108 55 189.5t87.5 145.5t133.5 97t184 33q78 0 144.5 -17t121 -52.5t86 -96t31.5 -141.5q0 -147 -86.5 -253.5t-218.5 -123.5v-4q110 -17 171 -101.5t61 -199.5q0 -106 -39 -204t-106 -170.5t-162.5 -115.5t-202.5 -43q-83 0 -150 11l29 147 q20 -4 30 -4h31q170 0 282.5 98t112.5 267q0 61 -17.5 106t-46.5 70.5t-73 40t-89 18.5t-103 2l30 143q56 -3 109.5 5t101.5 29.5t84 54t57 82t21 110.5q0 86 -62 137t-138 51q-60 0 -107.5 -19.5t-77 -48.5t-53 -75t-36 -86.5t-23.5 -95.5l-215 -1018h-177z" />
<glyph unicode="&#xe0;" horiz-adv-x="1040" d="M-43 274q0 48 10.5 89.5t27.5 72t44 55.5t55.5 42.5t66.5 31.5t72.5 22.5t78.5 15t79 10.5t79 8q15 1 22 2q42 4 65.5 6.5t54 7t47 9.5t36 14t29 20.5t18.5 27t12.5 36.5t3.5 47q0 40 -19.5 69t-53 43.5t-68 20.5t-72.5 6q-70 0 -128 -18.5t-102 -63t-55 -109.5h-174 q16 114 84.5 193.5t164 115t210.5 35.5q387 0 387 -270q0 -58 -33 -192l-68 -289q-2 -13 -10 -44.5t-13 -58.5t-5 -49q0 -65 51 -65q18 0 55 14l-26 -129q-48 -25 -107 -25q-72 0 -108.5 40.5t-28.5 109.5l-4 4q-58 -77 -141 -115.5t-213 -38.5q-144 0 -234 73t-90 226z M131 276q0 -70 56 -108.5t135 -38.5q207 0 296 139q20 28 35.5 65t22.5 62t18.5 76t16.5 70h-4q-38 -27 -114 -41t-151 -21t-147 -23t-117.5 -60.5t-46.5 -119.5zM401 1499h207l137 -293h-137z" />
<glyph unicode="&#xe1;" horiz-adv-x="1040" d="M-43 274q0 48 10.5 89.5t27.5 72t44 55.5t55.5 42.5t66.5 31.5t72.5 22.5t78.5 15t79 10.5t79 8q15 1 22 2q42 4 65.5 6.5t54 7t47 9.5t36 14t29 20.5t18.5 27t12.5 36.5t3.5 47q0 40 -19.5 69t-53 43.5t-68 20.5t-72.5 6q-70 0 -128 -18.5t-102 -63t-55 -109.5h-174 q16 114 84.5 193.5t164 115t210.5 35.5q387 0 387 -270q0 -58 -33 -192l-68 -289q-2 -13 -10 -44.5t-13 -58.5t-5 -49q0 -65 51 -65q18 0 55 14l-26 -129q-48 -25 -107 -25q-72 0 -108.5 40.5t-28.5 109.5l-4 4q-58 -77 -141 -115.5t-213 -38.5q-144 0 -234 73t-90 226z M131 276q0 -70 56 -108.5t135 -38.5q207 0 296 139q20 28 35.5 65t22.5 62t18.5 76t16.5 70h-4q-38 -27 -114 -41t-151 -21t-147 -23t-117.5 -60.5t-46.5 -119.5zM532 1206l191 293h231l-278 -293h-144z" />
<glyph unicode="&#xe2;" horiz-adv-x="1040" d="M-43 274q0 48 10.5 89.5t27.5 72t44 55.5t55.5 42.5t66.5 31.5t72.5 22.5t78.5 15t79 10.5t79 8q15 1 22 2q42 4 65.5 6.5t54 7t47 9.5t36 14t29 20.5t18.5 27t12.5 36.5t3.5 47q0 40 -19.5 69t-53 43.5t-68 20.5t-72.5 6q-70 0 -128 -18.5t-102 -63t-55 -109.5h-174 q16 114 84.5 193.5t164 115t210.5 35.5q387 0 387 -270q0 -58 -33 -192l-68 -289q-2 -13 -10 -44.5t-13 -58.5t-5 -49q0 -65 51 -65q18 0 55 14l-26 -129q-48 -25 -107 -25q-72 0 -108.5 40.5t-28.5 109.5l-4 4q-58 -77 -141 -115.5t-213 -38.5q-144 0 -234 73t-90 226z M131 276q0 -70 56 -108.5t135 -38.5q207 0 296 139q20 28 35.5 65t22.5 62t18.5 76t16.5 70h-4q-38 -27 -114 -41t-151 -21t-147 -23t-117.5 -60.5t-46.5 -119.5zM283 1206l272 293h176l154 -293h-152l-104 191l-178 -191h-168z" />
<glyph unicode="&#xe3;" horiz-adv-x="1040" d="M-43 274q0 48 10.5 89.5t27.5 72t44 55.5t55.5 42.5t66.5 31.5t72.5 22.5t78.5 15t79 10.5t79 8q15 1 22 2q42 4 65.5 6.5t54 7t47 9.5t36 14t29 20.5t18.5 27t12.5 36.5t3.5 47q0 40 -19.5 69t-53 43.5t-68 20.5t-72.5 6q-70 0 -128 -18.5t-102 -63t-55 -109.5h-174 q16 114 84.5 193.5t164 115t210.5 35.5q387 0 387 -270q0 -58 -33 -192l-68 -289q-2 -13 -10 -44.5t-13 -58.5t-5 -49q0 -65 51 -65q18 0 55 14l-26 -129q-48 -25 -107 -25q-72 0 -108.5 40.5t-28.5 109.5l-4 4q-58 -77 -141 -115.5t-213 -38.5q-144 0 -234 73t-90 226z M131 276q0 -70 56 -108.5t135 -38.5q207 0 296 139q20 28 35.5 65t22.5 62t18.5 76t16.5 70h-4q-38 -27 -114 -41t-151 -21t-147 -23t-117.5 -60.5t-46.5 -119.5zM252 1245q16 45 30 76.5t38.5 69t58.5 57.5t76 20q26 0 56 -9t47.5 -16.5t53.5 -25.5q9 -4 30 -14t28 -13 t26.5 -10t24.5 -6t22 0q30 0 51 13.5t29 26t25 44.5h104q-15 -46 -30 -80t-39.5 -69.5t-59.5 -54.5t-80 -19q-46 0 -152.5 49.5t-135.5 44.5q-68 0 -97 -84h-106z" />
<glyph unicode="&#xe4;" horiz-adv-x="1040" d="M-43 274q0 48 10.5 89.5t27.5 72t44 55.5t55.5 42.5t66.5 31.5t72.5 22.5t78.5 15t79 10.5t79 8q15 1 22 2q42 4 65.5 6.5t54 7t47 9.5t36 14t29 20.5t18.5 27t12.5 36.5t3.5 47q0 40 -19.5 69t-53 43.5t-68 20.5t-72.5 6q-70 0 -128 -18.5t-102 -63t-55 -109.5h-174 q16 114 84.5 193.5t164 115t210.5 35.5q387 0 387 -270q0 -58 -33 -192l-68 -289q-2 -13 -10 -44.5t-13 -58.5t-5 -49q0 -65 51 -65q18 0 55 14l-26 -129q-48 -25 -107 -25q-72 0 -108.5 40.5t-28.5 109.5l-4 4q-58 -77 -141 -115.5t-213 -38.5q-144 0 -234 73t-90 226z M131 276q0 -70 56 -108.5t135 -38.5q207 0 296 139q20 28 35.5 65t22.5 62t18.5 76t16.5 70h-4q-38 -27 -114 -41t-151 -21t-147 -23t-117.5 -60.5t-46.5 -119.5zM338 1233l43 213h182l-43 -213h-182zM672 1233l43 213h182l-43 -213h-182z" />
<glyph unicode="&#xe5;" horiz-adv-x="1040" d="M-43 274q0 48 10.5 89.5t27.5 72t44 55.5t55.5 42.5t66.5 31.5t72.5 22.5t78.5 15t79 10.5t79 8q15 1 22 2q42 4 65.5 6.5t54 7t47 9.5t36 14t29 20.5t18.5 27t12.5 36.5t3.5 47q0 40 -19.5 69t-53 43.5t-68 20.5t-72.5 6q-70 0 -128 -18.5t-102 -63t-55 -109.5h-174 q16 114 84.5 193.5t164 115t210.5 35.5q387 0 387 -270q0 -58 -33 -192l-68 -289q-2 -13 -10 -44.5t-13 -58.5t-5 -49q0 -65 51 -65q18 0 55 14l-26 -129q-48 -25 -107 -25q-72 0 -108.5 40.5t-28.5 109.5l-4 4q-58 -77 -141 -115.5t-213 -38.5q-144 0 -234 73t-90 226z M131 276q0 -70 56 -108.5t135 -38.5q207 0 296 139q20 28 35.5 65t22.5 62t18.5 76t16.5 70h-4q-38 -27 -114 -41t-151 -21t-147 -23t-117.5 -60.5t-46.5 -119.5zM395 1380q0 94 69 163t163 69t162.5 -69t68.5 -163t-68.5 -162.5t-162.5 -68.5t-163 68.5t-69 162.5z M487 1380q0 -60 40 -99.5t100 -39.5t99.5 39.5t39.5 99.5t-39.5 100t-99.5 40t-100 -40t-40 -100z" />
<glyph unicode="&#xe6;" horiz-adv-x="1753" d="M-39 270q0 278 404 324q22 2 59.5 6t59.5 6.5t55.5 7t54 9t47 12.5t42.5 17t34 22.5t27 29.5t15.5 37.5t6.5 46.5q0 142 -231 142q-100 0 -170 -49t-93 -140h-170q14 91 57 158.5t108 106.5t141.5 58t166.5 19q255 0 338 -165q56 78 147 121.5t191 43.5 q201 0 304.5 -107.5t103.5 -307.5q0 -77 -29 -191h-768q-10 -55 -10 -106q0 -103 65 -172.5t189 -69.5q228 0 313 203h178q-22 -64 -57 -119q-82 -123 -190.5 -180.5t-257.5 -57.5q-298 0 -373 230q-136 -230 -416 -230q-71 0 -128.5 14t-107.5 46t-78 92t-28 143zM135 270 q0 -73 56.5 -107t140.5 -34q164 0 256 92q88 88 125 324q-53 -25 -138 -40.5t-156 -25t-138.5 -28.5t-106.5 -63.5t-39 -117.5zM891 631h594q12 81 -8 147t-80.5 109t-153.5 43q-135 0 -227.5 -86.5t-124.5 -212.5z" />
<glyph unicode="&#xe7;" horiz-adv-x="1069" d="M27 432q0 128 39 244t111 207.5t184.5 145.5t250.5 54q185 0 288.5 -89t109.5 -271h-174q0 97 -60 152t-164 55q-78 0 -145.5 -29.5t-115.5 -79t-82.5 -114t-51 -135t-16.5 -140.5q0 -64 13.5 -117t43 -95.5t82 -66.5t123.5 -24q110 0 190.5 58.5t118.5 158.5h174 q-47 -178 -172.5 -274.5t-310.5 -96.5h-31l-82 -86h4q21 9 54 9q74 0 128 -36.5t54 -113.5q0 -86 -75 -132t-169 -46q-102 0 -201 45l37 88q6 -2 24.5 -8.5t27.5 -9t24 -6.5t28.5 -5.5t26.5 -1.5q58 0 90.5 12.5t32.5 49.5q0 33 -27 48t-67 15q-55 0 -86 -16l-39 61l127 144 q-132 24 -209 110q-108 120 -108 336z" />
<glyph unicode="&#xe8;" horiz-adv-x="1124" d="M27 401q0 148 44 277t118.5 217t173.5 138t208 50q449 0 449 -469q0 -54 -16 -137h-797q-6 -46 -6 -92q0 -118 81 -187t193 -69q229 0 305 203h174q-40 -172 -170.5 -264.5t-308.5 -92.5q-101 0 -181 27t-129 69.5t-81 100.5t-44.5 114t-12.5 115zM231 631h615 q4 59 -8 110.5t-39.5 95t-79 68.5t-121.5 25q-145 0 -236 -82.5t-131 -216.5zM383 1499h207l137 -293h-137z" />
<glyph unicode="&#xe9;" horiz-adv-x="1124" d="M27 401q0 148 44 277t118.5 217t173.5 138t208 50q449 0 449 -469q0 -54 -16 -137h-797q-6 -46 -6 -92q0 -118 81 -187t193 -69q229 0 305 203h174q-40 -172 -170.5 -264.5t-308.5 -92.5q-101 0 -181 27t-129 69.5t-81 100.5t-44.5 114t-12.5 115zM231 631h615 q4 59 -8 110.5t-39.5 95t-79 68.5t-121.5 25q-145 0 -236 -82.5t-131 -216.5zM563 1206l191 293h231l-278 -293h-144z" />
<glyph unicode="&#xea;" horiz-adv-x="1124" d="M27 401q0 148 44 277t118.5 217t173.5 138t208 50q449 0 449 -469q0 -54 -16 -137h-797q-6 -46 -6 -92q0 -118 81 -187t193 -69q229 0 305 203h174q-40 -172 -170.5 -264.5t-308.5 -92.5q-101 0 -181 27t-129 69.5t-81 100.5t-44.5 114t-12.5 115zM231 631h615 q4 59 -8 110.5t-39.5 95t-79 68.5t-121.5 25q-145 0 -236 -82.5t-131 -216.5zM317 1206l273 293h176l154 -293h-152l-104 191l-179 -191h-168z" />
<glyph unicode="&#xeb;" horiz-adv-x="1124" d="M27 401q0 148 44 277t118.5 217t173.5 138t208 50q449 0 449 -469q0 -54 -16 -137h-797q-6 -46 -6 -92q0 -118 81 -187t193 -69q229 0 305 203h174q-40 -172 -170.5 -264.5t-308.5 -92.5q-101 0 -181 27t-129 69.5t-81 100.5t-44.5 114t-12.5 115zM231 631h615 q4 59 -8 110.5t-39.5 95t-79 68.5t-121.5 25q-145 0 -236 -82.5t-131 -216.5zM383 1233l43 213h182l-43 -213h-182zM717 1233l43 213h182l-43 -213h-182z" />
<glyph unicode="&#xec;" horiz-adv-x="415" d="M-27 0l222 1059h174l-222 -1059h-174zM25 1499h206l138 -293h-138z" />
<glyph unicode="&#xed;" horiz-adv-x="407" d="M-27 0l222 1059h174l-222 -1059h-174zM197 1206l190 293h231l-278 -293h-143z" />
<glyph unicode="&#xee;" horiz-adv-x="405" d="M-27 0l222 1059h174l-222 -1059h-174zM-2 1206l272 293h176l154 -293h-151l-105 191l-178 -191h-168z" />
<glyph unicode="&#xef;" horiz-adv-x="417" d="M-27 0l222 1059h174l-222 -1059h-174zM57 1233l43 213h183l-43 -213h-183zM391 1233l43 213h182l-43 -213h-182z" />
<glyph unicode="&#xf0;" horiz-adv-x="1142" d="M31 408q0 124 41 237t115 200t187.5 139t248.5 52q166 0 264 -108h4q-27 89 -95.5 180t-127.5 131l-234 -117l-86 82l232 115q-46 36 -121 86l131 92q100 -66 141 -102l215 108l90 -78l-221 -112q88 -85 141.5 -161t88 -190.5t34.5 -261.5q0 -151 -38.5 -281.5t-112 -230 t-189.5 -156.5t-262 -57q-205 0 -325.5 122t-120.5 311zM205 410q0 -127 76 -204t215 -77q73 0 138.5 31t112 81.5t81 114t51 129.5t16.5 127q0 122 -73.5 196.5t-211.5 74.5q-77 0 -144.5 -30t-114 -78.5t-80.5 -111t-50 -127t-16 -126.5z" />
<glyph unicode="&#xf1;" horiz-adv-x="1122" d="M-27 0l224 1059h168l-33 -160h4q65 89 164.5 136.5t212.5 47.5q150 0 222.5 -66t72.5 -206q0 -66 -31 -207l-129 -604h-174l135 618q2 13 9 49.5t11.5 67.5t4.5 47q0 72 -51.5 110t-133.5 38q-70 0 -140.5 -34t-121.5 -89q-74 -65 -117 -221l-123 -586h-174zM332 1245 q16 45 30 76.5t38.5 69t58.5 57.5t76 20q26 0 56 -9t47.5 -16.5t53.5 -25.5q9 -4 30 -14t28 -13t26.5 -10t24.5 -6t22 0q30 0 51 13.5t29 26t25 44.5h104q-15 -46 -30 -80t-39.5 -69.5t-59.5 -54.5t-80 -19q-46 0 -152.5 49.5t-135.5 44.5q-68 0 -97 -84h-106z" />
<glyph unicode="&#xf2;" horiz-adv-x="1163" d="M27 418q0 130 41 250t115 212.5t187 147.5t248 55q214 0 327.5 -112.5t113.5 -325.5q0 -104 -25 -202t-75 -182.5t-119 -148.5t-164 -100.5t-203 -36.5q-206 0 -326 123.5t-120 319.5zM201 420q0 -133 75.5 -212t215.5 -79q91 0 168 49t124.5 125t74 162t26.5 166 q0 132 -71.5 215.5t-207.5 83.5q-96 0 -175.5 -48.5t-128 -125t-75 -164t-26.5 -172.5zM410 1499h206l138 -293h-138z" />
<glyph unicode="&#xf3;" horiz-adv-x="1163" d="M27 418q0 130 41 250t115 212.5t187 147.5t248 55q214 0 327.5 -112.5t113.5 -325.5q0 -104 -25 -202t-75 -182.5t-119 -148.5t-164 -100.5t-203 -36.5q-206 0 -326 123.5t-120 319.5zM201 420q0 -133 75.5 -212t215.5 -79q91 0 168 49t124.5 125t74 162t26.5 166 q0 132 -71.5 215.5t-207.5 83.5q-96 0 -175.5 -48.5t-128 -125t-75 -164t-26.5 -172.5zM592 1206l190 293h232l-279 -293h-143z" />
<glyph unicode="&#xf4;" horiz-adv-x="1163" d="M27 418q0 130 41 250t115 212.5t187 147.5t248 55q214 0 327.5 -112.5t113.5 -325.5q0 -104 -25 -202t-75 -182.5t-119 -148.5t-164 -100.5t-203 -36.5q-206 0 -326 123.5t-120 319.5zM201 420q0 -133 75.5 -212t215.5 -79q91 0 168 49t124.5 125t74 162t26.5 166 q0 132 -71.5 215.5t-207.5 83.5q-96 0 -175.5 -48.5t-128 -125t-75 -164t-26.5 -172.5zM371 1206l272 293h176l154 -293h-152l-104 191l-178 -191h-168z" />
<glyph unicode="&#xf5;" horiz-adv-x="1163" d="M27 418q0 130 41 250t115 212.5t187 147.5t248 55q214 0 327.5 -112.5t113.5 -325.5q0 -104 -25 -202t-75 -182.5t-119 -148.5t-164 -100.5t-203 -36.5q-206 0 -326 123.5t-120 319.5zM201 420q0 -133 75.5 -212t215.5 -79q91 0 168 49t124.5 125t74 162t26.5 166 q0 132 -71.5 215.5t-207.5 83.5q-96 0 -175.5 -48.5t-128 -125t-75 -164t-26.5 -172.5zM356 1245q16 45 30 76.5t38.5 69t58.5 57.5t76 20q54 0 158 -51q9 -4 30 -14t28 -13t26.5 -10t24.5 -6t22 0q23 0 38.5 5t28.5 21t18 23.5t19 34.5h105q-15 -46 -30 -80t-39.5 -69.5 t-59.5 -54.5t-80 -19q-46 0 -153 49.5t-136 44.5q-67 0 -96 -84h-107z" />
<glyph unicode="&#xf6;" horiz-adv-x="1163" d="M29 418q0 104 25.5 202t76.5 181.5t121 146.5t165.5 99t203.5 36q214 0 327 -112t113 -326q0 -104 -25 -202t-75 -182.5t-119 -148.5t-164 -100.5t-203 -36.5q-206 0 -326 123.5t-120 319.5zM203 420q0 -133 75.5 -212t215.5 -79q91 0 168 49t124.5 125t74 162t26.5 166 q0 132 -71.5 215.5t-207.5 83.5q-96 0 -175.5 -48.5t-128 -125t-75 -164t-26.5 -172.5zM412 1233l43 213h182l-43 -213h-182zM745 1233l43 213h183l-43 -213h-183z" />
<glyph unicode="&#xf7;" horiz-adv-x="1224" d="M96 449v139h1032v-139h-1032zM481 96q0 54 38.5 92.5t92.5 38.5t92.5 -38.5t38.5 -92.5q0 -50 -39.5 -90.5t-89.5 -40.5q-54 0 -93.5 38.5t-39.5 92.5zM481 940q0 54 38.5 92.5t92.5 38.5t92.5 -38.5t38.5 -92.5q0 -50 -39.5 -90.5t-89.5 -40.5q-54 0 -93.5 38.5 t-39.5 92.5z" />
<glyph unicode="&#xf8;" horiz-adv-x="1232" d="M-33 27l158 143q-62 103 -62 248q0 104 25.5 202t76.5 181.5t121 146.5t165.5 99t203.5 36q227 0 338 -129l144 129l51 -57l-150 -135q58 -98 58 -246q0 -104 -25 -202t-75 -182.5t-119 -148.5t-164 -100.5t-203 -36.5q-224 0 -340 134l-154 -140zM238 420q0 -79 20 -129 h2l604 547q-79 92 -221 92q-96 0 -175.5 -48.5t-128 -125t-75 -164t-26.5 -172.5zM295 221q79 -92 233 -92q91 0 168 49t125 125t74.5 162t26.5 166q0 71 -23 135z" />
<glyph unicode="&#xf9;" horiz-adv-x="1101" d="M20 248q0 66 31 207l129 604h174l-135 -619q-24 -94 -24 -164q0 -72 51 -109.5t133 -37.5q140 0 244 102t135 242l123 586h174l-224 -1059h-167l32 160h-4q-65 -89 -165 -137t-212 -48q-150 0 -222.5 66.5t-72.5 206.5zM369 1499h206l138 -293h-138z" />
<glyph unicode="&#xfa;" horiz-adv-x="1101" d="M20 248q0 66 31 207l129 604h174l-135 -619q-24 -94 -24 -164q0 -72 51 -109.5t133 -37.5q140 0 244 102t135 242l123 586h174l-224 -1059h-167l32 160h-4q-65 -89 -165 -137t-212 -48q-150 0 -222.5 66.5t-72.5 206.5zM553 1206l190 293h232l-279 -293h-143z" />
<glyph unicode="&#xfb;" horiz-adv-x="1101" d="M20 248q0 66 31 207l129 604h174l-135 -619q-24 -94 -24 -164q0 -72 51 -109.5t133 -37.5q140 0 244 102t135 242l123 586h174l-224 -1059h-167l32 160h-4q-65 -89 -165 -137t-212 -48q-150 0 -222.5 66.5t-72.5 206.5zM336 1206l272 293h176l154 -293h-152l-104 191 l-178 -191h-168z" />
<glyph unicode="&#xfc;" horiz-adv-x="1101" d="M20 248q0 66 31 207l129 604h174l-135 -619q-24 -94 -24 -164q0 -72 51 -109.5t133 -37.5q140 0 244 102t135 242l123 586h174l-224 -1059h-167l32 160h-4q-65 -89 -165 -137t-212 -48q-150 0 -222.5 66.5t-72.5 206.5zM373 1233l43 213h182l-43 -213h-182zM707 1233 l43 213h182l-43 -213h-182z" />
<glyph unicode="&#xfd;" horiz-adv-x="935" d="M-156 -403l31 141q49 -29 100 -29q56 0 92.5 29t71.5 86l107 176l-187 1059h187l123 -842h4l444 842h191l-701 -1239q-28 -44 -44 -67t-43 -57.5t-50 -52.5t-55 -37.5t-69 -27.5t-81 -8q-65 0 -121 27zM494 1206l190 293h231l-278 -293h-143z" />
<glyph unicode="&#xfe;" horiz-adv-x="1187" d="M-106 -406l391 1868h174l-129 -555h4q75 99 157 137.5t193 38.5q198 0 307 -118.5t109 -315.5q0 -96 -25 -192.5t-75.5 -183t-119.5 -153t-164.5 -106t-203.5 -39.5q-51 0 -100.5 10t-97 30.5t-83 58.5t-49.5 88h-4l-112 -568h-172zM240 403q0 -122 70 -198t196 -76 q80 0 149.5 31.5t118 83.5t83.5 120t52 140.5t17 144.5q0 134 -67.5 207.5t-205.5 73.5q-76 0 -144 -33.5t-116 -88.5t-83.5 -124t-52.5 -141.5t-17 -139.5z" />
<glyph unicode="&#xff;" horiz-adv-x="935" d="M-156 -403l31 141q49 -29 100 -29q56 0 92.5 29t71.5 86l107 176l-187 1059h187l123 -842h4l444 842h191l-701 -1239q-28 -44 -44 -67t-43 -57.5t-50 -52.5t-55 -37.5t-69 -27.5t-81 -8q-65 0 -121 27zM301 1233l43 213h182l-43 -213h-182zM635 1233l43 213h182l-43 -213 h-182z" />
<glyph unicode="&#x152;" horiz-adv-x="2211" d="M55 614q0 164 54.5 321.5t151.5 282.5t244.5 202t319.5 77q130 0 245 -49.5t177 -149.5l33 164h954l-32 -164h-777l-98 -464h711l-33 -164h-711l-106 -506h786l-32 -164h-973l26 117h-4q-59 -75 -156.5 -113.5t-203.5 -38.5q-140 0 -251 50.5t-181 139.5t-107 205.5 t-37 253.5zM250 598q0 -91 24.5 -174t71.5 -149.5t123 -106t172 -39.5q185 0 307 119q39 38 64 87.5t34.5 84t24.5 106.5l115 568q11 57 -43.5 114t-138.5 91t-160 34q-114 0 -212 -42.5t-167 -114.5t-118.5 -167t-73 -199.5t-23.5 -211.5z" />
<glyph unicode="&#x153;" horiz-adv-x="1869" d="M27 391q0 126 41.5 249t115 222t186.5 160t246 61q137 0 226 -45.5t131 -160.5q55 101 160 153.5t229 52.5q202 0 306 -111.5t104 -307.5q0 -79 -23 -187h-776q-15 -62 -15 -108q0 -120 71 -180t198 -60q103 0 185 56.5t118 148.5h178q-59 -178 -191 -268.5t-321 -90.5 q-136 0 -228 46.5t-139 162.5q-56 -98 -157.5 -153.5t-218.5 -55.5q-204 0 -315 103t-111 313zM201 399q0 -116 68.5 -193t193.5 -77q83 0 150.5 39t109.5 100.5t71 140t40.5 153t11.5 145.5q0 107 -68.5 165t-177.5 58q-75 0 -141 -34t-112 -89.5t-80 -125.5t-50 -142.5 t-16 -139.5zM999 631h594q4 46 4 59q0 101 -61.5 170.5t-177.5 69.5q-141 0 -235.5 -83.5t-123.5 -215.5z" />
<glyph unicode="&#x178;" horiz-adv-x="1243" d="M129 1462h207l299 -708l555 708h225l-708 -874l-127 -588h-191l125 588zM530 1622l43 213h183l-43 -213h-183zM864 1622l43 213h183l-43 -213h-183z" />
<glyph unicode="&#x2c6;" horiz-adv-x="399" d="M-2 1206l272 293h176l154 -293h-151l-105 191l-178 -191h-168z" />
<glyph unicode="&#x2dc;" horiz-adv-x="438" d="M0 1245q16 45 30 76.5t38.5 69t58.5 57.5t76 20q26 0 56 -9t47.5 -16.5t53.5 -25.5q8 -4 25 -11.5t24.5 -11t22.5 -10t21.5 -7.5t20.5 -3.5t18 0.5q23 0 38.5 5t28.5 21t18 23.5t19 34.5h104q-15 -47 -29.5 -80t-39 -69t-59.5 -55t-80 -19q-46 0 -153 49.5t-136 44.5 q-68 0 -97 -84h-106z" />
<glyph unicode="&#x2000;" horiz-adv-x="996" />
<glyph unicode="&#x2001;" horiz-adv-x="1993" />
<glyph unicode="&#x2002;" horiz-adv-x="996" />
<glyph unicode="&#x2003;" horiz-adv-x="1993" />
<glyph unicode="&#x2004;" horiz-adv-x="664" />
<glyph unicode="&#x2005;" horiz-adv-x="498" />
<glyph unicode="&#x2006;" horiz-adv-x="332" />
<glyph unicode="&#x2007;" horiz-adv-x="332" />
<glyph unicode="&#x2008;" horiz-adv-x="249" />
<glyph unicode="&#x2009;" horiz-adv-x="398" />
<glyph unicode="&#x200a;" horiz-adv-x="110" />
<glyph unicode="&#x2010;" horiz-adv-x="823" d="M68 487l32 164h594l-32 -164h-594z" />
<glyph unicode="&#x2011;" horiz-adv-x="823" d="M68 487l32 164h594l-32 -164h-594z" />
<glyph unicode="&#x2012;" horiz-adv-x="823" d="M68 487l32 164h594l-32 -164h-594z" />
<glyph unicode="&#x2013;" horiz-adv-x="1017" d="M-55 487l32 164h1024l-32 -164h-1024z" />
<glyph unicode="&#x2014;" horiz-adv-x="2039" d="M209 487l33 164h1515l-33 -164h-1515z" />
<glyph unicode="&#x2018;" horiz-adv-x="624" d="M236 934q8 34 18.5 87t17.5 89.5t20 84t27 80.5t37.5 68.5t52.5 58t71.5 39t94.5 21.5l-20 -98q-39 -6 -66.5 -24t-45.5 -51t-26.5 -58t-19.5 -70h115l-49 -227h-227z" />
<glyph unicode="&#x2019;" horiz-adv-x="624" d="M238 934l20 98q30 4 53.5 17t38 29.5t26.5 41t19 46t16 51.5q3 12 5 18h-115l49 227h228q-8 -35 -20 -98.5t-21 -103t-24.5 -93.5t-37 -88.5t-53.5 -68.5t-78 -52.5t-106 -23.5z" />
<glyph unicode="&#x201a;" horiz-adv-x="626" d="M-10 -301l20 98q30 4 53.5 17t38 29.5t26.5 41t19 46t16 51.5q3 12 5 18h-115l49 227h228q-8 -35 -20 -98.5t-21 -103t-24.5 -93.5t-37 -88.5t-53.5 -68.5t-78 -52.5t-106 -23.5z" />
<glyph unicode="&#x201c;" horiz-adv-x="997" d="M236 934q8 34 18.5 87t17.5 89.5t20 84t27 80.5t37.5 68.5t52.5 58t71.5 39t94.5 21.5l-20 -98q-39 -6 -66.5 -24t-45.5 -51t-26.5 -58t-19.5 -70h115l-49 -227h-227zM608 934q8 34 18.5 87t17.5 89.5t20 84t27 80.5t37.5 68.5t53 58t72 39t94.5 21.5l-20 -98 q-39 -6 -66.5 -24t-45.5 -51t-26.5 -58t-19.5 -70h115l-49 -227h-228z" />
<glyph unicode="&#x201d;" horiz-adv-x="997" d="M238 934l20 98q30 4 53.5 17t38 29.5t26.5 41t19 46t16 51.5q3 12 5 18h-115l49 227h228q-8 -35 -20 -98.5t-21 -103t-24.5 -93.5t-37 -88.5t-53.5 -68.5t-78 -52.5t-106 -23.5zM610 934l21 98q16 2 30.5 7.5t25.5 10.5t22 16.5t17.5 17t14.5 22t11.5 22.5t10.5 26.5 t8.5 25t8.5 28.5t8 27h-114l49 227h227q-8 -35 -20 -98.5t-21 -103t-24.5 -93.5t-37 -88.5t-53.5 -68.5t-78 -52.5t-106 -23.5z" />
<glyph unicode="&#x201e;" horiz-adv-x="999" d="M-10 -301l20 98q30 4 53.5 17t38 29.5t26.5 41t19 46t16 51.5q3 12 5 18h-115l49 227h228q-8 -35 -20 -98.5t-21 -103t-24.5 -93.5t-37 -88.5t-53.5 -68.5t-78 -52.5t-106 -23.5zM362 -301l21 98q30 4 53.5 17t38 29.5t26.5 41t19 46t16 51.5q3 12 5 18h-115l49 227h227 q-8 -35 -20 -98.5t-21 -103t-24.5 -93.5t-37 -88.5t-53.5 -68.5t-78 -52.5t-106 -23.5z" />
<glyph unicode="&#x2022;" horiz-adv-x="1017" d="M143 731q0 152 106.5 258.5t258.5 106.5t259 -106.5t107 -258.5t-107 -259t-259 -107t-258.5 107t-106.5 259z" />
<glyph unicode="&#x2026;" horiz-adv-x="2043" d="M80 0l49 227h227l-49 -227h-227zM762 0l49 227h227l-49 -227h-227zM1444 0l49 227h227l-49 -227h-227z" />
<glyph unicode="&#x202f;" horiz-adv-x="398" />
<glyph unicode="&#x2039;" horiz-adv-x="546" d="M80 512l45 188l356 205l-43 -174l-245 -139l178 -184l-39 -175z" />
<glyph unicode="&#x203a;" horiz-adv-x="548" d="M8 233l43 175l246 139l-178 184l39 174l252 -278l-45 -189z" />
<glyph unicode="&#x205f;" horiz-adv-x="498" />
<glyph unicode="&#x20ac;" horiz-adv-x="1175" d="M-2 563l68 121h96l16 117h-137l68 121h98q34 116 91 214t136.5 175t185.5 120.5t228 43.5q102 0 187.5 -30t174.5 -93l-86 -154q-134 115 -284 115q-70 0 -132.5 -21t-110.5 -56.5t-89.5 -86.5t-71 -106.5t-53.5 -120.5h666l-70 -121h-631l-18 -117h612l-70 -121h-546 q4 -96 26 -172.5t65.5 -138t117 -95.5t172.5 -34q105 0 186.5 36.5t191.5 112.5l-43 -206q-91 -53 -174 -77t-184 -24q-129 0 -230 46.5t-164 129t-96.5 189.5t-35.5 233h-160z" />
<glyph unicode="&#x2122;" horiz-adv-x="2070" d="M152 1350v112h667v-112h-264v-732h-139v732h-264zM989 618v844h215l252 -641l248 641h213v-844h-139v705h-4l-277 -705h-88l-276 705h-5v-705h-139z" />
<glyph unicode="&#x25fc;" horiz-adv-x="1054" d="M0 0v1055h1055v-1055h-1055z" />
</font>
</defs>
</svg>
