<?xml version="1.0" standalone="no"?>
<!DOCTYPE svg PUBLIC "-//W3C//DTD SVG 1.1//EN" "http://www.w3.org/Graphics/SVG/1.1/DTD/svg11.dtd" >
<svg xmlns="http://www.w3.org/2000/svg">
<metadata></metadata>
<defs>
<font id="helvneue_for_ibmregular" horiz-adv-x="1085" >
<font-face units-per-em="2048" ascent="1462" descent="-586" />
<missing-glyph horiz-adv-x="487" />
<glyph unicode="&#xfb01;" horiz-adv-x="1011" d="M0 905v154h178v158q0 129 75 195.5t218 66.5q57 0 113 -17v-151q-43 14 -99 14q-67 0 -100 -26.5t-33 -92.5v-147h205v-154h-205v-905h-174v905h-178zM723 0v1059h174v-1059h-174zM723 1249v213h174v-213h-174z" />
<glyph unicode="&#xfb02;" horiz-adv-x="1011" d="M0 905v154h178v158q0 129 75 195.5t218 66.5q57 0 113 -17v-151q-43 14 -99 14q-67 0 -100 -26.5t-33 -92.5v-147h205v-154h-205v-905h-174v905h-178zM723 0v1462h174v-1462h-174z" />
<glyph horiz-adv-x="1024" />
<glyph horiz-adv-x="1024" />
<glyph horiz-adv-x="682" />
<glyph unicode="&#xd;" horiz-adv-x="0" />
<glyph unicode=" "  horiz-adv-x="487" />
<glyph unicode="&#x09;" horiz-adv-x="487" />
<glyph unicode="&#xa0;" horiz-adv-x="487" />
<glyph unicode="!" horiz-adv-x="505" d="M139 0v227h228v-227h-228zM156 1012v450h194v-450l-51 -637h-92z" />
<glyph unicode="&#x22;" horiz-adv-x="761" d="M168 934v528h139v-528h-139zM455 934v528h139v-528h-139z" />
<glyph unicode="#" horiz-adv-x="1118" d="M61 422v139h220l43 307h-209v140h227l59 419h142l-60 -419h254l60 419h141l-59 -419h182v-140h-201l-43 -307h187v-139h-207l-60 -422h-141l59 422h-254l-59 -422h-141l59 422h-199zM422 561h254l43 307h-254z" />
<glyph unicode="$" horiz-adv-x="1083" d="M29 446h174q4 -132 82.5 -214t206.5 -103v543q-115 29 -188.5 58.5t-128.5 75t-79 108.5t-24 153q0 182 119.5 300t300.5 130v135h112v-137q319 -39 404 -405h-174q-40 202 -230 237v-504l123 -32q37 -10 75 -26t85 -48t82 -72t59.5 -101.5t24.5 -133.5q0 -193 -124 -310 t-325 -135v-168h-112v168q-204 20 -325 144.5t-138 336.5zM256 1085q0 -52 16.5 -90.5t51 -64.5t73 -43t95.5 -33v479q-105 -11 -170.5 -74t-65.5 -174zM604 129q122 8 193 72t71 190q0 56 -19 98t-58.5 70.5t-81 46.5t-105.5 37v-514z" />
<glyph unicode="%" horiz-adv-x="1937" d="M137 1036q0 69 10 128.5t34.5 113.5t61.5 91.5t95 60t131 22.5q328 0 328 -410q0 -83 -18.5 -154.5t-56 -130.5t-102.5 -92.5t-151 -33.5q-89 0 -155 31.5t-103.5 88t-55.5 127.5t-18 158zM291 1040q0 -297 172 -297q180 0 180 299q0 297 -174 297q-178 0 -178 -299z M334 -45l1102 1524h174l-1100 -1524h-176zM1149 381q0 69 10 128.5t34.5 113.5t61.5 91.5t95 60t131 22.5q327 0 327 -410q0 -83 -18 -154.5t-55.5 -130.5t-102.5 -93t-151 -34q-89 0 -155 31.5t-103.5 88.5t-55.5 128t-18 158zM1303 385q0 -297 172 -297q180 0 180 299 q0 297 -174 297q-178 0 -178 -299z" />
<glyph unicode="&#x26;" horiz-adv-x="1292" d="M66 375q0 82 26 150t77 121t106 91.5t133 79.5q-8 11 -46.5 62.5t-48.5 69t-31.5 58t-28.5 76.5t-7 78q0 125 88 213t241 88q94 0 173 -32.5t130.5 -102t51.5 -164.5q0 -219 -275 -379l265 -321q41 113 47 227h166q-11 -123 -29.5 -186.5t-69.5 -173.5l285 -330h-227 l-156 182q-64 -99 -176.5 -153t-237.5 -54q-112 0 -198.5 31t-133.5 75t-76.5 102.5t-38.5 103.5t-9 88zM250 377q0 -107 84 -177.5t194 -70.5q97 0 176.5 46t135.5 128l-336 404q-60 -33 -99 -60.5t-78 -67t-58 -90t-19 -112.5zM420 1153q0 -18 4 -36.5t13.5 -39 t17.5 -35.5t25 -38.5t25 -34t29 -37t27 -33.5q44 29 68 47t59 51.5t51.5 72t16.5 83.5q0 65 -46 110.5t-122 45.5q-68 0 -118 -40.5t-50 -115.5z" />
<glyph unicode="'" horiz-adv-x="530" d="M199 934v528h139v-528h-139z" />
<glyph unicode="(" horiz-adv-x="538" d="M96 553q0 244 83 490t239 454h133q-143 -225 -206.5 -454.5t-63.5 -489.5q0 -265 63.5 -497.5t206.5 -461.5h-133q-159 246 -240.5 475t-81.5 484z" />
<glyph unicode=")" horiz-adv-x="538" d="M-14 -406q143 225 206.5 455t63.5 490q0 265 -63.5 497t-206.5 461h133q158 -245 239.5 -474t81.5 -484q0 -245 -82.5 -491t-238.5 -454h-133z" />
<glyph unicode="*" horiz-adv-x="710" d="M43 1214l37 99l217 -82v231h109v-231l219 82l41 -99l-224 -77l136 -187l-84 -63l-142 196l-133 -196l-92 63l133 187z" />
<glyph unicode="+" horiz-adv-x="1212" d="M90 449v139h447v448h139v-448h446v-139h-446v-449h-139v449h-447z" />
<glyph unicode="," horiz-adv-x="432" d="M102 0v227h228v-207q0 -254 -226 -321v102q63 23 93.5 82t25.5 117h-121z" />
<glyph unicode="-" horiz-adv-x="811" d="M109 487v164h591v-164h-591z" />
<glyph unicode="." horiz-adv-x="432" d="M102 0v227h228v-227h-228z" />
<glyph unicode="/" horiz-adv-x="692" d="M-33 -35l606 1532h150l-606 -1532h-150z" />
<glyph unicode="0" horiz-adv-x="1138" d="M86 713q0 62 1.5 110t7 111.5t15.5 112.5t28 105t42.5 97.5t61 81.5t82.5 65t108.5 40.5t136.5 15.5t136.5 -15.5t108.5 -40.5t82.5 -65t61.5 -81.5t43 -97.5t28 -105t15.5 -112.5t7 -111.5t1.5 -110q0 -81 -2.5 -142.5t-14 -142.5t-30.5 -140.5t-55.5 -121.5 t-86.5 -101.5t-125 -64.5t-170 -25q-74 0 -136.5 15.5t-108.5 40.5t-82.5 65t-61 81.5t-42.5 97t-28 104.5t-15.5 112.5t-7 111.5t-1.5 110zM270 715q0 -75 2 -121t9.5 -125.5t27 -130t50.5 -103.5t85 -79.5t125 -26.5t125 26.5t85 79.5t50.5 103.5t27 130t9.5 125.5t2 121 q0 63 -1 101.5t-6.5 107t-16.5 112.5t-33 98.5t-53 86.5t-79.5 54.5t-109.5 22.5t-109.5 -22.5t-79.5 -54.5t-53 -86.5t-33 -98.5t-16.5 -112.5t-6.5 -107t-1 -101.5z" />
<glyph unicode="1" horiz-adv-x="811" d="M92 1040v140q64 0 116.5 7t105 25.5t90.5 48t66.5 78.5t39.5 113h133v-1452h-174v1040h-377z" />
<glyph unicode="2" horiz-adv-x="1087" d="M61 0q8 99 34.5 181.5t60.5 139.5t90 110t103.5 86.5t119.5 76.5q63 39 99 62.5t81.5 56.5t70 56.5t51.5 55.5t39.5 62.5t21 68t8.5 80.5q0 116 -81.5 189t-199.5 73q-73 0 -130 -31.5t-90 -83.5t-49 -115t-14 -130h-174q-12 226 114.5 370t352.5 144q95 0 177.5 -28 t144.5 -79.5t97.5 -131.5t35.5 -179q0 -74 -20.5 -139.5t-50.5 -112.5t-81 -95t-93 -78.5t-107 -71.5q-19 -11 -67 -39.5t-69 -41.5t-62 -40.5t-62 -45t-51 -45.5t-46 -52t-30.5 -55t-20.5 -64h746v-154h-949z" />
<glyph unicode="3" horiz-adv-x="1140" d="M84 449h174q5 -146 84.5 -233t224.5 -87q132 0 224 77t92 204q0 132 -87.5 205t-222.5 73q-55 0 -104 -6v147q14 -2 39 -2h37q117 0 196.5 63t79.5 175t-71.5 172.5t-186.5 60.5q-134 0 -204 -89.5t-70 -225.5h-174q8 215 122 342t326 127q130 0 227.5 -40.5 t156.5 -129.5t59 -219q0 -94 -56.5 -171.5t-144.5 -117.5v-4q129 -28 195.5 -122.5t66.5 -229.5q0 -140 -69 -242t-180.5 -151.5t-250.5 -49.5q-224 0 -355.5 125.5t-127.5 348.5z" />
<glyph unicode="4" horiz-adv-x="1101" d="M51 340v168l662 944h139v-958h197v-154h-197v-340h-164v340h-637zM201 494h487v710h-4z" />
<glyph unicode="5" horiz-adv-x="1103" d="M61 391h175q8 -114 92 -188t213 -74q132 0 219.5 90t87.5 254q0 144 -91 237t-237 93q-156 0 -270 -137l-150 8l136 753h716v-153h-585l-78 -418l4 -4q45 51 118.5 77.5t151.5 26.5q98 0 182.5 -31.5t148.5 -91.5t101 -156t37 -218q0 -94 -32.5 -179.5t-94 -154.5 t-160.5 -109.5t-221 -40.5q-127 0 -230 48.5t-166.5 144.5t-66.5 223z" />
<glyph unicode="6" horiz-adv-x="1153" d="M94 674q0 126 15.5 235t54 211t98 174t153.5 115t214 43q180 0 286 -96t123 -275h-174q-12 100 -76 158.5t-167 58.5q-61 0 -112 -19t-86 -50.5t-62.5 -77t-44 -93t-27.5 -104.5t-15.5 -105t-5.5 -101l4 -5q118 191 363 191q205 0 324.5 -132.5t119.5 -338.5 q0 -67 -14.5 -132.5t-51 -131t-90 -114.5t-138.5 -79.5t-191 -30.5q-500 0 -500 699zM301 453q0 -139 81 -231.5t220 -92.5q136 0 214.5 93.5t78.5 228.5q0 143 -75 236t-218 93q-141 0 -221 -92.5t-80 -234.5z" />
<glyph unicode="7" horiz-adv-x="944" d="M2 1264v163h940v-149q-221 -218 -379 -579t-178 -699h-195q24 355 179 682.5t395 581.5h-762z" />
<glyph unicode="8" horiz-adv-x="1138" d="M82 418q0 130 66 225t188 137q-92 37 -147.5 119.5t-55.5 181.5q0 115 60.5 201t156 128t209.5 42t201.5 -31.5t138 -85t75.5 -117.5t25 -137q0 -98 -54.5 -178.5t-145.5 -122.5q258 -82 258 -362q0 -137 -65 -239t-173.5 -153t-243.5 -51q-142 0 -251.5 48t-175.5 150 t-66 245zM266 410q0 -129 86 -205t223 -76q130 0 213.5 80.5t83.5 202.5q0 116 -87.5 196t-211.5 80q-132 0 -219.5 -76.5t-87.5 -201.5zM317 1075q0 -113 73 -173t185 -60q107 0 173.5 62.5t66.5 170.5q0 107 -67.5 165t-176.5 58t-181.5 -59t-72.5 -164z" />
<glyph unicode="9" horiz-adv-x="1142" d="M72 979q0 209 133 341t344 132q85 0 155.5 -19t136 -67.5t109.5 -125.5t70.5 -199.5t26.5 -282.5q0 -783 -504 -783q-188 0 -306 96t-135 279h174q10 -103 85 -162t182 -59q159 0 239 138.5t88 422.5l-4 4q-50 -92 -140 -146t-196 -54q-218 0 -338 132.5t-120 352.5z M256 954q0 -122 82 -214.5t205 -92.5q133 0 215 93.5t82 226.5q0 141 -79.5 236t-219.5 95q-75 0 -131.5 -28.5t-89 -77.5t-48.5 -109t-16 -129z" />
<glyph unicode=":" horiz-adv-x="555" d="M164 0v227h227v-227h-227zM164 831v228h227v-228h-227z" />
<glyph unicode=";" horiz-adv-x="550" d="M158 0v227h227v-207q3 -253 -225 -321v102q63 23 93.5 82t25.5 117h-121zM158 831v228h227v-228h-227z" />
<glyph unicode="&#x3c;" horiz-adv-x="1212" d="M86 455v127l1040 471v-140l-870 -395l870 -395v-139z" />
<glyph unicode="=" horiz-adv-x="1214" d="M92 242v139h1032v-139h-1032zM92 655v140h1032v-140h-1032z" />
<glyph unicode="&#x3e;" horiz-adv-x="1212" d="M86 -16v139l870 395l-870 395v140l1040 -471v-127z" />
<glyph unicode="?" horiz-adv-x="1064" d="M88 1006q-5 214 121.5 352.5t337.5 138.5q194 0 313 -109t119 -301q0 -61 -13.5 -111.5t-43 -95.5t-53 -71.5t-66.5 -69.5q-45 -42 -67 -64.5t-53 -63t-44.5 -83t-13.5 -92.5v-80h-174v97q3 69 24.5 127.5t53 99t69 78t73.5 72.5t65 72.5t45.5 89t13.5 112.5 q-8 113 -73 176t-175 63q-141 0 -213 -93.5t-72 -243.5h-174zM422 0v227h227v-227h-227z" />
<glyph unicode="@" horiz-adv-x="1617" d="M80 737q0 155 60.5 295.5t163 242.5t243 162t293.5 60q189 0 347.5 -80t253.5 -225.5t95 -325.5q0 -102 -31.5 -197t-82.5 -165.5t-114 -124t-128.5 -80.5t-122.5 -27q-56 0 -91.5 34t-39.5 100h-6q-121 -138 -254 -138q-129 0 -211 93.5t-82 230.5q0 107 35 211 t96.5 186.5t153 133.5t196.5 51q165 0 229 -168l47 129h130l-173 -582q-22 -77 -22 -104q0 -64 49 -64q61 0 127.5 71t111 182.5t44.5 217.5q0 118 -46.5 218.5t-123.5 167.5t-177 104.5t-208 37.5q-129 0 -245 -52.5t-198.5 -141.5t-131 -210t-48.5 -253q0 -135 51 -256 t136.5 -206.5t202 -136t243.5 -50.5q145 0 282.5 67.5t225.5 180.5h129q-100 -168 -271.5 -264.5t-369.5 -96.5q-159 0 -301.5 60t-245 163t-162 246t-59.5 303zM526 606q0 -87 49 -142.5t127 -55.5q64 0 124.5 44t102 110t66.5 142t25 140q0 74 -51 132t-115 58 q-68 0 -131 -42t-105 -105.5t-67 -138.5t-25 -142z" />
<glyph unicode="A" horiz-adv-x="1335" d="M-10 0l571 1462h215l572 -1462h-215l-160 440h-619l-164 -440h-200zM416 604h495l-243 682h-4z" />
<glyph unicode="B" horiz-adv-x="1361" d="M139 0v1462h531q90 0 143 -1.5t128.5 -14.5t115.5 -37q77 -46 124.5 -124t47.5 -181q0 -116 -57 -201t-160 -127v-4q133 -29 205.5 -122t72.5 -230q0 -81 -29.5 -155.5t-83.5 -134t-140 -95t-191 -35.5h-707zM334 164h487q128 0 201.5 70.5t73.5 191.5q0 69 -26 118 t-72 75.5t-100 38.5t-120 12h-444v-506zM334 834h389q163 0 237 57t74 176q0 50 -11 88t-32.5 63t-48 41.5t-64 24.5t-73 11t-82.5 3h-389v-464z" />
<glyph unicode="C" horiz-adv-x="1439" d="M72 727q0 128 28.5 243.5t86 211.5t139 166.5t194 109.5t244.5 39q155 0 282 -53t213 -162t107 -260h-195q-31 151 -141 231t-268 80q-101 0 -184.5 -32.5t-140.5 -88t-96 -131.5t-57 -161t-18 -179q0 -102 18 -192t57 -167.5t96.5 -133.5t141 -87.5t185.5 -31.5 q186 0 298 117.5t124 304.5h194q-30 -278 -193 -432t-439 -154q-166 0 -296 59t-212.5 163t-125 241t-42.5 299z" />
<glyph unicode="D" horiz-adv-x="1417" d="M139 0v1462h502q342 0 522 -174t180 -522q0 -766 -702 -766h-502zM334 164h323q36 0 70 3t85.5 17t94.5 36.5t89.5 66t78.5 102.5t53 149t21 201q0 273 -114 416t-373 143h-328v-1134z" />
<glyph unicode="E" horiz-adv-x="1236" d="M139 0v1462h1010v-164h-815v-464h760v-164h-760v-506h821v-164h-1016z" />
<glyph unicode="F" horiz-adv-x="1150" d="M139 0v1462h961v-164h-766v-464h672v-164h-672v-670h-195z" />
<glyph unicode="G" horiz-adv-x="1540" d="M72 702q0 129 27.5 246.5t84.5 217.5t138.5 173.5t196 115.5t249.5 42q122 0 225.5 -28t187.5 -85.5t140.5 -152t75.5 -219.5h-195q-28 160 -145 240.5t-289 80.5q-103 0 -188 -35t-142 -94t-96.5 -139t-57.5 -168t-18 -184q0 -116 33 -220.5t95 -186t159 -129.5t215 -48 q222 0 350 135q119 128 119 318v24h-467v164h641v-770h-123l-51 182q-82 -109 -207.5 -163t-261.5 -54q-159 0 -292 61t-220 164t-135.5 235.5t-48.5 276.5z" />
<glyph unicode="H" horiz-adv-x="1437" d="M139 0v1462h195v-628h770v628h194v-1462h-194v670h-770v-670h-195z" />
<glyph unicode="I" horiz-adv-x="487" d="M145 0v1462h195v-1462h-195z" />
<glyph unicode="J" horiz-adv-x="1036" d="M39 391v90h194v-61q0 -141 51.5 -216t184.5 -75q127 0 180 67t53 197v1069h195v-1097q0 -62 -13 -117.5t-45 -108t-80 -90.5t-123.5 -61t-170.5 -23q-205 0 -315.5 110t-110.5 316z" />
<glyph unicode="K" horiz-adv-x="1345" d="M139 0v1462h195v-729l741 729h252l-616 -590l641 -872h-246l-528 739l-244 -227v-512h-195z" />
<glyph unicode="L" horiz-adv-x="1155" d="M139 0v1462h195v-1298h774v-164h-969z" />
<glyph unicode="M" horiz-adv-x="1728" d="M135 0v1462h266l461 -1229l463 1229h266v-1462h-184v1217h-4l-457 -1217h-166l-456 1217h-5v-1217h-184z" />
<glyph unicode="N" horiz-adv-x="1443" d="M139 0v1462h207l770 -1186h4v1186h185v-1462h-213l-764 1174h-4v-1174h-185z" />
<glyph unicode="O" horiz-adv-x="1536" d="M68 731q0 121 27.5 233t85.5 209t139.5 169t196.5 113.5t251 41.5t251 -41.5t196.5 -113.5t139.5 -169t85.5 -209t27.5 -233t-27.5 -233t-85.5 -209t-139.5 -169t-196.5 -113.5t-251 -41.5t-251 41.5t-196.5 113.5t-139.5 169t-85.5 209t-27.5 233zM262 731 q0 -115 30 -219.5t89 -191.5t159 -139t228 -52t228 52t159 139t89 191.5t30 219.5t-30 219.5t-89 191.5t-159 139t-228 52t-228 -52t-159 -139t-89 -191.5t-30 -219.5z" />
<glyph unicode="P" horiz-adv-x="1294" d="M139 0v1462h641q218 0 333.5 -113t115.5 -319q1 -206 -115 -320q-114 -113 -330 -112h-4h-446v-598h-195zM334 762h381h7q312 0 312 268t-319 268h-381v-536z" />
<glyph unicode="Q" horiz-adv-x="1533" d="M66 731q0 121 27.5 233t85.5 209t139.5 169t196.5 113.5t251 41.5t251 -41.5t196.5 -113.5t139.5 -169t85.5 -209t27.5 -233q0 -171 -56.5 -322.5t-164.5 -258.5l193 -154l-99 -123l-223 180q-146 -88 -350 -88q-136 0 -251 41.5t-196.5 113.5t-139.5 169t-85.5 209 t-27.5 233zM260 731q0 -115 30 -219.5t89 -191.5t159 -139t228 -52q107 0 203 41l-162 129l102 119l195 -156q83 83 125.5 206.5t42.5 262.5q0 115 -30 219.5t-89 191.5t-159 139t-228 52t-228 -52t-159 -139t-89 -191.5t-30 -219.5z" />
<glyph unicode="R" horiz-adv-x="1380" d="M139 0v1462h688q207 0 326 -103t119 -280q0 -140 -62.5 -237.5t-191.5 -132.5v-4q61 -12 103 -40t65 -72t33.5 -86.5t17.5 -103.5q1 -18 4.5 -83.5t7 -94.5t11.5 -78t24 -84t39 -63h-217q-24 26 -30.5 82t-9 139.5t-13.5 138.5q-8 50 -16 82.5t-25.5 70.5t-42 60t-65 37 t-95.5 15h-475v-625h-195zM334 788h405q73 0 129.5 11.5t106 39t76 80.5t26.5 130q0 114 -64.5 181.5t-195.5 67.5h-483v-510z" />
<glyph unicode="S" horiz-adv-x="1292" d="M57 481h185q0 -89 35 -158t95.5 -110.5t135.5 -62.5t160 -21q72 0 133 12.5t117 41t88 82.5t32 130q0 64 -32 110.5t-86 74.5t-124.5 48.5t-148 36.5t-155 34t-148 46.5t-124.5 68t-86 104.5t-32 151t29.5 157.5t80 121t119 83.5t144.5 50t158 16q114 0 209 -27.5 t168 -82.5t115 -145t46 -208h-184q-33 299 -362 299q-66 0 -122 -13t-103.5 -40.5t-75 -78t-27.5 -118.5q0 -57 32 -99t86 -66.5t124.5 -43t148 -35t155 -35.5t148 -51t124.5 -75.5t86 -114t32 -162.5q0 -90 -34 -164.5t-90 -124t-131 -83.5t-154.5 -49t-161.5 -15 q-126 0 -233.5 31.5t-191.5 93t-132 162t-48 229.5z" />
<glyph unicode="T" horiz-adv-x="1263" d="M47 1298v164h1170v-164h-488v-1298h-194v1298h-488z" />
<glyph unicode="U" horiz-adv-x="1431" d="M127 528v934h195v-934q0 -194 104.5 -296.5t300.5 -102.5q186 0 283.5 102t97.5 297v934h195v-934q0 -276 -149 -419.5t-427 -143.5q-290 0 -445 139t-155 424z" />
<glyph unicode="V" horiz-adv-x="1257" d="M0 1462h211l418 -1267h4l422 1267h202l-520 -1462h-221z" />
<glyph unicode="W" horiz-adv-x="1847" d="M-2 1462h199l286 -1216h4l328 1216h211l324 -1216h4l297 1216h194l-391 -1462h-203l-333 1229h-5l-338 -1229h-202z" />
<glyph unicode="X" horiz-adv-x="1224" d="M-16 0l510 752l-482 710h234l364 -571l381 571h217l-483 -710l514 -752h-238l-393 604l-405 -604h-219z" />
<glyph unicode="Y" horiz-adv-x="1298" d="M-10 1462h231l438 -696l428 696h222l-559 -864v-598h-195v598z" />
<glyph unicode="Z" horiz-adv-x="1261" d="M49 0v164l909 1134h-839v164h1069v-164l-907 -1134h931v-164h-1163z" />
<glyph unicode="[" horiz-adv-x="522" d="M141 -406v1903h383v-139h-219v-1624h219v-140h-383z" />
<glyph unicode="\" horiz-adv-x="692" d="M-33 1497h150l606 -1532h-150z" />
<glyph unicode="]" horiz-adv-x="522" d="M-2 -266h219v1624h-219v139h383v-1903h-383v140z" />
<glyph unicode="^" horiz-adv-x="1214" d="M94 541l447 886h131l446 -886h-143l-371 737l-364 -737h-146z" />
<glyph unicode="_" horiz-adv-x="1007" d="M-8 -154h1024v-102h-1024v102z" />
<glyph unicode="`" horiz-adv-x="391" d="M-84 1499h223l176 -293h-131z" />
<glyph unicode="a" d="M57 272q0 69 21 122.5t52.5 86.5t82.5 57.5t95.5 36t107.5 23.5q38 8 91 16t86.5 12.5t71 14t58.5 22.5t35 36t14 55q0 55 -20.5 92t-57.5 54t-73.5 23.5t-83.5 6.5q-121 0 -190 -45.5t-75 -155.5h-174q3 77 28 137.5t65.5 100.5t97.5 66.5t120.5 38t137.5 11.5 q63 0 115 -6t106.5 -25t91.5 -49.5t60.5 -84t23.5 -125.5v-545q0 -31 0.5 -44.5t3 -32t8.5 -25t16.5 -12t26.5 -5.5q24 0 54 10v-135q-50 -29 -125 -29q-70 0 -109 40t-39 124q-137 -164 -372 -164q-156 0 -253.5 73t-97.5 224zM242 285q0 -81 58 -118.5t146 -37.5 q82 0 146.5 23.5t102 60t56.5 77t19 79.5v178q-35 -26 -105.5 -40t-139.5 -21.5t-135 -24t-107 -60t-41 -116.5z" />
<glyph unicode="b" horiz-adv-x="1181" d="M111 0v1462h174v-547h4q41 84 131.5 126t206.5 42q119 0 213 -44.5t153 -122t90 -177t31 -213.5q0 -115 -30.5 -213.5t-89 -174.5t-152 -119.5t-211.5 -43.5q-95 0 -192.5 40.5t-149.5 125.5h-4v-141h-174zM279 530q0 -81 19 -150.5t57 -127t104 -90.5t153 -33 q86 0 149.5 34.5t99 94t52.5 129.5t17 152q0 77 -20 145.5t-59 124t-103.5 88.5t-145.5 33q-68 0 -123.5 -23t-92 -61t-61.5 -90t-35.5 -108.5t-10.5 -117.5z" />
<glyph unicode="c" horiz-adv-x="1089" d="M63 516q0 121 31.5 223t92 179.5t157 121t219.5 43.5q124 0 220 -37.5t160 -121t77 -205.5h-180q-21 101 -88 156t-174 55q-73 0 -130.5 -23t-94.5 -61t-61 -92.5t-34 -112.5t-10 -125q0 -77 17.5 -144t53.5 -122.5t97 -88t141 -32.5q126 0 199.5 67.5t91.5 190.5h178 q-30 -197 -149 -304.5t-318 -107.5q-237 0 -366.5 148t-129.5 393z" />
<glyph unicode="d" horiz-adv-x="1177" d="M63 532q0 114 30.5 212.5t89.5 174.5t152.5 120t211.5 44q95 0 192.5 -40t149.5 -125h4v544h174v-1462h-174v143h-4q-41 -84 -131.5 -126t-206.5 -42q-95 0 -175.5 29t-137.5 80.5t-97 122t-59 152.5t-19 173zM248 520q0 -77 20 -145.5t58.5 -124t103 -88.5t145.5 -33 q85 0 149.5 34t101.5 92t55 127t18 146q0 64 -11.5 121.5t-37 109.5t-64 89.5t-95 59.5t-126.5 22q-69 0 -124 -23t-90.5 -61.5t-59 -92t-33.5 -111t-10 -122.5z" />
<glyph unicode="e" horiz-adv-x="1101" d="M59 532q0 239 140.5 395t357.5 156q91 0 166.5 -27t127 -73.5t90 -106t59.5 -129t30 -136.5q7 -51 7 -101q0 -17 -1 -33h-792v-13q0 -63 17 -119q19 -62 58 -110.5t104.5 -77t149.5 -28.5q110 0 181 52t94 155h172q-35 -175 -153 -268t-300 -93q-164 0 -278.5 73 t-169.5 196t-60 288zM244 631h608q-8 127 -92.5 213t-212.5 86q-131 0 -213 -85.5t-90 -213.5z" />
<glyph unicode="f" horiz-adv-x="563" d="M0 905v154h178v158q0 129 75 195.5t218 66.5q57 0 113 -17v-151q-43 14 -99 14q-67 0 -100 -26.5t-33 -92.5v-147h205v-154h-205v-905h-174v905h-178z" />
<glyph unicode="g" horiz-adv-x="1142" d="M61 524q0 79 15 154.5t51.5 150t91 130t140.5 90t192 34.5q102 0 185.5 -45t129.5 -131h2v152h164v-969q0 -261 -120.5 -390.5t-370.5 -129.5q-79 0 -152 17t-137.5 52t-105 97.5t-44.5 144.5h174q3 -59 49.5 -99.5t105 -56.5t120.5 -16q163 0 240 107t77 295v69h-4 q-43 -93 -133 -142.5t-196 -49.5q-115 0 -206.5 43t-149 117t-88 170t-30.5 206zM246 545q0 -76 15 -144t48 -128.5t93.5 -96t142.5 -35.5t145 35.5t99 95.5t53.5 130.5t17.5 148.5q0 73 -17 138t-51 120.5t-94 88t-139 32.5q-81 0 -142.5 -31t-98 -85.5t-54.5 -122 t-18 -146.5z" />
<glyph unicode="h" horiz-adv-x="1093" d="M109 0v1462h174v-559h4q20 46 57.5 82t84 56.5t95 31t97.5 10.5q102 0 174 -28t113 -81t59 -121t18 -157v-696h-174v717q0 98 -57.5 155.5t-157.5 57.5q-153 0 -233 -91.5t-80 -240.5v-598h-174z" />
<glyph unicode="i" horiz-adv-x="401" d="M113 0v1059h174v-1059h-174zM113 1249v213h174v-213h-174z" />
<glyph unicode="j" horiz-adv-x="405" d="M-61 -248q24 -4 34 -4h37q57 0 78 32t21 114v1165h174v-1194q0 -137 -66.5 -204t-187.5 -67q-44 0 -90 9v149zM109 1249v213h174v-213h-174z" />
<glyph unicode="k" horiz-adv-x="1024" d="M121 0v1462h174v-866l483 463h234l-420 -385l450 -674h-221l-362 553l-164 -152v-401h-174z" />
<glyph unicode="l" horiz-adv-x="403" d="M115 0v1462h174v-1462h-174z" />
<glyph unicode="m" horiz-adv-x="1710" d="M113 0v1059h163v-156h5q119 180 342 180q106 0 182.5 -43.5t107.5 -136.5q54 86 141.5 133t190.5 47q166 0 259 -74.5t93 -232.5v-776h-174v694q0 54 -8.5 93t-29.5 73.5t-62.5 52t-103.5 17.5q-127 0 -202 -74t-75 -197v-659h-174v694q0 113 -44.5 174.5t-154.5 61.5 q-58 0 -107.5 -20.5t-80.5 -51.5t-53 -68.5t-31.5 -71t-9.5 -59.5v-659h-174z" />
<glyph unicode="n" horiz-adv-x="1093" d="M109 0v1059h163v-168h4q108 192 345 192q102 0 174 -28t113 -81t59 -121t18 -157v-696h-174v717q0 98 -57.5 155.5t-157.5 57.5q-153 0 -233 -91.5t-80 -240.5v-598h-174z" />
<glyph unicode="o" horiz-adv-x="1155" d="M63 528q0 117 33.5 218t97.5 176t162.5 118t221.5 43q163 0 281 -74.5t175.5 -198.5t57.5 -282q0 -157 -57.5 -280.5t-175.5 -198t-281 -74.5t-281.5 74.5t-176 198t-57.5 280.5zM248 528q0 -186 94 -292.5t236 -106.5t235.5 106.5t93.5 292.5t-93.5 294t-235.5 108 t-236 -108t-94 -294z" />
<glyph unicode="p" horiz-adv-x="1177" d="M111 -406v1465h174v-144h4q41 84 131.5 126t206.5 42q119 0 213 -44.5t153 -122t90 -177t31 -213.5q0 -115 -30.5 -213.5t-89 -174.5t-152 -119.5t-211.5 -43.5q-95 0 -192.5 40.5t-149.5 125.5h-4v-547h-174zM279 530q0 -81 19 -150.5t57 -127t104 -90.5t153 -33 q86 0 149.5 34.5t99 94t52.5 129.5t17 152q0 77 -20 145.5t-59 124t-103.5 88.5t-145.5 33q-68 0 -123.5 -23t-92 -61t-61.5 -90t-35.5 -108.5t-10.5 -117.5z" />
<glyph unicode="q" horiz-adv-x="1177" d="M66 532q0 114 30.5 212.5t89 174.5t152 120t211.5 44q95 0 192.5 -40t149.5 -125h4v141h174v-1465h-174v549h-4q-41 -84 -131.5 -126t-206.5 -42q-119 0 -213 44.5t-153 122t-90 177t-31 213.5zM250 520q0 -77 20 -145.5t59 -124t103.5 -88.5t145.5 -33q69 0 124 22.5 t91.5 61t61.5 90.5t35.5 108t10.5 117q0 64 -11.5 121.5t-37 109.5t-64 89.5t-95 59.5t-126.5 22q-69 0 -124 -23t-90.5 -61.5t-59 -92t-33.5 -111t-10 -122.5z" />
<glyph unicode="r" horiz-adv-x="661" d="M109 0v1059h163v-223h4q64 131 158 191q88 56 215 56h17v-184q-204 0 -293.5 -108.5t-89.5 -319.5v-471h-174z" />
<glyph unicode="s" horiz-adv-x="1007" d="M53 334h174q2 -56 26.5 -97.5t66 -64t89 -33t103.5 -10.5q47 0 87 6.5t81 22.5t64.5 49t23.5 80q0 55 -38 91t-99 55t-135 34t-148 35t-135 50.5t-99 88.5t-38 141q0 62 23.5 113t62 85t90 58t107 34.5t112.5 10.5q94 0 166.5 -16t132.5 -52.5t94.5 -102.5t40.5 -160 h-174q-4 48 -26.5 84t-58.5 56t-76 29t-85 9q-58 0 -105.5 -11t-83.5 -42.5t-36 -81.5q0 -20 6 -37.5t19.5 -31.5t27.5 -25t38.5 -21.5t43 -17.5t50.5 -15t51.5 -12.5t55.5 -12.5l54 -12q60 -14 103.5 -27t92.5 -37.5t79.5 -54.5t50.5 -76.5t20 -105.5q0 -74 -26.5 -132 t-70 -95.5t-102.5 -62t-121 -34.5t-130 -10q-93 0 -170 20t-139.5 61t-99 112t-40.5 166z" />
<glyph unicode="t" horiz-adv-x="630" d="M6 905v154h180v317h174v-317h211v-154h-211v-657q0 -61 24.5 -77.5t107.5 -16.5h79v-154h-133q-72 0 -116 8.5t-76.5 33.5t-46 70.5t-13.5 118.5v674h-180z" />
<glyph unicode="u" horiz-adv-x="1093" d="M109 362v697h174v-717q0 -98 57.5 -155.5t157.5 -57.5q153 0 233 91.5t80 240.5v598h174v-1059h-164v168h-4q-109 -193 -344 -193q-102 0 -174 28t-113 81t-59 121t-18 157z" />
<glyph unicode="v" horiz-adv-x="983" d="M0 1059h195l297 -883h4l288 883h183l-387 -1059h-187z" />
<glyph unicode="w" horiz-adv-x="1515" d="M16 1059h193l240 -866h4l213 866h190l221 -866h4l238 866h180l-338 -1059h-184l-215 842h-4l-213 -842h-189z" />
<glyph unicode="x" horiz-adv-x="1009" d="M-6 0l397 557l-368 502h223l254 -371l264 371h209l-365 -488l410 -571h-223l-295 438l-295 -438h-211z" />
<glyph unicode="y" horiz-adv-x="1007" d="M0 1059h197l309 -866h4l297 866h184l-461 -1200q-63 -159 -128 -221t-179 -62q-71 0 -121 18v160q79 -24 103 -24q52 0 84.5 23t58.5 73l72 180z" />
<glyph unicode="z" horiz-adv-x="960" d="M37 0v133l639 772h-598v154h823v-119l-647 -786h676v-154h-893z" />
<glyph unicode="{" horiz-adv-x="671" d="M92 475v139q68 0 119 69t51 173v373q0 122 68.5 195t152.5 73h144v-123h-103q-98 0 -98 -176v-375q0 -66 -20.5 -120.5t-51.5 -85t-58 -47t-48 -21.5v-6q16 -2 36.5 -10.5t46 -29.5t46.5 -50t35 -77.5t14 -107.5v-374q0 -177 98 -177h103v-123h-144q-84 0 -152.5 73.5 t-68.5 195.5v373q0 108 -50.5 173.5t-119.5 65.5z" />
<glyph unicode="|" horiz-adv-x="428" d="M145 -438v2048h140v-2048h-140z" />
<glyph unicode="}" horiz-adv-x="671" d="M43 -283h102q99 0 99 177v374q0 66 20.5 120.5t51.5 85.5t58 47.5t48 21.5v6q-16 2 -36.5 10.5t-46.5 29t-46.5 50t-34.5 77.5t-14 107v371q0 180 -99 180h-102v123h143q84 0 153 -73t69 -195v-373q0 -108 50.5 -175t119.5 -67v-139q-68 0 -119 -68t-51 -171v-373 q0 -122 -69 -195.5t-153 -73.5h-143v123z" />
<glyph unicode="~" horiz-adv-x="1208" d="M131 469q86 176 256 176q78 0 227 -65q20 -9 70.5 -34t82 -36.5t56.5 -11.5q14 0 26.5 2.5t25 9.5t21.5 12t21 17.5t18.5 18.5t19 23t16.5 23l17 25.5t16 23.5l73 -102q-26 -39 -48 -65.5t-53.5 -54.5t-70.5 -42t-84 -14q-92 0 -209 67q-42 25 -70.5 39t-74 27.5 t-90.5 13.5q-60 0 -100 -43t-72 -112z" />
<glyph unicode="&#xa1;" horiz-adv-x="505" d="M139 831v228h228v-228h-228zM156 45l51 637h92l51 -637v-451h-194v451z" />
<glyph unicode="&#xa2;" horiz-adv-x="1101" d="M78 516q0 151 50.5 273t157 202.5t255.5 91.5v195h80v-195q174 -5 283.5 -94.5t131.5 -269.5h-178q-21 96 -81 151.5t-156 59.5v-801q106 10 167.5 79t79.5 179h174q-9 -78 -40 -150t-82.5 -131.5t-129 -95t-169.5 -35.5v-213h-80v213q-146 5 -252 77.5t-158.5 192 t-52.5 271.5zM262 516q0 -73 16 -138t48.5 -119.5t87.5 -89t127 -40.5v801q-76 -10 -132 -47t-87 -95t-45.5 -125t-14.5 -147z" />
<glyph unicode="&#xa3;" d="M66 113q97 65 161 160t64 206q0 79 -51 191h-174v92h118q-96 161 -96 319q0 126 65 222t170.5 145t231.5 49q232 0 359.5 -134.5t123.5 -393.5h-174q-5 182 -79.5 278t-219.5 96q-124 0 -208.5 -76.5t-84.5 -191.5q0 -38 5.5 -72t19 -69t23 -56t30.5 -61t29 -55h326v-92 h-281q41 -77 41 -154q0 -53 -14.5 -102t-33.5 -83.5t-55 -74.5t-62.5 -63.5t-72.5 -61.5l4 -4q51 22 73 30.5t63 18.5t79 10q77 0 195 -30q6 -2 39 -12t46 -13t39 -7.5t48 -4.5q87 0 182 76l88 -136q-107 -94 -299 -94q-74 0 -202 41q-127 43 -215 43q-100 0 -205 -72z" />
<glyph unicode="&#xa4;" horiz-adv-x="1128" d="M45 297l113 119q-107 129 -107 299q0 192 111 303l-117 119l100 100l115 -115q60 50 141.5 77.5t167.5 27.5q81 0 159 -27.5t134 -75.5l117 115l102 -104l-112 -113q106 -112 106 -303q0 -183 -106 -307l112 -115l-96 -96l-115 118q-121 -112 -303 -112q-189 0 -311 110 l-113 -118zM225 715q0 -149 99.5 -252t242.5 -103q141 0 237.5 105t96.5 254q0 144 -96.5 249t-235.5 105q-146 0 -245 -103t-99 -255z" />
<glyph unicode="&#xa5;" horiz-adv-x="1122" d="M-6 1462h223l356 -723l347 723h213l-365 -706h190v-123h-258l-36 -68v-86h294v-123h-294v-356h-195v356h-289v123h289v86l-37 68h-252v123h189z" />
<glyph unicode="&#xa6;" horiz-adv-x="430" d="M145 -182v512h140v-512h-140zM145 842v512h140v-512h-140z" />
<glyph unicode="&#xa7;" horiz-adv-x="1101" d="M57 666q0 95 64 176t155 106q-94 100 -94 217q0 77 32.5 141t86.5 105t121.5 63.5t138.5 22.5q172 0 272.5 -96t104.5 -283h-174q-2 97 -57 161t-150 64q-87 0 -141 -44.5t-54 -131.5q0 -35 18 -68.5t42.5 -58t70.5 -55.5t80.5 -50t94.5 -51q23 -12 34 -18q50 -27 85 -48 t78 -51t71.5 -59.5t54.5 -66t38.5 -80t12.5 -92.5q0 -99 -59.5 -181.5t-153.5 -119.5q121 -89 121 -246q0 -146 -108 -237t-275 -91q-182 0 -290.5 103.5t-120.5 284.5h174q2 -105 65.5 -169.5t167.5 -64.5q83 0 145 44.5t62 125.5q0 21 -5.5 41t-13.5 37t-24.5 35t-30 32 t-38.5 31.5t-41.5 29t-47.5 29.5t-49 27.5t-53.5 28.5t-52.5 29q-63 34 -106 59.5t-94.5 67t-82.5 82t-52.5 98t-21.5 121.5zM225 674q0 -19 4 -37.5t8.5 -33t15.5 -30t18.5 -26t24 -25t25 -21.5t29.5 -21l28.5 -19t31.5 -19t30 -18q161 -84 287 -170q65 27 106 76t41 114 q0 21 -6.5 42t-14.5 37t-26 35t-28.5 30t-35.5 29t-35 24t-38 24t-33 21q-210 125 -282 174q-63 -21 -106.5 -72t-43.5 -114z" />
<glyph unicode="&#xa8;" horiz-adv-x="417" d="M-76 1233v213h185v-213h-185zM309 1233v213h185v-213h-185z" />
<glyph unicode="&#xa9;" horiz-adv-x="1619" d="M39 735q0 211 105 387t282 275.5t385 99.5q207 0 383 -99.5t280.5 -275.5t104.5 -387q0 -162 -61.5 -305.5t-165.5 -245t-245 -160.5t-296 -59q-156 0 -297.5 59t-246 160.5t-166.5 245t-62 305.5zM178 735q0 -138 48.5 -260.5t132.5 -209t201.5 -137t250.5 -50.5 q175 0 319 85.5t227 236.5t83 335q0 180 -83 329t-227.5 234.5t-318.5 85.5q-177 0 -322.5 -85.5t-228 -234.5t-82.5 -329zM381 731q0 208 120.5 337.5t327.5 129.5q152 0 256.5 -81t128.5 -230h-129q-18 88 -85.5 143t-168.5 55q-147 0 -229 -98t-82 -252q0 -96 37 -177.5 t110.5 -132t168.5 -50.5q101 0 168 57.5t81 151.5h132q-32 -148 -135.5 -235t-245.5 -87q-206 0 -330.5 132t-124.5 337z" />
<glyph unicode="&#xaa;" horiz-adv-x="659" d="M-6 961q0 51 21 89.5t57.5 61t77.5 35t90 16.5q153 19 194 32t41 54q0 32 -13 53.5t-37.5 31t-49 13t-58.5 3.5q-79 0 -122.5 -26t-47.5 -89h-122q4 111 88.5 164t212.5 53q51 0 94 -7.5t84 -26t64.5 -55t23.5 -89.5v-328q0 -37 6 -51t23 -14h22q11 0 23 4v-90 q-46 -17 -88 -17q-99 0 -105 94q-88 -94 -240 -94q-104 0 -171.5 46.5t-67.5 136.5zM133 965q0 -49 33.5 -66.5t93.5 -17.5q105 0 157 43.5t52 97.5v96q-15 -9 -41 -16.5t-48 -11.5t-59.5 -9.5t-56.5 -9.5q-65 -12 -98 -34.5t-33 -71.5z" />
<glyph unicode="&#xab;" horiz-adv-x="931" d="M102 479v180l312 246v-176l-205 -160l205 -159v-177zM504 479v180l311 246v-176l-205 -160l205 -159v-177z" />
<glyph unicode="&#xac;" horiz-adv-x="1212" d="M90 655v140h1032v-572h-139v432h-893z" />
<glyph unicode="&#xad;" horiz-adv-x="811" d="M109 487v164h591v-164h-591z" />
<glyph unicode="&#xae;" horiz-adv-x="1619" d="M39 735q0 211 105 387t282 275.5t385 99.5q207 0 383 -99.5t280.5 -275.5t104.5 -387q0 -162 -61.5 -305.5t-165.5 -245t-245 -160.5t-296 -59q-156 0 -297.5 59t-246 160.5t-166.5 245t-62 305.5zM178 735q0 -138 48.5 -260.5t132.5 -209t201.5 -137t250.5 -50.5 q175 0 319 85.5t227 236.5t83 335q0 181 -83 330t-227.5 234t-318.5 85q-133 0 -250.5 -50t-201.5 -136.5t-132.5 -206.5t-48.5 -256zM512 285v895h346q159 0 236 -63.5t77 -192.5q0 -115 -63.5 -174t-171.5 -70l256 -395h-150l-243 385h-148v-385h-139zM651 782h146 q45 0 73 1.5t62 10t53.5 23.5t33 43.5t13.5 69.5q0 43 -16.5 71.5t-47 42t-61.5 18.5t-71 5h-185v-285z" />
<glyph unicode="&#xaf;" horiz-adv-x="411" d="M-143 1284v113h698v-113h-698z" />
<glyph unicode="&#xb0;" horiz-adv-x="798" d="M104 1157q0 122 85.5 208.5t209.5 86.5q121 0 208 -87t87 -208q0 -124 -86.5 -209.5t-208.5 -85.5q-125 0 -210 85t-85 210zM207 1157q0 -77 52.5 -134.5t139.5 -57.5t140 58t53 134q0 77 -53 135t-140 58t-139.5 -58t-52.5 -135z" />
<glyph unicode="&#xb1;" horiz-adv-x="1212" d="M90 0v139h1032v-139h-1032zM90 555v139h447v340h139v-340h446v-139h-446v-342h-139v342h-447z" />
<glyph unicode="&#xb2;" horiz-adv-x="692" d="M31 573q3 60 19 109.5t36 82.5t57.5 66t65.5 51.5t78 47.5q58 34 87.5 53t64 45.5t49.5 48.5t25.5 52.5t10.5 66.5q0 65 -48 104t-122 39q-86 0 -127 -57t-41 -145h-139q0 142 85.5 228.5t227.5 86.5q129 0 216.5 -69.5t87.5 -188.5q0 -44 -14 -83t-34 -67.5t-53.5 -57.5 t-61.5 -47.5t-69 -41.5q-23 -14 -68.5 -40.5t-69.5 -41.5t-54 -37.5t-46.5 -44.5t-23.5 -47h481v-113h-620z" />
<glyph unicode="&#xb3;" horiz-adv-x="694" d="M18 848h140q2 -86 49.5 -131t138.5 -45q81 0 137 40t56 107q0 80 -55.5 119t-135.5 39h-67v102h49q74 0 122 32.5t48 100.5q0 60 -44 93.5t-114 33.5q-81 0 -122.5 -48.5t-41.5 -127.5h-139q8 134 87.5 211.5t215.5 77.5q132 0 214.5 -62.5t82.5 -177.5q0 -57 -39 -103 t-100 -71v-4q88 -17 133 -72.5t45 -136.5q0 -86 -48 -148t-121.5 -90t-162.5 -28q-143 0 -235.5 76t-92.5 213z" />
<glyph unicode="&#xb4;" horiz-adv-x="391" d="M76 1206l176 293h223l-268 -293h-131z" />
<glyph unicode="&#xb5;" horiz-adv-x="1093" d="M109 -406v1465h174v-717q0 -98 57.5 -155.5t157.5 -57.5q153 0 233 91.5t80 240.5v598h174v-1059h-164v168h-4q-109 -193 -344 -193q-136 0 -186 78h-4v-459h-174z" />
<glyph unicode="&#xb6;" horiz-adv-x="1196" d="M80 1040q0 200 124.5 311t342.5 111h489v-1779h-139v1667h-250v-1667h-139v976q-187 0 -307.5 109.5t-120.5 271.5z" />
<glyph unicode="&#xb7;" horiz-adv-x="536" d="M137 637q0 54 38.5 92.5t92.5 38.5t92.5 -38.5t38.5 -92.5q0 -50 -39.5 -90.5t-89.5 -40.5q-54 0 -93.5 38.5t-39.5 92.5z" />
<glyph unicode="&#xb8;" horiz-adv-x="417" d="M-6 -391l37 90q64 -27 125 -27q49 0 88 16t39 48q0 29 -27.5 46t-69.5 17q-34 0 -84 -16l-34 57l125 160h86l-86 -109l4 -4q21 15 67 15q71 0 121.5 -39.5t50.5 -110.5q0 -49 -23 -86t-61.5 -57t-81 -29.5t-88.5 -9.5q-81 0 -188 39z" />
<glyph unicode="&#xb9;" horiz-adv-x="708" d="M94 1204v103q238 0 273 145h102v-879h-139v631h-236z" />
<glyph unicode="&#xba;" horiz-adv-x="692" d="M4 1112q0 147 91 243.5t251 96.5q161 0 251.5 -95t90.5 -245q0 -152 -88.5 -243t-251.5 -91q-160 0 -252 92.5t-92 241.5zM143 1112q0 -101 50.5 -166t154.5 -65q102 0 151.5 64t49.5 165q0 57 -13 101t-33 69.5t-48 42t-54 22t-55 5.5q-90 0 -146.5 -60t-56.5 -178z" />
<glyph unicode="&#xbb;" horiz-adv-x="931" d="M117 233v177l205 159l-205 160v176l311 -246v-180zM518 233v177l205 159l-205 160v176l311 -246v-180z" />
<glyph unicode="&#xbc;" horiz-adv-x="1732" d="M72 1204v103q238 0 272 145h102v-879h-139v631h-235zM305 -57l891 1542h131l-891 -1542h-131zM944 197v118l430 564h105v-570h123v-112h-123v-197h-127v197h-408zM1044 309h308v396h-4z" />
<glyph unicode="&#xbd;" horiz-adv-x="1732" d="M72 1204v103q238 0 272 145h102v-879h-139v631h-235zM274 -57l891 1542h131l-890 -1542h-132zM1010 0q3 60 19 109.5t36 82t57.5 65.5t65.5 51.5t78 47.5q57 33 87 52.5t64 46t49.5 49t26 52.5t10.5 67q0 65 -48 104t-122 39q-86 0 -127 -57.5t-41 -145.5h-139 q0 142 85.5 229t227.5 87q129 0 216 -69.5t87 -188.5q0 -44 -13.5 -83t-34 -67.5t-53.5 -57t-61 -47.5t-69 -42q-23 -14 -68.5 -40.5t-69.5 -41.5t-54 -37.5t-46.5 -44.5t-23.5 -47h481v-113h-620z" />
<glyph unicode="&#xbe;" horiz-adv-x="1683" d="M31 848h139q2 -86 49.5 -131t138.5 -45q81 0 137 40t56 107q0 80 -55.5 119t-135.5 39h-67v102h49q74 0 122 32.5t48 100.5q0 60 -44 93.5t-114 33.5q-81 0 -122.5 -48.5t-41.5 -127.5h-139q8 134 87.5 211.5t215.5 77.5q132 0 214.5 -62.5t82.5 -177.5q0 -57 -39 -103 t-100 -71v-4q88 -17 133 -72.5t45 -136.5q0 -86 -48 -148t-121.5 -90t-162.5 -28q-143 0 -235 76t-92 213zM371 -57l891 1542h131l-891 -1542h-131zM911 197v118l430 564h105v-570h123v-112h-123v-197h-127v197h-408zM1014 301h307v395h-4z" />
<glyph unicode="&#xbf;" horiz-adv-x="1064" d="M86 -20q0 61 13.5 112t41.5 94.5t53.5 72.5t67.5 69q45 42 67 64.5t53 63t44.5 83t13.5 92.5v63h174v-80q-3 -69 -24.5 -127.5t-53 -99t-69 -78t-73.5 -72.5t-65 -72.5t-45.5 -89t-13.5 -112.5q8 -113 73 -176t175 -63q141 0 213 93.5t72 243.5h174q5 -214 -121.5 -352.5 t-337.5 -138.5q-194 0 -313 109t-119 301zM410 831v228h227v-228h-227z" />
<glyph unicode="&#xc0;" horiz-adv-x="1335" d="M-10 0l571 1462h215l572 -1462h-215l-160 440h-619l-164 -440h-200zM369 1888h223l176 -293h-131zM416 604h495l-243 682h-4z" />
<glyph unicode="&#xc1;" horiz-adv-x="1335" d="M-10 0l571 1462h215l572 -1462h-215l-160 440h-619l-164 -440h-200zM416 604h495l-243 682h-4zM569 1595l176 293h224l-269 -293h-131z" />
<glyph unicode="&#xc2;" horiz-adv-x="1335" d="M-10 0l571 1462h215l572 -1462h-215l-160 440h-619l-164 -440h-200zM365 1595l210 293h191l213 -293h-172l-141 197l-144 -197h-157zM416 604h495l-243 682h-4z" />
<glyph unicode="&#xc3;" horiz-adv-x="1335" d="M-10 0l571 1462h215l572 -1462h-215l-160 440h-619l-164 -440h-200zM319 1624q49 225 218 225q57 0 150 -41t134 -41q68 0 94 91h107q-12 -90 -66 -162q-54 -66 -141 -66q-66 0 -153 41q-7 2 -28.5 10.5t-30.5 11.5t-25 8t-28.5 7t-23.5 2q-39 0 -63 -24q-19 -16 -37 -62 h-107zM416 604h495l-243 682h-4z" />
<glyph unicode="&#xc4;" horiz-adv-x="1335" d="M-10 0l571 1462h215l572 -1462h-215l-160 440h-619l-164 -440h-200zM383 1624v213h184v-213h-184zM416 604h495l-243 682h-4zM768 1624v213h184v-213h-184z" />
<glyph unicode="&#xc5;" horiz-adv-x="1335" d="M-10 0l571 1462h215l572 -1462h-215l-160 440h-619l-164 -440h-200zM416 604h495l-243 682h-4zM436 1763q0 95 69 162.5t163 67.5t162.5 -67.5t68.5 -162.5t-68.5 -162t-162.5 -67t-163 67t-69 162zM530 1761q0 -60 39 -99.5t99 -39.5t98.5 39.5t38.5 99.5t-38.5 100 t-98.5 40t-99 -40t-39 -100z" />
<glyph unicode="&#xc6;" horiz-adv-x="1918" d="M-10 0l739 1462h1096v-164h-719v-464h676v-164h-676v-506h731v-164h-915v426h-504l-209 -426h-219zM494 590h428v708h-84z" />
<glyph unicode="&#xc7;" horiz-adv-x="1439" d="M72 727q0 128 28.5 243.5t86 211.5t139 166.5t194 109.5t244.5 39q155 0 282 -53t213 -162t107 -260h-195q-31 151 -141 231t-268 80q-101 0 -184.5 -32.5t-140.5 -88t-96 -131.5t-57 -161t-18 -179q0 -102 18 -192t57 -167.5t96.5 -133.5t141 -87.5t185.5 -31.5 q186 0 298 117.5t124 304.5h194q-30 -273 -189 -426.5t-427 -157.5l-59 -76l4 -4q21 15 67 15q71 0 121.5 -39.5t50.5 -110.5q0 -49 -23 -86t-61.5 -57t-81 -29.5t-88.5 -9.5q-81 0 -188 39l37 90q64 -27 125 -27q49 0 88 16t39 48q0 29 -27.5 46t-69.5 17q-34 0 -84 -16 l-34 57l100 129q-150 12 -267.5 75t-191 164.5t-111.5 233t-38 285.5z" />
<glyph unicode="&#xc8;" horiz-adv-x="1236" d="M139 0v1462h1010v-164h-815v-464h760v-164h-760v-506h821v-164h-1016zM324 1888h223l176 -293h-131z" />
<glyph unicode="&#xc9;" horiz-adv-x="1236" d="M139 0v1462h1010v-164h-815v-464h760v-164h-760v-506h821v-164h-1016zM561 1595l176 293h224l-269 -293h-131z" />
<glyph unicode="&#xca;" horiz-adv-x="1236" d="M139 0v1462h1010v-164h-815v-464h760v-164h-760v-506h821v-164h-1016zM338 1595l211 293h190l213 -293h-172l-141 197l-143 -197h-158z" />
<glyph unicode="&#xcb;" horiz-adv-x="1236" d="M139 0v1462h1010v-164h-815v-464h760v-164h-760v-506h821v-164h-1016zM367 1622v213h184v-213h-184zM752 1622v213h184v-213h-184z" />
<glyph unicode="&#xcc;" horiz-adv-x="471" d="M-76 1888h223l177 -293h-131zM129 0v1462h195v-1462h-195z" />
<glyph unicode="&#xcd;" horiz-adv-x="473" d="M145 0v1462h195v-1462h-195zM147 1595l177 293h223l-268 -293h-132z" />
<glyph unicode="&#xce;" horiz-adv-x="466" d="M-74 1595l211 293h191l213 -293h-172l-142 197l-143 -197h-158zM127 0v1462h195v-1462h-195z" />
<glyph unicode="&#xcf;" horiz-adv-x="495" d="M-37 1622v213h184v-213h-184zM150 0v1462h194v-1462h-194zM348 1622v213h184v-213h-184z" />
<glyph unicode="&#xd0;" horiz-adv-x="1421" d="M-2 694v140h143v628h502q343 0 523 -174t180 -522q0 -766 -703 -766h-502v694h-143zM336 164h323q36 0 70 3t85.5 17t94.5 36.5t89.5 66t78.5 102.5t53 149t21 201q0 273 -114 416t-373 143h-328v-464h438v-140h-438v-530z" />
<glyph unicode="&#xd1;" horiz-adv-x="1441" d="M137 0v1462h207l770 -1186h4v1186h185v-1462h-213l-764 1174h-4v-1174h-185zM381 1624q49 225 217 225q57 0 150.5 -41t134.5 -41q68 0 94 91h106q-12 -91 -65 -162q-54 -66 -141 -66q-67 0 -154 41l-28 10.5t-30 11t-25.5 8.5t-28 7t-23.5 2q-40 0 -64 -24 q-19 -16 -37 -62h-106z" />
<glyph unicode="&#xd2;" horiz-adv-x="1536" d="M68 731q0 121 27.5 233t85.5 209t139.5 169t196.5 113.5t251 41.5t251 -41.5t196.5 -113.5t139.5 -169t85.5 -209t27.5 -233t-27.5 -233t-85.5 -209t-139.5 -169t-196.5 -113.5t-251 -41.5t-251 41.5t-196.5 113.5t-139.5 169t-85.5 209t-27.5 233zM262 731 q0 -115 30 -219.5t89 -191.5t159 -139t228 -52t228 52t159 139t89 191.5t30 219.5t-30 219.5t-89 191.5t-159 139t-228 52t-228 -52t-159 -139t-89 -191.5t-30 -219.5zM463 1888h223l176 -293h-131z" />
<glyph unicode="&#xd3;" horiz-adv-x="1536" d="M68 731q0 121 27.5 233t85.5 209t139.5 169t196.5 113.5t251 41.5t251 -41.5t196.5 -113.5t139.5 -169t85.5 -209t27.5 -233t-27.5 -233t-85.5 -209t-139.5 -169t-196.5 -113.5t-251 -41.5t-251 41.5t-196.5 113.5t-139.5 169t-85.5 209t-27.5 233zM262 731 q0 -115 30 -219.5t89 -191.5t159 -139t228 -52t228 52t159 139t89 191.5t30 219.5t-30 219.5t-89 191.5t-159 139t-228 52t-228 -52t-159 -139t-89 -191.5t-30 -219.5zM655 1595l176 293h224l-269 -293h-131z" />
<glyph unicode="&#xd4;" horiz-adv-x="1533" d="M66 731q0 121 27.5 233t85.5 209t139.5 169t196.5 113.5t251 41.5t251 -41.5t196.5 -113.5t139.5 -169t85.5 -209t27.5 -233t-27.5 -233t-85.5 -209t-139.5 -169t-196.5 -113.5t-251 -41.5t-251 41.5t-196.5 113.5t-139.5 169t-85.5 209t-27.5 233zM260 731 q0 -115 30 -219.5t89 -191.5t159 -139t228 -52t228 52t159 139t89 191.5t30 219.5t-30 219.5t-89 191.5t-159 139t-228 52t-228 -52t-159 -139t-89 -191.5t-30 -219.5zM463 1595l211 293h190l213 -293h-172l-141 197l-143 -197h-158z" />
<glyph unicode="&#xd5;" horiz-adv-x="1533" d="M66 731q0 121 27.5 233t85.5 209t139.5 169t196.5 113.5t251 41.5t251 -41.5t196.5 -113.5t139.5 -169t85.5 -209t27.5 -233t-27.5 -233t-85.5 -209t-139.5 -169t-196.5 -113.5t-251 -41.5t-251 41.5t-196.5 113.5t-139.5 169t-85.5 209t-27.5 233zM260 731 q0 -115 30 -219.5t89 -191.5t159 -139t228 -52t228 52t159 139t89 191.5t30 219.5t-30 219.5t-89 191.5t-159 139t-228 52t-228 -52t-159 -139t-89 -191.5t-30 -219.5zM420 1624q49 225 217 225q57 0 150.5 -41t134.5 -41q68 0 94 91h106q-12 -91 -65 -162q-54 -66 -142 -66 q-66 0 -153 41l-28 10.5t-30 11t-25.5 8.5t-28 7t-23.5 2q-40 0 -64 -24q-19 -16 -37 -62h-106z" />
<glyph unicode="&#xd6;" horiz-adv-x="1533" d="M66 731q0 121 27.5 233t85.5 209t139.5 169t196.5 113.5t251 41.5t251 -41.5t196.5 -113.5t139.5 -169t85.5 -209t27.5 -233t-27.5 -233t-85.5 -209t-139.5 -169t-196.5 -113.5t-251 -41.5t-251 41.5t-196.5 113.5t-139.5 169t-85.5 209t-27.5 233zM260 731 q0 -115 30 -219.5t89 -191.5t159 -139t228 -52t228 52t159 139t89 191.5t30 219.5t-30 219.5t-89 191.5t-159 139t-228 52t-228 -52t-159 -139t-89 -191.5t-30 -219.5zM483 1622v213h185v-213h-185zM868 1622v213h185v-213h-185z" />
<glyph unicode="&#xd7;" horiz-adv-x="1212" d="M135 147l373 373l-371 369l99 98l370 -369l369 369l98 -98l-368 -369l370 -373l-98 -98l-371 373l-373 -373z" />
<glyph unicode="&#xd8;" horiz-adv-x="1538" d="M66 20l172 189q-170 205 -170 522q0 121 27.5 233t85.5 209t139.5 169t196.5 113.5t251 41.5q292 0 475 -180l162 178l65 -61l-167 -185q165 -206 165 -518q0 -121 -27.5 -233t-85.5 -209t-139.5 -169t-196.5 -113.5t-251 -41.5q-283 0 -469 176l-166 -182zM262 731 q0 -227 103 -383l755 834q-131 151 -352 151q-128 0 -228 -52t-159 -139t-89 -191.5t-30 -219.5zM420 274q129 -145 348 -145q128 0 228 52t159 139t89 191.5t30 219.5q0 224 -98 377z" />
<glyph unicode="&#xd9;" horiz-adv-x="1431" d="M127 528v934h195v-934q0 -194 104.5 -296.5t300.5 -102.5q186 0 283.5 102t97.5 297v934h195v-934q0 -276 -149 -419.5t-427 -143.5q-290 0 -445 139t-155 424zM412 1888h223l176 -293h-131z" />
<glyph unicode="&#xda;" horiz-adv-x="1431" d="M127 528v934h195v-934q0 -194 104.5 -296.5t300.5 -102.5q186 0 283.5 102t97.5 297v934h195v-934q0 -276 -149 -419.5t-427 -143.5q-290 0 -445 139t-155 424zM621 1595l176 293h223l-268 -293h-131z" />
<glyph unicode="&#xdb;" horiz-adv-x="1431" d="M127 528v934h195v-934q0 -194 104.5 -296.5t300.5 -102.5q186 0 283.5 102t97.5 297v934h195v-934q0 -276 -149 -419.5t-427 -143.5q-290 0 -445 139t-155 424zM416 1595l211 293h190l213 -293h-172l-141 197l-144 -197h-157z" />
<glyph unicode="&#xdc;" horiz-adv-x="1431" d="M127 528v934h195v-934q0 -194 104.5 -296.5t300.5 -102.5q186 0 283.5 102t97.5 297v934h195v-934q0 -276 -149 -419.5t-427 -143.5q-290 0 -445 139t-155 424zM432 1622v213h184v-213h-184zM817 1622v213h184v-213h-184z" />
<glyph unicode="&#xdd;" horiz-adv-x="1298" d="M-10 1462h231l438 -696l428 696h222l-559 -864v-598h-195v598zM588 1595l176 293h223l-268 -293h-131z" />
<glyph unicode="&#xde;" horiz-adv-x="1282" d="M139 0v1462h195v-233h446q218 0 333.5 -114t115.5 -320t-115.5 -318.5t-333.5 -111.5h-446v-365h-195zM334 528h381q319 -3 319 267q0 135 -77.5 202.5t-241.5 67.5h-381v-537z" />
<glyph unicode="&#xdf;" horiz-adv-x="1101" d="M113 0v1087q0 184 110.5 297t294.5 113q78 0 152 -23t135.5 -66t99 -113t37.5 -156q0 -250 -213 -318v-4q90 -11 154.5 -65.5t94.5 -132t30 -168.5q0 -211 -132 -343.5t-341 -132.5q-43 0 -89 9v151q23 -6 70 -6q140 0 223.5 82.5t83.5 216.5q0 79 -18 135t-48 89t-80 52 t-103 25t-128 6v139q64 -4 118.5 7t98.5 37.5t69.5 76t25.5 117.5q0 97 -66 164t-162 67q-118 0 -180.5 -63t-62.5 -223v-1057h-174z" />
<glyph unicode="&#xe0;" d="M57 272q0 69 21 122.5t52.5 86.5t82.5 57.5t95.5 36t107.5 23.5q38 8 91 16t86.5 12.5t71 14t58.5 22.5t35 36t14 55q0 55 -20.5 92t-57.5 54t-73.5 23.5t-83.5 6.5q-121 0 -190 -45.5t-75 -155.5h-174q3 77 28 137.5t65.5 100.5t97.5 66.5t120.5 38t137.5 11.5 q63 0 115 -6t106.5 -25t91.5 -49.5t60.5 -84t23.5 -125.5v-545q0 -31 0.5 -44.5t3 -32t8.5 -25t16.5 -12t26.5 -5.5q24 0 54 10v-135q-50 -29 -125 -29q-70 0 -109 40t-39 124q-137 -164 -372 -164q-156 0 -253.5 73t-97.5 224zM242 285q0 -81 58 -118.5t146 -37.5 q82 0 146.5 23.5t102 60t56.5 77t19 79.5v178q-35 -26 -105.5 -40t-139.5 -21.5t-135 -24t-107 -60t-41 -116.5zM270 1499h224l176 -293h-131z" />
<glyph unicode="&#xe1;" d="M57 272q0 69 21 122.5t52.5 86.5t82.5 57.5t95.5 36t107.5 23.5q38 8 91 16t86.5 12.5t71 14t58.5 22.5t35 36t14 55q0 55 -20.5 92t-57.5 54t-73.5 23.5t-83.5 6.5q-121 0 -190 -45.5t-75 -155.5h-174q3 77 28 137.5t65.5 100.5t97.5 66.5t120.5 38t137.5 11.5 q63 0 115 -6t106.5 -25t91.5 -49.5t60.5 -84t23.5 -125.5v-545q0 -31 0.5 -44.5t3 -32t8.5 -25t16.5 -12t26.5 -5.5q24 0 54 10v-135q-50 -29 -125 -29q-70 0 -109 40t-39 124q-137 -164 -372 -164q-156 0 -253.5 73t-97.5 224zM242 285q0 -81 58 -118.5t146 -37.5 q82 0 146.5 23.5t102 60t56.5 77t19 79.5v178q-35 -26 -105.5 -40t-139.5 -21.5t-135 -24t-107 -60t-41 -116.5zM459 1206l176 293h223l-268 -293h-131z" />
<glyph unicode="&#xe2;" d="M57 272q0 69 21 122.5t52.5 86.5t82.5 57.5t95.5 36t107.5 23.5q38 8 91 16t86.5 12.5t71 14t58.5 22.5t35 36t14 55q0 55 -20.5 92t-57.5 54t-73.5 23.5t-83.5 6.5q-121 0 -190 -45.5t-75 -155.5h-174q3 77 28 137.5t65.5 100.5t97.5 66.5t120.5 38t137.5 11.5 q63 0 115 -6t106.5 -25t91.5 -49.5t60.5 -84t23.5 -125.5v-545q0 -31 0.5 -44.5t3 -32t8.5 -25t16.5 -12t26.5 -5.5q24 0 54 10v-135q-50 -29 -125 -29q-70 0 -109 40t-39 124q-137 -164 -372 -164q-156 0 -253.5 73t-97.5 224zM238 1206l211 293h190l213 -293h-172 l-141 197l-144 -197h-157zM242 285q0 -81 58 -118.5t146 -37.5q82 0 146.5 23.5t102 60t56.5 77t19 79.5v178q-35 -26 -105.5 -40t-139.5 -21.5t-135 -24t-107 -60t-41 -116.5z" />
<glyph unicode="&#xe3;" d="M57 272q0 69 21 122.5t52.5 86.5t82.5 57.5t95.5 36t107.5 23.5q38 8 91 16t86.5 12.5t71 14t58.5 22.5t35 36t14 55q0 55 -20.5 92t-57.5 54t-73.5 23.5t-83.5 6.5q-121 0 -190 -45.5t-75 -155.5h-174q3 77 28 137.5t65.5 100.5t97.5 66.5t120.5 38t137.5 11.5 q63 0 115 -6t106.5 -25t91.5 -49.5t60.5 -84t23.5 -125.5v-545q0 -31 0.5 -44.5t3 -32t8.5 -25t16.5 -12t26.5 -5.5q24 0 54 10v-135q-50 -29 -125 -29q-70 0 -109 40t-39 124q-137 -164 -372 -164q-156 0 -253.5 73t-97.5 224zM197 1235q49 225 217 225q57 0 150 -41 t134 -41q69 0 95 90h106q-12 -90 -65 -161q-54 -66 -142 -66q-66 0 -153 41q-7 2 -28.5 10.5t-30.5 11.5t-25 8t-28.5 7t-23.5 2q-38 0 -63 -25q-19 -17 -37 -61h-106zM242 285q0 -81 58 -118.5t146 -37.5q82 0 146.5 23.5t102 60t56.5 77t19 79.5v178q-35 -26 -105.5 -40 t-139.5 -21.5t-135 -24t-107 -60t-41 -116.5z" />
<glyph unicode="&#xe4;" d="M57 272q0 69 21 122.5t52.5 86.5t82.5 57.5t95.5 36t107.5 23.5q38 8 91 16t86.5 12.5t71 14t58.5 22.5t35 36t14 55q0 55 -20.5 92t-57.5 54t-73.5 23.5t-83.5 6.5q-121 0 -190 -45.5t-75 -155.5h-174q3 77 28 137.5t65.5 100.5t97.5 66.5t120.5 38t137.5 11.5 q63 0 115 -6t106.5 -25t91.5 -49.5t60.5 -84t23.5 -125.5v-545q0 -31 0.5 -44.5t3 -32t8.5 -25t16.5 -12t26.5 -5.5q24 0 54 10v-135q-50 -29 -125 -29q-70 0 -109 40t-39 124q-137 -164 -372 -164q-156 0 -253.5 73t-97.5 224zM242 285q0 -81 58 -118.5t146 -37.5 q82 0 146.5 23.5t102 60t56.5 77t19 79.5v178q-35 -26 -105.5 -40t-139.5 -21.5t-135 -24t-107 -60t-41 -116.5zM256 1233v213h184v-213h-184zM641 1233v213h184v-213h-184z" />
<glyph unicode="&#xe5;" d="M57 272q0 69 21 122.5t52.5 86.5t82.5 57.5t95.5 36t107.5 23.5q38 8 91 16t86.5 12.5t71 14t58.5 22.5t35 36t14 55q0 55 -20.5 92t-57.5 54t-73.5 23.5t-83.5 6.5q-121 0 -190 -45.5t-75 -155.5h-174q3 77 28 137.5t65.5 100.5t97.5 66.5t120.5 38t137.5 11.5 q63 0 115 -6t106.5 -25t91.5 -49.5t60.5 -84t23.5 -125.5v-545q0 -31 0.5 -44.5t3 -32t8.5 -25t16.5 -12t26.5 -5.5q24 0 54 10v-135q-50 -29 -125 -29q-70 0 -109 40t-39 124q-137 -164 -372 -164q-156 0 -253.5 73t-97.5 224zM242 285q0 -81 58 -118.5t146 -37.5 q82 0 146.5 23.5t102 60t56.5 77t19 79.5v178q-35 -26 -105.5 -40t-139.5 -21.5t-135 -24t-107 -60t-41 -116.5zM311 1382q0 95 69 162.5t163 67.5t162.5 -67.5t68.5 -162.5t-68.5 -162t-162.5 -67t-163 67t-69 162zM406 1380q0 -60 38.5 -99.5t98.5 -39.5t98.5 39.5 t38.5 99.5t-38.5 100t-98.5 40t-98.5 -40t-38.5 -100z" />
<glyph unicode="&#xe6;" horiz-adv-x="1783" d="M61 272q0 69 21 122.5t52.5 86.5t82.5 57.5t95.5 36t107.5 23.5q38 7 88 16t77 13.5t61 11.5t51 13.5t36 17t27.5 23.5t14 31t5.5 42q0 41 -14.5 71.5t-36.5 48t-55 28t-63.5 13.5t-69.5 3q-121 0 -190 -45.5t-75 -155.5h-174q3 77 28 137.5t65.5 100.5t97.5 66.5 t120.5 38t137.5 11.5q278 0 354 -153q51 77 142.5 115t195.5 38q477 0 477 -606h-776q0 -150 82 -249t236 -99q102 0 173 52t95 153h178q-38 -172 -158.5 -265.5t-300.5 -93.5q-289 0 -383 207q-58 -105 -174.5 -156t-271.5 -51q-163 0 -261 72.5t-98 224.5zM246 285 q0 -80 58.5 -118t146.5 -38q82 0 147.5 23.5t103.5 60t58 77t20 79.5v178q-32 -20 -84 -32t-127.5 -22.5t-109.5 -17.5q-49 -10 -82.5 -21.5t-66 -32.5t-48.5 -55t-16 -81zM944 631h592q-5 130 -82 214.5t-211 84.5q-137 0 -218 -83.5t-81 -215.5z" />
<glyph unicode="&#xe7;" horiz-adv-x="1089" d="M63 516q0 121 31.5 223t92 179.5t157 121t219.5 43.5q124 0 220 -37.5t160 -121t77 -205.5h-180q-21 101 -88 156t-174 55q-73 0 -130.5 -23t-94.5 -61t-61 -92.5t-34 -112.5t-10 -125q0 -77 17.5 -144t53.5 -122.5t97 -88t141 -32.5q126 0 199.5 67.5t91.5 190.5h178 q-30 -189 -141 -296t-295 -114l-68 -86l4 -4q21 15 68 15q71 0 121.5 -39.5t50.5 -110.5q0 -49 -23 -86t-61.5 -57t-81 -29.5t-88.5 -9.5q-81 0 -188 39l36 90q64 -27 125 -27q49 0 88 16t39 48q0 29 -27 46t-69 17q-34 0 -84 -16l-35 57l109 140q-212 17 -327.5 162.5 t-115.5 373.5z" />
<glyph unicode="&#xe8;" horiz-adv-x="1099" d="M59 532q0 239 140.5 395t357.5 156q91 0 166.5 -27t127 -73.5t90 -106t59.5 -129t30 -136.5t6 -134h-792q-2 -70 17 -132t58 -110.5t104.5 -77t149.5 -28.5q110 0 181 52t94 155h172q-35 -175 -153 -268t-300 -93q-164 0 -278.5 73t-169.5 196t-60 288zM244 631h608 q-8 127 -92.5 213t-212.5 86q-131 0 -213 -85.5t-90 -213.5zM291 1499h223l176 -293h-131z" />
<glyph unicode="&#xe9;" horiz-adv-x="1099" d="M59 532q0 239 140.5 395t357.5 156q91 0 166.5 -27t127 -73.5t90 -106t59.5 -129t30 -136.5t6 -134h-792q-2 -70 17 -132t58 -110.5t104.5 -77t149.5 -28.5q110 0 181 52t94 155h172q-35 -175 -153 -268t-300 -93q-164 0 -278.5 73t-169.5 196t-60 288zM244 631h608 q-8 127 -92.5 213t-212.5 86q-131 0 -213 -85.5t-90 -213.5zM477 1206l176 293h224l-269 -293h-131z" />
<glyph unicode="&#xea;" horiz-adv-x="1101" d="M59 532q0 239 140.5 395t357.5 156q91 0 166.5 -27t127 -73.5t90 -106t59.5 -129t30 -136.5t6 -134h-792q-2 -70 17 -132t58 -110.5t104.5 -77t149.5 -28.5q110 0 181 52t94 155h172q-35 -175 -153 -268t-300 -93q-164 0 -278.5 73t-169.5 196t-60 288zM244 631h608 q-8 127 -92.5 213t-212.5 86q-131 0 -213 -85.5t-90 -213.5zM254 1206l211 293h190l213 -293h-172l-141 197l-143 -197h-158z" />
<glyph unicode="&#xeb;" horiz-adv-x="1101" d="M59 532q0 239 140.5 395t357.5 156q91 0 166.5 -27t127 -73.5t90 -106t59.5 -129t30 -136.5t6 -134h-792q-2 -70 17 -132t58 -110.5t104.5 -77t149.5 -28.5q110 0 181 52t94 155h172q-35 -175 -153 -268t-300 -93q-164 0 -278.5 73t-169.5 196t-60 288zM244 631h608 q-8 127 -92.5 213t-212.5 86q-131 0 -213 -85.5t-90 -213.5zM270 1233v213h185v-213h-185zM655 1233v213h185v-213h-185z" />
<glyph unicode="&#xec;" horiz-adv-x="389" d="M-123 1499h223l176 -293h-131zM100 0v1059h174v-1059h-174z" />
<glyph unicode="&#xed;" horiz-adv-x="389" d="M111 1206l176 293h223l-268 -293h-131zM115 0v1059h174v-1059h-174z" />
<glyph unicode="&#xee;" horiz-adv-x="382" d="M-113 1206l211 293h191l213 -293h-172l-142 197l-143 -197h-158zM104 0v1059h175v-1059h-175z" />
<glyph unicode="&#xef;" horiz-adv-x="413" d="M-76 1233v213h185v-213h-185zM121 0v1059h174v-1059h-174zM309 1233v213h185v-213h-185z" />
<glyph unicode="&#xf0;" horiz-adv-x="1161" d="M61 528q0 101 32.5 192t92.5 161.5t153 112.5t206 42q184 0 284 -114h5q-46 97 -120 185t-130 124l-236 -111l-78 82l224 105q-41 37 -144 98l144 92q87 -60 157 -115l246 115l72 -76l-236 -108q357 -295 357 -785q0 -157 -57.5 -280.5t-176 -198t-281.5 -74.5t-281 74.5 t-175.5 198t-57.5 280.5zM246 528q0 -186 93.5 -292.5t235.5 -106.5t236 106.5t94 292.5q0 73 -20 135.5t-59.5 112.5t-106.5 78.5t-154 28.5q-154 0 -236.5 -96t-82.5 -259z" />
<glyph unicode="&#xf1;" horiz-adv-x="1095" d="M109 0v1059h163v-168h4q108 192 345 192q102 0 174 -28t113 -81t59 -121t18 -157v-696h-174v717q0 98 -57.5 155.5t-157.5 57.5q-153 0 -233 -91.5t-80 -240.5v-598h-174zM197 1235q49 225 217 225q57 0 150 -41t134 -41q69 0 95 90h106q-12 -90 -65 -161 q-54 -66 -142 -66q-66 0 -153 41q-7 2 -28.5 10.5t-30.5 11.5t-25 8t-28.5 7t-23.5 2q-38 0 -63 -25q-19 -17 -37 -61h-106z" />
<glyph unicode="&#xf2;" horiz-adv-x="1153" d="M61 528q0 158 57.5 282t175.5 198.5t281 74.5q123 0 221.5 -43t162.5 -118t97.5 -176t33.5 -218q0 -157 -57.5 -280.5t-176 -198t-281.5 -74.5t-281 74.5t-175.5 198t-57.5 280.5zM246 528q0 -186 93.5 -292.5t235.5 -106.5t236 106.5t94 292.5t-94 294t-236 108 t-235.5 -108t-93.5 -294zM250 1499h223l176 -293h-131z" />
<glyph unicode="&#xf3;" horiz-adv-x="1153" d="M61 528q0 158 57.5 282t175.5 198.5t281 74.5q123 0 221.5 -43t162.5 -118t97.5 -176t33.5 -218q0 -157 -57.5 -280.5t-176 -198t-281.5 -74.5t-281 74.5t-175.5 198t-57.5 280.5zM246 528q0 -186 93.5 -292.5t235.5 -106.5t236 106.5t94 292.5t-94 294t-236 108 t-235.5 -108t-93.5 -294zM475 1206l176 293h223l-268 -293h-131z" />
<glyph unicode="&#xf4;" horiz-adv-x="1153" d="M61 528q0 158 57.5 282t175.5 198.5t281 74.5q123 0 221.5 -43t162.5 -118t97.5 -176t33.5 -218q0 -157 -57.5 -280.5t-176 -198t-281.5 -74.5t-281 74.5t-175.5 198t-57.5 280.5zM246 528q0 -186 93.5 -292.5t235.5 -106.5t236 106.5t94 292.5t-94 294t-236 108 t-235.5 -108t-93.5 -294zM272 1206l211 293h191l213 -293h-172l-142 197l-143 -197h-158z" />
<glyph unicode="&#xf5;" horiz-adv-x="1153" d="M61 528q0 158 57.5 282t175.5 198.5t281 74.5q123 0 221.5 -43t162.5 -118t97.5 -176t33.5 -218q0 -157 -57.5 -280.5t-176 -198t-281.5 -74.5t-281 74.5t-175.5 198t-57.5 280.5zM227 1235q49 225 217 225q57 0 150.5 -41t134.5 -41q68 0 94 90h107q-12 -88 -66 -161 q-54 -66 -141 -66q-67 0 -154 41l-28 10.5t-30 11t-25.5 8.5t-28 7t-23.5 2q-38 0 -63 -25q-19 -17 -37 -61h-107zM246 528q0 -186 93.5 -292.5t235.5 -106.5t236 106.5t94 292.5t-94 294t-236 108t-235.5 -108t-93.5 -294z" />
<glyph unicode="&#xf6;" horiz-adv-x="1153" d="M61 528q0 158 57.5 282t175.5 198.5t281 74.5q123 0 221.5 -43t162.5 -118t97.5 -176t33.5 -218q0 -157 -57.5 -280.5t-176 -198t-281.5 -74.5t-281 74.5t-175.5 198t-57.5 280.5zM246 528q0 -186 93.5 -292.5t235.5 -106.5t236 106.5t94 292.5t-94 294t-236 108 t-235.5 -108t-93.5 -294zM291 1233v213h184v-213h-184zM676 1233v213h184v-213h-184z" />
<glyph unicode="&#xf7;" horiz-adv-x="1212" d="M90 449v139h1032v-139h-1032zM475 96q0 54 38.5 92.5t92.5 38.5t92.5 -38.5t38.5 -92.5q0 -50 -39.5 -90.5t-89.5 -40.5q-54 0 -93.5 38.5t-39.5 92.5zM475 940q0 54 38.5 92.5t92.5 38.5t92.5 -38.5t38.5 -92.5q0 -50 -39.5 -90.5t-89.5 -40.5q-54 0 -93.5 38.5 t-39.5 92.5z" />
<glyph unicode="&#xf8;" horiz-adv-x="1159" d="M59 4l127 141q-123 150 -123 383q0 117 33.5 218t97.5 176t162.5 118t221.5 43q212 0 344 -120l118 133l56 -54l-123 -135q119 -143 119 -379q0 -157 -57.5 -280.5t-175.5 -198t-281 -74.5q-205 0 -338 117l-123 -137zM248 528q0 -141 61 -247l496 553q-90 96 -227 96 q-142 0 -236 -108t-94 -294zM354 221q92 -92 224 -92q142 0 235.5 106.5t93.5 292.5q0 141 -57 244z" />
<glyph unicode="&#xf9;" horiz-adv-x="1093" d="M109 362v697h174v-717q0 -98 57.5 -155.5t157.5 -57.5q153 0 233 91.5t80 240.5v598h174v-1059h-164v168h-4q-109 -193 -344 -193q-102 0 -174 28t-113 81t-59 121t-18 157zM233 1499h224l176 -293h-131z" />
<glyph unicode="&#xfa;" horiz-adv-x="1093" d="M109 362v697h174v-717q0 -98 57.5 -155.5t157.5 -57.5q153 0 233 91.5t80 240.5v598h174v-1059h-164v168h-4q-109 -193 -344 -193q-102 0 -174 28t-113 81t-59 121t-18 157zM446 1206l177 293h223l-268 -293h-132z" />
<glyph unicode="&#xfb;" horiz-adv-x="1095" d="M109 362v697h174v-717q0 -98 57.5 -155.5t157.5 -57.5q153 0 233 91.5t80 240.5v598h174v-1059h-164v168h-4q-109 -193 -344 -193q-102 0 -174 28t-113 81t-59 121t-18 157zM240 1206l211 293h190l213 -293h-172l-141 197l-144 -197h-157z" />
<glyph unicode="&#xfc;" horiz-adv-x="1095" d="M109 362v697h174v-717q0 -98 57.5 -155.5t157.5 -57.5q153 0 233 91.5t80 240.5v598h174v-1059h-164v168h-4q-109 -193 -344 -193q-102 0 -174 28t-113 81t-59 121t-18 157zM260 1233v213h184v-213h-184zM645 1233v213h184v-213h-184z" />
<glyph unicode="&#xfd;" horiz-adv-x="1007" d="M0 1059h197l309 -866h4l297 866h184l-461 -1200q-63 -159 -128 -221t-179 -62q-71 0 -121 18v160q79 -24 103 -24q52 0 84.5 23t58.5 73l72 180zM436 1206l176 293h224l-269 -293h-131z" />
<glyph unicode="&#xfe;" horiz-adv-x="1181" d="M111 -406v1868h174v-547h4q41 84 131.5 126t206.5 42q119 0 213 -44.5t153 -122t90 -177t31 -213.5q0 -115 -30.5 -213.5t-89 -174.5t-152 -119.5t-211.5 -43.5q-95 0 -192.5 40.5t-149.5 125.5h-4v-547h-174zM279 530q0 -81 19 -150.5t57 -127t104 -90.5t153 -33 q86 0 149.5 34.5t99 94t52.5 129.5t17 152q0 77 -20 145.5t-59 124t-103.5 88.5t-145.5 33q-68 0 -123.5 -23t-92 -61t-61.5 -90t-35.5 -108.5t-10.5 -117.5z" />
<glyph unicode="&#xff;" horiz-adv-x="1007" d="M0 1059h197l309 -866h4l297 866h184l-461 -1200q-63 -159 -128 -221t-179 -62q-71 0 -121 18v160q79 -24 103 -24q52 0 84.5 23t58.5 73l72 180zM225 1233v213h185v-213h-185zM610 1233v213h185v-213h-185z" />
<glyph unicode="&#x152;" horiz-adv-x="2191" d="M70 727q0 221 80 394.5t237 274.5t369 101q112 0 214.5 -40.5t145.5 -115.5h4v121h977v-164h-782v-464h717v-164h-717v-506h794v-164h-989v141h-4q-52 -83 -156 -129.5t-221 -46.5q-210 0 -363.5 102t-229.5 272.5t-76 387.5zM264 719q0 -167 55 -298.5t167.5 -211.5 t267.5 -80q156 0 261 81.5t105 207.5v616q0 97 -30 142q-44 67 -132.5 112t-199.5 45q-121 0 -216.5 -49t-155.5 -134.5t-91 -195t-31 -235.5z" />
<glyph unicode="&#x153;" horiz-adv-x="1812" d="M63 530q0 94 18.5 176.5t57 152t95 119t136 77.5t175.5 28q134 0 224.5 -41t141.5 -145q53 90 155 138t220 48q103 0 185.5 -31t138 -86t91 -131.5t49.5 -166t9 -191.5h-768q-5 -146 76 -247t229 -101q105 0 180.5 54.5t106.5 152.5h166q-105 -361 -453 -361 q-295 0 -385 209q-90 -209 -366 -209q-98 0 -178 28.5t-136 79.5t-94 121t-56 152t-18 174zM248 508q0 -56 10 -108.5t33 -102.5t56.5 -86.5t84.5 -59t113 -22.5q67 0 119.5 24t85 63t53.5 92.5t29 108t8 115.5q0 398 -295 398q-64 0 -115.5 -24t-85 -64.5t-55.5 -95.5 t-31.5 -114t-9.5 -124zM991 631h584q0 137 -77 218t-212 81t-216 -83.5t-79 -215.5z" />
<glyph unicode="&#x178;" horiz-adv-x="1298" d="M-10 1462h231l438 -696l428 696h222l-559 -864v-598h-195v598zM373 1622v213h184v-213h-184zM758 1622v213h184v-213h-184z" />
<glyph unicode="&#x2c6;" horiz-adv-x="387" d="M-111 1206l211 293h191l213 -293h-172l-142 197l-143 -197h-158z" />
<glyph unicode="&#x2dc;" horiz-adv-x="438" d="M-133 1235q49 225 217 225q57 0 150.5 -41t134.5 -41q68 0 94 90h106q-12 -90 -65 -161q-54 -66 -142 -66q-66 0 -153 41l-28 10.5t-30 11t-25.5 8.5t-28 7t-23.5 2q-39 0 -64 -25q-19 -17 -37 -61h-106z" />
<glyph unicode="&#x2000;" horiz-adv-x="996" />
<glyph unicode="&#x2001;" horiz-adv-x="1993" />
<glyph unicode="&#x2002;" horiz-adv-x="996" />
<glyph unicode="&#x2003;" horiz-adv-x="1993" />
<glyph unicode="&#x2004;" horiz-adv-x="664" />
<glyph unicode="&#x2005;" horiz-adv-x="498" />
<glyph unicode="&#x2006;" horiz-adv-x="332" />
<glyph unicode="&#x2007;" horiz-adv-x="332" />
<glyph unicode="&#x2008;" horiz-adv-x="249" />
<glyph unicode="&#x2009;" horiz-adv-x="398" />
<glyph unicode="&#x200a;" horiz-adv-x="110" />
<glyph unicode="&#x2010;" horiz-adv-x="811" d="M109 487v164h591v-164h-591z" />
<glyph unicode="&#x2011;" horiz-adv-x="811" d="M109 487v164h591v-164h-591z" />
<glyph unicode="&#x2012;" horiz-adv-x="811" d="M109 487v164h591v-164h-591z" />
<glyph unicode="&#x2013;" horiz-adv-x="1007" d="M-8 487v164h1024v-164h-1024z" />
<glyph unicode="&#x2014;" horiz-adv-x="2031" d="M258 487v164h1516v-164h-1516z" />
<glyph unicode="&#x2018;" horiz-adv-x="628" d="M201 934v227q0 130 57 215.5t168 85.5v-102q-33 0 -57 -17.5t-37 -47.5t-19 -63t-6 -71h121v-227h-227z" />
<glyph unicode="&#x2019;" horiz-adv-x="628" d="M201 1235v227h227v-227q0 -130 -57 -215.5t-168 -85.5v102q33 0 57 17.5t37 47.5t19 63t6 71h-121z" />
<glyph unicode="&#x201a;" horiz-adv-x="628" d="M201 0v227h227v-227q0 -130 -57 -215.5t-168 -85.5v102q33 0 57 17.5t37 47.5t19 63t6 71h-121z" />
<glyph unicode="&#x201c;" horiz-adv-x="1003" d="M201 934v227q0 130 57 215.5t168 85.5v-102q-33 0 -57 -17.5t-37 -47.5t-19 -63t-6 -71h121v-227h-227zM575 934v227q0 130 57.5 215.5t168.5 85.5v-102q-33 0 -57 -17.5t-37 -47.5t-19 -63t-6 -71h121v-227h-228z" />
<glyph unicode="&#x201d;" horiz-adv-x="1003" d="M201 1235v227h227v-227q0 -130 -57 -215.5t-168 -85.5v102q33 0 57 17.5t37 47.5t19 63t6 71h-121zM575 1235v227h228v-227q0 -130 -57 -215.5t-168 -85.5v102q43 0 71 31.5t37.5 73.5t9.5 94h-121z" />
<glyph unicode="&#x201e;" horiz-adv-x="1003" d="M201 0v227h227v-227q0 -130 -57 -215.5t-168 -85.5v102q33 0 57 17.5t37 47.5t19 63t6 71h-121zM575 0v227h228v-227q0 -130 -57 -215.5t-168 -85.5v102q43 0 71 31.5t37.5 73.5t9.5 94h-121z" />
<glyph unicode="&#x2022;" horiz-adv-x="1007" d="M139 731q0 152 106.5 258.5t258.5 106.5t259 -106.5t107 -258.5t-107 -259t-259 -107t-258.5 107t-106.5 259z" />
<glyph unicode="&#x2026;" horiz-adv-x="2033" d="M219 0v227h227v-227h-227zM901 0v227h227v-227h-227zM1583 0v227h227v-227h-227z" />
<glyph unicode="&#x202f;" horiz-adv-x="398" />
<glyph unicode="&#x2039;" horiz-adv-x="522" d="M92 479v180l311 246v-176l-204 -160l204 -159v-177z" />
<glyph unicode="&#x203a;" horiz-adv-x="522" d="M117 233v177l205 159l-205 160v176l311 -246v-180z" />
<glyph unicode="&#x205f;" horiz-adv-x="498" />
<glyph unicode="&#x20ac;" horiz-adv-x="1116" d="M23 565l55 125h94q-2 6 -2 21v20v35q0 21 2 31h-149l53 125h110q50 254 187 397q153 166 395 166q186 0 371 -129l-95 -170q-144 141 -292 141q-153 0 -254 -131q-81 -107 -115 -274h580l-56 -125h-538q-2 -10 -2 -33v-31v-22q0 -15 2 -21h510l-54 -125h-446 q68 -440 389 -440q100 0 174 39q52 25 141 108v-215q-140 -90 -315 -90q-503 0 -588 598h-157z" />
<glyph unicode="&#x2122;" horiz-adv-x="2064" d="M143 1350v112h668v-112h-264v-732h-139v732h-265zM983 618v844h215l252 -641l248 641h213v-844h-139v705h-5l-276 -705h-88l-277 705h-4v-705h-139z" />
<glyph unicode="&#x25fc;" horiz-adv-x="1054" d="M0 0v1055h1055v-1055h-1055z" />
</font>
</defs>
</svg>
