<?xml version="1.0" standalone="no"?>
<!DOCTYPE svg PUBLIC "-//W3C//DTD SVG 1.1//EN" "http://www.w3.org/Graphics/SVG/1.1/DTD/svg11.dtd" >
<svg xmlns="http://www.w3.org/2000/svg">
<metadata></metadata>
<defs>
<font id="helvneue_for_ibmlight_italic" horiz-adv-x="399" >
<font-face units-per-em="2048" ascent="1462" descent="-586" />
<missing-glyph horiz-adv-x="487" />
<glyph unicode="&#xfb01;" horiz-adv-x="929" d="M47 0l209 948h-184l24 109h183l32 153q26 125 91.5 188.5t191.5 63.5q90 0 133 -14l-22 -107q-58 13 -80 13q-88 0 -127.5 -34.5t-59.5 -115.5l-30 -147h208l-24 -109h-207l-209 -948h-129zM518 0l227 1057h129l-227 -1057h-129zM788 1255l46 207h129l-45 -207h-130z" />
<glyph unicode="&#xfb02;" horiz-adv-x="929" d="M47 0l209 948h-184l24 109h183l32 153q26 125 91.5 188.5t191.5 63.5q90 0 133 -14l-22 -107q-58 13 -80 13q-88 0 -127.5 -34.5t-59.5 -115.5l-30 -147h208l-24 -109h-207l-209 -948h-129zM518 0l316 1462h129l-316 -1462h-129z" />
<glyph horiz-adv-x="1024" />
<glyph horiz-adv-x="1024" />
<glyph horiz-adv-x="682" />
<glyph unicode="&#xd;" horiz-adv-x="0" />
<glyph unicode=" "  horiz-adv-x="487" />
<glyph unicode="&#x09;" horiz-adv-x="487" />
<glyph unicode="&#xa0;" horiz-adv-x="487" />
<glyph unicode="!" horiz-adv-x="589" d="M57 0l47 217h175l-50 -217h-172zM182 365l109 643l98 454h137l-98 -456l-168 -641h-78z" />
<glyph unicode="&#x22;" horiz-adv-x="778" d="M291 965v497h119v-497h-119zM547 965v497h119v-497h-119z" />
<glyph unicode="#" horiz-adv-x="1159" d="M82 457l20 92h217l46 319h-226l21 93h217l63 454h103l-64 -454h289l63 454h103l-64 -454h215l-20 -93h-207l-45 -319h215l-20 -92h-207l-64 -457h-102l63 457h-288l-64 -457h-102l63 457h-225zM422 549h289l45 319h-289z" />
<glyph unicode="$" horiz-adv-x="1159" d="M-37 481h139q-14 -338 301 -381l129 607l-98 28q-289 82 -289 340q0 90 31.5 162.5t84.5 119.5t125 78t149.5 44.5t162.5 13.5l23 106h92l-25 -114q193 -27 300 -135.5t96 -313.5h-140q-1 160 -70 236t-210 94l-119 -561l41 -12q51 -15 86 -26.5t80 -30t74.5 -37.5 t61 -47.5t49.5 -60.5t30 -76t12 -95q0 -34 -6 -70.5t-23 -81.5t-43.5 -86t-71 -80.5t-101.5 -68.5t-139.5 -46.5t-180.5 -17.5h-25q-16 0 -22 2l-37 -176h-92l41 187q-201 31 -314 155.5t-102 343.5zM285 1081q0 -45 14.5 -81.5t35.5 -60t56.5 -43.5t65 -31.5t73.5 -24.5 l29 -9l115 543q-59 0 -113.5 -9.5t-105.5 -31.5t-88 -55t-59.5 -83.5t-22.5 -113.5zM494 90q6 -2 30 -2q74 0 145.5 18.5t133 55t99.5 98.5t38 141q0 40 -10.5 73.5t-25 57t-43.5 45.5t-50.5 35t-62 27.5t-63 21l-67.5 19.5z" />
<glyph unicode="%" horiz-adv-x="1726" d="M147 958q0 69 14.5 137.5t46 132t75.5 112t107.5 77.5t137.5 29q126 0 200.5 -79.5t74.5 -205.5q0 -88 -23.5 -173t-68 -157t-119.5 -116.5t-168 -44.5q-132 0 -204.5 78.5t-72.5 209.5zM223 -66l1168 1547h112l-1169 -1547h-111zM256 954q0 -81 44 -136.5t126 -55.5 q68 0 121.5 38.5t84 99t46.5 126t16 129.5q0 92 -41.5 145.5t-130.5 53.5q-66 0 -119.5 -40.5t-84 -102.5t-46.5 -129t-16 -128zM924 258q0 69 14.5 137.5t46 132t75.5 111.5t107.5 77t137.5 29q126 0 200 -79t74 -205q0 -88 -23.5 -173t-68 -157.5t-119.5 -117t-168 -44.5 q-132 0 -204 79t-72 210zM1030 254q0 -81 44 -137t126 -56q68 0 121.5 38.5t84 99t46.5 126.5t16 130q0 92 -41.5 145t-130.5 53q-53 0 -98.5 -27t-75.5 -69t-51.5 -96t-31 -106.5t-9.5 -100.5z" />
<glyph unicode="&#x26;" horiz-adv-x="1271" d="M45 344q0 53 14 101t34.5 85t56.5 73t68 61.5t82 54.5t85 46.5t90 43.5q-37 55 -54.5 82.5t-41.5 74t-33.5 90.5t-9.5 93q0 139 101 226t251 87q131 0 226.5 -71.5t95.5 -194.5q0 -35 -8 -68.5t-19 -60t-34 -56t-39 -48.5t-50 -45.5t-51.5 -39.5t-58 -38t-56 -33.5 t-57.5 -32.5l262 -407q68 86 113 278h129q-49 -218 -174 -383l170 -262h-146l-110 172q-79 -98 -187.5 -150.5t-236.5 -52.5q-185 0 -298.5 98.5t-113.5 276.5zM174 336q0 -106 80 -182t192 -76q118 0 207 45t168 143l-289 453q-61 -29 -99.5 -49.5t-93 -58.5t-86.5 -74 t-55.5 -89t-23.5 -112zM465 1145q0 -45 21 -102.5t40 -91.5t54 -91q9 5 40 22.5t45 26t43.5 26.5t45 31t39 32.5t36.5 37.5t26.5 40t19.5 46t6 49q0 88 -55.5 135.5t-141.5 47.5q-90 0 -154.5 -59.5t-64.5 -149.5z" />
<glyph unicode="'" horiz-adv-x="589" d="M324 965v497h118v-497h-118z" />
<glyph unicode="(" horiz-adv-x="550" d="M111 385q17 312 148.5 592.5t350.5 515.5h107q-164 -202 -268 -390.5t-162 -413.5t-58 -482q0 -252 101 -598h-88q-149 422 -131 776z" />
<glyph unicode=")" horiz-adv-x="550" d="M-199 -391q248 299 368 603t120 683q0 252 -101 598h88q150 -424 132 -776q-32 -603 -500 -1108h-107z" />
<glyph unicode="*" horiz-adv-x="741" d="M158 1262l43 71l209 -116l53 245h80l-51 -254l237 49l10 -77l-235 -52l123 -208l-78 -39l-121 217l-176 -189l-57 56l170 184z" />
<glyph unicode="+" horiz-adv-x="1249" d="M111 461v108h460v461h109v-461h461v-108h-461v-461h-109v461h-460z" />
<glyph unicode="," horiz-adv-x="512" d="M-92 -281l16 82q34 10 58 29t40 49.5t24.5 55t19.5 65.5h-86l49 217h172l-68 -287q-24 -96 -73 -141t-152 -70z" />
<glyph unicode="-" horiz-adv-x="778" d="M88 504l25 119h514l-25 -119h-514z" />
<glyph unicode="." horiz-adv-x="512" d="M-20 0l47 217h174l-49 -217h-172z" />
<glyph unicode="/" horiz-adv-x="702" d="M-152 -31l842 1524h121l-842 -1524h-121z" />
<glyph unicode="0" horiz-adv-x="1218" d="M92 500q0 93 16.5 195.5t48 209.5t84.5 203t120.5 172t161 121t200.5 45q89 0 159 -26.5t115.5 -72t75.5 -110.5t42.5 -137t12.5 -156q0 -100 -15.5 -206t-46.5 -217.5t-84 -209t-122 -175t-166 -122.5t-211 -45q-89 0 -158 30.5t-112.5 80.5t-71 120.5t-38.5 143.5 t-11 156zM221 459q0 -79 14 -143.5t46 -120t91 -86.5t142 -31q85 0 158.5 46t125 122t91.5 169t63.5 193.5t35 189t11.5 160.5q0 379 -290 379q-100 0 -184.5 -65.5t-139 -165.5t-93 -221.5t-55 -230t-16.5 -195.5z" />
<glyph unicode="1" horiz-adv-x="770" d="M172 1075l27 103q327 50 454 256h99l-308 -1434h-129l254 1190q-85 -45 -177 -69.5t-220 -45.5z" />
<glyph unicode="2" horiz-adv-x="1105" d="M-2 0q3 64 20.5 122t42 104t65 91t77.5 77.5t91.5 70t95.5 61.5t102 58q185 104 241 141q163 110 209 234q21 57 21 122q0 124 -85 190t-210 66q-159 0 -253 -109.5t-102 -273.5h-129q8 215 146.5 353.5t349.5 138.5q114 0 206 -41.5t149 -126.5t57 -201 q0 -74 -23 -140.5t-58.5 -116t-93 -98.5t-111 -83.5t-128.5 -75.5q-32 -19 -91.5 -52t-95 -54t-87 -53.5t-85 -60.5t-70 -64t-61.5 -76t-41 -84h801l-22 -119h-928z" />
<glyph unicode="3" horiz-adv-x="1173" d="M66 455h129q-8 -173 71.5 -275t243.5 -102q162 0 274.5 99.5t112.5 256.5q0 138 -88.5 201t-230.5 63h-70l22 109h84q58 0 106.5 6t99.5 24.5t85.5 48t57 81t22.5 120.5q0 117 -81 183.5t-197 66.5q-154 0 -243.5 -89.5t-115.5 -250.5h-129q38 212 161 330.5t331 118.5 q81 0 153 -22.5t128 -65.5t89 -111.5t33 -154.5q0 -133 -84 -226.5t-217 -117.5v-5q103 -26 158 -107t55 -194q0 -109 -42 -200t-113 -150t-161.5 -91t-189.5 -32q-241 0 -351.5 130t-102.5 356z" />
<glyph unicode="4" horiz-adv-x="1142" d="M29 356l22 121l879 957h114l-208 -969h217l-25 -109h-215l-78 -356h-129l78 356h-655zM178 465h529l161 743l-4 4z" />
<glyph unicode="5" horiz-adv-x="1107" d="M31 406h129q-13 -154 68.5 -241t236.5 -87q118 0 211.5 60t142.5 157t49 211q0 154 -79.5 245t-233.5 91q-225 0 -317 -166l-115 10l235 729h732l-29 -119h-627l-153 -458h4q112 112 315 112q181 0 289 -119.5t108 -302.5q0 -246 -151 -402.5t-395 -156.5 q-201 0 -316.5 118.5t-103.5 318.5z" />
<glyph unicode="6" horiz-adv-x="1173" d="M80 453q0 156 36 326t107 315q180 352 504 352q189 0 293 -94t104 -281h-129q-9 266 -276 266q-64 0 -121 -22t-99.5 -56t-80 -87t-63.5 -103t-50 -115.5t-38 -114t-29 -108.5h4q59 97 158.5 150t217.5 53q185 0 297.5 -124t112.5 -310q0 -234 -145 -382.5t-377 -148.5 q-106 0 -188.5 37t-134 102.5t-77.5 153t-26 191.5zM209 416q0 -144 85 -241t228 -97q90 0 163 37t119 99t70.5 139.5t24.5 162.5q0 140 -92 224.5t-234 84.5q-106 0 -191 -59.5t-129 -152t-44 -197.5z" />
<glyph unicode="7" horiz-adv-x="937" d="M100 0q103 341 324 694q207 331 475 602h-780l28 119h916l-27 -110q-292 -289 -508 -658q-188 -325 -284 -647h-144z" />
<glyph unicode="8" horiz-adv-x="1179" d="M63 377q0 167 107 275t272 126v4q-95 30 -149.5 108.5t-54.5 178.5q0 115 61.5 202.5t158.5 131t210 43.5q85 0 159 -19.5t135.5 -59t97.5 -108.5t36 -159q0 -133 -85.5 -228t-217.5 -116v-2q115 -34 176 -125.5t61 -214.5q0 -103 -44 -189t-116.5 -141t-163.5 -85 t-188 -30q-93 0 -174 25.5t-144.5 74.5t-100 128.5t-36.5 179.5zM193 375q0 -147 93.5 -222t243.5 -75q160 0 265.5 93t105.5 249q0 77 -27 133.5t-75.5 89.5t-110.5 48.5t-139 15.5q-153 0 -254.5 -91.5t-101.5 -240.5zM367 1063q0 -122 82 -185t208 -63q133 0 221.5 73.5 t88.5 203.5q0 83 -40 139.5t-104 81t-147 24.5q-128 0 -218.5 -74.5t-90.5 -199.5z" />
<glyph unicode="9" horiz-adv-x="1198" d="M70 344h129q9 -266 276 -266q64 0 121 22t99.5 56t80 87t63.5 103t50 115.5t38 114t29 108.5h-4q-59 -97 -159 -150t-218 -53q-185 0 -297 124t-112 310q0 234 145 382.5t377 148.5q106 0 188.5 -36.5t134 -102.5t77.5 -153t26 -191q0 -156 -36 -326t-107 -315 q-181 -353 -504 -353q-189 0 -293 94t-104 281zM295 899q0 -140 92 -224.5t234 -84.5q106 0 191 59.5t129 152t44 197.5q0 144 -85 241t-228 97q-90 0 -163 -37t-119 -99t-70.5 -139.5t-24.5 -162.5z" />
<glyph unicode=":" horiz-adv-x="589" d="M57 0l47 217h175l-50 -217h-172zM242 807l47 217h174l-49 -217h-172z" />
<glyph unicode=";" horiz-adv-x="589" d="M-14 -281l16 82q27 8 48.5 23.5t35 32t25.5 44t17.5 47t14.5 52.5h-86l49 217h173l-68 -287q-24 -96 -73 -141t-152 -70zM242 807l47 217h174l-49 -217h-172z" />
<glyph unicode="&#x3c;" horiz-adv-x="1249" d="M104 463v110l1041 480v-113l-914 -422l914 -422v-112z" />
<glyph unicode="=" horiz-adv-x="1249" d="M111 262v109h1030v-109h-1030zM111 666v108h1030v-108h-1030z" />
<glyph unicode="&#x3e;" horiz-adv-x="1249" d="M104 -16v112l914 422l-914 422v113l1041 -480v-110z" />
<glyph unicode="?" horiz-adv-x="1120" d="M188 1010q8 222 139 352.5t351 130.5q79 0 149.5 -22t126.5 -63.5t88.5 -108.5t32.5 -150q0 -47 -10 -90.5t-25 -77.5t-41.5 -69.5t-50.5 -60.5t-62.5 -56t-66 -51t-71.5 -50q-102 -63 -142 -129t-67 -192h-129q7 50 18 91.5t22.5 72.5t34.5 62.5t39 51.5t51 49t57.5 46 t69.5 51q7 5 11 8q233 154 233 325q0 122 -74 188t-200 66q-156 0 -249.5 -104.5t-105.5 -269.5h-129zM311 0l47 217h174l-49 -217h-172z" />
<glyph unicode="@" horiz-adv-x="1658" d="M106 737q0 157 59 297.5t159.5 241t240 159t293.5 58.5q195 0 353 -80t249.5 -226t91.5 -331q0 -120 -42 -231.5t-109.5 -190t-153 -125.5t-170.5 -47q-56 0 -93.5 35.5t-43.5 101.5h-4q-129 -135 -260 -135q-124 0 -197 85.5t-73 211.5q0 85 22 170t65 160.5t101 134.5 t135 93t162 34q151 0 217 -172l51 133h109l-197 -590q-11 -37 -16.5 -64.5t-5.5 -53t12.5 -39t36.5 -13.5q66 0 130.5 47.5t111 120.5t75.5 164t29 176q0 164 -80 288.5t-211 187.5t-291 63q-141 0 -262.5 -53t-205.5 -144.5t-131.5 -216t-47.5 -264.5q0 -137 49.5 -259.5 t135.5 -211t207.5 -140t258.5 -51.5q152 0 296 74t233 199h104q-93 -166 -266.5 -265.5t-366.5 -99.5q-217 0 -391.5 101.5t-271.5 277t-97 389.5zM535 571q0 -91 47.5 -144.5t122.5 -53.5q67 0 131.5 50t109 123.5t71.5 156.5t27 151q0 72 -50.5 131t-110.5 59 q-75 0 -142 -47t-111 -118.5t-69.5 -153.5t-25.5 -154z" />
<glyph unicode="A" horiz-adv-x="1288" d="M-176 0l895 1462h151l267 -1462h-146l-73 455h-668l-270 -455h-156zM319 573h578l-125 770h-4z" />
<glyph unicode="B" horiz-adv-x="1361" d="M8 0l318 1462h567q85 0 155.5 -18t126.5 -56t87.5 -104.5t31.5 -155.5q0 -143 -86.5 -241t-230.5 -123v-4q113 -13 181.5 -98t68.5 -203q0 -100 -32 -179.5t-86.5 -131t-131 -85.5t-160 -48.5t-178.5 -14.5h-631zM174 119h496q63 0 121.5 11.5t113 36.5t94.5 62t64 92 t24 121q0 62 -19 108.5t-50.5 75t-77.5 46t-93.5 24t-105.5 6.5h-440zM328 821h460q73 2 137 20.5t116.5 52.5t83 90.5t30.5 129.5q0 118 -72.5 173.5t-191.5 55.5h-451z" />
<glyph unicode="C" horiz-adv-x="1429" d="M59 592q0 140 34 272.5t102 246.5t162 199.5t222 134t275 48.5q156 0 276.5 -54.5t193 -167.5t75.5 -272h-139q-4 183 -112.5 279t-295.5 96q-128 0 -236.5 -44.5t-184 -120.5t-129 -178t-78.5 -216t-25 -235q0 -226 128.5 -359t354.5 -133q174 0 309 111t187 301h139 q-25 -114 -78.5 -209.5t-134 -168t-194.5 -113t-251 -40.5q-282 0 -441 170.5t-159 452.5z" />
<glyph unicode="D" horiz-adv-x="1398" d="M8 0l318 1462h471q154 0 263.5 -41t173 -120.5t92 -183t28.5 -240.5q0 -139 -32.5 -268t-99 -240t-160.5 -193t-225 -129t-284 -47h-545zM174 119h352h13q134 1 244 41q116 42 195 116t133 175.5t78.5 214.5t24.5 237q0 440 -440 440h-334z" />
<glyph unicode="E" horiz-adv-x="1247" d="M8 0l311 1462h981l-26 -119h-840l-112 -528h784l-27 -119h-782l-123 -577h860l-26 -119h-1000z" />
<glyph unicode="F" horiz-adv-x="1132" d="M8 0l314 1462h935l-24 -119h-797l-112 -528h706l-22 -119h-711l-150 -696h-139z" />
<glyph unicode="G" horiz-adv-x="1507" d="M59 582q0 142 32 275.5t98.5 249t160 201.5t224 135.5t282.5 49.5q275 0 423.5 -125t156.5 -356h-140q-7 179 -126.5 270.5t-325.5 91.5q-140 0 -262.5 -67.5t-205 -177.5t-130 -251t-47.5 -288q0 -232 121.5 -367t351.5 -135q118 0 219.5 41t175 113.5t122 170 t66.5 212.5h-503l28 118h625l-154 -743h-94l25 246h-4q-175 -277 -531 -277q-280 0 -434 164t-154 449z" />
<glyph unicode="H" horiz-adv-x="1437" d="M8 0l311 1462h140l-135 -635h845l136 635h139l-311 -1462h-140l152 709h-846l-152 -709h-139z" />
<glyph unicode="I" horiz-adv-x="450" d="M8 0l309 1462h140l-310 -1462h-139z" />
<glyph unicode="J" horiz-adv-x="1032" d="M-43 303q0 87 18 166h140q-19 -112 -19 -180q0 -105 70.5 -153t183.5 -48q62 0 111 18.5t81 48t57 75t39 89t26 101.5l223 1042h139l-233 -1093q-28 -132 -79 -217.5t-144.5 -134t-229.5 -48.5q-174 0 -278.5 81.5t-104.5 252.5z" />
<glyph unicode="K" horiz-adv-x="1323" d="M8 0l311 1462h140l-168 -780l4 -4l944 784h195l-750 -610l522 -852h-159l-465 766l-326 -260l-109 -506h-139z" />
<glyph unicode="L" horiz-adv-x="1124" d="M8 0l316 1462h139l-289 -1343h809l-29 -119h-946z" />
<glyph unicode="M" horiz-adv-x="1740" d="M2 0l317 1462h203l228 -1312l802 1312h203l-313 -1462h-137l301 1323h-4l-809 -1323h-140l-235 1343h-4l-277 -1343h-135z" />
<glyph unicode="N" horiz-adv-x="1458" d="M-2 0l315 1462h158l584 -1306h4l270 1306h135l-319 -1462h-154l-583 1307h-5l-272 -1307h-133z" />
<glyph unicode="O" horiz-adv-x="1519" d="M59 592q0 140 34 272.5t102 246.5t162 199.5t222 134t275 48.5q278 0 442 -167t164 -445q0 -143 -33 -277t-100.5 -249.5t-162 -201.5t-224.5 -135t-281 -49q-282 0 -441 170.5t-159 452.5zM199 580q0 -226 128.5 -359t354.5 -133q143 0 266 67.5t203 176t125 243 t45 271.5q0 116 -28.5 211t-85 166.5t-147 111t-208.5 39.5q-128 0 -236.5 -44.5t-184 -120.5t-129 -178t-78.5 -216t-25 -235z" />
<glyph unicode="P" horiz-adv-x="1286" d="M8 0l316 1462h589q170 0 280 -97.5t110 -262.5q0 -223 -139.5 -349t-364.5 -126h-516l-136 -627h-139zM309 745h494q157 0 258.5 90t101.5 246q0 141 -77 201.5t-220 60.5h-428z" />
<glyph unicode="Q" horiz-adv-x="1529" d="M59 592q0 140 34 272.5t102 246.5t162 199.5t222 134t275 48.5q278 0 442 -167t164 -445q0 -231 -84.5 -429.5t-242.5 -324.5l186 -174l-82 -84l-205 192q-162 -92 -373 -92q-282 0 -441 170.5t-159 452.5zM199 580q0 -226 128.5 -359t354.5 -133q135 0 254 66l-164 151 l80 84l184 -172q134 105 209.5 275.5t75.5 353.5q0 116 -28.5 211t-85 166.5t-147 111t-208.5 39.5q-128 0 -236.5 -44.5t-184 -120.5t-129 -178t-78.5 -216t-25 -235z" />
<glyph unicode="R" horiz-adv-x="1323" d="M8 0l311 1462h623q186 0 284.5 -92.5t98.5 -271.5q0 -161 -105 -274.5t-266 -125.5v-4q187 -42 187 -262q0 -52 -10.5 -154t-10.5 -151q0 -93 25 -127h-144q-10 6 -15 62t-5 88q0 44 10 131t10 131q0 237 -200 237h-516l-138 -649h-139zM311 768h494q167 0 274 81.5 t107 237.5q0 131 -58.5 193.5t-191.5 62.5h-502z" />
<glyph unicode="S" horiz-adv-x="1241" d="M0 481h139q-1 -18 -1 -36q0 -178 102 -263q112 -94 321 -94q74 0 145.5 18.5t133 55t99.5 98.5t38 141q0 30 -6.5 57t-15.5 48t-26.5 40t-32.5 32.5t-40.5 27.5t-43.5 22t-48.5 18.5t-49 16t-51.5 15t-49 14.5l-143 43q-289 82 -289 340q0 85 29 155.5t78 118.5t115.5 81 t141 48t154.5 15q92 0 170 -15t146 -49t114 -86q48 -52 72 -130q20 -65 20 -144q0 -16 -1 -33h-140q0 185 -95.5 261.5t-291.5 76.5q-70 0 -134.5 -17t-118.5 -51t-86.5 -92t-32.5 -133q0 -45 14.5 -81.5t35.5 -60t56.5 -43.5t65 -31.5t73.5 -24.5l156 -47q51 -15 86 -26.5 t80 -30t74.5 -37.5t61 -47.5t49.5 -60.5t30 -76t12 -95q0 -34 -6 -70.5t-23 -81.5t-43.5 -86t-71 -80.5t-101.5 -68.5t-139.5 -46.5t-180.5 -17.5q-125 0 -227 31t-177 92t-114 160q-34 86 -34 195q0 17 1 34z" />
<glyph unicode="T" horiz-adv-x="1183" d="M162 1343l24 119h1143l-24 -119h-502l-293 -1343h-139l293 1343h-502z" />
<glyph unicode="U" horiz-adv-x="1374" d="M70 389q0 48 12 119l197 954h139l-195 -930q-14 -55 -14 -126v-18q0 -141 103 -218q110 -82 296 -82q196 0 315 98.5t158 286.5l207 989h139l-208 -999q-103 -494 -629 -494q-79 0 -152.5 14t-141 46.5t-117.5 80t-79.5 119t-29.5 160.5z" />
<glyph unicode="V" horiz-adv-x="1189" d="M121 1462h143l187 -1343h4l749 1343h152l-844 -1462h-162z" />
<glyph unicode="W" horiz-adv-x="1873" d="M141 1462h140l75 -1300h4l623 1300h168l100 -1288h4l598 1288h146l-705 -1462h-151l-96 1329h-5l-639 -1329h-153z" />
<glyph unicode="X" horiz-adv-x="1126" d="M-186 0l671 762l-360 700h154l303 -614l530 614h166l-635 -723l381 -739h-147l-326 651l-574 -651h-163z" />
<glyph unicode="Y" horiz-adv-x="1226" d="M133 1462h148l329 -741l613 741h170l-734 -872l-129 -590h-141l133 604z" />
<glyph unicode="Z" horiz-adv-x="1185" d="M-125 0l27 123l1165 1220h-889l27 119h1055l-25 -116l-1169 -1227h974l-26 -119h-1139z" />
<glyph unicode="[" horiz-adv-x="514" d="M-47 -391l399 1884h334l-22 -109h-201l-359 -1667h199l-20 -108h-330z" />
<glyph unicode="\" horiz-adv-x="702" d="M-109 1493h121l842 -1524h-121z" />
<glyph unicode="]" horiz-adv-x="514" d="M-141 -391l22 108h201l358 1667h-198l20 109h330l-399 -1884h-334z" />
<glyph unicode="^" horiz-adv-x="1249" d="M100 487l471 928h107l471 -928h-117l-409 799l-404 -799h-119z" />
<glyph unicode="_" horiz-adv-x="1044" d="M10 -154h1024v-102h-1024v102z" />
<glyph unicode="`" d="M147 1499h152l168 -295h-102z" />
<glyph unicode="a" horiz-adv-x="1067" d="M-25 262q0 65 20.5 116.5t54 86t83 60t98.5 40t111 25.5q67 11 180.5 15t155.5 16q67 18 97 62.5t30 143.5q0 45 -20.5 76.5t-55 47t-70.5 22t-77 6.5q-134 0 -223.5 -57t-108.5 -181h-129q24 172 145.5 259t300.5 87q47 0 93.5 -6t97 -22.5t88.5 -42t63 -68t25 -96.5 q0 -24 -4 -57t-7.5 -57.5t-13.5 -68.5t-13.5 -59.5t-15.5 -64t-12 -49.5q-15 -72 -31 -144.5t-22.5 -102t-11 -58.5t-4.5 -52q0 -43 67 -43q16 0 52 4l-19 -102q-52 -10 -106 -10t-82.5 29.5t-30.5 84.5q0 22 4 58l-4 4q-55 -91 -155 -143t-212 -52q-154 0 -246 72.5 t-92 220.5zM104 268q0 -96 67.5 -143t168.5 -47q152 0 249.5 83t129.5 226l41 178l-4 4q-11 -12 -29.5 -21.5t-35 -15t-45 -10t-43 -6t-45 -3.5t-36.5 -3q-166 -11 -241 -33q-177 -53 -177 -209z" />
<glyph unicode="b" horiz-adv-x="1185" d="M-12 0l311 1462h129l-125 -592h4q57 100 152 158.5t213 58.5q195 0 298 -121.5t103 -318.5q0 -98 -23 -194.5t-70.5 -183.5t-113 -154t-156.5 -106.5t-196 -39.5q-136 0 -232 72.5t-122 200.5h-4l-52 -242h-116zM209 399q0 -141 74 -231t215 -90q105 0 192.5 53 t141 137.5t83 184t29.5 198.5q0 154 -75 241t-228 87q-82 0 -154 -37.5t-121.5 -98t-86 -137.5t-53.5 -155.5t-17 -151.5z" />
<glyph unicode="c" horiz-adv-x="1099" d="M55 406q0 125 40 246t111.5 218t182 157t240.5 60q183 1 291 -91q105 -88 105 -257q0 -6 -1 -12h-129q1 10 1 20q0 102 -66 164q-72 68 -189 68q-90 0 -166 -33.5t-128.5 -90t-90 -130.5t-55 -155t-17.5 -164q0 -148 74.5 -238t220.5 -90q125 0 215 71.5t133 192.5h129 q-122 -373 -493 -373q-193 0 -300.5 119t-107.5 318z" />
<glyph unicode="d" horiz-adv-x="1208" d="M51 401q0 97 25.5 195.5t76.5 186t119.5 156t161 108.5t195.5 40q279 0 344 -229h4l127 604h129l-313 -1462h-125l47 190h-4q-72 -111 -162 -166t-223 -55q-197 0 -299.5 116t-102.5 316zM180 393q0 -142 72 -228.5t213 -86.5q85 0 160.5 37t129.5 97.5t93.5 138.5 t58.5 160.5t19 162.5q0 141 -77.5 223t-217.5 82q-106 0 -194.5 -55t-143 -142.5t-84 -188.5t-29.5 -200z" />
<glyph unicode="e" horiz-adv-x="1150" d="M55 418q0 127 39 246.5t110.5 214t181.5 151.5t241 57q188 0 294.5 -112t106.5 -299q0 -103 -10 -182h-828q-6 -37 -6 -82q0 -149 78.5 -241.5t229.5 -92.5q125 0 217 71.5t129 190.5h129q-112 -371 -482 -371q-208 0 -319 119.5t-111 329.5zM207 602h690q0 16 1 42.5 t1 39.5q0 135 -77.5 215t-211.5 80q-101 0 -187.5 -54.5t-140 -138.5t-75.5 -184z" />
<glyph unicode="f" horiz-adv-x="516" d="M20 0l209 948h-184l25 109h182l33 153q26 125 91 188.5t191 63.5q90 0 133 -14l-22 -107q-58 13 -80 13q-87 0 -126.5 -34t-59.5 -116l-31 -147h209l-25 -109h-207l-208 -948h-130z" />
<glyph unicode="g" horiz-adv-x="1159" d="M-31 -80h129q0 -65 24.5 -112t67.5 -72.5t93.5 -37t111.5 -11.5q60 0 110.5 16t86.5 40t66.5 64t49 75t36 86.5t26.5 85.5t21 85.5t18 73.5l-4 4q-51 -91 -151 -142.5t-210 -51.5q-185 0 -288 120t-103 310q0 118 37.5 230.5t105.5 203t172 145.5t226 55q127 0 227 -64.5 t119 -182.5h4l45 217h119l-201 -946q-29 -144 -69 -240.5t-102 -164t-149.5 -98t-209.5 -30.5q-84 0 -154 18.5t-127.5 57.5t-91 107t-35.5 159zM182 463q0 -143 72.5 -237.5t212.5 -94.5q94 0 175.5 48t134 124.5t82.5 169t30 182.5q0 149 -70 236.5t-219 87.5 q-95 0 -176 -47t-132.5 -122t-80.5 -165.5t-29 -181.5z" />
<glyph unicode="h" horiz-adv-x="1120" d="M-12 0l315 1462h129l-129 -598h4q58 98 157.5 160.5t213.5 62.5q148 0 233.5 -69t85.5 -215q0 -43 -16 -125l-145 -678h-129l147 682q14 58 14 106q0 98 -63 144.5t-158 46.5q-141 0 -257 -119.5t-157 -316.5l-116 -543h-129z" />
<glyph unicode="i" d="M-12 0l227 1057h129l-227 -1057h-129zM258 1255l45 207h129l-45 -207h-129z" />
<glyph unicode="j" horiz-adv-x="393" d="M-276 -381l24 107q9 -1 34.5 -5t39.5 -4q55 0 83 28.5t42 78.5l262 1233h129l-264 -1237q-26 -109 -84.5 -160t-175.5 -51q-17 0 -47 4.5t-43 5.5zM252 1255l43 207h131l-45 -207h-129z" />
<glyph unicode="k" horiz-adv-x="964" d="M-12 0l311 1462h129l-197 -917l5 -4l618 516h172l-500 -408l320 -649h-141l-281 571l-225 -188l-82 -383h-129z" />
<glyph unicode="l" d="M-12 0l315 1462h129l-315 -1462h-129z" />
<glyph unicode="m" horiz-adv-x="1726" d="M-12 0l227 1057h119l-41 -185l4 -4q60 96 159.5 157.5t213.5 61.5q112 0 179 -57t77 -168h4q64 103 160 164t210 61q148 0 220.5 -74.5t72.5 -203.5q0 -46 -14 -121l-147 -688h-129l149 692q12 56 12 107q0 82 -50.5 131t-149.5 49q-66 0 -121 -26t-95 -69t-73 -107.5 t-55 -134t-41 -155.5l-105 -487h-129l148 688q12 53 12 103q0 83 -44.5 135.5t-133.5 52.5q-137 0 -245 -125.5t-151 -316.5l-114 -537h-129z" />
<glyph unicode="n" horiz-adv-x="1120" d="M-12 0l227 1057h119l-37 -193h4q63 99 163 161t214 62q148 0 233.5 -69t85.5 -215q0 -43 -16 -125l-145 -678h-129l147 682q14 58 14 106q0 98 -63 144.5t-158 46.5q-141 0 -257 -119.5t-157 -316.5l-116 -543h-129z" />
<glyph unicode="o" horiz-adv-x="1181" d="M51 410q0 131 40 252t113 216t186.5 152t250.5 57q188 0 303 -110t115 -303q0 -108 -23 -209.5t-71 -191.5t-116.5 -157.5t-165 -107t-210.5 -39.5q-201 0 -311.5 119.5t-110.5 321.5zM180 422q0 -159 80.5 -251.5t237.5 -92.5q82 0 154 35.5t122 94t86 133t53 153 t17 153.5q0 152 -80.5 242t-231.5 90q-82 0 -154.5 -34t-123.5 -90.5t-87.5 -129t-54.5 -150t-18 -153.5z" />
<glyph unicode="p" horiz-adv-x="1216" d="M-84 -391l311 1448h117l-41 -191h4q72 111 162 166t223 55q197 0 299.5 -117t102.5 -315q0 -97 -25.5 -195.5t-76.5 -186t-119.5 -156t-161 -108.5t-195.5 -40q-134 0 -226.5 60t-111.5 182h-4l-129 -602h-129zM219 383q0 -141 77.5 -223t217.5 -82q106 0 194.5 55 t143 142.5t84 188.5t29.5 200q0 142 -72 228.5t-213 86.5q-85 0 -160.5 -37t-129.5 -97.5t-93.5 -138.5t-58.5 -160.5t-19 -162.5z" />
<glyph unicode="q" horiz-adv-x="1200" d="M55 410q0 98 23 194t70.5 183.5t113 154t156.5 106t196 39.5q133 0 232 -66t131 -175h4l45 211h119l-311 -1448h-129l124 577h-4q-63 -101 -157 -159t-211 -58q-195 0 -298.5 122t-103.5 319zM184 406q0 -154 75 -241t228 -87q102 0 187 56.5t137 144.5t80.5 187 t28.5 191q0 141 -74 231.5t-215 90.5q-105 0 -192.5 -53t-141.5 -137.5t-83.5 -184t-29.5 -198.5z" />
<glyph unicode="r" horiz-adv-x="665" d="M-12 0l227 1057h117l-53 -244h4q67 124 158.5 191t224.5 67h34q25 0 35 -2l-28 -129q-13 0 -37 1t-37 1q-84 -2 -152.5 -34.5t-116 -88t-79 -122t-49.5 -144.5l-119 -553h-129z" />
<glyph unicode="s" horiz-adv-x="950" d="M-29 344h129q0 -74 25 -128t69 -83t94.5 -42t110.5 -13q45 0 90.5 11.5t86 34t65.5 61t25 87.5q0 25 -7.5 48t-17 39.5t-30.5 33.5t-35.5 27t-45 24.5t-46.5 21t-52.5 20.5t-50.5 20q-50 19 -83.5 34.5t-75 41.5t-66 54t-41.5 70.5t-17 92.5q0 73 36.5 130.5t95 90.5 t125 50t134.5 17q177 0 279 -82q98 -79 99 -244q0 -6 -1 -13h-129q1 10 1 20q0 100 -64 153q-70 58 -185 58q-47 0 -89.5 -8t-83 -27t-65 -56t-24.5 -89q0 -29 13 -54.5t30.5 -43t51 -37t59 -31t70.5 -29.5q13 -5 55.5 -21.5t60.5 -24.5t55.5 -26t56 -32t45 -37.5t39 -46.5 t22.5 -55t10 -68q0 -85 -37.5 -150t-100 -101.5t-135.5 -54.5t-153 -18t-150.5 22t-128.5 66t-90 118q-29 66 -29 148v21z" />
<glyph unicode="t" horiz-adv-x="636" d="M61 948l25 109h190l68 319h129l-67 -319h210l-20 -109h-215l-145 -678q-15 -73 -15 -100q0 -32 16.5 -53t51.5 -21q68 0 151 13l-22 -113q-57 -8 -131 -8q-195 0 -195 151q0 43 14 109l146 700h-191z" />
<glyph unicode="u" horiz-adv-x="1110" d="M41 254q0 43 16 125l146 678h129l-148 -682q-14 -58 -14 -107q0 -97 63 -143.5t158 -46.5q142 0 256 118.5t158 317.5l117 543h129l-228 -1057h-118l36 193h-4q-63 -99 -163 -161.5t-214 -62.5q-148 0 -233.5 69.5t-85.5 215.5z" />
<glyph unicode="v" horiz-adv-x="921" d="M82 1057h135l125 -912h4l496 912h141l-596 -1057h-139z" />
<glyph unicode="w" horiz-adv-x="1503" d="M82 1057h135l84 -901h4l436 901h152l72 -893h4l448 893h137l-555 -1057h-139l-76 887h-4l-434 -887h-141z" />
<glyph unicode="x" horiz-adv-x="931" d="M-154 0l504 557l-248 500h148l192 -416l365 416h156l-465 -512l280 -545h-147l-225 461l-406 -461h-154z" />
<glyph unicode="y" horiz-adv-x="921" d="M-133 -381l24 105q65 -7 111 -7q97 0 166 115l96 168l-194 1057h135l151 -897h4l488 897h139l-751 -1307q-81 -141 -256 -141q-22 0 -59.5 4.5t-53.5 5.5z" />
<glyph unicode="z" horiz-adv-x="927" d="M-109 0l23 104l817 844h-631l23 109h795l-23 -103l-821 -845h678l-23 -109h-838z" />
<glyph unicode="{" horiz-adv-x="702" d="M129 496l23 108q43 0 79 27t62 75.5t44.5 103.5t31.5 122l63 305q23 118 85.5 187t148.5 69h102l-23 -109h-47q-25 0 -43 -6.5t-37.5 -27t-36 -64t-30.5 -112.5l-59 -289q-12 -64 -36.5 -119.5t-49.5 -90t-54.5 -63t-46.5 -40.5t-31 -19v-4q13 -8 30 -29t36.5 -72.5 t19.5 -113.5q0 -42 -14 -117l-55 -264q-27 -139 -27 -146q0 -90 80 -90h53l-22 -108h-82q-64 0 -111 46.5t-47 127.5q0 30 10 82l64 303q22 99 22 172q0 156 -102 156z" />
<glyph unicode="|" horiz-adv-x="475" d="M184 -438v2048h109v-2048h-109z" />
<glyph unicode="}" horiz-adv-x="702" d="M-115 -391l23 108h47q25 0 43 6.5t37.5 27t36 64.5t30.5 113l60 289q12 64 36.5 119.5t49.5 90t54 63t46.5 40.5t30.5 19v4q-13 8 -30 28.5t-36.5 72t-19.5 114.5q0 42 14 117l55 264q27 139 27 145q0 90 -80 90h-53l23 109h81q64 0 111 -46.5t47 -127.5q0 -30 -10 -82 l-64 -303q-22 -99 -22 -172q0 -156 102 -156l-22 -108q-43 0 -79 -27t-62 -75.5t-44.5 -103.5t-31.5 -122l-64 -305q-23 -118 -85 -187t-148 -69h-103z" />
<glyph unicode="~" horiz-adv-x="1249" d="M152 461q86 176 256 176q83 0 235 -66q58 -25 80.5 -34.5t59.5 -21t61 -11.5q55 0 95.5 36.5t84.5 104.5l74 -74q-26 -39 -48 -65.5t-53.5 -54.5t-70.5 -42t-84 -14q-55 0 -106 17.5t-120 50.5q-50 23 -74 33t-66 21t-79 11q-107 0 -172 -141z" />
<glyph unicode="&#xa1;" horiz-adv-x="589" d="M6 -391l94 461l172 637h76l-110 -641l-95 -457h-137zM254 840l47 217h174l-49 -217h-172z" />
<glyph unicode="&#xa2;" horiz-adv-x="1159" d="M84 406q0 99 24 196t72 183.5t115 153.5t158.5 106.5t195.5 41.5l39 179h78l-39 -183q154 -18 242 -107.5t84 -248.5h-129q7 107 -54.5 174t-164.5 78l-193 -901q124 1 212.5 72.5t131.5 191.5h129q-122 -373 -493 -373h-5l-45 -209h-80l48 217q-157 23 -241.5 137.5 t-84.5 291.5zM213 406q0 -127 56 -212t163 -108l193 893q-101 -10 -181.5 -64t-129.5 -135.5t-75 -177.5t-26 -196z" />
<glyph unicode="&#xa3;" horiz-adv-x="1159" d="M2 86q61 49 103 89t87.5 95.5t69 118t23.5 129.5q0 41 -23 154h-178l14 69h144q-54 153 -54 267q0 151 67 262.5t177 167t246 55.5q211 0 333 -132t105 -341h-129q12 160 -68 262t-233 102q-103 0 -184.5 -37.5t-133 -122t-51.5 -206.5q0 -141 54 -277h323l-12 -69h-293 q25 -91 25 -160q0 -36 -9.5 -71.5t-20.5 -62.5t-37.5 -61.5t-41.5 -53t-52 -53t-49.5 -45.5t-53.5 -46l4 -4q100 47 215 47q61 0 163 -41q110 -43 175 -43q73 0 128 29t121 92l50 -103q-73 -71 -149 -99t-183 -28q-55 0 -178 45q-107 39 -193 39q-68 0 -125 -20t-127 -60z " />
<glyph unicode="&#xa4;" horiz-adv-x="1159" d="M72 279l114 114q-114 132 -114 316q0 180 112 317l-112 113l78 78l112 -113q138 113 318 113q179 0 317 -113l113 113l77 -78l-112 -113q112 -137 112 -317q0 -181 -112 -318l112 -112l-77 -78l-115 114q-136 -114 -315 -114q-187 0 -318 112l-112 -112zM201 709 q0 -157 111 -268t268 -111t267.5 111t110.5 268t-110.5 267.5t-267.5 110.5t-268 -110.5t-111 -267.5z" />
<glyph unicode="&#xa5;" horiz-adv-x="1159" d="M182 1462h131l279 -747l561 747h154l-576 -747h227l-20 -92h-279l-24 -33l-31 -137h299l-20 -93h-299l-78 -360h-129l80 360h-271l21 93h270l33 151l-6 19h-262l20 92h205z" />
<glyph unicode="&#xa6;" horiz-adv-x="475" d="M184 -182v512h109v-512h-109zM184 842v512h109v-512h-109z" />
<glyph unicode="&#xa7;" horiz-adv-x="1159" d="M31 27h129q-12 -118 58.5 -192.5t191.5 -74.5q87 0 157 49t70 130q0 24 -6.5 49.5t-14.5 45t-27 47t-31 43.5t-41.5 46.5t-43.5 44t-51 49.5t-51 49q-47 45 -67 65.5t-59.5 62.5t-58.5 70t-42 66.5t-32.5 76t-9.5 75.5q0 122 84.5 205.5t210.5 101.5q-53 80 -53 158 q0 136 101.5 217.5t250.5 81.5q171 0 266 -88t91 -270h-129q0 114 -54.5 181.5t-169.5 67.5q-40 0 -78 -10t-72.5 -31.5t-55.5 -61t-21 -93.5q0 -21 7 -43.5t15 -40.5t27.5 -43.5t31.5 -40.5t41 -43.5t42.5 -41.5t49.5 -45.5t48 -43.5q59 -54 96.5 -93t79 -92t62 -105 t20.5 -105q0 -133 -80 -217.5t-213 -102.5q66 -86 66 -176q0 -99 -56.5 -169.5t-139.5 -102t-179 -31.5q-167 0 -269.5 106t-90.5 269zM231 729q0 -104 187 -291q210 -209 227 -229q93 13 156 71t63 148q0 117 -164 281q-44 44 -136.5 129.5t-117.5 113.5q-75 0 -145 -65 t-70 -158z" />
<glyph unicode="&#xa8;" d="M86 1247l39 209h131l-41 -209h-129zM412 1247l39 209h131l-41 -209h-129z" />
<glyph unicode="&#xa9;" horiz-adv-x="1658" d="M68 731q0 158 58.5 299t159.5 242.5t242.5 161t300.5 59.5t300.5 -59.5t242.5 -161t160 -242.5t59 -299t-59 -299t-160 -242.5t-242.5 -161t-300.5 -59.5t-300.5 59.5t-242.5 161t-159.5 242.5t-58.5 299zM186 731q0 -181 82.5 -330t230.5 -236t330 -87q135 0 255 51 t205 138.5t134.5 208t49.5 255.5t-49.5 255.5t-134.5 208t-205 138.5t-255 51q-182 0 -330 -87t-230.5 -236t-82.5 -330zM403 731q0 207 120 338t325 131q149 0 254 -82t125 -227h-105q-19 95 -91 155.5t-181 61.5q-161 0 -249.5 -105.5t-88.5 -271.5t88.5 -271.5 t249.5 -105.5q109 0 180.5 60.5t91.5 156.5h105q-20 -145 -125 -227t-254 -82q-205 0 -325 131t-120 338z" />
<glyph unicode="&#xaa;" horiz-adv-x="657" d="M59 940q0 52 19 90t56 61t74.5 35.5t90.5 22.5q43 7 116 9t101 9q43 11 62.5 36t19.5 75q0 48 -41 68t-94 20q-197 0 -221 -139h-88q17 111 96.5 165t206.5 54q39 0 77 -7t76 -23t61 -47.5t23 -74.5q0 -38 -11.5 -96t-18.5 -80q-8 -35 -22.5 -94t-24 -97.5t-9.5 -47.5 q0 -13 7 -19t14 -7t22 -1h17q10 0 16 2l-12 -76q-30 -6 -68 -6q-36 0 -56 19.5t-20 52.5q0 10 7 35h-7q-34 -60 -98.5 -92.5t-138.5 -32.5q-232 0 -232 186zM156 940q0 -52 43.5 -79t105.5 -27q100 0 162.5 48.5t83.5 135.5l27 100l-3 -2l-4 4q-8 -11 -28 -18.5t-38 -10 t-45 -5t-36 -3.5q-7 -1 -35.5 -3.5t-40 -4t-38.5 -5t-40.5 -8t-35 -12t-32.5 -17.5t-23.5 -23t-17.5 -31t-5 -39z" />
<glyph unicode="&#xab;" horiz-adv-x="892" d="M113 526l30 131l326 232l-31 -139l-237 -172l153 -209l-24 -129zM440 526l31 131l326 232l-31 -139l-238 -172l154 -209l-25 -129z" />
<glyph unicode="&#xac;" horiz-adv-x="1249" d="M111 666v108h1030v-547h-109v439h-921z" />
<glyph unicode="&#xad;" horiz-adv-x="778" d="M88 504l25 119h514l-25 -119h-514z" />
<glyph unicode="&#xae;" horiz-adv-x="1658" d="M68 731q0 158 58.5 299t159.5 242.5t242.5 161t300.5 59.5t300.5 -59.5t242.5 -161t160 -242.5t59 -299t-59 -299t-160 -242.5t-242.5 -161t-300.5 -59.5t-300.5 59.5t-242.5 161t-159.5 242.5t-58.5 299zM186 731q0 -181 82.5 -330t230.5 -236t330 -87q135 0 255 51 t205 138.5t134.5 208t49.5 255.5t-49.5 255.5t-134.5 208t-205 138.5t-255 51q-182 0 -330 -87t-230.5 -236t-82.5 -330zM553 291v880h338q287 0 287 -243q0 -204 -222 -246l263 -391h-127l-248 391h-182v-391h-109zM662 774h143q42 0 67 1t60 5.5t56 14.5t41.5 26.5 t30 43.5t9.5 63q0 151 -209 151h-198v-305z" />
<glyph unicode="&#xaf;" d="M68 1307l16 92h524l-16 -92h-524z" />
<glyph unicode="&#xb0;" horiz-adv-x="839" d="M250 1151q0 122 85.5 208.5t209.5 86.5q121 0 208 -87t87 -208q0 -124 -86.5 -209.5t-208.5 -85.5q-125 0 -210 85t-85 210zM330 1151q0 -91 62 -153t153 -62q90 0 152.5 62.5t62.5 152.5q0 89 -63 152t-152 63q-90 0 -152.5 -62.5t-62.5 -152.5z" />
<glyph unicode="&#xb1;" horiz-adv-x="1249" d="M111 0v109h1030v-109h-1030zM113 553v109h458v368h109v-368h461v-109h-461v-369h-109v369h-458z" />
<glyph unicode="&#xb2;" horiz-adv-x="702" d="M33 561q4 68 30.5 123.5t76.5 98.5t95.5 71.5t116.5 63.5q10 5 45 23.5t46.5 24.5t41.5 23.5t41 26t34.5 25.5t33 29t24.5 30.5t21 35.5t11 38t5 43q0 71 -54.5 110t-133.5 39q-99 0 -159.5 -65t-65.5 -160h-97q4 135 96 220t232 85q116 0 194 -60t85 -172 q0 -59 -21 -108t-62.5 -87.5t-83.5 -65.5t-104 -58q-26 -14 -85 -44t-91 -48t-72.5 -46t-61.5 -56.5t-26 -59.5h504l-14 -80h-602z" />
<glyph unicode="&#xb3;" horiz-adv-x="702" d="M59 846h84q-13 -223 201 -223q105 0 178.5 58.5t73.5 147.5q0 75 -58 111.5t-149 36.5h-45l14 80h54q241 0 241 164q0 69 -52 107t-128 38q-97 0 -154 -52.5t-75 -146.5h-84q53 279 317 279q120 0 196.5 -56.5t76.5 -166.5q0 -81 -54 -138t-141 -69v-4q66 -17 101.5 -64 t35.5 -114q0 -135 -100.5 -213t-251.5 -78q-156 0 -221 77.5t-60 225.5z" />
<glyph unicode="&#xb4;" d="M182 1204l238 295h166l-295 -295h-109z" />
<glyph unicode="&#xb5;" horiz-adv-x="1120" d="M-94 -391l307 1448h129l-147 -682q-15 -62 -15 -107q0 -97 63 -143.5t158 -46.5q142 0 256 118.5t158 317.5l117 543h129l-227 -1057h-119l37 193h-4q-63 -99 -163 -161.5t-214 -62.5q-167 0 -248 84l-92 -444h-125z" />
<glyph unicode="&#xb6;" horiz-adv-x="1249" d="M162 1061q41 194 180.5 297.5t357.5 103.5h445l-379 -1824h-109l361 1734h-260l-361 -1734h-108l215 1034q-178 0 -276.5 114t-65.5 275z" />
<glyph unicode="&#xb7;" horiz-adv-x="589" d="M156 639q0 47 33.5 81t80.5 34t81 -34t34 -81q0 -43 -34.5 -79t-78.5 -36q-47 0 -81.5 34t-34.5 81z" />
<glyph unicode="&#xb8;" d="M-164 -371l29 60q51 -20 82 -27.5t78 -7.5t80.5 20.5t33.5 61.5q0 42 -31.5 63t-78.5 21q-40 0 -80 -19l-33 37l143 162h76l-112 -115l4 -4q24 8 73 8q66 0 109 -35.5t43 -105.5q0 -42 -20 -74.5t-53 -51.5t-70 -28.5t-76 -9.5q-106 0 -197 45z" />
<glyph unicode="&#xb9;" horiz-adv-x="702" d="M231 1194l19 80q205 26 293 153h78l-199 -866h-98l161 703q-90 -54 -254 -70z" />
<glyph unicode="&#xba;" horiz-adv-x="704" d="M84 1028q0 83 26 158t74.5 133t124.5 92.5t168 34.5q129 0 204 -67.5t75 -190.5q0 -116 -41.5 -212.5t-131.5 -159t-216 -62.5q-138 0 -210.5 72.5t-72.5 201.5zM180 1036q0 -94 51.5 -148t151.5 -54q64 0 118.5 32.5t87.5 83.5t51.5 108.5t18.5 112.5q0 89 -51 142 t-147 53q-85 0 -151.5 -54t-98 -128t-31.5 -148z" />
<glyph unicode="&#xbb;" horiz-adv-x="892" d="M41 240l31 139l237 172l-153 209l24 129l217 -287l-30 -131zM369 240l30 139l238 172l-154 209l25 129l217 -287l-31 -131z" />
<glyph unicode="&#xbc;" horiz-adv-x="1728" d="M231 1194l19 80q205 26 293 153h78l-199 -866h-98l161 703q-90 -54 -254 -70zM326 -70l909 1555h108l-909 -1555h-108zM922 203l14 88l563 569h92l-133 -577h129l-14 -80h-133l-47 -203h-97l47 203h-421zM1038 283h322l100 430l-4 4z" />
<glyph unicode="&#xbd;" horiz-adv-x="1728" d="M180 1194l19 80q205 26 293 153h77l-198 -866h-99l162 703q-90 -54 -254 -70zM276 -70l910 1555h108l-909 -1555h-109zM928 0q3 55 23 103t47.5 81.5t73 67.5t82.5 55t93 49q10 5 45 23.5t46.5 24.5t41.5 23.5t41 26t34.5 25.5t33 29t24.5 30.5t21 35.5t11 38t5 43 q0 71 -54.5 110.5t-133.5 39.5q-99 0 -159.5 -65t-65.5 -160h-97q4 135 96 220t232 85q116 0 194 -60t85 -172q0 -59 -21 -108t-62.5 -87.5t-83.5 -65.5t-104 -58q-26 -14 -85 -44t-91 -48t-72.5 -46t-61.5 -56.5t-26 -59.5h504l-14 -80h-602z" />
<glyph unicode="&#xbe;" horiz-adv-x="1728" d="M59 846h84q-13 -223 201 -223q105 0 178.5 58.5t73.5 147.5q0 75 -58 111.5t-149 36.5h-45l14 80h54q241 0 241 164q0 69 -52 107t-128 38q-97 0 -154 -52.5t-75 -146.5h-84q53 279 317 279q120 0 196.5 -56.5t76.5 -166.5q0 -81 -54 -138t-141 -69v-4q66 -17 101.5 -64 t35.5 -114q0 -135 -100.5 -213t-251.5 -78q-156 0 -221 77.5t-60 225.5zM397 -70l910 1555h108l-909 -1555h-109zM922 203l14 88l563 569h92l-133 -577h129l-14 -80h-133l-47 -203h-97l47 203h-421zM1038 283h322l100 430l-4 4z" />
<glyph unicode="&#xbf;" horiz-adv-x="1120" d="M-29 -78q0 65 19 123t46 100t75.5 87.5t87 74t100.5 70.5q101 63 142 129.5t67 191.5h129q-7 -50 -18 -91.5t-22.5 -72.5t-34.5 -62.5t-39 -51.5t-51 -49t-57.5 -46t-69.5 -51q-7 -5 -11 -8q-234 -155 -234 -325q0 -122 74.5 -188t200.5 -66q156 0 248.5 104.5 t105.5 269.5h129q-8 -222 -139 -352.5t-350 -130.5q-79 0 -150 22t-126.5 63.5t-88.5 108.5t-33 150zM514 840l47 217h174l-49 -217h-172z" />
<glyph unicode="&#xc0;" horiz-adv-x="1288" d="M-176 0l895 1462h151l267 -1462h-146l-73 455h-668l-270 -455h-156zM319 573h578l-125 770h-4zM549 1888h151l168 -295h-102z" />
<glyph unicode="&#xc1;" horiz-adv-x="1474" d="M10 0l895 1462h152l266 -1462h-145l-74 455h-668l-270 -455h-156zM506 573h577l-125 770h-4zM920 1593l237 295h166l-295 -295h-108z" />
<glyph unicode="&#xc2;" horiz-adv-x="1288" d="M-176 0l895 1462h151l267 -1462h-146l-73 455h-668l-270 -455h-156zM319 573h578l-125 770h-4zM510 1593l278 295h130l176 -295h-117l-135 217l-207 -217h-125z" />
<glyph unicode="&#xc3;" horiz-adv-x="1288" d="M-176 0l895 1462h151l267 -1462h-146l-73 455h-668l-270 -455h-156zM319 573h578l-125 770h-4zM479 1638q57 207 191 207q24 0 51 -9t44 -17.5t48 -26.5q92 -61 143 -61q28 0 56 39t37 75h81q-18 -86 -59 -137q-53 -70 -123 -70q-26 0 -56 10t-47 18.5t-52 27.5 q-34 21 -49 30.5t-39.5 19t-42.5 9.5q-35 0 -62.5 -37t-36.5 -78h-84z" />
<glyph unicode="&#xc4;" horiz-adv-x="1288" d="M-176 0l895 1462h151l267 -1462h-146l-73 455h-668l-270 -455h-156zM319 573h578l-125 770h-4zM590 1636l39 209h131l-41 -209h-129zM915 1636l39 209h131l-41 -209h-129z" />
<glyph unicode="&#xc5;" horiz-adv-x="1288" d="M-176 0l895 1462h151l267 -1462h-146l-73 455h-668l-270 -455h-156zM319 573h578l-125 770h-4zM618 1761q0 82 60.5 142.5t142.5 60.5q83 0 144 -60.5t61 -142.5q0 -86 -59.5 -145.5t-145.5 -59.5q-82 0 -142.5 61t-60.5 144zM688 1761q0 -54 40 -94.5t93 -40.5 q54 0 94.5 40.5t40.5 94.5q0 53 -40.5 93t-94.5 40t-93.5 -39.5t-39.5 -93.5z" />
<glyph unicode="&#xc6;" horiz-adv-x="1884" d="M-176 0l1094 1462h1019l-26 -119h-731l-115 -528h686l-27 -119h-684l-125 -577h756l-26 -119h-895l100 463h-522l-340 -463h-164zM416 582h458l166 761h-61z" />
<glyph unicode="&#xc7;" horiz-adv-x="1429" d="M59 592q0 140 34 272.5t102 246.5t162 199.5t222 134t275 48.5q156 0 276.5 -54.5t193 -167.5t75.5 -272h-139q-4 183 -112.5 279t-295.5 96q-128 0 -236.5 -44.5t-184 -120.5t-129 -178t-78.5 -216t-25 -235q0 -226 128.5 -359t354.5 -133q174 0 309 111t187 301h139 q-25 -114 -78.5 -209.5t-134 -168t-194.5 -113t-251 -40.5h-32l-82 -84l4 -4q24 8 74 8q66 0 108.5 -35.5t42.5 -105.5q0 -42 -20 -74.5t-53 -51.5t-70 -28.5t-76 -9.5q-106 0 -197 45l29 60q51 -20 82 -27.5t78 -7.5t81 20.5t34 61.5q0 42 -32 63t-79 21q-40 0 -80 -19 l-33 37l121 137q-76 8 -156 39q-165 67 -254.5 218.5t-89.5 359.5z" />
<glyph unicode="&#xc8;" horiz-adv-x="1247" d="M8 0l311 1462h981l-26 -119h-840l-112 -528h784l-27 -119h-782l-123 -577h860l-26 -119h-1000zM612 1888h152l168 -295h-103z" />
<glyph unicode="&#xc9;" horiz-adv-x="1247" d="M8 0l311 1462h981l-26 -119h-840l-112 -528h784l-27 -119h-782l-123 -577h860l-26 -119h-1000zM754 1593l237 295h166l-295 -295h-108z" />
<glyph unicode="&#xca;" horiz-adv-x="1247" d="M8 0l311 1462h981l-26 -119h-840l-112 -528h784l-27 -119h-782l-123 -577h860l-26 -119h-1000zM526 1593l279 295h129l176 -295h-117l-135 217l-207 -217h-125z" />
<glyph unicode="&#xcb;" horiz-adv-x="1247" d="M8 0l311 1462h981l-26 -119h-840l-112 -528h784l-27 -119h-782l-123 -577h860l-26 -119h-1000zM592 1636l39 209h131l-41 -209h-129zM918 1636l38 209h131l-40 -209h-129z" />
<glyph unicode="&#xcc;" horiz-adv-x="450" d="M8 0l309 1462h140l-310 -1462h-139zM135 1921h152l168 -295h-103z" />
<glyph unicode="&#xcd;" horiz-adv-x="450" d="M8 0l309 1462h140l-310 -1462h-139zM317 1593l238 295h166l-295 -295h-109z" />
<glyph unicode="&#xce;" horiz-adv-x="450" d="M8 0l309 1462h140l-310 -1462h-139zM111 1626l278 295h129l176 -295h-116l-136 217l-206 -217h-125z" />
<glyph unicode="&#xcf;" horiz-adv-x="450" d="M8 0l309 1462h140l-310 -1462h-139zM186 1669l39 209h131l-41 -209h-129zM512 1669l39 209h131l-41 -209h-129z" />
<glyph unicode="&#xd0;" horiz-adv-x="1398" d="M2 713l21 92h161l142 657h471q154 0 263.5 -41t173 -120.5t92 -183t28.5 -240.5q0 -139 -32.5 -268t-99 -240t-160.5 -193t-225 -129t-284 -47h-545l156 713h-162zM174 119h352q141 -2 257 40.5t195 116.5t133 175.5t78.5 214.5t24.5 237q0 440 -440 440h-334l-116 -538 h436l-21 -92h-436z" />
<glyph unicode="&#xd1;" horiz-adv-x="1458" d="M-2 0l315 1462h158l584 -1306h4l270 1306h135l-319 -1462h-154l-583 1307h-5l-272 -1307h-133zM600 1638q57 207 191 207q24 0 51 -9t44 -17.5t48 -26.5q92 -61 143 -61q28 0 55.5 38.5t36.5 75.5h82q-18 -86 -59 -137q-53 -70 -123 -70q-26 0 -56 9.5t-48 18.5t-52 28 q-34 21 -49 30.5t-39.5 19t-42.5 9.5q-35 0 -62 -36.5t-36 -78.5h-84z" />
<glyph unicode="&#xd2;" horiz-adv-x="1519" d="M59 592q0 140 34 272.5t102 246.5t162 199.5t222 134t275 48.5q278 0 442 -167t164 -445q0 -143 -33 -277t-100.5 -249.5t-162 -201.5t-224.5 -135t-281 -49q-282 0 -441 170.5t-159 452.5zM199 580q0 -226 128.5 -359t354.5 -133q143 0 266 67.5t203 176t125 243 t45 271.5q0 116 -28.5 211t-85 166.5t-147 111t-208.5 39.5q-128 0 -236.5 -44.5t-184 -120.5t-129 -178t-78.5 -216t-25 -235zM631 1921h151l168 -295h-102z" />
<glyph unicode="&#xd3;" horiz-adv-x="1519" d="M59 592q0 140 34 272.5t102 246.5t162 199.5t222 134t275 48.5q278 0 442 -167t164 -445q0 -143 -33 -277t-100.5 -249.5t-162 -201.5t-224.5 -135t-281 -49q-282 0 -441 170.5t-159 452.5zM199 580q0 -226 128.5 -359t354.5 -133q143 0 266 67.5t203 176t125 243 t45 271.5q0 116 -28.5 211t-85 166.5t-147 111t-208.5 39.5q-128 0 -236.5 -44.5t-184 -120.5t-129 -178t-78.5 -216t-25 -235zM823 1626l238 295h166l-295 -295h-109z" />
<glyph unicode="&#xd4;" horiz-adv-x="1519" d="M59 592q0 140 34 272.5t102 246.5t162 199.5t222 134t275 48.5q278 0 442 -167t164 -445q0 -143 -33 -277t-100.5 -249.5t-162 -201.5t-224.5 -135t-281 -49q-282 0 -441 170.5t-159 452.5zM199 580q0 -226 128.5 -359t354.5 -133q143 0 266 67.5t203 176t125 243 t45 271.5q0 116 -28.5 211t-85 166.5t-147 111t-208.5 39.5q-128 0 -236.5 -44.5t-184 -120.5t-129 -178t-78.5 -216t-25 -235zM596 1626l278 295h130l176 -295h-117l-135 217l-207 -217h-125z" />
<glyph unicode="&#xd5;" horiz-adv-x="1519" d="M59 592q0 140 34 272.5t102 246.5t162 199.5t222 134t275 48.5q278 0 442 -167t164 -445q0 -143 -33 -277t-100.5 -249.5t-162 -201.5t-224.5 -135t-281 -49q-282 0 -441 170.5t-159 452.5zM199 580q0 -226 128.5 -359t354.5 -133q143 0 266 67.5t203 176t125 243 t45 271.5q0 116 -28.5 211t-85 166.5t-147 111t-208.5 39.5q-128 0 -236.5 -44.5t-184 -120.5t-129 -178t-78.5 -216t-25 -235zM586 1638q57 207 190 207q52 0 144 -53q92 -61 143 -61q28 0 55.5 38.5t36.5 75.5h82q-18 -86 -59 -137q-53 -70 -123 -70q-26 0 -56 9.5 t-48 18.5t-52 28q-34 21 -49 30.5t-39.5 19t-42.5 9.5q-35 0 -62 -36.5t-36 -78.5h-84z" />
<glyph unicode="&#xd6;" horiz-adv-x="1519" d="M59 592q0 140 34 272.5t102 246.5t162 199.5t222 134t275 48.5q278 0 442 -167t164 -445q0 -143 -33 -277t-100.5 -249.5t-162 -201.5t-224.5 -135t-281 -49q-282 0 -441 170.5t-159 452.5zM199 580q0 -226 128.5 -359t354.5 -133q143 0 266 67.5t203 176t125 243 t45 271.5q0 116 -28.5 211t-85 166.5t-147 111t-208.5 39.5q-128 0 -236.5 -44.5t-184 -120.5t-129 -178t-78.5 -216t-25 -235zM670 1636l39 209h131l-41 -209h-129zM995 1636l39 209h131l-41 -209h-129z" />
<glyph unicode="&#xd7;" horiz-adv-x="1249" d="M162 127l385 387l-385 387l76 76l387 -387l387 387l75 -76l-387 -387l387 -387l-75 -76l-387 385l-387 -385z" />
<glyph unicode="&#xd8;" horiz-adv-x="1519" d="M0 0l180 186q-121 157 -121 406q0 140 34 272.5t102 246.5t162 199.5t222 134t275 48.5q263 0 428 -156l172 181l51 -60l-170 -176q125 -162 125 -401q0 -143 -33 -277t-100.5 -249.5t-162 -201.5t-224.5 -135t-281 -49q-268 0 -430 162l-180 -186zM199 580 q0 -178 77 -293l914 954q-123 133 -338 133q-128 0 -236.5 -44.5t-184 -120.5t-129 -178t-78.5 -216t-25 -235zM324 229q131 -141 358 -141q143 0 266 67.5t203 176t125 243t45 271.5q0 201 -84 334z" />
<glyph unicode="&#xd9;" horiz-adv-x="1374" d="M70 389q0 48 12 119l197 954h139l-195 -930q-14 -55 -14 -126q-7 -154 103 -236t296 -82q196 0 315 98.5t158 286.5l207 989h139l-208 -999q-103 -494 -629 -494q-79 0 -152.5 14t-141 46.5t-117.5 80t-79.5 119t-29.5 160.5zM610 1921h152l168 -295h-103z" />
<glyph unicode="&#xda;" horiz-adv-x="1374" d="M70 389q0 48 12 119l197 954h139l-195 -930q-14 -55 -14 -126q-7 -154 103 -236t296 -82q196 0 315 98.5t158 286.5l207 989h139l-208 -999q-103 -494 -629 -494q-79 0 -152.5 14t-141 46.5t-117.5 80t-79.5 119t-29.5 160.5zM799 1626l237 295h166l-295 -295h-108z" />
<glyph unicode="&#xdb;" horiz-adv-x="1374" d="M70 389q0 48 12 119l197 954h139l-195 -930q-14 -55 -14 -126q-7 -154 103 -236t296 -82q196 0 315 98.5t158 286.5l207 989h139l-208 -999q-103 -494 -629 -494q-79 0 -152.5 14t-141 46.5t-117.5 80t-79.5 119t-29.5 160.5zM575 1626l279 295h129l176 -295h-117 l-135 217l-207 -217h-125z" />
<glyph unicode="&#xdc;" horiz-adv-x="1374" d="M70 389q0 48 12 119l197 954h139l-195 -930q-14 -55 -14 -126q-7 -154 103 -236t296 -82q196 0 315 98.5t158 286.5l207 989h139l-208 -999q-103 -494 -629 -494q-79 0 -152.5 14t-141 46.5t-117.5 80t-79.5 119t-29.5 160.5zM635 1636l39 209h131l-41 -209h-129z M961 1636l38 209h131l-40 -209h-129z" />
<glyph unicode="&#xdd;" horiz-adv-x="1226" d="M133 1462h148l329 -741l613 741h170l-734 -872l-129 -590h-141l133 604zM731 1593l238 295h166l-295 -295h-109z" />
<glyph unicode="&#xde;" horiz-adv-x="1286" d="M8 0l316 1462h139l-53 -239h450q170 0 279.5 -98t109.5 -263q0 -223 -139.5 -349t-364.5 -126h-516l-82 -387h-139zM256 506h494q157 0 258.5 90t101.5 246q0 141 -77 201.5t-220 60.5h-428z" />
<glyph unicode="&#xdf;" horiz-adv-x="1083" d="M-12 0l241 1116q80 377 433 377q105 0 184 -32t127.5 -104.5t48.5 -180.5q0 -138 -89 -240t-224 -119v-4q116 -25 178.5 -103.5t62.5 -197.5q0 -141 -66.5 -261t-184.5 -191.5t-259 -71.5q-88 0 -135 8l23 106q31 -6 92 -6q165 0 283 114t118 279q0 79 -27 133t-78 82 t-109 39t-136 11l25 108q54 -2 109 8t107 33.5t92 58t64.5 87.5t24.5 116q0 102 -62.5 160.5t-164.5 58.5q-139 0 -211.5 -76.5t-102.5 -224.5l-235 -1083h-129z" />
<glyph unicode="&#xe0;" horiz-adv-x="1067" d="M-25 262q0 65 20.5 116.5t54 86t83 60t98.5 40t111 25.5q67 11 180.5 15t155.5 16q67 18 97 62.5t30 143.5q0 45 -20.5 76.5t-55 47t-70.5 22t-77 6.5q-134 0 -223.5 -57t-108.5 -181h-129q24 172 145.5 259t300.5 87q47 0 93.5 -6t97 -22.5t88.5 -42t63 -68t25 -96.5 q0 -24 -4 -57t-7.5 -57.5t-13.5 -68.5t-13.5 -59.5t-15.5 -64t-12 -49.5q-15 -72 -31 -144.5t-22.5 -102t-11 -58.5t-4.5 -52q0 -43 67 -43q16 0 52 4l-19 -102q-52 -10 -106 -10t-82.5 29.5t-30.5 84.5q0 22 4 58l-4 4q-55 -91 -155 -143t-212 -52q-154 0 -246 72.5 t-92 220.5zM104 268q0 -96 67.5 -143t168.5 -47q152 0 249.5 83t129.5 226l41 178l-4 4q-11 -12 -29.5 -21.5t-35 -15t-45 -10t-43 -6t-45 -3.5t-36.5 -3q-166 -11 -241 -33q-177 -53 -177 -209zM387 1499h152l168 -295h-103z" />
<glyph unicode="&#xe1;" horiz-adv-x="1067" d="M-25 262q0 65 20.5 116.5t54 86t83 60t98.5 40t111 25.5q67 11 180.5 15t155.5 16q67 18 97 62.5t30 143.5q0 45 -20.5 76.5t-55 47t-70.5 22t-77 6.5q-134 0 -223.5 -57t-108.5 -181h-129q24 172 145.5 259t300.5 87q47 0 93.5 -6t97 -22.5t88.5 -42t63 -68t25 -96.5 q0 -24 -4 -57t-7.5 -57.5t-13.5 -68.5t-13.5 -59.5t-15.5 -64t-12 -49.5q-15 -72 -31 -144.5t-22.5 -102t-11 -58.5t-4.5 -52q0 -43 67 -43q16 0 52 4l-19 -102q-52 -10 -106 -10t-82.5 29.5t-30.5 84.5q0 22 4 58l-4 4q-55 -91 -155 -143t-212 -52q-154 0 -246 72.5 t-92 220.5zM104 268q0 -96 67.5 -143t168.5 -47q152 0 249.5 83t129.5 226l41 178l-4 4q-11 -12 -29.5 -21.5t-35 -15t-45 -10t-43 -6t-45 -3.5t-36.5 -3q-166 -11 -241 -33q-177 -53 -177 -209zM520 1204l238 295h166l-295 -295h-109z" />
<glyph unicode="&#xe2;" horiz-adv-x="1067" d="M-25 262q0 65 20.5 116.5t54 86t83 60t98.5 40t111 25.5q67 11 180.5 15t155.5 16q67 18 97 62.5t30 143.5q0 45 -20.5 76.5t-55 47t-70.5 22t-77 6.5q-134 0 -223.5 -57t-108.5 -181h-129q24 172 145.5 259t300.5 87q47 0 93.5 -6t97 -22.5t88.5 -42t63 -68t25 -96.5 q0 -24 -4 -57t-7.5 -57.5t-13.5 -68.5t-13.5 -59.5t-15.5 -64t-12 -49.5q-15 -72 -31 -144.5t-22.5 -102t-11 -58.5t-4.5 -52q0 -43 67 -43q16 0 52 4l-19 -102q-52 -10 -106 -10t-82.5 29.5t-30.5 84.5q0 22 4 58l-4 4q-55 -91 -155 -143t-212 -52q-154 0 -246 72.5 t-92 220.5zM104 268q0 -96 67.5 -143t168.5 -47q152 0 249.5 83t129.5 226l41 178l-4 4q-11 -12 -29.5 -21.5t-35 -15t-45 -10t-43 -6t-45 -3.5t-36.5 -3q-166 -11 -241 -33q-177 -53 -177 -209zM326 1204l278 295h129l176 -295h-116l-136 217l-206 -217h-125z" />
<glyph unicode="&#xe3;" horiz-adv-x="1103" d="M-25 262q0 65 20.5 116.5t54 86t83 60t98.5 40t111 25.5q67 11 180.5 15t155.5 16q67 18 97 62.5t30 143.5q0 45 -20.5 76.5t-55 47t-70.5 22t-77 6.5q-134 0 -223.5 -57t-108.5 -181h-129q24 172 145.5 259t300.5 87q47 0 93.5 -6t97 -22.5t88.5 -42t63 -68t25 -96.5 q0 -24 -4 -57t-7.5 -57.5t-13.5 -68.5t-13.5 -59.5t-15.5 -64t-12 -49.5q-15 -72 -31 -144.5t-22.5 -102t-11 -58.5t-4.5 -52q0 -43 67 -43q16 0 52 4l-19 -102q-52 -10 -106 -10t-82.5 29.5t-30.5 84.5q0 22 4 58l-4 4q-55 -91 -155 -143t-212 -52q-154 0 -246 72.5 t-92 220.5zM104 268q0 -96 67.5 -143t168.5 -47q152 0 249.5 83t129.5 226l41 178l-4 4q-11 -12 -29.5 -21.5t-35 -15t-45 -10t-43 -6t-45 -3.5t-36.5 -3q-166 -11 -241 -33q-177 -53 -177 -209zM319 1249q57 207 191 207q24 0 51 -9t44 -17.5t48 -26.5q94 -62 144 -62 q28 0 55.5 39t36.5 76h82q-18 -84 -60 -137q-53 -70 -123 -70q-26 0 -56 10t-47 18.5t-52 27.5q-34 21 -49 30.5t-39.5 19t-42.5 9.5q-35 0 -62.5 -37t-36.5 -78h-84z" />
<glyph unicode="&#xe4;" horiz-adv-x="1067" d="M-25 262q0 65 20.5 116.5t54 86t83 60t98.5 40t111 25.5q67 11 180.5 15t155.5 16q67 18 97 62.5t30 143.5q0 45 -20.5 76.5t-55 47t-70.5 22t-77 6.5q-134 0 -223.5 -57t-108.5 -181h-129q24 172 145.5 259t300.5 87q47 0 93.5 -6t97 -22.5t88.5 -42t63 -68t25 -96.5 q0 -24 -4 -57t-7.5 -57.5t-13.5 -68.5t-13.5 -59.5t-15.5 -64t-12 -49.5q-15 -72 -31 -144.5t-22.5 -102t-11 -58.5t-4.5 -52q0 -43 67 -43q16 0 52 4l-19 -102q-52 -10 -106 -10t-82.5 29.5t-30.5 84.5q0 22 4 58l-4 4q-55 -91 -155 -143t-212 -52q-154 0 -246 72.5 t-92 220.5zM104 268q0 -96 67.5 -143t168.5 -47q152 0 249.5 83t129.5 226l41 178l-4 4q-11 -12 -29.5 -21.5t-35 -15t-45 -10t-43 -6t-45 -3.5t-36.5 -3q-166 -11 -241 -33q-177 -53 -177 -209zM397 1247l39 209h131l-41 -209h-129zM723 1247l39 209h131l-41 -209h-129z " />
<glyph unicode="&#xe5;" horiz-adv-x="1067" d="M-25 262q0 65 20.5 116.5t54 86t83 60t98.5 40t111 25.5q67 11 180.5 15t155.5 16q67 18 97 62.5t30 143.5q0 45 -20.5 76.5t-55 47t-70.5 22t-77 6.5q-134 0 -223.5 -57t-108.5 -181h-129q24 172 145.5 259t300.5 87q47 0 93.5 -6t97 -22.5t88.5 -42t63 -68t25 -96.5 q0 -24 -4 -57t-7.5 -57.5t-13.5 -68.5t-13.5 -59.5t-15.5 -64t-12 -49.5q-15 -72 -31 -144.5t-22.5 -102t-11 -58.5t-4.5 -52q0 -43 67 -43q16 0 52 4l-19 -102q-52 -10 -106 -10t-82.5 29.5t-30.5 84.5q0 22 4 58l-4 4q-55 -91 -155 -143t-212 -52q-154 0 -246 72.5 t-92 220.5zM104 268q0 -96 67.5 -143t168.5 -47q152 0 249.5 83t129.5 226l41 178l-4 4q-11 -12 -29.5 -21.5t-35 -15t-45 -10t-43 -6t-45 -3.5t-36.5 -3q-166 -11 -241 -33q-177 -53 -177 -209zM426 1393q0 82 60.5 142t142.5 60q83 0 144 -60t61 -142q0 -86 -59.5 -145.5 t-145.5 -59.5q-82 0 -142.5 61t-60.5 144zM496 1393q0 -54 40 -95t93 -41q54 0 94.5 41t40.5 95q0 53 -40.5 93t-94.5 40t-93.5 -39.5t-39.5 -93.5z" />
<glyph unicode="&#xe6;" horiz-adv-x="1798" d="M-25 262q0 65 20.5 116.5t54 86t83 60t98.5 40t111 25.5q67 11 180.5 15t155.5 16q67 18 97 62.5t30 143.5q0 45 -20.5 76.5t-55 47t-70.5 22t-77 6.5q-134 0 -223.5 -57t-108.5 -181h-129q24 172 145.5 259t300.5 87q54 0 104 -9.5t100.5 -32t87 -67t50.5 -106.5 q60 106 159 160.5t220 54.5q187 0 287 -117t100 -313q0 -84 -20 -163h-789q-16 -82 -16 -138q0 -128 80.5 -203t206.5 -75q130 0 224 70t126 192h129q-62 -189 -184 -280t-322 -91q-94 0 -168.5 29t-125.5 93.5t-62 158.5h-4q-50 -140 -162.5 -210.5t-274.5 -70.5 q-154 0 -246 72.5t-92 220.5zM104 268q0 -96 67.5 -143t168.5 -47q152 0 249.5 83t129.5 226l41 178l-4 4q-11 -12 -29.5 -21.5t-35 -15t-45 -10t-43 -6t-45 -3.5t-36.5 -3q-166 -11 -241 -33q-177 -53 -177 -209zM885 602h657q4 32 4 45v45q0 128 -71.5 207.5t-198.5 79.5 q-157 0 -256.5 -105t-134.5 -272z" />
<glyph unicode="&#xe7;" horiz-adv-x="1099" d="M55 406q0 125 40 246t111.5 218t182 157t240.5 60q182 0 290.5 -91.5t104.5 -268.5h-129q7 116 -65 184t-189 68q-90 0 -166 -33.5t-128.5 -90t-90 -130.5t-55 -155t-17.5 -164q0 -148 74.5 -238t220.5 -90q125 0 215 71.5t133 192.5h129q-122 -373 -493 -373h-19 l-82 -84l5 -4q24 8 73 8q66 0 109 -35.5t43 -105.5q0 -42 -20 -74.5t-53 -51.5t-70 -28.5t-76 -9.5q-106 0 -197 45l29 60q51 -20 82 -27.5t78 -7.5t80.5 20.5t33.5 61.5q0 42 -31.5 63t-78.5 21q-40 0 -80 -19l-33 37l121 139q-40 5 -88 23q-114 49 -174 153.5t-60 252.5z " />
<glyph unicode="&#xe8;" horiz-adv-x="1150" d="M55 418q0 127 39 246.5t110.5 214t181.5 151.5t241 57q188 0 294.5 -112t106.5 -299q0 -103 -10 -182h-828q-6 -37 -6 -82q0 -149 78.5 -241.5t229.5 -92.5q125 0 217 71.5t129 190.5h129q-112 -371 -482 -371q-208 0 -319 119.5t-111 329.5zM207 602h690q0 16 1 42.5 t1 39.5q0 135 -77.5 215t-211.5 80q-101 0 -187.5 -54.5t-140 -138.5t-75.5 -184zM428 1499h152l168 -295h-103z" />
<glyph unicode="&#xe9;" horiz-adv-x="1150" d="M55 418q0 127 39 246.5t110.5 214t181.5 151.5t241 57q188 0 294.5 -112t106.5 -299q0 -103 -10 -182h-828q-6 -37 -6 -82q0 -149 78.5 -241.5t229.5 -92.5q125 0 217 71.5t129 190.5h129q-112 -371 -482 -371q-208 0 -319 119.5t-111 329.5zM207 602h690q0 16 1 42.5 t1 39.5q0 135 -77.5 215t-211.5 80q-101 0 -187.5 -54.5t-140 -138.5t-75.5 -184zM563 1204l238 295h166l-295 -295h-109z" />
<glyph unicode="&#xea;" horiz-adv-x="1150" d="M55 418q0 127 39 246.5t110.5 214t181.5 151.5t241 57q188 0 294.5 -112t106.5 -299q0 -103 -10 -182h-828q-6 -37 -6 -82q0 -149 78.5 -241.5t229.5 -92.5q125 0 217 71.5t129 190.5h129q-112 -371 -482 -371q-208 0 -319 119.5t-111 329.5zM207 602h690q0 16 1 42.5 t1 39.5q0 135 -77.5 215t-211.5 80q-101 0 -187.5 -54.5t-140 -138.5t-75.5 -184zM365 1204l278 295h129l176 -295h-117l-135 217l-207 -217h-124z" />
<glyph unicode="&#xeb;" horiz-adv-x="1150" d="M55 418q0 127 39 246.5t110.5 214t181.5 151.5t241 57q188 0 294.5 -112t106.5 -299q0 -103 -10 -182h-828q-6 -37 -6 -82q0 -149 78.5 -241.5t229.5 -92.5q125 0 217 71.5t129 190.5h129q-112 -371 -482 -371q-208 0 -319 119.5t-111 329.5zM207 602h690q0 16 1 42.5 t1 39.5q0 135 -77.5 215t-211.5 80q-101 0 -187.5 -54.5t-140 -138.5t-75.5 -184zM432 1247l39 209h131l-41 -209h-129zM758 1247l39 209h131l-41 -209h-129z" />
<glyph unicode="&#xec;" d="M-12 0l227 1057h129l-227 -1057h-129zM23 1499h151l168 -295h-102z" />
<glyph unicode="&#xed;" d="M-12 0l227 1057h129l-227 -1057h-129zM221 1204l238 295h166l-295 -295h-109z" />
<glyph unicode="&#xee;" d="M-12 0l227 1057h129l-227 -1057h-129zM6 1204l279 295h129l176 -295h-117l-135 217l-207 -217h-125z" />
<glyph unicode="&#xef;" d="M-12 0l227 1057h129l-227 -1057h-129zM86 1247l39 209h131l-41 -209h-129zM412 1247l39 209h131l-41 -209h-129z" />
<glyph unicode="&#xf0;" horiz-adv-x="1187" d="M51 389q0 125 40 240.5t113 206.5t186.5 145.5t250.5 54.5q202 0 293 -135h4q-19 107 -67.5 206t-118.5 169l-222 -113l-53 64l213 108q-79 71 -172 113l94 72q106 -53 185 -129l239 120l54 -63l-236 -119q109 -121 162.5 -280.5t48.5 -335.5q-3 -116 -25 -221.5 t-68.5 -202t-113 -167t-165.5 -112t-220 -41.5q-201 0 -311.5 113t-110.5 307zM180 401q0 -151 80.5 -237t237.5 -86q83 0 156 34t123.5 89t87 125.5t54 144.5t17.5 145q0 142 -81.5 227t-236.5 85q-82 0 -154.5 -33t-123.5 -87t-87.5 -122.5t-54.5 -141.5t-18 -143z" />
<glyph unicode="&#xf1;" horiz-adv-x="1120" d="M-12 0l227 1057h119l-37 -193h4q63 99 163 161t214 62q148 0 233.5 -69t85.5 -215q0 -43 -16 -125l-145 -678h-129l147 682q14 58 14 106q0 98 -63 144.5t-158 46.5q-141 0 -257 -119.5t-157 -316.5l-116 -543h-129zM334 1249q57 207 190 207q52 0 144 -53 q31 -21 48.5 -31t44.5 -20.5t50 -10.5q28 0 55.5 39t36.5 76h82q-18 -86 -59 -137q-53 -70 -123 -70q-26 0 -56 9.5t-48 18.5t-52 28q-34 21 -49 30.5t-39.5 19t-42.5 9.5q-35 0 -62 -36.5t-36 -78.5h-84z" />
<glyph unicode="&#xf2;" horiz-adv-x="1181" d="M51 410q0 131 40 252t113 216t186.5 152t250.5 57q188 0 303 -110t115 -303q0 -108 -23 -209.5t-71 -191.5t-116.5 -157.5t-165 -107t-210.5 -39.5q-201 0 -311.5 119.5t-110.5 321.5zM180 422q0 -159 80.5 -251.5t237.5 -92.5q82 0 154 35.5t122 94t86 133t53 153 t17 153.5q0 152 -80.5 242t-231.5 90q-82 0 -154.5 -34t-123.5 -90.5t-87.5 -129t-54.5 -150t-18 -153.5zM459 1499h151l168 -295h-102z" />
<glyph unicode="&#xf3;" horiz-adv-x="1181" d="M51 410q0 131 40 252t113 216t186.5 152t250.5 57q188 0 303 -110t115 -303q0 -108 -23 -209.5t-71 -191.5t-116.5 -157.5t-165 -107t-210.5 -39.5q-201 0 -311.5 119.5t-110.5 321.5zM180 422q0 -159 80.5 -251.5t237.5 -92.5q82 0 154 35.5t122 94t86 133t53 153 t17 153.5q0 152 -80.5 242t-231.5 90q-82 0 -154.5 -34t-123.5 -90.5t-87.5 -129t-54.5 -150t-18 -153.5zM582 1204l237 295h166l-295 -295h-108z" />
<glyph unicode="&#xf4;" horiz-adv-x="1181" d="M51 410q0 131 40 252t113 216t186.5 152t250.5 57q188 0 303 -110t115 -303q0 -108 -23 -209.5t-71 -191.5t-116.5 -157.5t-165 -107t-210.5 -39.5q-201 0 -311.5 119.5t-110.5 321.5zM180 422q0 -159 80.5 -251.5t237.5 -92.5q82 0 154 35.5t122 94t86 133t53 153 t17 153.5q0 152 -80.5 242t-231.5 90q-82 0 -154.5 -34t-123.5 -90.5t-87.5 -129t-54.5 -150t-18 -153.5zM389 1204l279 295h129l176 -295h-117l-135 217l-207 -217h-125z" />
<glyph unicode="&#xf5;" horiz-adv-x="1181" d="M51 410q0 131 40 252t113 216t186.5 152t250.5 57q188 0 303 -110t115 -303q0 -108 -23 -209.5t-71 -191.5t-116.5 -157.5t-165 -107t-210.5 -39.5q-201 0 -311.5 119.5t-110.5 321.5zM180 422q0 -159 80.5 -251.5t237.5 -92.5q82 0 154 35.5t122 94t86 133t53 153 t17 153.5q0 152 -80.5 242t-231.5 90q-82 0 -154.5 -34t-123.5 -90.5t-87.5 -129t-54.5 -150t-18 -153.5zM387 1249q57 207 191 207q24 0 51 -9t44 -17.5t48 -26.5q31 -21 48.5 -31t44.5 -20.5t50 -10.5q28 0 55.5 39t36.5 76h82q-18 -86 -59 -137q-53 -70 -123 -70 q-26 0 -56 9.5t-48 18.5t-52 28q-34 21 -49 30.5t-39.5 19t-42.5 9.5q-35 0 -62 -36.5t-36 -78.5h-84z" />
<glyph unicode="&#xf6;" horiz-adv-x="1181" d="M51 410q0 131 40 252t113 216t186.5 152t250.5 57q188 0 303 -110t115 -303q0 -108 -23 -209.5t-71 -191.5t-116.5 -157.5t-165 -107t-210.5 -39.5q-201 0 -311.5 119.5t-110.5 321.5zM180 422q0 -159 80.5 -251.5t237.5 -92.5q82 0 154 35.5t122 94t86 133t53 153 t17 153.5q0 152 -80.5 242t-231.5 90q-82 0 -154.5 -34t-123.5 -90.5t-87.5 -129t-54.5 -150t-18 -153.5zM459 1247l39 209h131l-41 -209h-129zM784 1247l39 209h131l-41 -209h-129z" />
<glyph unicode="&#xf7;" horiz-adv-x="1249" d="M111 461v108h1030v-108h-1030zM510 102q0 47 34 81t81 34t80.5 -34t33.5 -81q0 -43 -34 -78.5t-78 -35.5q-48 0 -82.5 33.5t-34.5 80.5zM510 928q0 47 34 80.5t81 33.5t80.5 -33.5t33.5 -80.5q0 -43 -34 -79t-78 -36q-47 0 -82 34t-35 81z" />
<glyph unicode="&#xf8;" horiz-adv-x="1181" d="M-6 0l133 133q-76 113 -76 277q0 131 40 252t113 216t186.5 152t250.5 57q200 0 311 -120l119 118l45 -43l-123 -124q66 -104 66 -244q0 -108 -23 -209.5t-71 -191.5t-116.5 -157.5t-165 -107t-210.5 -39.5q-193 0 -307 117l-131 -131zM180 422q0 -120 41 -193l639 645 q-82 105 -242 105q-82 0 -154.5 -34t-123.5 -90.5t-87.5 -129t-54.5 -150t-18 -153.5zM256 178q81 -100 242 -100q82 0 154 35.5t122 94t86 133t53 153t17 153.5q0 94 -35 172z" />
<glyph unicode="&#xf9;" horiz-adv-x="1110" d="M41 254q0 43 16 125l146 678h129l-148 -682q-14 -58 -14 -107q0 -97 63 -143.5t158 -46.5q142 0 256 118.5t158 317.5l117 543h129l-228 -1057h-118l36 193h-4q-63 -99 -163 -161.5t-214 -62.5q-148 0 -233.5 69.5t-85.5 215.5zM403 1499h152l168 -295h-102z" />
<glyph unicode="&#xfa;" horiz-adv-x="1110" d="M41 254q0 43 16 125l146 678h129l-148 -682q-14 -58 -14 -107q0 -97 63 -143.5t158 -46.5q142 0 256 118.5t158 317.5l117 543h129l-228 -1057h-118l36 193h-4q-63 -99 -163 -161.5t-214 -62.5q-148 0 -233.5 69.5t-85.5 215.5zM565 1204l238 295h166l-295 -295h-109z " />
<glyph unicode="&#xfb;" horiz-adv-x="1110" d="M41 254q0 43 16 125l146 678h129l-148 -682q-14 -58 -14 -107q0 -97 63 -143.5t158 -46.5q142 0 256 118.5t158 317.5l117 543h129l-228 -1057h-118l36 193h-4q-63 -99 -163 -161.5t-214 -62.5q-148 0 -233.5 69.5t-85.5 215.5zM356 1204l279 295h129l176 -295h-117 l-135 217l-207 -217h-125z" />
<glyph unicode="&#xfc;" horiz-adv-x="1110" d="M41 254q0 43 16 125l146 678h129l-148 -682q-14 -58 -14 -107q0 -97 63 -143.5t158 -46.5q142 0 256 118.5t158 317.5l117 543h129l-228 -1057h-118l36 193h-4q-63 -99 -163 -161.5t-214 -62.5q-148 0 -233.5 69.5t-85.5 215.5zM418 1247l39 209h131l-41 -209h-129z M743 1247l39 209h131l-41 -209h-129z" />
<glyph unicode="&#xfd;" horiz-adv-x="921" d="M-133 -381l24 105q65 -7 111 -7q97 0 166 115l96 168l-194 1057h135l151 -897h4l488 897h139l-751 -1307q-81 -141 -256 -141q-22 0 -59.5 4.5t-53.5 5.5zM516 1204l238 295h166l-295 -295h-109z" />
<glyph unicode="&#xfe;" horiz-adv-x="1200" d="M-84 -391l399 1853h129l-127 -592h5q60 108 147.5 162.5t222.5 54.5q197 0 299.5 -117t102.5 -315q0 -97 -25.5 -195.5t-76.5 -186t-119.5 -156t-161 -108.5t-195.5 -40q-134 0 -226.5 60t-111.5 182h-4l-129 -602h-129zM219 383q0 -141 77.5 -223t217.5 -82 q106 0 194.5 55t143 142.5t84 188.5t29.5 200q0 142 -72 228.5t-213 86.5q-85 0 -160.5 -37t-129.5 -97.5t-93.5 -138.5t-58.5 -160.5t-19 -162.5z" />
<glyph unicode="&#xff;" horiz-adv-x="921" d="M-133 -381l24 105q65 -7 111 -7q97 0 166 115l96 168l-194 1057h135l151 -897h4l488 897h139l-751 -1307q-81 -141 -256 -141q-22 0 -59.5 4.5t-53.5 5.5zM322 1247l38 209h132l-41 -209h-129zM647 1247l39 209h131l-41 -209h-129z" />
<glyph unicode="&#x152;" horiz-adv-x="2164" d="M61 610q0 131 33.5 259t100 240.5t158 198t217.5 135.5t268 50q133 0 248.5 -52t183.5 -159l39 180h909l-27 -119h-778l-110 -528h716l-26 -119h-717l-121 -577h797l-27 -119h-932l29 131l-4 4q-62 -85 -165.5 -125.5t-219.5 -40.5q-145 0 -255.5 48t-179 134.5t-103 202 t-34.5 256.5zM201 606q0 -105 26.5 -197t78.5 -164.5t137.5 -114.5t195.5 -42q162 0 285 94t155 248l131 621q9 46 9 57q0 64 -36 116t-94.5 84t-126.5 49t-137 17q-115 0 -216 -44t-174.5 -119.5t-127 -174t-80 -208.5t-26.5 -222z" />
<glyph unicode="&#x153;" horiz-adv-x="1925" d="M51 395q0 101 24.5 200t74 188t117.5 156.5t161.5 107.5t200.5 40q134 0 228.5 -69t111.5 -199h4q63 125 178.5 196.5t257.5 71.5q97 0 171 -34.5t118 -94.5t66 -135.5t22 -163.5q0 -71 -23 -165h-792q-17 -47 -17 -140q0 -128 80.5 -202t210.5 -74q128 0 218.5 69 t127.5 193h129q-55 -175 -179 -273t-304 -98q-146 0 -242.5 68t-130.5 207h-4q-58 -127 -167.5 -201t-248.5 -74q-188 0 -290.5 115t-102.5 311zM180 399q0 -142 70 -231.5t209 -89.5q75 0 139.5 29t109 79t78.5 113t54 135t29.5 140.5t9.5 134.5q0 123 -72.5 196.5 t-196.5 73.5q-83 0 -155 -36.5t-121.5 -96t-85 -136t-52 -156t-16.5 -155.5zM991 602h660q6 50 6 90q-5 127 -75 207t-204 80q-157 0 -254.5 -105t-132.5 -272z" />
<glyph unicode="&#x178;" horiz-adv-x="1226" d="M133 1462h148l329 -741l613 741h170l-734 -872l-129 -590h-141l133 604zM553 1636l39 209h131l-41 -209h-129zM879 1636l39 209h131l-41 -209h-129z" />
<glyph unicode="&#x2c6;" d="M4 1204l279 295h129l176 -295h-117l-135 217l-207 -217h-125z" />
<glyph unicode="&#x2dc;" d="M2 1249q57 207 191 207q24 0 51 -9t44 -17.5t48 -26.5q31 -21 48.5 -31t44.5 -20.5t50 -10.5q28 0 55.5 39t36.5 76h82q-18 -86 -59 -137q-53 -70 -123 -70q-26 0 -56 9.5t-48 18.5t-52 28q-34 21 -49 30.5t-39.5 19t-42.5 9.5q-35 0 -62 -36.5t-36 -78.5h-84z" />
<glyph unicode="&#x2000;" horiz-adv-x="982" />
<glyph unicode="&#x2001;" horiz-adv-x="1964" />
<glyph unicode="&#x2002;" horiz-adv-x="982" />
<glyph unicode="&#x2003;" horiz-adv-x="1964" />
<glyph unicode="&#x2004;" horiz-adv-x="654" />
<glyph unicode="&#x2005;" horiz-adv-x="491" />
<glyph unicode="&#x2006;" horiz-adv-x="327" />
<glyph unicode="&#x2007;" horiz-adv-x="327" />
<glyph unicode="&#x2008;" horiz-adv-x="245" />
<glyph unicode="&#x2009;" horiz-adv-x="392" />
<glyph unicode="&#x200a;" horiz-adv-x="109" />
<glyph unicode="&#x2010;" horiz-adv-x="778" d="M88 504l25 119h514l-25 -119h-514z" />
<glyph unicode="&#x2011;" horiz-adv-x="778" d="M88 504l25 119h514l-25 -119h-514z" />
<glyph unicode="&#x2012;" horiz-adv-x="778" d="M88 504l25 119h514l-25 -119h-514z" />
<glyph unicode="&#x2013;" horiz-adv-x="1044" d="M-39 504l25 119h1024l-25 -119h-1024z" />
<glyph unicode="&#x2014;" horiz-adv-x="2068" d="M227 504l25 119h1515l-24 -119h-1516z" />
<glyph unicode="&#x2018;" horiz-adv-x="600" d="M274 967l68 284q24 96 73 141t152 70l-16 -82q-24 -7 -42.5 -17t-32.5 -27.5t-23 -30.5t-18 -39.5t-13 -39.5t-12 -44h86l-50 -215h-172z" />
<glyph unicode="&#x2019;" horiz-adv-x="600" d="M272 965l17 82q34 10 58 28.5t40 49t24 54.5t19 66h-86l49 217h172l-67 -286q-24 -95 -73.5 -140.5t-152.5 -70.5z" />
<glyph unicode="&#x201a;" horiz-adv-x="589" d="M-14 -281l16 82q27 8 48.5 23.5t35 32t25.5 44t17.5 47t14.5 52.5h-86l49 217h173l-68 -287q-24 -96 -73 -141t-152 -70z" />
<glyph unicode="&#x201c;" horiz-adv-x="913" d="M274 967l68 284q24 96 73 141t152 70l-16 -82q-24 -7 -42.5 -17t-32.5 -27.5t-23 -30.5t-18 -39.5t-13 -39.5t-12 -44h86l-50 -215h-172zM588 967l67 284q24 95 73.5 140.5t152.5 70.5l-17 -82q-24 -7 -42.5 -17t-32.5 -27.5t-23 -30.5t-18 -39.5t-13 -39.5t-12 -44h86 l-49 -215h-172z" />
<glyph unicode="&#x201d;" horiz-adv-x="913" d="M272 965l17 82q34 10 58 28.5t40 49t24 54.5t19 66h-86l49 217h172l-67 -286q-24 -95 -73.5 -140.5t-152.5 -70.5zM586 965l16 82q34 10 58 28.5t40 49t24 54.5t19 66h-86l50 217h172l-68 -286q-24 -96 -73 -141t-152 -70z" />
<glyph unicode="&#x201e;" horiz-adv-x="911" d="M8 -281l17 82q27 8 48.5 23.5t35 32t25.5 44t17.5 47t14.5 52.5h-86l49 217h172l-68 -287q-24 -96 -73 -141t-152 -70zM322 -281l16 82q27 8 48.5 23.5t35 32t25.5 44t17.5 47t14.5 52.5h-86l49 217h172l-67 -287q-24 -96 -73 -141t-152 -70z" />
<glyph unicode="&#x2022;" horiz-adv-x="1044" d="M158 731q0 152 106 258.5t258 106.5t259.5 -106.5t107.5 -258.5t-107.5 -259t-259.5 -107t-258 107t-106 259z" />
<glyph unicode="&#x2026;" horiz-adv-x="2068" d="M117 0l47 217h174l-49 -217h-172zM801 0l47 217h174l-49 -217h-172zM1485 0l47 217h174l-49 -217h-172z" />
<glyph unicode="&#x202f;" horiz-adv-x="392" />
<glyph unicode="&#x2039;" horiz-adv-x="550" d="M115 526l30 131l326 232l-31 -139l-237 -172l153 -209l-24 -129z" />
<glyph unicode="&#x203a;" horiz-adv-x="550" d="M31 240l30 139l238 172l-154 209l25 129l217 -287l-31 -131z" />
<glyph unicode="&#x205f;" horiz-adv-x="491" />
<glyph unicode="&#x20ac;" horiz-adv-x="1159" d="M4 584l53 90h113l16 123h-129l56 90h94q22 89 57.5 170t88.5 154.5t117.5 126.5t149 84.5t179.5 31.5q114 0 197 -36.5t173 -119.5l-69 -108q-70 74 -138.5 108.5t-162.5 34.5q-311 0 -449 -446h639l-53 -90h-608l-17 -123h570l-56 -90h-520q0 -75 9.5 -143t35 -135 t64 -115.5t101.5 -78.5t144 -30q30 0 60 4.5t52.5 9.5t52.5 18.5t45.5 20.5t48.5 28t43.5 28t47.5 33t46 32l-39 -170q-90 -62 -176 -90.5t-189 -28.5q-107 0 -191 34t-138.5 91t-90 137.5t-50.5 167.5t-15 187h-162z" />
<glyph unicode="&#x2122;" horiz-adv-x="2048" d="M178 1370v92h658v-92h-275v-752h-108v752h-275zM985 618v844h174l273 -684l264 684h174v-844h-109v746h-4l-299 -746h-61l-299 746h-4v-746h-109z" />
<glyph unicode="&#x25fc;" horiz-adv-x="1054" d="M0 0v1055h1055v-1055h-1055z" />
</font>
</defs>
</svg>
