<?xml version="1.0" standalone="no"?><!-- Generator: Adobe Fireworks CS6, Export SVG Extension by Aaron Beall (http://fireworks.abeall.com) . Version: 0.6.1  --><!DOCTYPE svg PUBLIC "-//W3C//DTD SVG 1.1//EN" "http://www.w3.org/Graphics/SVG/1.1/DTD/svg11.dtd"><svg id="thm-sprite-test.fw-60x60%20thm%20Square" viewBox="0 0 150 900" style="background-color:#ffffff00" version="1.1"	xmlns="http://www.w3.org/2000/svg" xmlns:xlink="http://www.w3.org/1999/xlink" xml:space="preserve"	x="0px" y="0px" width="150px" height="900px">	<defs>		<linearGradient id="gradient1" x1="50%" y1="0%" x2="50%" y2="100%">			<stop stop-color="#000000" stop-opacity="1" offset="0%"/>			<stop stop-color="#333333" stop-opacity="1" offset="100%"/>		</linearGradient>		<linearGradient id="gradient2" x1="50%" y1="0%" x2="50%" y2="100%">			<stop stop-color="#000000" stop-opacity="1" offset="0%"/>			<stop stop-color="#333333" stop-opacity="1" offset="100%"/>		</linearGradient>		<linearGradient id="gradient3" x1="50%" y1="0%" x2="50%" y2="100%">			<stop stop-color="#000000" stop-opacity="1" offset="0%"/>			<stop stop-color="#333333" stop-opacity="1" offset="100%"/>		</linearGradient>		<linearGradient id="gradient4" x1="50%" y1="0%" x2="50%" y2="100%">			<stop stop-color="#000000" stop-opacity="1" offset="0%"/>			<stop stop-color="#333333" stop-opacity="1" offset="100%"/>		</linearGradient>		<linearGradient id="gradient5" x1="50.7143%" y1="-17.8571%" x2="50.7143%" y2="117.1429%">			<stop stop-color="#7f7f7f" stop-opacity="1" offset="0%"/>			<stop stop-color="#111111" stop-opacity="1" offset="100%"/>		</linearGradient>	</defs>	<g id="Layer%201">		<rect x="0" y="0" width="140" height="140" fill="#666666" rx="12" ry="12"/>		<g>			<rect x="0" y="600" width="140" height="140" fill="url(#gradient1)" rx="12" ry="12"/>			<rect x="0" y="600" width="140" height="140" fill="url(#gradient2)" rx="12" ry="12"/>			<g opacity="0.2">				<path id="Line" d="M 11.6667 611.3333 L 128.3333 728 " stroke="#ffffff" stroke-width="2" fill="url(#gradient3)"/>				<path id="Line2" d="M 11.6667 728 L 128.3333 611.3333 " stroke="#ffffff" stroke-width="2" fill="url(#gradient4)"/>			</g>		</g>		<g opacity="0.2">			<path id="Line3" d="M 11.6667 11.6667 L 128.3333 128.3333 " stroke="#bbbbbb" stroke-width="2" fill="none"/>			<path id="Line4" d="M 11.6667 128.3333 L 128.3333 11.6667 " stroke="#bbbbbb" stroke-width="2" fill="none"/>		</g>		<g>			<path d="M 41.1458 56 L 35 56 L 35 47 L 33 47 L 33 56 L 28 56 L 28 58 L 33 58 L 33 79.1898 C 32.776 86.1139 36.6316 86.7101 41 86.4301 L 41 84.3884 C 36.9677 84.5118 35 84.0342 35 79.1347 L 35 58 L 41 58 L 41 56.0551 L 41.1458 56 Z" fill="#999999"/>			<path d="M 45 43.8124 L 45 86 L 47 86 L 47 70.0743 C 47 62.8562 51.5309 57.9449 58.1189 57.9449 C 66.139 57.9449 66 64.5332 66 67.5694 L 66 86 L 68 86 L 68 67.7829 C 68 64.1738 67.8924 55.9032 57.6553 55.9032 C 53.0724 55.9032 48.604 58.6327 47.1146 63.0438 L 47 63.0438 L 47 44 L 45.4791 44 L 45 43.8124 Z" fill="#999999"/>			<path d="M 73.4791 86 L 75 86 L 75 68.7724 C 75 61.2106 80.1221 57.9449 84.395 57.9449 C 86.3266 57.9449 91 58.6327 91 66.0227 L 91 86 L 93 86 L 93 68.5849 C 93 61.5386 97.1677 57.9449 102.6113 57.9449 C 104.3672 57.9449 110 58.5182 110 66.0227 L 110 86 L 112 86 L 112 65.8924 C 112 58.9607 108.2006 55.9032 102.7571 55.9032 C 97.8989 55.9032 94.8264 58.289 93.08 62.2991 L 92.9725 62.2991 C 92.3815 59.2629 89.7979 55.9032 84.0617 55.9032 C 79.5547 55.9032 76.0536 59.0337 75.1171 62.7574 L 75 62.7574 L 75 56 L 73 56 L 73 85.8542 L 73.4791 86 Z" fill="#999999"/>		</g>		<g>			<rect x="0" y="300" width="140" height="140" fill="url(#gradient5)" rx="12" ry="12"/>			<g opacity="0.2">				<path id="Line5" d="M 11.6667 312 L 128.3333 428.6667 " stroke="#cccccc" stroke-width="2" fill="none"/>				<path id="Line6" d="M 11.6667 428.6667 L 128.3333 312 " stroke="#cccccc" stroke-width="2" fill="none"/>			</g>			<g>				<path d="M 41.1267 356.2365 L 34.8542 356.2365 L 34.8542 347.2758 L 32.8125 347.2758 L 32.8125 356.2365 L 27.492 356.2365 L 27.492 358.2782 L 32.8125 358.2782 L 32.8125 379.468 C 32.5885 386.3922 36.7024 387.0435 41.0707 386.7634 L 41.0707 384.7218 C 37.0384 384.8452 34.8542 384.3676 34.8542 379.468 L 34.8542 358.2782 L 41.1267 358.2782 L 41.1267 356.2365 L 41.1267 356.2365 Z" fill="#ffffff"/>				<path d="M 44.4792 344.8125 L 44.4792 386.5209 L 46.5209 386.5209 L 46.5209 370.5952 C 46.5209 363.3771 50.5309 358.2782 57.1189 358.2782 C 65.139 358.2782 65.4792 364.8666 65.4792 367.9027 L 65.4792 386.5209 L 67.5209 386.5209 L 67.5209 368.3038 C 67.5209 364.6947 67.4133 356.2365 57.1762 356.2365 C 52.5932 356.2365 48.1249 358.9661 46.6354 363.3771 L 46.5209 363.3771 L 46.5209 344.8125 L 44.4792 344.8125 L 44.4792 344.8125 Z" fill="#ffffff"/>				<path d="M 72.4792 386.5209 L 74.5209 386.5209 L 74.5209 369.1058 C 74.5209 361.5439 79.7888 358.2782 84.0617 358.2782 C 85.9933 358.2782 91.1458 358.9661 91.1458 366.356 L 91.1458 386.5209 L 93.1875 386.5209 L 93.1875 369.1058 C 93.1875 362.0595 97.1678 358.2782 102.6113 358.2782 C 104.3673 358.2782 109.8125 358.8515 109.8125 366.356 L 109.8125 386.5209 L 111.8542 386.5209 L 111.8542 366.4133 C 111.8542 359.4816 108.0548 356.2365 102.6113 356.2365 C 97.7531 356.2365 94.8264 358.6223 93.08 362.6324 L 92.9725 362.6324 C 92.3815 359.5962 89.7979 356.2365 84.0617 356.2365 C 79.5547 356.2365 75.5745 359.3671 74.6379 363.0907 L 74.5209 363.0907 L 74.5209 356.4791 L 72.4792 356.4791 L 72.4792 386.5209 L 72.4792 386.5209 Z" fill="#ffffff"/>			</g>		</g>	</g></svg>