<?xml version="1.0" standalone="no"?><!-- Generator: Adobe Fireworks CS6, Export SVG Extension by Aaron Beall (http://fireworks.abeall.com) . Version: 0.6.1  --><!DOCTYPE svg PUBLIC "-//W3C//DTD SVG 1.1//EN" "http://www.w3.org/Graphics/SVG/1.1/DTD/svg11.dtd"><svg id="thm-sprite-test.fw-60x60%20thm%20Square" viewBox="0 0 60 260" style="background-color:#ffffff00" version="1.1"	xmlns="http://www.w3.org/2000/svg" xmlns:xlink="http://www.w3.org/1999/xlink" xml:space="preserve"	x="0px" y="0px" width="60px" height="260px">	<defs>		<linearGradient id="gradient1" x1="50%" y1="0%" x2="50%" y2="100%">			<stop stop-color="#000000" stop-opacity="1" offset="0%"/>			<stop stop-color="#333333" stop-opacity="1" offset="100%"/>		</linearGradient>		<linearGradient id="gradient2" x1="50%" y1="0%" x2="50%" y2="100%">			<stop stop-color="#000000" stop-opacity="1" offset="0%"/>			<stop stop-color="#333333" stop-opacity="1" offset="100%"/>		</linearGradient>		<linearGradient id="gradient3" x1="50%" y1="0%" x2="50%" y2="100%">			<stop stop-color="#7f7f7f" stop-opacity="1" offset="0%"/>			<stop stop-color="#111111" stop-opacity="1" offset="100%"/>		</linearGradient>	</defs>	<g id="Layer%201">		<rect x="0" y="200" width="60" height="60" fill="url(#gradient1)" rx="6" ry="6"/>		<rect x="0" y="201" width="60" height="60" fill="url(#gradient2)" rx="6" ry="6"/>		<rect x="0" y="100" width="60" height="60" fill="url(#gradient3)" rx="6" ry="6"/>		<rect x="0" y="0" width="60" height="60" fill="#666666" rx="6" ry="6"/>		<g opacity="0.2">			<path id="Line" d="M 5 205 L 55 255 " stroke="#ffffff" stroke-width="1" fill="none"/>			<path id="Line2" d="M 5 255 L 55 205 " stroke="#ffffff" stroke-width="1" fill="none"/>		</g>		<g opacity="0.2">			<path id="Line3" d="M 5 105 L 55 155 " stroke="#cccccc" stroke-width="1" fill="none"/>			<path id="Line4" d="M 5 155 L 55 105 " stroke="#cccccc" stroke-width="1" fill="none"/>		</g>		<g opacity="0.2">			<path id="Line5" d="M 5 5 L 55 55 " stroke="#bbbbbb" stroke-width="1" fill="none"/>			<path id="Line6" d="M 5 55 L 55 5 " stroke="#bbbbbb" stroke-width="1" fill="none"/>		</g>		<g>			<path d="M 17.6257 23.9585 L 14.9375 23.9585 L 14.9375 20.1182 L 14.0625 20.1182 L 14.0625 23.9585 L 11.7823 23.9585 L 11.7823 24.8335 L 14.0625 24.8335 L 14.0625 33.9149 C 13.9665 36.8824 15.7296 37.1615 17.6017 37.0415 L 17.6017 36.1665 C 15.8736 36.2194 14.9375 36.0147 14.9375 33.9149 L 14.9375 24.8335 L 17.6257 24.8335 L 17.6257 23.9585 L 17.6257 23.9585 Z" fill="#999999"/>			<path d="M 19.0625 19.0625 L 19.0625 36.9375 L 19.9375 36.9375 L 19.9375 30.1122 C 19.9375 27.0188 21.6561 24.8335 24.4795 24.8335 C 27.9167 24.8335 28.0625 27.6571 28.0625 28.9583 L 28.0625 36.9375 L 28.9375 36.9375 L 28.9375 29.1302 C 28.9375 27.5835 28.8914 23.9585 24.5041 23.9585 C 22.54 23.9585 20.625 25.1283 19.9866 27.0188 L 19.9375 27.0188 L 19.9375 19.0625 L 19.0625 19.0625 L 19.0625 19.0625 Z" fill="#999999"/>			<path d="M 31.0625 36.9375 L 31.9375 36.9375 L 31.9375 29.4739 C 31.9375 26.2331 34.1952 24.8335 36.0264 24.8335 C 36.8543 24.8335 39.0625 25.1283 39.0625 28.2954 L 39.0625 36.9375 L 39.9375 36.9375 L 39.9375 29.4739 C 39.9375 26.4541 41.6433 24.8335 43.9763 24.8335 C 44.7288 24.8335 47.0625 25.0792 47.0625 28.2954 L 47.0625 36.9375 L 47.9375 36.9375 L 47.9375 28.32 C 47.9375 25.3493 46.3092 23.9585 43.9763 23.9585 C 41.8942 23.9585 40.6399 24.981 39.8914 26.6996 L 39.8454 26.6996 C 39.5921 25.3984 38.4848 23.9585 36.0264 23.9585 C 34.0949 23.9585 32.3891 25.3002 31.9877 26.896 L 31.9375 26.896 L 31.9375 24.0625 L 31.0625 24.0625 L 31.0625 36.9375 L 31.0625 36.9375 Z" fill="#999999"/>		</g>		<g>			<path d="M 17.6257 123.9585 L 14.9375 123.9585 L 14.9375 120.1182 L 14.0625 120.1182 L 14.0625 123.9585 L 11.7823 123.9585 L 11.7823 124.8335 L 14.0625 124.8335 L 14.0625 133.9149 C 13.9665 136.8824 15.7296 137.1615 17.6017 137.0415 L 17.6017 136.1665 C 15.8736 136.2194 14.9375 136.0147 14.9375 133.9149 L 14.9375 124.8335 L 17.6257 124.8335 L 17.6257 123.9585 L 17.6257 123.9585 Z" fill="#ffffff"/>			<path d="M 19.0625 119.0625 L 19.0625 136.9375 L 19.9375 136.9375 L 19.9375 130.1122 C 19.9375 127.0188 21.6561 124.8335 24.4795 124.8335 C 27.9167 124.8335 28.0625 127.6571 28.0625 128.9583 L 28.0625 136.9375 L 28.9375 136.9375 L 28.9375 129.1302 C 28.9375 127.5835 28.8914 123.9585 24.5041 123.9585 C 22.54 123.9585 20.625 125.1283 19.9866 127.0188 L 19.9375 127.0188 L 19.9375 119.0625 L 19.0625 119.0625 L 19.0625 119.0625 Z" fill="#ffffff"/>			<path d="M 31.0625 136.9375 L 31.9375 136.9375 L 31.9375 129.4739 C 31.9375 126.2331 34.1952 124.8335 36.0264 124.8335 C 36.8543 124.8335 39.0625 125.1283 39.0625 128.2954 L 39.0625 136.9375 L 39.9375 136.9375 L 39.9375 129.4739 C 39.9375 126.4541 41.6433 124.8335 43.9763 124.8335 C 44.7288 124.8335 47.0625 125.0792 47.0625 128.2954 L 47.0625 136.9375 L 47.9375 136.9375 L 47.9375 128.32 C 47.9375 125.3493 46.3092 123.9585 43.9763 123.9585 C 41.8942 123.9585 40.6399 124.981 39.8914 126.6996 L 39.8454 126.6996 C 39.5921 125.3984 38.4848 123.9585 36.0264 123.9585 C 34.0949 123.9585 32.3891 125.3002 31.9877 126.896 L 31.9375 126.896 L 31.9375 124.0625 L 31.0625 124.0625 L 31.0625 136.9375 L 31.0625 136.9375 Z" fill="#ffffff"/>		</g>	</g></svg>