<?xml version="1.0" standalone="no"?><!-- Generator: Adobe Fireworks CS6, Export SVG Extension by Aaron Beall (http://fireworks.abeall.com) . Version: 0.6.1  --><!DOCTYPE svg PUBLIC "-//W3C//DTD SVG 1.1//EN" "http://www.w3.org/Graphics/SVG/1.1/DTD/svg11.dtd"><svg id="thm-sprite-test.fw-60x60%20thm%20140" viewBox="0 0 150 900" style="background-color:#ffffff00" version="1.1"	xmlns="http://www.w3.org/2000/svg" xmlns:xlink="http://www.w3.org/1999/xlink" xml:space="preserve"	x="0px" y="0px" width="150px" height="900px">	<defs>		<linearGradient id="gradient1" x1="50%" y1="0%" x2="50%" y2="100%">			<stop stop-color="#7f7f7f" stop-opacity="1" offset="0%"/>			<stop stop-color="#111111" stop-opacity="1" offset="100%"/>		</linearGradient>		<clipPath id="mask1">			<path id="Ellipse3" d="M 0 370 C 0 331.3396 31.3396 300 70 300 C 108.6604 300 140 331.3396 140 370 C 140 408.6604 108.6604 440 70 440 C 31.3396 440 0 408.6604 0 370 Z" fill="none"/>		</clipPath>			<clipPath id="mask2">				<path id="Ellipse6" d="M 0 70.0385 C 0 31.3568 31.3396 0 70 0 C 108.6604 0 140 31.3568 140 70.0385 C 140 108.7201 108.6604 140.0769 70 140.0769 C 31.3396 140.0769 0 108.7201 0 70.0385 Z" fill="none"/>			</clipPath>		<linearGradient id="gradient2" x1="50%" y1="0%" x2="50%" y2="100%">			<stop stop-color="#000000" stop-opacity="1" offset="0%"/>			<stop stop-color="#333333" stop-opacity="1" offset="100%"/>		</linearGradient>			<clipPath id="mask3">				<path id="Ellipse9" d="M 11.3215 670 C 11.3215 637.5923 37.5923 611.3215 70 611.3215 C 102.4077 611.3215 128.6785 637.5923 128.6785 670 C 128.6785 702.4077 102.4077 728.6785 70 728.6785 C 37.5923 728.6785 11.3215 702.4077 11.3215 670 Z" fill="none"/>			</clipPath>	</defs>	<g id="Layer%201">		<path id="Ellipse" d="M 0 370 C 0 331.3396 31.3396 300 70 300 C 108.6604 300 140 331.3396 140 370 C 140 408.6604 108.6604 440 70 440 C 31.3396 440 0 408.6604 0 370 Z" fill="url(#gradient1)"/>			<path id="Ellipse2" d="M 0 370 C 0 331.3396 31.3396 300 70 300 C 108.6604 300 140 331.3396 140 370 C 140 408.6604 108.6604 440 70 440 C 31.3396 440 0 408.6604 0 370 Z" fill="none"/>		<g opacity="0.2" clip-path="url(#mask1)">			<path id="Line" d="M 0.4118 300.4118 L 139.5882 439.5883 " stroke="#ffffff" stroke-width="2" fill="none"/>			<path id="Line2" d="M 0.4118 439.5883 L 139.5882 300.4118 " stroke="#ffffff" stroke-width="2" fill="none"/>		</g>		<g>			<path id="Ellipse4" d="M 0 70.0385 C 0 31.3568 31.3396 0 70 0 C 108.6604 0 140 31.3568 140 70.0385 C 140 108.7202 108.6604 140.0769 70 140.0769 C 31.3396 140.0769 0 108.7202 0 70.0385 Z" fill="#666666"/>				<path id="Ellipse5" d="M 0 70.0385 C 0 31.3568 31.3396 0 70 0 C 108.6604 0 140 31.3568 140 70.0385 C 140 108.7201 108.6604 140.0769 70 140.0769 C 31.3396 140.0769 0 108.7201 0 70.0385 Z" fill="none"/>			<g opacity="0.102" clip-path="url(#mask2)">				<path id="Line3" d="M 0.4118 0.412 L 139.5882 139.665 " stroke="#ffffff" stroke-width="2" fill="none"/>				<path id="Line4" d="M 0.4118 139.665 L 139.5882 0.412 " stroke="#ffffff" stroke-width="2" fill="none"/>			</g>		</g>		<g>			<path id="Ellipse7" d="M 0 670 C 0 631.3395 31.3396 600 70 600 C 108.6604 600 140 631.3395 140 670 C 140 708.6605 108.6604 740 70 740 C 31.3396 740 0 708.6605 0 670 Z" fill="url(#gradient2)"/>				<path id="Ellipse8" d="M 11.3215 670 C 11.3215 637.5923 37.5923 611.3215 70 611.3215 C 102.4077 611.3215 128.6785 637.5923 128.6785 670 C 128.6785 702.4077 102.4077 728.6785 70 728.6785 C 37.5923 728.6785 11.3215 702.4077 11.3215 670 Z" fill="none"/>			<g opacity="0.2" clip-path="url(#mask3)">				<path id="Line5" d="M 11.6667 611.6666 L 128.3333 728.3334 " stroke="#ffffff" stroke-width="2" fill="none"/>				<path id="Line6" d="M 11.6667 728.3334 L 128.3333 611.6666 " stroke="#ffffff" stroke-width="2" fill="none"/>			</g>		</g>		<g opacity="0.6">			<path d="M 41.1267 55.9339 L 34.8542 55.9339 L 34.8542 46.9682 L 32.8125 46.9682 L 32.8125 55.9339 L 27.492 55.9339 L 27.492 57.9767 L 32.8125 57.9767 L 32.8125 79.1781 C 32.5885 86.1061 36.7024 86.7578 41.0707 86.4776 L 41.0707 84.4348 C 37.0384 84.5583 34.8542 84.0804 34.8542 79.1781 L 34.8542 57.9767 L 41.1267 57.9767 L 41.1267 55.9339 L 41.1267 55.9339 Z" fill="#cccccc"/>			<path d="M 44.4792 44.5036 L 44.4792 86.2349 L 46.5209 86.2349 L 46.5209 70.3005 C 46.5209 63.0784 50.5309 57.9767 57.1189 57.9767 C 65.139 57.9767 65.4792 64.5687 65.4792 67.6066 L 65.4792 86.2349 L 67.5209 86.2349 L 67.5209 68.0078 C 67.5209 64.3968 67.4133 55.9339 57.1762 55.9339 C 52.5932 55.9339 48.1249 58.6649 46.6354 63.0784 L 46.5209 63.0784 L 46.5209 44.5036 L 44.4792 44.5036 L 44.4792 44.5036 Z" fill="#cccccc"/>			<path d="M 72.4792 86.2349 L 74.5209 86.2349 L 74.5209 68.8102 C 74.5209 61.2443 79.7888 57.9767 84.0617 57.9767 C 85.9933 57.9767 91.1458 58.6649 91.1458 66.059 L 91.1458 86.2349 L 93.1875 86.2349 L 93.1875 68.8102 C 93.1875 61.7601 97.1678 57.9767 102.6113 57.9767 C 104.3673 57.9767 109.8125 58.5503 109.8125 66.059 L 109.8125 86.2349 L 111.8542 86.2349 L 111.8542 66.1163 C 111.8542 59.1808 108.0548 55.9339 102.6113 55.9339 C 97.7531 55.9339 94.8264 58.321 93.08 62.3333 L 92.9725 62.3333 C 92.3815 59.2954 89.7979 55.9339 84.0617 55.9339 C 79.5547 55.9339 75.5745 59.0662 74.6379 62.7918 L 74.5209 62.7918 L 74.5209 56.1767 L 72.4792 56.1767 L 72.4792 86.2349 L 72.4792 86.2349 Z" fill="#cccccc"/>		</g>		<g>			<path d="M 41.1267 355.9339 L 34.8542 355.9339 L 34.8542 346.9682 L 32.8125 346.9682 L 32.8125 355.9339 L 27.492 355.9339 L 27.492 357.9767 L 32.8125 357.9767 L 32.8125 379.1782 C 32.5885 386.1061 36.7024 386.7578 41.0707 386.4776 L 41.0707 384.4348 C 37.0384 384.5583 34.8542 384.0804 34.8542 379.1782 L 34.8542 357.9767 L 41.1267 357.9767 L 41.1267 355.9339 L 41.1267 355.9339 Z" fill="#cccccc"/>			<path d="M 44.4792 344.5036 L 44.4792 386.2349 L 46.5209 386.2349 L 46.5209 370.3005 C 46.5209 363.0784 50.5309 357.9767 57.1189 357.9767 C 65.139 357.9767 65.4792 364.5687 65.4792 367.6066 L 65.4792 386.2349 L 67.5209 386.2349 L 67.5209 368.0078 C 67.5209 364.3968 67.4133 355.9339 57.1762 355.9339 C 52.5932 355.9339 48.1249 358.6649 46.6354 363.0784 L 46.5209 363.0784 L 46.5209 344.5036 L 44.4792 344.5036 L 44.4792 344.5036 Z" fill="#cccccc"/>			<path d="M 72.4792 386.2349 L 74.5209 386.2349 L 74.5209 368.8102 C 74.5209 361.2443 79.7888 357.9767 84.0617 357.9767 C 85.9933 357.9767 91.1458 358.6649 91.1458 366.059 L 91.1458 386.2349 L 93.1875 386.2349 L 93.1875 368.8102 C 93.1875 361.7601 97.1678 357.9767 102.6113 357.9767 C 104.3673 357.9767 109.8125 358.5503 109.8125 366.059 L 109.8125 386.2349 L 111.8542 386.2349 L 111.8542 366.1163 C 111.8542 359.1808 108.0548 355.9339 102.6113 355.9339 C 97.7531 355.9339 94.8264 358.321 93.08 362.3333 L 92.9725 362.3333 C 92.3815 359.2954 89.7979 355.9339 84.0617 355.9339 C 79.5547 355.9339 75.5745 359.0662 74.6379 362.7918 L 74.5209 362.7918 L 74.5209 356.1766 L 72.4792 356.1766 L 72.4792 386.2349 L 72.4792 386.2349 Z" fill="#cccccc"/>		</g>	</g></svg>