<?xml version="1.0" standalone="no"?><!-- Generator: Adobe Fireworks CS6, Export SVG Extension by Aaron Beall (http://fireworks.abeall.com) . Version: 0.6.1  --><!DOCTYPE svg PUBLIC "-//W3C//DTD SVG 1.1//EN" "http://www.w3.org/Graphics/SVG/1.1/DTD/svg11.dtd"><svg id="thm-sprite-test.fw-60x60thm" viewBox="0 0 60 260" style="background-color:#ffffff00" version="1.1"	xmlns="http://www.w3.org/2000/svg" xmlns:xlink="http://www.w3.org/1999/xlink" xml:space="preserve"	x="0px" y="0px" width="60px" height="260px">	<defs>		<linearGradient id="gradient1" x1="50%" y1="0%" x2="50%" y2="100%">			<stop stop-color="#7f7f7f" stop-opacity="1" offset="0%"/>			<stop stop-color="#111111" stop-opacity="1" offset="100%"/>		</linearGradient>		<linearGradient id="gradient2" x1="50%" y1="0%" x2="50%" y2="100%">			<stop stop-color="#000000" stop-opacity="1" offset="0%"/>			<stop stop-color="#333333" stop-opacity="1" offset="100%"/>		</linearGradient>		<clipPath id="mask1">			<path id="Ellipse4" d="M 0 130 C 0 113.4312 13.4312 100 30 100 C 46.5688 100 60 113.4312 60 130 C 60 146.5688 46.5688 160 30 160 C 13.4312 160 0 146.5688 0 130 Z" fill="none"/>		</clipPath>			<clipPath id="mask2">				<path id="Ellipse7" d="M 0 30 C 0 13.4312 13.4312 0 30 0 C 46.5688 0 60 13.4312 60 30 C 60 46.5688 46.5688 60 30 60 C 13.4312 60 0 46.5688 0 30 Z" fill="none"/>			</clipPath>		<clipPath id="mask3">			<path id="Ellipse9" d="M 4.8521 230 C 4.8521 216.111 16.111 204.8521 30 204.8521 C 43.889 204.8521 55.1479 216.111 55.1479 230 C 55.1479 243.889 43.889 255.1479 30 255.1479 C 16.111 255.1479 4.8521 243.889 4.8521 230 Z" fill="none"/>		</clipPath>	</defs>	<g id="Layer%201">		<path id="Ellipse" d="M 0 130 C 0 113.4312 13.4312 100 30 100 C 46.5688 100 60 113.4312 60 130 C 60 146.5688 46.5688 160 30 160 C 13.4312 160 0 146.5688 0 130 Z" fill="url(#gradient1)"/>		<path id="Ellipse2" d="M 0 230 C 0 213.4312 13.4312 200 30 200 C 46.5688 200 60 213.4312 60 230 C 60 246.5688 46.5688 260 30 260 C 13.4312 260 0 246.5688 0 230 Z" fill="url(#gradient2)"/>			<path id="Ellipse3" d="M 0 130 C 0 113.4312 13.4312 100 30 100 C 46.5688 100 60 113.4312 60 130 C 60 146.5688 46.5688 160 30 160 C 13.4312 160 0 146.5688 0 130 Z" fill="none"/>		<g opacity="0.2" clip-path="url(#mask1)">			<path id="Line" d="M 0.1765 100.1765 L 59.8235 159.8235 " stroke="#ffffff" stroke-width="1" fill="none"/>			<path id="Line2" d="M 0.1765 159.8235 L 59.8235 100.1765 " stroke="#ffffff" stroke-width="1" fill="none"/>		</g>		<g>			<path id="Ellipse5" d="M 0 30 C 0 13.4312 13.4312 0 30 0 C 46.5688 0 60 13.4312 60 30 C 60 46.5688 46.5688 60 30 60 C 13.4312 60 0 46.5688 0 30 Z" fill="#666666"/>				<path id="Ellipse6" d="M 0 30 C 0 13.4312 13.4312 0 30 0 C 46.5688 0 60 13.4312 60 30 C 60 46.5688 46.5688 60 30 60 C 13.4312 60 0 46.5688 0 30 Z" fill="none"/>			<g opacity="0.2" clip-path="url(#mask2)">				<path id="Line3" d="M 0.1765 0.1765 L 59.8235 59.8235 " stroke="#ffffff" stroke-width="1" fill="none"/>				<path id="Line4" d="M 0.1765 59.8235 L 59.8235 0.1765 " stroke="#ffffff" stroke-width="1" fill="none"/>			</g>		</g>			<path id="Ellipse8" d="M 4.8521 230 C 4.8521 216.111 16.111 204.8521 30 204.8521 C 43.889 204.8521 55.1479 216.111 55.1479 230 C 55.1479 243.889 43.889 255.1479 30 255.1479 C 16.111 255.1479 4.8521 243.889 4.8521 230 Z" fill="none"/>		<g opacity="0.2" clip-path="url(#mask3)">			<path id="Line5" d="M 5 205 L 55 255 " stroke="#ffffff" stroke-width="1" fill="none"/>			<path id="Line6" d="M 5 255 L 55 205 " stroke="#ffffff" stroke-width="1" fill="none"/>		</g>		<g>			<path d="M 17.6257 23.9585 L 14.9375 23.9585 L 14.9375 20.1182 L 14.0625 20.1182 L 14.0625 23.9585 L 11.7823 23.9585 L 11.7823 24.8335 L 14.0625 24.8335 L 14.0625 33.9149 C 13.9665 36.8824 15.7296 37.1615 17.6017 37.0415 L 17.6017 36.1665 C 15.8736 36.2194 14.9375 36.0147 14.9375 33.9149 L 14.9375 24.8335 L 17.6257 24.8335 L 17.6257 23.9585 L 17.6257 23.9585 Z" fill="#cccccc"/>			<path d="M 19.0625 19.0625 L 19.0625 36.9375 L 19.9375 36.9375 L 19.9375 30.1122 C 19.9375 27.0188 21.6561 24.8335 24.4795 24.8335 C 27.9167 24.8335 28.0625 27.6571 28.0625 28.9583 L 28.0625 36.9375 L 28.9375 36.9375 L 28.9375 29.1302 C 28.9375 27.5835 28.8914 23.9585 24.5041 23.9585 C 22.54 23.9585 20.625 25.1283 19.9866 27.0188 L 19.9375 27.0188 L 19.9375 19.0625 L 19.0625 19.0625 L 19.0625 19.0625 Z" fill="#cccccc"/>			<path d="M 31.0625 36.9375 L 31.9375 36.9375 L 31.9375 29.4739 C 31.9375 26.2331 34.1952 24.8335 36.0264 24.8335 C 36.8543 24.8335 39.0625 25.1283 39.0625 28.2954 L 39.0625 36.9375 L 39.9375 36.9375 L 39.9375 29.4739 C 39.9375 26.4541 41.6433 24.8335 43.9763 24.8335 C 44.7288 24.8335 47.0625 25.0792 47.0625 28.2954 L 47.0625 36.9375 L 47.9375 36.9375 L 47.9375 28.32 C 47.9375 25.3493 46.3092 23.9585 43.9763 23.9585 C 41.8942 23.9585 40.6399 24.981 39.8914 26.6996 L 39.8454 26.6996 C 39.5921 25.3984 38.4848 23.9585 36.0264 23.9585 C 34.0949 23.9585 32.3891 25.3002 31.9877 26.896 L 31.9375 26.896 L 31.9375 24.0625 L 31.0625 24.0625 L 31.0625 36.9375 L 31.0625 36.9375 Z" fill="#cccccc"/>		</g>	</g></svg>