<?xml version="1.0" encoding="utf-8"?>
<!-- Generator: Adobe Illustrator 16.0.4, SVG Export Plug-In . SVG Version: 6.00 Build 0)  -->
<!DOCTYPE svg PUBLIC "-//W3C//DTD SVG 1.1//EN" "http://www.w3.org/Graphics/SVG/1.1/DTD/svg11.dtd">
<svg version="1.1" id="Layer_1" xmlns="http://www.w3.org/2000/svg" xmlns:xlink="http://www.w3.org/1999/xlink" x="0px" y="0px"
	 width="300px" height="200px" viewBox="0 0 300 200" enable-background="new 0 0 300 200" xml:space="preserve">
<rect fill="#516E88" enable-background="new    " width="300" height="200"/>
<g>
	<path fill="#FFFFFF" d="M135.197,152.235c1.726,0,3.454,0,5.181,0c0-8.289,0-16.577,0-24.864c-1.727,0-3.455,0-5.181,0
		C135.197,135.658,135.197,143.946,135.197,152.235z"/>
	<path fill="#FFFFFF" d="M161.271,125.472c1.727,0,3.453,0,5.179,0c0-8.286,0-16.576,0-24.864c-1.726,0-3.452,0-5.179,0
		C161.271,108.896,161.271,117.186,161.271,125.472z"/>
	<path fill="#FFFFFF" d="M153.148,126.79c-4.789,0.017-9.614,2.837-10.874,8.18c-2.405,10.185,2.158,18.256,12.561,17.953
		C169.704,152.491,169.734,125.867,153.148,126.79z M155.055,148.435c-7.097,1.55-9.448-6.791-7.598-12.604
		c0.969-3.052,2.907-3.507,5.871-4.661C162.57,131.796,162.658,146.774,155.055,148.435z"/>
	<path fill="#FFFFFF" d="M155.227,101.472c-2.431-1.381-11.709-0.814-16.75-0.701c-0.059,8.286-0.116,16.415-0.175,24.701
		c1.728,0,3.456,0,5.182,0c0-3.223,0-6.445,0-9.669c2.894-0.019,6.124-0.086,8.289,0.518c1.811,1.879,0.315,3.459,1.555,9.151
		c1.956,0,3.913,0,5.869,0c-0.09-0.35,0.084-0.46-0.075-0.639c-0.266-0.291-0.883-0.593-0.958-1.088
		c-0.602-3.937,1.203-8.582-3.108-10.015C159.391,112.171,160.635,104.54,155.227,101.472z M152.979,110.286
		c-0.291,1.785-6.044,1.279-9.496,1.201c0-2.13,0-4.26,0-6.388c3.05-0.021,7.856-0.432,8.981,0.517
		C153.809,106.953,153.623,108.371,152.979,110.286z"/>
	<path fill="#FFFFFF" d="M95.14,105.271c1.495,6.734,2.991,13.465,4.489,20.2c1.727,0,3.453,0,5.18,0
		c1.496-6.79,2.992-13.584,4.488-20.372c0.059,6.788,0.117,13.582,0.173,20.372c1.61,0,3.224,0,4.833,0c0-8.286,0-16.576,0-24.864
		c-2.473,0-4.947,0-7.424,0c-1.498,6.504-2.992,13.009-4.488,19.511c-0.057,0-0.116,0-0.174,0
		c-1.438-6.443-2.875-12.891-4.315-19.338c-2.532-0.056-5.065-0.113-7.598-0.173c-0.058,8.288-0.114,16.578-0.171,24.864
		c1.669,0,3.339,0,5.007,0C95.14,118.736,95.14,112.006,95.14,105.271z"/>
	<path fill="#FFFFFF" d="M88.405,144.637c-0.057,0-0.112,0-0.17,0c-3.166-5.641-6.332-11.278-9.497-16.922
		c-1.249-0.588-3.89-0.392-5.696-0.344c0,8.287,0,16.576,0,24.864c1.609,0,3.221,0,4.833,0c0-5.813,0-11.627,0-17.439
		c3.338,5.698,6.8,11.889,10.138,17.585c0.287,0.112,3.803-0.09,5.229-0.146c0-8.289,0-16.577,0-24.864c-1.613,0-3.224,0-4.836,0
		C88.405,133.126,88.405,138.882,88.405,144.637z"/>
	<path fill="#FFFFFF" d="M135.886,105.1c0-1.497,0-2.996,0-4.492c-6.043,0-12.085,0-18.126,0
		c-0.059,8.288-0.117,16.578-0.176,24.864c6.332,0,12.664,0,18.993,0c0-1.44,0-2.878,0-4.318c-4.604-0.056-9.208-0.112-13.812-0.172
		c0-2.069,0-4.144,0-6.214c4.025,0,8.057,0,12.084,0c0-1.498,0-2.992,0-4.489c-4.027,0-8.059,0-12.084,0c0-1.729,0-3.454,0-5.179
		C127.139,105.1,131.513,105.1,135.886,105.1z"/>
	<path fill="#FFFFFF" d="M182.507,144.465c-3.281-5.697-6.563-11.396-9.841-17.094c-1.786,0-3.57,0-5.355,0
		c-0.055,8.287-0.114,16.575-0.172,24.864c1.671,0,3.339,0,5.008,0c0-5.756,0-11.513,0-17.266
		c3.338,5.753,6.676,11.51,10.015,17.266c1.785,0,3.567,0,5.353,0c0-8.23,0-16.463,0-24.691c-1.613-0.059-3.225-0.116-4.834-0.173
		C182.621,133.069,182.566,138.768,182.507,144.465z"/>
	<path fill="#FFFFFF" d="M82.362,120.465c0.461,1.668,0.924,3.338,1.382,5.007c1.899,0,3.8,0,5.698,0
		c-2.82-8.171-5.639-16.346-8.461-24.519c-1.359-0.636-4.278-0.392-6.216-0.346v0.002c-2.935,8.228-5.872,16.46-8.806,24.689
		c0,0.06,0,0.113,0,0.173c1.842,0,3.684,0,5.524,0c0.518-1.669,1.038-3.339,1.558-5.007
		C76.149,120.465,79.255,120.465,82.362,120.465z M77.528,106.479c1.035,2.991,2.072,5.985,3.109,8.976c0,0.174,0,0.348,0,0.521
		c-2.014,0-4.029,0-6.044,0C75.57,112.81,76.55,109.645,77.528,106.479z"/>
	<path fill="#FFFFFF" d="M260.03,93.704c-14.905-14.502-29.812-29.01-44.719-43.512c-9.553-1.324-19.108-2.646-28.661-3.971
		c-1.094,0.747-2.187,1.496-3.281,2.244c-3.71,2.332-11.595,7.518-11.595,7.518s-3.11,0.086-4.806,0.078
		c-0.117-0.346-0.234-0.689-0.348-1.034c2.246-1.897,7.201-5.493,7.201-5.493l4.869-0.577l2.029-3.372h3.812l-5.525-5.6
		c0,0-3.406-0.107-7.205,0.193c-1.209-0.979-2.418-1.958-3.628-2.936c-0.401-0.058-0.803-0.115-1.205-0.174
		c-2.764,0.576-5.527,1.151-8.289,1.726c-5.812,4.146-11.628,8.29-17.44,12.433c-3.107,0.748-9.324,2.246-9.324,2.246l-1.037,2.762
		l-4.423-0.512l-11.113-6.74l-3.107-2.073c0,0-7.599,1.038-11.396,1.556c-5.237,0.691-10.477,1.381-15.713,2.072
		C75.63,59.917,66.131,69.3,56.637,78.681c-4.087,4.029-8.173,8.06-12.259,12.088c-1.438,1.494-2.878,2.991-4.317,4.486
		c-0.586,1.58,1.249,4.262,2.244,5.01c2.073-0.576,4.144-1.15,6.217-1.728c0.751,0.83,1.726,2.59,1.726,2.59l8.46-3.801l2.113,2.646
		l11.262-6.033l1.418,2.756l7.596-3.106l1.04,1.423l4.888-2.518c0,0,1.842,1.611,2.762,2.417c1.728-0.632,5.181-1.897,5.181-1.897
		l2.245,2.59c0,0,3.107-1.035,4.662-1.554c1.248,0.776,3.452,1.899,3.452,1.899s1.845-1.612,2.763-2.417
		c0.787,0.731,1.174,1.401,2.246,1.896c1.424-0.642,1.943-1.866,3.281-2.415c0.982,0.779,2.936,2.071,2.936,2.071
		s2.049-1.44,2.762-2.417c0.115,0,0.23,0,0.346,0c0.924,0.738,2.762,1.555,2.762,1.555s1.611-1.267,2.414-1.899
		c0.693-0.354,0.568-0.03,1.383,0.345c-0.143,1.424-1.086,5.27-1.086,5.27s5.668-1.617,10.583-0.953
		c0.258,1.258,1.969,3.182,2.575,3.182c0.649,0,2.432-2.491,2.432-2.491s3.257,0.318,5.387,0.318
		c4.583,0.896,11.774-1.002,13.263-1.009c-0.021,0.076,2.34,3.249,2.743,3.249c0.406,0,3.311-3.643,3.311-3.643l9.445,0.81
		c0,0-1.485-3.443-1.688-4.213c-0.067-0.107,1.899-1.9,1.899-1.9l3.453,2.418c0,0,1.38-1.15,2.071-1.728c0.06,0,0.175,0,0.175,0
		l3.238,2.499l2.803-1.982l2.068,1.274l1.433,0.708l1.506-1.463l3.742,2.661c0,0,2.651-1.927,2.854-1.95
		c0.246,0.022,4.8,1.502,4.628,1.531c0.115-0.057,2.871-2.28,2.871-2.28s1.044,1.017,4.724,1.765c0.477-0.4,2.476-2.214,2.476-2.214
		l4.088,1.351c0,0,1.152-0.805,1.729-1.209c2.146,1.275,7.085,4.06,7.085,4.06s1.097-1.228,1.353-2.251
		c0.298,0.149,12.97,5.272,12.97,5.272s0.883-1.249,1.036-2.422c3.738,1.033,9.456,8.126,10.704,0.692
		C257.23,99.441,260.345,101.666,260.03,93.704z M70.448,93.106l-9.494,5.084c0,0-0.461-1.149-0.691-1.725
		c7.482-9.151,14.965-18.304,22.445-27.454c0.076,0.897,0.305,1.354,0.691,1.899c0.633-0.059,1.266-0.115,1.898-0.172
		c0.059,0,0.115,0,0.176,0c-2.017,2.992-4.032,5.984-6.047,8.978C76.642,83.898,70.448,93.106,70.448,93.106z M116.551,77.298
		l-1.971,1.492l-1.484-1.835c0,0,1.729-7.138,2.592-10.705c0.863,0.229,1.725,0.46,2.59,0.69
		C117.702,70.394,116.551,77.298,116.551,77.298z M119.485,67.631c0.92,0.229,1.842,0.46,2.762,0.69
		c-0.285,3.164-0.861,9.496-0.861,9.496s-1.498,0.807-2.246,1.209c-0.402-0.23-1.344-1.578-1.344-1.578
		S119.059,70.583,119.485,67.631z M111.897,76.511c0,0-1.851,1.396-2.815,1.744c-0.46-0.52-1.05-1.474-1.511-1.99
		c1.269-3.855,2.533-7.713,3.799-11.57c0.922,0.289,1.844,0.574,2.764,0.867C113.329,69.126,111.897,76.511,111.897,76.511z
		 M106.708,75.573c-0.919,0.46-1.843,0.921-2.763,1.382c-0.345-0.69-1.036-2.074-1.036-2.074s4.201-9.362,5.179-11.396
		c0.751,0.231,1.497,0.463,2.246,0.693C109.127,67.976,107.917,71.776,106.708,75.573z M102.112,74.097l-2.656,1.477L99.111,75.4
		l-0.753-2.642c0,0,4.701-8.877,6.278-11.516c0.806,0.576,1.611,1.15,2.417,1.727C105.921,65.708,102.112,74.097,102.112,74.097z
		 M97.555,72.119c-1.494,0.231-2.991,0.462-4.489,0.691c-0.171-0.978-0.343-1.958-0.518-2.935c3.167-3.568,6.331-7.139,9.497-10.707
		c0.518,0.404,1.037,0.809,1.556,1.211C101.586,64.292,99.571,68.207,97.555,72.119z M91.674,69.528c0,0-2.498,0.27-3.785,0.692
		c-0.115-0.863-0.229-1.728-0.346-2.59c4.084-3.396,8.172-6.793,12.258-10.187c0.461,0.4,1.382,1.208,1.382,1.208L91.674,69.528z
		 M87.25,66.522c0,0-2.929,0.271-4.889,0.244c0.173-1.265,0.346-2.531,0.52-3.797c4.947-2.36,9.897-4.72,14.85-7.079
		c0.113,0,0.229,0,0.343,0c0.289,0.345,0.576,0.69,0.865,1.036C94.81,59.396,87.25,66.522,87.25,66.522z M78.738,93.704
		c-1.324,0.458-3.973,1.38-3.973,1.38l-1.194-2.751l2.232-4.328L86.809,71.58l1.091,1.847c0,0,1.464-0.379,2.577-0.443
		c0,0.057,0,0.173,0,0.173S82.651,86.854,78.738,93.704z M83.879,93.134l-1.861-1.676c0,0,1.443-3.525,2.07-4.662
		c2.417-4.488,7.253-13.467,7.253-13.467s0.521,1.787,1.384,2.513c0.98-0.461,1.839-0.211,2.816-0.673
		c-3.107,5.585-5.237,10.361-8.344,15.943C86.258,91.45,83.879,93.134,83.879,93.134z M90.133,93.531
		c-0.461-0.46-0.833-1.546-1.295-2.007c2.82-5.293,8.447-15.683,8.447-15.683l1.219,1.976l2.334-0.52c0,0-3.683,9.442-5.526,14.16
		C93.586,92.149,91.859,92.841,90.133,93.531z M97.956,94.476c-0.06,0-1.34-2.682-1.34-2.682s4.979-11.865,5.764-14.479
		c0.461,0.4,0.76,1.48,1.222,1.883c1.035-0.344,2.071-0.689,3.107-1.035c-1.612,4.834-3.224,9.67-4.835,14.504
		C100.434,93.187,99.394,93.958,97.956,94.476z M107.876,92.731l-2.896,1.836h-0.345l-1.21-1.036c0,0,2.943-10.33,4.49-14.505
		c1.436,1.238,1.165,1.506,3.625,0c0.057,0,0.174,0,0.174,0L107.876,92.731z M113.239,91.927c-0.576,0.691-2.904,2.122-2.904,2.122
		l-0.864-1.211c0,0,2.722-10.949,3.282-13.121c0.4,0.231,1.559,1.351,1.559,1.351s0.795-0.605,1.549-1.006c0.057,0,0.115,0,0.172,0
		C115.168,83.629,114.102,88.36,113.239,91.927z M119.313,90.939c-0.979,0.922-1.957,1.843-2.936,2.765
		c-0.576-0.518-1.15-1.037-1.727-1.555c0.979-3.913,1.957-7.828,2.934-11.742c0-0.114,0-0.229,0-0.346
		c0.348,0.231,1.072,0.91,1.418,1.141c0.75-0.344,1.865-1.485,1.865-1.485S119.858,89.777,119.313,90.939z M125.303,90.589
		c-0.133,0-2.68,2.01-2.816,2.279c-0.344-0.402-1.275-0.833-1.619-1.236c0.574-3.912,1.148-7.83,1.725-11.741
		c0.463,0.287,0.922,0.574,1.383,0.862c0.518-0.346,1.553-1.036,1.553-1.036L125.303,90.589z M126.047,76.955
		c0,0-0.922,1.036-1.385,1.554c-0.574-0.287-1.725-0.865-1.725-0.865s0.557-6.887,0.691-8.977c0.748-0.115,1.496-0.231,2.242-0.346
		c0.232,0,0.461,0,0.693,0C126.391,71.198,126.047,76.955,126.047,76.955z M178.363,92.322c-0.058,0-0.116,0-0.174,0
		c-0.863-0.748-1.724-1.498-2.589-2.246c-0.519-3.854-1.034-7.712-1.557-11.567c0.864,0.402,1.727,0.806,2.594,1.208
		c0.401-0.287,0.804-0.576,1.208-0.862c0.631,3.97,1.266,7.943,1.896,11.912C179.281,91.286,178.822,91.806,178.363,92.322z
		 M212.029,65.562c0.529,0.883,0.423,1.582,0.349,3.105c-1.267,0-2.535,0-3.8,0c-2.878-3.165-5.757-6.331-8.634-9.498
		c-0.344-0.343-0.69-0.688-1.035-1.033c0.476-0.537,0.864-0.857,1.726-1.039C204.432,59.919,208.231,62.737,212.029,65.562z
		 M201.153,56.581c0.576-0.52,1.151-1.036,1.725-1.554c4.549,2.187,9.098,4.375,13.644,6.561c0.343,1.382,0.689,2.763,1.036,4.144
		c-1.269,0-2.534,0-3.799,0c-4.087-3.051-8.173-6.1-12.261-9.15C201.385,56.581,201.269,56.581,201.153,56.581z M207.714,69.357
		c-0.229,0.634-0.459,1.267-0.688,1.9c-1.325,0-2.65,0-3.973,0c-2.303-3.685-4.606-7.37-6.906-11.052
		c0.518-0.459,1.036-0.922,1.553-1.38C199.554,59.418,206.639,67.488,207.714,69.357z M202.189,71.948
		c-0.229,0.747-0.46,1.494-0.691,2.242c-1.091-0.23-2.187-0.459-3.281-0.688c-1.726-3.741-3.45-7.484-5.178-11.227
		c0.691-0.518,1.382-1.033,2.071-1.553C197.471,64.465,199.831,68.207,202.189,71.948z M197.354,74.02
		c-0.345,0.632-0.689,1.264-1.035,1.897c-1.208-0.459-2.417-0.92-3.624-1.379c-1.267-3.51-2.535-7.021-3.798-10.533
		c0.055-0.114,0.114-0.23,0.17-0.346c0.923-0.346,1.843-0.689,2.763-1.036C193.411,63.585,196.389,71.868,197.354,74.02z
		 M191.829,74.881c-0.286,0.634-0.575,1.269-0.862,1.9c-0.978-0.402-1.956-0.805-2.935-1.208c-0.979-3.567-1.959-7.138-2.936-10.705
		c0.804-0.287,1.612-0.575,2.417-0.863c0.173,0,0.344,0,0.519,0C189.297,67.631,190.563,71.259,191.829,74.881z M186.723,75.573
		l-0.59,2.07c0,0-2.598-1.527-2.711-1.47c0.035,0.006-0.945-5.065-2.47-9.924c0.921-0.345,1.842-0.688,2.762-1.037
		C183.888,65.213,186.723,75.573,186.723,75.573z M182.335,76.265c0,0-0.348,0.576-0.521,0.861
		c-0.345,0.289-0.688,0.574-1.033,0.865c-0.75-0.402-2.248-1.21-2.248-1.21l-1.862-8.408c0,0,2.057-0.854,3.15-1.199
		C180.684,70.454,182.335,76.265,182.335,76.265z M177.12,76.323l-1.001,1.148l-2.247-1.033c0,0-0.574-5.643-0.861-8.463
		c0.861,0.059,2.59,0.174,2.59,0.174L177.12,76.323z M186.133,91.286c-0.692,0.633-1.384,1.268-2.072,1.9
		c-1.095-0.924-2.188-1.844-3.279-2.764c-0.577-3.855-1.153-7.713-1.728-11.568c0.804,0.344,1.612,0.691,2.416,1.036
		c0.518-0.345,1.037-0.692,1.556-1.036c1.035,4.086,2.071,8.173,3.107,12.258C186.133,91.169,186.133,91.228,186.133,91.286z
		 M190.104,93.187c-3.832-0.929-5.5-10.061-6.043-14.16c0.688,0.287,1.38,0.577,2.072,0.864c0.459-0.461,0.92-0.924,1.381-1.382
		c1.383,4.258,2.761,8.519,4.143,12.777C191.139,91.919,190.623,92.554,190.104,93.187z M197.529,92.322
		c-0.695,0.633-1.383,1.266-2.073,1.899c-0.976-0.92-1.958-1.843-2.937-2.764c-1.266-4.372-2.53-8.748-3.799-13.121
		c0.75,0.229,1.5,0.459,2.246,0.689c0.404-0.402,0.804-0.805,1.208-1.209c1.745,1.815,4.655,11.434,5.354,14.332
		C197.529,92.207,197.529,92.263,197.529,92.322z M202.706,93.876c-1.264-0.52-2.531-1.038-3.797-1.554
		c-1.784-4.949-3.566-9.899-5.354-14.851c0.808,0.229,1.611,0.461,2.417,0.691c0.828-0.32,1.428-1.059,1.897-1.725
		c1.393,1.154,6,13.347,6.392,15.711C203.743,92.724,203.226,93.302,202.706,93.876z M210.305,93.356
		c-1.727-0.689-3.453-1.38-5.179-2.07c-2.015-5.008-4.031-10.015-6.044-15.021c0.862,0.345,1.727,0.69,2.588,1.033
		c0.403-0.574,0.809-1.148,1.208-1.725c1.425,1.404,8.54,13.982,8.98,16.059C211.341,92.207,210.823,92.782,210.305,93.356z
		 M217.04,92.493c-1.326-0.517-2.65-1.036-3.975-1.554c-3.165-5.696-6.327-11.396-9.495-17.092c1.035,0.343,2.073,0.69,3.108,1.033
		c0.52-0.631,1.035-1.265,1.553-1.897c3.511,5.812,7.021,11.626,10.532,17.439C218.19,91.112,217.613,91.806,217.04,92.493z
		 M225.845,94.739c-1.267-0.461-2.534-0.92-3.8-1.383c-4.142-7.018-8.286-14.043-12.433-21.064c0-0.058,0-0.113,0-0.173
		c0.749,0.115,1.499,0.231,2.246,0.345c0.405-0.516,0.806-1.035,1.207-1.553c1.26,0.836,13.697,18.992,14.159,20.721
		C226.764,92.667,226.303,93.704,225.845,94.739z M239.83,98.364c-2.646-1.033-5.296-2.072-7.942-3.109
		c-5.755-8.342-11.509-16.689-17.268-25.034c0-0.056,0-0.114,0-0.173c0.633,0.173,1.267,0.345,1.901,0.518
		c0.229-0.689,0.459-1.382,0.689-2.07c2.487,1.256,4.678,5.258,6.389,7.422c5.524,6.562,11.052,13.123,16.574,19.684
		C240.604,96.231,240.002,97.255,239.83,98.364z M258.648,98.537c-2.415-0.575-4.835-1.15-7.251-1.727
		c-0.577,1.208-1.15,2.419-1.728,3.625c-10.15-6.11-16.17-14.301-23.307-23.31c-2.127-2.679-7.486-6.982-8.462-10.186
		c0.575,0.115,1.149,0.231,1.724,0.346c0.349-0.807,0.694-1.61,1.038-2.418c10.302,10.301,30.629,30.439,30.629,30.439l5.882,1.621
		c0,0,0.312-1.289,0.368-2.325c-14.499-14.099-28.653-28.035-43.152-42.134c-9.151-1.267-27.067-3.904-27.067-3.904l-14.884,9.949
		l-6.044-0.278c0,0,0.109,1.798,0.226,2.835c-0.058,0.056-0.116,0.114-0.171,0.172c-0.519-0.23-1.037-0.462-1.554-0.691
		c-0.059,0-0.115,0-0.172,0c0.057,0.286,0.172,0.862,0.172,0.862l9.417,0.382l14.442-8.482c0,0,13.205,1.082,13.264,1.193
		c-2.819,2.538-10.191,6.763-10.191,6.763l-16.745,5.843c0,0-6.562-0.69-9.841-1.033c0.114,0.285,0.229,0.574,0.344,0.861
		c0.864,0.172,1.726,0.346,2.589,0.517c0.562,5.579,0.997,9.696,1.21,15.021c0.528-0.688,0.404-2.565,0.346-3.798
		c1.678,0.444,1.797,0.826,3.105-0.172c0.931,1.215,1.713,9.1,1.731,11.221c-0.464,0.578-0.924,1.154-1.385,1.73
		c-0.171,0.114-0.347,0.229-0.516,0.346c-1.036-0.922-2.073-1.846-3.11-2.766c-0.23,0.805-0.46,1.613-0.688,2.42
		c2.824,0.42,3.836,2.629,4.833,4.833c-0.058,0.114-0.113,0.229-0.172,0.345c-3.573-0.582-8.783-1.062-8.783-1.062
		s-1.828,3.306-2.698,3.306c-0.269,0-1.689-2.496-1.985-3.279c-2.606,0.099-8.749,1.266-8.979,1.381
		c-0.117-0.288-0.229-0.576-0.344-0.862c-0.521,0.056-1.04,0.114-1.556,0.172c-0.354,0.346-0.246,0.172-0.345,0.861l-8.664-0.78
		c0,0-1.234,2.674-1.886,2.876c-0.386,0.12-1.715-1.821-2.158-3.146c-2.538-0.681-7.738-0.266-9.447,0.821
		c-0.174-0.057-0.434,0.328-0.607,0.269c0.271-2.61,2.223-4.819,4.633-5.388c-0.116-0.637-0.347-1.9-0.347-1.9l-2.243,2.417h-0.348
		l-0.861-0.517l0.346-12.607l1.936,0.932c0,0,0.764-0.907,0.938-1.072c0,0.691,0.58,1.35,0.58,2.041
		c1.624-3.25,1.649-8.549,1.554-13.295c0.756-0.197,2.245-0.691,2.245-0.691s0.23-0.576,0.344-0.862
		c-3.913,0.46-7.826,0.922-11.742,1.381c-4.83-1.669-9.666-3.338-14.502-5.008c-2.877-2.128-5.755-4.259-8.631-6.388
		c-0.058-0.115-0.114-0.23-0.174-0.345c1.555-0.175,3.108-0.346,4.662-0.519c2.359-0.229,4.72-0.46,7.078-0.691
		c4.547,2.705,9.096,5.412,13.641,8.115c3.799-0.173,7.598-0.346,11.396-0.52c0.058-0.229,0.114-0.457,0.174-0.688
		c-1.037-0.231-2.071-0.461-3.109-0.69c-0.058-0.231-0.115-0.462-0.175-0.691c0.696-0.574,1.383-1.151,2.075-1.725
		c0.057-0.117,0.114-0.231,0.172-0.346c-3.223,0-6.462,0.379-9.685,0.379c-4.662-3.05-9.479-6.345-14.139-9.395
		c-8.746,1.152-17.014,2.478-25.764,3.627C71.511,67.193,57.217,81.46,42.6,95.905c0.287,0.748,0.364,1.204,0.65,1.951
		c0.392-0.013,6.546-1.938,6.792-2.045c0.349-0.151,4.023-4.199,5.903-6.082c7.939-7.882,15.886-15.77,23.826-23.65
		c0.057,0.688,0.117,1.378,0.174,2.07h-0.001c0.403,0.057,0.806,0.112,1.208,0.172c0.115,0,0.229,0,0.346,0
		c-5.466,6.561-10.934,13.124-16.402,19.684c-1.684,2.145-5.907,7.504-6.145,7.664c-0.075,0.049-6.811,3.685-8.281,4.249
		c-0.287-0.804-0.654-1.611-0.941-2.416c0-0.115,0-0.232,0-0.348c-2.244,0.694-4.873,1.536-7.117,2.227
		c-0.275-0.022-1.518-2.486-1.688-3.778c14.789-14.676,29.584-29.354,44.372-44.029c9.036-1.207,18.075-2.416,27.11-3.625
		c1.092,0.805,2.188,1.611,3.279,2.418c3.66,2.416,10.672,6.857,10.672,6.857s3.604-0.119,5.729-0.127
		c-0.058-0.285-0.117-0.574-0.172-0.861c0.69-0.23,1.381-0.461,2.071-0.69c0-0.058,0-0.116,0-0.173
		c-0.46-0.115-0.919-0.229-1.381-0.345c0-0.29,0-0.576,0-0.863c2.879-0.576,5.757-1.152,8.633-1.728
		c0.376-0.301,0.771-0.613,1.187-0.934c6.455-4.964,17.004-11.779,17.004-11.779s7.131-1.45,8.188-1.551
		c1.151,1.035,2.518,2.006,3.666,3.042c2.417-0.115,7.25-0.347,7.25-0.347l3.953,3.788c0,0-6.844-0.292-6.801-0.25
		c0.074,0.077-0.128,0.042-0.777,0.433c1.382,0.172,3.778,0.481,5.158,0.652c0.058,0.06-1.707,2.475-1.707,2.475
		s-4.151,0.329-5.281,0.908c-2.531,2.129-5.306,3.85-7.838,5.98c-0.06,0.117-0.116,0.229-0.172,0.344
		c0.819,0.303,0.835,0.5,0.862,1.555c1.911,0.502,6.032,0.377,6.032,0.377l14.859-9.874c0,0,18.88,2.649,28.315,3.972
		c14.617,14.215,29.239,28.435,43.857,42.648C258.878,95.428,258.764,96.983,258.648,98.537z M172.666,76.093
		c-0.403,0.229-0.693,0.9-1.096,1.131c-0.402-0.23-1.499-1.05-1.499-1.05l-0.688-8.543c0,0,1.727,0.114,2.591,0.173
		C172.203,70.567,172.435,73.329,172.666,76.093z M127.254,77.126c0.172-2.934,0.344-5.868,0.518-8.805
		c1.094-0.117,2.189-0.23,3.281-0.346c-0.057,2.992-0.116,5.984-0.175,8.979c-0.518,0.343-1.304,0.953-1.823,1.3
		C128.918,78.249,128.075,77.648,127.254,77.126z"/>
	<path fill="#FFFFFF" d="M113.27,131.86c2.475,0,4.951,0,7.424,0c0,6.79,0,13.583,0,20.375c1.783,0,3.566,0,5.354,0
		c0-6.792,0-13.585,0-20.375c2.473,0,4.949,0,7.422,0c0-1.496,0-2.994,0-4.489c-6.732,0-13.469,0-20.199,0
		C113.27,128.866,113.27,130.364,113.27,131.86z"/>
	<path fill="#FFFFFF" d="M102.91,127.371c-2.992,8.23-5.987,16.46-8.978,24.69c0,0.059,0,0.115,0,0.174c1.84,0,3.683,0,5.523,0
		c0.52-1.613,1.038-3.226,1.555-4.836c3.107-0.059,6.217-0.115,9.324-0.173c0.459,1.61,1.045,3.472,1.504,5.08
		c1.898,0.06,5.652-0.006,5.574-0.071c-2.877-8.289-5.756-16.577-8.631-24.864C106.823,127.371,104.866,127.371,102.91,127.371z
		 M108.782,142.909c-2.073,0-4.146,0-6.219,0c1.038-3.221,2.073-6.444,3.109-9.668c1.036,3.166,2.072,6.333,3.109,9.497
		C108.782,142.794,108.782,142.851,108.782,142.909z"/>
	<path fill="#FFFFFF" d="M165.387,94.259c1.893,0.178,4.377,0.396,6.351,0.926c-0.637-1.893-3.4-2.86-5.942-2.814
		C165.66,92.998,165.522,93.628,165.387,94.259z"/>
	<path fill="#FFFFFF" d="M185.44,117.013c-0.55,3.527-4.989,6.242-8.632,3.798c-1.77-1.189-2.601-3.678-2.937-6.217
		c-1.307-9.938,8.359-13.979,11.743-5.697c1.669,0,3.336,0,5.008,0c0.46-5.63-7.31-10.431-13.642-8.632
		c-5.244,1.488-7.841,5.23-8.461,11.049c-1.93,18.114,20.061,19.492,22.103,5.699C188.896,117.013,187.168,117.013,185.44,117.013z"
		/>
	<path fill="#FFFFFF" d="M162.651,73.674c-7.355-0.111-8.247,9.972-7.597,17.266c1.553-0.115,3.108-0.229,4.663-0.345
		c0.229-0.402,0.238-1.496,2.396-1.293c0.541,0.051,2.411-0.041,2.781,1.465c0.921,0.117,1.839,0.229,2.761,0.346
		C167.723,83.802,167.452,76.138,162.651,73.674z"/>
	<path fill="#FFFFFF" d="M160.563,90.757c-0.607,0.543,0.402,5.127,1.551,6.692c1.42-1.145,2.43-5.667,1.917-6.346
		C163.52,90.425,161.576,90.095,160.563,90.757z"/>
	<path fill="#FFFFFF" d="M141.13,92.404c-0.102,0.806-0.314,2.015-0.415,2.823c2.113,0.2,4.426,0.179,6.491,0.769
		c0.097-0.554-0.354-1.655-0.65-2.01C146.261,93.632,143.631,92.335,141.13,92.404z"/>
	<path fill="#FFFFFF" d="M144.519,91.458c0.142-8.078,0.184-17.885-7.768-17.784c-4.393,3.482-5.01,9.888-4.836,17.958
		c1.095-0.115,2.188-0.232,3.281-0.346c0.289-0.576,0.395-1.244,0.864-1.729c0.469-0.482,3.512-0.394,3.971,0
		c0.455,0.396,0.461,1.037,0.689,1.555C141.987,91.228,143.253,91.343,144.519,91.458z"/>
	<path fill="#FFFFFF" d="M133.404,92.667c-0.467,0.078-3.137-0.026-4.554,1.369c-1.416,1.397-0.932,1.268-0.99,1.439
		c1.891-0.475,2.643-1.053,7.729-0.811c-0.174-0.748-0.524-1.386-0.674-1.883C134.411,92.743,133.868,92.587,133.404,92.667z"/>
	<path fill="#FFFFFF" d="M137.28,90.497c-0.645,0.068-0.378,0.215-0.564,0.322c-0.378,2.506,0.872,5.869,1.264,6.633
		c0.386,0.766,0.467-0.285,0.576-0.538c0.432-1.995,1.17-5.409,0.824-5.932C139.033,90.46,137.918,90.429,137.28,90.497z"/>
	<path fill="#FFFFFF" d="M158.21,91.952c-0.676-0.025-2.444,0.199-3.749,0.826c-1.303,0.629-1.912,1.663-1.912,1.663
		s-0.3,0.887-0.3,1.083c2.226-0.244,4.752-0.986,6.979-1.232c-0.097-0.68-0.195-1.365-0.291-2.048
		C158.644,91.946,158.885,91.979,158.21,91.952z"/>
	<path fill="#FFFFFF" d="M162.997,55.545c-0.06-0.173-0.118-0.347-0.173-0.518c3.433-2.315,9.467-7.435,9.677-7.391
		c0.085,0.04,3.426-0.32,4.869-0.413c0-0.059,1.023-1.114,1.023-1.174c-1.381-0.114-3.158-0.389-4.539-0.504
		c-0.016-0.008-1.44-0.259-1.44-0.259l2.541-1.562h5.021l-1.844-1.71l-6.303,0.46c0,0-1.311,1.006-1.927,1.5
		c-0.614-0.133-0.498-0.121-0.865-0.346c0.462-0.633,0.923-1.264,1.383-1.897c-0.979-0.864-3.095-2.284-3.095-2.284l-7.438,1.672
		l-18.044,12.372l-6.605,1.21l1.946,0.939c0,0-2.16,0.479-3.02,0.766c1.09,0.346,2.184,0.689,3.277,1.037c0,0.172,0,0.345,0,0.519
		c-0.689,0.573-1.38,1.15-2.073,1.726c-0.114,0.174-0.229,0.346-0.345,0.518c0.979,0.289,1.958,0.576,2.936,0.865
		c-0.633,1.725-1.267,3.45-1.897,5.179c1.492-0.574,2.991-1.151,4.489-1.729c0.401,0.98,0.803,1.96,1.208,2.938
		c0.979-0.576,1.955-1.151,2.936-1.728c0.782,0.667,1.414,2.014,1.726,3.109c0.114,0.056,0.231,0.113,0.346,0.171
		c0.632-1.151,1.267-2.302,1.899-3.45c0.287,0,2.591,3.508,2.591,3.622c0.804-0.919,1.609-1.841,2.416-2.762c0.06,0,0.115,0,0.174,0
		c0.574,0.921,1.15,1.843,1.728,2.762c0.111,0.06,0.228,0.115,0.341,0.174c0.751-1.036,2.248-3.107,2.248-3.107l2.241,1.381
		c0,0,1.612-2.763,2.421-4.146c0.4,0.231,0.802,0.463,1.207,0.693c-0.111-1.612-0.23-3.225-0.345-4.834c0-0.117,0-0.231,0-0.348
		c0.575,0.23,1.15,0.463,1.727,0.691c-0.172-1.207-0.344-2.418-0.518-3.627C164.262,55.891,163.626,55.716,162.997,55.545z
		 M162.246,43.967c0,0,3.649-2.103,3.963-2.101c0.14,0,2.159,0.83,2.159,0.83s-1.474,2.327-2.355,2.729
		c-0.883,0.406-1.532,0.047-1.873-0.029C163.797,45.317,162.246,43.967,162.246,43.967z"/>
	<path fill="#FFFFFF" d="M195.283,125.472c0.521-1.669,1.035-3.339,1.551-5.007c3.054,0,6.106,0,9.153,0
		c0.519,1.668,1.038,3.338,1.555,5.007c1.899,0,3.799,0,5.698,0c-2.877-8.114-5.756-16.231-8.633-24.345
		c-0.688-0.977-4.431-0.58-6.043-0.52c-2.936,8.288-5.871,16.578-8.806,24.864C191.599,125.472,193.442,125.472,195.283,125.472z
		 M201.327,106.479c1.035,3.165,2.071,6.33,3.104,9.497c-2.012,0-4.024,0-6.042,0C199.368,112.81,200.349,109.645,201.327,106.479z"
		/>
	<path fill="#FFFFFF" d="M197.009,127.371c-2.933,8.287-5.87,16.575-8.805,24.864c1.843,0,3.683,0,5.526,0
		c0.519-1.671,1.036-3.342,1.553-5.009c3.049,0,6.102,0,9.148,0c0.52,1.667,1.037,3.338,1.556,5.009c1.9,0,3.8,0,5.7,0
		c-2.88-8.116-5.759-16.232-8.635-24.345C203.015,127.238,198.623,127.31,197.009,127.371z M202.878,142.909
		c-2.011,0-4.026,0-6.044,0c0.98-3.221,1.96-6.444,2.937-9.668c1.038,3.05,2.074,6.101,3.107,9.149
		C202.878,142.562,202.878,142.738,202.878,142.909z"/>
	<path fill="#FFFFFF" d="M229.297,117.703c-0.057,0-0.114,0-0.172,0c-3.223-5.697-6.446-11.396-9.67-17.096
		c-1.784,0-3.568,0-5.352,0c-0.058,8.288-0.115,16.578-0.171,24.864c1.666,0,3.338,0,5.006,0c0-5.812,0-11.626,0-17.438
		c0.057,0,0.115,0,0.171,0c3.279,5.812,6.561,11.627,9.845,17.438c1.783,0,3.566,0,5.348,0c0-8.229,0-16.46,0-24.691
		c-1.609-0.056-3.222-0.113-4.83-0.173C229.412,106.307,229.354,112.006,229.297,117.703z"/>
	<path fill="#FFFFFF" d="M217.901,127.371c-1.727,0-3.453,0-5.179,0c0,8.287,0,16.575,0,24.864c5.869,0,11.738,0,17.612,0
		c0-1.498,0-2.994,0-4.492c-4.146,0-8.29,0-12.434,0C217.901,140.955,217.901,134.161,217.901,127.371z"/>
	<path fill="#FFFFFF" d="M166.03,44.291c0.739,0.126,1.206-0.683,1.229-1.101c0-0.056-0.297-0.42-0.297-0.42
		s-0.519-0.612-1.638,0.535C165.26,43.572,165.292,44.168,166.03,44.291z"/>
</g>
<g>
</g>
<g>
</g>
<g>
</g>
<g>
</g>
<g>
</g>
<g>
</g>
</svg>
