<?xml version="1.0" encoding="utf-8"?>
<!-- Generator: Adobe Illustrator 16.0.4, SVG Export Plug-In . SVG Version: 6.00 Build 0)  -->
<!DOCTYPE svg PUBLIC "-//W3C//DTD SVG 1.1//EN" "http://www.w3.org/Graphics/SVG/1.1/DTD/svg11.dtd">
<svg version="1.1" id="Layer_1" xmlns="http://www.w3.org/2000/svg" xmlns:xlink="http://www.w3.org/1999/xlink" x="0px" y="0px"
	 width="300px" height="150px" viewBox="0 0 300 150" enable-background="new 0 0 300 150" xml:space="preserve">
<rect fill="#516E88" enable-background="new    " width="300" height="150"/>
<path fill="#FFFFFF" d="M152.147,104.297c-4.788,0.017-9.613,2.837-10.873,8.18c-2.405,10.185,2.158,18.256,12.561,17.953
	C168.703,129.998,168.733,103.374,152.147,104.297z M154.054,125.941c-7.097,1.55-9.447-6.791-7.598-12.604
	c0.969-3.052,2.907-3.507,5.87-4.661C161.569,109.303,161.657,124.281,154.054,125.941z M181.679,104.878
	c1.609,0.057,3.221,0.114,4.834,0.173c0,8.229,0,16.461,0,24.691c-1.785,0-3.567,0-5.353,0c-3.339-5.756-6.677-11.513-10.015-17.266
	c0,5.753,0,11.51,0,17.266c-1.669,0-3.337,0-5.008,0c0.058-8.289,0.117-16.577,0.172-24.864c1.785,0,3.569,0,5.355,0
	c3.277,5.698,6.56,11.396,9.841,17.094C181.565,116.274,181.62,110.576,181.679,104.878z M160.27,78.114c1.727,0,3.453,0,5.179,0
	c0,8.288,0,16.578,0,24.864c-1.726,0-3.452,0-5.179,0C160.27,94.692,160.27,86.402,160.27,78.114z M112.27,104.878
	c6.73,0,13.467,0,20.199,0c0,1.495,0,2.993,0,4.489c-2.473,0-4.949,0-7.422,0c0,6.79,0,13.583,0,20.375c-1.787,0-3.57,0-5.354,0
	c0-6.792,0-13.585,0-20.375c-2.473,0-4.949,0-7.424,0C112.27,107.871,112.27,106.373,112.27,104.878z M121.766,82.606
	c0,1.725,0,3.45,0,5.179c4.025,0,8.057,0,12.084,0c0,1.497,0,2.991,0,4.489c-4.027,0-8.059,0-12.084,0c0,2.07,0,4.145,0,6.214
	c4.604,0.06,9.208,0.116,13.812,0.172c0,1.44,0,2.878,0,4.318c-6.329,0-12.661,0-18.993,0c0.059-8.286,0.117-16.576,0.176-24.864
	c6.04,0,12.083,0,18.126,0c0,1.496,0,2.995,0,4.492C130.513,82.606,126.139,82.606,121.766,82.606z M101.909,104.878
	c-2.992,8.23-5.987,16.46-8.978,24.69c0,0.059,0,0.115,0,0.174c1.84,0,3.683,0,5.523,0c0.52-1.613,1.038-3.226,1.555-4.836
	c3.107-0.059,6.217-0.115,9.324-0.173c0.459,1.61,1.045,3.472,1.504,5.08c1.898,0.06,5.652-0.006,5.574-0.071
	c-2.877-8.289-5.756-16.577-8.631-24.864C105.822,104.878,103.865,104.878,101.909,104.878z M107.781,120.416
	c-2.073,0-4.146,0-6.219,0c1.038-3.221,2.073-6.444,3.109-9.668c1.036,3.166,2.072,6.333,3.109,9.497
	C107.781,120.301,107.781,120.357,107.781,120.416z M134.196,104.878c1.726,0,3.454,0,5.181,0c0,8.287,0,16.575,0,24.864
	c-1.727,0-3.455,0-5.181,0C134.196,121.453,134.196,113.165,134.196,104.878z M94.14,102.979c-1.668,0-3.338,0-5.007,0
	c0.057-8.286,0.113-16.576,0.171-24.864c2.532,0.06,5.065,0.117,7.598,0.173c1.44,6.447,2.878,12.895,4.315,19.338
	c0.058,0,0.117,0,0.174,0c1.496-6.502,2.99-13.007,4.488-19.511c2.477,0,4.951,0,7.424,0c0,8.288,0,16.578,0,24.864
	c-1.609,0-3.223,0-4.833,0c-0.056-6.79-0.114-13.584-0.173-20.372c-1.496,6.788-2.992,13.582-4.488,20.372c-1.727,0-3.453,0-5.18,0
	c-1.498-6.735-2.994-13.466-4.489-20.2C94.14,89.513,94.14,96.243,94.14,102.979z M189.622,94.52
	c-2.042,13.793-24.032,12.415-22.103-5.699c0.62-5.818,3.217-9.561,8.461-11.049c6.332-1.799,14.102,3.002,13.642,8.632
	c-1.672,0-3.339,0-5.008,0c-3.384-8.282-13.05-4.24-11.743,5.697c0.336,2.539,1.167,5.027,2.937,6.217
	c3.643,2.444,8.082-0.271,8.632-3.798C186.167,94.52,187.896,94.52,189.622,94.52z M87.404,104.878c1.612,0,3.223,0,4.836,0
	c0,8.287,0,16.575,0,24.864c-1.426,0.056-4.941,0.258-5.229,0.146c-3.338-5.696-6.8-11.887-10.138-17.585c0,5.812,0,11.626,0,17.439
	c-1.612,0-3.224,0-4.833,0c0-8.288,0-16.577,0-24.864c1.807-0.048,4.447-0.244,5.696,0.344c3.165,5.644,6.331,11.281,9.497,16.922
	c0.058,0,0.113,0,0.17,0C87.404,116.389,87.404,110.633,87.404,104.878z M81.361,97.972c0.461,1.668,0.924,3.338,1.382,5.007
	c1.899,0,3.8,0,5.698,0c-2.82-8.171-5.639-16.346-8.461-24.519c-1.359-0.636-4.278-0.392-6.216-0.346v0.002
	c-2.935,8.228-5.872,16.46-8.806,24.689c0,0.06,0,0.113,0,0.173c1.842,0,3.684,0,5.524,0c0.518-1.669,1.038-3.339,1.558-5.007
	C75.148,97.972,78.255,97.972,81.361,97.972z M76.527,83.986c1.035,2.991,2.072,5.985,3.109,8.976c0,0.174,0,0.348,0,0.521
	c-2.014,0-4.029,0-6.044,0C74.569,90.316,75.55,87.151,76.527,83.986z M154.226,78.979c-2.431-1.381-11.709-0.814-16.749-0.701
	c-0.059,8.286-0.116,16.415-0.175,24.701c1.728,0,3.456,0,5.182,0c0-3.223,0-6.445,0-9.669c2.894-0.019,6.124-0.086,8.288,0.518
	c1.811,1.879,0.315,3.459,1.555,9.151c1.956,0,3.913,0,5.869,0c-0.09-0.35,0.084-0.46-0.075-0.639
	c-0.266-0.291-0.883-0.593-0.958-1.088c-0.602-3.937,1.203-8.582-3.108-10.015C158.39,89.678,159.634,82.047,154.226,78.979z
	 M151.979,87.793c-0.291,1.785-6.044,1.279-9.495,1.201c0-2.13,0-4.26,0-6.388c3.05-0.021,7.855-0.432,8.98,0.517
	C152.808,84.46,152.622,85.878,151.979,87.793z M157.936,69.751c0.096,0.683,0.194,1.368,0.291,2.048
	c-2.227,0.246-4.753,0.988-6.979,1.232c0-0.196,0.3-1.083,0.3-1.083s0.609-1.034,1.912-1.663c1.305-0.627,3.073-0.852,3.749-0.826
	C157.884,69.485,157.643,69.453,157.936,69.751z M163.03,68.61c0.513,0.679-0.497,5.201-1.917,6.346
	c-1.148-1.565-2.158-6.149-1.551-6.692C160.575,67.602,162.519,67.932,163.03,68.61z M166.655,68.619
	c-0.922-0.116-1.84-0.229-2.761-0.346c-0.37-1.506-2.24-1.414-2.781-1.465c-2.158-0.203-2.168,0.891-2.396,1.293
	c-1.555,0.115-3.11,0.229-4.663,0.345c-0.65-7.294,0.241-17.377,7.597-17.266C166.451,53.645,166.722,61.309,166.655,68.619z
	 M164.794,69.877c2.542-0.046,5.306,0.922,5.942,2.814c-1.974-0.529-4.458-0.748-6.351-0.926
	C164.521,71.135,164.659,70.505,164.794,69.877z M259.029,71.211c-14.905-14.502-29.812-29.01-44.719-43.512
	c-9.553-1.324-19.108-2.646-28.661-3.971c-1.094,0.747-2.187,1.496-3.281,2.244c-3.71,2.332-11.595,7.518-11.595,7.518
	s-3.11,0.086-4.806,0.078c-0.117-0.346-0.234-0.689-0.348-1.034c2.246-1.897,7.201-5.493,7.201-5.493l4.869-0.577l2.029-3.372h3.812
	l-5.525-5.6c0,0-3.406-0.107-7.205,0.193c-1.209-0.979-2.418-1.958-3.628-2.936c-0.401-0.058-0.803-0.115-1.205-0.174
	c-2.764,0.576-5.527,1.151-8.289,1.726c-5.812,4.146-11.628,8.29-17.439,12.433c-3.107,0.748-9.324,2.246-9.324,2.246l-1.037,2.762
	l-4.423-0.512l-11.113-6.74l-3.107-2.073c0,0-7.599,1.038-11.396,1.556c-5.237,0.691-10.477,1.381-15.713,2.072
	c-9.495,9.379-18.994,18.762-28.488,28.143c-4.087,4.029-8.173,8.06-12.259,12.088c-1.438,1.494-2.878,2.991-4.317,4.486
	c-0.586,1.58,1.249,4.262,2.244,5.01c2.073-0.576,4.144-1.15,6.217-1.728c0.751,0.83,1.726,2.59,1.726,2.59l8.46-3.801l2.113,2.646
	l11.262-6.033l1.418,2.756l7.596-3.106l1.04,1.423L86.023,70c0,0,1.842,1.611,2.762,2.417c1.728-0.632,5.181-1.897,5.181-1.897
	l2.245,2.59c0,0,3.107-1.035,4.662-1.554c1.248,0.776,3.452,1.899,3.452,1.899s1.845-1.612,2.763-2.417
	c0.787,0.731,1.174,1.401,2.246,1.896c1.424-0.642,1.943-1.866,3.281-2.415c0.982,0.779,2.936,2.071,2.936,2.071
	s2.049-1.44,2.762-2.417c0.115,0,0.23,0,0.346,0c0.924,0.738,2.762,1.555,2.762,1.555s1.611-1.267,2.414-1.899
	c0.693-0.354,0.568-0.03,1.383,0.345c-0.143,1.424-1.086,5.27-1.086,5.27s5.668-1.617,10.583-0.953
	c0.258,1.258,1.969,3.182,2.575,3.182c0.649,0,2.432-2.491,2.432-2.491s3.257,0.318,5.387,0.318
	c4.583,0.896,11.773-1.002,13.263-1.009c-0.021,0.076,2.34,3.249,2.743,3.249c0.406,0,3.311-3.643,3.311-3.643l9.445,0.81
	c0,0-1.485-3.443-1.688-4.213c-0.067-0.107,1.899-1.9,1.899-1.9l3.453,2.418c0,0,1.38-1.15,2.071-1.728c0.06,0,0.175,0,0.175,0
	l3.238,2.499L185.821,70l2.068,1.274l1.433,0.708l1.506-1.463l3.742,2.661c0,0,2.651-1.927,2.854-1.95
	c0.246,0.022,4.8,1.502,4.628,1.531c0.115-0.057,2.871-2.28,2.871-2.28s1.044,1.017,4.724,1.765c0.477-0.4,2.476-2.214,2.476-2.214
	l4.088,1.351c0,0,1.152-0.805,1.729-1.209c2.146,1.275,7.085,4.06,7.085,4.06s1.097-1.228,1.353-2.251
	c0.298,0.149,12.97,5.272,12.97,5.272s0.883-1.249,1.036-2.422c3.738,1.033,9.456,8.126,10.704,0.692
	C256.229,76.948,259.344,79.173,259.029,71.211z M69.447,70.613l-9.494,5.084c0,0-0.461-1.149-0.691-1.725
	c7.482-9.151,14.965-18.304,22.445-27.454c0.076,0.897,0.305,1.354,0.691,1.899c0.633-0.059,1.266-0.115,1.898-0.172
	c0.059,0,0.115,0,0.176,0c-2.017,2.992-4.032,5.984-6.047,8.978C75.642,61.405,69.447,70.613,69.447,70.613z M115.551,54.805
	l-1.971,1.492l-1.484-1.835c0,0,1.729-7.138,2.592-10.705c0.863,0.229,1.725,0.46,2.59,0.69
	C116.701,47.9,115.551,54.805,115.551,54.805z M118.484,45.138c0.92,0.229,1.842,0.46,2.762,0.69
	c-0.285,3.164-0.861,9.496-0.861,9.496s-1.498,0.807-2.246,1.209c-0.402-0.23-1.344-1.578-1.344-1.578S118.059,48.09,118.484,45.138
	z M110.896,54.018c0,0-1.851,1.396-2.815,1.744c-0.46-0.52-1.05-1.474-1.511-1.99c1.269-3.855,2.533-7.713,3.799-11.57
	c0.922,0.289,1.844,0.574,2.764,0.867C112.328,46.633,110.896,54.018,110.896,54.018z M105.708,53.08
	c-0.919,0.46-1.843,0.921-2.763,1.382c-0.345-0.69-1.036-2.074-1.036-2.074s4.201-9.362,5.179-11.396
	c0.751,0.231,1.497,0.463,2.246,0.693C108.127,45.482,106.916,49.283,105.708,53.08z M101.111,51.604l-2.656,1.477l-0.345-0.173
	l-0.753-2.642c0,0,4.701-8.877,6.278-11.516c0.806,0.576,1.611,1.15,2.417,1.727C104.921,43.215,101.111,51.604,101.111,51.604z
	 M96.555,49.626c-1.494,0.231-2.991,0.462-4.489,0.691c-0.171-0.978-0.343-1.958-0.518-2.935c3.167-3.568,6.331-7.139,9.497-10.707
	c0.518,0.404,1.037,0.809,1.556,1.211C100.586,41.799,98.57,45.714,96.555,49.626z M90.674,47.035c0,0-2.498,0.27-3.785,0.692
	c-0.115-0.863-0.229-1.728-0.346-2.59c4.084-3.396,8.172-6.793,12.258-10.187c0.461,0.4,1.382,1.208,1.382,1.208L90.674,47.035z
	 M86.25,44.029c0,0-2.929,0.271-4.889,0.244c0.173-1.265,0.346-2.531,0.52-3.797c4.947-2.36,9.897-4.72,14.85-7.079
	c0.113,0,0.229,0,0.343,0c0.289,0.345,0.576,0.69,0.865,1.036C93.81,36.902,86.25,44.029,86.25,44.029z M77.737,71.211
	c-1.324,0.458-3.973,1.38-3.973,1.38L72.57,69.84l2.232-4.328l11.006-16.425l1.091,1.847c0,0,1.464-0.379,2.577-0.443
	c0,0.057,0,0.173,0,0.173S81.65,64.361,77.737,71.211z M82.879,70.641l-1.861-1.676c0,0,1.443-3.525,2.07-4.662
	c2.417-4.488,7.253-13.467,7.253-13.467s0.521,1.787,1.384,2.513c0.98-0.461,1.839-0.211,2.816-0.673
	c-3.107,5.585-5.237,10.361-8.344,15.943C85.258,68.957,82.879,70.641,82.879,70.641z M89.133,71.038
	c-0.461-0.46-0.833-1.546-1.295-2.007c2.82-5.293,8.447-15.683,8.447-15.683l1.219,1.976l2.334-0.52c0,0-3.683,9.442-5.526,14.16
	C92.586,69.656,90.858,70.348,89.133,71.038z M96.955,71.982c-0.06,0-1.34-2.682-1.34-2.682s4.979-11.865,5.764-14.479
	c0.461,0.4,0.76,1.48,1.222,1.883c1.035-0.344,2.071-0.689,3.107-1.035c-1.612,4.834-3.224,9.67-4.835,14.504
	C99.434,70.693,98.394,71.465,96.955,71.982z M106.876,70.238l-2.896,1.836h-0.345l-1.21-1.036c0,0,2.943-10.33,4.49-14.505
	c1.436,1.238,1.165,1.506,3.625,0c0.057,0,0.174,0,0.174,0L106.876,70.238z M112.238,69.434c-0.576,0.691-2.904,2.122-2.904,2.122
	l-0.864-1.211c0,0,2.722-10.949,3.282-13.121c0.4,0.231,1.559,1.351,1.559,1.351s0.795-0.605,1.549-1.006c0.057,0,0.115,0,0.172,0
	C114.168,61.136,113.102,65.867,112.238,69.434z M118.312,68.446c-0.979,0.922-1.957,1.843-2.936,2.765
	c-0.576-0.518-1.15-1.037-1.727-1.555c0.979-3.913,1.957-7.828,2.934-11.742c0-0.114,0-0.229,0-0.346
	c0.348,0.231,1.072,0.91,1.418,1.141c0.75-0.344,1.865-1.485,1.865-1.485S118.857,67.284,118.312,68.446z M124.303,68.096
	c-0.133,0-2.68,2.01-2.816,2.279c-0.344-0.402-1.275-0.833-1.619-1.236c0.574-3.912,1.148-7.83,1.725-11.741
	c0.463,0.287,0.922,0.574,1.383,0.862c0.518-0.346,1.553-1.036,1.553-1.036L124.303,68.096z M125.047,54.462
	c0,0-0.922,1.036-1.385,1.554c-0.574-0.287-1.725-0.865-1.725-0.865s0.557-6.887,0.691-8.977c0.748-0.115,1.496-0.231,2.242-0.346
	c0.232,0,0.461,0,0.693,0C125.391,48.705,125.047,54.462,125.047,54.462z M177.362,69.829c-0.058,0-0.116,0-0.174,0
	c-0.863-0.748-1.724-1.498-2.589-2.246c-0.519-3.854-1.034-7.712-1.557-11.567c0.864,0.402,1.727,0.806,2.594,1.208
	c0.401-0.287,0.804-0.576,1.208-0.862c0.631,3.97,1.266,7.943,1.896,11.912C178.28,68.793,177.821,69.312,177.362,69.829z
	 M211.028,43.068c0.529,0.883,0.423,1.582,0.349,3.105c-1.267,0-2.535,0-3.8,0c-2.878-3.165-5.757-6.331-8.634-9.498
	c-0.344-0.343-0.69-0.688-1.035-1.033c0.476-0.537,0.864-0.857,1.726-1.039C203.431,37.426,207.23,40.244,211.028,43.068z
	 M200.152,34.088c0.576-0.52,1.151-1.036,1.725-1.554c4.549,2.187,9.098,4.375,13.644,6.561c0.343,1.382,0.689,2.763,1.036,4.144
	c-1.269,0-2.534,0-3.799,0c-4.087-3.051-8.173-6.1-12.261-9.15C200.384,34.088,200.268,34.088,200.152,34.088z M206.713,46.864
	c-0.229,0.634-0.459,1.267-0.688,1.9c-1.325,0-2.65,0-3.973,0c-2.303-3.685-4.606-7.37-6.906-11.052
	c0.518-0.459,1.036-0.922,1.553-1.38C198.553,36.925,205.638,44.995,206.713,46.864z M201.188,49.455
	c-0.229,0.747-0.46,1.494-0.691,2.242c-1.091-0.23-2.187-0.459-3.281-0.688c-1.726-3.741-3.45-7.484-5.178-11.227
	c0.691-0.518,1.382-1.033,2.071-1.553C196.47,41.972,198.83,45.714,201.188,49.455z M196.353,51.526
	c-0.345,0.632-0.689,1.264-1.035,1.897c-1.208-0.459-2.417-0.92-3.624-1.379c-1.267-3.51-2.535-7.021-3.798-10.533
	c0.055-0.114,0.114-0.23,0.17-0.346c0.923-0.346,1.843-0.689,2.763-1.036C192.41,41.092,195.388,49.375,196.353,51.526z
	 M190.828,52.388c-0.286,0.634-0.575,1.269-0.862,1.9c-0.978-0.402-1.956-0.805-2.935-1.208c-0.979-3.567-1.959-7.138-2.936-10.705
	c0.804-0.287,1.612-0.575,2.417-0.863c0.173,0,0.344,0,0.519,0C188.296,45.138,189.562,48.766,190.828,52.388z M185.722,53.08
	l-0.59,2.07c0,0-2.598-1.527-2.711-1.47c0.035,0.006-0.945-5.065-2.47-9.924c0.921-0.345,1.842-0.688,2.762-1.037
	C182.887,42.72,185.722,53.08,185.722,53.08z M181.334,53.771c0,0-0.348,0.576-0.521,0.861c-0.345,0.289-0.688,0.574-1.033,0.865
	c-0.75-0.402-2.248-1.21-2.248-1.21l-1.862-8.408c0,0,2.057-0.854,3.15-1.199C179.683,47.961,181.334,53.771,181.334,53.771z
	 M176.119,53.83l-1.001,1.148l-2.247-1.033c0,0-0.574-5.643-0.861-8.463c0.861,0.059,2.59,0.174,2.59,0.174L176.119,53.83z
	 M185.132,68.793c-0.692,0.633-1.384,1.268-2.072,1.9c-1.095-0.924-2.188-1.844-3.279-2.764c-0.577-3.855-1.153-7.713-1.728-11.568
	c0.804,0.344,1.612,0.691,2.416,1.036c0.518-0.345,1.037-0.692,1.556-1.036c1.035,4.086,2.071,8.173,3.107,12.258
	C185.132,68.676,185.132,68.734,185.132,68.793z M189.103,70.693c-3.832-0.929-5.5-10.061-6.043-14.16
	c0.688,0.287,1.38,0.577,2.072,0.864c0.459-0.461,0.92-0.924,1.381-1.382c1.383,4.258,2.761,8.519,4.143,12.777
	C190.138,69.426,189.622,70.061,189.103,70.693z M196.528,69.829c-0.695,0.633-1.383,1.266-2.073,1.899
	c-0.976-0.92-1.958-1.843-2.937-2.764c-1.266-4.372-2.53-8.748-3.799-13.121c0.75,0.229,1.5,0.459,2.246,0.689
	c0.404-0.402,0.804-0.805,1.208-1.209c1.745,1.815,4.655,11.434,5.354,14.332C196.528,69.714,196.528,69.77,196.528,69.829z
	 M201.705,71.383c-1.264-0.52-2.531-1.038-3.797-1.554c-1.784-4.949-3.566-9.899-5.354-14.851c0.808,0.229,1.611,0.461,2.417,0.691
	c0.828-0.32,1.428-1.059,1.897-1.725c1.393,1.154,6,13.347,6.392,15.711C202.742,70.23,202.225,70.809,201.705,71.383z
	 M209.304,70.863c-1.727-0.689-3.453-1.38-5.179-2.07c-2.015-5.008-4.031-10.015-6.044-15.021c0.862,0.345,1.727,0.69,2.588,1.033
	c0.403-0.574,0.809-1.148,1.208-1.725c1.425,1.404,8.54,13.982,8.98,16.059C210.34,69.714,209.822,70.289,209.304,70.863z
	 M216.039,70c-1.326-0.517-2.65-1.036-3.975-1.554c-3.165-5.696-6.327-11.396-9.495-17.092c1.035,0.343,2.073,0.69,3.108,1.033
	c0.52-0.631,1.035-1.265,1.553-1.897c3.511,5.812,7.021,11.626,10.532,17.439C217.189,68.619,216.612,69.312,216.039,70z
	 M224.844,72.246c-1.267-0.461-2.534-0.92-3.8-1.383c-4.142-7.018-8.286-14.043-12.433-21.064c0-0.058,0-0.113,0-0.173
	c0.749,0.115,1.499,0.231,2.246,0.345c0.405-0.516,0.806-1.035,1.207-1.553c1.26,0.836,13.697,18.992,14.159,20.721
	C225.763,70.174,225.302,71.211,224.844,72.246z M238.829,75.871c-2.646-1.033-5.296-2.072-7.942-3.109
	c-5.755-8.342-11.509-16.689-17.268-25.034c0-0.056,0-0.114,0-0.173c0.633,0.173,1.267,0.345,1.901,0.518
	c0.229-0.689,0.459-1.382,0.689-2.07c2.487,1.256,4.678,5.258,6.389,7.422c5.524,6.562,11.052,13.123,16.574,19.684
	C239.603,73.738,239.001,74.762,238.829,75.871z M257.647,76.044c-2.415-0.575-4.835-1.15-7.251-1.727
	c-0.577,1.208-1.15,2.419-1.728,3.625c-10.15-6.11-16.17-14.301-23.307-23.31c-2.127-2.679-7.486-6.982-8.462-10.186
	c0.575,0.115,1.149,0.231,1.724,0.346c0.349-0.807,0.694-1.61,1.038-2.418c10.302,10.301,30.629,30.439,30.629,30.439l5.882,1.621
	c0,0,0.312-1.289,0.368-2.325c-14.499-14.099-28.653-28.035-43.152-42.134c-9.151-1.267-27.067-3.904-27.067-3.904l-14.884,9.949
	l-6.044-0.278c0,0,0.109,1.798,0.226,2.835c-0.058,0.056-0.116,0.114-0.171,0.172c-0.519-0.23-1.037-0.462-1.554-0.691
	c-0.059,0-0.115,0-0.172,0c0.057,0.286,0.172,0.862,0.172,0.862l9.417,0.382l14.442-8.482c0,0,13.205,1.082,13.264,1.193
	c-2.819,2.538-10.191,6.763-10.191,6.763l-16.745,5.843c0,0-6.562-0.69-9.841-1.033c0.114,0.285,0.229,0.574,0.344,0.861
	c0.864,0.172,1.726,0.346,2.589,0.517c0.562,5.579,0.997,9.696,1.21,15.021c0.528-0.688,0.404-2.565,0.346-3.798
	c1.678,0.444,1.797,0.826,3.105-0.172c0.931,1.215,1.713,9.1,1.731,11.221c-0.464,0.578-0.924,1.154-1.385,1.73
	c-0.171,0.114-0.347,0.229-0.516,0.346c-1.036-0.922-2.073-1.846-3.11-2.766c-0.23,0.805-0.46,1.613-0.688,2.42
	c2.824,0.42,3.836,2.629,4.833,4.833c-0.058,0.114-0.113,0.229-0.172,0.345c-3.573-0.582-8.783-1.062-8.783-1.062
	s-1.828,3.306-2.698,3.306c-0.269,0-1.689-2.496-1.985-3.279c-2.606,0.099-8.749,1.266-8.979,1.381
	c-0.116-0.288-0.229-0.576-0.344-0.862c-0.521,0.056-1.04,0.114-1.556,0.172c-0.354,0.346-0.246,0.172-0.345,0.861l-8.664-0.78
	c0,0-1.234,2.674-1.886,2.876c-0.386,0.12-1.715-1.821-2.158-3.146c-2.538-0.681-7.738-0.266-9.447,0.821
	c-0.174-0.057-0.434,0.328-0.607,0.269c0.271-2.61,2.223-4.819,4.633-5.388c-0.116-0.637-0.347-1.9-0.347-1.9l-2.243,2.417h-0.348
	l-0.861-0.517l0.346-12.607l1.936,0.932c0,0,0.764-0.907,0.938-1.072c0,0.691,0.58,1.35,0.58,2.041
	c1.624-3.25,1.649-8.549,1.554-13.295c0.756-0.197,2.245-0.691,2.245-0.691s0.23-0.576,0.344-0.862
	c-3.913,0.46-7.826,0.922-11.742,1.381c-4.83-1.669-9.666-3.338-14.502-5.008c-2.877-2.128-5.755-4.259-8.631-6.388
	c-0.058-0.115-0.114-0.23-0.174-0.345c1.555-0.175,3.108-0.346,4.662-0.519c2.359-0.229,4.72-0.46,7.078-0.691
	c4.547,2.705,9.096,5.412,13.641,8.115c3.799-0.173,7.598-0.346,11.396-0.52c0.058-0.229,0.114-0.457,0.174-0.688
	c-1.037-0.231-2.071-0.461-3.109-0.69c-0.058-0.231-0.115-0.462-0.175-0.691c0.696-0.574,1.383-1.151,2.075-1.725
	c0.057-0.117,0.114-0.231,0.172-0.346c-3.223,0-6.462,0.379-9.685,0.379c-4.662-3.05-9.479-6.345-14.139-9.395
	c-8.746,1.152-17.014,2.478-25.764,3.627C70.511,44.7,56.217,58.967,41.6,73.412c0.287,0.748,0.364,1.204,0.65,1.951
	c0.392-0.013,6.546-1.938,6.792-2.045c0.349-0.151,4.023-4.199,5.903-6.082c7.939-7.882,15.886-15.77,23.826-23.65
	c0.057,0.688,0.117,1.378,0.174,2.07h-0.001c0.403,0.057,0.806,0.112,1.208,0.172c0.115,0,0.229,0,0.346,0
	c-5.466,6.561-10.934,13.124-16.402,19.684c-1.684,2.145-5.907,7.504-6.145,7.664c-0.075,0.049-6.811,3.685-8.281,4.249
	c-0.287-0.804-0.654-1.611-0.941-2.416c0-0.115,0-0.232,0-0.348c-2.244,0.694-4.873,1.536-7.117,2.227
	c-0.275-0.022-1.518-2.486-1.688-3.778C54.713,58.434,69.508,43.755,84.296,29.08c9.036-1.207,18.075-2.416,27.11-3.625
	c1.092,0.805,2.188,1.611,3.279,2.418c3.66,2.416,10.672,6.857,10.672,6.857s3.604-0.119,5.729-0.127
	c-0.058-0.285-0.117-0.574-0.172-0.861c0.69-0.23,1.381-0.461,2.071-0.69c0-0.058,0-0.116,0-0.173
	c-0.46-0.115-0.919-0.229-1.381-0.345c0-0.29,0-0.576,0-0.863c2.879-0.576,5.757-1.152,8.633-1.728
	c0.376-0.301,0.771-0.613,1.187-0.934c6.455-4.964,17.004-11.779,17.004-11.779s7.131-1.45,8.188-1.551
	c1.151,1.035,2.518,2.006,3.666,3.042c2.417-0.115,7.25-0.347,7.25-0.347l3.953,3.788c0,0-6.844-0.292-6.801-0.25
	c0.074,0.077-0.128,0.042-0.777,0.433c1.382,0.172,3.778,0.481,5.158,0.652c0.058,0.06-1.707,2.475-1.707,2.475
	s-4.151,0.329-5.281,0.908c-2.531,2.129-5.306,3.85-7.838,5.98c-0.06,0.117-0.116,0.229-0.172,0.344
	c0.819,0.303,0.835,0.5,0.862,1.555c1.911,0.502,6.032,0.377,6.032,0.377l14.859-9.874c0,0,18.88,2.649,28.315,3.972
	c14.617,14.215,29.239,28.435,43.857,42.648C257.877,72.935,257.763,74.49,257.647,76.044z M171.665,53.6
	c-0.403,0.229-0.693,0.9-1.096,1.131c-0.402-0.23-1.499-1.05-1.499-1.05l-0.688-8.543c0,0,1.727,0.114,2.591,0.173
	C171.202,48.074,171.434,50.836,171.665,53.6z M126.254,54.633c0.172-2.934,0.344-5.868,0.518-8.805
	c1.094-0.117,2.189-0.23,3.281-0.346c-0.057,2.992-0.116,5.984-0.175,8.979c-0.518,0.343-1.304,0.953-1.823,1.3
	C127.918,55.756,127.074,55.155,126.254,54.633z M161.996,33.052c-0.06-0.173-0.118-0.347-0.173-0.518
	c3.433-2.315,9.467-7.435,9.677-7.391c0.085,0.04,3.426-0.32,4.869-0.413c0-0.059,1.023-1.114,1.023-1.174
	c-1.381-0.114-3.158-0.389-4.539-0.504c-0.016-0.008-1.44-0.259-1.44-0.259l2.541-1.562h5.021l-1.844-1.71l-6.303,0.46
	c0,0-1.311,1.006-1.927,1.5c-0.614-0.133-0.498-0.121-0.865-0.346c0.462-0.633,0.923-1.264,1.383-1.897
	c-0.979-0.864-3.095-2.284-3.095-2.284l-7.438,1.672l-18.044,12.372l-6.605,1.21l1.946,0.939c0,0-2.16,0.479-3.02,0.766
	c1.09,0.346,2.184,0.689,3.277,1.037c0,0.172,0,0.345,0,0.519c-0.689,0.573-1.38,1.15-2.073,1.726
	c-0.114,0.174-0.229,0.346-0.345,0.518c0.979,0.289,1.958,0.576,2.936,0.865c-0.633,1.725-1.267,3.45-1.897,5.179
	c1.492-0.574,2.991-1.151,4.489-1.729c0.401,0.98,0.803,1.96,1.208,2.938c0.979-0.576,1.955-1.151,2.936-1.728
	c0.782,0.667,1.414,2.014,1.726,3.109c0.114,0.056,0.231,0.113,0.346,0.171c0.632-1.151,1.267-2.302,1.899-3.45
	c0.287,0,2.591,3.508,2.591,3.622c0.804-0.919,1.609-1.841,2.416-2.762c0.06,0,0.115,0,0.174,0c0.574,0.921,1.15,1.843,1.728,2.762
	c0.111,0.06,0.228,0.115,0.341,0.174c0.751-1.036,2.248-3.107,2.248-3.107l2.241,1.381c0,0,1.612-2.763,2.421-4.146
	c0.4,0.231,0.802,0.463,1.207,0.693c-0.111-1.612-0.23-3.225-0.345-4.834c0-0.117,0-0.231,0-0.348
	c0.575,0.23,1.15,0.463,1.727,0.691c-0.172-1.207-0.344-2.418-0.518-3.627C163.261,33.397,162.625,33.223,161.996,33.052z
	 M161.245,21.474c0,0,3.649-2.103,3.963-2.101c0.14,0,2.159,0.83,2.159,0.83s-1.474,2.327-2.355,2.729
	c-0.883,0.406-1.532,0.047-1.873-0.029C162.796,22.824,161.245,21.474,161.245,21.474z M164.323,20.812
	c1.119-1.147,1.638-0.535,1.638-0.535s0.297,0.364,0.297,0.42c-0.022,0.418-0.489,1.227-1.229,1.101
	C164.291,21.675,164.259,21.079,164.323,20.812z M139.721,68.619c-0.229-0.518-0.234-1.159-0.689-1.555
	c-0.459-0.394-3.502-0.482-3.971,0c-0.47,0.484-0.575,1.152-0.864,1.729c-1.093,0.113-2.187,0.23-3.281,0.346
	c-0.174-8.07,0.443-14.476,4.836-17.958c7.951-0.101,7.909,9.706,7.768,17.784C142.253,68.85,140.986,68.734,139.721,68.619z
	 M216.9,125.25c4.144,0,8.288,0,12.434,0c0,1.498,0,2.994,0,4.492c-5.874,0-11.743,0-17.612,0c0-8.289,0-16.577,0-24.864
	c1.726,0,3.452,0,5.179,0C216.9,111.668,216.9,118.462,216.9,125.25z M196.008,104.878c-2.933,8.287-5.87,16.575-8.805,24.864
	c1.843,0,3.683,0,5.526,0c0.519-1.671,1.036-3.342,1.553-5.009c3.049,0,6.102,0,9.148,0c0.52,1.667,1.037,3.338,1.556,5.009
	c1.9,0,3.8,0,5.7,0c-2.88-8.116-5.759-16.232-8.635-24.345C202.014,104.745,197.622,104.816,196.008,104.878z M201.877,120.416
	c-2.011,0-4.026,0-6.044,0c0.98-3.221,1.96-6.444,2.937-9.668c1.038,3.05,2.074,6.101,3.107,9.149
	C201.877,120.069,201.877,120.245,201.877,120.416z M228.471,78.114c1.608,0.06,3.221,0.117,4.83,0.173c0,8.231,0,16.463,0,24.691
	c-1.781,0-3.564,0-5.348,0c-3.284-5.812-6.565-11.626-9.845-17.438c-0.056,0-0.114,0-0.171,0c0,5.812,0,11.627,0,17.438
	c-1.668,0-3.34,0-5.006,0c0.056-8.286,0.113-16.576,0.171-24.864c1.783,0,3.567,0,5.352,0c3.224,5.699,6.447,11.398,9.67,17.096
	c0.058,0,0.115,0,0.172,0C228.354,89.513,228.411,83.813,228.471,78.114z M145.556,71.493c0.296,0.354,0.747,1.456,0.65,2.01
	c-2.065-0.59-4.378-0.568-6.491-0.769c0.101-0.809,0.313-2.018,0.415-2.823C142.631,69.842,145.261,71.139,145.556,71.493z
	 M194.282,102.979c0.521-1.669,1.035-3.339,1.551-5.007c3.054,0,6.106,0,9.153,0c0.519,1.668,1.038,3.338,1.555,5.007
	c1.899,0,3.799,0,5.698,0c-2.877-8.114-5.756-16.231-8.633-24.345c-0.688-0.977-4.431-0.58-6.043-0.52
	c-2.936,8.288-5.871,16.578-8.806,24.864C190.598,102.979,192.441,102.979,194.282,102.979z M200.326,83.986
	c1.035,3.165,2.071,6.33,3.104,9.497c-2.012,0-4.024,0-6.042,0C198.367,90.316,199.348,87.151,200.326,83.986z M138.379,68.489
	c0.346,0.522-0.393,3.937-0.824,5.932c-0.109,0.253-0.19,1.304-0.576,0.538c-0.392-0.764-1.642-4.127-1.264-6.633
	c0.187-0.107-0.08-0.254,0.564-0.322C136.918,67.936,138.032,67.967,138.379,68.489z M133.915,70.289
	c0.149,0.497,0.5,1.135,0.674,1.883c-5.087-0.242-5.839,0.336-7.729,0.811c0.059-0.172-0.426-0.042,0.99-1.439
	c1.417-1.396,4.087-1.291,4.554-1.369C132.867,70.094,133.41,70.25,133.915,70.289z"/>
</svg>
