<?xml version="1.0" encoding="utf-8"?>
<!-- Generator: Adobe Illustrator 16.0.4, SVG Export Plug-In . SVG Version: 6.00 Build 0)  -->
<!DOCTYPE svg PUBLIC "-//W3C//DTD SVG 1.1//EN" "http://www.w3.org/Graphics/SVG/1.1/DTD/svg11.dtd">
<svg version="1.1" id="Layer_1" xmlns="http://www.w3.org/2000/svg" xmlns:xlink="http://www.w3.org/1999/xlink" x="0px" y="0px"
	 width="300px" height="200px" viewBox="0 0 300 200" enable-background="new 0 0 300 200" xml:space="preserve">
<rect fill="#516E88" enable-background="new    " width="300" height="200"/>
<g>
	<path id="path5701_2_" inkscape:connector-curvature="0" fill="#FFFFFF" d="M199.771,134.241c-0.977,3.224-1.956,6.447-2.937,9.668
		c2.018,0,4.033,0,6.044,0c0-0.171,0-0.347,0-0.519C201.845,140.342,200.809,137.291,199.771,134.241L199.771,134.241z
		 M105.672,134.241c-1.036,3.224-2.071,6.447-3.109,9.668c2.073,0,4.146,0,6.219,0c0-0.059,0-0.115,0-0.171
		C107.745,140.574,106.708,137.407,105.672,134.241L105.672,134.241z M153.327,132.17c-2.963,1.154-4.902,1.609-5.871,4.661
		c-1.85,5.812,0.501,14.153,7.598,12.604C162.658,147.774,162.57,132.796,153.327,132.17z M212.723,128.371c1.726,0,3.452,0,5.179,0
		c0,6.79,0,13.584,0,20.372c4.144,0,8.288,0,12.434,0c0,1.498,0,2.994,0,4.492c-5.874,0-11.743,0-17.612,0
		C212.723,144.946,212.723,136.658,212.723,128.371z M197.009,128.371c1.614-0.062,6.006-0.133,6.044,0.52
		c2.876,8.112,5.755,16.229,8.635,24.345c-1.9,0-3.8,0-5.7,0c-0.519-1.671-1.036-3.342-1.556-5.009c-3.047,0-6.1,0-9.148,0
		c-0.517,1.667-1.034,3.338-1.553,5.009c-1.844,0-3.684,0-5.526,0C191.139,144.946,194.076,136.658,197.009,128.371z
		 M187.514,153.235c-1.785,0-3.567,0-5.353,0c-3.339-5.756-6.677-11.513-10.015-17.266c0,5.753,0,11.51,0,17.266
		c-1.669,0-3.337,0-5.008,0c0.058-8.289,0.117-16.577,0.172-24.864c1.785,0,3.569,0,5.355,0c3.277,5.698,6.56,11.396,9.841,17.094
		c0.06-5.697,0.114-11.396,0.173-17.094c1.609,0.057,3.221,0.114,4.834,0.173C187.514,136.772,187.514,145.005,187.514,153.235
		L187.514,153.235z M135.197,128.371c1.726,0,3.454,0,5.181,0c0,8.287,0,16.575,0,24.864c-1.727,0-3.455,0-5.181,0
		C135.197,144.946,135.197,136.658,135.197,128.371z M113.27,128.371c6.73,0,13.467,0,20.199,0c0,1.495,0,2.993,0,4.489
		c-2.473,0-4.949,0-7.422,0c0,6.79,0,13.583,0,20.375c-1.787,0-3.57,0-5.354,0c0-6.792,0-13.585,0-20.375c-2.473,0-4.949,0-7.424,0
		C113.27,131.364,113.27,129.866,113.27,128.371L113.27,128.371z M102.91,128.371c1.956,0,3.913,0,5.872,0
		c2.875,8.287,5.754,16.575,8.631,24.864c0.078,0.065-3.676,0.131-5.574,0.071c-0.459-1.608-1.045-3.47-1.504-5.08
		c-3.107,0.058-6.217,0.114-9.324,0.173c-0.517,1.61-1.035,3.223-1.555,4.836c-1.841,0-3.684,0-5.523,0c0-0.059,0-0.115,0-0.174
		C96.922,144.831,99.917,136.602,102.91,128.371L102.91,128.371z M73.042,128.371c1.807-0.048,4.447-0.244,5.696,0.344
		c3.165,5.644,6.331,11.281,9.497,16.922c0.058,0,0.113,0,0.17,0c0-5.755,0-11.511,0-17.266c1.612,0,3.223,0,4.836,0
		c0,8.287,0,16.575,0,24.864c-1.426,0.056-4.941,0.258-5.229,0.146c-3.338-5.696-6.8-11.887-10.138-17.585
		c0,5.812,0,11.626,0,17.439c-1.612,0-3.224,0-4.833,0C73.042,144.947,73.042,136.658,73.042,128.371L73.042,128.371z
		 M153.148,127.79c16.586-0.923,16.556,25.701,1.688,26.133c-10.403,0.303-14.966-7.769-12.561-17.953
		C143.535,130.627,148.36,127.807,153.148,127.79z M201.327,107.479c-0.979,3.165-1.959,6.33-2.938,9.497c2.018,0,4.03,0,6.042,0
		C203.398,113.81,202.362,110.645,201.327,107.479L201.327,107.479z M77.528,107.479c-0.978,3.165-1.958,6.33-2.935,9.497
		c2.015,0,4.03,0,6.044,0c0-0.174,0-0.348,0-0.521C79.6,113.465,78.563,110.471,77.528,107.479z M143.484,106.1
		c0,2.128,0,4.258,0,6.388c3.451,0.078,9.205,0.584,9.496-1.201c0.644-1.915,0.829-3.333-0.515-4.67
		C151.34,105.668,146.534,106.078,143.484,106.1z M234.302,126.472c-1.781,0-3.564,0-5.348,0
		c-3.284-5.812-6.565-11.626-9.845-17.438c-0.056,0-0.114,0-0.171,0c0,5.812,0,11.627,0,17.438c-1.668,0-3.34,0-5.006,0
		c0.056-8.286,0.113-16.576,0.171-24.864c1.783,0,3.567,0,5.352,0c3.224,5.699,6.447,11.398,9.67,17.096c0.058,0,0.115,0,0.172,0
		c0.058-5.697,0.115-11.396,0.175-17.096c1.608,0.06,3.221,0.117,4.83,0.173C234.302,110.012,234.302,118.243,234.302,126.472
		L234.302,126.472z M198.564,101.607c1.612-0.061,5.354-0.457,6.043,0.52c2.877,8.113,5.756,16.23,8.633,24.345
		c-1.899,0-3.799,0-5.698,0c-0.517-1.669-1.036-3.339-1.555-5.007c-3.047,0-6.1,0-9.153,0c-0.516,1.668-1.03,3.338-1.551,5.007
		c-1.841,0-3.685,0-5.524,0C192.693,118.186,195.629,109.896,198.564,101.607L198.564,101.607z M161.271,101.607
		c1.727,0,3.453,0,5.179,0c0,8.288,0,16.578,0,24.864c-1.726,0-3.452,0-5.179,0C161.271,118.186,161.271,109.896,161.271,101.607z
		 M143.484,116.803c0,3.224,0,6.446,0,9.669c-1.726,0-3.454,0-5.182,0c0.059-8.286,0.116-16.415,0.175-24.701
		c5.04-0.113,14.319-0.68,16.75,0.701c5.408,3.068,4.164,10.699-0.172,12.259c4.312,1.433,2.507,6.078,3.108,10.015
		c0.075,0.495,0.692,0.797,0.958,1.088c0.159,0.179-0.015,0.289,0.075,0.639c-1.956,0-3.913,0-5.869,0
		c-1.239-5.692,0.256-7.272-1.555-9.151C149.608,116.717,146.377,116.784,143.484,116.803L143.484,116.803z M135.886,101.607
		c0,1.496,0,2.995,0,4.492c-4.373,0-8.747,0-13.12,0c0,1.725,0,3.45,0,5.179c4.025,0,8.057,0,12.084,0c0,1.497,0,2.991,0,4.489
		c-4.027,0-8.059,0-12.084,0c0,2.07,0,4.145,0,6.214c4.604,0.06,9.208,0.116,13.812,0.172c0,1.44,0,2.878,0,4.318
		c-6.329,0-12.661,0-18.993,0c0.059-8.286,0.117-16.576,0.176-24.864c6.041,0,12.084,0,18.128,0H135.886z M114.303,101.607
		c0,8.288,0,16.578,0,24.864c-1.609,0-3.223,0-4.833,0c-0.056-6.79-0.114-13.584-0.173-20.372
		c-1.496,6.788-2.992,13.582-4.488,20.372c-1.727,0-3.453,0-5.18,0c-1.498-6.735-2.994-13.466-4.489-20.2c0,6.734,0,13.465,0,20.2
		c-1.668,0-3.338,0-5.007,0c0.057-8.286,0.113-16.576,0.171-24.864c2.532,0.06,5.065,0.117,7.598,0.173
		c1.44,6.447,2.878,12.895,4.315,19.338c0.058,0,0.117,0,0.174,0c1.496-6.502,2.99-13.007,4.488-19.511
		C109.356,101.607,111.831,101.607,114.303,101.607L114.303,101.607z M74.765,101.607c1.938-0.046,4.856-0.29,6.216,0.346
		c2.822,8.173,5.641,16.348,8.461,24.519c-1.898,0-3.799,0-5.698,0c-0.458-1.669-0.921-3.339-1.382-5.007c-3.106,0-6.213,0-9.32,0
		c-0.52,1.668-1.04,3.338-1.558,5.007c-1.841,0-3.683,0-5.524,0c0-0.06,0-0.113,0-0.173c2.934-8.229,5.871-16.462,8.806-24.689
		V101.607z M190.623,118.013c-2.042,13.793-24.032,12.415-22.103-5.699c0.62-5.818,3.217-9.561,8.461-11.049
		c6.332-1.799,14.102,3.002,13.642,8.632c-1.672,0-3.339,0-5.008,0c-3.384-8.282-13.05-4.24-11.743,5.697
		c0.336,2.539,1.167,5.027,2.937,6.217c3.643,2.444,8.082-0.271,8.632-3.798C187.168,118.013,188.896,118.013,190.623,118.013z
		 M133.404,93.667c0.464-0.08,1.007,0.076,1.512,0.115c0.149,0.497,0.5,1.135,0.674,1.883c-5.087-0.242-5.839,0.336-7.729,0.811
		c0.059-0.172-0.426-0.042,0.99-1.439C130.267,93.641,132.937,93.745,133.404,93.667L133.404,93.667z M140.715,96.228
		c0.101-0.809,0.313-2.018,0.415-2.823c2.501-0.069,5.131,1.228,5.426,1.582c0.296,0.354,0.747,1.456,0.65,2.01
		C145.141,96.406,142.829,96.428,140.715,96.228z M165.795,93.37c2.542-0.046,5.306,0.922,5.942,2.814
		c-1.974-0.529-4.458-0.748-6.351-0.926C165.522,94.628,165.66,93.998,165.795,93.37L165.795,93.37z M158.21,92.952
		c0.675,0.026,0.434-0.006,0.727,0.292c0.096,0.683,0.194,1.368,0.291,2.048c-2.227,0.246-4.753,0.988-6.979,1.232
		c0-0.196,0.3-1.083,0.3-1.083s0.609-1.034,1.912-1.663C155.766,93.151,157.534,92.927,158.21,92.952L158.21,92.952z M137.28,91.497
		c0.639-0.068,1.753-0.037,2.1,0.485c0.346,0.522-0.393,3.937-0.824,5.932c-0.109,0.253-0.19,1.304-0.576,0.538
		c-0.392-0.764-1.642-4.127-1.264-6.633C136.902,91.712,136.635,91.565,137.28,91.497z M160.563,91.757
		c1.013-0.662,2.956-0.332,3.468,0.347c0.513,0.679-0.497,5.201-1.917,6.346C160.966,96.884,159.956,92.3,160.563,91.757
		L160.563,91.757z M130.535,82.272c0,0.287,0,0.574,0,0.863C130.535,82.847,130.535,82.56,130.535,82.272z M125.528,80.717
		c0,0-1.035,0.69-1.553,1.036c-0.461-0.288-0.92-0.575-1.383-0.862c-0.576,3.911-1.15,7.829-1.725,11.741
		c0.344,0.403,1.275,0.834,1.619,1.236c0.137-0.27,2.684-2.279,2.816-2.279L125.528,80.717L125.528,80.717z M120.868,80.717
		c0,0-1.115,1.142-1.865,1.485c-0.346-0.23-1.07-0.909-1.418-1.141c0,0.116,0,0.231,0,0.346c-0.977,3.914-1.955,7.829-2.934,11.742
		c0.576,0.518,1.15,1.037,1.727,1.555c0.979-0.922,1.957-1.843,2.936-2.765C119.858,90.777,120.868,80.717,120.868,80.717
		L120.868,80.717z M112.752,80.717c-0.561,2.172-3.282,13.121-3.282,13.121l0.864,1.211c0,0,2.328-1.431,2.904-2.122
		c0.863-3.566,1.93-8.298,2.793-11.865c-0.057,0-0.115,0-0.172,0c-0.754,0.4-1.549,1.006-1.549,1.006S113.153,80.948,112.752,80.717
		L112.752,80.717z M107.917,80.026c-1.547,4.175-4.49,14.505-4.49,14.505l1.21,1.036h0.345l2.896-1.836l3.839-13.705
		c0,0-0.117,0-0.174,0C109.082,81.532,109.352,81.265,107.917,80.026L107.917,80.026z M179.054,79.854
		c0.574,3.855,1.15,7.713,1.728,11.568c1.092,0.92,2.185,1.84,3.279,2.764c0.688-0.633,1.38-1.268,2.072-1.9
		c0-0.059,0-0.117,0-0.174c-1.036-4.085-2.072-8.172-3.107-12.258c-0.519,0.344-1.038,0.691-1.556,1.036
		C180.666,80.546,179.857,80.198,179.054,79.854L179.054,79.854z M187.514,79.509c-0.461,0.458-0.922,0.921-1.381,1.382
		c-0.692-0.287-1.384-0.577-2.072-0.864c0.543,4.1,2.211,13.231,6.043,14.16c0.52-0.633,1.035-1.268,1.553-1.9
		C190.274,88.027,188.896,83.767,187.514,79.509L187.514,79.509z M174.044,79.509c0.522,3.855,1.038,7.713,1.557,11.567
		c0.865,0.748,1.726,1.498,2.589,2.246c0.058,0,0.116,0,0.174,0c0.459-0.517,0.918-1.036,1.378-1.556
		c-0.63-3.969-1.265-7.942-1.896-11.912c-0.404,0.286-0.807,0.575-1.208,0.862C175.771,80.314,174.908,79.911,174.044,79.509
		L174.044,79.509z M102.379,78.315c-0.785,2.613-5.764,14.479-5.764,14.479s1.28,2.682,1.34,2.682
		c1.438-0.518,2.479-1.289,3.918-1.809c1.611-4.834,3.223-9.67,4.835-14.504c-1.036,0.346-2.072,0.691-3.107,1.035
		C103.139,79.796,102.84,78.716,102.379,78.315z M192.175,78.817c-0.404,0.404-0.804,0.807-1.208,1.209
		c-0.746-0.23-1.496-0.461-2.246-0.689c1.269,4.373,2.533,8.749,3.799,13.121c0.979,0.921,1.961,1.844,2.937,2.764
		c0.69-0.634,1.378-1.267,2.073-1.899c0-0.06,0-0.115,0-0.173C196.83,90.251,193.92,80.633,192.175,78.817L192.175,78.817z
		 M197.87,77.438c-0.47,0.666-1.069,1.404-1.897,1.725c-0.806-0.23-1.609-0.463-2.417-0.691c1.787,4.951,3.569,9.901,5.354,14.851
		c1.266,0.516,2.533,1.034,3.797,1.554c0.52-0.574,1.037-1.152,1.556-1.727C203.87,90.785,199.263,78.593,197.87,77.438
		L197.87,77.438z M98.504,78.817l-1.219-1.976c0,0-5.627,10.39-8.447,15.683c0.462,0.461,0.834,1.547,1.295,2.007
		c1.726-0.69,3.453-1.382,5.179-2.073c1.844-4.718,5.526-14.16,5.526-14.16L98.504,78.817L98.504,78.817z M202.878,76.573
		c-0.399,0.576-0.805,1.15-1.208,1.725c-0.861-0.343-1.726-0.688-2.588-1.033c2.013,5.007,4.029,10.014,6.044,15.021
		c1.726,0.69,3.452,1.381,5.179,2.07c0.519-0.574,1.036-1.149,1.554-1.725C211.418,90.556,204.303,77.978,202.878,76.573z
		 M167.656,92.112c-0.922-0.116-1.84-0.229-2.761-0.346c-0.37-1.506-2.24-1.414-2.781-1.465c-2.158-0.203-2.168,0.891-2.396,1.293
		c-1.555,0.115-3.11,0.229-4.663,0.345c-0.65-7.294,0.241-17.377,7.597-17.266C167.452,77.138,167.723,84.802,167.656,92.112z
		 M136.751,74.674c7.951-0.101,7.909,9.706,7.768,17.784c-1.266-0.115-2.532-0.23-3.798-0.346c-0.229-0.518-0.234-1.159-0.689-1.555
		c-0.459-0.394-3.502-0.482-3.971,0c-0.47,0.484-0.575,1.152-0.864,1.729c-1.093,0.113-2.187,0.23-3.281,0.346
		C131.742,84.562,132.359,78.156,136.751,74.674z M91.341,74.329c0,0-4.836,8.979-7.253,13.467c-0.627,1.137-2.07,4.662-2.07,4.662
		l1.861,1.676c0,0,2.379-1.684,3.318-2.021c3.106-5.582,5.236-10.358,8.344-15.943c-0.978,0.462-1.836,0.212-2.816,0.673
		C91.863,76.116,91.341,74.329,91.341,74.329L91.341,74.329z M208.231,73.983c-0.518,0.633-1.033,1.267-1.553,1.897
		c-1.035-0.343-2.073-0.69-3.108-1.033c3.168,5.695,6.33,11.396,9.495,17.092c1.324,0.518,2.648,1.037,3.975,1.554
		c0.573-0.688,1.15-1.381,1.724-2.07C215.253,85.609,211.742,79.796,208.231,73.983L208.231,73.983z M87.9,74.427l-1.091-1.847
		L75.803,89.005l-2.232,4.328l1.194,2.751c0,0,2.648-0.922,3.973-1.38c3.913-6.85,11.739-20.548,11.739-20.548s0-0.116,0-0.173
		C89.364,74.048,87.9,74.427,87.9,74.427L87.9,74.427z M213.065,71.911c-0.401,0.518-0.802,1.037-1.207,1.553
		c-0.747-0.113-1.497-0.229-2.246-0.345c0,0.06,0,0.115,0,0.173c4.146,7.021,8.291,14.047,12.433,21.064
		c1.266,0.463,2.533,0.922,3.8,1.383c0.458-1.035,0.919-2.072,1.38-3.107C226.763,90.903,214.325,72.747,213.065,71.911
		L213.065,71.911z M82.708,70.012c-7.48,9.15-14.963,18.303-22.445,27.454c0.23,0.575,0.691,1.725,0.691,1.725l9.494-5.084
		c0,0,6.194-9.208,8.979-13.39c2.015-2.993,4.03-5.985,6.047-8.978c-0.061,0-0.117,0-0.176,0c-0.633,0.057-1.266,0.113-1.898,0.172
		C83.012,71.365,82.784,70.909,82.708,70.012L82.708,70.012z M217.211,69.495c-0.23,0.688-0.46,1.381-0.689,2.07
		c-0.635-0.173-1.269-0.345-1.901-0.518c0,0.059,0,0.117,0,0.173c5.759,8.345,11.513,16.692,17.268,25.034
		c2.646,1.037,5.296,2.076,7.942,3.109c0.172-1.109,0.773-2.133,0.344-2.764c-5.522-6.561-11.05-13.122-16.574-19.684
		C221.889,74.753,219.698,70.751,217.211,69.495L217.211,69.495z M125.872,69.321c-0.746,0.114-1.494,0.23-2.242,0.346
		c-0.135,2.09-0.691,8.977-0.691,8.977s1.15,0.578,1.725,0.865c0.463-0.518,1.385-1.554,1.385-1.554s0.344-5.757,0.518-8.634
		C126.333,69.321,126.104,69.321,125.872,69.321z M173.011,68.976c0.287,2.82,0.861,8.463,0.861,8.463l2.247,1.033l1.001-1.148
		l-1.52-8.174C175.601,69.149,173.872,69.034,173.011,68.976L173.011,68.976z M131.053,68.976c-1.092,0.115-2.188,0.229-3.281,0.346
		c-0.174,2.937-0.346,5.871-0.518,8.805c0.82,0.522,1.664,1.123,1.801,1.129c0.52-0.347,1.306-0.957,1.823-1.3
		C130.937,74.96,130.997,71.968,131.053,68.976L131.053,68.976z M169.384,68.631l0.688,8.543c0,0,1.097,0.819,1.499,1.05
		c0.402-0.23,0.692-0.902,1.096-1.131c-0.231-2.764-0.463-5.525-0.691-8.289C171.11,68.745,169.384,68.631,169.384,68.631
		L169.384,68.631z M119.485,68.631c-0.426,2.952-1.689,9.817-1.689,9.817s0.941,1.348,1.344,1.578
		c0.748-0.402,2.246-1.209,2.246-1.209s0.576-6.332,0.861-9.496C121.327,69.091,120.405,68.86,119.485,68.631z M179.821,68.174
		c-1.094,0.345-3.15,1.199-3.15,1.199l1.862,8.408c0,0,1.498,0.808,2.248,1.21c0.345-0.291,0.688-0.576,1.033-0.865
		c0.173-0.285,0.521-0.861,0.521-0.861S180.684,71.454,179.821,68.174L179.821,68.174z M115.688,67.25
		c-0.863,3.567-2.592,10.705-2.592,10.705l1.484,1.835l1.971-1.492c0,0,1.15-6.904,1.727-10.357
		C117.413,67.71,116.551,67.479,115.688,67.25z M183.714,66.213c-0.92,0.349-1.841,0.692-2.762,1.037
		c1.524,4.858,2.505,9.93,2.47,9.924c0.113-0.058,2.711,1.47,2.711,1.47l0.59-2.07C186.723,76.573,183.888,66.213,183.714,66.213z
		 M111.37,65.694c-1.266,3.857-2.53,7.715-3.799,11.57c0.461,0.517,1.051,1.471,1.511,1.99c0.965-0.349,2.815-1.744,2.815-1.744
		s1.432-7.385,2.236-10.949C113.213,66.269,112.292,65.983,111.37,65.694z M187.514,65.005c-0.805,0.288-1.613,0.576-2.417,0.863
		c0.977,3.567,1.956,7.138,2.936,10.705c0.979,0.403,1.957,0.806,2.935,1.208c0.287-0.632,0.576-1.267,0.862-1.9
		c-1.266-3.622-2.532-7.25-3.797-10.876C187.857,65.005,187.687,65.005,187.514,65.005L187.514,65.005z M108.088,64.485
		c-0.978,2.033-5.179,11.396-5.179,11.396s0.691,1.384,1.036,2.074c0.92-0.461,1.844-0.922,2.763-1.382
		c1.208-3.797,2.419-7.598,3.626-11.395C109.585,64.948,108.839,64.717,108.088,64.485z M191.829,63.623
		c-0.92,0.347-1.84,0.69-2.763,1.036c-0.056,0.115-0.115,0.231-0.17,0.346c1.263,3.512,2.531,7.023,3.798,10.533
		c1.207,0.459,2.416,0.92,3.624,1.379c0.346-0.634,0.69-1.266,1.035-1.897C196.389,72.868,193.411,64.585,191.829,63.623
		L191.829,63.623z M104.636,62.243c-1.577,2.639-6.278,11.516-6.278,11.516l0.753,2.642l0.345,0.173l2.656-1.477
		c0,0,3.81-8.389,4.941-11.127C106.248,63.394,105.442,62.819,104.636,62.243L104.636,62.243z M195.11,61.724
		c-0.689,0.52-1.38,1.035-2.071,1.553c1.728,3.742,3.452,7.485,5.178,11.227c1.095,0.229,2.19,0.457,3.281,0.688
		c0.231-0.748,0.462-1.495,0.691-2.242C199.831,69.207,197.471,65.465,195.11,61.724L195.11,61.724z M102.045,60.169
		c-3.166,3.568-6.33,7.139-9.497,10.707c0.175,0.977,0.347,1.957,0.518,2.935c1.498-0.229,2.995-0.46,4.489-0.691
		c2.016-3.912,4.031-7.827,6.046-11.739C103.083,60.978,102.563,60.573,102.045,60.169L102.045,60.169z M197.699,59.826
		c-0.517,0.458-1.035,0.921-1.553,1.38c2.3,3.682,4.604,7.367,6.906,11.052c1.322,0,2.647,0,3.973,0
		c0.229-0.634,0.459-1.267,0.688-1.9C206.639,68.488,199.554,60.418,197.699,59.826L197.699,59.826z M99.801,58.444
		c-4.086,3.394-8.174,6.791-12.258,10.187c0.117,0.862,0.23,1.727,0.346,2.59c1.287-0.423,3.785-0.692,3.785-0.692l9.509-10.876
		C101.183,59.652,100.262,58.845,99.801,58.444z M212.378,69.667c0.074-1.523,0.181-2.223-0.349-3.105
		c-3.798-2.824-7.598-5.643-11.395-8.465c-0.861,0.182-1.25,0.502-1.726,1.039c0.345,0.346,0.691,0.69,1.035,1.033
		c2.877,3.167,5.756,6.333,8.634,9.498C209.843,69.667,211.111,69.667,212.378,69.667L212.378,69.667z M97.731,56.891
		c-4.952,2.359-9.902,4.719-14.85,7.079c-0.174,1.266-0.347,2.532-0.52,3.797c1.96,0.027,4.889-0.244,4.889-0.244
		s7.56-7.127,11.688-9.596c-0.289-0.346-0.576-0.691-0.865-1.036C97.959,56.891,97.844,56.891,97.731,56.891z M202.878,56.027
		c-0.573,0.518-1.148,1.034-1.725,1.554c0.115,0,0.231,0,0.345,0c4.088,3.051,8.174,6.1,12.261,9.15c1.265,0,2.53,0,3.799,0
		c-0.347-1.381-0.693-2.762-1.036-4.144C211.976,60.402,207.427,58.214,202.878,56.027z M166.962,43.771c0,0,0.297,0.364,0.297,0.42
		c-0.022,0.418-0.489,1.227-1.229,1.101c-0.738-0.123-0.771-0.719-0.706-0.985C166.443,43.158,166.962,43.771,166.962,43.771z
		 M166.209,42.866c-0.313-0.002-3.963,2.101-3.963,2.101s1.551,1.351,1.894,1.429c0.341,0.076,0.99,0.436,1.873,0.029
		c0.882-0.401,2.355-2.729,2.355-2.729S166.349,42.866,166.209,42.866L166.209,42.866z M167.325,40.448c0,0,2.116,1.42,3.095,2.284
		c-0.46,0.634-0.921,1.265-1.383,1.897c0.367,0.225,0.251,0.213,0.865,0.346c0.616-0.494,1.927-1.5,1.927-1.5l6.303-0.46l1.844,1.71
		h-5.021l-2.541,1.562c0,0,1.425,0.251,1.44,0.259c1.381,0.115,3.158,0.39,4.539,0.504c0,0.06-1.023,1.115-1.023,1.174
		c-1.443,0.093-4.784,0.453-4.869,0.413c-0.21-0.044-6.244,5.075-9.677,7.391c0.055,0.171,0.113,0.345,0.173,0.518
		c0.629,0.171,1.265,0.346,1.898,0.517c0.174,1.209,0.346,2.42,0.518,3.627c-0.576-0.229-1.151-0.461-1.727-0.691
		c0,0.116,0,0.23,0,0.348c0.114,1.609,0.233,3.222,0.345,4.834c-0.405-0.23-0.807-0.462-1.207-0.693
		c-0.809,1.383-2.421,4.146-2.421,4.146l-2.241-1.381c0,0-1.497,2.071-2.248,3.107c-0.113-0.059-0.229-0.114-0.341-0.174
		c-0.577-0.919-1.153-1.841-1.728-2.762c-0.059,0-0.114,0-0.174,0c-0.807,0.921-1.612,1.843-2.416,2.762
		c0-0.114-2.304-3.622-2.591-3.622c-0.633,1.148-1.268,2.299-1.899,3.45c-0.114-0.058-0.231-0.115-0.346-0.171
		c-0.312-1.096-0.943-2.442-1.726-3.109c-0.98,0.576-1.956,1.151-2.936,1.728c-0.405-0.978-0.807-1.957-1.208-2.938
		c-1.498,0.577-2.997,1.154-4.489,1.729c0.631-1.729,1.265-3.454,1.897-5.179c-0.978-0.289-1.956-0.576-2.936-0.865
		c0.116-0.172,0.23-0.344,0.345-0.518c0.693-0.575,1.384-1.152,2.073-1.726c0-0.174,0-0.347,0-0.519
		c-1.094-0.348-2.188-0.691-3.277-1.037c0.859-0.287,3.02-0.766,3.02-0.766l-1.946-0.939l6.605-1.21l18.044-12.372L167.325,40.448
		L167.325,40.448z M79.946,69.149c-0.057-0.692-0.117-1.383-0.174-2.07c-7.94,7.881-15.887,15.769-23.826,23.65
		c-1.88,1.883-5.555,5.931-5.903,6.082c-0.246,0.106-6.4,2.032-6.792,2.045c-0.286-0.747-0.363-1.203-0.65-1.951
		C57.217,82.46,71.511,68.193,86.127,53.747c8.75-1.149,17.018-2.475,25.764-3.627c4.66,3.05,9.477,6.345,14.139,9.395
		c3.223,0,6.462-0.379,9.685-0.379c-0.058,0.114-0.115,0.229-0.172,0.346c-0.692,0.573-1.379,1.15-2.075,1.725
		c0.06,0.229,0.117,0.46,0.175,0.691c1.038,0.229,2.072,0.459,3.109,0.69c-0.06,0.231-0.116,0.46-0.174,0.688
		c-3.798,0.174-7.597,0.347-11.396,0.52c-4.545-2.703-9.094-5.41-13.641-8.115c-2.358,0.231-4.719,0.462-7.078,0.691
		c-1.554,0.173-3.107,0.344-4.662,0.519c0.06,0.114,0.116,0.229,0.174,0.345c2.876,2.129,5.754,4.26,8.631,6.388
		c4.836,1.67,9.672,3.339,14.502,5.008c3.916-0.459,7.829-0.921,11.742-1.381c-0.113,0.286-0.344,0.862-0.344,0.862
		s-1.489,0.494-2.245,0.691c0.096,4.746,0.07,10.045-1.554,13.295c0-0.691-0.58-1.35-0.58-2.041
		c-0.174,0.165-0.938,1.072-0.938,1.072l-1.936-0.932l-0.346,12.607l0.861,0.517h0.348l2.243-2.417c0,0,0.23,1.264,0.347,1.9
		c-2.41,0.568-4.361,2.777-4.633,5.388c0.174,0.06,0.434-0.325,0.607-0.269c1.709-1.087,6.909-1.502,9.447-0.821
		c0.443,1.325,1.772,3.267,2.158,3.146c0.651-0.202,1.886-2.876,1.886-2.876l8.664,0.78c0.099-0.689-0.01-0.516,0.345-0.861
		c0.516-0.058,1.035-0.116,1.556-0.172c0.115,0.286,0.228,0.574,0.344,0.862c0.23-0.115,6.373-1.282,8.979-1.381
		c0.296,0.783,1.717,3.279,1.985,3.279c0.87,0,2.698-3.306,2.698-3.306s5.21,0.479,8.783,1.062c0.059-0.115,0.114-0.23,0.172-0.345
		c-0.997-2.204-2.009-4.413-4.833-4.833c0.229-0.807,0.458-1.615,0.688-2.42c1.037,0.92,2.074,1.844,3.11,2.766
		c0.169-0.117,0.345-0.231,0.516-0.346c0.461-0.576,0.921-1.152,1.385-1.73c-0.019-2.121-0.801-10.006-1.731-11.221
		c-1.309,0.998-1.428,0.616-3.105,0.172c0.059,1.232,0.183,3.109-0.346,3.798c-0.213-5.325-0.648-9.442-1.21-15.021
		c-0.863-0.171-1.725-0.345-2.589-0.517c-0.114-0.287-0.229-0.576-0.344-0.861c3.279,0.343,9.841,1.033,9.841,1.033l16.745-5.843
		c0,0,7.372-4.225,10.191-6.763c-0.059-0.111-13.264-1.193-13.264-1.193l-14.442,8.482l-9.417-0.382c0,0-0.115-0.576-0.172-0.862
		c0.057,0,0.113,0,0.172,0c0.517,0.229,1.035,0.461,1.554,0.691c0.055-0.058,0.113-0.116,0.171-0.172
		c-0.116-1.037-0.226-2.835-0.226-2.835l6.044,0.278l14.884-9.949c0,0,17.916,2.638,27.067,3.904
		c14.499,14.099,28.653,28.035,43.152,42.134c-0.057,1.036-0.368,2.325-0.368,2.325l-5.882-1.621c0,0-20.327-20.139-30.629-30.439
		c-0.344,0.808-0.689,1.611-1.038,2.418c-0.574-0.114-1.148-0.23-1.724-0.346c0.976,3.203,6.335,7.507,8.462,10.186
		c7.137,9.009,13.156,17.199,23.307,23.31c0.577-1.206,1.15-2.417,1.728-3.625c2.416,0.576,4.836,1.151,7.251,1.727
		c0.115-1.554,0.229-3.109,0.347-4.661c-14.618-14.214-29.24-28.434-43.857-42.648c-9.436-1.322-28.315-3.972-28.315-3.972
		l-14.859,9.874c0,0-4.121,0.125-6.032-0.377c-0.027-1.055-0.043-1.252-0.862-1.555c0.056-0.115,0.112-0.227,0.172-0.344
		c2.532-2.131,5.307-3.852,7.838-5.98c1.13-0.579,5.281-0.908,5.281-0.908s1.765-2.415,1.707-2.475
		c-1.38-0.171-3.776-0.48-5.158-0.652c0.649-0.391,0.852-0.355,0.777-0.433c-0.043-0.042,6.801,0.25,6.801,0.25l-3.953-3.788
		c0,0-4.833,0.231-7.25,0.347c-1.148-1.036-2.515-2.007-3.666-3.042c-1.057,0.101-8.188,1.551-8.188,1.551
		s-10.549,6.815-17.004,11.779c-0.415,0.32-0.811,0.633-1.187,0.934c-2.876,0.575-5.754,1.151-8.633,1.728c0,0.287,0,0.573,0,0.863
		c0.462,0.115,0.921,0.229,1.381,0.345c0,0.057,0,0.115,0,0.173c-0.69,0.229-1.381,0.46-2.071,0.69
		c0.055,0.287,0.114,0.576,0.172,0.861c-2.126,0.008-5.729,0.127-5.729,0.127s-7.012-4.441-10.672-6.857
		c-1.092-0.807-2.188-1.613-3.279-2.418c-9.035,1.209-18.074,2.418-27.11,3.625C70.508,67.248,55.713,81.927,40.924,96.603
		c0.17,1.292,1.412,3.756,1.688,3.778c2.244-0.69,4.873-1.532,7.117-2.227c0,0.115,0,0.232,0,0.348
		c0.287,0.805,0.654,1.612,0.941,2.416c1.471-0.564,8.206-4.2,8.281-4.249c0.237-0.16,4.461-5.52,6.145-7.664
		c5.469-6.56,10.937-13.123,16.402-19.684c-0.116,0-0.23,0-0.346,0C80.75,69.262,80.348,69.206,79.946,69.149L79.946,69.149z
		 M166.969,38.069c0.402,0.059,0.804,0.116,1.205,0.174c1.21,0.978,2.419,1.957,3.628,2.936c3.799-0.301,7.205-0.193,7.205-0.193
		l5.525,5.6h-3.812l-2.029,3.372l-4.869,0.577c0,0-4.955,3.596-7.201,5.493c0.113,0.345,0.23,0.688,0.348,1.034
		c1.695,0.008,4.806-0.078,4.806-0.078s7.885-5.186,11.595-7.518c1.095-0.748,2.188-1.497,3.281-2.244
		c9.553,1.324,19.108,2.646,28.661,3.971c14.906,14.502,29.813,29.01,44.719,43.512c0.314,7.962-2.8,5.737-7.943,4.314
		c-1.248,7.434-6.966,0.341-10.704-0.692c-0.153,1.173-1.036,2.422-1.036,2.422s-12.672-5.123-12.97-5.272
		c-0.256,1.023-1.353,2.251-1.353,2.251s-4.938-2.784-7.085-4.06c-0.576,0.404-1.729,1.209-1.729,1.209l-4.088-1.351
		c0,0-1.999,1.813-2.476,2.214c-3.68-0.748-4.724-1.765-4.724-1.765s-2.756,2.224-2.871,2.28c0.172-0.029-4.382-1.509-4.628-1.531
		c-0.202,0.023-2.854,1.95-2.854,1.95l-3.742-2.661l-1.506,1.463l-1.433-0.708l-2.068-1.274l-2.803,1.982l-3.238-2.499
		c0,0-0.115,0-0.175,0c-0.691,0.577-2.071,1.728-2.071,1.728l-3.453-2.418c0,0-1.967,1.793-1.899,1.9
		c0.202,0.77,1.688,4.213,1.688,4.213l-9.445-0.81c0,0-2.904,3.643-3.311,3.643c-0.403,0-2.765-3.173-2.743-3.249
		c-1.489,0.007-8.68,1.905-13.263,1.009c-2.13,0-5.387-0.318-5.387-0.318s-1.782,2.491-2.432,2.491
		c-0.606,0-2.317-1.924-2.575-3.182c-4.915-0.664-10.583,0.953-10.583,0.953s0.943-3.846,1.086-5.27
		c-0.814-0.375-0.689-0.699-1.383-0.345c-0.803,0.633-2.414,1.899-2.414,1.899s-1.838-0.816-2.762-1.555c-0.115,0-0.23,0-0.346,0
		c-0.713,0.977-2.762,2.417-2.762,2.417s-1.953-1.292-2.936-2.071c-1.338,0.549-1.857,1.773-3.281,2.415
		c-1.072-0.495-1.459-1.165-2.246-1.896c-0.918,0.805-2.763,2.417-2.763,2.417s-2.204-1.123-3.452-1.899
		c-1.555,0.519-4.662,1.554-4.662,1.554l-2.245-2.59c0,0-3.453,1.266-5.181,1.897c-0.92-0.806-2.762-2.417-2.762-2.417l-4.888,2.518
		l-1.04-1.423L73.5,97.694l-1.418-2.756l-11.262,6.033l-2.113-2.646l-8.46,3.801c0,0-0.975-1.76-1.726-2.59
		c-2.073,0.577-4.144,1.151-6.217,1.728c-0.995-0.748-2.83-3.43-2.244-5.01c1.439-1.495,2.879-2.992,4.317-4.486
		c4.086-4.028,8.172-8.059,12.259-12.088C66.131,70.3,75.63,60.917,85.125,51.538c5.236-0.691,10.476-1.381,15.713-2.072
		c3.798-0.518,11.396-1.556,11.396-1.556l3.107,2.073l11.113,6.74l4.423,0.512l1.037-2.762c0,0,6.217-1.498,9.324-2.246
		c5.812-4.143,11.627-8.287,17.44-12.433C161.441,39.221,164.205,38.646,166.969,38.069"/>
</g>
</svg>
