<?xml version="1.0" encoding="utf-8"?>
<!-- Generator: Adobe Illustrator 16.0.4, SVG Export Plug-In . SVG Version: 6.00 Build 0)  -->
<!DOCTYPE svg PUBLIC "-//W3C//DTD SVG 1.1//EN" "http://www.w3.org/Graphics/SVG/1.1/DTD/svg11.dtd">
<svg version="1.1" id="Layer_1" xmlns="http://www.w3.org/2000/svg" xmlns:xlink="http://www.w3.org/1999/xlink" x="0px" y="0px"
	 width="300px" height="200px" viewBox="0 0 300 200" enable-background="new 0 0 300 200" xml:space="preserve">
<rect fill="#E4212F" width="300" height="200"/>
<g>
	<g>
		<path fill="#FFFFFF" d="M246,116.848v1.903V122c-3.148,2.253-8.951,5.221-15.793,4.859c-7.152-0.571-10.793-4.085-10.793-10.561
			c0-2.944,1.281-4.635,3.72-6.35c2.437-1.715,5.901-2.575,10.13-2.575H246V116.848z M251.897,76.591
			c-4.368-3.551-10.388-5.262-18.215-5.262c-5.899,0-11.279,0.872-16.155,2.584c-2.291,0.802-4.462,1.786-6.531,2.948
			c-0.126,0.08-0.263,0.149-0.395,0.223l5.129,9.558c0.008-0.007,0.009-0.008,0.009-0.008c2.05-1.098,4.254-1.963,6.589-2.61
			c3.374-0.942,7.035-1.423,10.972-1.423c8.473,0,12.7,4.312,12.7,11.541v2.328h-12.354c-8.076,0-14.361,1.719-19.103,5.021
			c-5.133,3.673-7.7,8.313-7.7,15.168c0,7.236,2.567,12.873,7.568,16.792c4.175,3.265,9.348,4.852,15.517,4.896
			c4.052,0,9.391-0.778,16.324-5.021v3.758h12.697v-5.389V93.529C258.95,86.419,256.642,80.394,251.897,76.591"/>
		<path fill="#FFFFFF" d="M138.279,73.259l-11.37,34.3c-2.272,6.866-3.79,12.04-4.551,15.53c-0.883-3.249-2.397-8.428-4.926-15.53
			l-11.876-34.3H91.912l23.754,63.824h13.011l23.37-63.824H138.279z"/>
		<path fill="#FFFFFF" d="M79.199,116.848v1.905V122c-3.145,2.253-8.944,5.221-15.787,4.859
			c-7.156-0.571-10.796-4.085-10.796-10.561c0-2.944,1.279-4.635,3.722-6.35c2.433-1.715,5.89-2.575,10.125-2.575h12.737V116.848z
			 M85.093,76.591c-4.358-3.551-10.382-5.262-18.208-5.262c-5.896,0-11.28,0.872-16.155,2.584c-2.289,0.802-4.462,1.786-6.526,2.948
			c-0.138,0.08-0.267,0.149-0.403,0.223l5.137,9.558c0.002-0.007,0.005-0.008,0.005-0.008c2.051-1.098,4.253-1.963,6.592-2.61
			c3.373-0.942,7.034-1.423,10.971-1.423c8.467,0,12.694,4.312,12.694,11.541v2.328H66.848c-8.078,0-14.362,1.719-19.106,5.021
			c-5.129,3.673-7.694,8.313-7.694,15.177c0,7.228,2.565,12.864,7.571,16.783c4.17,3.265,9.343,4.852,15.517,4.896
			c4.046,0,9.386-0.778,16.323-5.021v3.758h12.695v-5.389V93.529C92.154,86.419,89.847,80.394,85.093,76.591"/>
		<path fill="#FFFFFF" d="M162.57,98.943c1.105-10.722,6.003-16.082,14.684-16.082c9.419,0,14.438,5.36,15.166,16.082H162.57z
			 M205.146,103.575c0-9.144-2.204-16.689-6.729-22.541c-4.771-6.334-11.618-9.504-20.308-9.504c-8.434,0-15.291,2.805-20.307,8.53
			c-5.259,5.969-7.823,14.253-7.823,24.854c0,10.232,2.684,18.519,8.194,24.609c1.047,1.195,2.15,2.245,3.32,3.189
			c0.062,0.056,0.123,0.111,0.186,0.163c3.162,2.353,8.849,5.271,17.724,5.492c7.534,0,14.204-1.554,20.001-4.567l-5.046-9.617
			c-2.979,1.339-6.239,2.227-9.774,2.637c-0.093,0.01-0.186,0.017-0.285,0.03c-1.03,0.111-2.094,0.178-3.169,0.209
			c-8.795,0.041-13.328-4.435-14.757-6.179c-2.201-2.924-3.542-6.795-4.04-11.58h42.45
			C205.022,106.621,205.146,104.673,205.146,103.575"/>
	</g>
</g>
<radialGradient id="SVGID_1_" cx="152" cy="99" r="288.5108" gradientTransform="matrix(1 0 0 0.7165 0 28.0661)" gradientUnits="userSpaceOnUse">
	<stop  offset="0.175" style="stop-color:#000000;stop-opacity:0"/>
	<stop  offset="0.7088" style="stop-color:#000000;stop-opacity:0.1"/>
	<stop  offset="1" style="stop-color:#000000;stop-opacity:0.2"/>
</radialGradient>
<rect fill="url(#SVGID_1_)" width="300" height="200"/>
</svg>
