<?xml version="1.0" encoding="utf-8"?>
<!-- Generator: Adobe Illustrator 16.0.4, SVG Export Plug-In . SVG Version: 6.00 Build 0)  -->
<!DOCTYPE svg PUBLIC "-//W3C//DTD SVG 1.1//EN" "http://www.w3.org/Graphics/SVG/1.1/DTD/svg11.dtd">
<svg version="1.1" id="Layer_1" xmlns="http://www.w3.org/2000/svg" xmlns:xlink="http://www.w3.org/1999/xlink" x="0px" y="0px"
	 width="300px" height="150px" viewBox="0 0 300 150" enable-background="new 0 0 300 150" xml:space="preserve">
<rect x="0" fill="#E4212F" width="300" height="150"/>
<radialGradient id="SVGID_1_" cx="157" cy="-59.9268" r="288.5108" gradientTransform="matrix(1 0 0 0.4385 0 101.2756)" gradientUnits="userSpaceOnUse">
	<stop  offset="0.2143" style="stop-color:#000000;stop-opacity:0"/>
	<stop  offset="0.7088" style="stop-color:#000000;stop-opacity:0.1"/>
	<stop  offset="1" style="stop-color:#000000;stop-opacity:0.2"/>
</radialGradient>
<rect x="0" fill="url(#SVGID_1_)" width="300" height="150"/>
<g>
	<g>
		<path fill="#FFFFFF" d="M246.501,86.374v1.903v3.249c-3.148,2.253-8.951,5.221-15.793,4.859
			c-7.152-0.571-10.793-4.085-10.793-10.561c0-2.944,1.281-4.635,3.72-6.35c2.437-1.715,5.901-2.575,10.13-2.575h12.736V86.374z
			 M252.398,46.117c-4.368-3.551-10.388-5.262-18.215-5.262c-5.899,0-11.279,0.871-16.155,2.584
			c-2.291,0.802-4.462,1.785-6.531,2.948c-0.126,0.08-0.263,0.149-0.395,0.224l5.129,9.557c0.008-0.006,0.009-0.008,0.009-0.008
			c2.05-1.098,4.254-1.963,6.589-2.61c3.374-0.942,7.035-1.423,10.972-1.423c8.473,0,12.7,4.312,12.7,11.54v2.328h-12.354
			c-8.076,0-14.361,1.719-19.103,5.021c-5.133,3.673-7.7,8.313-7.7,15.168c0,7.236,2.567,12.873,7.568,16.792
			c4.175,3.265,9.348,4.852,15.517,4.896c4.052,0,9.391-0.778,16.324-5.021v3.758h12.697v-5.389V63.056
			C259.451,55.945,257.143,49.92,252.398,46.117"/>
		<path fill="#FFFFFF" d="M138.781,42.785l-11.37,34.3c-2.272,6.866-3.79,12.04-4.552,15.53c-0.883-3.249-2.396-8.428-4.926-15.53
			l-11.877-34.3H92.414l23.754,63.824h13.012l23.37-63.824H138.781z"/>
		<path fill="#FFFFFF" d="M79.701,86.374v1.905v3.247c-3.145,2.253-8.943,5.221-15.787,4.859
			c-7.156-0.571-10.797-4.085-10.797-10.561c0-2.944,1.279-4.635,3.723-6.35c2.432-1.715,5.89-2.575,10.125-2.575h12.736V86.374z
			 M85.595,46.117c-4.359-3.551-10.383-5.262-18.209-5.262c-5.896,0-11.279,0.871-16.154,2.584
			c-2.289,0.802-4.463,1.785-6.527,2.948c-0.137,0.08-0.266,0.149-0.402,0.224l5.137,9.557c0.002-0.006,0.005-0.008,0.005-0.008
			c2.052-1.098,4.253-1.963,6.592-2.61c3.372-0.942,7.034-1.423,10.971-1.423c8.467,0,12.694,4.312,12.694,11.54v2.328H67.349
			c-8.078,0-14.361,1.719-19.105,5.021c-5.129,3.673-7.694,8.313-7.694,15.177c0,7.228,2.565,12.864,7.571,16.783
			c4.17,3.265,9.343,4.852,15.517,4.896c4.046,0,9.386-0.778,16.323-5.021v3.758h12.695v-5.389V63.056
			C92.656,55.945,90.348,49.92,85.595,46.117"/>
		<path fill="#FFFFFF" d="M163.071,68.47c1.105-10.722,6.003-16.081,14.684-16.081c9.419,0,14.438,5.359,15.166,16.081H163.071z
			 M205.647,73.102c0-9.144-2.204-16.689-6.729-22.541c-4.771-6.334-11.618-9.504-20.308-9.504c-8.434,0-15.291,2.805-20.307,8.529
			c-5.259,5.969-7.822,14.254-7.822,24.854c0,10.232,2.684,18.519,8.193,24.609c1.047,1.195,2.15,2.245,3.32,3.189
			c0.062,0.056,0.123,0.111,0.186,0.163c3.162,2.353,8.849,5.271,17.724,5.492c7.534,0,14.204-1.554,20.001-4.567l-5.046-9.617
			c-2.979,1.339-6.239,2.227-9.774,2.637c-0.093,0.01-0.186,0.017-0.285,0.03c-1.03,0.111-2.094,0.178-3.169,0.209
			c-8.795,0.041-13.328-4.435-14.757-6.179c-2.201-2.924-3.542-6.795-4.04-11.58h42.45
			C205.523,76.147,205.647,74.199,205.647,73.102"/>
	</g>
</g>
</svg>
