<?xml version="1.0" encoding="utf-8"?>
<!-- Generator: Adobe Illustrator 16.0.4, SVG Export Plug-In . SVG Version: 6.00 Build 0)  -->
<!DOCTYPE svg PUBLIC "-//W3C//DTD SVG 1.1//EN" "http://www.w3.org/Graphics/SVG/1.1/DTD/svg11.dtd">
<svg version="1.1" id="Layer_1" xmlns="http://www.w3.org/2000/svg" xmlns:xlink="http://www.w3.org/1999/xlink" x="0px" y="0px"
	 width="300px" height="150px" viewBox="0 0 300 150" enable-background="new 0 0 300 150" xml:space="preserve">
<radialGradient id="SVGID_1_" cx="157" cy="-59.9268" r="288.5108" gradientTransform="matrix(1 0 0 0.4385 0 101.2756)" gradientUnits="userSpaceOnUse">
	<stop  offset="0.175" style="stop-color:#000000;stop-opacity:0"/>
	<stop  offset="0.7088" style="stop-color:#000000;stop-opacity:0.1"/>
	<stop  offset="1" style="stop-color:#000000;stop-opacity:0.2"/>
</radialGradient>
<rect opacity="0.25" fill="url(#SVGID_1_)" width="300" height="150"/>
<g>
	<path fill-rule="evenodd" clip-rule="evenodd" fill="#174CA1" d="M49.225,122.241c-0.764,3.668-3.415,7.335-8.763,7.335
		c-5.859,0-10.241-4.939-10.241-10.848c0-6.42,4.844-11.312,10.804-11.312c4.584,0,7.437,2.907,7.437,5.503
		c0,1.681-1.019,2.801-2.294,2.801c-1.372,0-2.139-1.323-2.139-2.596c0-0.917,0.357-1.887,0.92-2.343
		c0.301-0.308,0.403-0.406,0.403-0.665c0-0.409-1.476-1.727-4.381-1.727c-0.966,0-3.668,0.045-4.939,2.798
		c-0.867,1.986-0.918,6.876-0.918,9.22c0,1.529,0.051,3.821,0.56,5.043c0.768,2.091,2.603,3.109,4.839,3.109
		c2.446,0,6.167-1.223,7.54-6.318H49.225L49.225,122.241z"/>
	<path fill-rule="evenodd" clip-rule="evenodd" fill="#174CA1" d="M67.796,115.72h-9.32v-1.937c0.05-1.628,0.099-3.31,1.731-4.479
		c1.02-0.714,2.189-0.869,3.107-0.869c4.381,0,4.433,3.313,4.481,5.349V115.72L67.796,115.72L67.796,115.72z M71.414,122.038
		c-0.66,3.517-3.515,6.467-7.438,6.467c-1.68,0-3.312-0.558-4.332-1.882c-1.169-1.527-1.169-3.212-1.169-7.639v-2.244h14.313
		c-0.306-5.959-4.534-9.324-9.169-9.324c-5.653,0-10.086,5.403-10.086,11.261c0,6.062,4.838,10.899,10.442,10.899
		c5.248,0,8-4.126,8.561-7.538H71.414L71.414,122.038z"/>
	<path fill-rule="evenodd" clip-rule="evenodd" fill="#174CA1" d="M87.824,128.963H76.31V128h3.618v-19.002H76.31v-0.97h7.798v3.258
		c0.71-1.016,2.751-3.87,7.077-3.87c2.396,0,4.279,0.974,5.303,2.144c1.576,1.779,1.526,3.975,1.526,5.804V128h3.665v0.963H90.27
		V128h3.565v-13.807c-0.052-1.782-0.052-2.445-0.206-3.11c-0.66-2.288-2.798-2.288-3.359-2.288c-1.071,0-2.346,0.406-3.411,1.17
		c-2.599,1.987-2.702,4.991-2.751,9.02V128h3.717V128.963L87.824,128.963z"/>
	<path fill-rule="evenodd" clip-rule="evenodd" fill="#174CA1" d="M117.175,108.998h-5.806v15.076
		c-0.052,1.429-0.052,3.772,2.752,3.772c2.599,0,3.106-2.192,3.207-2.907h0.967c-0.356,2.553-1.937,4.486-5.552,4.486
		c-3.057,0-4.584-1.426-5.142-3.107c-0.359-0.97-0.359-2.036-0.359-4.585v-12.735h-3.514v-0.664
		c2.853-1.223,5.859-4.837,7.081-8.763h0.56v8.457h5.806V108.998L117.175,108.998z"/>
	<path fill-rule="evenodd" clip-rule="evenodd" fill="#174CA1" d="M135.414,115.72h-9.323v-1.937
		c0.052-1.628,0.102-3.31,1.732-4.479c1.021-0.714,2.191-0.869,3.105-0.869c4.382,0,4.431,3.313,4.485,5.349V115.72L135.414,115.72
		L135.414,115.72z M139.028,122.038c-0.662,3.517-3.512,6.467-7.435,6.467c-1.683,0-3.312-0.558-4.329-1.882
		c-1.174-1.527-1.174-3.212-1.174-7.639v-2.244h14.312c-0.303-5.959-4.53-9.324-9.17-9.324c-5.652,0-10.084,5.403-10.084,11.261
		c0,6.062,4.837,10.899,10.444,10.899c5.244,0,7.994-4.126,8.558-7.538H139.028L139.028,122.038z"/>
	<path fill-rule="evenodd" clip-rule="evenodd" fill="#174CA1" d="M144.024,108.028h7.993v5.401c0.816-2.192,2.14-5.859,5.811-5.859
		c2.038,0,3.058,1.374,3.058,2.956c0,1.526-0.919,2.647-2.144,2.647c-1.321,0-1.832-1.121-1.934-2.494v-0.461
		c-0.103-0.407-0.202-0.659-0.665-0.659c-0.355,0-1.475,0.147-2.546,2.543c-1.476,3.414-1.53,6.472-1.58,9.631V128h3.618v0.963
		h-11.611V128h3.819v-19.002h-3.819V108.028L144.024,108.028z"/>
	<path fill-rule="evenodd" clip-rule="evenodd" fill="#174CA1" d="M180.417,118.115c0,0.051,0,4.533-0.05,5.349
		c-0.053,1.328-0.257,5.096-4.231,5.096c-2.033,0-3.769-1.223-4.839-2.956c-0.559-0.967-1.425-2.598-1.425-7.488
		c0-6.829,3.412-9.576,6.217-9.576c2.493,0,3.819,1.577,4.175,4.021C180.314,113.124,180.417,113.99,180.417,118.115
		L180.417,118.115L180.417,118.115z M169.923,93.003h-7.792v0.97h3.612V128h-3.612v0.963h7.792v-3.766
		c0.867,1.986,2.651,4.379,6.367,4.379c5.501,0,9.223-5.604,9.223-11.41c0-5.91-3.771-10.75-8.916-10.75
		c-4.485,0-6.111,3.569-6.674,4.739V93.003L169.923,93.003z"/>
	<path fill-rule="evenodd" clip-rule="evenodd" fill="#174CA1" d="M204.251,115.72h-9.325v-1.937
		c0.056-1.628,0.104-3.31,1.734-4.479c1.021-0.714,2.188-0.869,3.106-0.869c4.381,0,4.435,3.313,4.484,5.349V115.72L204.251,115.72
		L204.251,115.72z M207.869,122.038c-0.666,3.517-3.514,6.467-7.438,6.467c-1.686,0-3.312-0.558-4.331-1.882
		c-1.174-1.527-1.174-3.212-1.174-7.639v-2.244h14.317c-0.306-5.959-4.533-9.324-9.167-9.324c-5.657,0-10.089,5.403-10.089,11.261
		c0,6.062,4.841,10.899,10.443,10.899c5.244,0,7.995-4.126,8.555-7.538H207.869L207.869,122.038z"/>
	<path fill-rule="evenodd" clip-rule="evenodd" fill="#174CA1" d="M225.616,119.951c-0.104,2.494-0.152,4.532-1.985,6.108
		c-0.459,0.459-1.48,1.124-2.908,1.124c-1.681,0-3.41-1.07-3.41-3.617c0-1.528,0.562-3.363,3.159-4.533
		c1.883-0.867,3.715-0.918,5.145-0.918V119.951L225.616,119.951L225.616,119.951z M229.688,114.396c0-1.836,0.054-3.565-1.223-4.991
		c-1.216-1.377-3.563-2.143-5.908-2.143c-4.634,0-7.891,2.752-7.891,5.403c0,0.967,0.507,2.341,1.932,2.341
		c1.325,0,1.985-1.224,1.985-2.141c0-0.357-0.152-1.068-0.556-1.527c-0.258-0.305-0.514-0.712-0.514-0.915
		c0-0.767,2.04-2.192,4.333-2.192c3.717,0,3.717,2.701,3.717,3.871v5.146c-5.196,0-8.147,1.022-9.883,2.396
		c-2.139,1.629-2.494,3.516-2.494,4.84c0,2.648,1.783,4.942,5.55,4.942c2.958,0,5.298-1.379,6.728-4.434
		c0.152,1.375,0.507,4.434,4.07,4.434c1.48,0,2.603-0.512,3.618-1.579l-0.459-0.61c-0.404,0.406-0.759,0.811-1.522,0.811
		c-1.379,0-1.43-0.965-1.483-3.003V114.396L229.688,114.396z"/>
	<path fill-rule="evenodd" clip-rule="evenodd" fill="#174CA1" d="M234.905,108.998v-0.97h8.048v2.347
		c1.276-1.174,3.567-2.959,7.234-2.959c1.577,0,3.259,0.36,4.382,1.226c0.968,0.764,1.272,1.526,1.475,1.985
		c1.375-1.426,3.465-3.211,7.49-3.211c2.903,0,4.328,1.123,4.891,1.832c0.965,1.278,1.172,2.805,1.172,4.182V128h3.668v0.963h-11.36
		V128h3.514v-14.161c0-1.786,0-2.553-0.256-3.212c-0.508-1.274-1.681-1.832-3.21-1.832c-2.138,0-3.458,1.17-4.069,1.935
		c-1.377,1.73-1.43,3.564-1.479,6.623V128h3.312v0.963h-11.311V128h3.618v-13.755c0-1.736,0-3.008-0.509-3.87
		c-0.36-0.613-1.275-1.53-2.908-1.53c-1.73,0-3.258,0.862-4.125,1.986c-1.222,1.529-1.374,3.516-1.479,6.521V128h3.519v0.963
		h-11.615V128h3.923v-19.002H234.905L234.905,108.998z"/>
	<polygon fill-rule="evenodd" clip-rule="evenodd" fill="#174CA1" points="277.694,125.24 280.637,125.24 280.637,125.674 
		279.41,125.674 279.41,128.862 278.921,128.862 278.921,125.674 277.694,125.674 277.694,125.24 	"/>
	<path fill-rule="evenodd" clip-rule="evenodd" fill="#174CA1" d="M284.681,128.862v-2.137c0-0.108,0.008-0.567,0.008-0.906h-0.008
		l-1.021,3.043h-0.482l-1.021-3.038h-0.009c0,0.334,0.009,0.793,0.009,0.901v2.137h-0.473v-3.622h0.701l1.033,3.063h0.011
		l1.03-3.063h0.695v3.622H284.681L284.681,128.862z"/>
	<path fill-rule="evenodd" clip-rule="evenodd" fill="#174CA1" d="M109.593,76.723c0,0,0-34.06,0-36.696
		c1.717,1.063,6.702,4.149,7.292,4.515c0,0.854,0,28.345,0,28.345s29.48-17.354,31.69-18.655c0,1.906,0,6.978,0,7.672
		c-0.74,0.436-36.757,21.635-38.982,22.939C109.593,82.828,109.593,76.723,109.593,76.723L109.593,76.723z"/>
	<path fill-rule="evenodd" clip-rule="evenodd" fill="#174CA1" d="M100.929,33.244c0,0,0-5.766,0-7.75
		c2.176,1.27,35.495,20.721,37.595,21.945c-1.613,0.981-6.393,3.885-7.042,4.277c-0.773-0.484-23.471-14.529-23.471-14.529
		s0,45.531,0,47.601c-1.707-1.08-6.505-4.12-7.082-4.483C100.929,79.446,100.929,33.244,100.929,33.244L100.929,33.244z"/>
	<path fill-rule="evenodd" clip-rule="evenodd" fill="#174CA1" d="M189.139,40.026c0,2.637,0,42.802,0,44.815
		c-2.218-1.305-38.239-22.504-38.977-22.939c0-0.694,0-5.766,0-7.672c2.209,1.301,31.691,18.655,31.691,18.655s0-27.509,0-28.347
		C182.446,44.176,187.43,41.088,189.139,40.026L189.139,40.026z"/>
	<path fill-rule="evenodd" clip-rule="evenodd" fill="#174CA1" d="M197.804,25.494c0,1.986,0,53.952,0,54.811
		c-0.572,0.363-5.368,3.403-7.08,4.48c0-2.07,0-47.598,0-47.598s-21.249,13.152-23.467,14.529c-0.653-0.393-5.433-3.296-7.042-4.277
		C162.313,46.215,195.628,26.764,197.804,25.494L197.804,25.494z"/>
	<path fill-rule="evenodd" clip-rule="evenodd" fill="#174CA1" d="M108.21,19.295c0.87,0.506,41.154,24.094,41.154,24.094
		s40.293-23.588,41.158-24.094c0.648,0.468,5.188,3.725,6.623,4.75c-1.998,1.164-40.03,23.368-40.03,23.368
		s22.437,13.621,23.156,14.062c0,0.702,0,6.658,0,8.636c-2.21-1.298-30.907-18.183-30.907-18.183S120.673,68.812,118.47,70.11
		c0-1.978,0-7.934,0-8.636c0.717-0.44,23.145-14.062,23.145-14.062s-38.025-22.204-40.022-23.368
		C103.022,23.02,107.559,19.763,108.21,19.295L108.21,19.295z"/>
</g>
</svg>
