<?xml version="1.0" encoding="utf-8"?>
<!-- Generator: Adobe Illustrator 16.0.4, SVG Export Plug-In . SVG Version: 6.00 Build 0)  -->
<!DOCTYPE svg PUBLIC "-//W3C//DTD SVG 1.1//EN" "http://www.w3.org/Graphics/SVG/1.1/DTD/svg11.dtd">
<svg version="1.1" id="Layer_1" xmlns="http://www.w3.org/2000/svg" xmlns:xlink="http://www.w3.org/1999/xlink" x="0px" y="0px"
	 width="300px" height="200px" viewBox="0 0 300 200" enable-background="new 0 0 300 200" xml:space="preserve">
<g>
	<path fill="#174CA1" d="M50.302,145.402c-0.764,3.668-3.415,7.334-8.763,7.334c-5.859,0-10.241-4.938-10.241-10.848
		c0-6.42,4.844-11.312,10.804-11.312c4.584,0,7.437,2.907,7.437,5.503c0,1.682-1.019,2.801-2.294,2.801
		c-1.372,0-2.139-1.322-2.139-2.596c0-0.917,0.357-1.887,0.92-2.344c0.301-0.308,0.403-0.405,0.403-0.664
		c0-0.409-1.476-1.728-4.381-1.728c-0.966,0-3.668,0.046-4.939,2.798c-0.867,1.986-0.918,6.877-0.918,9.221
		c0,1.529,0.051,3.82,0.56,5.043c0.768,2.091,2.603,3.109,4.839,3.109c2.446,0,6.167-1.224,7.54-6.318H50.302L50.302,145.402z"/>
	<path fill="#174CA1" d="M68.873,138.881h-9.32v-1.938c0.05-1.627,0.099-3.31,1.731-4.479c1.02-0.714,2.189-0.869,3.107-0.869
		c4.381,0,4.433,3.313,4.481,5.35L68.873,138.881L68.873,138.881L68.873,138.881z M72.491,145.199
		c-0.66,3.517-3.515,6.467-7.438,6.467c-1.68,0-3.312-0.559-4.332-1.882c-1.169-1.527-1.169-3.212-1.169-7.64V139.9h14.313
		c-0.306-5.959-4.534-9.323-9.169-9.323c-5.653,0-10.086,5.403-10.086,11.261c0,6.062,4.838,10.898,10.442,10.898
		c5.248,0,8-4.125,8.561-7.537H72.491L72.491,145.199z"/>
	<path fill="#174CA1" d="M88.901,152.124H77.387v-0.963h3.618v-19.002h-3.618v-0.97h7.798v3.258c0.71-1.016,2.751-3.87,7.077-3.87
		c2.396,0,4.279,0.974,5.303,2.144c1.576,1.779,1.526,3.975,1.526,5.805v12.637h3.665v0.963H91.347v-0.963h3.565v-13.807
		c-0.052-1.783-0.052-2.445-0.206-3.11c-0.66-2.288-2.798-2.288-3.359-2.288c-1.071,0-2.346,0.406-3.411,1.17
		c-2.599,1.986-2.702,4.991-2.751,9.02v9.017h3.717L88.901,152.124L88.901,152.124z"/>
	<path fill="#174CA1" d="M118.252,132.159h-5.806v15.075c-0.052,1.43-0.052,3.772,2.752,3.772c2.599,0,3.106-2.192,3.207-2.907
		h0.967c-0.356,2.553-1.937,4.486-5.552,4.486c-3.057,0-4.584-1.426-5.142-3.107c-0.359-0.97-0.359-2.035-0.359-4.584v-12.735
		h-3.514v-0.664c2.853-1.224,5.859-4.837,7.081-8.763h0.56v8.457h5.806V132.159L118.252,132.159z"/>
	<path fill="#174CA1" d="M136.491,138.881h-9.323v-1.938c0.052-1.627,0.102-3.31,1.732-4.479c1.021-0.714,2.191-0.869,3.105-0.869
		c4.382,0,4.431,3.313,4.485,5.35L136.491,138.881L136.491,138.881L136.491,138.881z M140.105,145.199
		c-0.662,3.517-3.512,6.467-7.435,6.467c-1.683,0-3.312-0.559-4.329-1.882c-1.174-1.527-1.174-3.212-1.174-7.64V139.9h14.312
		c-0.303-5.959-4.53-9.323-9.17-9.323c-5.652,0-10.084,5.403-10.084,11.261c0,6.062,4.837,10.898,10.444,10.898
		c5.244,0,7.994-4.125,8.558-7.537H140.105L140.105,145.199z"/>
	<path fill="#174CA1" d="M145.102,131.189h7.994v5.4c0.815-2.191,2.139-5.859,5.811-5.859c2.037,0,3.058,1.375,3.058,2.957
		c0,1.525-0.919,2.646-2.144,2.646c-1.321,0-1.832-1.121-1.934-2.494v-0.461c-0.104-0.406-0.203-0.658-0.666-0.658
		c-0.354,0-1.475,0.146-2.546,2.543c-1.476,3.413-1.53,6.471-1.579,9.631v6.267h3.617v0.963h-11.611v-0.963h3.819v-19.002h-3.819
		V131.189L145.102,131.189z"/>
	<path fill="#174CA1" d="M181.494,141.275c0,0.052,0,4.533-0.051,5.35c-0.053,1.328-0.256,5.096-4.23,5.096
		c-2.033,0-3.77-1.223-4.839-2.955c-0.56-0.968-1.425-2.599-1.425-7.488c0-6.829,3.412-9.576,6.217-9.576
		c2.493,0,3.818,1.576,4.175,4.021C181.393,136.285,181.494,137.15,181.494,141.275L181.494,141.275L181.494,141.275z M171,116.164
		h-7.792v0.97h3.612v34.027h-3.612v0.963H171v-3.767c0.867,1.986,2.65,4.379,6.367,4.379c5.501,0,9.223-5.604,9.223-11.409
		c0-5.91-3.771-10.75-8.916-10.75c-4.484,0-6.111,3.569-6.674,4.739V116.164L171,116.164z"/>
	<path fill="#174CA1" d="M205.328,138.881h-9.325v-1.938c0.056-1.627,0.104-3.31,1.733-4.479c1.021-0.714,2.188-0.869,3.106-0.869
		c4.382,0,4.435,3.313,4.484,5.35L205.328,138.881L205.328,138.881L205.328,138.881z M208.945,145.199
		c-0.666,3.517-3.514,6.467-7.438,6.467c-1.686,0-3.312-0.559-4.331-1.882c-1.174-1.527-1.174-3.212-1.174-7.64V139.9h14.317
		c-0.307-5.959-4.533-9.323-9.168-9.323c-5.656,0-10.088,5.403-10.088,11.261c0,6.062,4.84,10.898,10.442,10.898
		c5.244,0,7.995-4.125,8.556-7.537H208.945L208.945,145.199z"/>
	<path fill="#174CA1" d="M226.693,143.111c-0.104,2.494-0.152,4.533-1.985,6.109c-0.459,0.459-1.479,1.123-2.908,1.123
		c-1.681,0-3.409-1.07-3.409-3.617c0-1.527,0.562-3.363,3.158-4.533c1.883-0.866,3.715-0.918,5.145-0.918V143.111L226.693,143.111
		L226.693,143.111z M230.766,137.559c0-1.836,0.053-3.565-1.224-4.992c-1.216-1.377-3.563-2.143-5.908-2.143
		c-4.634,0-7.891,2.752-7.891,5.403c0,0.967,0.507,2.341,1.932,2.341c1.325,0,1.985-1.225,1.985-2.141
		c0-0.357-0.152-1.068-0.557-1.527c-0.258-0.305-0.514-0.712-0.514-0.915c0-0.767,2.04-2.192,4.333-2.192
		c3.718,0,3.718,2.701,3.718,3.871v5.146c-5.197,0-8.147,1.021-9.884,2.396c-2.139,1.629-2.493,3.516-2.493,4.84
		c0,2.647,1.782,4.941,5.549,4.941c2.959,0,5.299-1.379,6.729-4.434c0.152,1.375,0.507,4.434,4.07,4.434
		c1.479,0,2.603-0.512,3.617-1.579l-0.459-0.61c-0.403,0.406-0.759,0.812-1.521,0.812c-1.379,0-1.43-0.965-1.482-3.003V137.559
		L230.766,137.559z"/>
	<path fill="#174CA1" d="M235.982,132.159v-0.97h8.047v2.347c1.277-1.175,3.568-2.959,7.234-2.959c1.577,0,3.26,0.36,4.383,1.226
		c0.967,0.764,1.271,1.526,1.475,1.985c1.375-1.427,3.465-3.211,7.49-3.211c2.902,0,4.328,1.123,4.891,1.832
		c0.965,1.278,1.172,2.805,1.172,4.182v14.57h3.668v0.963h-11.359v-0.963h3.514V137c0-1.786,0-2.553-0.256-3.212
		c-0.508-1.274-1.682-1.832-3.211-1.832c-2.137,0-3.457,1.17-4.068,1.935c-1.377,1.73-1.43,3.564-1.479,6.623v10.647h3.312v0.963
		h-11.312v-0.963h3.619v-13.755c0-1.736,0-3.008-0.51-3.87c-0.359-0.613-1.275-1.53-2.908-1.53c-1.729,0-3.258,0.862-4.125,1.986
		c-1.222,1.529-1.373,3.516-1.479,6.521v10.646h3.52v0.963h-11.615v-0.963h3.923v-19.002L235.982,132.159L235.982,132.159z"/>
	<polygon fill="#174CA1" points="278.771,148.4 281.714,148.4 281.714,148.835 280.486,148.835 280.486,152.023 279.998,152.023 
		279.998,148.835 278.771,148.835 	"/>
	<path fill="#174CA1" d="M285.758,152.023v-2.137c0-0.109,0.008-0.568,0.008-0.906h-0.008l-1.021,3.043h-0.481l-1.021-3.039h-0.01
		c0,0.334,0.01,0.793,0.01,0.902v2.137h-0.473V148.4h0.7l1.033,3.063h0.011l1.03-3.063h0.694v3.623H285.758L285.758,152.023z"/>
	<path fill="#174CA1" d="M110.67,99.884c0,0,0-34.06,0-36.696c1.717,1.063,6.702,4.149,7.292,4.515c0,0.854,0,28.345,0,28.345
		s29.48-17.354,31.69-18.655c0,1.906,0,6.978,0,7.672c-0.74,0.436-36.757,21.635-38.982,22.939
		C110.67,105.988,110.67,99.884,110.67,99.884L110.67,99.884z"/>
	<path fill="#174CA1" d="M102.006,56.405c0,0,0-5.766,0-7.75c2.176,1.27,35.495,20.721,37.595,21.945
		c-1.613,0.981-6.393,3.885-7.042,4.277c-0.773-0.484-23.471-14.529-23.471-14.529s0,45.531,0,47.601
		c-1.707-1.08-6.505-4.12-7.082-4.483C102.006,102.607,102.006,56.405,102.006,56.405L102.006,56.405z"/>
	<path fill="#174CA1" d="M190.216,63.188c0,2.637,0,42.802,0,44.815c-2.218-1.305-38.239-22.504-38.978-22.939
		c0-0.694,0-5.766,0-7.672c2.21,1.301,31.691,18.655,31.691,18.655s0-27.509,0-28.347C183.523,67.337,188.507,64.249,190.216,63.188
		L190.216,63.188z"/>
	<path fill="#174CA1" d="M198.881,48.655c0,1.986,0,53.953,0,54.811c-0.572,0.363-5.367,3.403-7.08,4.479c0-2.069,0-47.597,0-47.597
		S170.552,73.5,168.334,74.877c-0.652-0.393-5.434-3.296-7.042-4.277C163.391,69.376,196.705,49.925,198.881,48.655L198.881,48.655z
		"/>
	<path fill="#174CA1" d="M109.287,42.456c0.87,0.506,41.154,24.094,41.154,24.094s40.293-23.588,41.159-24.094
		c0.647,0.468,5.188,3.725,6.623,4.75c-1.998,1.164-40.031,23.368-40.031,23.368s22.438,13.621,23.156,14.062
		c0,0.702,0,6.658,0,8.636c-2.209-1.298-30.907-18.183-30.907-18.183s-28.691,16.885-30.895,18.183c0-1.978,0-7.934,0-8.636
		c0.717-0.44,23.145-14.062,23.145-14.062s-38.025-22.204-40.022-23.368C104.1,46.181,108.636,42.924,109.287,42.456L109.287,42.456
		z"/>
</g>
<radialGradient id="SVGID_1_" cx="398" cy="-235.3105" r="288.5108" gradientTransform="matrix(1 0 0 -0.7165 -246 -69.6008)" gradientUnits="userSpaceOnUse">
	<stop  offset="0.175" style="stop-color:#000000;stop-opacity:0"/>
	<stop  offset="0.7088" style="stop-color:#000000;stop-opacity:0.1"/>
	<stop  offset="1" style="stop-color:#000000;stop-opacity:0.2"/>
</radialGradient>
<rect opacity="0.25" fill="url(#SVGID_1_)" width="300" height="200"/>
</svg>
