<?xml version="1.0" encoding="utf-8"?>
<!-- Generator: Adobe Illustrator 16.0.4, SVG Export Plug-In . SVG Version: 6.00 Build 0)  -->
<!DOCTYPE svg PUBLIC "-//W3C//DTD SVG 1.1//EN" "http://www.w3.org/Graphics/SVG/1.1/DTD/svg11.dtd">
<svg version="1.1" id="Layer_1" xmlns="http://www.w3.org/2000/svg" xmlns:xlink="http://www.w3.org/1999/xlink" x="0px" y="0px"
	 width="300px" height="200px" viewBox="0 0 300 200" enable-background="new 0 0 300 200" xml:space="preserve">
<radialGradient id="SVGID_1_" cx="152" cy="99" r="288.5108" gradientTransform="matrix(1 0 0 0.7165 0 28.0661)" gradientUnits="userSpaceOnUse">
	<stop  offset="0.1" style="stop-color:#4982C3"/>
	<stop  offset="0.3298" style="stop-color:#447FBE"/>
	<stop  offset="0.6197" style="stop-color:#3575B2"/>
	<stop  offset="0.9406" style="stop-color:#1167A1"/>
	<stop  offset="1" style="stop-color:#00649E"/>
</radialGradient>
<rect fill="url(#SVGID_1_)" width="300" height="200"/>
<g>
	<path opacity="0.4" fill="#FFFFFF" d="M237.64,124.675c0.651,0,1.683,0.11,1.683-0.868c0-0.751-0.663-0.841-1.227-0.841H236.7
		v1.709H237.64z M239.877,127.323h-0.672l-1.394-2.205H236.7v2.205h-0.559v-4.762h2.08c1.3,0,1.708,0.455,1.708,1.257
		c0,0.942-0.627,1.283-1.521,1.3L239.877,127.323z M241.354,124.938c0-2.085-1.53-3.693-3.604-3.693c-2.087,0-3.63,1.608-3.63,3.693
		c0,2.104,1.543,3.753,3.63,3.753C239.823,128.69,241.354,127.042,241.354,124.938 M233.471,124.938
		c0-2.342,1.923-4.276,4.279-4.276c2.344,0,4.258,1.935,4.258,4.276c0,2.366-1.914,4.296-4.258,4.296
		C235.394,129.233,233.471,127.304,233.471,124.938"/>
	<rect x="66.744" y="64.731" fill="#FFFFFF" width="31.416" height="3.986"/>
	<rect x="66.744" y="73.333" fill="#FFFFFF" width="31.416" height="3.986"/>
	<rect x="66.744" y="116.339" fill="#FFFFFF" width="31.416" height="3.986"/>
	<rect x="75.718" y="107.739" fill="#FFFFFF" width="13.465" height="3.986"/>
	<rect x="75.718" y="99.138" fill="#FFFFFF" width="13.465" height="3.986"/>
	<rect x="75.718" y="90.536" fill="#FFFFFF" width="13.465" height="3.986"/>
	<rect x="75.718" y="81.935" fill="#FFFFFF" width="13.465" height="3.984"/>
	<rect x="66.744" y="124.939" fill="#FFFFFF" width="31.416" height="3.987"/>
	<rect x="166.135" y="107.739" fill="#FFFFFF" width="13.499" height="3.986"/>
	<polygon fill="#FFFFFF" points="186.684,111.726 199.581,111.726 200.963,107.739 185.303,107.739 	"/>
	<rect x="166.135" y="99.138" fill="#FFFFFF" width="13.499" height="3.986"/>
	<polygon fill="#FFFFFF" points="183.732,103.124 202.531,103.124 203.912,99.138 182.352,99.138 	"/>
	<polygon fill="#FFFFFF" points="191.271,90.534 166.133,90.534 166.133,94.522 179.634,94.522 179.634,91.226 180.774,94.522 
		192.627,94.522 	"/>
	<polygon fill="#FFFFFF" points="194.992,90.534 193.634,94.522 205.476,94.522 206.627,91.189 206.627,94.522 220.126,94.522 
		220.126,90.534 	"/>
	<polygon fill="#FFFFFF" points="188.364,81.935 166.133,81.935 166.133,85.919 189.725,85.919 	"/>
	<rect x="206.627" y="107.739" fill="#FFFFFF" width="13.499" height="3.986"/>
	<rect x="206.627" y="99.138" fill="#FFFFFF" width="13.499" height="3.986"/>
	<polygon fill="#FFFFFF" points="197.898,81.935 196.539,85.919 220.126,85.919 220.126,81.935 	"/>
	<rect x="206.627" y="124.939" fill="#FFFFFF" width="22.498" height="3.987"/>
	<rect x="157.136" y="124.939" fill="#FFFFFF" width="22.498" height="3.987"/>
	<polygon fill="#FFFFFF" points="192.585,128.927 193.679,128.927 195.058,124.939 191.203,124.939 	"/>
	<rect x="206.627" y="116.339" fill="#FFFFFF" width="22.498" height="3.986"/>
	<rect x="157.136" y="116.339" fill="#FFFFFF" width="22.498" height="3.986"/>
	<polygon fill="#FFFFFF" points="189.633,120.325 196.63,120.325 198.009,116.339 188.252,116.339 	"/>
	<polygon fill="#FFFFFF" points="203.706,64.729 202.346,68.718 229.125,68.718 229.125,64.729 	"/>
	<polygon fill="#FFFFFF" points="182.558,64.729 157.136,64.729 157.136,68.718 183.915,68.718 	"/>
	<polygon fill="#FFFFFF" points="200.801,73.333 199.441,77.319 229.125,77.319 229.125,73.333 	"/>
	<polygon fill="#FFFFFF" points="185.462,73.333 157.136,73.333 157.136,77.319 186.817,77.319 	"/>
	<rect x="111.889" y="81.935" fill="#FFFFFF" width="13.499" height="3.984"/>
	<rect x="111.889" y="107.739" fill="#FFFFFF" width="13.499" height="3.986"/>
	<path fill="#FFFFFF" d="M102.89,68.718h44.285c-3.999-3.274-9.939-3.988-16.135-3.988h-1.214H102.89V68.718z"/>
	<path fill="#FFFFFF" d="M102.89,73.333h48.063c0.48,0.775,1.319,2.587,1.598,3.986H102.89V73.333z"/>
	<path fill="#FFFFFF" d="M111.889,99.138h34.385c1.269,0.797,3.098,2.598,4.042,3.986h-38.427V99.138z"/>
	<path fill="#FFFFFF" d="M138.887,81.935h14.215c0.006,1.479-0.336,3.036-0.648,3.984h-13.566V81.935z"/>
	<path fill="#FFFFFF" d="M138.887,107.739h13.632c0.368,0.88,0.665,2.361,0.699,3.986h-14.331V107.739z"/>
	<path fill="#FFFFFF" d="M102.89,116.339h49.935c-0.177,1.02-1.186,3.412-1.619,3.986H102.89V116.339z"/>
	<path fill="#FFFFFF" d="M102.89,124.939h44.336c-3.906,3.086-9.253,3.987-15.447,3.987h-1.954H102.89V124.939z"/>
	<path fill="#FFFFFF" d="M111.889,94.522h34.411c1.521-1.095,2.841-2.445,3.961-3.988h-38.372V94.522z"/>
</g>
</svg>
