<?xml version="1.0" encoding="utf-8"?>
<!-- Generator: Adobe Illustrator 16.0.4, SVG Export Plug-In . SVG Version: 6.00 Build 0)  -->
<!DOCTYPE svg PUBLIC "-//W3C//DTD SVG 1.1//EN" "http://www.w3.org/Graphics/SVG/1.1/DTD/svg11.dtd">
<svg version="1.1" id="Layer_1" xmlns="http://www.w3.org/2000/svg" xmlns:xlink="http://www.w3.org/1999/xlink" x="0px" y="0px"
	 width="300px" height="100px" viewBox="0 0 300 100" enable-background="new 0 0 300 100" xml:space="preserve">
<radialGradient id="SVGID_1_" cx="157" cy="-51.2793" r="288.5108" gradientTransform="matrix(1 0 0 0.2923 0 64.9902)" gradientUnits="userSpaceOnUse">
	<stop  offset="0.175" style="stop-color:#000000;stop-opacity:0"/>
	<stop  offset="0.7088" style="stop-color:#000000;stop-opacity:0.1"/>
	<stop  offset="1" style="stop-color:#000000;stop-opacity:0.2"/>
</radialGradient>
<rect y="0.001" opacity="0.25" fill="url(#SVGID_1_)" width="300" height="100"/>
<path fill-rule="evenodd" clip-rule="evenodd" fill="#E4212F" d="M276.743,72.659v-7.006h-26.768V45.89h26.127v-6.377h-26.127v-5.73
	h26.127v-7.006h-42.689v45.883H276.743L276.743,72.659z M43.497,66.28V26.776H25v45.883h41.425V66.28H43.497L43.497,66.28z
	 M62.354,50.356c0,13.527,14.1,24.471,31.481,24.471c17.373,0,31.465-10.943,31.465-24.471c0-13.525-14.092-24.488-31.465-24.488
	C76.453,25.868,62.354,36.831,62.354,50.356L62.354,50.356z M110.214,50.356c0,10.047-7.332,18.201-16.379,18.201
	s-16.39-8.154-16.39-18.201c0-10.059,7.343-18.209,16.39-18.209S110.214,40.298,110.214,50.356L110.214,50.356z M138.45,33.132
	v39.527h17.211V33.132h17.844v-6.355h-52.277v6.355H138.45L138.45,33.132z M193.907,33.132v39.527h17.199V33.132h17.836v-6.355
	h-52.258v6.355H193.907L193.907,33.132z"/>
</svg>
