<?xml version="1.0" encoding="utf-8"?>
<!-- Generator: Adobe Illustrator 16.0.4, SVG Export Plug-In . SVG Version: 6.00 Build 0)  -->
<!DOCTYPE svg PUBLIC "-//W3C//DTD SVG 1.1//EN" "http://www.w3.org/Graphics/SVG/1.1/DTD/svg11.dtd">
<svg version="1.1" id="Layer_1" xmlns="http://www.w3.org/2000/svg" xmlns:xlink="http://www.w3.org/1999/xlink" x="0px" y="0px"
	 width="300px" height="200px" viewBox="0 0 300 200" enable-background="new 0 0 300 200" xml:space="preserve">
<path fill="#E4212F" d="M278.743,122.658v-7.006h-26.769V95.889h26.127v-6.377h-26.127v-5.73h26.127v-7.006h-42.688v45.883
	L278.743,122.658L278.743,122.658z M45.497,116.279V76.775H27v45.883h41.425v-6.379H45.497L45.497,116.279z M64.354,100.355
	c0,13.527,14.1,24.471,31.481,24.471c17.373,0,31.465-10.943,31.465-24.471c0-13.525-14.092-24.488-31.465-24.488
	C78.453,75.867,64.354,86.83,64.354,100.355L64.354,100.355z M112.214,100.355c0,10.047-7.332,18.202-16.379,18.202
	s-16.39-8.154-16.39-18.202c0-10.059,7.343-18.209,16.39-18.209S112.214,90.297,112.214,100.355L112.214,100.355z M140.45,83.131
	v39.527h17.211V83.131h17.844v-6.355h-52.277v6.355H140.45L140.45,83.131z M195.907,83.131v39.527h17.198V83.131h17.836v-6.355
	h-52.258v6.355H195.907L195.907,83.131z"/>
<radialGradient id="SVGID_1_" cx="398" cy="-235.3105" r="288.5108" gradientTransform="matrix(1 0 0 -0.7165 -246 -69.6008)" gradientUnits="userSpaceOnUse">
	<stop  offset="0.175" style="stop-color:#000000;stop-opacity:0"/>
	<stop  offset="0.7088" style="stop-color:#000000;stop-opacity:0.1"/>
	<stop  offset="1" style="stop-color:#000000;stop-opacity:0.2"/>
</radialGradient>
<rect opacity="0.25" fill="url(#SVGID_1_)" width="300" height="200"/>
</svg>
