<?xml version="1.0" encoding="utf-8"?>
<!-- Generator: Adobe Illustrator 16.0.4, SVG Export Plug-In . SVG Version: 6.00 Build 0)  -->
<!DOCTYPE svg PUBLIC "-//W3C//DTD SVG 1.1//EN" "http://www.w3.org/Graphics/SVG/1.1/DTD/svg11.dtd">
<svg version="1.1" id="Layer_1" xmlns="http://www.w3.org/2000/svg" xmlns:xlink="http://www.w3.org/1999/xlink" x="0px" y="0px"
	 width="300px" height="200px" viewBox="0 0 300 200" enable-background="new 0 0 300 200" xml:space="preserve">
<radialGradient id="SVGID_1_" cx="157" cy="1744.3291" r="288.511" gradientTransform="matrix(1 0 0 0.5846 0 -919.754)" gradientUnits="userSpaceOnUse">
	<stop  offset="0.175" style="stop-color:#000000;stop-opacity:0"/>
	<stop  offset="0.7088" style="stop-color:#000000;stop-opacity:0.1"/>
	<stop  offset="1" style="stop-color:#000000;stop-opacity:0.2"/>
</radialGradient>
<rect opacity="0.25" fill="url(#SVGID_1_)" width="300" height="200"/>
<g>
	<g>
		<polygon fill="#231F20" points="66.585,138.912 68.249,138.912 68.249,143.594 69.017,143.594 69.017,138.912 70.682,138.912 
			70.682,138.24 66.585,138.24 		"/>
		<polygon fill="#231F20" points="76.976,140.479 74.413,140.479 74.413,138.24 73.647,138.24 73.647,143.594 74.413,143.594 
			74.413,141.154 76.976,141.154 76.976,143.594 77.743,143.594 77.743,138.24 76.976,138.24 		"/>
		<polygon fill="#231F20" points="81.349,143.594 84.346,143.594 84.346,142.918 82.114,142.918 82.114,141.154 84.146,141.154 
			84.146,140.479 82.114,140.479 82.114,138.912 84.346,138.912 84.346,138.24 81.349,138.24 		"/>
		<rect x="92.027" y="138.238" fill="#231F20" width="0.767" height="5.353"/>
		<path fill="#231F20" d="M96.812,139.537c0-0.562,0.507-0.713,0.937-0.713c0.397,0,0.613,0.066,1.006,0.222l0.104-0.707
			c-0.367-0.131-0.789-0.19-1.143-0.19c-0.965,0-1.717,0.509-1.717,1.455c0,1.666,2.301,1.336,2.301,2.532
			c0,0.628-0.616,0.875-1.051,0.875c-0.391,0-0.852-0.155-1.111-0.262l-0.075,0.712c0.353,0.115,0.72,0.225,1.095,0.225
			c1.074,0,1.957-0.451,1.957-1.597C99.114,140.327,96.812,140.562,96.812,139.537z"/>
		<polygon fill="#231F20" points="103.077,138.24 102.311,138.24 102.311,143.594 105.316,143.594 105.316,142.918 103.077,142.918 
					"/>
		<polygon fill="#231F20" points="108.355,143.594 111.354,143.594 111.354,142.918 109.122,142.918 109.122,141.154 
			111.155,141.154 111.155,140.479 109.122,140.479 109.122,138.912 111.354,138.912 111.354,138.24 108.355,138.24 		"/>
		<path fill="#231F20" d="M121.335,138.148c-1.625,0-2.573,1.181-2.573,2.769c0,1.624,0.942,2.767,2.573,2.767
			c1.637,0,2.578-1.143,2.578-2.767C123.913,139.33,122.96,138.148,121.335,138.148z M121.335,143.009
			c-1.233,0-1.762-1.028-1.762-2.092c0-1.089,0.584-2.103,1.762-2.093c1.184-0.01,1.764,1.004,1.764,2.093
			C123.099,141.982,122.569,143.009,121.335,143.009z"/>
		<polygon fill="#231F20" points="127.116,143.594 127.885,143.594 127.885,141.154 129.868,141.154 129.868,140.479 
			127.885,140.479 127.885,138.912 129.962,138.912 129.962,138.24 127.116,138.24 		"/>
		<polygon fill="#231F20" points="142.331,142.826 142.316,142.826 141.159,138.24 140.066,138.24 138.928,142.826 138.911,142.826 
			137.632,138.24 136.788,138.24 138.407,143.594 139.434,143.594 140.604,138.912 140.622,138.912 141.788,143.594 
			142.775,143.594 144.424,138.24 143.612,138.24 		"/>
		<rect x="147.286" y="138.238" fill="#231F20" width="0.768" height="5.353"/>
		<path fill="#231F20" d="M153.862,141.292h1.127v1.624c-0.188,0.039-0.33,0.093-0.855,0.093c-1.115,0-2.018-0.836-2.018-2.095
			c0-1.193,0.817-2.092,2.053-2.092c0.69,0,1.1,0.123,1.475,0.367l0.061-0.773c-0.44-0.152-0.789-0.268-1.57-0.268
			c-1.633,0-2.829,1.097-2.829,2.744c0,1.701,1.126,2.791,2.819,2.791c0.836,0,1.342-0.139,1.634-0.24v-2.779h-1.896V141.292z"/>
		<polygon fill="#231F20" points="162.645,140.479 160.083,140.479 160.083,138.24 159.316,138.24 159.316,143.594 160.083,143.594 
			160.083,141.154 162.645,141.154 162.645,143.594 163.411,143.594 163.411,138.24 162.645,138.24 		"/>
		<polygon fill="#231F20" points="166.378,138.912 168.042,138.912 168.042,143.594 168.81,143.594 168.81,138.912 170.475,138.912 
			170.475,138.24 166.378,138.24 		"/>
		<path fill="#231F20" d="M178.187,139.537c0-0.562,0.508-0.713,0.936-0.713c0.397,0,0.615,0.066,1.004,0.222l0.107-0.707
			c-0.369-0.131-0.789-0.19-1.143-0.19c-0.965,0-1.719,0.509-1.719,1.455c0,1.666,2.303,1.336,2.303,2.532
			c0,0.628-0.611,0.875-1.051,0.875c-0.389,0-0.852-0.155-1.112-0.262l-0.075,0.712c0.354,0.115,0.723,0.225,1.098,0.225
			c1.073,0,1.953-0.451,1.953-1.597C180.487,140.327,178.187,140.562,178.187,139.537z"/>
		<path fill="#231F20" d="M185.052,138.24h-1.401l-0.002,5.354h0.767v-2.142h0.752c0.967,0,1.895-0.423,1.895-1.608
			C187.062,138.624,186.148,138.24,185.052,138.24z M185.173,140.777h-0.76v-1.865h0.653c0.474,0,1.179,0.248,1.179,0.923
			C186.245,140.542,185.648,140.777,185.173,140.777z"/>
		<polygon fill="#231F20" points="190.157,143.594 193.157,143.594 193.157,142.918 190.925,142.918 190.925,141.154 
			192.956,141.154 192.956,140.479 190.925,140.479 190.925,138.912 193.157,138.912 193.157,138.24 190.157,138.24 		"/>
		<path fill="#231F20" d="M199.099,143.01c-1.113,0-2.018-0.836-2.018-2.095c0-1.204,0.818-2.091,2.055-2.091
			c0.391,0,0.766,0.099,1.105,0.298l0.061-0.744c-0.385-0.17-0.79-0.229-1.202-0.229c-1.635,0-2.83,1.098-2.83,2.746
			c0,1.7,1.122,2.789,2.821,2.789c0.312,0,0.811-0.021,1.22-0.192l-0.047-0.743C199.993,142.908,199.481,143.01,199.099,143.01z"/>
		<rect x="203.391" y="138.238" fill="#231F20" width="0.767" height="5.353"/>
		<path fill="#231F20" d="M209.378,138.238l-2.284,5.353h0.805l0.548-1.348h2.617l0.547,1.348h0.838l-2.263-5.353H209.378z
			 M208.69,141.611l1.062-2.648l1.066,2.648H208.69z"/>
		<polygon fill="#231F20" points="216.144,138.24 215.374,138.24 215.374,143.594 218.382,143.594 218.382,142.918 216.144,142.918 
					"/>
		<rect x="221.382" y="138.238" fill="#231F20" width="0.765" height="5.353"/>
		<path fill="#231F20" d="M226.165,139.537c0-0.562,0.506-0.713,0.937-0.713c0.397,0,0.61,0.066,1.005,0.222l0.107-0.707
			c-0.37-0.131-0.793-0.19-1.146-0.19c-0.967,0-1.715,0.509-1.715,1.455c0,1.666,2.298,1.336,2.298,2.532
			c0,0.628-0.611,0.875-1.05,0.875c-0.392,0-0.851-0.155-1.112-0.262l-0.074,0.712c0.352,0.115,0.72,0.225,1.097,0.225
			c1.073,0,1.955-0.451,1.955-1.597C228.467,140.327,226.165,140.562,226.165,139.537z"/>
		<polygon fill="#231F20" points="231.073,138.24 231.073,138.912 232.737,138.912 232.737,143.594 233.501,143.594 
			233.501,138.912 235.167,138.912 235.167,138.24 		"/>
	</g>
	<g>
		<path fill="#231F20" d="M183.991,111.984l0.002,8.635l-11.543-11.707h-5.972c1.079,0.835,1.384,2.029,1.384,3.066
			c0,3.812,0.004,14.657,0.004,14.657c0,1.043-0.304,2.241-1.381,3.072h5.809c-1.075-0.831-1.379-2.029-1.379-3.072l0.01-12.815
			c4.337,4.264,16.111,16.201,16.109,16.199l-0.01-18.035c0-1.034,0.318-2.232,1.393-3.068h-5.809
			C183.684,109.752,183.991,110.95,183.991,111.984z"/>
		<polygon fill="#231F20" points="218.069,129.705 218.07,129.704 218.069,129.704 		"/>
		<path fill="#231F20" d="M224.007,127.066v-7.151h5.285v0.011c0.668,0.043,1.387,0.359,1.932,0.68v-3.996
			c-0.584,0.351-1.376,0.684-2.09,0.684h-5.127v-5.833c0,0,3.966,0.019,5.865,0.005c2.224-0.013,2.914,0.768,3.439,1.012v-0.688
			c0-1.284-0.005-2.876-0.005-2.876h-15.251c1.077,0.835,1.383,2.028,1.383,3.067h0.012v14.658c0,1.035-0.308,2.229-1.38,3.065
			h15.15c0.239-0.69,0.675-1.909,1.491-4.103c0,0-2.381,1.471-4.197,1.471C228.639,127.072,224.357,127.066,224.007,127.066z"/>
		<path fill="#231F20" d="M251.351,127.039c-1.875,0-6.158-0.007-6.506-0.007l0.013-15.044c0-1.035,0.304-2.235,1.376-3.069
			l-7.337-0.006c1.073,0.835,1.392,2.028,1.392,3.067v14.658c0,1.035-0.306,2.23-1.383,3.066v0.003h15.15
			c0.24-0.692,0.676-1.944,1.492-4.138C255.548,125.57,253.165,127.039,251.351,127.039z"/>
		<path fill="#231F20" d="M158.165,112.038v11.058c0,1.605-1.219,4.334-4.865,4.334c-3.645,0-5.055-2.902-5.055-4.568
			c0-1.713,0-8.204,0.002-10.834c0-1.045,0.309-2.276,1.383-3.106h-7.278c1.08,0.83,1.383,2.062,1.383,3.106
			c0,0,0.005,7.509,0.005,10.67c0,2.951,2.508,7.326,9.578,7.324c6.785,0,7.916-4.561,7.916-7.022
			c0-3.164,0.004-10.961,0.004-10.961c0-1.037,0.303-2.31,1.381-3.14h-5.836C157.856,109.729,158.165,111.001,158.165,112.038z"/>
		<path fill="#231F20" d="M73.524,127.037v-7.146c0.326,0,5.215-0.011,5.282-0.011v0.017c0.671,0.041,1.39,0.354,1.931,0.688v-4.006
			c-0.589,0.354-1.371,0.688-2.092,0.688h-5.121v-5.828c0,0,3.958,0.008,5.858,0c2.222-0.015,2.913,0.765,3.442,1.01v-0.692v-2.869
			l-15.252-0.007c1.072,0.836,1.375,2.036,1.375,3.074h0.014v14.652c0,1.037-0.303,2.237-1.381,3.072l15.15-0.006
			c0.242-0.693,0.68-1.908,1.492-4.104c0,0-2.381,1.469-4.196,1.469H73.524z"/>
		<polygon fill="#231F20" points="123.566,129.705 123.567,129.704 123.566,129.704 		"/>
		<path fill="#231F20" d="M124.952,109.07l-0.004-0.023v17.592c0,1.035-0.303,2.229-1.381,3.065h7.328
			c-1.072-0.836-1.376-2.031-1.376-3.065c0,0,0.003-6.816,0.003-8.356h5.98c0.673,0.046,1.453,0.358,1.998,0.686v-4.001
			c-0.588,0.35-1.377,0.691-2.092,0.691h-5.853v-7.094h6.349c2.223-0.013,2.914,0.762,3.44,1.01v-3.568
			c-4.771,0-15.774-0.008-15.774-0.008C124.648,106.836,124.952,108.033,124.952,109.07z"/>
		<path fill="#231F20" d="M95.686,108.891h-8.246c1.073,0.838,1.378,2.023,1.378,3.057h0.021
			c-0.004,3.621-0.008,14.672-0.008,14.672c0,1.04-0.317,2.22-1.391,3.058v0.001h1.389l-0.012-0.01c1.032,0.004,7.835,0,7.835,0
			c7.661,0,11.366-4.29,11.366-10.205C108.019,113.902,104.829,108.891,95.686,108.891z M95.696,127.059
			c-2.568,0-2.521-0.007-2.521-0.007v-15.553l2.033-0.005c5.438,0,7.77,3.193,7.77,7.619
			C102.978,124.335,100.452,127.059,95.696,127.059z"/>
		<path fill="#231F20" d="M55.464,118.85c1.654,0,6.425-1.685,6.425-6.496c0-3.569-2.992-6.313-6.878-6.313H44.452
			c1.08,0.834,1.379,2.032,1.379,3.069v5.371c0,2.073,0,11.934-0.006,12.125c0,1.037-0.301,2.236-1.373,3.071l7.367-0.003
			c-1.072-0.837-1.392-2.031-1.392-3.068c0-2.235,0.005-7.558,0.005-7.558c4.188,5.505,7.293,10.901,10.906,10.902
			c0.955,0,3.753-0.015,3.753-0.015C61.958,127.086,55.464,118.85,55.464,118.85z M50.424,116.76v-8.33l1.716-0.006
			c3.677-0.003,5.166,2.023,5.166,3.924c0,2.404-1.158,4.436-5.604,4.436C50.993,116.783,51.299,116.77,50.424,116.76z"/>
		<path fill="#231F20" d="M209.814,111.984l0.004,8.635l-11.546-11.707h-5.968c1.073,0.835,1.378,2.029,1.378,3.066
			c0,3.812,0.006,14.657,0.006,14.657c0,1.043-0.307,2.241-1.382,3.072h5.81c-1.074-0.831-1.377-2.029-1.377-3.072l0.006-12.815
			c4.338,4.264,16.111,16.201,16.109,16.199l-0.006-18.035c0-1.034,0.312-2.232,1.393-3.068h-5.81
			C209.505,109.752,209.814,110.95,209.814,111.984z"/>
	</g>
	<g>
		<g>
			<g>
				<defs>
					<polygon id="SVGID_2_" points="146.964,65.003 136.218,95.585 161.76,95.585 169.941,65.005 169.941,65.003 					"/>
				</defs>
				<clipPath id="SVGID_3_">
					<use xlink:href="#SVGID_2_"  overflow="visible"/>
				</clipPath>
				
					<linearGradient id="SVGID_4_" gradientUnits="userSpaceOnUse" x1="-651.5898" y1="219.9785" x2="-649.7554" y2="219.9785" gradientTransform="matrix(12.0587 3.985 3.985 -12.0587 7123.4375 5326.1016)">
					<stop  offset="0" style="stop-color:#9D252C"/>
					<stop  offset="0.03" style="stop-color:#A61E27"/>
					<stop  offset="0.12" style="stop-color:#F3B7C5"/>
					<stop  offset="0.25" style="stop-color:#E73448"/>
					<stop  offset="0.39" style="stop-color:#922326"/>
					<stop  offset="0.76" style="stop-color:#D12A2C"/>
					<stop  offset="0.85" style="stop-color:#F37B87"/>
					<stop  offset="0.93" style="stop-color:#D52E2C"/>
					<stop  offset="1" style="stop-color:#AA202F"/>
				</linearGradient>
				<polygon clip-path="url(#SVGID_3_)" fill="url(#SVGID_4_)" points="139.538,54.956 179.055,68.015 166.622,105.635 
					127.105,92.577 				"/>
			</g>
		</g>
		<g>
			<g>
				<defs>
					<polygon id="SVGID_5_" points="146.964,65.003 144.633,71.64 168.148,71.64 168.185,71.578 169.941,65.003 					"/>
				</defs>
				<clipPath id="SVGID_6_">
					<use xlink:href="#SVGID_5_"  overflow="visible"/>
				</clipPath>
				
					<linearGradient id="SVGID_7_" gradientUnits="userSpaceOnUse" x1="-651.5918" y1="220.4902" x2="-649.7574" y2="220.4902" gradientTransform="matrix(12.0873 3.9865 3.9865 -12.0873 7143.7422 5327.5391)">
					<stop  offset="0" style="stop-color:#0D0E0E"/>
					<stop  offset="0.03" style="stop-color:#414D45"/>
					<stop  offset="0.12" style="stop-color:#D7DAD3"/>
					<stop  offset="0.25" style="stop-color:#364038"/>
					<stop  offset="0.39" style="stop-color:#0E1010"/>
					<stop  offset="0.76" style="stop-color:#242417"/>
					<stop  offset="0.85" style="stop-color:#B4B6A4"/>
					<stop  offset="0.93" style="stop-color:#323D3A"/>
					<stop  offset="1" style="stop-color:#030303"/>
				</linearGradient>
				<polygon clip-path="url(#SVGID_6_)" fill="url(#SVGID_7_)" points="147.116,57.476 171.917,65.655 167.46,79.167 
					142.661,70.989 				"/>
			</g>
		</g>
		<path fill="#4F90CD" d="M134.979,74.11c-4.539,0.483-5.847-3.767-5.847-5.909c0-2.142,1.302-5.099,4.538-6.052
			c2.615-0.771,5.572-0.291,6.859,1.971c0.497,0.879,0.036-1.198,0.41-4.094c1.473-11.061,12.398-11.279,13.997-11.369
			c12.588-0.705,18.44,19.173,40.147,19.107c13.762-0.047,18.644-5.021,20.287-6.354c1.492-1.212-17.09,9.165-31.778-6.197
			c-13.743-14.37-23.222-19.595-34.229-15.602c-11.771,4.277-11.533,14.089-11.658,17.24c-0.022,0.556-0.239,0.528-0.239,0.528
			c-1.759-1.612-4.099-2.595-6.663-2.595c-5.489,0-9.939,4.503-9.939,10.057c0,5.557,4.451,10.057,9.939,10.057
			C132.224,74.901,133.761,74.653,134.979,74.11"/>
	</g>
</g>
</svg>
