<?xml version="1.0" encoding="utf-8"?>
<!-- Generator: Adobe Illustrator 16.0.4, SVG Export Plug-In . SVG Version: 6.00 Build 0)  -->
<!DOCTYPE svg PUBLIC "-//W3C//DTD SVG 1.1//EN" "http://www.w3.org/Graphics/SVG/1.1/DTD/svg11.dtd">
<svg version="1.1" id="Layer_1" xmlns="http://www.w3.org/2000/svg" xmlns:xlink="http://www.w3.org/1999/xlink" x="0px" y="0px"
	 width="300px" height="100px" viewBox="0 0 300 100" enable-background="new 0 0 300 100" xml:space="preserve">
<radialGradient id="SVGID_1_" cx="157" cy="-51.2793" r="288.5108" gradientTransform="matrix(1 0 0 0.2923 0 64.9902)" gradientUnits="userSpaceOnUse">
	<stop  offset="0.175" style="stop-color:#000000;stop-opacity:0"/>
	<stop  offset="0.7088" style="stop-color:#000000;stop-opacity:0.1"/>
	<stop  offset="1" style="stop-color:#000000;stop-opacity:0.2"/>
</radialGradient>
<rect y="0.001" opacity="0.25" fill="url(#SVGID_1_)" width="300" height="100"/>
<g>
	<path fill-rule="evenodd" clip-rule="evenodd" fill="#00AEEF" d="M35.371,14L15,34.368l20.371,20.371l20.368-20.371L35.371,14
		L35.371,14z M44.081,41.662c-0.244-1.938-2.225-2.734-3.151-3.294c-0.723-0.438-1.121-0.796-1.121-0.796
		c-0.488-0.404-0.721-1.224-0.317-1.711s1.288-0.458,1.776-0.054l0.611,0.505l1.235-1.469l-0.88-0.765c0,0-1.26-1.218-3.363-0.514
		c0.269-0.433,0.518-0.881,0.736-1.345c1.164-2.422,3.083-4.397,5.453-5.637l7.784,7.784l-8.722,8.724
		C44.168,42.711,44.16,42.293,44.081,41.662L44.081,41.662z M29.52,31.199l2.642,2.932c-0.54,0.379-1.107,0.719-1.705,1.008
		c-0.327,0.151-0.644,0.32-0.958,0.497v-4.437H29.52L29.52,31.199z M29.498,29.088v-2.927h1.594c0.904,0,1.593,0.69,1.593,1.378
		v0.171c0,0.689-0.688,1.378-1.593,1.378H29.498L29.498,29.088z M30.862,35.994c2.747-1.334,4.973-3.586,6.276-6.345
		c1.153-2.399,3.047-4.359,5.386-5.603l0.56,0.561c-2.399,1.341-4.343,3.396-5.543,5.891c-1.212,2.569-3.281,4.663-5.826,5.9
		c-2.594,1.207-4.721,3.21-6.086,5.706l-0.557-0.558C26.333,39.115,28.363,37.16,30.862,35.994L30.862,35.994z M32.122,37.253
		c2.746-1.334,4.972-3.587,6.274-6.346c1.151-2.399,3.047-4.359,5.387-5.601l0.576,0.576c-2.429,1.342-4.397,3.411-5.607,5.931
		c-1.213,2.569-3.281,4.663-5.827,5.897c-2.571,1.2-4.68,3.178-6.047,5.642l-0.548-0.546C27.593,40.373,29.62,38.418,32.122,37.253
		L32.122,37.253z M41.825,23.348c-2.398,1.341-4.343,3.396-5.542,5.893c-0.609,1.288-1.432,2.454-2.422,3.458l-1.505-1.674
		c1.776-0.458,2.708-1.763,2.708-3.068v-0.662c0-1.622-1.437-3.243-4.145-3.243l-2.678-0.03l7.129-7.127L41.825,23.348
		L41.825,23.348z M27.303,24.96v12.236c-1.178,1.029-2.174,2.263-2.934,3.649l-6.476-6.478L27.303,24.96L27.303,24.96z
		 M27.577,44.053c1.265-2.401,3.276-4.33,5.755-5.486c1.367-0.662,2.605-1.557,3.664-2.625c-0.124,0.49-0.146,1.083,0.285,1.985
		c0.809,1.691,3.213,2.732,3.213,2.732c1.376,0.715,1.355,1.978,0.716,2.524c-0.602,0.517-1.577,0.344-2.291-0.129l-1.104-0.859
		l-1.482,1.647l1.003,0.861c0,0,1.229,1.358,4.071,1.105l-6.035,6.036L27.577,44.053L27.577,44.053z"/>
	<path fill-rule="evenodd" clip-rule="evenodd" fill="#00AEEF" d="M24.848,59.592c1.015,0,1.722,0.171,2.127,0.514
		c0.403,0.342,0.605,0.822,0.605,1.443c0,0.599-0.211,1.08-0.635,1.437c-0.423,0.357-1.149,0.534-2.182,0.534h-3.198v-3.928H24.848
		L24.848,59.592z M21.565,67.998h2.604c0.855,0,1.495,0.098,1.918,0.295c0.422,0.197,0.739,0.484,0.949,0.865
		c0.211,0.38,0.32,0.917,0.332,1.613l0.042,1.506c0.027,1.333,0.136,2.275,0.323,2.83h6.787c-0.25-0.08-0.353-0.377-0.456-0.614
		c-0.047-0.103-0.173-0.593-0.192-1.062l-0.098-3.223c-0.038-1.438-0.293-2.459-0.761-3.063c-0.469-0.605-1.362-1.158-2.676-1.655
		c0.639-0.168,1.163-0.412,1.578-0.73c0.59-0.451,1.047-1.023,1.374-1.719c0.321-0.694,0.484-1.554,0.484-2.577
		c0-0.825-0.105-1.517-0.316-2.07c-0.211-0.553-0.531-1.076-0.957-1.571c-0.429-0.492-0.949-0.896-1.563-1.214
		c-0.615-0.32-1.397-0.555-2.345-0.705c-0.949-0.151-2.122-0.227-3.521-0.227h-9.981v20.431h6.475V67.998L21.565,67.998z"/>
	<path fill-rule="evenodd" clip-rule="evenodd" fill="#00AEEF" d="M41.931,69.361c-0.874-1.079-1.31-2.575-1.31-4.49
		c0-1.276,0.19-2.35,0.57-3.217c0.381-0.869,0.896-1.509,1.541-1.922c0.648-0.412,1.336-0.619,2.069-0.619
		c0.658,0,1.247,0.15,1.768,0.45c0.521,0.301,0.938,0.67,1.246,1.111c0.311,0.441,0.557,1.021,0.741,1.739
		c0.181,0.719,0.273,1.537,0.273,2.457c0,1.277-0.188,2.358-0.564,3.246c-0.375,0.885-0.878,1.521-1.506,1.908
		c-0.628,0.386-1.324,0.577-2.083,0.577C43.529,70.603,42.617,70.188,41.931,69.361L41.931,69.361z M50.653,74.122
		c1.61-1.015,2.809-2.333,3.598-3.964c0.79-1.629,1.183-3.465,1.183-5.513c0-2.092-0.449-3.943-1.345-5.554
		c-0.897-1.61-2.192-2.838-3.885-3.683c-1.696-0.845-3.554-1.266-5.569-1.266c-1.062,0-2.078,0.123-3.05,0.372
		c-0.971,0.249-1.87,0.6-2.696,1.057c-0.825,0.455-1.621,1.107-2.385,1.955c-0.765,0.852-1.374,1.895-1.825,3.133
		c-0.449,1.239-0.675,2.638-0.675,4.197c0,3.258,0.977,5.869,2.929,7.836c1.951,1.967,4.562,2.948,7.826,2.948
		C47.08,75.642,49.043,75.135,50.653,74.122L50.653,74.122z"/>
	<polygon fill-rule="evenodd" clip-rule="evenodd" fill="#00AEEF" points="62.76,75.107 56.056,75.107 56.056,54.677 62.76,54.677 
		62.76,61.591 69.039,61.591 69.039,54.677 75.755,54.677 75.755,75.107 69.039,75.107 69.039,67.193 62.76,67.193 62.76,75.107 	
		"/>
	<path fill-rule="evenodd" clip-rule="evenodd" fill="#00AEEF" d="M85.233,59.76c1.24,0,2.155,0.133,2.746,0.395
		c0.423,0.178,0.783,0.475,1.078,0.888s0.521,0.947,0.682,1.604c0.159,0.659,0.239,1.353,0.239,2.085
		c0,1.201-0.171,2.206-0.514,3.013c-0.343,0.81-0.831,1.39-1.465,1.745c-0.632,0.358-1.575,0.537-2.822,0.537l-1.689,0.014V59.76
		H85.233L85.233,59.76z M90.042,74.692c1.075-0.278,1.948-0.639,2.618-1.086c0.672-0.442,1.294-1.052,1.866-1.82
		c0.572-0.771,1.058-1.757,1.452-2.958c0.393-1.201,0.59-2.563,0.59-4.085c0-2.252-0.438-4.161-1.311-5.73
		c-0.873-1.566-2.065-2.683-3.582-3.344s-3.326-0.992-5.429-0.992h-9.306v20.431h9.138C87.646,75.107,88.967,74.968,90.042,74.692
		L90.042,74.692z"/>
	<polygon fill-rule="evenodd" clip-rule="evenodd" fill="#00AEEF" points="114.699,75.107 97.678,75.107 97.678,54.677 
		114.291,54.677 114.291,59.493 104.153,59.493 104.153,62.364 112.756,62.364 112.756,66.996 104.153,66.996 104.153,70.209 
		114.699,70.209 114.699,75.107 	"/>
	<path fill-rule="evenodd" clip-rule="evenodd" fill="#00AEEF" d="M124.521,59.479c0-0.441,0.175-0.815,0.526-1.126
		c0.352-0.31,0.831-0.467,1.433-0.467c0.607,0,1.091,0.161,1.449,0.48c0.355,0.32,0.533,0.723,0.533,1.21
		c0,0.461-0.131,0.851-0.394,1.17c-0.356,0.422-0.949,0.816-1.773,1.184C125.113,61.168,124.521,60.353,124.521,59.479
		L124.521,59.479z M135.066,70.235c0.582-0.572,1.211-1.345,1.885-2.317c0.678-0.97,1.218-1.879,1.62-2.724h-5.476
		c-0.357,0.686-0.813,1.264-1.365,1.732l-1.774-1.859c1.069-0.553,1.9-1.278,2.491-2.174c0.592-0.896,0.887-1.865,0.887-2.908
		c0-1.576-0.611-2.904-1.836-3.985c-1.226-1.079-2.988-1.618-5.288-1.618c-2.253,0-4.021,0.551-5.309,1.646
		c-1.043,0.884-1.562,2.071-1.562,3.563c0,1.407,0.591,2.685,1.774,3.829c-0.968,0.556-1.715,1.071-2.239,1.549
		c-0.688,0.628-1.207,1.341-1.562,2.134c-0.358,0.794-0.535,1.653-0.535,2.585c0,1.146,0.279,2.177,0.845,3.097
		c0.561,0.919,1.345,1.628,2.345,2.126c0.997,0.498,2.283,0.746,3.851,0.746c1.575,0,3.034-0.255,4.378-0.762
		c0.947-0.346,1.873-0.866,2.773-1.562l1.635,1.773h7.208L135.066,70.235L135.066,70.235z M126.005,70.939
		c-0.491,0.196-0.988,0.297-1.484,0.297c-0.631,0-1.118-0.166-1.465-0.501c-0.347-0.332-0.521-0.775-0.521-1.329
		c0-0.461,0.141-0.859,0.421-1.197c0.51-0.61,1.118-1.058,1.833-1.338l2.899,3.069C127.06,70.411,126.498,70.741,126.005,70.939
		L126.005,70.939z"/>
	<path fill-rule="evenodd" clip-rule="evenodd" fill="#00AEEF" d="M158.126,60.593h-6.366c-0.149-0.592-0.436-1.036-0.851-1.332
		c-0.42-0.296-1.018-0.444-1.797-0.444c-0.76,0-1.342,0.156-1.744,0.466c-0.302,0.235-0.451,0.538-0.451,0.915
		c0,0.318,0.112,0.577,0.337,0.774c0.32,0.282,1.076,0.566,2.269,0.858l2.604,0.634c2.412,0.581,4.104,1.406,5.075,2.479
		c0.972,1.069,1.457,2.309,1.457,3.716c0,1.128-0.25,2.152-0.753,3.077c-0.502,0.925-1.119,1.653-1.852,2.189
		c-0.73,0.534-1.68,0.96-2.845,1.274c-1.164,0.312-2.389,0.471-3.676,0.471c-1.406,0-2.729-0.183-3.97-0.55
		c-1.24-0.365-2.26-0.889-3.062-1.576c-0.804-0.685-1.409-1.477-1.821-2.377c-0.294-0.641-0.495-1.43-0.609-2.368h6.436
		c0.15,0.647,0.477,1.146,0.974,1.492c0.496,0.35,1.262,0.522,2.295,0.522c0.9,0,1.547-0.15,1.941-0.451
		c0.291-0.225,0.438-0.539,0.438-0.942c0-0.415-0.135-0.747-0.403-1.001c-0.267-0.252-1.003-0.524-2.202-0.815l-2.338-0.579
		c-1.222-0.29-2.365-0.692-3.437-1.211c-1.069-0.517-1.876-1.182-2.421-1.999c-0.546-0.815-0.817-1.807-0.817-2.972
		c0-1.144,0.245-2.162,0.733-3.055c0.487-0.892,1.143-1.609,1.963-2.153c0.822-0.546,1.737-0.93,2.746-1.157
		c1.011-0.223,2.049-0.334,3.119-0.334c1.276,0,2.444,0.127,3.506,0.386c1.06,0.258,1.906,0.595,2.534,1.014
		c0.627,0.417,1.141,0.897,1.535,1.437c0.394,0.539,0.702,1.089,0.921,1.647C157.817,59.184,157.994,59.839,158.126,60.593
		L158.126,60.593z"/>
	<path fill-rule="evenodd" clip-rule="evenodd" fill="#00AEEF" d="M179.66,62.491h-6.336c-0.114-1.023-0.478-1.818-1.092-2.386
		c-0.616-0.569-1.397-0.852-2.345-0.852c-1.184,0-2.147,0.46-2.893,1.379c-0.746,0.92-1.12,2.412-1.12,4.478
		c0,1.417,0.159,2.497,0.478,3.239c0.321,0.741,0.764,1.292,1.332,1.653c0.567,0.362,1.273,0.543,2.119,0.543
		c1.031,0,1.854-0.285,2.463-0.852c0.61-0.569,0.972-1.412,1.084-2.528h6.449c-0.14,1.267-0.396,2.333-0.759,3.196
		c-0.368,0.861-0.981,1.727-1.839,2.592c-0.858,0.862-1.882,1.531-3.069,2.006c-1.188,0.474-2.56,0.71-4.118,0.71
		s-2.997-0.231-4.316-0.696c-1.319-0.464-2.426-1.119-3.321-1.964c-0.897-0.845-1.6-1.816-2.107-2.915
		c-0.714-1.531-1.068-3.229-1.068-5.096c0-1.587,0.257-3.064,0.773-4.438c0.517-1.369,1.227-2.519,2.127-3.447
		c0.9-0.932,1.899-1.629,2.999-2.1c1.399-0.59,2.947-0.886,4.646-0.886c1.474,0,2.857,0.221,4.152,0.662
		c1.296,0.44,2.362,1.085,3.197,1.935c0.836,0.85,1.474,1.828,1.915,2.936C179.33,60.45,179.546,61.393,179.66,62.491L179.66,62.491
		z"/>
	<polygon fill-rule="evenodd" clip-rule="evenodd" fill="#00AEEF" points="187.395,75.107 180.692,75.107 180.692,54.677 
		187.395,54.677 187.395,61.591 193.674,61.591 193.674,54.677 200.39,54.677 200.39,75.107 193.674,75.107 193.674,67.193 
		187.395,67.193 187.395,75.107 	"/>
	<polygon fill-rule="evenodd" clip-rule="evenodd" fill="#00AEEF" points="205.976,75.107 201.033,54.677 207.368,54.677 
		209.609,67.335 212.142,54.677 217.689,54.677 220.196,67.335 222.49,54.677 228.939,54.677 223.899,75.107 217.254,75.107 
		214.986,63.265 212.551,75.107 205.976,75.107 	"/>
	<path fill-rule="evenodd" clip-rule="evenodd" fill="#00AEEF" d="M234.209,68.236l2.098-7.42l2.169,7.42H234.209L234.209,68.236z
		 M232.972,72.433h6.673l0.776,2.675h6.673l-7.308-20.431h-6.814l-7.308,20.431h6.548L232.972,72.433L232.972,72.433z"/>
	<polygon fill-rule="evenodd" clip-rule="evenodd" fill="#00AEEF" points="286,75.107 267.611,75.107 267.611,70.263 276.82,60.027 
		268.006,60.027 268.006,54.677 285.605,54.677 285.605,59.422 276.257,69.73 286,69.73 286,75.107 	"/>
	<path fill-rule="evenodd" clip-rule="evenodd" fill="#00AEEF" d="M257.405,59.592c1.016,0,1.725,0.171,2.126,0.514
		c0.404,0.342,0.607,0.822,0.607,1.443c0,0.599-0.212,1.08-0.636,1.437c-0.421,0.357-1.148,0.534-2.182,0.534h-3.195v-3.928H257.405
		L257.405,59.592z M254.126,67.998h2.604c0.854,0,1.494,0.098,1.915,0.295c0.424,0.197,0.739,0.484,0.951,0.865
		c0.212,0.38,0.321,0.917,0.331,1.613l0.042,1.506c0.029,1.333,0.136,2.275,0.323,2.83h6.788c-0.249-0.08-0.352-0.377-0.455-0.614
		c-0.047-0.103-0.176-0.593-0.193-1.062l-0.098-3.223c-0.039-1.438-0.292-2.459-0.763-3.063c-0.468-0.605-1.359-1.158-2.673-1.655
		c0.637-0.168,1.162-0.412,1.576-0.73c0.591-0.451,1.049-1.023,1.372-1.719c0.324-0.694,0.487-1.554,0.487-2.577
		c0-0.825-0.107-1.517-0.318-2.07c-0.211-0.553-0.529-1.076-0.956-1.571c-0.428-0.492-0.948-0.896-1.563-1.214
		c-0.615-0.32-1.396-0.555-2.346-0.705c-0.947-0.151-2.121-0.227-3.519-0.227h-9.982v20.431h6.477V67.998L254.126,67.998z"/>
</g>
</svg>
