<?xml version="1.0" encoding="utf-8"?>
<!-- Generator: Adobe Illustrator 16.0.4, SVG Export Plug-In . SVG Version: 6.00 Build 0)  -->
<!DOCTYPE svg PUBLIC "-//W3C//DTD SVG 1.1//EN" "http://www.w3.org/Graphics/SVG/1.1/DTD/svg11.dtd">
<svg version="1.1" id="Layer_1" xmlns="http://www.w3.org/2000/svg" xmlns:xlink="http://www.w3.org/1999/xlink" x="0px" y="0px"
	 width="300px" height="200px" viewBox="0 0 300 200" enable-background="new 0 0 300 200" xml:space="preserve">
<radialGradient id="SVGID_1_" cx="403" cy="-620.9634" r="288.5055" gradientTransform="matrix(1 0 0 -0.5846 -246 -263.0151)" gradientUnits="userSpaceOnUse">
	<stop  offset="0.175" style="stop-color:#010101;stop-opacity:0"/>
	<stop  offset="0.7088" style="stop-color:#010101;stop-opacity:0.1"/>
	<stop  offset="1" style="stop-color:#010101;stop-opacity:0.2"/>
</radialGradient>
<rect opacity="0.25" fill="url(#SVGID_1_)" enable-background="new    " width="300" height="200"/>
<g>
	<path fill="#2BACE2" d="M34.871,69.165L14.5,89.533l20.371,20.371l20.368-20.371L34.871,69.165L34.871,69.165z M43.581,96.827
		c-0.244-1.938-2.225-2.734-3.151-3.294c-0.723-0.438-1.121-0.796-1.121-0.796c-0.488-0.404-0.721-1.224-0.317-1.711
		c0.404-0.487,1.288-0.458,1.776-0.054l0.611,0.505l1.235-1.469l-0.88-0.765c0,0-1.26-1.218-3.363-0.514
		c0.269-0.433,0.518-0.881,0.736-1.345c1.164-2.422,3.083-4.397,5.453-5.637l7.784,7.784l-8.722,8.724
		C43.668,97.876,43.66,97.458,43.581,96.827L43.581,96.827z M29.02,86.364l2.642,2.932c-0.54,0.379-1.107,0.719-1.705,1.008
		c-0.327,0.151-0.644,0.32-0.958,0.497v-4.437H29.02L29.02,86.364z M28.998,84.253v-2.927h1.594c0.904,0,1.593,0.69,1.593,1.378
		v0.171c0,0.689-0.688,1.378-1.593,1.378H28.998L28.998,84.253z M30.362,91.159c2.747-1.334,4.973-3.586,6.276-6.345
		c1.153-2.399,3.047-4.359,5.386-5.603l0.56,0.561c-2.399,1.341-4.343,3.396-5.543,5.891c-1.212,2.569-3.281,4.663-5.826,5.9
		c-2.594,1.207-4.721,3.21-6.086,5.706l-0.557-0.558C25.833,94.28,27.863,92.325,30.362,91.159L30.362,91.159z M31.622,92.418
		c2.746-1.334,4.972-3.587,6.274-6.346c1.151-2.399,3.047-4.359,5.387-5.601l0.576,0.576c-2.429,1.342-4.397,3.411-5.607,5.931
		c-1.213,2.569-3.281,4.663-5.827,5.897c-2.571,1.2-4.68,3.178-6.047,5.642l-0.548-0.546C27.093,95.538,29.12,93.583,31.622,92.418
		L31.622,92.418z M41.325,78.513c-2.398,1.341-4.343,3.396-5.542,5.893c-0.609,1.288-1.432,2.454-2.422,3.458l-1.505-1.674
		c1.776-0.458,2.708-1.763,2.708-3.068V82.46c0-1.622-1.437-3.243-4.145-3.243l-2.678-0.03l7.129-7.127L41.325,78.513L41.325,78.513
		z M26.803,80.125v12.236c-1.178,1.029-2.174,2.263-2.934,3.649l-6.476-6.478L26.803,80.125L26.803,80.125z M27.077,99.218
		c1.265-2.401,3.276-4.33,5.755-5.486c1.367-0.662,2.605-1.557,3.664-2.625c-0.124,0.49-0.146,1.083,0.285,1.985
		c0.809,1.691,3.213,2.732,3.213,2.732c1.376,0.715,1.355,1.978,0.716,2.524c-0.602,0.517-1.577,0.344-2.291-0.129l-1.104-0.859
		l-1.482,1.647l1.003,0.861c0,0,1.229,1.358,4.071,1.105l-6.035,6.036L27.077,99.218L27.077,99.218z"/>
	<path fill="#2BACE2" d="M24.348,114.757c1.015,0,1.722,0.172,2.127,0.514c0.403,0.343,0.605,0.822,0.605,1.443
		c0,0.6-0.211,1.08-0.635,1.438c-0.423,0.356-1.149,0.533-2.182,0.533h-3.198v-3.928H24.348L24.348,114.757z M21.065,123.163h2.604
		c0.855,0,1.495,0.098,1.918,0.295c0.422,0.197,0.739,0.484,0.949,0.865c0.211,0.38,0.32,0.917,0.332,1.613l0.042,1.506
		c0.027,1.332,0.136,2.274,0.323,2.83h6.787c-0.25-0.08-0.353-0.377-0.456-0.614c-0.047-0.103-0.173-0.593-0.192-1.062l-0.098-3.224
		c-0.038-1.438-0.293-2.459-0.761-3.063c-0.469-0.604-1.362-1.158-2.676-1.654c0.639-0.168,1.163-0.412,1.578-0.73
		c0.59-0.451,1.047-1.023,1.374-1.719c0.321-0.693,0.484-1.555,0.484-2.577c0-0.825-0.105-1.517-0.316-2.069
		c-0.211-0.554-0.531-1.076-0.957-1.571c-0.429-0.492-0.949-0.896-1.563-1.214c-0.615-0.32-1.397-0.555-2.345-0.705
		c-0.949-0.151-2.122-0.228-3.521-0.228H14.59v20.431h6.475V123.163L21.065,123.163z"/>
	<path fill="#2BACE2" d="M41.431,124.526c-0.874-1.079-1.31-2.575-1.31-4.49c0-1.275,0.19-2.35,0.57-3.217
		c0.381-0.869,0.896-1.51,1.541-1.922c0.648-0.412,1.336-0.619,2.069-0.619c0.658,0,1.247,0.15,1.768,0.449
		c0.521,0.302,0.938,0.67,1.246,1.111c0.311,0.441,0.557,1.021,0.741,1.739c0.181,0.719,0.273,1.537,0.273,2.457
		c0,1.276-0.188,2.358-0.564,3.246c-0.375,0.885-0.878,1.521-1.506,1.907c-0.628,0.387-1.324,0.578-2.083,0.578
		C43.029,125.769,42.117,125.353,41.431,124.526L41.431,124.526z M50.153,129.287c1.61-1.015,2.809-2.333,3.598-3.964
		c0.79-1.629,1.183-3.465,1.183-5.514c0-2.092-0.449-3.942-1.345-5.554c-0.897-1.61-2.192-2.838-3.885-3.683
		c-1.696-0.846-3.554-1.266-5.569-1.266c-1.062,0-2.078,0.123-3.05,0.371c-0.971,0.25-1.87,0.601-2.696,1.057
		c-0.825,0.455-1.621,1.107-2.385,1.955c-0.765,0.853-1.374,1.896-1.825,3.134c-0.449,1.239-0.675,2.638-0.675,4.196
		c0,3.259,0.977,5.869,2.929,7.836c1.951,1.968,4.562,2.949,7.826,2.949C46.58,130.808,48.543,130.3,50.153,129.287L50.153,129.287z
		"/>
	<polygon fill="#2BACE2" points="62.26,130.272 55.556,130.272 55.556,109.842 62.26,109.842 62.26,116.756 68.539,116.756 
		68.539,109.842 75.255,109.842 75.255,130.272 68.539,130.272 68.539,122.358 62.26,122.358 	"/>
	<path fill="#2BACE2" d="M84.733,114.925c1.24,0,2.155,0.133,2.746,0.395c0.423,0.179,0.783,0.476,1.078,0.889
		s0.521,0.947,0.682,1.604c0.159,0.66,0.239,1.354,0.239,2.086c0,1.201-0.171,2.205-0.514,3.013c-0.343,0.81-0.831,1.39-1.465,1.745
		c-0.632,0.357-1.575,0.537-2.822,0.537l-1.689,0.014v-10.281H84.733L84.733,114.925z M89.542,129.856
		c1.075-0.277,1.948-0.639,2.618-1.086c0.672-0.441,1.294-1.051,1.866-1.819c0.572-0.771,1.058-1.757,1.452-2.958
		c0.393-1.201,0.59-2.562,0.59-4.085c0-2.252-0.438-4.161-1.311-5.729c-0.873-1.566-2.065-2.684-3.582-3.345
		c-1.517-0.661-3.326-0.992-5.429-0.992H76.44v20.431h9.138C87.146,130.272,88.467,130.133,89.542,129.856L89.542,129.856z"/>
	<polygon fill="#2BACE2" points="114.199,130.272 97.178,130.272 97.178,109.842 113.791,109.842 113.791,114.658 103.653,114.658 
		103.653,117.529 112.256,117.529 112.256,122.161 103.653,122.161 103.653,125.374 114.199,125.374 	"/>
	<path fill="#2BACE2" d="M124.021,114.644c0-0.44,0.175-0.814,0.526-1.125c0.352-0.311,0.831-0.468,1.433-0.468
		c0.607,0,1.091,0.161,1.449,0.48c0.355,0.319,0.533,0.723,0.533,1.21c0,0.461-0.131,0.851-0.394,1.17
		c-0.356,0.422-0.949,0.816-1.773,1.184C124.613,116.333,124.021,115.519,124.021,114.644L124.021,114.644z M134.566,125.399
		c0.582-0.571,1.211-1.344,1.885-2.316c0.678-0.97,1.218-1.879,1.62-2.725h-5.476c-0.357,0.687-0.813,1.265-1.365,1.732
		l-1.774-1.859c1.069-0.553,1.9-1.277,2.491-2.174c0.592-0.896,0.887-1.865,0.887-2.908c0-1.575-0.611-2.903-1.836-3.984
		c-1.226-1.079-2.988-1.618-5.288-1.618c-2.253,0-4.021,0.552-5.309,1.646c-1.043,0.885-1.562,2.072-1.562,3.563
		c0,1.407,0.591,2.685,1.774,3.829c-0.968,0.557-1.715,1.071-2.239,1.549c-0.688,0.629-1.207,1.342-1.562,2.135
		c-0.358,0.793-0.535,1.652-0.535,2.584c0,1.146,0.279,2.178,0.845,3.098c0.561,0.919,1.345,1.628,2.345,2.126
		c0.997,0.498,2.283,0.746,3.851,0.746c1.575,0,3.034-0.255,4.378-0.763c0.947-0.346,1.873-0.865,2.773-1.562l1.635,1.772h7.208
		L134.566,125.399L134.566,125.399z M125.505,126.104c-0.491,0.195-0.988,0.297-1.484,0.297c-0.631,0-1.118-0.166-1.465-0.502
		c-0.347-0.332-0.521-0.774-0.521-1.328c0-0.461,0.141-0.859,0.421-1.197c0.51-0.609,1.118-1.059,1.833-1.338l2.899,3.068
		C126.56,125.576,125.998,125.906,125.505,126.104L125.505,126.104z"/>
	<path fill="#2BACE2" d="M157.626,115.758h-6.366c-0.148-0.592-0.436-1.036-0.851-1.332c-0.42-0.296-1.018-0.444-1.797-0.444
		c-0.76,0-1.342,0.156-1.744,0.467c-0.302,0.234-0.451,0.537-0.451,0.915c0,0.317,0.112,0.577,0.337,0.774
		c0.32,0.281,1.076,0.565,2.269,0.857l2.604,0.634c2.412,0.581,4.104,1.406,5.075,2.479c0.972,1.068,1.457,2.309,1.457,3.716
		c0,1.128-0.25,2.151-0.753,3.077c-0.502,0.925-1.119,1.652-1.852,2.188c-0.73,0.534-1.681,0.96-2.846,1.274
		c-1.164,0.312-2.389,0.471-3.676,0.471c-1.406,0-2.729-0.184-3.97-0.55c-1.24-0.365-2.26-0.89-3.062-1.576
		c-0.804-0.685-1.409-1.478-1.821-2.377c-0.294-0.642-0.495-1.431-0.609-2.368h6.436c0.15,0.646,0.477,1.146,0.974,1.492
		c0.496,0.35,1.262,0.521,2.295,0.521c0.9,0,1.547-0.149,1.941-0.451c0.291-0.225,0.438-0.538,0.438-0.941
		c0-0.415-0.135-0.747-0.402-1.001c-0.268-0.252-1.003-0.524-2.202-0.815l-2.338-0.578c-1.222-0.291-2.365-0.692-3.437-1.211
		c-1.069-0.518-1.876-1.183-2.421-2c-0.546-0.814-0.817-1.807-0.817-2.972c0-1.144,0.245-2.161,0.733-3.055
		c0.487-0.892,1.143-1.608,1.963-2.153c0.822-0.546,1.737-0.93,2.746-1.156c1.011-0.224,2.049-0.334,3.119-0.334
		c1.276,0,2.444,0.127,3.505,0.385c1.061,0.259,1.906,0.596,2.535,1.015c0.627,0.417,1.141,0.897,1.534,1.437
		s0.702,1.09,0.921,1.647C157.316,114.349,157.494,115.004,157.626,115.758L157.626,115.758z"/>
	<path fill="#2BACE2" d="M179.16,117.656h-6.336c-0.114-1.023-0.479-1.818-1.092-2.386c-0.616-0.569-1.397-0.853-2.346-0.853
		c-1.184,0-2.146,0.46-2.893,1.379c-0.746,0.92-1.12,2.412-1.12,4.478c0,1.418,0.159,2.498,0.478,3.24
		c0.321,0.74,0.765,1.291,1.332,1.652c0.567,0.362,1.273,0.543,2.119,0.543c1.031,0,1.854-0.285,2.463-0.852
		c0.61-0.569,0.973-1.412,1.084-2.528h6.449c-0.14,1.267-0.396,2.333-0.759,3.196c-0.368,0.861-0.981,1.727-1.839,2.592
		c-0.858,0.861-1.883,1.531-3.069,2.006c-1.188,0.475-2.56,0.71-4.118,0.71c-1.558,0-2.996-0.231-4.315-0.696
		c-1.319-0.464-2.427-1.119-3.321-1.964c-0.896-0.845-1.6-1.815-2.107-2.915c-0.713-1.531-1.067-3.229-1.067-5.096
		c0-1.587,0.257-3.064,0.772-4.438c0.518-1.369,1.228-2.52,2.127-3.447c0.9-0.932,1.899-1.629,3-2.1
		c1.398-0.591,2.946-0.887,4.646-0.887c1.474,0,2.856,0.221,4.151,0.662c1.297,0.439,2.363,1.085,3.197,1.936
		c0.836,0.85,1.475,1.827,1.916,2.936C178.83,115.615,179.046,116.558,179.16,117.656L179.16,117.656z"/>
	<polygon fill="#2BACE2" points="186.895,130.272 180.191,130.272 180.191,109.842 186.895,109.842 186.895,116.756 
		193.174,116.756 193.174,109.842 199.891,109.842 199.891,130.272 193.174,130.272 193.174,122.358 186.895,122.358 	"/>
	<polygon fill="#2BACE2" points="205.477,130.272 200.533,109.842 206.868,109.842 209.109,122.5 211.643,109.842 217.189,109.842 
		219.695,122.5 221.99,109.842 228.439,109.842 223.398,130.272 216.754,130.272 214.486,118.431 212.051,130.272 	"/>
	<path fill="#2BACE2" d="M233.709,123.401l2.098-7.42l2.17,7.42H233.709L233.709,123.401z M232.473,127.599h6.672l0.776,2.674h6.673
		l-7.308-20.431h-6.813l-7.309,20.431h6.548L232.473,127.599L232.473,127.599z"/>
	<polygon fill="#2BACE2" points="285.5,130.272 267.111,130.272 267.111,125.429 276.32,115.192 267.506,115.192 267.506,109.842 
		285.105,109.842 285.105,114.587 275.757,124.896 285.5,124.896 	"/>
	<path fill="#2BACE2" d="M256.904,114.757c1.017,0,1.726,0.172,2.127,0.514c0.404,0.343,0.607,0.822,0.607,1.443
		c0,0.6-0.213,1.08-0.637,1.438c-0.421,0.356-1.148,0.533-2.182,0.533h-3.195v-3.928H256.904L256.904,114.757z M253.626,123.163
		h2.604c0.854,0,1.494,0.098,1.914,0.295c0.424,0.197,0.739,0.484,0.951,0.865c0.213,0.38,0.321,0.917,0.331,1.613l0.042,1.506
		c0.029,1.332,0.137,2.274,0.323,2.83h6.788c-0.249-0.08-0.352-0.377-0.455-0.614c-0.047-0.103-0.176-0.593-0.193-1.062
		l-0.098-3.224c-0.039-1.438-0.292-2.459-0.764-3.063c-0.467-0.604-1.358-1.158-2.672-1.654c0.637-0.168,1.162-0.412,1.576-0.73
		c0.59-0.451,1.049-1.023,1.371-1.719c0.324-0.693,0.487-1.555,0.487-2.577c0-0.825-0.106-1.517-0.317-2.069
		c-0.211-0.554-0.529-1.076-0.957-1.571c-0.428-0.492-0.947-0.896-1.562-1.214c-0.615-0.32-1.396-0.555-2.346-0.705
		c-0.947-0.151-2.121-0.228-3.52-0.228h-9.982v20.431h6.478V123.163L253.626,123.163z"/>
</g>
</svg>
