<?xml version="1.0" encoding="utf-8"?>
<!-- Generator: Adobe Illustrator 16.0.4, SVG Export Plug-In . SVG Version: 6.00 Build 0)  -->
<!DOCTYPE svg PUBLIC "-//W3C//DTD SVG 1.1//EN" "http://www.w3.org/Graphics/SVG/1.1/DTD/svg11.dtd">
<svg version="1.1" id="Layer_1" xmlns="http://www.w3.org/2000/svg" xmlns:xlink="http://www.w3.org/1999/xlink" x="0px" y="0px"
	 width="300px" height="100px" viewBox="0 0 300 100" enable-background="new 0 0 300 100" xml:space="preserve">
<radialGradient id="SVGID_1_" cx="157" cy="-51.2793" r="288.5108" gradientTransform="matrix(1 0 0 0.2923 0 64.9902)" gradientUnits="userSpaceOnUse">
	<stop  offset="0.175" style="stop-color:#000000;stop-opacity:0"/>
	<stop  offset="0.7088" style="stop-color:#000000;stop-opacity:0.1"/>
	<stop  offset="1" style="stop-color:#000000;stop-opacity:0.2"/>
</radialGradient>
<rect y="0.001" opacity="0.25" fill="url(#SVGID_1_)" width="300" height="100"/>
<g>
	<rect x="15" y="20" fill="#EF4135" width="115.119" height="60"/>
	<polyline fill="#FFFFFF" points="46.357,34.371 46.357,39.371 39.814,39.371 39.814,64.625 33.77,64.625 33.77,39.371 
		27.227,39.371 27.227,34.371 46.357,34.371 	"/>
	<path fill="#FFFFFF" d="M48.244,34.338h5.791v4.949h-5.791V34.338z M48.244,42.057h5.791v22.568h-5.791V42.057z"/>
	<polyline fill="#FFFFFF" points="68.801,42.057 74.592,42.057 68.928,64.625 62.217,64.625 56.387,42.057 62.424,42.057 
		65.654,58.209 65.738,58.209 68.801,42.057 	"/>
	<path fill="#FFFFFF" d="M75.977,53.342c0,7.846,1.93,12,8.893,11.875c6.631,0,8.896-4.152,8.896-11.875
		c0-7.844-1.934-11.998-8.896-11.871C78.242,41.471,75.977,45.621,75.977,53.342 M81.768,53.342c0-4.615,0.254-7.93,3.102-7.93
		c2.35,0,3.109,2.309,3.109,7.93c0,5.619-0.76,7.93-3.109,7.93C82.021,61.271,81.768,57.959,81.768,53.342z"/>
	<rect x="97.08" y="34.371" fill="#FFFFFF" width="5.787" height="30.254"/>
	<path fill="#FFFFFF" d="M107.145,34.338h5.791v4.949h-5.791V34.338z M107.145,42.057h5.791v22.568h-5.791V42.057z"/>
	<path d="M152.008,48.799c0-2.852-0.756-4.404-3.314-4.404c-1.133,0-3.652,0.295-3.652,3.439c0,2.645,2.771,3.145,5.537,4.07
		c2.725,0.924,5.498,1.887,5.498,6.334c0,4.74-3.066,7.047-7.258,7.047c-7.637,0-7.719-5.66-7.719-7.969h3.521
		c0,2.725,0.76,5.205,4.197,5.205c1.133,0,3.732-0.547,3.732-3.736c0-3.021-2.77-3.652-5.498-4.576
		c-2.725-0.918-5.533-1.719-5.533-6.375c0-4.191,3.275-6.207,7.174-6.207c6.543,0,6.797,4.527,6.836,7.172H152.008"/>
	<path d="M159.807,53.457c0,6.33,1.6,11.828,8.104,11.828c6.461,0,8.092-5.498,8.092-11.828c0-6.332-1.592-11.83-8.092-11.83
		C161.447,41.627,159.807,47.125,159.807,53.457 M167.822,62.521c-3.607,0-4.32-4.199-4.32-9.064c0-4.867,0.752-9.062,4.32-9.062
		c3.775,0,4.492,4.195,4.492,9.062C172.314,58.322,171.555,62.521,167.822,62.521z"/>
	<path d="M181.836,44.98h-3.271v-2.768h3.271V39.57c0-3.402,1.467-5.16,4.865-5.16h2.559v3.021h-1.633
		c-1.512,0-2.266,0.586-2.266,2.139v2.643h3.857v2.768h-3.857v19.719h-3.525V44.98"/>
	<path d="M195.217,35.666h3.525v6.547h3.9v2.768h-3.9v14.434c0,1.807,0.459,2.516,2.309,2.516c0.756,0,1.176-0.084,1.549-0.127
		v2.896c-0.461,0.082-1.387,0.254-2.852,0.254c-3.648,0-4.531-1.51-4.531-4.449V44.98h-3.271v-2.768h3.271V35.666"/>
	<polyline points="205.244,42.213 208.936,42.213 212.545,60.588 212.629,60.588 216.447,42.213 220.598,42.213 224.332,60.588 
		224.416,60.588 227.9,42.213 231.592,42.213 226.266,64.699 222.402,64.699 218.459,46.324 218.375,46.324 214.6,64.699 
		210.49,64.699 205.244,42.213 	"/>
	<path d="M238.346,49.01v-0.211c0-0.795,0-4.404,3.857-4.404c2.35,0,3.607,1.213,3.607,3.316c0,1.885,0,2.598-2.553,3.395
		l-4.746,1.43c-2.891,0.879-4.238,3.061-4.238,6.207c0,4.027,1.934,6.543,6.129,6.543c2.098,0,4.275-1.213,5.408-3.229h0.09
		c0.164,2.896,1.844,2.896,3.184,2.896c0.879,0,1.805-0.172,2.059-0.211v-2.52c-0.166,0.127-0.379,0.209-0.84,0.209
		c-1.092,0-1.092-0.879-1.092-1.805V48.088c0-2.35,0-6.461-6.838-6.461c-5.371,0-7.553,2.262-7.553,7.383H238.346 M245.689,58.238
		c0,2.309-2.223,4.283-4.535,4.283c-2.389,0-3.186-1.598-3.186-3.867c0-1.965,0.588-2.848,1.721-3.561
		c1.592-0.967,4.701-1.26,6-2.643V58.238z"/>
	<path d="M256.09,42.213h3.525v3.355h0.082c1.012-2.139,2.35-3.941,4.869-3.941c0.713,0,1.217,0.082,1.553,0.25v3.438
		c-0.336-0.039-0.752-0.166-1.885-0.166c-1.764,0-4.619,1.592-4.619,5.33v14.221h-3.525V42.213"/>
	<path d="M283.486,53.877v-1.426c0-4.828-0.625-10.824-7.51-10.824c-6.922,0-8.012,6.5-8.012,12.123
		c0,7.721,2.309,11.535,7.807,11.535c6.119,0,7.549-5.578,7.549-7.969h-3.525c0,1.678-0.463,5.205-3.818,5.205
		c-4.32,0-4.32-5.205-4.32-8.645H283.486 M271.779,51.105v-0.84c0-1.338,0.424-5.871,4.115-5.871c3.105,0,3.9,2.979,3.9,5.498v1.213
		H271.779z"/>
	<path fill="#FFFFFF" d="M119.629,59.229h0.764c0.438,0,0.932,0.088,0.932,0.625c0,0.617-0.439,0.684-0.943,0.684h-0.752V59.229
		 M118.775,63.164h0.854v-1.977h0.518l1.191,1.977h0.871l-1.232-2.01c0.752-0.068,1.201-0.449,1.201-1.236
		c0-0.963-0.596-1.342-1.693-1.342h-1.709V63.164z M120.334,64.932c2.234,0,4.051-1.816,4.051-4.051
		c0-2.227-1.816-4.043-4.051-4.043c-2.229,0-4.045,1.816-4.045,4.043C116.289,63.115,118.105,64.932,120.334,64.932z
		 M120.334,64.146c-1.691,0-3.059-1.367-3.059-3.266c0-1.891,1.367-3.262,3.059-3.262c1.693,0,3.066,1.371,3.066,3.262
		C123.4,62.779,122.027,64.146,120.334,64.146z"/>
</g>
</svg>
