<?xml version="1.0" encoding="utf-8"?>
<!-- Generator: Adobe Illustrator 17.0.0, SVG Export Plug-In . SVG Version: 6.00 Build 0)  -->
<!DOCTYPE svg PUBLIC "-//W3C//DTD SVG 1.1//EN" "http://www.w3.org/Graphics/SVG/1.1/DTD/svg11.dtd">
<svg version="1.1" id="Layer_1" xmlns="http://www.w3.org/2000/svg" xmlns:xlink="http://www.w3.org/1999/xlink" x="0px" y="0px"
	 width="300px" height="200px" viewBox="0 0 300 200" enable-background="new 0 0 300 200" xml:space="preserve">
<radialGradient id="SVGID_1_" cx="152.0001" cy="98.9711" r="288.5113" gradientTransform="matrix(1 0 0 0.7165 0 28.0579)" gradientUnits="userSpaceOnUse">
	<stop  offset="0.175" style="stop-color:#000000;stop-opacity:0"/>
	<stop  offset="0.3487" style="stop-color:#050505;stop-opacity:0.0325"/>
	<stop  offset="0.5673" style="stop-color:#151313;stop-opacity:0.0735"/>
	<stop  offset="0.7088" style="stop-color:#231F20;stop-opacity:0.1"/>
	<stop  offset="0.8066" style="stop-color:#1C191A;stop-opacity:0.1336"/>
	<stop  offset="0.9481" style="stop-color:#090808;stop-opacity:0.1822"/>
	<stop  offset="1" style="stop-color:#000000;stop-opacity:0.2"/>
</radialGradient>
<rect y="-0.029" opacity="0.5" fill="url(#SVGID_1_)" width="300" height="200"/>
<g>
	<rect x="15.513" y="69.971" fill="#EE4034" width="115.12" height="60"/>
	<polyline fill="#FFFFFF" points="46.87,84.343 46.87,89.343 40.327,89.343 40.327,114.597 34.282,114.597 34.282,89.343 
		27.739,89.343 27.739,84.343 46.87,84.343 	"/>
	<path fill="#FFFFFF" d="M48.758,84.31h5.791v4.948h-5.791V84.31z M48.758,92.029h5.791v22.568h-5.791V92.029z"/>
	<polyline fill="#FFFFFF" points="69.314,92.029 75.105,92.029 69.441,114.597 62.729,114.597 56.899,92.029 62.938,92.029 
		66.167,108.181 66.252,108.181 69.314,92.029 	"/>
	<path fill="#FFFFFF" d="M76.489,103.314c0,7.846,1.931,11.999,8.893,11.875c6.631,0,8.896-4.153,8.896-11.875
		c0-7.845-1.934-11.998-8.896-11.871C78.755,91.443,76.489,95.593,76.489,103.314 M82.28,103.314c0-4.615,0.254-7.93,3.103-7.93
		c2.35,0,3.108,2.309,3.108,7.93c0,5.619-0.759,7.93-3.108,7.93C82.534,111.244,82.28,107.93,82.28,103.314z"/>
	<rect x="97.593" y="84.343" fill="#FFFFFF" width="5.788" height="30.254"/>
	<path fill="#FFFFFF" d="M107.658,84.31h5.791v4.948h-5.791V84.31z M107.658,92.029h5.791v22.568h-5.791V92.029z"/>
	<path fill="#231F20" d="M152.521,98.77c0-2.852-0.756-4.404-3.314-4.404c-1.133,0-3.652,0.296-3.652,3.44
		c0,2.644,2.77,3.145,5.537,4.069c2.725,0.925,5.498,1.888,5.498,6.335c0,4.739-3.066,7.047-7.259,7.047
		c-7.637,0-7.718-5.66-7.718-7.969h3.521c0,2.725,0.759,5.205,4.196,5.205c1.133,0,3.733-0.547,3.733-3.736
		c0-3.021-2.77-3.652-5.498-4.577c-2.725-0.918-5.533-1.719-5.533-6.374c0-4.192,3.274-6.207,7.174-6.207
		c6.543,0,6.797,4.527,6.836,7.171H152.521"/>
	<path fill="#231F20" d="M160.32,103.428c0,6.331,1.599,11.829,8.103,11.829c6.462,0,8.093-5.498,8.093-11.829
		c0-6.331-1.592-11.829-8.093-11.829C161.961,91.599,160.32,97.097,160.32,103.428 M168.335,112.494
		c-3.607,0-4.319-4.199-4.319-9.065c0-4.866,0.752-9.062,4.319-9.062c3.776,0,4.492,4.196,4.492,9.062
		C172.827,108.294,172.068,112.494,168.335,112.494z"/>
	<path fill="#231F20" d="M182.349,94.952h-3.271v-2.767h3.271v-2.644c0-3.401,1.468-5.159,4.866-5.159h2.559v3.021h-1.634
		c-1.511,0-2.266,0.586-2.266,2.139v2.644h3.857v2.767h-3.857v19.72h-3.525V94.952"/>
	<path fill="#231F20" d="M195.73,85.638h3.525v6.547h3.9v2.767h-3.9v14.434c0,1.807,0.459,2.517,2.309,2.517
		c0.755,0,1.175-0.085,1.549-0.127v2.896c-0.462,0.082-1.387,0.254-2.852,0.254c-3.648,0-4.531-1.51-4.531-4.449V94.952h-3.271
		v-2.767h3.271V85.638"/>
	<polyline fill="#231F20" points="205.757,92.185 209.448,92.185 213.059,110.56 213.143,110.56 216.961,92.185 221.111,92.185 
		224.846,110.56 224.93,110.56 228.413,92.185 232.104,92.185 226.779,114.671 222.915,114.671 218.973,96.296 218.889,96.296 
		215.112,114.671 211.004,114.671 205.757,92.185 	"/>
	<path fill="#231F20" d="M238.859,98.982V98.77c0-0.794,0-4.404,3.857-4.404c2.35,0,3.606,1.214,3.606,3.317
		c0,1.885,0,2.598-2.552,3.395l-4.746,1.43c-2.891,0.879-4.238,3.06-4.238,6.207c0,4.027,1.934,6.543,6.129,6.543
		c2.097,0,4.274-1.214,5.407-3.229h0.091c0.163,2.896,1.843,2.896,3.184,2.896c0.879,0,1.804-0.172,2.058-0.211v-2.52
		c-0.166,0.127-0.378,0.208-0.84,0.208c-1.091,0-1.091-0.879-1.091-1.804V98.06c0-2.35,0-6.461-6.839-6.461
		c-5.371,0-7.552,2.262-7.552,7.383H238.859 M246.203,108.21c0,2.308-2.224,4.283-4.535,4.283c-2.389,0-3.187-1.598-3.187-3.867
		c0-1.966,0.589-2.848,1.722-3.561c1.592-0.967,4.701-1.26,6-2.644V108.21z"/>
	<path fill="#231F20" d="M256.603,92.185h3.525v3.355h0.081c1.013-2.139,2.35-3.941,4.87-3.941c0.713,0,1.217,0.081,1.553,0.25
		v3.438c-0.336-0.039-0.752-0.166-1.885-0.166c-1.765,0-4.619,1.592-4.619,5.329v14.222h-3.525V92.185"/>
	<path fill="#231F20" d="M283.999,103.848v-1.426c0-4.827-0.625-10.823-7.51-10.823c-6.921,0-8.011,6.5-8.011,12.122
		c0,7.722,2.308,11.536,7.806,11.536c6.12,0,7.549-5.579,7.549-7.969h-3.525c0,1.677-0.462,5.205-3.818,5.205
		c-4.319,0-4.319-5.205-4.319-8.646H283.999 M272.293,101.078v-0.84c0-1.338,0.424-5.872,4.115-5.872
		c3.105,0,3.899,2.979,3.899,5.498v1.214H272.293z"/>
	<path fill="#FFFFFF" d="M120.142,109.2h0.765c0.437,0,0.932,0.088,0.932,0.625c0,0.618-0.439,0.684-0.944,0.684h-0.752V109.2
		 M119.289,113.135h0.852v-1.976h0.518l1.191,1.976h0.872l-1.233-2.009c0.752-0.068,1.201-0.449,1.201-1.236
		c0-0.964-0.596-1.342-1.692-1.342h-1.709V113.135z M120.848,114.903c2.233,0,4.05-1.816,4.05-4.05c0-2.227-1.816-4.043-4.05-4.043
		c-2.229,0-4.046,1.816-4.046,4.043C116.802,113.086,118.618,114.903,120.848,114.903z M120.848,114.119
		c-1.692,0-3.06-1.367-3.06-3.266c0-1.891,1.367-3.262,3.06-3.262c1.693,0,3.066,1.371,3.066,3.262
		C123.914,112.751,122.541,114.119,120.848,114.119z"/>
</g>
</svg>
