<?xml version="1.0" encoding="utf-8"?>
<!-- Generator: Adobe Illustrator 16.0.4, SVG Export Plug-In . SVG Version: 6.00 Build 0)  -->
<!DOCTYPE svg PUBLIC "-//W3C//DTD SVG 1.1//EN" "http://www.w3.org/Graphics/SVG/1.1/DTD/svg11.dtd">
<svg version="1.1" id="Layer_1" xmlns="http://www.w3.org/2000/svg" xmlns:xlink="http://www.w3.org/1999/xlink" x="0px" y="0px"
	 width="300px" height="200px" viewBox="0 0 300 200" enable-background="new 0 0 300 200" xml:space="preserve">
<radialGradient id="SVGID_1_" cx="152" cy="98.7354" r="288.5114" gradientTransform="matrix(1 0 0 0.7165 0 27.9911)" gradientUnits="userSpaceOnUse">
	<stop  offset="0.175" style="stop-color:#000000;stop-opacity:0"/>
	<stop  offset="0.7088" style="stop-color:#000000;stop-opacity:0.1"/>
	<stop  offset="1" style="stop-color:#000000;stop-opacity:0.2"/>
</radialGradient>
<rect y="-0.265" opacity="0.25" fill="url(#SVGID_1_)" width="300" height="200"/>
<g>
	<radialGradient id="SVGID_2_" cx="102.1172" cy="99.4214" r="13.0772" gradientUnits="userSpaceOnUse">
		<stop  offset="0" style="stop-color:#FEE428"/>
		<stop  offset="0.56" style="stop-color:#FEE428"/>
		<stop  offset="1" style="stop-color:#FFFFFF"/>
	</radialGradient>
	<path fill-rule="evenodd" clip-rule="evenodd" fill="url(#SVGID_2_)" d="M102.254,85.321h-0.025
		c-6.746,0-12.648,5.216-13.576,12.352l0,0c-1.008,7.726,4.209,14.769,11.641,15.737l0,0c7.441,0.97,14.289-4.506,15.289-12.236l0,0
		c1.008-7.729-4.207-14.775-11.648-15.742l0,0C103.369,85.357,102.809,85.321,102.254,85.321z"/>
	<linearGradient id="SVGID_3_" gradientUnits="userSpaceOnUse" x1="54.2061" y1="43.5005" x2="165.9991" y2="172.1036">
		<stop  offset="0" style="stop-color:#00A950"/>
		<stop  offset="1" style="stop-color:#008945"/>
	</linearGradient>
	<path fill-rule="evenodd" clip-rule="evenodd" fill="url(#SVGID_3_)" d="M107.244,96.267l1.199,6.474l1.104-1.829
		c7.49,4.334,7.926,9.396,7.926,9.396l0,0c1.748,11.328-12.467,8.104-12.467,8.104c16.846,6.16,17.154-6.089,17.154-6.089l0,0
		c0.639-10.074-10.238-16.347-10.238-16.347l0,0l0.777-1.659L107.244,96.267z"/>
	<linearGradient id="SVGID_4_" gradientUnits="userSpaceOnUse" x1="47.8594" y1="56.1997" x2="139.1614" y2="161.2307">
		<stop  offset="0" style="stop-color:#0089CD"/>
		<stop  offset="1" style="stop-color:#343896"/>
	</linearGradient>
	<path fill-rule="evenodd" clip-rule="evenodd" fill="url(#SVGID_4_)" d="M90.43,120.154c9.699,0.568,15.854-10.781,15.854-10.781
		l0,0l1.596,0.783l-1.826-5.633l-6.26,1.309l1.762,1.124c-4.25,7.812-9.139,8.312-9.139,8.312l0,0
		c-10.939,1.925-7.682-12.855-7.682-12.855l0,0C78.625,119.955,90.43,120.154,90.43,120.154L90.43,120.154z"/>
	<linearGradient id="SVGID_5_" gradientUnits="userSpaceOnUse" x1="80.2456" y1="74.7896" x2="108.45" y2="107.235">
		<stop  offset="0" style="stop-color:#00A950"/>
		<stop  offset="1" style="stop-color:#008945"/>
	</linearGradient>
	<path fill-rule="evenodd" clip-rule="evenodd" fill="url(#SVGID_5_)" d="M83.098,87.438c-0.637,10.063,10.24,16.345,10.24,16.345
		l0,0l-0.771,1.654l5.453-1.943l-1.201-6.478l-1.104,1.831c-7.488-4.334-7.92-9.395-7.92-9.395l0,0
		c-1.75-11.341,12.469-8.109,12.469-8.109l0,0c-3.385-1.238-6.104-1.733-8.283-1.733l0,0C83.299,79.613,83.098,87.438,83.098,87.438
		L83.098,87.438z"/>
	<linearGradient id="SVGID_6_" gradientUnits="userSpaceOnUse" x1="66.1025" y1="38.3691" x2="157.4425" y2="143.4438">
		<stop  offset="0" style="stop-color:#0089CD"/>
		<stop  offset="1" style="stop-color:#343896"/>
	</linearGradient>
	<path fill-rule="evenodd" clip-rule="evenodd" fill="url(#SVGID_6_)" d="M114.193,79.438h-0.012h-0.01h-0.01
		c-9.303,0-15.164,10.808-15.164,10.808l0,0L97.4,89.462l1.826,5.64l6.266-1.313l-1.764-1.126c4.25-7.811,9.131-8.308,9.131-8.308
		l0,0c10.945-1.929,7.695,12.851,7.695,12.851l0,0c6.1-17.542-5.697-17.749-5.697-17.749l0,0
		C114.635,79.443,114.414,79.438,114.193,79.438z"/>
	<g opacity="0.75">
		<path fill-rule="evenodd" clip-rule="evenodd" d="M140.119,132.178l-4.461-4.375c-0.678-0.665-1.217-1.244-1.619-1.734
			c-0.402-0.494-0.775-1.033-1.121-1.621l-1.781,1.816l-3.301,3.363l0.664,1.453l0.672,1.445c0.209-0.938,0.605-1.856,1.193-2.755
			c0.441-0.678,1.078-1.466,1.91-2.367l3.693,3.622l-0.039,0.035c-0.504,0.516-0.965,0.9-1.383,1.153
			c-0.416,0.257-0.885,0.439-1.4,0.555l0.424,1.282l0.422,1.284l3.125-3.184l3.465,3.4l-0.371,0.378
			c-0.502,0.509-0.971,0.902-1.414,1.178c-0.441,0.276-0.953,0.494-1.535,0.658L137.76,139l0.496,1.22l3.484-3.551l1.783-1.817
			c-0.611-0.346-1.164-0.716-1.664-1.108C141.361,133.349,140.779,132.828,140.119,132.178z"/>
		<path fill-rule="evenodd" clip-rule="evenodd" d="M129.771,136.51l-1.207-1.025c-1.139-0.979-2.484-2.158-4.039-3.549
			l-1.521,1.001l2.242,7.259c0.215,0.722,0.367,1.316,0.457,1.789c0.092,0.469,0.137,0.946,0.143,1.427l0.873-0.572l0.877-0.575
			c-0.25-0.276-0.451-0.55-0.602-0.829c-0.152-0.279-0.299-0.641-0.439-1.084l-1.898-5.943h0.004l4.701,4.099
			c0.375,0.329,0.664,0.615,0.863,0.864c0.199,0.245,0.371,0.524,0.512,0.833l1.17-0.768l1.164-0.766
			c-0.684-0.337-1.266-0.666-1.742-0.982C130.848,137.368,130.328,136.977,129.771,136.51z"/>
		<path fill-rule="evenodd" clip-rule="evenodd" d="M119.658,136.265c-0.535-0.302-1.074-0.479-1.613-0.531
			c-0.564-0.052-1.133,0.03-1.707,0.248c-1.246,0.476-2.088,1.373-2.529,2.693s-0.371,2.741,0.211,4.263
			c0.518,1.362,1.32,2.354,2.408,2.978c0.535,0.307,1.074,0.485,1.617,0.536c0.562,0.055,1.127-0.027,1.697-0.246
			c1.238-0.472,2.082-1.372,2.525-2.7c0.449-1.323,0.381-2.748-0.199-4.271C121.549,137.875,120.744,136.884,119.658,136.265z
			 M120.85,142.857c-0.055,0.693-0.281,1.236-0.676,1.631c-0.746,0.252-1.457,0.233-2.129-0.054
			c-0.172-0.072-0.344-0.165-0.512-0.273c-0.824-0.533-1.469-1.416-1.938-2.643c-0.299-0.775-0.416-1.507-0.355-2.194
			c0.057-0.685,0.285-1.229,0.676-1.628c0.746-0.252,1.455-0.236,2.129,0.05c0.172,0.072,0.342,0.161,0.51,0.271
			c0.824,0.532,1.467,1.411,1.936,2.637C120.785,141.432,120.906,142.166,120.85,142.857z"/>
		<path fill-rule="evenodd" clip-rule="evenodd" d="M112.928,148.902l-1.607-8.002c-0.158-0.794-0.254-1.413-0.289-1.857
			c-0.025-0.446,0-0.838,0.084-1.178l-1.336,0.268l-1.328,0.268c0.219,0.289,0.402,0.646,0.549,1.064
			c0.148,0.422,0.301,1.024,0.459,1.812l1.547,7.709c0.197,0.974,0.32,1.749,0.375,2.326c0.051,0.576,0.045,1.111-0.018,1.601
			l1.27-0.569l1.277-0.561c-0.234-0.417-0.42-0.835-0.566-1.263C113.199,150.1,113.061,149.559,112.928,148.902z"/>
		<path fill-rule="evenodd" clip-rule="evenodd" d="M106.822,145.426l-0.521-1.495c-0.484-1.423-1.043-3.124-1.676-5.107
			l-1.82,0.086l-1.754,7.391c-0.182,0.731-0.354,1.323-0.516,1.772c-0.162,0.451-0.361,0.887-0.602,1.304l1.043-0.051l1.045-0.05
			c-0.076-0.363-0.107-0.704-0.096-1.021c0.01-0.316,0.068-0.703,0.17-1.157l1.387-6.08h0.002l1.971,5.92
			c0.154,0.473,0.254,0.866,0.301,1.182c0.049,0.314,0.055,0.64,0.02,0.978l1.398-0.068l1.391-0.063
			c-0.416-0.64-0.752-1.217-1.004-1.733C107.309,146.713,107.062,146.11,106.822,145.426z"/>
		<path fill-rule="evenodd" clip-rule="evenodd" d="M95.025,138.078c-0.143-0.021-0.275-0.038-0.402-0.051
			c-0.174-0.019-0.334-0.027-0.48-0.027c-0.256,0-0.596,0.025-1.021,0.081l-1.039,1.835c0.338-0.158,0.709-0.265,1.115-0.316
			c0.404-0.052,0.803-0.048,1.201,0.01c0.076,0.014,0.152,0.027,0.225,0.046c0.764,0.18,1.326,0.66,1.68,1.438
			c0.311,0.675,0.443,1.482,0.387,2.421l-2.066-0.317l-3.119-0.479l-0.145,0.919c-0.229,1.496-0.115,2.688,0.338,3.585
			c0.453,0.896,1.217,1.427,2.283,1.591l0.02,0.002c0.211,0.032,0.42,0.044,0.623,0.034c0.846-0.04,1.627-0.446,2.346-1.215
			c0.895-0.953,1.461-2.231,1.709-3.84c0.229-1.475-0.002-2.746-0.686-3.814C97.307,138.912,96.316,138.277,95.025,138.078z
			 M95.715,146.726c-0.309,0.383-0.674,0.599-1.092,0.65c-0.154,0.019-0.314,0.017-0.482-0.01l0.012,0.003
			c-0.57-0.089-0.967-0.389-1.188-0.904c-0.221-0.512-0.266-1.216-0.137-2.102l1.795,0.275l1.867,0.287
			C96.314,145.705,96.059,146.305,95.715,146.726z"/>
		<path fill-rule="evenodd" clip-rule="evenodd" d="M89.471,136.669c-0.396-0.131-0.781-0.095-1.146,0.111
			c-0.369,0.203-0.625,0.52-0.766,0.946s-0.127,0.835,0.047,1.221c0.17,0.389,0.455,0.646,0.854,0.777
			c0.393,0.131,0.771,0.092,1.143-0.115c0.367-0.21,0.623-0.527,0.764-0.956c0.141-0.426,0.125-0.83-0.049-1.214
			C90.143,137.057,89.861,136.799,89.471,136.669z"/>
		<path fill-rule="evenodd" clip-rule="evenodd" d="M84.596,134.688c-0.375-0.183-0.758-0.196-1.15-0.044
			c-0.393,0.156-0.688,0.434-0.885,0.84c-0.195,0.404-0.234,0.808-0.113,1.215c0.117,0.407,0.365,0.701,0.742,0.883
			c0.369,0.181,0.752,0.192,1.145,0.036c0.395-0.159,0.688-0.439,0.885-0.843c0.197-0.404,0.234-0.809,0.115-1.212
			C85.213,135.162,84.965,134.869,84.596,134.688z"/>
		<path fill-rule="evenodd" clip-rule="evenodd" d="M78.889,131.884c-0.408,0.103-0.738,0.34-0.984,0.714
			c-0.25,0.376-0.34,0.773-0.277,1.192c0.066,0.416,0.271,0.743,0.621,0.974c0.344,0.228,0.721,0.287,1.135,0.186
			c0.408-0.107,0.738-0.346,0.984-0.72c0.25-0.374,0.34-0.771,0.273-1.187c-0.066-0.412-0.273-0.738-0.613-0.966
			C79.678,131.849,79.297,131.784,78.889,131.884z"/>
		<path fill-rule="evenodd" clip-rule="evenodd" d="M68.303,120.874l-1.52,0.482l-1.518,0.489c0.906,0.323,1.77,0.828,2.588,1.52
			c0.619,0.521,1.326,1.248,2.119,2.182l-4.043,3.227l-0.033-0.039c-0.449-0.564-0.775-1.069-0.975-1.514
			c-0.205-0.447-0.33-0.931-0.381-1.456l-1.326,0.262l-1.324,0.264l2.781,3.487l-3.799,3.026l-0.33-0.412
			c-0.445-0.562-0.775-1.075-0.994-1.547c-0.221-0.47-0.377-1.006-0.471-1.604l-1.283,0.343l-1.27,0.348l3.102,3.89l1.586,1.986
			c0.418-0.561,0.85-1.065,1.303-1.512c0.451-0.45,1.041-0.963,1.766-1.542l4.885-3.894c0.742-0.59,1.381-1.057,1.918-1.396
			c0.541-0.339,1.119-0.645,1.742-0.915l-1.584-1.989L68.303,120.874z"/>
		<path fill-rule="evenodd" clip-rule="evenodd" d="M58.801,121.14l-1.838,0.743l0.434,1.07l0.428,1.06
			c0.473-0.354,0.902-0.642,1.293-0.858c0.389-0.219,0.84-0.435,1.357-0.644l3.967-1.609c0.75-0.302,1.342-0.513,1.771-0.626
			c0.434-0.114,0.824-0.16,1.174-0.14l-0.51-1.258l-0.51-1.261c-0.248,0.265-0.566,0.507-0.947,0.734
			c-0.383,0.225-0.947,0.49-1.689,0.789l-4.475,1.815l-0.375-0.296c-0.549-0.437-0.904-0.844-1.061-1.23
			c-0.184-0.453-0.195-0.84-0.031-1.165c0.16-0.323,0.502-0.591,1.023-0.801l3.639-1.476c0.75-0.305,1.342-0.514,1.771-0.624
			c0.436-0.114,0.824-0.16,1.172-0.143l-0.512-1.265l-0.51-1.255c-0.244,0.271-0.559,0.515-0.943,0.74
			c-0.385,0.221-0.945,0.481-1.691,0.783l-4.432,1.797l-0.451-0.31c-0.516-0.379-0.859-0.778-1.029-1.203
			c-0.184-0.451-0.195-0.839-0.033-1.161c0.164-0.324,0.502-0.589,1.02-0.799l3.646-1.478c0.75-0.303,1.342-0.513,1.771-0.628
			c0.432-0.113,0.822-0.16,1.172-0.136l-0.49-1.214l-0.49-1.209c-0.188,0.21-0.479,0.417-0.871,0.624
			c-0.395,0.206-0.994,0.474-1.803,0.801l-4.242,1.719c-0.889,0.361-1.492,0.814-1.811,1.357c-0.316,0.548-0.34,1.159-0.066,1.836
			c0.176,0.427,0.449,0.783,0.824,1.071l0.365,0.271l2.111,0.662c-0.574,0.303-0.98,0.661-1.223,1.079
			c-0.326,0.553-0.348,1.181-0.066,1.878c0.193,0.477,0.473,0.863,0.834,1.16l0.416,0.292L58.801,121.14z"/>
		<path fill-rule="evenodd" clip-rule="evenodd" d="M54.646,107.389c0.932,0.287,1.984,0.362,3.158,0.229
			c1.484-0.169,2.648-0.723,3.5-1.663c0.852-0.942,1.203-2.062,1.055-3.363c-0.039-0.333-0.092-0.624-0.156-0.872
			c-0.066-0.247-0.182-0.568-0.346-0.962l-2.047-0.522c0.244,0.286,0.445,0.615,0.604,0.994c0.154,0.376,0.256,0.763,0.303,1.16
			c0.1,0.887-0.211,1.631-0.932,2.228c-0.568,0.479-1.312,0.816-2.232,1.011l-0.594-5.213l-0.928,0.104
			c-0.504,0.057-0.967,0.143-1.385,0.258c-0.828,0.225-1.49,0.562-1.984,1.008c-0.742,0.675-1.053,1.549-0.932,2.623l0.004,0.017
			c0.123,1.097,0.762,1.947,1.916,2.556C53.967,107.146,54.297,107.282,54.646,107.389z M53.166,104.186c0,0.002,0,0.003,0,0.004
			l-0.002-0.009C53.164,104.183,53.166,104.184,53.166,104.186c-0.064-0.569,0.123-1.028,0.557-1.375
			c0.242-0.191,0.549-0.347,0.924-0.466c0.311-0.097,0.668-0.171,1.072-0.22l0.42,3.683c-0.576,0.024-1.074-0.018-1.492-0.123
			c-0.162-0.042-0.311-0.092-0.449-0.153C53.584,105.26,53.24,104.811,53.166,104.186z"/>
		<path fill-rule="evenodd" clip-rule="evenodd" d="M54.627,97.884l4.273,0.266c0.809,0.053,1.432,0.119,1.869,0.204
			c0.441,0.084,0.812,0.211,1.117,0.381l0.086-1.352l0.084-1.362c-0.338,0.139-0.727,0.224-1.17,0.26
			c-0.443,0.033-1.068,0.025-1.869-0.025l-4.938-0.309l-0.178-0.438c-0.25-0.6-0.365-1.076-0.342-1.437
			c0.029-0.485,0.199-0.896,0.504-1.231l0.072-0.08l-2.182-0.516c-0.154,0.217-0.24,0.493-0.262,0.827
			c-0.025,0.398,0.033,0.819,0.176,1.264l1.691,1.578L51.734,95.8l-0.07,1.153l-0.072,1.139c0.576-0.113,1.088-0.187,1.535-0.217
			C53.572,97.846,54.072,97.851,54.627,97.884z"/>
		<path fill-rule="evenodd" clip-rule="evenodd" d="M55.756,91.106c0.195,0.048,0.385,0.081,0.572,0.099
			c0.707,0.066,1.365-0.082,1.971-0.451c0.344-0.206,0.635-0.458,0.867-0.75c0.434,1.024,0.732,1.664,0.895,1.921
			s0.383,0.417,0.65,0.485c0.363,0.087,0.678-0.033,0.949-0.366c0.197-0.243,0.375-0.599,0.533-1.065l0.166,0.277
			c0.42,0.693,0.742,1.172,0.961,1.438c0.248,0.302,0.494,0.479,0.74,0.54c0.486,0.119,0.92-0.073,1.301-0.574
			c0.379-0.502,0.709-1.319,0.988-2.451c0.273-1.108,0.207-2.122-0.199-3.038c-0.406-0.913-1.039-1.477-1.898-1.688
			c-0.773-0.189-1.383-0.148-1.828,0.13l-0.064,0.041c-0.412,0.286-0.711,0.808-0.896,1.562l-0.486,1.979
			c-0.072,0.279-0.188,0.502-0.355,0.662c-0.164,0.161-0.334,0.221-0.506,0.178c-0.115-0.027-0.227-0.107-0.332-0.238
			c-0.105-0.141-0.178-0.296-0.217-0.461c0.098-0.209,0.176-0.432,0.236-0.671c0.229-0.928,0.096-1.782-0.404-2.555
			c-0.498-0.777-1.236-1.282-2.213-1.524c-0.295-0.074-0.58-0.118-0.857-0.132c-0.258-0.014-0.504,0-0.746,0.04l0.355-1.479
			L54.4,82.43c0.016,0.154-0.002,0.41-0.051,0.772c-0.053,0.362-0.123,0.724-0.213,1.093l-0.232,0.945
			c-0.523,0.438-0.873,1.013-1.047,1.721c-0.229,0.933-0.068,1.791,0.484,2.576C53.895,90.323,54.699,90.847,55.756,91.106z
			 M62.855,88.396c0.094-0.375,0.258-0.65,0.49-0.828c0.236-0.178,0.508-0.229,0.812-0.153c0.371,0.093,0.611,0.313,0.717,0.669
			c0.104,0.35,0.078,0.849-0.082,1.497c-0.146,0.586-0.338,0.997-0.576,1.234c-0.242,0.236-0.541,0.312-0.9,0.224
			c-0.188-0.045-0.363-0.146-0.541-0.305c-0.174-0.156-0.297-0.326-0.367-0.516L62.855,88.396z M54.24,87.408l0.004-0.01
			c0.111-0.453,0.432-0.783,0.953-0.987c0.35-0.134,0.727-0.188,1.131-0.161c0.201,0.011,0.406,0.045,0.621,0.097
			c0.555,0.137,0.967,0.374,1.23,0.714c0.264,0.336,0.34,0.727,0.234,1.164c0-0.001,0.002-0.002,0.002-0.003l-0.004,0.009
			c0.002-0.002,0-0.004,0.002-0.006c-0.111,0.446-0.43,0.773-0.955,0.978c-0.354,0.137-0.73,0.193-1.131,0.17
			c-0.197-0.011-0.402-0.043-0.609-0.096c-0.551-0.134-0.963-0.373-1.23-0.715C54.217,88.226,54.135,87.838,54.24,87.408z"/>
		<path fill-rule="evenodd" clip-rule="evenodd" d="M59.27,82.723c0.186,0.104,0.379,0.204,0.582,0.3
			c1.348,0.638,2.633,0.782,3.85,0.432c1.221-0.349,2.109-1.116,2.672-2.298c0.145-0.303,0.252-0.577,0.328-0.822
			c0.074-0.246,0.146-0.579,0.215-1.002l-1.461-1.521c0.053,0.37,0.049,0.759-0.016,1.16c-0.066,0.404-0.184,0.784-0.357,1.147
			c-0.381,0.805-1.037,1.274-1.963,1.401c-0.738,0.104-1.547,0-2.432-0.322l2.246-4.738l-0.84-0.403
			c-1.053-0.5-1.996-0.755-2.824-0.761c-0.244-0.002-0.48,0.018-0.705,0.059c-0.986,0.18-1.713,0.757-2.178,1.73l-0.008,0.02
			c-0.471,0.995-0.377,2.055,0.283,3.183C57.229,81.258,58.098,82.071,59.27,82.723z M57.725,77.652l-0.002,0.01
			c0.244-0.522,0.646-0.812,1.201-0.88c0.109-0.012,0.225-0.016,0.346-0.012c0.486,0.02,1.057,0.181,1.711,0.483l-1.588,3.35
			l-0.123-0.07c-0.631-0.373-1.094-0.768-1.381-1.186C57.51,78.789,57.457,78.225,57.725,77.652z"/>
		<path fill-rule="evenodd" clip-rule="evenodd" d="M67.15,76.525c0.369,0.256,0.762,0.357,1.18,0.299
			c0.416-0.056,0.742-0.252,0.979-0.591c0.238-0.343,0.314-0.719,0.221-1.132c-0.09-0.41-0.322-0.746-0.689-1.001
			c-0.369-0.258-0.764-0.358-1.182-0.304c-0.422,0.055-0.752,0.256-0.99,0.598c-0.234,0.337-0.305,0.714-0.213,1.125
			C66.551,75.936,66.783,76.269,67.15,76.525z"/>
		<path fill-rule="evenodd" clip-rule="evenodd" d="M71.277,69.487c-0.424,0-0.777,0.154-1.059,0.462
			c-0.277,0.306-0.396,0.665-0.357,1.089c0.039,0.422,0.225,0.786,0.557,1.088c0.33,0.303,0.707,0.454,1.129,0.454
			c0.422-0.003,0.771-0.157,1.049-0.461c0.281-0.308,0.404-0.673,0.367-1.091c-0.035-0.422-0.219-0.782-0.553-1.083
			C72.078,69.64,71.699,69.488,71.277,69.487z"/>
		<path fill-rule="evenodd" clip-rule="evenodd" d="M75.434,65.692c-0.422-0.058-0.793,0.05-1.111,0.317
			c-0.316,0.268-0.482,0.609-0.498,1.033c-0.016,0.425,0.119,0.807,0.408,1.151s0.645,0.544,1.062,0.598
			c0.414,0.053,0.783-0.054,1.1-0.316c0.318-0.271,0.488-0.614,0.508-1.035c0.018-0.421-0.117-0.805-0.408-1.146
			C76.207,65.949,75.854,65.749,75.434,65.692z"/>
		<path fill-rule="evenodd" clip-rule="evenodd" d="M90.428,58.837l-0.037-1.595c-0.568,0.777-1.299,1.459-2.193,2.048
			c-0.678,0.444-1.576,0.915-2.697,1.407l-1.939-4.796l0.051-0.019c0.666-0.269,1.244-0.438,1.727-0.505
			c0.484-0.064,0.986-0.049,1.504,0.055l0.127-1.346l0.125-1.346l-4.133,1.67l-1.82-4.503l0.49-0.198
			c0.664-0.266,1.252-0.438,1.766-0.514c0.514-0.078,1.072-0.074,1.672,0.009l0.039-1.328l0.031-1.317l-4.613,1.861l-2.361,0.953
			c0.422,0.56,0.781,1.12,1.082,1.681c0.301,0.562,0.623,1.271,0.971,2.133l2.34,5.793c0.354,0.881,0.617,1.625,0.791,2.236
			c0.17,0.613,0.297,1.255,0.379,1.931l2.359-0.949l4.371-1.765L90.428,58.837z"/>
		<path fill-rule="evenodd" clip-rule="evenodd" d="M98.762,56.029l-0.457-4.756l0.426-0.347c0.51-0.385,0.99-0.598,1.447-0.643
			c0.484-0.046,0.859,0.052,1.121,0.299c0.262,0.25,0.42,0.65,0.475,1.204l0.377,3.92c0.076,0.805,0.109,1.432,0.096,1.875
			c-0.014,0.446-0.082,0.835-0.199,1.163l1.297-0.124l1.301-0.126c-0.146-0.24-0.266-0.577-0.35-1.013
			c-0.086-0.436-0.172-1.088-0.252-1.957l-0.439-4.556c-0.092-0.955-0.355-1.663-0.789-2.123c-0.432-0.458-1.012-0.655-1.734-0.586
			c-0.461,0.044-0.881,0.207-1.264,0.483l-0.365,0.275l-1.236,1.832c-0.123-0.635-0.352-1.127-0.684-1.478
			c-0.438-0.472-1.033-0.672-1.779-0.6c-0.516,0.05-0.965,0.207-1.354,0.468L94,49.559l-1.027,1.687l-0.189-1.974l-1.148,0.111
			l-1.137,0.107c0.205,0.556,0.357,1.047,0.455,1.482c0.1,0.437,0.174,0.934,0.229,1.485l0.41,4.261
			c0.078,0.809,0.109,1.433,0.096,1.877c-0.014,0.447-0.082,0.834-0.201,1.166l1.354-0.131l1.352-0.13
			c-0.182-0.314-0.326-0.686-0.432-1.115c-0.107-0.432-0.199-1.048-0.275-1.848l-0.463-4.804l0.391-0.275
			c0.57-0.404,1.064-0.626,1.477-0.667c0.49-0.046,0.865,0.055,1.129,0.302c0.266,0.245,0.422,0.651,0.477,1.213l0.379,3.907
			c0.076,0.804,0.105,1.431,0.092,1.875c-0.018,0.448-0.084,0.837-0.197,1.166l1.355-0.133l1.346-0.129
			c-0.186-0.312-0.332-0.685-0.436-1.116C98.93,57.446,98.838,56.831,98.762,56.029z"/>
		<path fill-rule="evenodd" clip-rule="evenodd" d="M107.666,62.627c-0.045-0.594-0.057-1.113-0.033-1.56
			c0.021-0.445,0.086-0.936,0.191-1.474l0.201-1.041c0.582,0.807,1.355,1.309,2.32,1.502c0.086,0.016,0.174,0.029,0.256,0.041
			c0.957,0.112,1.781-0.188,2.473-0.91c0.752-0.784,1.287-2.001,1.607-3.653c0.309-1.603,0.256-2.964-0.16-4.081
			c-0.418-1.116-1.119-1.771-2.104-1.962c-0.41-0.078-0.775-0.073-1.102,0.018l-0.248,0.086l-0.467,0.405l-1.109,0.965l0.34-1.758
			l-1.137-0.221l-1.117-0.218c0.039,0.589,0.045,1.106,0.016,1.551s-0.094,0.941-0.201,1.49l-1.434,7.414
			c-0.105,0.555-0.23,1.041-0.371,1.466c-0.137,0.424-0.336,0.898-0.592,1.424l1.332,0.256L107.666,62.627z M109.391,51.483
			c0.215-0.081,0.42-0.147,0.613-0.195c0.213-0.051,0.412-0.083,0.598-0.098c0.225-0.017,0.432-0.006,0.619,0.029
			c0.686,0.131,1.166,0.558,1.438,1.28c0.275,0.718,0.307,1.629,0.094,2.729c-0.215,1.117-0.59,1.939-1.123,2.465
			c-0.303,0.303-0.646,0.493-1.027,0.574c-0.281,0.059-0.584,0.058-0.908-0.006c-0.615-0.121-1.078-0.52-1.381-1.204L109.391,51.483
			z"/>
		<path fill-rule="evenodd" clip-rule="evenodd" d="M118.01,62.559c0.799,0.357,1.604,0.467,2.412,0.323
			c0.426-0.075,0.854-0.22,1.283-0.434c1.244-0.621,2.203-1.674,2.869-3.16c0.598-1.329,0.732-2.598,0.408-3.807
			c-0.328-1.21-1.039-2.061-2.135-2.553c-0.801-0.358-1.607-0.465-2.426-0.315c-0.42,0.077-0.846,0.221-1.271,0.432
			c-1.254,0.622-2.213,1.675-2.883,3.162c-0.596,1.327-0.729,2.595-0.396,3.803C116.201,61.217,116.914,62.068,118.01,62.559z
			 M118.387,56.32c0.342-0.758,0.777-1.364,1.305-1.812c0.242-0.204,0.484-0.361,0.73-0.473c0.299-0.135,0.598-0.199,0.904-0.199
			c0.885,0.439,1.43,1.14,1.633,2.101c0.203,0.96,0.035,2.041-0.502,3.239c-0.344,0.76-0.773,1.355-1.303,1.802
			c-0.24,0.202-0.484,0.358-0.732,0.47c-0.295,0.132-0.594,0.197-0.898,0.199c-0.887-0.438-1.432-1.139-1.635-2.094
			C117.682,58.596,117.848,57.519,118.387,56.32z"/>
		<path fill-rule="evenodd" clip-rule="evenodd" d="M125.773,66.764l5.83-4.527l0.01-0.024l0.012,0.008l-0.021,0.017l-3.109,6.736
			l1.287,1.047l5.883-4.628c0.459-0.358,0.898-0.656,1.312-0.888c0.414-0.234,0.912-0.477,1.492-0.722l-0.889-0.722l-0.895-0.724
			c-0.217,0.425-0.447,0.785-0.688,1.078s-0.562,0.603-0.969,0.928l-3.883,3.106l-0.006-0.003l3.322-6.915l-1.289-1.047
			l-6.023,4.758l-0.004-0.003l2.465-4.847c0.211-0.423,0.418-0.759,0.613-1.012c0.197-0.252,0.436-0.49,0.713-0.711l-1.072-0.871
			l-1.072-0.868c-0.115,0.622-0.273,1.22-0.48,1.795s-0.512,1.281-0.912,2.12l-2.914,5.874L125.773,66.764z"/>
		<path fill-rule="evenodd" clip-rule="evenodd" d="M133.434,72.279c-0.258,1.243,0.01,2.387,0.801,3.432
			c0.199,0.27,0.393,0.493,0.572,0.672c0.186,0.179,0.445,0.398,0.791,0.654l2.023-0.59c-0.352-0.122-0.693-0.306-1.02-0.55
			c-0.326-0.245-0.613-0.525-0.852-0.846c-0.537-0.713-0.65-1.51-0.33-2.394c0.248-0.7,0.717-1.368,1.41-2.001l2.982,3.955
			l0.176,0.232l0.746-0.558c1.207-0.91,1.961-1.846,2.26-2.802c0.299-0.959,0.125-1.87-0.525-2.732l-0.012-0.015
			c-0.609-0.81-1.49-1.221-2.645-1.233c-0.1-0.003-0.203,0.001-0.307,0.005c-1.305,0.061-2.605,0.581-3.904,1.559
			C134.412,69.967,133.689,71.038,133.434,72.279z M139.77,69.034l0.043-0.005c0.65-0.064,1.162,0.151,1.533,0.645l-0.008-0.008
			c0.348,0.459,0.422,0.951,0.221,1.475c-0.199,0.521-0.656,1.057-1.367,1.602l-0.379-0.499l-1.855-2.46
			C138.629,69.349,139.232,69.1,139.77,69.034z"/>
		<path fill-rule="evenodd" clip-rule="evenodd" d="M146.285,80.004l2.145-0.66c0.02-0.264-0.045-0.548-0.197-0.847
			c-0.178-0.355-0.443-0.688-0.791-1.001l-2.256-0.504l1.633-0.823l-0.523-1.035l-0.512-1.017c-0.439,0.393-0.846,0.714-1.215,0.964
			c-0.371,0.25-0.805,0.501-1.301,0.752l-3.82,1.933c-0.723,0.365-1.293,0.621-1.715,0.771c-0.42,0.149-0.807,0.229-1.158,0.237
			l0.611,1.21l0.617,1.216c0.223-0.29,0.516-0.561,0.879-0.812c0.365-0.255,0.908-0.564,1.625-0.928l4.414-2.23l0.377,0.287
			c0.518,0.388,0.857,0.743,1.018,1.065c0.221,0.435,0.283,0.873,0.189,1.316L146.285,80.004z"/>
	</g>
	<g>
		<path fill-rule="evenodd" clip-rule="evenodd" fill="#2E3291" d="M137.244,118.692l32.879-31.782h-3.018
			c-5.037,0-9.211,0.218-12.535,0.636c-3.322,0.43-6.557,1.167-9.695,2.214l2.67-3.299l2.736-3.299h22.721h10.447v0.076
			l-32.877,31.779h1.438c6.377,0,11.564-0.24,15.566-0.721c3.998-0.482,7.701-1.299,11.111-2.453l-2.668,3.477l-2.678,3.443h-25.648
			h-10.449V118.692z"/>
		<path fill-rule="evenodd" clip-rule="evenodd" fill="#2E3291" d="M213.527,118.764c0.939-0.983,1.688-2.121,2.268-3.403
			c0.572-1.29,1.105-3.004,1.594-5.141l4.277-18.515c0.412-1.843,0.586-3.403,0.504-4.678c-0.066-1.276-0.398-2.567-0.986-3.865
			h6.434h6.426c-0.928,1.002-1.688,2.153-2.262,3.443c-0.576,1.289-1.119,2.993-1.604,5.1l-5.373,23.312
			c4.984-0.071,9.119-0.302,12.41-0.696c4.027-0.459,7.762-1.258,11.193-2.397l-2.684,3.437l-2.699,3.403h-19.049H213.527z"/>
		<path fill-rule="evenodd" clip-rule="evenodd" fill="#2E3291" d="M214.992,90.017c-1.246-1.039-2.67-1.832-4.266-2.371
			c-1.598-0.545-3.332-0.813-5.203-0.813c-2.041,0-3.801,0.376-5.277,1.133c-1.471,0.762-2.346,1.744-2.611,2.947
			c-0.297,1.294,0,2.455,0.887,3.489c0.832,1.027,2.484,2.24,4.961,3.638c3.795,2.107,6.363,4.021,7.729,5.734
			c1.004,1.248,1.502,2.635,1.502,4.153c0.023,0.518-0.037,1.064-0.18,1.652c-0.662,2.851-2.662,5.177-5.998,6.988
			c-3.281,1.791-7.221,2.687-11.807,2.687c-2.672,0-5.008-0.137-7.002-0.408c-2.008-0.278-4.008-0.736-6.021-1.387l1.031-6.27
			c1.246,1.255,2.783,2.223,4.602,2.893c1.818,0.68,3.82,1.014,6.002,1.014c2.424,0,4.496-0.441,6.232-1.337
			c1.734-0.89,2.764-2.046,3.076-3.462c0.346-1.464,0.051-2.775-0.887-3.919c-0.9-1.124-2.686-2.437-5.361-3.929
			c-3.629-2.008-6.068-3.812-7.318-5.403c-0.947-1.203-1.439-2.513-1.465-3.933l0.188-1.47c0.617-2.646,2.559-4.804,5.834-6.472
			c3.277-1.668,7.191-2.502,11.758-2.502c1.861,0,3.877,0.167,6.051,0.501c2.168,0.333,3.65,0.708,4.432,1.131L214.992,90.017z"/>
	</g>
</g>
</svg>
