<?xml version="1.0" encoding="utf-8"?>
<!-- Generator: Adobe Illustrator 16.0.4, SVG Export Plug-In . SVG Version: 6.00 Build 0)  -->
<!DOCTYPE svg PUBLIC "-//W3C//DTD SVG 1.1//EN" "http://www.w3.org/Graphics/SVG/1.1/DTD/svg11.dtd">
<svg version="1.1" id="Layer_1" xmlns="http://www.w3.org/2000/svg" xmlns:xlink="http://www.w3.org/1999/xlink" x="0px" y="0px"
	 width="40.989px" height="43.091px" viewBox="0 0 40.989 43.091" enable-background="new 0 0 40.989 43.091" xml:space="preserve">
<path fill="#EF4E37" d="M37.389,0H0v43.091h37.389c1.988,0,3.6-1.611,3.6-3.6V3.6C40.989,1.611,39.377,0,37.389,0z M32.027,32.976
	H8.962v-2h23.065V32.976z M32.027,29.976H8.962v-2h23.065V29.976z M32.027,26.984H8.962v-2h23.065V26.984z M32.027,23.984H8.962v-2
	h23.065V23.984z M32.027,20.986H8.962v-2h23.065V20.986z M32.027,17.986H8.962v-2h23.065V17.986z M32.027,14.992H8.962v-2h23.065
	V14.992z M32.027,11.992H8.962v-2h23.065V11.992z"/>
<rect x="32.027" y="9.992" fill="#EF4E37" width="0.962" height="1.923"/>
</svg>
