<?xml version="1.0" encoding="utf-8"?>
<!-- Generator: Adobe Illustrator 16.0.4, SVG Export Plug-In . SVG Version: 6.00 Build 0)  -->
<!DOCTYPE svg PUBLIC "-//W3C//DTD SVG 1.1//EN" "http://www.w3.org/Graphics/SVG/1.1/DTD/svg11.dtd">
<svg version="1.1" id="Layer_1" xmlns="http://www.w3.org/2000/svg" xmlns:xlink="http://www.w3.org/1999/xlink" x="0px" y="0px"
	 width="12.372px" height="10.053px" viewBox="0 0 12.372 10.053" enable-background="new 0 0 12.372 10.053" xml:space="preserve">
<path d="M12.372,1.189c-0.456,0.203-0.944,0.339-1.458,0.4c0.524-0.313,0.926-0.812,1.116-1.404
	c-0.49,0.292-1.034,0.502-1.612,0.616C9.955,0.308,9.295,0,8.565,0C7.163,0,6.027,1.136,6.027,2.538
	c0,0.199,0.022,0.393,0.065,0.578C3.983,3.011,2.113,2,0.861,0.465C0.643,0.839,0.518,1.276,0.518,1.741
	c0,0.88,0.448,1.657,1.129,2.113C1.231,3.84,0.839,3.726,0.497,3.536c0,0.01,0,0.021,0,0.031c0,1.23,0.875,2.256,2.036,2.489
	C2.32,6.114,2.096,6.146,1.864,6.146c-0.163,0-0.323-0.016-0.478-0.046c0.323,1.008,1.26,1.742,2.372,1.763
	C2.889,8.543,1.794,8.95,0.605,8.95C0.4,8.95,0.198,8.938,0,8.915c1.123,0.721,2.458,1.139,3.89,1.139
	c4.67,0,7.223-3.867,7.223-7.221c0-0.11-0.003-0.22-0.007-0.329C11.602,2.146,12.031,1.699,12.372,1.189z"/>
</svg>
