<?xml version="1.0" standalone="no"?><!-- Generator: Adobe Fireworks CS6, Export SVG Extension by Aaron Beall (http://fireworks.abeall.com) . Version: 0.6.1  --><!DOCTYPE svg PUBLIC "-//W3C//DTD SVG 1.1//EN" "http://www.w3.org/Graphics/SVG/1.1/DTD/svg11.dtd"><svg id="Untitled-Page%201" viewBox="0 0 640 536" style="background-color:#ffffff00" version="1.1"	xmlns="http://www.w3.org/2000/svg" xmlns:xlink="http://www.w3.org/1999/xlink" xml:space="preserve"	x="0px" y="0px" width="640px" height="536px">	<g>		<g>			<path d="M 106.7626 284.3129 L 8.8384 349.1086 L 0 335.7591 L 97.9241 270.9636 L 106.7626 284.3129 Z" fill="#000000"/>			<path d="M 124.4391 311.0117 L 26.5151 375.8073 L 17.6767 362.458 L 115.6007 297.6624 L 124.4391 311.0117 Z" fill="#000000"/>			<path d="M 212.8226 444.5056 L 114.8984 509.301 L 106.0601 495.952 L 203.9843 431.1563 L 212.8226 444.5056 Z" fill="#000000"/>			<path d="M 168.4393 435.4786 L 126.1539 463.4585 L 117.3156 450.1089 L 159.601 422.1289 L 168.4393 435.4786 Z" fill="#000000"/>			<path d="M 150.7628 408.7795 L 108.4772 436.7595 L 99.639 423.4102 L 141.9242 395.4303 L 150.7628 408.7795 Z" fill="#000000"/>			<path d="M 133.0859 382.0809 L 90.8005 410.0605 L 81.9622 396.7115 L 124.2476 368.7316 L 133.0859 382.0809 Z" fill="#000000"/>			<path d="M 115.4092 355.3821 L 73.1238 383.3618 L 64.2855 370.0126 L 106.5709 342.0327 L 115.4092 355.3821 Z" fill="#000000"/>			<path d="M 230.499 471.2043 L 132.5752 536 L 123.7369 522.6508 L 221.661 457.8552 L 230.499 471.2043 Z" fill="#000000"/>			<path d="M 451.0836 248.4546 L 408.7985 276.4346 L 399.9601 263.0851 L 442.2456 235.1053 L 451.0836 248.4546 Z" fill="#000000"/>			<path d="M 470.5492 232.375 L 510.8502 205.708 L 507.7998 191.7285 L 458.8676 224.1066 L 470.5492 232.375 Z" fill="#000000"/>			<path d="M 433.4072 221.7558 L 391.1217 249.7358 L 382.2836 236.3864 L 424.5687 208.4064 L 433.4072 221.7558 Z" fill="#000000"/>			<path d="M 445.123 214.0037 L 503.8678 175.1326 L 499.3394 158.9315 L 431.9707 203.5086 L 445.123 214.0037 Z" fill="#000000"/>			<path d="M 443.149 157.7168 L 364.6068 209.6876 L 373.4448 223.0371 L 415.7308 195.0571 L 409.2682 185.2964 L 419.2982 192.6963 L 455.2416 168.9131 L 443.149 157.7168 Z" fill="#000000"/>			<path d="M 454.4537 153.4363 L 458.3893 166.8299 L 494.4752 142.9521 L 491.1954 130.178 L 498.0758 140.5698 L 540.3612 112.5898 L 532.9956 101.4653 L 454.4537 153.4363 Z" fill="#000000"/>			<path d="M 416.3954 137.0241 L 346.9301 182.989 L 355.7684 196.3382 L 429.4844 147.5609 L 416.3954 137.0241 Z" fill="#000000"/>			<path d="M 575.7147 165.9875 L 533.4288 193.9673 L 524.5908 180.618 L 566.876 152.638 L 575.7147 165.9875 Z" fill="#000000"/>			<path d="M 558.038 139.2886 L 515.7524 167.2686 L 506.9141 153.9191 L 549.1996 125.9393 L 558.038 139.2886 Z" fill="#000000"/>			<path d="M 445.8529 120.7321 L 449.7832 134.1293 L 522.6842 85.8911 L 515.3192 74.7667 L 445.8529 120.7321 Z" fill="#000000"/>			<path d="M 640 200.2409 L 568.7826 247.365 L 559.9442 234.0154 L 631.1616 186.8914 L 640 200.2409 Z" fill="#000000"/>			<path d="M 486.4374 301.8521 L 415.2198 348.9763 L 406.3812 335.6269 L 477.599 288.5027 L 486.4374 301.8521 Z" fill="#000000"/>			<path d="M 524.3439 273.5703 L 527.7621 271.3083 L 524.7056 257.3328 L 512.6636 265.301 L 524.3439 273.5703 Z" fill="#000000"/>			<path d="M 620.0977 175.0146 L 551.1056 220.6662 L 542.2676 207.3168 L 611.2593 161.6653 L 620.0977 175.0146 Z" fill="#000000"/>			<path d="M 468.7604 275.1535 L 397.543 322.2776 L 388.7046 308.928 L 459.9225 261.804 L 468.7604 275.1535 Z" fill="#000000"/>			<path d="M 497.4471 252.9722 L 519.3068 238.5076 L 516.2485 224.5332 L 485.7656 244.7037 L 497.4471 252.9722 Z" fill="#000000"/>			<path d="M 427.9883 52.5624 L 432.584 68.7195 L 516.2628 13.3493 L 507.4248 0 L 427.9883 52.5624 Z" fill="#000000"/>			<path d="M 361.9066 96.2883 L 282.6447 148.7354 L 291.4828 162.0848 L 375.1621 106.7149 L 361.9066 96.2883 Z" fill="#000000"/>			<path d="M 436.5957 85.2624 L 441.1836 101.4243 L 533.9398 40.0482 L 525.1017 26.6989 L 436.5957 85.2624 Z" fill="#000000"/>			<path d="M 388.8346 116.8655 L 300.3213 175.4343 L 309.1595 188.7835 L 401.9146 127.4084 L 388.8346 116.8655 Z" fill="#000000"/>			<path d="M 226.6866 281.7507 L 184.401 309.7305 L 175.5629 296.3813 L 217.8483 268.4013 L 226.6866 281.7507 Z" fill="#000000"/>			<path d="M 279.7164 361.847 L 237.4313 389.8269 L 228.5928 376.4773 L 270.8784 348.4977 L 279.7164 361.847 Z" fill="#000000"/>			<path d="M 122.3412 274.0046 L 260.7202 182.4402 C 241.4642 180.4947 220.2838 189.999 200.9237 202.8095 L 197.1256 205.3228 L 113.5029 260.6552 L 122.3412 274.0046 Z" fill="#000000"/>			<path d="M 132.6527 289.5789 L 282.8431 190.1989 C 285.9408 191.6292 290.9022 194.5916 294.6556 198.3809 L 140.0179 300.7034 L 132.6527 289.5789 Z" fill="#000000"/>			<path d="M 210.9164 349.7787 L 318.3623 278.6826 C 323.9779 278.5443 334.8822 280.7208 340.7018 283.0983 L 219.7545 363.1283 L 210.9164 349.7787 Z" fill="#000000"/>			<path d="M 261.6068 242.6462 L 306.0277 213.2531 C 309.1022 217.8575 311.0381 221.6724 312.0308 225.279 L 268.9718 253.7707 L 261.6068 242.6462 Z" fill="#000000"/>			<path d="M 313.1636 320.5176 L 355.7609 292.3315 C 358.7373 294.3206 363.9849 298.795 367.441 303.8003 L 322.0023 333.867 L 313.1636 320.5176 Z" fill="#000000"/>			<path d="M 219.5629 420.8476 L 375.6039 317.5969 C 377.1598 321.1415 378.9996 331.957 378.8361 334.6557 L 228.4017 434.1973 L 219.5629 420.8476 Z" fill="#000000"/>			<path d="M 237.2397 447.5466 L 375.7762 355.8779 C 369.9492 373.573 355.1608 388.717 335.8068 401.5234 L 329.7008 405.5634 L 246.0781 460.8959 L 237.2397 447.5466 Z" fill="#000000"/>			<path d="M 202.078 336.4294 L 309.6095 265.2764 C 312.0977 258.7221 313.6996 250.2932 314.0092 243.1677 L 193.2396 323.0799 L 202.078 336.4294 Z" fill="#000000"/>		</g>	</g></svg>