<?xml version="1.0" encoding="utf-8"?>
<!-- Generator: Adobe Illustrator 16.0.3, SVG Export Plug-In . SVG Version: 6.00 Build 0)  -->
<!DOCTYPE svg PUBLIC "-//W3C//DTD SVG 1.1//EN" "http://www.w3.org/Graphics/SVG/1.1/DTD/svg11.dtd">
<svg version="1.1" id="Layer_1" xmlns="http://www.w3.org/2000/svg" xmlns:xlink="http://www.w3.org/1999/xlink" x="0px" y="0px"
	 width="56.74px" height="22.5px" viewBox="0 0 56.74 22.5" enable-background="new 0 0 56.74 22.5" xml:space="preserve">
<rect x="-0.001" fill="#E6E6E6" width="11.036" height="1.436"/>
<rect x="-0.001" y="3.016" fill="#E6E6E6" width="11.036" height="1.431"/>
<rect x="3.151" y="6.022" fill="#E6E6E6" width="4.733" height="1.436"/>
<rect x="3.151" y="9.035" fill="#E6E6E6" width="4.733" height="1.43"/>
<rect x="3.151" y="12.039" fill="#E6E6E6" width="4.733" height="1.436"/>
<rect x="3.151" y="15.046" fill="#E6E6E6" width="4.733" height="1.442"/>
<rect x="-0.001" y="18.057" fill="#E6E6E6" width="11.036" height="1.438"/>
<rect x="-0.001" y="21.07" fill="#E6E6E6" width="11.036" height="1.43"/>
<g>
	<path fill="#E6E6E6" d="M12.606,3.016h17.006c0.146,0.26,0.426,1.088,0.49,1.431H12.606V3.016z"/>
	<rect x="15.764" y="6.022" fill="#E6E6E6" width="4.723" height="1.436"/>
	<path fill="#E6E6E6" d="M25.215,6.022h5.042c0.017,0.333-0.121,1.114-0.213,1.436h-4.829V6.022z"/>
	<path fill="#E6E6E6" d="M15.764,12.039H27.91c0.378,0.263,1.003,1.014,1.311,1.436H15.764V12.039z"/>
	<rect x="15.764" y="15.046" fill="#E6E6E6" width="4.723" height="1.442"/>
	<path fill="#E6E6E6" d="M25.215,15.046h4.797c0.104,0.225,0.26,1.128,0.274,1.442h-5.072V15.046z"/>
	<path fill="#E6E6E6" d="M12.606,18.057h17.481c-0.023,0.361-0.294,1.168-0.441,1.438h-17.04V18.057z"/>
	<path fill="#E6E6E6" d="M12.606,21.068h15.807c-1.401,1.176-2.638,1.432-4.809,1.432h-1.563h-9.435V21.068z"/>
	<polygon fill="#E6E6E6" points="31.523,0 40.536,0 41.011,1.436 31.523,1.436 	"/>
	<polygon fill="#E6E6E6" points="31.523,3.016 41.532,3.016 42.005,4.447 31.523,4.447 	"/>
	<polygon fill="#E6E6E6" points="34.674,6.022 42.532,6.022 43.007,7.458 34.674,7.458 	"/>
	<polygon fill="#E6E6E6" points="44.737,9.035 53.587,9.035 53.587,10.465 48.86,10.465 48.86,9.202 48.426,10.465 44.265,10.465 	
		"/>
	<polygon fill="#E6E6E6" points="44.003,10.465 39.837,10.465 39.401,9.197 39.401,10.465 34.674,10.465 34.674,9.035 43.53,9.035 	
		"/>
	<rect x="34.674" y="12.039" fill="#E6E6E6" width="4.729" height="1.436"/>
	<rect x="34.674" y="15.046" fill="#E6E6E6" width="4.729" height="1.442"/>
	<rect x="31.522" y="18.057" fill="#E6E6E6" width="7.879" height="1.438"/>
	<rect x="31.522" y="21.07" fill="#E6E6E6" width="7.879" height="1.43"/>
	<polygon fill="#E6E6E6" points="47.737,0 56.741,0 56.741,1.436 47.255,1.436 	"/>
	<polygon fill="#E6E6E6" points="46.737,3.016 56.741,3.016 56.741,4.447 46.261,4.447 	"/>
	<polygon fill="#E6E6E6" points="45.736,6.022 53.587,6.022 53.587,7.458 45.262,7.458 	"/>
	<rect x="48.86" y="12.039" fill="#E6E6E6" width="4.727" height="1.436"/>
	<rect x="48.86" y="15.046" fill="#E6E6E6" width="4.727" height="1.442"/>
	<rect x="48.86" y="18.057" fill="#E6E6E6" width="7.881" height="1.438"/>
	<rect x="48.86" y="21.07" fill="#E6E6E6" width="7.881" height="1.43"/>
	<polygon fill="#E6E6E6" points="40.37,12.039 47.899,12.039 47.413,13.475 40.858,13.475 	"/>
	<polygon fill="#E6E6E6" points="41.388,15.046 46.879,15.046 46.391,16.488 41.875,16.488 	"/>
	<polygon fill="#E6E6E6" points="42.407,18.057 45.856,18.057 45.371,19.494 42.896,19.494 	"/>
	<polygon fill="#E6E6E6" points="43.429,21.068 44.842,21.068 44.351,22.5 43.915,22.5 	"/>
	<path fill="#E6E6E6" d="M15.764,10.466H27.91c0.395-0.272,1.123-1.029,1.416-1.431H15.764V10.466z"/>
	<path fill="#E6E6E6" d="M12.606,1.437h15.807c-1.401-1.175-2.638-1.431-4.809-1.431h-1.563h-9.435V1.437z"/>
</g>
</svg>
