<?xml version="1.0" encoding="utf-8"?>
<!-- Generator: Adobe Illustrator 16.0.3, SVG Export Plug-In . SVG Version: 6.00 Build 0)  -->
<!DOCTYPE svg PUBLIC "-//W3C//DTD SVG 1.1//EN" "http://www.w3.org/Graphics/SVG/1.1/DTD/svg11.dtd">
<svg version="1.1" id="Layer_1" xmlns="http://www.w3.org/2000/svg" xmlns:xlink="http://www.w3.org/1999/xlink" x="0px" y="0px"
	 width="209.78px" height="52.7px" viewBox="0 0 209.78 52.7" enable-background="new 0 0 209.78 52.7" xml:space="preserve">
<g>
	<path fill="#FFFFFF" d="M0.015,0.005h1.912v20.079H0.015V0.005z"/>
	<path fill="#FFFFFF" d="M5.545,0.005h8.493c3.375,0,6.44,1.182,6.44,4.921c0,2.109-1.406,4.05-3.487,4.5v0.056
		c2.587,0.337,4.246,2.279,4.246,4.893c0,1.914-0.674,5.709-7.199,5.709H5.545V0.005z M7.458,8.808h6.58
		c3.038,0,4.528-1.519,4.528-3.403c0-2.502-1.519-3.768-4.528-3.768h-6.58V8.808z M7.458,18.454h6.58
		c2.84,0,5.288-0.872,5.288-4.134c0-2.587-1.913-3.881-5.288-3.881h-6.58V18.454z"/>
	<path fill="#FFFFFF" d="M23.872,0.005h2.812L33.63,17.61l6.918-17.605h2.812v20.079h-1.913V2.733h-0.056l-6.862,17.351H32.73
		L25.839,2.733h-0.056v17.351h-1.912V0.005z"/>
	<path fill="#95C11F" d="M52.247,0.005h6.215l4.697,13.808h0.056l4.444-13.808h6.214v20.079h-4.133V5.855h-0.056l-4.921,14.229
		h-3.403L56.438,5.996h-0.056v14.088h-4.135V0.005z"/>
	<path fill="#95C11F" d="M76.405,10.016c0.226-3.711,3.572-4.864,6.834-4.864c2.897,0,6.384,0.647,6.384,4.134v7.565
		c0,1.321,0.141,2.643,0.506,3.233H86.08c-0.141-0.449-0.253-0.927-0.282-1.406c-1.265,1.322-3.094,1.801-4.893,1.801
		c-2.785,0-4.95-1.378-4.95-4.358c0.056-6.61,9.842-3.066,9.674-6.328c0-1.688-1.181-1.969-2.587-1.969
		c-1.546,0-2.503,0.619-2.644,2.193H76.405z M85.629,12.969c-0.675,0.591-2.081,0.619-3.318,0.844
		c-1.238,0.226-2.362,0.675-2.362,2.137c0,1.462,1.153,1.856,2.447,1.856c3.122,0,3.234-2.446,3.234-3.346V12.969z"/>
	<path fill="#95C11F" d="M92.183,5.545h3.796v2.7h0.056c0.76-1.829,2.644-3.094,4.641-3.094c0.309,0,0.591,0.056,0.872,0.141v3.712
		c-0.366-0.084-0.956-0.14-1.434-0.14c-2.953,0-3.937,2.08-3.937,4.667v6.552h-3.993V5.545z"/>
	<path fill="#95C11F" d="M102.678,0.005h3.994v10.771l5.033-5.23h4.725l-5.482,5.343l6.102,9.195h-4.838l-3.992-6.496l-1.547,1.49
		v5.006h-3.994V0.005z"/>
	<path fill="#95C11F" d="M120.311,13.786c0.113,2.558,1.322,3.684,3.572,3.684c1.602,0,2.896-0.985,3.15-1.884h3.514
		c-1.123,3.459-3.514,4.894-6.805,4.894c-4.584,0-7.424-3.15-7.424-7.65c0-4.358,3.008-7.677,7.424-7.677
		c4.949,0,7.368,4.162,7.059,8.634H120.311z M126.808,11.254c-0.366-2.025-1.237-3.093-3.179-3.093
		c-2.587,0-3.234,1.968-3.318,3.093H126.808z"/>
	<path fill="#95C11F" d="M137.579,5.545h2.925v2.671h-2.925v7.2c0,1.35,0.337,1.687,1.687,1.687c0.451,0,0.873-0.028,1.238-0.112
		v3.121c-0.675,0.112-1.548,0.141-2.334,0.141c-2.477,0-4.584-0.534-4.584-3.458V8.217h-2.419V5.545h2.419V1.187h3.993V5.545z"/>
	<path fill="#95C11F" d="M146.544,3.295h-3.993V0.005h3.993V3.295z M142.551,5.545h3.993v14.539h-3.993V5.545z"/>
	<path fill="#95C11F" d="M149.135,5.545h3.796V7.57h0.085c1.012-1.659,2.756-2.419,4.443-2.419c4.246,0,5.314,2.391,5.314,5.991
		v8.942h-3.993v-8.211c0-2.391-0.675-3.571-2.56-3.571c-2.164,0-3.092,1.208-3.092,4.162v7.62h-3.994V5.545z"/>
	<path fill="#95C11F" d="M178.916,19.157c0,2.39-0.871,6.44-7.535,6.44c-2.869,0-6.188-1.379-6.414-4.668h3.967
		c0.365,1.49,1.547,1.997,2.98,1.997c2.222,0,3.234-1.491,3.207-3.6v-1.913h-0.057c-0.873,1.547-2.588,2.25-4.359,2.25
		c-4.387,0-6.216-3.319-6.216-7.312c0-3.769,2.194-7.199,6.243-7.199c1.913,0,3.348,0.647,4.332,2.334h0.057v-1.94h3.795V19.157z
		 M175.121,12.632c0-2.362-0.816-4.471-3.404-4.471c-2.25,0-3.234,1.968-3.234,4.134c0,2.08,0.76,4.358,3.234,4.358
		C173.996,16.653,175.121,14.714,175.121,12.632z"/>
	<path fill="#95C11F" d="M0.004,27.503h15.018v3.713H4.42v4.303h9.73v3.432H4.42v4.921h10.827v3.712H0.004V27.503z"/>
	<path fill="#95C11F" d="M21.427,39.934l-4.781-6.89h4.555l2.56,3.796l2.531-3.796h4.415l-4.78,6.805l5.371,7.734h-4.555
		l-3.038-4.584l-3.037,4.584h-4.472L21.427,39.934z"/>
	<path fill="#95C11F" d="M32.361,33.044h3.797v1.857h0.055c0.984-1.576,2.532-2.252,4.332-2.252c4.555,0,6.609,3.686,6.609,7.818
		c0,3.881-2.11,7.509-6.384,7.509c-1.771,0-3.375-0.759-4.359-2.192h-0.057V52.7h-3.993V33.044z M43.16,40.354
		c0-2.333-0.929-4.695-3.487-4.695c-2.616,0-3.46,2.334-3.46,4.695c0,2.363,0.9,4.613,3.488,4.613
		C42.317,44.968,43.16,42.718,43.16,40.354z"/>
	<path fill="#95C11F" d="M52.345,41.284c0.112,2.559,1.322,3.684,3.572,3.684c1.603,0,2.896-0.985,3.149-1.884h3.515
		c-1.125,3.459-3.515,4.893-6.805,4.893c-4.583,0-7.424-3.149-7.424-7.649c0-4.359,3.009-7.678,7.424-7.678
		c4.949,0,7.368,4.162,7.058,8.635H52.345z M58.84,38.753c-0.365-2.025-1.237-3.094-3.176-3.094c-2.588,0-3.235,1.969-3.319,3.094
		H58.84z"/>
	<path fill="#95C11F" d="M64.353,33.044h3.796v2.699h0.057c0.759-1.828,2.644-3.094,4.64-3.094c0.309,0,0.591,0.057,0.872,0.142
		v3.712c-0.366-0.084-0.956-0.141-1.435-0.141c-2.953,0-3.938,2.08-3.938,4.668v6.553h-3.993V33.044z"/>
	<path fill="#95C11F" d="M78.892,30.794H74.9v-3.291h3.992V30.794z M74.9,33.044h3.992v14.539H74.9V33.044z"/>
	<path fill="#95C11F" d="M84.404,41.284c0.112,2.559,1.323,3.684,3.572,3.684c1.603,0,2.897-0.985,3.149-1.884h3.516
		c-1.124,3.459-3.516,4.893-6.805,4.893c-4.584,0-7.425-3.149-7.425-7.649c0-4.359,3.009-7.678,7.425-7.678
		c4.949,0,7.368,4.162,7.059,8.635H84.404z M90.901,38.753c-0.365-2.025-1.238-3.094-3.178-3.094c-2.587,0-3.234,1.969-3.319,3.094
		H90.901z"/>
	<path fill="#95C11F" d="M96.694,33.044h3.797v2.024h0.084c1.012-1.659,2.756-2.419,4.444-2.419c4.246,0,5.313,2.392,5.313,5.99
		v8.943h-3.992v-8.212c0-2.391-0.675-3.571-2.56-3.571c-2.166,0-3.093,1.209-3.093,4.162v7.621h-3.994V33.044z"/>
	<path fill="#95C11F" d="M122.174,38.162c-0.253-1.659-1.236-2.503-2.953-2.503c-2.559,0-3.402,2.587-3.402,4.725
		c0,2.109,0.816,4.584,3.318,4.584c1.884,0,2.925-1.152,3.178-2.953h3.853c-0.534,3.854-3.149,5.962-7.001,5.962
		c-4.389,0-7.342-3.093-7.342-7.452c0-4.528,2.7-7.875,7.425-7.875c3.431,0,6.608,1.801,6.833,5.513H122.174z"/>
	<path fill="#95C11F" d="M131.232,41.284c0.112,2.559,1.322,3.684,3.572,3.684c1.603,0,2.896-0.985,3.15-1.884h3.514
		c-1.124,3.459-3.514,4.893-6.805,4.893c-4.584,0-7.425-3.149-7.425-7.649c0-4.359,3.009-7.678,7.425-7.678
		c4.949,0,7.368,4.162,7.059,8.635H131.232z M137.729,38.753c-0.365-2.025-1.236-3.094-3.178-3.094
		c-2.587,0-3.233,1.969-3.318,3.094H137.729z"/>
	<path fill="#95C11F" d="M149.457,27.503h4.414v16.368h9.787v3.712h-14.201V27.503z"/>
	<path fill="#95C11F" d="M165.093,37.515c0.226-3.711,3.571-4.865,6.833-4.865c2.898,0,6.385,0.648,6.385,4.135v7.564
		c0,1.322,0.141,2.645,0.506,3.234h-4.049c-0.141-0.449-0.254-0.928-0.281-1.406c-1.266,1.322-3.094,1.8-4.894,1.8
		c-2.784,0-4.95-1.378-4.95-4.358c0.057-6.609,9.844-3.065,9.674-6.328c0-1.688-1.182-1.969-2.586-1.969
		c-1.548,0-2.504,0.619-2.645,2.193H165.093z M174.316,40.468c-0.674,0.591-2.08,0.619-3.317,0.844
		c-1.237,0.227-2.362,0.676-2.362,2.138s1.152,1.856,2.447,1.856c3.121,0,3.232-2.447,3.232-3.348V40.468z"/>
	<path fill="#95C11F" d="M180.842,27.503h3.994v7.312h0.056c0.984-1.49,2.784-2.166,4.585-2.166c2.896,0,6.018,2.336,6.018,7.65
		s-3.121,7.677-6.018,7.677c-2.139,0-3.91-0.646-4.781-2.249h-0.057v1.855h-3.797V27.503z M188.098,35.659
		c-2.361,0-3.402,2.194-3.402,4.668c0,2.418,1.041,4.641,3.402,4.641c2.363,0,3.404-2.223,3.404-4.641
		C191.502,37.854,190.461,35.659,188.098,35.659z"/>
	<path fill="#95C11F" d="M200.106,42.858c0,1.716,1.519,2.447,3.065,2.447c1.125,0,2.615-0.45,2.615-1.856
		c0-1.209-1.688-1.659-4.527-2.25c-2.334-0.534-4.612-1.294-4.612-3.881c0-3.712,3.206-4.669,6.327-4.669
		c3.15,0,6.104,1.069,6.412,4.641h-3.797c-0.111-1.547-1.293-1.969-2.728-1.969c-0.899,0-2.222,0.141-2.222,1.351
		c0,1.435,2.277,1.63,4.527,2.165c2.335,0.534,4.612,1.378,4.612,4.078c0,3.824-3.346,5.062-6.636,5.062
		c-3.375,0-6.694-1.265-6.834-5.118H200.106z"/>
</g>
</svg>
