<?xml version="1.0" encoding="utf-8"?>
<!-- Generator: Adobe Illustrator 16.0.0, SVG Export Plug-In . SVG Version: 6.00 Build 0)  -->
<!DOCTYPE svg PUBLIC "-//W3C//DTD SVG 1.1//EN" "http://www.w3.org/Graphics/SVG/1.1/DTD/svg11.dtd">
<svg version="1.1" xmlns="http://www.w3.org/2000/svg" xmlns:xlink="http://www.w3.org/1999/xlink" x="0px" y="0px" width="512px"
	 height="512px" viewBox="0 0 512 512" enable-background="new 0 0 512 512" xml:space="preserve">
<g id="Layer_1" display="none">
	<g display="inline">
		<polyline fill="#414141" points="49.356,49.482 462.431,462.557 462.533,462.453 49.46,49.379 		"/>
		<polyline fill="#414141" points="462.43,49.379 49.356,462.452 49.46,462.557 462.533,49.482 		"/>
		<polyline fill="#414141" points="43.224,69.151 468.885,69.151 468.885,69.005 43.224,69.005 		"/>
		<polyline fill="#414141" points="43.348,256.041 468.548,256.041 468.548,255.894 43.348,255.894 		"/>
		<polyline fill="#414141" points="43.234,335.064 468.668,335.064 468.668,334.918 43.234,334.918 		"/>
		<polyline fill="#414141" points="43.245,177.018 468.668,177.018 468.668,176.871 43.245,176.871 		"/>
		<polyline fill="#414141" points="68.957,43.138 68.957,468.798 69.104,468.798 69.104,43.138 		"/>
		<polyline fill="#414141" points="176.851,43.359 176.847,468.782 176.993,468.782 176.997,43.359 		"/>
		<polyline fill="#414141" points="255.872,43.4 255.872,468.564 256.019,468.564 256.019,43.4 		"/>
		<polyline fill="#414141" points="442.81,43.201 442.81,468.862 442.957,468.862 442.957,43.201 		"/>
		<polyline fill="#414141" points="43.115,442.955 468.774,442.955 468.774,442.809 43.115,442.809 		"/>
		<polyline fill="#414141" points="334.865,43.276 334.865,468.705 335.012,468.705 335.012,43.276 		"/>
		<g>
			<path fill="#414141" d="M334.979,255.967h-0.074c0,21.805-8.838,41.544-23.127,55.833s-34.028,23.126-55.832,23.126
				c-21.805,0-41.544-8.837-55.833-23.126s-23.126-34.028-23.126-55.833c0-21.804,8.837-41.543,23.126-55.832
				s34.028-23.126,55.833-23.126c21.804,0,41.543,8.837,55.832,23.126s23.127,34.028,23.127,55.832H334.979h0.076
				c0-43.69-35.419-79.108-79.109-79.108c-43.691,0-79.109,35.418-79.109,79.108c0,43.692,35.418,79.109,79.109,79.109
				c43.69,0,79.109-35.417,79.109-79.109H334.979z"/>
		</g>
		<g>
			<path fill="#414141" d="M442.798,255.968h-0.074c0,51.577-20.905,98.271-54.706,132.071
				c-33.802,33.801-80.494,54.707-132.072,54.707s-98.273-20.906-132.074-54.707c-33.8-33.801-54.706-80.494-54.706-132.071
				c0-51.578,20.906-98.273,54.706-132.072c33.801-33.801,80.494-54.706,132.074-54.706c51.578,0,98.271,20.905,132.072,54.706
				c33.801,33.799,54.706,80.494,54.706,132.072H442.798h0.073c0-103.236-83.689-186.926-186.926-186.926
				c-103.237,0-186.926,83.689-186.926,186.926c0,103.235,83.688,186.925,186.926,186.925c103.236,0,186.926-83.689,186.926-186.925
				H442.798z"/>
			<path fill="#414141" d="M367.674,255.968H367.6c0,30.833-12.497,58.747-32.702,78.952c-20.207,20.205-48.12,32.703-78.952,32.703
				c-30.834,0-58.746-12.498-78.953-32.703c-20.204-20.205-32.702-48.119-32.702-78.952s12.498-58.745,32.702-78.952
				c20.207-20.205,48.119-32.702,78.953-32.702c30.832,0,58.745,12.497,78.952,32.702c20.205,20.207,32.702,48.119,32.702,78.952
				H367.674h0.072c0-61.745-50.055-111.802-111.801-111.802c-61.747,0-111.801,50.057-111.801,111.802
				S194.198,367.77,255.945,367.77c61.746,0,111.801-50.057,111.801-111.802H367.674z"/>
		</g>
		<g>
			<path fill="#414141" d="M468.543,381.117h-0.125c0,24.014-9.823,45.844-25.65,61.672c-15.828,15.828-37.659,25.652-61.673,25.652
				H130.796c-24.015,0-45.845-9.824-61.673-25.652c-15.827-15.828-25.651-37.658-25.651-61.672V130.818
				c0-24.015,9.824-45.845,25.651-61.673c15.828-15.827,37.658-25.651,61.673-25.651h250.299c24.014,0,45.845,9.824,61.673,25.651
				c15.827,15.828,25.65,37.658,25.65,61.673v250.299H468.543h0.125V130.818c0-48.167-39.407-87.573-87.573-87.574l0,0H130.796l0,0
				c-48.167,0.001-87.573,39.407-87.574,87.574l0,0v250.299l0,0c0.001,48.166,39.407,87.573,87.574,87.574h250.299
				c48.166-0.001,87.573-39.408,87.573-87.574H468.543z"/>
		</g>
	</g>
</g>
<g id="Layer_4" display="none">
	<text transform="matrix(1 0 0 1 1132.4805 386)" display="inline" font-family="'HelveticaNeueLTStd-Roman'" font-size="512">Hoxp</text>
	<g display="inline">
		<g>
			<path d="M256,489.5h133.5c25.592,0,51.185-9.763,70.711-29.289S489.5,415.092,489.5,389.5V256
				C489.5,384.959,384.959,489.5,256,489.5z"/>
			<path d="M22.5,256v133.5c0,25.592,9.763,51.185,29.29,70.711C71.315,479.737,96.908,489.5,122.5,489.5H256
				C127.042,489.5,22.5,384.959,22.5,256z"/>
			<path d="M256,22.5H122.5c-25.592,0-51.185,9.763-70.71,29.29C32.263,71.315,22.5,96.908,22.5,122.5V256
				C22.5,127.042,127.042,22.5,256,22.5z"/>
			<path d="M460.211,51.79C440.685,32.263,415.092,22.5,389.5,22.5H256c128.959,0,233.5,104.542,233.5,233.5V122.5
				C489.5,96.908,479.737,71.315,460.211,51.79z"/>
			<path d="M256,55C144.99,55,55,144.99,55,256s89.99,201,201,201s201-89.99,201-201S367.01,55,256,55z M256,395.5
				c-77.043,0-139.5-62.457-139.5-139.5c0-77.044,62.457-139.5,139.5-139.5S395.5,178.956,395.5,256
				C395.5,333.043,333.043,395.5,256,395.5z"/>
		</g>
		<polygon fill="#FFFFFF" points="510.891,259.25 510.891,252.75 263.846,252.75 551.747,-35.151 547.151,-39.747 259.25,248.154 
			259.25,1.109 252.75,1.109 252.75,248.154 -35.151,-39.747 -39.747,-35.151 248.154,252.75 1.109,252.75 1.109,259.25 
			248.154,259.25 -39.747,547.15 -35.151,551.747 252.75,263.846 252.75,510.891 259.25,510.891 259.25,263.846 547.151,551.747 
			551.747,547.15 263.846,259.25 		"/>
		<g>
			<rect y="123" fill="#FFFFFF" width="512" height="2"/>
			<rect y="387" fill="#FFFFFF" width="512" height="2"/>
		</g>
		<g>
			<rect x="123" y="7.125" fill="#FFFFFF" width="2" height="512"/>
			<rect x="387" y="7.125" fill="#FFFFFF" width="2" height="512"/>
		</g>
	</g>
</g>
<g id="grid">
	<g>
		<path d="M185.453,123h-78.357l30.088,30.088C150.905,139.988,167.295,129.661,185.453,123z"/>
		<path d="M132.588,157.684L102.5,127.596v78.357C109.161,187.794,119.488,171.405,132.588,157.684z"/>
		<path d="M334.412,350.315l30.088,30.088v-78.357C357.839,320.204,347.512,336.594,334.412,350.315z"/>
		<path d="M102.5,302.046v78.357l30.088-30.088C119.488,336.595,109.161,320.205,102.5,302.046z"/>
		<path d="M364.5,205.954v-78.357l-30.088,30.088C347.512,171.405,357.839,187.795,364.5,205.954z"/>
		<path d="M40.22,385C15.419,348.479,0.688,304.571,0.041,257.25H0V385H40.22z"/>
		<path d="M100.5,116.404v-13.095c-2.316,2.045-4.584,4.143-6.803,6.292L100.5,116.404z"/>
		<path d="M94.041,250.75c0.31-13.548,2.551-26.619,6.459-38.948v-86.207L97.904,123H81.083
			c-29.61,34.42-47.768,78.968-48.542,127.75H94.041z"/>
		<path d="M0,250.75h0.041C0.688,203.428,15.419,159.521,40.22,123H0V250.75z"/>
		<path d="M82.809,121h13.096l-6.803-6.803C86.952,116.416,84.854,118.684,82.809,121z"/>
		<path d="M329.815,153.088L359.904,123h-78.358C299.705,129.661,316.095,139.988,329.815,153.088z"/>
		<path d="M364.5,389.596L361.904,387h-86.208c-12.328,3.907-25.398,6.149-38.946,6.459v61.5
			c48.782-0.774,93.33-18.931,127.75-48.541V389.596z"/>
		<path d="M100.5,391.596l-6.803,6.804c2.219,2.148,4.487,4.247,6.803,6.292V391.596z"/>
		<path d="M425.416,121H467v-0.5c0-24.584-9.014-49.165-27.032-68.372L400.88,91.216C409.85,100.438,418.058,110.402,425.416,121z"
			/>
		<path d="M89.101,393.803L95.903,387H82.809C84.854,389.315,86.952,391.584,89.101,393.803z"/>
		<path d="M102.5,118.404l2.596,2.596h86.206c12.329-3.908,25.4-6.149,38.948-6.459v-61.5c-48.782,0.774-93.33,18.931-127.75,48.541
			V118.404z"/>
		<path d="M377.899,114.197L371.096,121h13.096C382.146,118.684,380.048,116.416,377.899,114.197z"/>
		<path d="M366.5,116.404l6.804-6.804c-2.219-2.149-4.487-4.247-6.804-6.292V116.404z"/>
		<path d="M94.041,257.25h-61.5c0.774,48.782,18.931,93.331,48.542,127.75h16.821l2.597-2.597v-86.206
			C96.592,283.868,94.351,270.798,94.041,257.25z"/>
		<path d="M372.959,250.75h61.5c-0.774-48.782-18.931-93.33-48.541-127.75h-16.822l-2.596,2.596v86.207
			C370.407,224.132,372.649,237.202,372.959,250.75z"/>
		<path d="M100.5,445.916c-10.598-7.358-20.562-15.566-29.784-24.536l-39.088,39.088C50.835,478.486,75.416,487.5,100,487.5h0.5
			V445.916z"/>
		<path d="M102.5,487.5h127.75v-0.041c-47.322-0.646-91.229-15.378-127.75-40.179V487.5z"/>
		<path d="M102.5,60.72c36.521-24.801,80.428-39.532,127.75-40.179V20.5H102.5V60.72z"/>
		<path d="M41.583,121c7.359-10.598,15.567-20.562,24.537-29.784L27.033,52.128C9.015,71.335,0,95.916,0,120.5v0.5H41.583z"/>
		<path d="M100.5,62.083V20.5H100c-24.584,0-49.165,9.015-68.372,27.033L70.716,86.62C79.938,77.65,89.902,69.442,100.5,62.083z"/>
		<path d="M41.583,387H0v0.5c0,24.583,9.015,49.164,27.032,68.371l39.087-39.087C57.15,407.562,48.942,397.599,41.583,387z"/>
		<path d="M137.184,354.911L107.096,385h78.358C167.295,378.339,150.905,368.012,137.184,354.911z"/>
		<path d="M425.416,387c-7.358,10.599-15.566,20.562-24.536,29.784l39.088,39.088C457.986,436.664,467,412.083,467,387.5V387
			H425.416z"/>
		<path d="M366.5,445.916V487.5h0.5c24.584,0,49.165-9.014,68.372-27.032l-39.088-39.088
			C387.062,430.35,377.099,438.558,366.5,445.916z"/>
		<path d="M364.5,447.28c-36.521,24.801-80.429,39.532-127.75,40.179v0.041H364.5V447.28z"/>
		<path d="M105.096,387l-2.596,2.596v16.822c34.42,29.61,78.968,47.767,127.75,48.541v-61.5c-13.548-0.31-26.618-2.552-38.947-6.459
			H105.096z"/>
		<path d="M366.5,391.596v13.097c2.316-2.046,4.585-4.145,6.804-6.293L366.5,391.596z"/>
		<path d="M384.191,387h-13.095l6.803,6.803C380.048,391.584,382.146,389.315,384.191,387z"/>
		<path d="M372.959,257.25c-0.31,13.548-2.552,26.618-6.459,38.947v86.206l2.597,2.597h16.821
			c29.609-34.419,47.767-78.968,48.541-127.75H372.959z"/>
		<path d="M329.815,354.911c-13.722,13.101-30.111,23.428-48.271,30.089h78.359L329.815,354.911z"/>
		<path d="M467,257.25h-0.041c-0.646,47.321-15.378,91.229-40.179,127.75H467V257.25z"/>
		<path d="M364.5,20.5H236.75v0.041c47.321,0.646,91.229,15.378,127.75,40.179V20.5z"/>
		<path d="M361.904,121l2.596-2.596v-16.823c-34.42-29.61-78.968-47.767-127.75-48.541v61.5c13.548,0.31,26.618,2.551,38.947,6.459
			H361.904z"/>
		<path d="M366.5,62.083c10.599,7.359,20.562,15.567,29.784,24.537l39.088-39.088C416.165,29.515,391.583,20.5,367,20.5h-0.5V62.083
			z"/>
		<path d="M426.78,123c24.801,36.521,39.532,80.428,40.179,127.75H467V123H426.78z"/>
	</g>
</g>
<g id="Layer_1_copy" display="none">
	<path display="inline" d="M494.826,246.738l-92.159-125.438h55.808l63.487,92.671l66.047-92.671h52.224l-91.135,121.854
		L651.496,386h-55.808l-73.727-109.566L448.235,386H395.5L494.826,246.738z"/>
</g>
<g id="Layer_3" display="none">
	<path display="inline" fill="#414141" d="M466.29,49.382h-23.331l15.532-15.532l-2.343-2.344l-0.057-0.057l0,0l-2.287-2.288
		l-15.479,15.48V24.787h-3.236h-0.159h-3.235V44.97c-17.066-14.564-39.186-23.372-63.329-23.372H98.4
		c-24.13,0-46.241,8.799-63.304,23.351v-20.23H31.86h-0.158h-3.236v19.95L12.961,29.162l-4.688,4.688l15.533,15.532H3.947v3.236
		v0.158v3.236h20.09C9.499,73.072,0.709,95.172,0.709,119.289v269.966c0,24.131,8.799,46.24,23.351,63.304H3.83v3.235v0.158v3.235
		h19.95L5.996,476.97l4.667,4.711l17.804-17.803v23.184h6.629v-23.466c17.063,14.551,39.174,23.351,63.304,23.351h46.434v0.098
		h6.629v-0.098h163.806v0.015h6.629v-0.015h46.468c24.144,0,46.263-8.807,63.329-23.373v23.558h6.631v-23.229l15.48,15.479
		l2.298,2.3l4.665-4.71l-17.784-17.783h23.187v-6.629h-23.464c14.551-17.063,23.349-39.173,23.349-63.304v-46.436v-6.629V172.354
		v-6.629v-46.436c0-24.117-8.788-46.217-23.326-63.276h23.561V49.382z M459.314,165.725h-20.989V61.349
		c13.585,16.314,20.989,36.586,20.989,57.94V165.725z M236.697,172.425c19.537,0.773,37.854,8.36,52.216,21.628l-52.216,52.216
		V172.425z M230.068,246.271l-52.217-52.218c14.362-13.269,32.68-20.856,52.217-21.628V246.271z M225.38,250.957h-73.845
		c0.773-19.537,8.36-37.855,21.628-52.215L225.38,250.957z M225.379,257.587l-52.215,52.216
		c-13.268-14.36-20.855-32.679-21.628-52.216H225.379z M230.068,262.275v73.842c-19.537-0.771-37.855-8.359-52.216-21.626
		L230.068,262.275z M236.697,262.275l52.216,52.216c-14.361,13.267-32.679,20.854-52.216,21.626V262.275z M241.386,257.587h73.844
		c-0.772,19.536-8.359,37.855-21.628,52.216L241.386,257.587z M241.387,250.957l52.215-52.215
		c13.269,14.361,20.855,32.679,21.628,52.215H241.387z M266.994,172.354h43.619l-17.037,17.037
		C285.86,182.228,276.876,176.424,266.994,172.354z M173.189,189.392l-17.037-17.038h43.62
		C189.89,176.424,180.905,182.229,173.189,189.392z M168.502,194.079c-7.164,7.715-12.968,16.701-17.038,26.583l0-43.619
		L168.502,194.079z M168.502,314.465l-17.039,17.036l0-43.621C155.534,297.764,161.338,306.749,168.502,314.465z M173.19,319.151
		c7.716,7.164,16.703,12.969,26.585,17.039h-43.623L173.19,319.151z M293.576,319.151l17.037,17.039H266.99
		C276.875,332.12,285.86,326.315,293.576,319.151z M298.263,314.465c7.145-7.693,12.938-16.649,17.006-26.501v43.508
		L298.263,314.465z M298.264,194.079l17.005-17.005v43.506C311.2,210.729,305.408,201.772,298.264,194.079z M236.697,165.725
		v-28.595c27.28,0.753,52.979,10.787,73.458,28.595H236.697z M230.068,165.725H156.61c20.48-17.809,46.177-27.842,73.458-28.595
		V165.725z M144.835,250.957h-28.596c0.753-27.281,10.788-52.978,28.597-73.458L144.835,250.957z M144.835,257.587l-0.001,73.458
		c-17.808-20.479-27.842-46.178-28.595-73.458H144.835z M230.068,342.819v28.596c-27.28-0.752-52.978-10.785-73.458-28.596H230.068z
		 M236.697,342.819h73.458c-20.48,17.811-46.178,27.844-73.458,28.596V342.819z M321.897,257.587h28.627
		c-0.752,27.3-10.798,53.012-28.627,73.496V257.587z M321.897,250.957v-73.494c17.827,20.486,27.873,46.197,28.627,73.494H321.897z
		 M321.897,347.474l49.274,49.275c-14.767,14.294-31.369,26.035-49.274,34.985V347.474z M326.616,342.819h84.215
		c-8.951,17.894-20.687,34.484-34.972,49.243L326.616,342.819z M321.897,161.069v-84.26c17.905,8.952,34.508,20.692,49.274,34.985
		L321.897,161.069z M315.269,161.478c-21.07-18.615-48.5-30.188-78.571-30.982V56.094c27.539,0.449,54.159,6.482,78.571,17.563
		V161.478z M230.068,130.496c-30.086,0.794-57.528,12.379-78.603,31.011l0.001-87.837c24.419-11.09,51.051-17.127,78.601-17.576
		V130.496z M144.836,161.039l-49.244-49.245c14.759-14.286,31.35-26.021,49.245-34.971L144.836,161.039z M140.148,165.725H55.933
		c8.951-17.894,20.686-34.484,34.972-49.243L140.148,165.725z M140.618,172.354c-18.631,21.075-30.216,48.517-31.011,78.603H35.203
		c0.449-27.551,6.488-54.183,17.577-78.603H140.618z M109.607,257.587c0.794,30.086,12.38,57.528,31.011,78.604H52.78
		c-11.09-24.42-17.129-51.053-17.578-78.604H109.607z M140.146,342.819l-49.242,49.241c-14.286-14.758-26.021-31.348-34.971-49.241
		H140.146z M144.834,347.508l-0.001,84.213c-17.892-8.952-34.482-20.685-49.24-34.971L144.834,347.508z M326.617,165.725
		l49.243-49.243c14.286,14.758,26.021,31.349,34.972,49.243H326.617z M151.464,347.036c21.074,18.633,48.517,30.219,78.604,31.013
		v74.402c-27.551-0.45-54.184-6.487-78.604-17.578L151.464,347.036z M236.697,378.049c30.071-0.793,57.501-12.367,78.571-30.982
		v87.821c-24.412,11.081-51.032,17.114-78.571,17.563V378.049z M326.148,336.19c18.631-21.075,30.215-48.518,31.01-78.604h74.403
		c-0.449,27.551-6.487,54.184-17.578,78.604H326.148z M357.158,250.957c-0.795-30.086-12.379-57.528-31.01-78.603h87.837
		c11.089,24.419,17.127,51.051,17.576,78.603H357.158z M315.269,66.521c-9.725-4.257-19.837-7.789-30.275-10.508h30.275V66.521z
		 M181.773,56.013c-10.45,2.722-20.572,6.259-30.306,10.523V56.013H181.773z M45.647,172.354
		c-4.279,9.767-7.825,19.923-10.551,30.409v-30.409H45.647z M35.096,305.781c2.726,10.486,6.273,20.643,10.551,30.409H35.096
		V305.781z M151.463,442.006c9.767,4.278,19.923,7.827,30.41,10.553h-30.41L151.463,442.006z M315.269,442.022v10.536h-30.377
		C295.367,449.836,305.511,446.294,315.269,442.022z M321.897,438.992c19.971-9.609,38.146-22.37,53.897-37.622l51.187,51.188
		H321.897V438.992z M380.48,396.684c15.244-15.74,27.998-33.906,37.606-53.864h13.607v105.078L380.48,396.684z M421.118,336.19
		c4.291-9.795,7.847-19.981,10.576-30.498v30.498H421.118z M421.118,172.354h10.576v30.498
		C428.965,192.334,425.409,182.148,421.118,172.354z M375.794,107.173c-15.75-15.252-33.926-28.012-53.896-37.621v-13.54h105.056
		L375.794,107.173z M144.837,69.567c-19.958,9.607-38.123,22.362-53.865,37.606L39.811,56.013h105.026V69.567z M86.285,111.862
		c-15.244,15.741-28,33.906-37.606,53.863H35.096V60.673L86.285,111.862z M28.466,172.354v78.603H7.45v-78.603H28.466z
		 M48.679,342.819c9.606,19.958,22.361,38.123,37.605,53.864l-51.189,51.188V342.819H48.679z M90.973,401.37
		c15.741,15.243,33.904,27.997,53.861,37.605v13.583H39.785L90.973,401.37z M418.087,165.725
		c-9.606-19.957-22.362-38.123-37.605-53.863l51.213-51.214v105.078H418.087z M315.269,49.382h-78.571V28.339h78.571V49.382z
		 M230.068,49.382h-78.601V28.339h78.601V49.382z M28.466,257.587v78.604H7.45v-78.604H28.466z M321.897,49.382V28.339h46.468
		c21.38,0,41.677,7.425,58.002,21.043H321.897z M144.837,49.382H40.399C56.724,35.765,77.02,28.339,98.4,28.339h46.438V49.382z
		 M28.466,165.725H7.45v-46.436c0-21.366,7.414-41.65,21.016-57.97V165.725z M7.45,342.819h21.016v104.406
		C14.864,430.904,7.45,410.621,7.45,389.255V342.819z M144.833,459.188v21.017H98.4c-21.367,0-41.65-7.413-57.971-21.017H144.833z
		 M151.463,459.188h78.605v21.017h-78.605V459.188z M236.697,459.188h78.571v21.017h-78.571V459.188z M321.897,459.188h104.439
		c-16.319,13.604-36.604,21.017-57.972,21.017h-46.468V459.188z M459.314,389.255c0,21.354-7.404,41.625-20.989,57.939V342.819
		h20.989V389.255z M438.325,336.19v-78.604h20.989v78.604H438.325z M438.325,250.957v-78.603h20.989v78.603H438.325z"/>
</g>
</svg>
