<?xml version="1.0" encoding="utf-8"?>
<!-- Generator: Adobe Illustrator 16.0.4, SVG Export Plug-In . SVG Version: 6.00 Build 0)  -->
<!DOCTYPE svg PUBLIC "-//W3C//DTD SVG 1.1//EN" "http://www.w3.org/Graphics/SVG/1.1/DTD/svg11.dtd">
<svg version="1.1" xmlns="http://www.w3.org/2000/svg" xmlns:xlink="http://www.w3.org/1999/xlink" x="0px" y="0px" width="128px"
	 height="128px" viewBox="0 0 128 128" enable-background="new 0 0 128 128" xml:space="preserve">
<g id="Layer_2">
	<g opacity="0.4">
		<g>
			<rect x="50" y="38.831" fill="#666666" width="5" height="5"/>
			<rect x="60" y="38.831" fill="#666666" width="5" height="5"/>
			<rect x="70" y="38.831" fill="#666666" width="5" height="5"/>
			<rect x="80" y="38.831" fill="#666666" width="5" height="5"/>
		</g>
		<rect x="10" y="38.831" fill="#666666" width="5" height="5"/>
		<rect y="38.831" fill="#666666" width="5" height="5"/>
		<rect x="20" y="38.831" fill="#666666" width="5" height="5"/>
		<rect x="30" y="38.831" fill="#666666" width="5" height="5"/>
		<rect x="40" y="38.831" fill="#666666" width="5" height="5"/>
		<rect x="90" y="38.831" fill="#666666" width="5" height="5"/>
	</g>
	<g>
		<g>
			<rect x="50" y="12.831" fill="#333333" width="5" height="5"/>
			<rect x="60" y="12.831" fill="#333333" width="5" height="5"/>
			<rect x="70" y="12.831" fill="#333333" width="5" height="5"/>
			<rect x="80" y="12.831" fill="#333333" width="5" height="5"/>
		</g>
		<rect x="10" y="12.831" fill="#333333" width="5" height="5"/>
		<rect y="12.831" fill="#333333" width="5" height="5"/>
		<rect x="20" y="12.831" fill="#333333" width="5" height="5"/>
		<rect x="30" y="12.831" fill="#333333" width="5" height="5"/>
		<rect x="40" y="12.831" fill="#333333" width="5" height="5"/>
		<rect x="90" y="12.831" fill="#333333" width="5" height="5"/>
	</g>
	<g>
		<polygon fill="#333333" points="0,12.75 0,30.25 5,30.25 5,17.75 17.5,17.75 17.5,12.75 		"/>
		<polygon fill="#333333" points="96,12.75 78.5,12.75 78.5,17.75 91,17.75 91,30.25 96,30.25 		"/>
	</g>
	<g>
		<polygon fill="#333333" points="96,117 96,99.5 91,99.5 91,112 78.5,112 78.5,117 		"/>
		<polygon fill="#333333" points="0,117 17.5,117 17.5,112 5,112 5,99.5 0,99.5 		"/>
	</g>
	<g opacity="0.4">
		<rect x="10" y="112.25" fill="#666666" width="5" height="5"/>
		<rect x="20" y="112.25" fill="#666666" width="5" height="5"/>
		<rect x="30" y="112.25" fill="#666666" width="5" height="5"/>
		<rect x="40" y="112.25" fill="#666666" width="5" height="5"/>
		<rect y="112.25" fill="#666666" width="5" height="5"/>
		<rect x="50" y="112.25" fill="#666666" width="5" height="5"/>
		<rect x="60" y="112.25" fill="#666666" width="5" height="5"/>
		<rect x="70" y="112.25" fill="#666666" width="5" height="5"/>
		<rect x="80" y="112.25" fill="#666666" width="5" height="5"/>
		<rect x="90" y="112.25" fill="#666666" width="5" height="5"/>
	</g>
	<g>
		<g opacity="0.4">
			<rect x="35.75" y="59.75" fill="#666666" width="5" height="5"/>
			<rect x="45.75" y="59.75" fill="#666666" width="5" height="5"/>
			<rect x="55.75" y="59.75" fill="#666666" width="5" height="5"/>
		</g>
		<g opacity="0.4">
			<rect x="45.75" y="69.75" fill="#666666" width="5" height="5"/>
			<rect x="45.75" y="49.75" fill="#666666" width="5" height="5"/>
		</g>
	</g>
	<rect y="112.086" display="none" fill="#333333" width="11.219" height="15.664"/>
</g>
<g id="Layer_1">
	<polygon fill="#333333" points="55.754,86.22 55.754,22.22 39.75,22.22 39.75,86.217 7.75,54.22 7.75,74.833 47.754,114.833 
		87.754,74.833 87.754,54.22 	"/>
	<g display="none">
		<path display="inline" d="M-102.03,17.92v94.248h-11.22V17.92H-102.03z"/>
		<path display="inline" d="M-90.021,43.924h14.388l16.368,23.893l17.028-23.893h13.464L-52.269,75.34l26.4,36.828h-14.389
			L-59.265,83.92l-19.008,28.248h-13.596l25.607-35.904L-90.021,43.924z"/>
	</g>
	<rect x="0" y="-38.75" display="none" fill="#333333" width="96" height="17.845"/>
</g>
</svg>
