<?xml version="1.0" encoding="utf-8"?>
<!-- Generator: Adobe Illustrator 16.0.0, SVG Export Plug-In . SVG Version: 6.00 Build 0)  -->
<!DOCTYPE svg PUBLIC "-//W3C//DTD SVG 1.1//EN" "http://www.w3.org/Graphics/SVG/1.1/DTD/svg11.dtd">
<svg version="1.1" id="Untitled-Page_x25_201" xmlns="http://www.w3.org/2000/svg" xmlns:xlink="http://www.w3.org/1999/xlink"
	 x="0px" y="0px" width="100px" height="100px" viewBox="0 0 100 100" enable-background="new 0 0 100 100" xml:space="preserve">
<path fill="none" d="z"/>
<path d="M50,5c24.813,0,45,20.187,45,45c0,24.812-20.187,45-45,45S5,74.812,5,50C5,25.187,25.187,5,50,5L50,5z M50,0
	C22.388,0,0,22.388,0,50s22.388,50,50,50c27.615,0,50-22.388,50-50S77.615,0,50,0L50,0z"/>
<path fill="none" d="z"/>
<path d="M64.096,77.076L47.572,61.818H30.096V38.217h17.477l16.523-15.293V77.076z"/>
</svg>
