<?xml version="1.0" encoding="utf-8"?>
<!-- Generator: Adobe Illustrator 16.0.0, SVG Export Plug-In . SVG Version: 6.00 Build 0)  -->
<!DOCTYPE svg PUBLIC "-//W3C//DTD SVG 1.1//EN" "http://www.w3.org/Graphics/SVG/1.1/DTD/svg11.dtd">
<svg version="1.1" id="Layer_1" xmlns="http://www.w3.org/2000/svg" xmlns:xlink="http://www.w3.org/1999/xlink" x="0px" y="0px"
	 width="512px" height="512px" viewBox="0 0 512 512" enable-background="new 0 0 512 512" xml:space="preserve">
<path d="M405.863,380.265c-0.002-0.002-0.002-0.003-0.004-0.004L281.602,256l124.258-124.26c0.002-0.001,0.002-0.002,0.004-0.004
	c1.338-1.338,2.305-2.901,2.926-4.566c1.697-4.55,0.729-9.873-2.93-13.532L347.16,54.939c-3.658-3.658-8.98-4.626-13.531-2.928
	c-1.664,0.62-3.229,1.587-4.566,2.924c0,0.001-0.002,0.002-0.004,0.004L204.799,179.2L80.54,54.94
	c-0.001-0.002-0.002-0.002-0.004-0.004c-1.338-1.337-2.901-2.304-4.565-2.924c-4.552-1.699-9.873-0.73-13.532,2.928L3.739,113.64
	c-3.659,3.659-4.627,8.98-2.928,13.531c0.621,1.664,1.588,3.229,2.924,4.566c0.001,0,0.002,0.002,0.004,0.004L128,256L3.739,380.262
	c0,0.001-0.002,0.002-0.003,0.004c-1.337,1.338-2.304,2.901-2.925,4.565c-1.699,4.55-0.73,9.872,2.928,13.532l58.699,58.698
	c3.66,3.659,8.981,4.627,13.532,2.929c1.664-0.621,3.228-1.588,4.566-2.925c0-0.002,0.002-0.003,0.004-0.004L204.8,332.801
	l124.26,124.261c0,0.001,0.002,0.002,0.004,0.003c1.34,1.338,2.902,2.305,4.566,2.926c4.551,1.698,9.873,0.73,13.531-2.929
	l58.697-58.699c3.66-3.659,4.629-8.982,2.93-13.532C408.168,383.166,407.201,381.603,405.863,380.265z"/>
</svg>
