<?xml version="1.0" encoding="utf-8"?>
<!-- Generator: Adobe Illustrator 16.0.0, SVG Export Plug-In . SVG Version: 6.00 Build 0)  -->
<!DOCTYPE svg PUBLIC "-//W3C//DTD SVG 1.1//EN" "http://www.w3.org/Graphics/SVG/1.1/DTD/svg11.dtd">
<svg version="1.1" id="Layer_1" xmlns="http://www.w3.org/2000/svg" xmlns:xlink="http://www.w3.org/1999/xlink" x="0px" y="0px"
	 width="512px" height="512px" viewBox="0 0 512 512" enable-background="new 0 0 512 512" xml:space="preserve">
<path d="M381.338,51.2H108.274C70.725,51.2,40,81.924,40,119.476v273.05C40,430.1,70.725,460.8,108.274,460.8h273.063
	c37.551,0,68.262-30.7,68.262-68.276V119.476C449.6,81.924,418.889,51.2,381.338,51.2z M113.051,405.85l-30.902-30.901
	l102.4-102.399l11.703,11.701L113.051,405.85z M101.349,130.651l11.702-11.702L244.8,225.098l131.75-106.149l11.701,11.702
	L244.8,299.701L101.349,130.651z M376.551,405.85l-83.201-121.6l11.703-11.701l102.398,102.399L376.551,405.85z"/>
</svg>
