<?xml version="1.0" encoding="utf-8"?>
<!-- Generator: Adobe Illustrator 16.0.0, SVG Export Plug-In . SVG Version: 6.00 Build 0)  -->
<!DOCTYPE svg PUBLIC "-//W3C//DTD SVG 1.1//EN" "http://www.w3.org/Graphics/SVG/1.1/DTD/svg11.dtd">
<svg version="1.1" id="Layer_1" xmlns="http://www.w3.org/2000/svg" xmlns:xlink="http://www.w3.org/1999/xlink" x="0px" y="0px"
	 width="100px" height="100px" viewBox="0 0 100 100" enable-background="new 0 0 100 100" xml:space="preserve">
<g id="Layer_2">
</g>
<g id="Layer_2_1_">
</g>
<path d="M70.042,64.869h-50c-1.381,0-2.5-1.119-2.5-2.5s1.119-2.5,2.5-2.5h50c1.381,0,2.5,1.119,2.5,2.5
	S71.423,64.869,70.042,64.869z"/>
<path d="M55.576,82.305c-0.64,0-1.279-0.244-1.768-0.732c-0.977-0.977-0.977-2.56,0-3.536l15.669-15.665l-15.669-15.67
	c-0.977-0.977-0.977-2.56,0-3.535c0.977-0.977,2.559-0.977,3.535,0l17.438,17.438c0.469,0.469,0.732,1.104,0.732,1.768
	s-0.264,1.299-0.732,1.768L57.344,81.572C56.855,82.061,56.216,82.305,55.576,82.305z"/>
<path d="M34.822,68.458c-2.38,6-8.122,9.897-14.822,9.897c-8.822,0-16-7.229-16-16.052c0-8.822,7.178-15.922,16-15.922
	c6.7,0,12.442,4.077,14.822,10.077h4.26c-2.549-8-10.127-14.102-19.082-14.102c-11.045,0-20,8.903-20,19.948
	c0,11.047,8.955,20.078,20,20.078c8.955,0,16.532-5.924,19.081-13.924H34.822z"/>
</svg>
