<?xml version="1.0" encoding="utf-8"?>
<!-- Generator: Adobe Illustrator 16.0.4, SVG Export Plug-In . SVG Version: 6.00 Build 0)  -->
<!DOCTYPE svg PUBLIC "-//W3C//DTD SVG 1.1//EN" "http://www.w3.org/Graphics/SVG/1.1/DTD/svg11.dtd">
<svg version="1.1" id="thm-sprite-test-master.fw-Page_x25_204"
	 xmlns="http://www.w3.org/2000/svg" xmlns:xlink="http://www.w3.org/1999/xlink" x="0px" y="0px" width="512px" height="512px"
	 viewBox="0 0 512 512" enable-background="new 0 0 512 512" xml:space="preserve">
<path fill="none" d="z"/>
<g id="Layer_x25_201">
	<g>
		<path d="M1.5,40.21h201.27v28.751H1.5V40.21z"/>
		<path d="M1.5,97.712h201.27v28.755H1.5V97.712z"/>
		<path d="M59.006,155.218h86.258v28.756H59.006V155.218z"/>
		<path d="M59.006,212.725h86.258v28.755H59.006V212.725z"/>
		<path d="M59.006,270.23h86.258v28.755H59.006V270.23z"/>
		<path d="M59.006,327.736h86.258v28.751H59.006V327.736z"/>
		<path d="M1.5,385.243h201.27v28.751H1.5V385.243z"/>
		<path d="M1.5,442.749h201.27V471.5H1.5V442.749z"/>
		<path d="M231.521,97.712h325.719c2.724,0,3.16,22.193,4.39,28.755H231.521V97.712z"/>
		<path d="M298.61,155.218h86.261v28.756H298.61V155.218z"/>
		<path d="M471.129,155.218h93.383c0.318,0-2.274,28.756-3.99,28.756h-89.393V155.218z"/>
		<path d="M298.61,270.23h221.947c7.081,0,18.775,14.378,24.55,28.755H298.61V270.23z"/>
		<path d="M298.61,327.736h86.261v28.751H298.61V327.736z"/>
		<path d="M471.129,327.736h88.813c1.956,0,4.867,28.751,5.141,28.751h-93.954V327.736z"/>
		<path d="M231.521,385.243h334.608c-0.449,6.925-10.295,28.751-13.047,28.751H231.521V385.243z"/>
		<path d="M231.521,442.749H534.76c-26.231,22.52-54.211,28.751-94.869,28.751h-29.281H231.521V442.749z"/>
		<path d="M586.141,40.21h170.89l8.91,28.751h-179.8V40.21z"/>
		<path d="M586.141,97.712h189.551l8.856,28.755H586.141V97.712z"/>
		<path d="M643.647,155.218H794.43l8.894,28.756H643.647V155.218z"/>
		<path d="M840.519,212.725h167.329v28.755H921.59v-20.09l-11.98,20.09h-82.721L840.519,212.725z"/>
		<path d="M821.984,241.479h-78.029l-14.051-29.768v29.768h-86.257v-28.755h169.464L821.984,241.479z"/>
		<path d="M643.647,270.23h86.257v28.755h-86.257V270.23z"/>
		<path d="M643.647,327.736h86.257v28.751h-86.257V327.736z"/>
		<path d="M586.141,385.243h143.764v28.751H586.141V385.243z"/>
		<path d="M586.141,442.749h143.764V471.5H586.141V442.749z"/>
		<path d="M896.73,40.21h168.623v28.751H887.69L896.73,40.21z"/>
		<path d="M877.984,97.712h187.369v28.755H869.065L877.984,97.712z"/>
		<path d="M859.254,155.218h148.594v28.756H850.344L859.254,155.218z"/>
		<path d="M921.59,270.23h86.258v28.755H921.59V270.23z"/>
		<path d="M921.59,327.736h86.258v28.751H921.59V327.736z"/>
		<path d="M921.59,385.243h143.764v28.751H921.59V385.243z"/>
		<path d="M921.59,442.749h143.764V471.5H921.59V442.749z"/>
		<path d="M753.923,270.23h141.048l-9.114,28.755H763.073L753.923,270.23z"/>
		<path d="M772.996,327.736H875.84l-9.135,28.751h-84.574L772.996,327.736z"/>
		<path d="M792.09,385.243h64.619l-9.089,28.751h-46.358L792.09,385.243z"/>
		<path d="M811.241,442.749h26.46L828.51,471.5h-8.163L811.241,442.749z"/>
		<path d="M298.61,241.479h221.947c7.399,0,21.001-14.378,26.497-28.755H298.61V241.479z"/>
		<path d="M231.521,68.961H534.76c-26.231-22.52-54.211-28.751-94.869-28.751h-29.281H231.521V68.961z"/>
	</g>
</g>
<path fill="none" d="z"/>
</svg>
