<?xml version="1.0" encoding="utf-8"?>
<!-- Generator: Adobe Illustrator 16.0.4, SVG Export Plug-In . SVG Version: 6.00 Build 0)  -->
<!DOCTYPE svg PUBLIC "-//W3C//DTD SVG 1.1//EN" "http://www.w3.org/Graphics/SVG/1.1/DTD/svg11.dtd">
<svg version="1.1" id="thm-sprite-test-master.fw-Page_x25_204"
	 xmlns="http://www.w3.org/2000/svg" xmlns:xlink="http://www.w3.org/1999/xlink" x="0px" y="0px" width="512px" height="512px"
	 viewBox="0 0 512 512" enable-background="new 0 0 512 512" xml:space="preserve">
<path fill="none" d="z"/>
<g id="Layer_x25_201">
	<g>
		<path d="M1.5,265.209h96.27v13.752H1.5V265.209z"/>
		<path d="M1.5,292.713h96.27v13.754H1.5V292.713z"/>
		<path d="M29.006,320.219h41.258v13.754H29.006V320.219z"/>
		<path d="M29.006,347.725h41.258v13.754H29.006V347.725z"/>
		<path d="M29.006,375.23h41.258v13.754H29.006V375.23z"/>
		<path d="M29.006,402.736h41.258v13.752H29.006V402.736z"/>
		<path d="M1.5,430.242h96.27v13.752H1.5V430.242z"/>
		<path d="M1.5,457.748h96.27V471.5H1.5V457.748z"/>
		<path d="M111.521,292.713h155.795c1.303,0,1.512,10.615,2.1,13.754H111.521V292.713z"/>
		<path d="M143.611,320.219h41.26v13.754h-41.26V320.219z"/>
		<path d="M226.129,320.219h44.666c0.152,0-1.088,13.754-1.908,13.754h-42.758V320.219z"/>
		<path d="M143.611,375.23h106.16c3.387,0,8.98,6.877,11.742,13.754H143.611V375.23z"/>
		<path d="M143.611,402.736h41.26v13.752h-41.26V402.736z"/>
		<path d="M226.129,402.736h42.48c0.936,0,2.328,13.752,2.459,13.752h-44.939V402.736z"/>
		<path d="M111.521,430.242h160.047c-0.215,3.312-4.924,13.752-6.24,13.752H111.521V430.242z"/>
		<path d="M111.521,457.748h145.043c-12.547,10.771-25.93,13.752-45.377,13.752h-14.006h-85.66V457.748z"/>
		<path d="M281.141,265.209h81.738l4.262,13.752h-86V265.209z"/>
		<path d="M281.141,292.713h90.664l4.236,13.754h-94.9V292.713z"/>
		<path d="M308.646,320.219h72.121l4.254,13.754h-76.375V320.219z"/>
		<path d="M402.812,347.725h80.035v13.754H441.59v-9.609l-5.73,9.609h-39.566L402.812,347.725z"/>
		<path d="M393.947,361.479h-37.322l-6.721-14.238v14.238h-41.258v-13.754h81.057L393.947,361.479z"/>
		<path d="M308.646,375.23h41.258v13.754h-41.258V375.23z"/>
		<path d="M308.646,402.736h41.258v13.752h-41.258V402.736z"/>
		<path d="M281.141,430.242h68.764v13.752h-68.764V430.242z"/>
		<path d="M281.141,457.748h68.764V471.5h-68.764V457.748z"/>
		<path d="M429.699,265.209h80.654v13.752h-84.979L429.699,265.209z"/>
		<path d="M420.732,292.713h89.621v13.754h-93.887L420.732,292.713z"/>
		<path d="M411.773,320.219h71.074v13.754h-75.336L411.773,320.219z"/>
		<path d="M441.59,375.23h41.258v13.754H441.59V375.23z"/>
		<path d="M441.59,402.736h41.258v13.752H441.59V402.736z"/>
		<path d="M441.59,430.242h68.764v13.752H441.59V430.242z"/>
		<path d="M441.59,457.748h68.764V471.5H441.59V457.748z"/>
		<path d="M361.393,375.23h67.465l-4.359,13.754H365.77L361.393,375.23z"/>
		<path d="M370.516,402.736h49.191l-4.369,13.752h-40.453L370.516,402.736z"/>
		<path d="M379.648,430.242h30.908l-4.348,13.752h-22.174L379.648,430.242z"/>
		<path d="M388.809,457.748h12.656l-4.396,13.752h-3.904L388.809,457.748z"/>
		<path d="M143.611,361.479h106.16c3.539,0,10.045-6.877,12.674-13.754H143.611V361.479z"/>
		<path d="M111.521,278.961h145.043c-12.547-10.771-25.93-13.752-45.377-13.752h-14.006h-85.66V278.961z"/>
	</g>
</g>
<path fill="none" d="z"/>
</svg>
