<?xml version="1.0" encoding="utf-8"?>
<!-- Generator: Adobe Illustrator 16.0.0, SVG Export Plug-In . SVG Version: 6.00 Build 0)  -->
<!DOCTYPE svg PUBLIC "-//W3C//DTD SVG 1.1//EN" "http://www.w3.org/Graphics/SVG/1.1/DTD/svg11.dtd">
<svg version="1.1" id="Layer_1" xmlns="http://www.w3.org/2000/svg" xmlns:xlink="http://www.w3.org/1999/xlink" x="0px" y="0px"
	 width="100px" height="100px" viewBox="0 0 100 100" enable-background="new 0 0 100 100" xml:space="preserve">
<g id="Layer_2">
</g>
<g id="Layer_2_1_">
</g>
<path d="M40,15c19.851,0,36,16.15,36,36c0,19.851-16.149,36-36,36S4,70.851,4,51C4,31.15,20.149,15,40,15 M40,11
	C17.91,11,0,28.91,0,51c0,22.092,17.91,40,40,40s40-17.908,40-40C80,28.91,62.09,11,40,11L40,11z"/>
<path d="M51.187,30.658c-0.925-0.383-1.95,0.055-2.616,0.721l-9.123,9.323h-16.58v23.2h16.579l9.124,8.924
	c0.666,0.666,1.691,0.803,2.616,0.42c0.923-0.383,1.481-1.375,1.481-2.317V32.875C52.668,31.934,52.109,31.041,51.187,30.658z"/>
</svg>
