<?xml version="1.0" encoding="utf-8"?>
<!-- Generator: Adobe Illustrator 16.0.0, SVG Export Plug-In . SVG Version: 6.00 Build 0)  -->
<!DOCTYPE svg PUBLIC "-//W3C//DTD SVG 1.1//EN" "http://www.w3.org/Graphics/SVG/1.1/DTD/svg11.dtd">
<svg version="1.1" id="Layer_1" xmlns="http://www.w3.org/2000/svg" xmlns:xlink="http://www.w3.org/1999/xlink" x="0px" y="0px"
	 width="100px" height="100px" viewBox="0 0 100 100" enable-background="new 0 0 100 100" xml:space="preserve">
<g id="Layer_2">
</g>
<g id="Layer_2_1_">
</g>
<g>
	<path d="M10.304,67.449c-5.55,0-10.061,4.539-10.061,10.088c0,5.564,4.511,10.058,10.061,10.058
		c5.576,0,10.084-4.493,10.084-10.058C20.388,71.988,15.879,67.449,10.304,67.449z"/>
	<path d="M0,38.223v13.209c9.67,0.176,18.664,3.948,25.337,10.641c6.668,6.677,10.858,15.332,11.03,25.001h13.254
		C49.262,60.212,26.86,38.585,0,38.223z"/>
	<path d="M0,12.406v13.206c33.307,0.366,61.824,28.154,62.188,61.462h13.227C75.053,46.245,41.903,12.773,0,12.406z"/>
</g>
</svg>
