<?xml version="1.0" encoding="utf-8"?>
<!-- Generator: Adobe Illustrator 16.0.0, SVG Export Plug-In . SVG Version: 6.00 Build 0)  -->
<!DOCTYPE svg PUBLIC "-//W3C//DTD SVG 1.1//EN" "http://www.w3.org/Graphics/SVG/1.1/DTD/svg11.dtd">
<svg version="1.1" id="Layer_1" xmlns="http://www.w3.org/2000/svg" xmlns:xlink="http://www.w3.org/1999/xlink" x="0px" y="0px"
	 width="100px" height="100px" viewBox="0 0 100 100" enable-background="new 0 0 100 100" xml:space="preserve">
<g id="Layer_2">
</g>
<g id="Layer_2_1_">
</g>
<g>
	<path d="M40,11C17.91,11,0,28.91,0,51c0,22.092,17.91,40,40,40s40-17.908,40-40C80,28.91,62.09,11,40,11z M40,87
		C20.149,87,4,70.85,4,51c0-19.851,16.149-36,36-36s36,16.149,36,36C76,70.85,59.851,87,40,87z"/>
	<path d="M59.445,31.555c-0.977-0.977-2.559-0.977-3.535,0L40,47.465l-15.91-15.91c-0.977-0.977-2.559-0.977-3.535,0
		c-0.977,0.976-0.977,2.559,0,3.535L36.465,51l-15.91,15.91c-0.977,0.977-0.977,2.559,0,3.535c0.488,0.488,1.128,0.732,1.768,0.732
		s1.279-0.244,1.768-0.732L40,54.535l15.91,15.91c0.488,0.488,1.128,0.732,1.768,0.732s1.279-0.244,1.768-0.732
		c0.977-0.977,0.977-2.559,0-3.535L43.535,51l15.91-15.91C60.422,34.114,60.422,32.531,59.445,31.555z"/>
</g>
</svg>
