<?xml version="1.0" encoding="utf-8"?>
<!-- Generator: Adobe Illustrator 15.1.0, SVG Export Plug-In . SVG Version: 6.00 Build 0)  -->
<!DOCTYPE svg PUBLIC "-//W3C//DTD SVG 1.1//EN" "http://www.w3.org/Graphics/SVG/1.1/DTD/svg11.dtd">
<svg version="1.1" id="thm-sprite-test.fw-Page_x25_203_x25_20Copy"
	 xmlns="http://www.w3.org/2000/svg" xmlns:xlink="http://www.w3.org/1999/xlink" x="0px" y="0px" width="32px" height="24px"
	 viewBox="134 78 32 24" enable-background="new 134 78 32 24" xml:space="preserve">
<path fill="none" d="z"/>
<path fill="none" d="z"/>
<g>
	
		<linearGradient id="SVGID_1_" gradientUnits="userSpaceOnUse" x1="-290.8281" y1="341.3545" x2="-290.8281" y2="340.3545" gradientTransform="matrix(32 0 0 -24 9456.5 8270.5)">
		<stop  offset="0" style="stop-color:#E5E5E5"/>
		<stop  offset="1" style="stop-color:#B2B2B2"/>
	</linearGradient>
	<path opacity="0.4" fill="url(#SVGID_1_)" enable-background="new    " d="M138,78h24c2.209,0,4,1.791,4,4v16c0,2.209-1.791,4-4,4
		h-24c-2.209,0-4-1.791-4-4V82C134,79.791,135.791,78,138,78z"/>
	
		<linearGradient id="SVGID_2_" gradientUnits="userSpaceOnUse" x1="-290.2827" y1="340.6592" x2="-290.2827" y2="339.3183" gradientTransform="matrix(30 0 0 -22 8858.5 7570.5)">
		<stop  offset="0" style="stop-color:#595C64"/>
		<stop  offset="1" style="stop-color:#1B1B1C"/>
	</linearGradient>
	<path fill="url(#SVGID_2_)" d="M138,79h24c1.656,0,3,1.343,3,3v16c0,1.657-1.344,3-3,3h-24c-1.657,0-3-1.343-3-3V82
		C135,80.343,136.343,79,138,79z"/>
	
		<linearGradient id="SVGID_3_" gradientUnits="userSpaceOnUse" x1="-272.8501" y1="332.4102" x2="-272.8501" y2="331.4102" gradientTransform="matrix(10 0 0 -12.1334 2879.5 4116.2432)">
		<stop  offset="0" style="stop-color:#000000"/>
		<stop  offset="1" style="stop-color:#333333"/>
	</linearGradient>
	<path opacity="0.8" fill="url(#SVGID_3_)" enable-background="new    " d="M146,84.537c0-1.37,0.891-1.93,1.98-1.245l7.204,4.53
		c1.088,0.685,1.088,1.805,0,2.49l-7.204,4.53c-1.089,0.685-1.98,0.125-1.98-1.245V84.537z"/>
	
		<linearGradient id="SVGID_4_" gradientUnits="userSpaceOnUse" x1="-272.8501" y1="332.4102" x2="-272.8501" y2="331.4092" gradientTransform="matrix(10 0 0 -12.1334 2879.5 4117.1104)">
		<stop  offset="0" style="stop-color:#BBBBBB"/>
		<stop  offset="1" style="stop-color:#F7F7F7"/>
	</linearGradient>
	<path fill="url(#SVGID_4_)" d="M146,85.404c0-1.37,0.891-1.93,1.98-1.245l7.204,4.53c1.088,0.685,1.088,1.805,0,2.49l-7.204,4.53
		c-1.089,0.685-1.98,0.125-1.98-1.245V85.404z"/>
</g>
</svg>
