<?xml version="1.0" standalone="no"?><!-- Generator: Adobe Fireworks CS6, Export SVG Extension by Aaron Beall (http://fireworks.abeall.com) . Version: 0.6.1  --><!DOCTYPE svg PUBLIC "-//W3C//DTD SVG 1.1//EN" "http://www.w3.org/Graphics/SVG/1.1/DTD/svg11.dtd"><svg id="v17e-Primer-assets.fw-fpo%20Copy" viewBox="0 0 450 312" style="background-color:#ffffff00" version="1.1"	xmlns="http://www.w3.org/2000/svg" xmlns:xlink="http://www.w3.org/1999/xlink" xml:space="preserve"	x="0px" y="0px" width="450px" height="312px">	<g id="Layer%201">		<path d="M 450 311 L 0 311 L 0 11 L 450 11 L 450 311 Z" fill="none"/>		<path d="M 450 281 L 0 281 L 0 11 L 450 11 L 450 281 Z" fill="#cfd1d2"/>		<g>			<path d="M 311 312 C 308.4414 312 305.8809 311.0234 303.9297 309.0703 C 301.9766 307.1191 301 304.0586 301 301.5 L 301 141.5 C 301 138.9414 301.9766 136.8809 303.9297 134.9297 C 305.8809 132.9766 308.4414 132 311 132 L 383 132 C 385.5586 132 388.1191 132.9766 390.0703 134.9297 C 392.0234 136.8809 393 138.9414 393 141.5 L 393 301.5 C 393 304.0586 392.0234 307.1191 390.0703 309.0703 C 388.1191 311.0234 385.5586 312 383 312 L 311 312 Z" fill="#221e1f"/>			<path d="M 383 286 L 311 286 L 311 158 L 383 158 L 383 286 Z" fill="#ffffff"/>			<path opacity="0.2" d="M 354 298 C 354 301.8623 350.8623 305 347 305 C 343.1377 305 340 301.8623 340 298 C 340 294.1377 343.1377 291 347 291 C 350.8623 291 354 294.1377 354 298 Z" fill="#ffffff"/>		</g>		<g>			<path d="M 269 295 C 269 299.0938 267.4375 303.6895 264.3125 306.8125 C 261.1895 309.9375 257.0938 312 253 312 L 73 312 C 68.9063 312 64.8105 309.9375 61.6875 306.8125 C 58.5625 303.6895 57 299.0938 57 295 L 57 15 C 57 10.9063 58.5625 7.3105 61.6875 4.1875 C 64.8105 1.0625 68.9063 0 73 0 L 253 0 C 257.0938 0 261.1895 1.0625 264.3125 4.1875 C 267.4375 7.3105 269 10.9063 269 15 L 269 295 Z" fill="#221e1f"/>			<path opacity="0.2" d="M 170.5547 293.334 C 170.5547 297.75 166.9707 301.334 162.5547 301.334 C 158.1367 301.334 154.5547 297.75 154.5547 293.334 C 154.5547 288.918 158.1367 285.334 162.5547 285.334 C 166.9707 285.334 170.5547 288.918 170.5547 293.334 Z" fill="#ffffff"/>			<path d="M 253 276 L 73 276 L 73 36 L 253 36 L 253 276 Z" fill="#ffffff"/>		</g>	</g></svg>