<?xml version="1.0" standalone="no"?><!-- Generator: Adobe Fireworks CS6, Export SVG Extension by Aaron Beall (http://fireworks.abeall.com) . Version: 0.6.1  --><!DOCTYPE svg PUBLIC "-//W3C//DTD SVG 1.1//EN" "http://www.w3.org/Graphics/SVG/1.1/DTD/svg11.dtd"><svg id="v17e-Primer-b.fw-s0-e" viewBox="0 0 200 200" style="background-color:#ffffff00" version="1.1"	xmlns="http://www.w3.org/2000/svg" xmlns:xlink="http://www.w3.org/1999/xlink" xml:space="preserve"	x="0px" y="0px" width="200px" height="200px">	<defs>		<clipPath id="mask1">			<path d="M 0 200 L 200 200 L 200 0 L 0 0 L 0 200 Z" fill="none"/>		</clipPath>		<clipPath id="mask2">			<path d="M 0 200 L 200 200 L 200 0 L 0 0 L 0 200 Z" fill="none"/>		</clipPath>	</defs>	<g id="Layer%2013">	</g>	<g id="Masthead2">		<image x="0" y="0" width="200" height="200" xlink:href="v17e-Primer-b.fw.images/image6.png"/>		<path d="M 157 54 L 44 54 L 44 124 L 157 124 L 157 54 Z" fill="#ffffff"/>			<path d="M 0 200 L 200 200 L 200 0 L 0 0 L 0 200 Z" fill="none"/>		<g clip-path="url(#mask1)">			<g>				<path d="M 32.0566 137 C 27.5156 137 21.5195 135.291 18.9434 134.1211 C 18.8311 134.0703 19 133.9414 19 133.8184 L 19 129.0254 C 19 128.8535 18.6572 129 18.8301 129 L 181.3496 129 C 181.5234 129 182 128.8535 182 129.0254 L 182 133.8184 C 182 133.9414 181.7598 134.0703 181.6484 134.1211 C 179.0703 135.291 172.6641 137 168.124 137 L 32.0566 137 Z" fill="#302e2f"/>				<path d="M 112 129 L 112 129.8945 C 112 130.7598 110.791 131 109.9258 131 L 90.3613 131 C 89.4961 131 89 130.7598 89 129.8945 L 89 129 L 19 129 L 19 134 L 181 134 L 181 129 L 112 129 Z" fill="#57585a"/>				<path d="M 129 66.7129 C 129 64.6973 127.6055 63 125.5889 63 L 74.5908 63 C 72.5742 63 71 64.6973 71 66.7129 L 71 146.3096 C 71 148.3271 72.5742 150 74.5908 150 L 125.5889 150 C 127.6055 150 129 148.3271 129 146.3096 L 129 66.7129 Z" fill="#000000"/>			</g>		</g>		<path d="M 127 142 L 74 142 L 74 71 L 127 71 L 127 142 Z" fill="#ffffff"/>			<path d="M 0 200 L 200 200 L 200 0 L 0 0 L 0 200 Z" fill="none"/>		<g clip-path="url(#mask2)">			<g>				<path d="M 100.8984 145 L 99.6172 145 C 99.2715 145 98.8984 144.8955 98.8984 145.2422 L 98.8984 146.1855 C 98.8984 146.5332 99.2715 147 99.6172 147 L 100.5605 147 C 100.9072 147 100.8984 146.5332 100.8984 146.1855 L 100.8984 145.2422 C 100.8984 144.8955 100.9072 145 100.5605 145 L 100.5605 145 M 100.5605 144.8896 C 100.7559 144.8896 100.9141 145.0488 100.9141 145.2422 L 100.9141 146.1855 C 100.9141 146.3809 100.7559 146.54 100.5605 146.54 L 99.6172 146.54 C 99.4219 146.54 99.2646 146.3809 99.2646 146.1855 L 99.2646 145.2422 C 99.2646 145.0488 99.4219 144.8896 99.6172 144.8896 L 100.5605 144.8896 Z" fill="#969797"/>				<path d="M 102.4277 145.7148 C 102.4277 147.0059 101.3809 148.0527 100.0898 148.0527 C 98.7988 148.0527 97.752 147.0059 97.752 145.7148 C 97.752 144.4238 98.7988 143.377 100.0898 143.377 C 101.3809 143.377 102.4277 144.4238 102.4277 145.7148 L 102.4277 145.7148 Z" fill="#969797"/>				<path d="M 113 109.96 C 113 107.9453 111.6543 106 109.6387 106 L 90.541 106 C 88.5254 106 87 107.9453 87 109.96 L 87 157.3096 C 87 159.3271 88.5254 161 90.541 161 L 109.6387 161 C 111.6543 161 113 159.3271 113 157.3096 L 113 109.96 Z" fill="#000000"/>				<path d="M 100.8984 156 L 99.6172 156 C 99.2715 156 98.8984 155.7822 98.8984 156.1279 L 98.8984 157.0723 C 98.8984 157.418 99.2715 158 99.6172 158 L 100.5605 158 C 100.9072 158 100.8984 157.418 100.8984 157.0723 L 100.8984 156.1279 C 100.8984 155.7822 100.9072 156 100.5605 156 L 100.5605 156 M 100.5605 155.7754 C 100.7559 155.7754 100.9141 155.9346 100.9141 156.1279 L 100.9141 157.0723 C 100.9141 157.2666 100.7559 157.4258 100.5605 157.4258 L 99.6172 157.4258 C 99.4219 157.4258 99.2646 157.2666 99.2646 157.0723 L 99.2646 156.1279 C 99.2646 155.9346 99.4219 155.7754 99.6172 155.7754 L 100.5605 155.7754 Z" fill="#969797"/>				<path d="M 102.4277 156.6006 C 102.4277 157.8916 101.3809 158.9385 100.0898 158.9385 C 98.7988 158.9385 97.752 157.8916 97.752 156.6006 C 97.752 155.3096 98.7988 154.2637 100.0898 154.2637 C 101.3809 154.2637 102.4277 155.3096 102.4277 156.6006 L 102.4277 156.6006 Z" fill="#969797"/>			</g>		</g>		<path d="M 111 152 L 89 152 L 89 115 L 111 115 L 111 152 Z" fill="#ffffff"/>	</g></svg>