<?xml version="1.0" encoding="utf-8"?>
<!-- Generator: Adobe Illustrator 16.0.4, SVG Export Plug-In . SVG Version: 6.00 Build 0)  -->
<!DOCTYPE svg PUBLIC "-//W3C//DTD SVG 1.1//EN" "http://www.w3.org/Graphics/SVG/1.1/DTD/svg11.dtd">
<svg version="1.1" id="Layer_1" xmlns="http://www.w3.org/2000/svg" xmlns:xlink="http://www.w3.org/1999/xlink" x="0px" y="0px"
	 width="300px" height="200px" viewBox="0 0 300 200" enable-background="new 0 0 300 200" xml:space="preserve">
<g id="background">
</g>
<g id="Layer_1_1_">
	<path fill="#00B0DA" d="M100,200c55.229,0,100-44.771,100-100C200,44.771,155.229,0,100,0C44.771,0,0,44.771,0,100
		C0,155.229,44.771,200,100,200"/>
	<path fill="#82D1F5" d="M79.589,160.998c3.897-2.027,4.293-4.646,7.828-4.792c4.045-0.181,7.332-1.558,11.89-2.54
		c4.044-0.873,11.278-4.917,17.653-5.439c5.366-0.43,15.968,0.278,18.826,5.392c-10.272,6.721-22.576,10.646-35.786,10.646
		C92.866,164.264,86.012,163.105,79.589,160.998 M91.083,36.948c-1.554,2.979-5.647,4.189-8.142,6.432
		c-5.416,4.834-7.744,4.166-10.668,8.805c-2.939,4.639-12.42,11.33-12.42,14.685c0,3.352,4.791,7.316,7.185,6.544
		c2.396-0.775,8.704-0.732,12.419,0.553c3.716,1.294,31.029,2.588,22.326,25.347c-2.758,7.233-14.846,6.014-18.065,18.002
		c-0.479,1.75-2.147,9.264-2.263,11.721c-0.199,3.794,2.725,18.111-0.991,18.111c-3.731,0-13.772-12.805-13.772-15.125
		c0-2.318-2.608-10.459-2.608-17.424c0-6.969-12.022-6.854-12.022-16.116c0-8.359,6.522-12.511,5.053-16.516
		c-1.437-3.981-12.896-4.128-17.67-4.607C47.783,56.019,67.419,40.172,91.083,36.948 M164.898,100.289
		c0,14.633-5.035,28.129-13.442,38.922c-2.378-1.84-4.904-6.781-2.526-11.91c2.396-5.158,3.022-17.092,2.479-21.736
		c-0.528-4.641-2.975-15.833-9.629-15.938c-6.637-0.099-11.194-2.263-15.144-10.026c-8.19-16.157,15.375-19.258,7.185-28.21
		c-2.295-2.509-14.135,10.344-15.868-6.788c-0.116-1.215,1.071-3.046,2.657-4.951C146.32,48.166,164.898,72.119,164.898,100.289
		 M100,25.276c-41.961,0-76.096,33.657-76.096,75.013c0,41.363,34.135,75.011,76.096,75.011s76.096-33.647,76.096-75.011
		C176.096,58.934,141.961,25.276,100,25.276"/>
</g>
</svg>
