<?xml version="1.0" encoding="utf-8"?>
<!-- Generator: Adobe Illustrator 16.0.4, SVG Export Plug-In . SVG Version: 6.00 Build 0)  -->
<!DOCTYPE svg PUBLIC "-//W3C//DTD SVG 1.1//EN" "http://www.w3.org/Graphics/SVG/1.1/DTD/svg11.dtd">
<svg version="1.1" id="Layer_1" xmlns="http://www.w3.org/2000/svg" xmlns:xlink="http://www.w3.org/1999/xlink" x="0px" y="0px"
	 width="300px" height="200px" viewBox="0 0 300 200" enable-background="new 0 0 300 200" xml:space="preserve">
<g id="background">
</g>
<g id="Layer_1_1_">
	<path fill="#8CC63F" d="M100,200c55.229,0,100-44.771,100-100C200,44.771,155.229,0,100,0C44.771,0,0,44.771,0,100
		C0,155.229,44.771,200,100,200"/>
	<path fill="#00512B" d="M86.892,95.9c-4.832,8.37-1.574,15.258,5.124,19.124c6.695,3.867,14.292,3.246,19.123-5.123
		c4.832-8.369,35.33-83.062,32.678-84.598C141.16,23.773,91.724,87.531,86.892,95.9"/>
	<path opacity="0.5" fill="#00512B" d="M100,42.7c3.061,0,6.051,0.264,8.966,0.757c3.068-3.836,6.498-8.069,9.841-12.09
		C112.841,29.639,106.542,28.7,100,28.7c-39.252,0-70,33.098-70,75.351c0,2.6,0.115,5.2,0.341,7.732
		c0.345,3.853,3.782,6.685,7.595,6.35c3.851-0.344,6.693-3.744,6.35-7.595c-0.189-2.12-0.285-4.302-0.285-6.487
		C44,69.649,68.598,42.7,100,42.7"/>
	<path opacity="0.5" fill="#00512B" d="M154.527,51.444c-1.951,5.247-4.021,10.599-5.836,15.227
		C155.811,76.953,160,89.865,160,104.051c0,2.219-0.1,4.443-0.299,6.614c-0.35,3.851,2.486,7.255,6.338,7.606
		c0.215,0.019,0.428,0.027,0.643,0.027c3.579,0,6.633-2.73,6.963-6.363c0.234-2.593,0.355-5.244,0.355-7.886
		C174,83.388,166.633,64.928,154.527,51.444"/>
	<g>
		<g>
			<path fill="#FFFFFF" d="M84,156v7H68v-4.114l9.002-8.963c1.368-1.332,2.972-2.808,2.972-4.858c0-2.16-1.86-3.545-3.948-3.545
				c-2.412,0-4.094,1.48-3.986,4.48h-4.644c-0.036-5,3.671-9.232,8.819-9.232c4.643,0,8.351,3.662,8.351,8.342
				c0,3.779-2.304,5.92-4.896,8.296L73.587,159H80v-3H84z"/>
			<path fill="#FFFFFF" d="M106,153.631c0,2.771-0.422,4.787-2.4,6.839c-1.836,1.872-4.277,3.023-6.907,3.023
				c-2.411,0-4.972-1.009-6.735-2.664c-2.232-2.087-2.957-4.211-2.957-7.198v-7.199c0-2.771,0.619-4.787,2.599-6.84
				c1.801-1.871,4.396-2.986,6.987-2.986c2.447,0,4.833,0.972,6.597,2.627c2.231,2.088,2.817,4.211,2.817,7.199L106,153.631
				L106,153.631z M92,153.702c0,1.332,0.172,2.521,0.963,3.672c0.828,1.188,2.264,1.728,3.704,1.728
				c1.512,0,2.921-0.646,3.714-1.979c0.648-1.08,0.619-2.196,0.619-3.42v-7.271c0-1.332,0.062-2.52-0.765-3.672
				c-0.793-1.188-2.147-1.764-3.55-1.764c-1.512,0-3.1,0.684-3.892,2.016c-0.684,1.08-0.794,2.195-0.794,3.42L92,153.702L92,153.702
				z"/>
			<path fill="#FFFFFF" d="M128,153.631c0,2.771-0.496,4.787-2.475,6.839c-1.836,1.872-4.315,3.023-6.944,3.023
				c-2.411,0-4.917-1.009-6.681-2.664c-2.23-2.087-2.9-4.211-2.9-7.198v-7.199c0-2.771,0.545-4.787,2.523-6.84
				c1.802-1.871,4.358-2.986,6.951-2.986c2.446,0,4.889,0.972,6.651,2.627c2.231,2.088,2.873,4.211,2.873,7.199L128,153.631
				L128,153.631z M114,153.702c0,1.332,0.098,2.521,0.889,3.672c0.828,1.188,2.228,1.728,3.668,1.728
				c1.512,0,2.978-0.646,3.771-1.979c0.646-1.08,0.674-2.196,0.674-3.42v-7.271c0-1.332-0.012-2.52-0.839-3.672
				c-0.793-1.188-2.186-1.764-3.587-1.764c-1.513,0-3.044,0.684-3.836,2.016c-0.685,1.08-0.738,2.195-0.738,3.42L114,153.702
				L114,153.702z"/>
		</g>
		<g>
			<path fill="#FFFFFF" d="M130.412,139.379c0-2.015,1.699-3.672,3.691-3.672c2.057,0,3.756,1.657,3.756,3.714
				c0,2.056-1.637,3.734-3.713,3.734C132.049,143.155,130.412,141.456,130.412,139.379z M135.678,139.441
				c0-0.86-0.691-1.553-1.553-1.553c-0.839,0-1.531,0.672-1.531,1.51c0,0.882,0.672,1.574,1.553,1.574
				C134.986,140.973,135.678,140.28,135.678,139.441z M134.336,151l6.756-15h2.057l-6.735,15H134.336z M139.664,147.456
				c0-2.035,1.679-3.672,3.693-3.672c2.056,0,3.756,1.637,3.756,3.692c0,2.057-1.658,3.756-3.715,3.756
				C141.301,151.232,139.664,149.533,139.664,147.456z M144.932,147.498c0-0.839-0.692-1.553-1.533-1.553
				c-0.838,0-1.551,0.672-1.551,1.531s0.691,1.573,1.572,1.573C144.26,149.051,144.932,148.337,144.932,147.498z"/>
		</g>
	</g>
</g>
</svg>
