<?xml version="1.0" encoding="utf-8"?>
<!-- Generator: Adobe Illustrator 16.0.4, SVG Export Plug-In . SVG Version: 6.00 Build 0)  -->
<!DOCTYPE svg PUBLIC "-//W3C//DTD SVG 1.1//EN" "http://www.w3.org/Graphics/SVG/1.1/DTD/svg11.dtd">
<svg version="1.1" id="Layer_1" xmlns="http://www.w3.org/2000/svg" xmlns:xlink="http://www.w3.org/1999/xlink" x="0px" y="0px"
	 width="300px" height="200px" viewBox="0 0 300 200" enable-background="new 0 0 300 200" xml:space="preserve">
<g id="background">
</g>
<g id="Layer_1_1_">
	<g>
		<g>
			<defs>
				<rect id="SVGID_1_" width="200" height="200"/>
			</defs>
			<clipPath id="SVGID_2_">
				<use xlink:href="#SVGID_1_"  overflow="visible"/>
			</clipPath>
			<path clip-path="url(#SVGID_2_)" fill="#FFCE01" d="M100.09,199.855c55.229,0,100-44.771,100-100s-44.771-100-100-100
				c-55.229,0-100,44.771-100,100S44.861,199.855,100.09,199.855"/>
		</g>
		<g>
			<defs>
				<rect id="SVGID_3_" width="200" height="200"/>
			</defs>
			<clipPath id="SVGID_4_">
				<use xlink:href="#SVGID_3_"  overflow="visible"/>
			</clipPath>
			<path clip-path="url(#SVGID_4_)" fill="#58595B" d="M39.328,130c-0.174,0-0.328-0.409-0.328-0.583V52.856
				C39,50.266,41.124,48,43.715,48h113.221c2.592,0,5.064,2.266,5.064,4.856v76.561c0,0.174-0.504,0.583-0.678,0.583H39.328z"/>
		</g>
		<g>
			<defs>
				<rect id="SVGID_5_" width="200" height="200"/>
			</defs>
			<clipPath id="SVGID_6_">
				<use xlink:href="#SVGID_5_"  overflow="visible"/>
			</clipPath>
			<path clip-path="url(#SVGID_6_)" fill="#312F30" d="M161,129V52.857c0-2.424-1.643-4.857-4.064-4.857H43.715
				C41.292,48,39,50.434,39,52.857V129H161z"/>
		</g>
	</g>
	<rect x="44" y="54" fill="#FFFFFF" width="113" height="70"/>
	<g>
		<g>
			<defs>
				<rect id="SVGID_7_" width="200" height="200"/>
			</defs>
			<clipPath id="SVGID_8_">
				<use xlink:href="#SVGID_7_"  overflow="visible"/>
			</clipPath>
			<path clip-path="url(#SVGID_8_)" fill="#312F30" d="M32.057,137c-4.541,0-10.537-1.709-13.113-2.879
				c-0.112-0.051,0.057-0.18,0.057-0.303v-4.793c0-0.172-0.343-0.025-0.17-0.025h162.521c0.174,0,0.649-0.146,0.649,0.025v4.793
				c0,0.123-0.24,0.252-0.353,0.303c-2.578,1.17-8.983,2.879-13.523,2.879H32.057z"/>
		</g>
		<g>
			<defs>
				<rect id="SVGID_9_" width="200" height="200"/>
			</defs>
			<clipPath id="SVGID_10_">
				<use xlink:href="#SVGID_9_"  overflow="visible"/>
			</clipPath>
			<path clip-path="url(#SVGID_10_)" fill="#58595B" d="M112,129v0.895c0,0.865-1.209,1.105-2.074,1.105H90.362
				c-0.865,0-1.361-0.24-1.361-1.105V129H19v5h162v-5H112z"/>
		</g>
		<g>
			<defs>
				<rect id="SVGID_11_" width="200" height="200"/>
			</defs>
			<clipPath id="SVGID_12_">
				<use xlink:href="#SVGID_11_"  overflow="visible"/>
			</clipPath>
			<path clip-path="url(#SVGID_12_)" d="M129,66.713c0-2.016-1.395-3.713-3.411-3.713H74.591C72.574,63,71,64.697,71,66.713v79.598
				c0,2.018,1.574,3.689,3.591,3.689h50.998c2.017,0,3.411-1.673,3.411-3.689V66.713z"/>
		</g>
	</g>
	<rect x="74" y="71" fill="#FFFFFF" width="53" height="71"/>
	<g>
		<g>
			<defs>
				<rect id="SVGID_13_" width="200" height="200"/>
			</defs>
			<clipPath id="SVGID_14_">
				<use xlink:href="#SVGID_13_"  overflow="visible"/>
			</clipPath>
			<path clip-path="url(#SVGID_14_)" fill="#979898" d="M100.898,145h-1.281c-0.346,0-0.719-0.104-0.719,0.242v0.943
				c0,0.348,0.373,0.813,0.719,0.813h0.943c0.347,0,0.338-0.467,0.338-0.813v-0.943c0-0.348,0.009-0.242-0.338-0.242
				 M100.561,144.891c0.195,0,0.354,0.158,0.354,0.353v0.942c0,0.195-0.158,0.354-0.354,0.354h-0.942
				c-0.195,0-0.353-0.159-0.353-0.354v-0.942c0-0.193,0.157-0.353,0.353-0.353H100.561z"/>
		</g>
		<g>
			<defs>
				<rect id="SVGID_15_" width="200" height="200"/>
			</defs>
			<clipPath id="SVGID_16_">
				<use xlink:href="#SVGID_15_"  overflow="visible"/>
			</clipPath>
			<path clip-path="url(#SVGID_16_)" fill="#979898" d="M102.428,145.715c0,1.291-1.047,2.338-2.338,2.338s-2.338-1.047-2.338-2.338
				s1.047-2.338,2.338-2.338S102.428,144.424,102.428,145.715"/>
		</g>
		<g>
			<defs>
				<rect id="SVGID_17_" width="200" height="200"/>
			</defs>
			<clipPath id="SVGID_18_">
				<use xlink:href="#SVGID_17_"  overflow="visible"/>
			</clipPath>
			<path clip-path="url(#SVGID_18_)" d="M113,109.96c0-2.015-1.346-3.96-3.361-3.96H90.541c-2.016,0-3.541,1.945-3.541,3.96v47.351
				c0,2.018,1.525,3.689,3.541,3.689h19.098c2.017,0,3.361-1.673,3.361-3.689V109.96z"/>
		</g>
		<g>
			<defs>
				<rect id="SVGID_19_" width="200" height="200"/>
			</defs>
			<clipPath id="SVGID_20_">
				<use xlink:href="#SVGID_19_"  overflow="visible"/>
			</clipPath>
			<path clip-path="url(#SVGID_20_)" fill="#979898" d="M100.898,156h-1.281c-0.346,0-0.719-0.218-0.719,0.128v0.944
				c0,0.346,0.373,0.928,0.719,0.928h0.943c0.347,0,0.338-0.582,0.338-0.928v-0.944c0-0.346,0.009-0.128-0.338-0.128
				 M100.561,155.775c0.195,0,0.354,0.158,0.354,0.353v0.944c0,0.193-0.158,0.354-0.354,0.354h-0.942
				c-0.195,0-0.353-0.158-0.353-0.354v-0.944c0-0.192,0.157-0.353,0.353-0.353H100.561z"/>
		</g>
		<g>
			<defs>
				<rect id="SVGID_21_" width="200" height="200"/>
			</defs>
			<clipPath id="SVGID_22_">
				<use xlink:href="#SVGID_21_"  overflow="visible"/>
			</clipPath>
			<path clip-path="url(#SVGID_22_)" fill="#979898" d="M102.428,156.602c0,1.291-1.047,2.338-2.338,2.338s-2.338-1.047-2.338-2.338
				s1.047-2.338,2.338-2.338S102.428,155.311,102.428,156.602"/>
		</g>
	</g>
	<rect x="89" y="115" fill="#FFFFFF" width="22" height="37"/>
</g>
</svg>
